<svg width="1560" height="500" viewBox="0 0 1560 500" fill="none" xmlns="http://www.w3.org/2000/svg">
<g filter="url(#filter0_i_738_183)">
<rect width="720" height="420" transform="translate(40 40)" fill="#F7F8FC"/>
<g clip-path="url(#clip0_738_183)">
<path fill-rule="evenodd" clip-rule="evenodd" d="M92 104C98.6274 104 104 98.6274 104 92C104 85.3726 98.6274 80 92 80C85.3726 80 80 85.3726 80 92C80 98.6274 85.3726 104 92 104ZM98.8026 87.4617C99.238 87.905 99.2316 88.6173 98.7883 89.0526L91.1519 96.5526C90.7143 96.9825 90.013 96.9825 89.5753 96.5526L85.2117 92.2669C84.7684 91.8316 84.762 91.1193 85.1974 90.676C85.6327 90.2327 86.345 90.2263 86.7883 90.6617L90.3636 94.1732L97.2117 87.4474C97.655 87.012 98.3673 87.0184 98.8026 87.4617Z" fill="#00BFB3"/>
</g>
<path d="M126.07 88.6016C126.008 87.9714 125.74 87.4818 125.266 87.1328C124.792 86.7839 124.148 86.6094 123.336 86.6094C122.784 86.6094 122.318 86.6875 121.938 86.8437C121.557 86.9948 121.266 87.2057 121.063 87.4766C120.865 87.7474 120.766 88.0547 120.766 88.3984C120.755 88.6849 120.815 88.9349 120.945 89.1484C121.081 89.362 121.266 89.5469 121.5 89.7031C121.734 89.8542 122.005 89.987 122.312 90.1016C122.62 90.2109 122.948 90.3047 123.297 90.3828L124.734 90.7266C125.432 90.8828 126.073 91.0911 126.656 91.3516C127.24 91.612 127.745 91.9323 128.172 92.3125C128.599 92.6927 128.93 93.1406 129.164 93.6562C129.404 94.1719 129.526 94.763 129.531 95.4297C129.526 96.4089 129.276 97.2578 128.781 97.9766C128.292 98.6901 127.583 99.2448 126.656 99.6406C125.734 100.031 124.622 100.227 123.32 100.227C122.029 100.227 120.904 100.029 119.945 99.6328C118.992 99.237 118.247 98.651 117.711 97.875C117.18 97.0937 116.901 96.1276 116.875 94.9766H120.148C120.185 95.513 120.339 95.9609 120.609 96.3203C120.885 96.6745 121.253 96.9427 121.711 97.125C122.174 97.3021 122.698 97.3906 123.281 97.3906C123.854 97.3906 124.352 97.3073 124.773 97.1406C125.201 96.974 125.531 96.7422 125.766 96.4453C126 96.1484 126.117 95.8073 126.117 95.4219C126.117 95.0625 126.01 94.7604 125.797 94.5156C125.589 94.2708 125.281 94.0625 124.875 93.8906C124.474 93.7187 123.982 93.5625 123.398 93.4219L121.656 92.9844C120.307 92.6562 119.242 92.1432 118.461 91.4453C117.68 90.7474 117.292 89.8073 117.297 88.625C117.292 87.6562 117.549 86.8099 118.07 86.0859C118.596 85.362 119.318 84.7969 120.234 84.3906C121.151 83.9844 122.193 83.7812 123.359 83.7812C124.547 83.7812 125.583 83.9844 126.469 84.3906C127.359 84.7969 128.052 85.362 128.547 86.0859C129.042 86.8099 129.297 87.6484 129.312 88.6016H126.07ZM135.166 100.227C134.4 100.227 133.718 100.094 133.119 99.8281C132.52 99.5573 132.046 99.1589 131.697 98.6328C131.354 98.1016 131.182 97.4401 131.182 96.6484C131.182 95.9818 131.304 95.4219 131.549 94.9687C131.794 94.5156 132.127 94.151 132.549 93.875C132.971 93.599 133.45 93.3906 133.986 93.25C134.528 93.1094 135.096 93.0104 135.689 92.9531C136.387 92.8802 136.95 92.8125 137.377 92.75C137.804 92.6823 138.114 92.5833 138.307 92.4531C138.499 92.3229 138.596 92.1302 138.596 91.875V91.8281C138.596 91.3333 138.439 90.9505 138.127 90.6797C137.82 90.4089 137.382 90.2734 136.814 90.2734C136.215 90.2734 135.739 90.4062 135.385 90.6719C135.031 90.9323 134.796 91.2604 134.682 91.6562L131.604 91.4062C131.76 90.6771 132.067 90.0469 132.525 89.5156C132.984 88.9792 133.575 88.5677 134.299 88.2812C135.028 87.9896 135.872 87.8438 136.83 87.8438C137.497 87.8438 138.135 87.9219 138.744 88.0781C139.359 88.2344 139.903 88.4766 140.377 88.8047C140.856 89.1328 141.234 89.5547 141.51 90.0703C141.786 90.5807 141.924 91.1927 141.924 91.9062V100H138.768V98.3359H138.674C138.481 98.7109 138.223 99.0417 137.9 99.3281C137.577 99.6094 137.189 99.8307 136.736 99.9922C136.283 100.148 135.76 100.227 135.166 100.227ZM136.119 97.9297C136.609 97.9297 137.041 97.8333 137.416 97.6406C137.791 97.4427 138.085 97.1771 138.299 96.8438C138.512 96.5104 138.619 96.1328 138.619 95.7109V94.4375C138.515 94.5052 138.372 94.5677 138.189 94.625C138.012 94.6771 137.812 94.7266 137.588 94.7734C137.364 94.8151 137.14 94.8542 136.916 94.8906C136.692 94.9219 136.489 94.9505 136.307 94.9766C135.916 95.0339 135.575 95.125 135.283 95.25C134.992 95.375 134.765 95.5443 134.604 95.7578C134.442 95.9661 134.361 96.2266 134.361 96.5391C134.361 96.9922 134.525 97.3385 134.854 97.5781C135.187 97.8125 135.609 97.9297 136.119 97.9297ZM155.264 88L151.068 100H147.318L143.123 88H146.639L149.131 96.5859H149.256L151.74 88H155.264ZM162.049 100.234C160.814 100.234 159.752 99.9844 158.861 99.4844C157.976 98.9792 157.294 98.2656 156.814 97.3437C156.335 96.4167 156.096 95.3203 156.096 94.0547C156.096 92.8203 156.335 91.737 156.814 90.8047C157.294 89.8724 157.968 89.1458 158.838 88.625C159.713 88.1042 160.739 87.8438 161.916 87.8438C162.708 87.8438 163.445 87.9714 164.127 88.2266C164.814 88.4766 165.413 88.8542 165.924 89.3594C166.439 89.8646 166.84 90.5 167.127 91.2656C167.413 92.026 167.557 92.9167 167.557 93.9375V94.8516H157.424V92.7891H164.424C164.424 92.3099 164.32 91.8854 164.111 91.5156C163.903 91.1458 163.614 90.8568 163.244 90.6484C162.88 90.4349 162.455 90.3281 161.971 90.3281C161.465 90.3281 161.018 90.4453 160.627 90.6797C160.242 90.9089 159.939 91.2187 159.721 91.6094C159.502 91.9948 159.39 92.4245 159.385 92.8984V94.8594C159.385 95.4531 159.494 95.9661 159.713 96.3984C159.937 96.8307 160.252 97.1641 160.658 97.3984C161.064 97.6328 161.546 97.75 162.104 97.75C162.473 97.75 162.812 97.6979 163.119 97.5938C163.426 97.4896 163.689 97.3333 163.908 97.125C164.127 96.9167 164.294 96.6615 164.408 96.3594L167.486 96.5625C167.33 97.3021 167.01 97.9479 166.525 98.5C166.046 99.0469 165.426 99.474 164.666 99.7813C163.911 100.083 163.038 100.234 162.049 100.234ZM174.883 100V84H178.211V90.0156H178.313C178.458 89.6927 178.669 89.3646 178.945 89.0312C179.227 88.6927 179.591 88.4115 180.039 88.1875C180.492 87.9583 181.055 87.8438 181.727 87.8438C182.602 87.8438 183.409 88.0729 184.148 88.5313C184.888 88.9844 185.479 89.6693 185.922 90.5859C186.365 91.4974 186.586 92.6406 186.586 94.0156C186.586 95.3542 186.37 96.4844 185.938 97.4062C185.51 98.3229 184.927 99.0182 184.188 99.4922C183.453 99.9609 182.63 100.195 181.719 100.195C181.073 100.195 180.523 100.089 180.07 99.875C179.622 99.6615 179.255 99.3932 178.969 99.0703C178.682 98.7422 178.464 98.4115 178.313 98.0781H178.164V100H174.883ZM178.141 94C178.141 94.7135 178.24 95.3359 178.438 95.8672C178.635 96.3984 178.922 96.8125 179.297 97.1094C179.672 97.401 180.128 97.5469 180.664 97.5469C181.206 97.5469 181.664 97.3984 182.039 97.1016C182.414 96.7995 182.698 96.3828 182.891 95.8516C183.089 95.3151 183.188 94.6979 183.188 94C183.188 93.3073 183.091 92.6979 182.898 92.1719C182.706 91.6458 182.422 91.2344 182.047 90.9375C181.672 90.6406 181.211 90.4922 180.664 90.4922C180.122 90.4922 179.664 90.6354 179.289 90.9219C178.919 91.2083 178.635 91.6146 178.438 92.1406C178.24 92.6667 178.141 93.2865 178.141 94ZM196.502 94.8906V88H199.83V100H196.635V97.8203H196.51C196.239 98.5234 195.788 99.0885 195.158 99.5156C194.533 99.9427 193.77 100.156 192.869 100.156C192.067 100.156 191.361 99.974 190.752 99.6094C190.143 99.2448 189.666 98.7266 189.322 98.0547C188.984 97.3828 188.812 96.5781 188.807 95.6406V88H192.135V95.0469C192.14 95.7552 192.33 96.3151 192.705 96.7266C193.08 97.138 193.583 97.3437 194.213 97.3437C194.614 97.3437 194.989 97.2526 195.338 97.0703C195.687 96.8828 195.968 96.6068 196.182 96.2422C196.4 95.8776 196.507 95.4271 196.502 94.8906ZM208.875 88V90.5H201.648V88H208.875ZM203.289 85.125H206.617V96.3125C206.617 96.6198 206.664 96.8594 206.758 97.0312C206.852 97.1979 206.982 97.3151 207.148 97.3828C207.32 97.4505 207.518 97.4844 207.742 97.4844C207.898 97.4844 208.055 97.4714 208.211 97.4453C208.367 97.4141 208.487 97.3906 208.57 97.375L209.094 99.8516C208.927 99.9036 208.693 99.9635 208.391 100.031C208.089 100.104 207.721 100.148 207.289 100.164C206.487 100.195 205.784 100.089 205.18 99.8437C204.581 99.599 204.115 99.2187 203.781 98.7031C203.448 98.1875 203.284 97.5365 203.289 96.75V85.125ZM217.426 88V90.5H210.199V88H217.426ZM211.84 85.125H215.168V96.3125C215.168 96.6198 215.215 96.8594 215.309 97.0312C215.402 97.1979 215.533 97.3151 215.699 97.3828C215.871 97.4505 216.069 97.4844 216.293 97.4844C216.449 97.4844 216.605 97.4714 216.762 97.4453C216.918 97.4141 217.038 97.3906 217.121 97.375L217.645 99.8516C217.478 99.9036 217.243 99.9635 216.941 100.031C216.639 100.104 216.272 100.148 215.84 100.164C215.038 100.195 214.335 100.089 213.73 99.8437C213.132 99.599 212.665 99.2187 212.332 98.7031C211.999 98.1875 211.835 97.5365 211.84 96.75V85.125ZM224.887 100.234C223.673 100.234 222.624 99.9766 221.738 99.4609C220.858 98.9401 220.178 98.2161 219.699 97.2891C219.22 96.3568 218.98 95.276 218.98 94.0469C218.98 92.8073 219.22 91.724 219.699 90.7969C220.178 89.8646 220.858 89.1406 221.738 88.625C222.624 88.1042 223.673 87.8438 224.887 87.8438C226.1 87.8438 227.147 88.1042 228.027 88.625C228.913 89.1406 229.595 89.8646 230.074 90.7969C230.553 91.724 230.793 92.8073 230.793 94.0469C230.793 95.276 230.553 96.3568 230.074 97.2891C229.595 98.2161 228.913 98.9401 228.027 99.4609C227.147 99.9766 226.1 100.234 224.887 100.234ZM224.902 97.6562C225.454 97.6562 225.915 97.5 226.285 97.1875C226.655 96.8698 226.934 96.4375 227.121 95.8906C227.314 95.3437 227.41 94.7214 227.41 94.0234C227.41 93.3255 227.314 92.7031 227.121 92.1562C226.934 91.6094 226.655 91.1771 226.285 90.8594C225.915 90.5417 225.454 90.3828 224.902 90.3828C224.345 90.3828 223.876 90.5417 223.496 90.8594C223.121 91.1771 222.837 91.6094 222.645 92.1562C222.457 92.7031 222.363 93.3255 222.363 94.0234C222.363 94.7214 222.457 95.3437 222.645 95.8906C222.837 96.4375 223.121 96.8698 223.496 97.1875C223.876 97.5 224.345 97.6562 224.902 97.6562ZM236.285 93.0625V100H232.957V88H236.129V90.1172H236.27C236.535 89.4193 236.98 88.8672 237.605 88.4609C238.23 88.0495 238.988 87.8438 239.879 87.8438C240.712 87.8438 241.439 88.026 242.059 88.3906C242.678 88.7552 243.16 89.276 243.504 89.9531C243.848 90.625 244.02 91.4271 244.02 92.3594V100H240.691V92.9531C240.697 92.2187 240.509 91.6458 240.129 91.2344C239.749 90.8177 239.225 90.6094 238.559 90.6094C238.111 90.6094 237.715 90.7057 237.371 90.8984C237.033 91.0911 236.767 91.3724 236.574 91.7422C236.387 92.1068 236.29 92.5469 236.285 93.0625Z" fill="#00BFB3"/>
</g>
<rect x="104" y="259" width="142" height="40" rx="6" fill="#0077CC"/>
<g clip-path="url(#clip1_738_183)">
<path fill-rule="evenodd" clip-rule="evenodd" d="M124.5 278.5H128C128.276 278.5 128.5 278.723 128.5 279C128.5 279.276 128.276 279.5 128 279.5H124.5V283C124.5 283.276 124.276 283.5 124 283.5C123.724 283.5 123.5 283.276 123.5 283V279.5H120C119.724 279.5 119.5 279.276 119.5 279C119.5 278.723 119.724 278.5 120 278.5H123.5V275C123.5 274.723 123.724 274.5 124 274.5C124.276 274.5 124.5 274.723 124.5 275V278.5ZM124 271.5C128.136 271.5 131.5 274.864 131.5 279C131.5 283.135 128.136 286.5 124 286.5C119.864 286.5 116.5 283.135 116.5 279C116.5 274.864 119.864 271.5 124 271.5ZM124 272.382C120.345 272.382 117.382 275.345 117.382 279C117.382 282.654 120.345 285.617 124 285.617C127.655 285.617 130.618 282.654 130.618 279C130.618 275.345 127.655 272.382 124 272.382Z" fill="white"/>
</g>
<path d="M149.575 277.629H148.024C147.964 277.297 147.853 277.006 147.691 276.754C147.529 276.502 147.33 276.288 147.094 276.112C146.859 275.937 146.596 275.804 146.304 275.715C146.016 275.625 145.709 275.58 145.384 275.58C144.798 275.58 144.272 275.728 143.808 276.023C143.348 276.318 142.983 276.75 142.714 277.321C142.449 277.891 142.317 278.587 142.317 279.409C142.317 280.237 142.449 280.937 142.714 281.507C142.983 282.077 143.349 282.508 143.813 282.799C144.277 283.091 144.799 283.237 145.379 283.237C145.701 283.237 146.006 283.194 146.294 283.107C146.586 283.018 146.849 282.887 147.085 282.715C147.32 282.542 147.519 282.332 147.681 282.083C147.847 281.831 147.961 281.543 148.024 281.218L149.575 281.223C149.492 281.724 149.332 282.184 149.093 282.605C148.858 283.023 148.554 283.384 148.183 283.689C147.815 283.991 147.394 284.224 146.92 284.39C146.446 284.556 145.929 284.639 145.369 284.639C144.488 284.639 143.702 284.43 143.013 284.012C142.323 283.591 141.78 282.99 141.382 282.208C140.988 281.425 140.79 280.492 140.79 279.409C140.79 278.321 140.989 277.388 141.387 276.61C141.785 275.827 142.328 275.227 143.018 274.81C143.707 274.389 144.491 274.178 145.369 274.178C145.91 274.178 146.413 274.256 146.881 274.412C147.351 274.565 147.774 274.79 148.148 275.088C148.523 275.383 148.833 275.745 149.078 276.172C149.323 276.596 149.489 277.082 149.575 277.629ZM151.294 284.5V276.863H152.731V278.076H152.811C152.95 277.665 153.195 277.342 153.546 277.107C153.901 276.868 154.302 276.749 154.749 276.749C154.842 276.749 154.952 276.752 155.078 276.759C155.207 276.765 155.308 276.774 155.381 276.784V278.205C155.321 278.189 155.215 278.171 155.063 278.151C154.91 278.128 154.758 278.116 154.605 278.116C154.254 278.116 153.941 278.191 153.666 278.34C153.394 278.486 153.178 278.689 153.019 278.951C152.86 279.21 152.781 279.505 152.781 279.836V284.5H151.294ZM159.685 284.654C158.933 284.654 158.285 284.493 157.741 284.171C157.201 283.847 156.783 283.391 156.488 282.804C156.197 282.214 156.051 281.523 156.051 280.731C156.051 279.949 156.197 279.259 156.488 278.663C156.783 278.066 157.194 277.601 157.721 277.266C158.252 276.931 158.871 276.764 159.581 276.764C160.011 276.764 160.429 276.835 160.833 276.977C161.238 277.12 161.601 277.344 161.922 277.649C162.244 277.954 162.497 278.35 162.683 278.837C162.868 279.321 162.961 279.909 162.961 280.602V281.129H156.891V280.015H161.505C161.505 279.624 161.425 279.278 161.266 278.976C161.107 278.671 160.883 278.431 160.595 278.255C160.31 278.08 159.975 277.992 159.591 277.992C159.173 277.992 158.808 278.094 158.497 278.3C158.189 278.502 157.95 278.767 157.781 279.095C157.615 279.42 157.532 279.773 157.532 280.154V281.024C157.532 281.535 157.622 281.969 157.801 282.327C157.983 282.685 158.237 282.958 158.561 283.147C158.886 283.333 159.266 283.426 159.7 283.426C159.982 283.426 160.239 283.386 160.471 283.306C160.703 283.223 160.903 283.101 161.072 282.938C161.241 282.776 161.37 282.576 161.46 282.337L162.867 282.59C162.754 283.005 162.552 283.368 162.26 283.679C161.972 283.987 161.609 284.228 161.172 284.4C160.737 284.569 160.242 284.654 159.685 284.654ZM166.833 284.669C166.349 284.669 165.912 284.579 165.52 284.4C165.129 284.218 164.819 283.954 164.591 283.61C164.365 283.265 164.253 282.842 164.253 282.342C164.253 281.911 164.336 281.556 164.501 281.278C164.667 281 164.891 280.779 165.172 280.617C165.454 280.454 165.769 280.332 166.117 280.249C166.465 280.166 166.82 280.103 167.181 280.06C167.638 280.007 168.01 279.964 168.295 279.931C168.58 279.894 168.787 279.836 168.916 279.757C169.045 279.677 169.11 279.548 169.11 279.369V279.334C169.11 278.9 168.987 278.563 168.742 278.325C168.5 278.086 168.139 277.967 167.658 277.967C167.158 277.967 166.763 278.078 166.475 278.3C166.19 278.519 165.993 278.762 165.883 279.031L164.486 278.713C164.652 278.249 164.894 277.874 165.212 277.589C165.534 277.301 165.903 277.092 166.321 276.963C166.738 276.83 167.178 276.764 167.638 276.764C167.943 276.764 168.266 276.8 168.608 276.873C168.952 276.943 169.274 277.072 169.572 277.261C169.874 277.45 170.121 277.72 170.313 278.071C170.505 278.419 170.601 278.872 170.601 279.428V284.5H169.15V283.455H169.09C168.994 283.648 168.85 283.837 168.657 284.022C168.465 284.208 168.218 284.362 167.917 284.485C167.615 284.607 167.254 284.669 166.833 284.669ZM167.156 283.475C167.567 283.475 167.918 283.394 168.21 283.232C168.505 283.069 168.729 282.857 168.881 282.595C169.037 282.33 169.115 282.047 169.115 281.745V280.761C169.062 280.814 168.959 280.864 168.807 280.91C168.657 280.953 168.487 280.991 168.295 281.024C168.102 281.054 167.915 281.082 167.733 281.109C167.55 281.132 167.398 281.152 167.275 281.169C166.987 281.205 166.724 281.266 166.485 281.352C166.25 281.439 166.061 281.563 165.918 281.725C165.779 281.884 165.709 282.097 165.709 282.362C165.709 282.73 165.845 283.008 166.117 283.197C166.389 283.383 166.735 283.475 167.156 283.475ZM176.146 276.863V278.056H171.975V276.863H176.146ZM173.093 275.034H174.58V282.257C174.58 282.546 174.623 282.763 174.709 282.909C174.795 283.051 174.906 283.149 175.042 283.202C175.181 283.252 175.332 283.277 175.495 283.277C175.614 283.277 175.718 283.268 175.808 283.252C175.897 283.235 175.967 283.222 176.017 283.212L176.285 284.44C176.199 284.473 176.076 284.506 175.917 284.539C175.758 284.576 175.559 284.596 175.321 284.599C174.93 284.606 174.565 284.536 174.227 284.39C173.889 284.244 173.615 284.019 173.407 283.714C173.198 283.409 173.093 283.026 173.093 282.566V275.034ZM180.999 284.654C180.247 284.654 179.599 284.493 179.056 284.171C178.515 283.847 178.098 283.391 177.803 282.804C177.511 282.214 177.365 281.523 177.365 280.731C177.365 279.949 177.511 279.259 177.803 278.663C178.098 278.066 178.509 277.601 179.036 277.266C179.566 276.931 180.186 276.764 180.895 276.764C181.326 276.764 181.744 276.835 182.148 276.977C182.552 277.12 182.915 277.344 183.237 277.649C183.558 277.954 183.812 278.35 183.997 278.837C184.183 279.321 184.276 279.909 184.276 280.602V281.129H178.205V280.015H182.819C182.819 279.624 182.74 279.278 182.58 278.976C182.421 278.671 182.198 278.431 181.909 278.255C181.624 278.08 181.289 277.992 180.905 277.992C180.487 277.992 180.123 278.094 179.811 278.3C179.503 278.502 179.264 278.767 179.095 279.095C178.93 279.42 178.847 279.773 178.847 280.154V281.024C178.847 281.535 178.936 281.969 179.115 282.327C179.298 282.685 179.551 282.958 179.876 283.147C180.201 283.333 180.58 283.426 181.014 283.426C181.296 283.426 181.553 283.386 181.785 283.306C182.017 283.223 182.218 283.101 182.387 282.938C182.556 282.776 182.685 282.576 182.774 282.337L184.181 282.59C184.069 283.005 183.866 283.368 183.575 283.679C183.286 283.987 182.923 284.228 182.486 284.4C182.052 284.569 181.556 284.654 180.999 284.654ZM189.118 280.303V279.558C189.678 279.558 190.069 279.443 190.291 279.215C190.513 278.983 190.624 278.6 190.624 278.066V276.639C190.624 276.132 190.681 275.706 190.794 275.362C190.91 275.014 191.085 274.735 191.32 274.526C191.556 274.318 191.854 274.167 192.215 274.074C192.577 273.981 193.003 273.935 193.493 273.935V275.113C193.109 275.113 192.809 275.169 192.593 275.282C192.378 275.395 192.227 275.571 192.141 275.809C192.058 276.044 192.017 276.346 192.017 276.714V278.524C192.017 278.779 191.978 279.016 191.902 279.235C191.826 279.45 191.685 279.637 191.48 279.796C191.274 279.955 190.981 280.08 190.6 280.169C190.218 280.259 189.725 280.303 189.118 280.303ZM193.493 286.617C193.003 286.617 192.577 286.571 192.215 286.478C191.854 286.385 191.556 286.235 191.32 286.026C191.085 285.817 190.91 285.539 190.794 285.191C190.681 284.846 190.624 284.42 190.624 283.913V282.481C190.624 281.951 190.513 281.57 190.291 281.338C190.069 281.106 189.678 280.99 189.118 280.99V280.249C189.725 280.249 190.218 280.294 190.6 280.383C190.981 280.469 191.274 280.593 191.48 280.756C191.685 280.915 191.826 281.104 191.902 281.323C191.978 281.538 192.017 281.773 192.017 282.029V283.838C192.017 284.203 192.058 284.503 192.141 284.738C192.227 284.977 192.378 285.152 192.593 285.265C192.809 285.381 193.109 285.439 193.493 285.439V286.617ZM189.118 280.99V279.558H190.495V280.99H189.118ZM198.486 276.863V278.056H194.315V276.863H198.486ZM195.433 275.034H196.92V282.257C196.92 282.546 196.963 282.763 197.049 282.909C197.135 283.051 197.246 283.149 197.382 283.202C197.521 283.252 197.672 283.277 197.835 283.277C197.954 283.277 198.058 283.268 198.148 283.252C198.237 283.235 198.307 283.222 198.357 283.212L198.625 284.44C198.539 284.473 198.416 284.506 198.257 284.539C198.098 284.576 197.899 284.596 197.661 284.599C197.269 284.606 196.905 284.536 196.567 284.39C196.229 284.244 195.955 284.019 195.746 283.714C195.538 283.409 195.433 283.026 195.433 282.566V275.034ZM201.781 279.965V284.5H200.294V274.318H201.761V278.106H201.855C202.034 277.695 202.308 277.369 202.676 277.127C203.044 276.885 203.524 276.764 204.117 276.764C204.641 276.764 205.098 276.871 205.49 277.087C205.884 277.302 206.189 277.624 206.404 278.051C206.623 278.476 206.732 279.006 206.732 279.642V284.5H205.246V279.821C205.246 279.261 205.102 278.827 204.813 278.519C204.525 278.207 204.124 278.051 203.61 278.051C203.259 278.051 202.944 278.126 202.666 278.275C202.391 278.424 202.173 278.643 202.014 278.931C201.859 279.216 201.781 279.561 201.781 279.965ZM208.716 284.5V276.863H210.203V284.5H208.716ZM209.467 275.685C209.208 275.685 208.986 275.599 208.801 275.426C208.618 275.251 208.527 275.042 208.527 274.8C208.527 274.555 208.618 274.346 208.801 274.174C208.986 273.998 209.208 273.91 209.467 273.91C209.725 273.91 209.946 273.998 210.128 274.174C210.314 274.346 210.406 274.555 210.406 274.8C210.406 275.042 210.314 275.251 210.128 275.426C209.946 275.599 209.725 275.685 209.467 275.685ZM213.689 279.965V284.5H212.202V276.863H213.629V278.106H213.724C213.899 277.702 214.174 277.377 214.549 277.132C214.927 276.886 215.402 276.764 215.976 276.764C216.496 276.764 216.952 276.873 217.343 277.092C217.734 277.307 218.037 277.629 218.253 278.056C218.468 278.484 218.576 279.013 218.576 279.642V284.5H217.089V279.821C217.089 279.268 216.945 278.835 216.657 278.524C216.369 278.209 215.973 278.051 215.469 278.051C215.124 278.051 214.817 278.126 214.549 278.275C214.284 278.424 214.073 278.643 213.918 278.931C213.765 279.216 213.689 279.561 213.689 279.965ZM223.771 287.522C223.165 287.522 222.643 287.443 222.205 287.284C221.771 287.125 221.416 286.914 221.141 286.652C220.866 286.39 220.661 286.104 220.525 285.792L221.803 285.265C221.892 285.411 222.011 285.565 222.161 285.727C222.313 285.893 222.518 286.034 222.777 286.15C223.039 286.266 223.375 286.324 223.786 286.324C224.35 286.324 224.815 286.187 225.183 285.911C225.551 285.64 225.735 285.205 225.735 284.609V283.107H225.641C225.551 283.27 225.422 283.451 225.253 283.649C225.087 283.848 224.858 284.021 224.567 284.166C224.275 284.312 223.896 284.385 223.428 284.385C222.825 284.385 222.281 284.244 221.798 283.963C221.317 283.678 220.936 283.258 220.654 282.705C220.376 282.148 220.237 281.464 220.237 280.652C220.237 279.839 220.374 279.143 220.649 278.563C220.928 277.983 221.309 277.539 221.793 277.231C222.277 276.919 222.825 276.764 223.438 276.764C223.912 276.764 224.295 276.843 224.587 277.002C224.878 277.158 225.105 277.34 225.268 277.549C225.433 277.758 225.561 277.942 225.651 278.101H225.76V276.863H227.217V284.669C227.217 285.325 227.064 285.863 226.759 286.284C226.454 286.705 226.042 287.017 225.521 287.219C225.004 287.421 224.421 287.522 223.771 287.522ZM223.756 283.152C224.184 283.152 224.545 283.053 224.84 282.854C225.138 282.652 225.364 282.363 225.516 281.989C225.672 281.611 225.75 281.159 225.75 280.632C225.75 280.118 225.674 279.665 225.521 279.274C225.369 278.883 225.145 278.578 224.85 278.36C224.555 278.138 224.191 278.027 223.756 278.027C223.309 278.027 222.936 278.143 222.638 278.375C222.339 278.603 222.114 278.915 221.962 279.309C221.813 279.704 221.738 280.144 221.738 280.632C221.738 281.132 221.814 281.571 221.967 281.949C222.119 282.327 222.344 282.622 222.643 282.834C222.944 283.046 223.316 283.152 223.756 283.152ZM233.013 280.249V280.99C232.453 280.99 232.062 281.106 231.84 281.338C231.618 281.57 231.507 281.951 231.507 282.481V283.913C231.507 284.42 231.449 284.846 231.333 285.191C231.22 285.539 231.046 285.817 230.811 286.026C230.576 286.235 230.277 286.385 229.916 286.478C229.555 286.571 229.129 286.617 228.638 286.617V285.439C229.023 285.439 229.323 285.381 229.538 285.265C229.754 285.152 229.903 284.977 229.986 284.738C230.072 284.503 230.115 284.203 230.115 283.838V282.029C230.115 281.773 230.153 281.538 230.229 281.323C230.306 281.104 230.446 280.915 230.652 280.756C230.857 280.593 231.151 280.469 231.532 280.383C231.913 280.294 232.407 280.249 233.013 280.249ZM228.638 273.935C229.129 273.935 229.555 273.981 229.916 274.074C230.277 274.167 230.576 274.318 230.811 274.526C231.046 274.735 231.22 275.014 231.333 275.362C231.449 275.706 231.507 276.132 231.507 276.639V278.066C231.507 278.6 231.618 278.983 231.84 279.215C232.062 279.443 232.453 279.558 233.013 279.558V280.303C232.407 280.303 231.913 280.259 231.532 280.169C231.151 280.08 230.857 279.955 230.652 279.796C230.446 279.637 230.306 279.45 230.229 279.235C230.153 279.016 230.115 278.779 230.115 278.524V276.714C230.115 276.346 230.072 276.044 229.986 275.809C229.903 275.571 229.754 275.395 229.538 275.282C229.323 275.169 229.023 275.113 228.638 275.113V273.935ZM233.013 279.558V280.99H231.636V279.558H233.013Z" fill="white"/>
<g filter="url(#filter1_dddd_738_183)">
<rect x="338" y="150" width="372" height="236" rx="6" fill="white"/>
<path d="M373.032 179.238H368.833C368.756 178.695 368.599 178.212 368.363 177.79C368.126 177.362 367.823 176.998 367.452 176.697C367.081 176.397 366.653 176.167 366.167 176.007C365.688 175.847 365.167 175.767 364.604 175.767C363.588 175.767 362.703 176.02 361.949 176.525C361.194 177.023 360.609 177.752 360.194 178.711C359.778 179.663 359.571 180.82 359.571 182.182C359.571 183.582 359.778 184.758 360.194 185.71C360.616 186.663 361.204 187.382 361.958 187.868C362.712 188.353 363.585 188.596 364.576 188.596C365.132 188.596 365.646 188.523 366.119 188.376C366.599 188.229 367.024 188.015 367.395 187.733C367.765 187.446 368.072 187.097 368.315 186.688C368.564 186.279 368.737 185.812 368.833 185.288L373.032 185.308C372.924 186.209 372.652 187.078 372.217 187.915C371.789 188.746 371.211 189.491 370.482 190.15C369.76 190.801 368.897 191.319 367.893 191.703C366.896 192.08 365.768 192.268 364.509 192.268C362.757 192.268 361.191 191.872 359.81 191.08C358.436 190.287 357.349 189.14 356.55 187.637C355.758 186.135 355.362 184.317 355.362 182.182C355.362 180.04 355.764 178.219 356.57 176.717C357.375 175.214 358.468 174.07 359.849 173.284C361.229 172.491 362.783 172.095 364.509 172.095C365.646 172.095 366.701 172.255 367.673 172.575C368.651 172.894 369.517 173.361 370.271 173.974C371.025 174.582 371.639 175.326 372.112 176.208C372.591 177.091 372.898 178.1 373.032 179.238ZM375.933 192V177.273H379.893V179.842H380.046C380.314 178.928 380.765 178.238 381.398 177.771C382.031 177.298 382.759 177.062 383.584 177.062C383.789 177.062 384.009 177.075 384.246 177.1C384.482 177.126 384.69 177.161 384.869 177.206V180.83C384.677 180.772 384.412 180.721 384.073 180.676C383.734 180.632 383.424 180.609 383.143 180.609C382.542 180.609 382.005 180.74 381.532 181.002C381.066 181.258 380.695 181.616 380.42 182.076C380.151 182.537 380.017 183.067 380.017 183.668V192H375.933ZM393.007 192.288C391.492 192.288 390.188 191.981 389.095 191.367C388.008 190.747 387.171 189.871 386.583 188.74C385.995 187.602 385.701 186.257 385.701 184.703C385.701 183.189 385.995 181.859 386.583 180.715C387.171 179.571 387.998 178.679 389.066 178.04C390.14 177.401 391.399 177.081 392.844 177.081C393.815 177.081 394.72 177.238 395.557 177.551C396.401 177.858 397.136 178.321 397.762 178.941C398.395 179.561 398.887 180.341 399.239 181.281C399.59 182.214 399.766 183.307 399.766 184.56V185.681H387.331V183.15H395.921C395.921 182.562 395.794 182.041 395.538 181.587C395.282 181.134 394.927 180.779 394.474 180.523C394.026 180.261 393.505 180.13 392.911 180.13C392.291 180.13 391.741 180.274 391.262 180.561C390.789 180.843 390.418 181.223 390.149 181.702C389.881 182.175 389.744 182.703 389.737 183.284V185.691C389.737 186.42 389.871 187.049 390.14 187.58C390.415 188.11 390.801 188.52 391.3 188.807C391.799 189.095 392.39 189.239 393.074 189.239C393.528 189.239 393.943 189.175 394.32 189.047C394.697 188.919 395.02 188.727 395.289 188.472C395.557 188.216 395.762 187.903 395.902 187.532L399.68 187.781C399.488 188.689 399.095 189.482 398.501 190.159C397.913 190.83 397.152 191.354 396.219 191.732C395.292 192.102 394.221 192.288 393.007 192.288ZM406.631 192.278C405.692 192.278 404.854 192.115 404.119 191.789C403.384 191.457 402.802 190.968 402.374 190.322C401.952 189.67 401.741 188.858 401.741 187.887C401.741 187.069 401.892 186.381 402.192 185.825C402.492 185.269 402.902 184.822 403.419 184.483C403.937 184.144 404.525 183.888 405.184 183.716C405.848 183.543 406.545 183.422 407.274 183.352C408.13 183.262 408.821 183.179 409.345 183.102C409.869 183.019 410.249 182.898 410.486 182.738C410.722 182.578 410.84 182.342 410.84 182.028V181.971C410.84 181.364 410.649 180.894 410.265 180.561C409.888 180.229 409.351 180.063 408.654 180.063C407.919 180.063 407.334 180.226 406.9 180.552C406.465 180.871 406.177 181.274 406.037 181.76L402.259 181.453C402.451 180.558 402.828 179.785 403.391 179.133C403.953 178.474 404.679 177.969 405.567 177.618C406.462 177.26 407.497 177.081 408.674 177.081C409.492 177.081 410.275 177.177 411.023 177.369C411.777 177.56 412.445 177.858 413.027 178.26C413.615 178.663 414.078 179.181 414.417 179.814C414.756 180.44 414.925 181.191 414.925 182.067V192H411.051V189.958H410.936C410.7 190.418 410.383 190.824 409.987 191.175C409.591 191.521 409.115 191.792 408.559 191.99C408.002 192.182 407.36 192.278 406.631 192.278ZM407.801 189.459C408.402 189.459 408.932 189.341 409.393 189.104C409.853 188.862 410.214 188.536 410.476 188.126C410.738 187.717 410.869 187.254 410.869 186.736V185.173C410.741 185.256 410.566 185.333 410.342 185.403C410.125 185.467 409.878 185.528 409.604 185.586C409.329 185.637 409.054 185.685 408.779 185.729C408.504 185.768 408.255 185.803 408.031 185.835C407.552 185.905 407.133 186.017 406.775 186.17C406.417 186.324 406.139 186.532 405.941 186.794C405.743 187.049 405.644 187.369 405.644 187.752C405.644 188.309 405.845 188.734 406.248 189.028C406.657 189.315 407.175 189.459 407.801 189.459ZM425.927 177.273V180.341H417.058V177.273H425.927ZM419.072 173.744H423.156V187.474C423.156 187.852 423.214 188.146 423.329 188.357C423.444 188.561 423.604 188.705 423.808 188.788C424.019 188.871 424.262 188.913 424.537 188.913C424.729 188.913 424.921 188.897 425.112 188.865C425.304 188.826 425.451 188.798 425.553 188.778L426.196 191.818C425.991 191.882 425.704 191.955 425.333 192.038C424.962 192.128 424.511 192.182 423.981 192.201C422.997 192.24 422.134 192.109 421.392 191.808C420.657 191.508 420.085 191.041 419.676 190.408C419.267 189.776 419.065 188.977 419.072 188.011V173.744ZM435.141 192.288C433.627 192.288 432.323 191.981 431.229 191.367C430.143 190.747 429.305 189.871 428.717 188.74C428.129 187.602 427.835 186.257 427.835 184.703C427.835 183.189 428.129 181.859 428.717 180.715C429.305 179.571 430.133 178.679 431.201 178.04C432.275 177.401 433.534 177.081 434.978 177.081C435.95 177.081 436.854 177.238 437.692 177.551C438.536 177.858 439.271 178.321 439.897 178.941C440.53 179.561 441.022 180.341 441.374 181.281C441.725 182.214 441.901 183.307 441.901 184.56V185.681H429.465V183.15H438.056C438.056 182.562 437.928 182.041 437.673 181.587C437.417 181.134 437.062 180.779 436.608 180.523C436.161 180.261 435.64 180.13 435.046 180.13C434.426 180.13 433.876 180.274 433.396 180.561C432.923 180.843 432.553 181.223 432.284 181.702C432.016 182.175 431.878 182.703 431.872 183.284V185.691C431.872 186.42 432.006 187.049 432.275 187.58C432.549 188.11 432.936 188.52 433.435 188.807C433.933 189.095 434.525 189.239 435.209 189.239C435.662 189.239 436.078 189.175 436.455 189.047C436.832 188.919 437.155 188.727 437.423 188.472C437.692 188.216 437.896 187.903 438.037 187.532L441.815 187.781C441.623 188.689 441.23 189.482 440.635 190.159C440.047 190.83 439.287 191.354 438.353 191.732C437.427 192.102 436.356 192.288 435.141 192.288ZM455.015 192.278C454.075 192.278 453.238 192.115 452.503 191.789C451.768 191.457 451.186 190.968 450.758 190.322C450.336 189.67 450.125 188.858 450.125 187.887C450.125 187.069 450.275 186.381 450.576 185.825C450.876 185.269 451.285 184.822 451.803 184.483C452.321 184.144 452.909 183.888 453.567 183.716C454.232 183.543 454.929 183.422 455.657 183.352C456.514 183.262 457.204 183.179 457.729 183.102C458.253 183.019 458.633 182.898 458.869 182.738C459.106 182.578 459.224 182.342 459.224 182.028V181.971C459.224 181.364 459.032 180.894 458.649 180.561C458.272 180.229 457.735 180.063 457.038 180.063C456.303 180.063 455.718 180.226 455.284 180.552C454.849 180.871 454.561 181.274 454.421 181.76L450.643 181.453C450.835 180.558 451.212 179.785 451.774 179.133C452.337 178.474 453.062 177.969 453.951 177.618C454.846 177.26 455.881 177.081 457.057 177.081C457.876 177.081 458.659 177.177 459.406 177.369C460.161 177.56 460.829 177.858 461.41 178.26C461.998 178.663 462.462 179.181 462.801 179.814C463.139 180.44 463.309 181.191 463.309 182.067V192H459.435V189.958H459.32C459.084 190.418 458.767 190.824 458.371 191.175C457.975 191.521 457.498 191.792 456.942 191.99C456.386 192.182 455.744 192.278 455.015 192.278ZM456.185 189.459C456.786 189.459 457.316 189.341 457.776 189.104C458.237 188.862 458.598 188.536 458.86 188.126C459.122 187.717 459.253 187.254 459.253 186.736V185.173C459.125 185.256 458.949 185.333 458.726 185.403C458.508 185.467 458.262 185.528 457.987 185.586C457.713 185.637 457.438 185.685 457.163 185.729C456.888 185.768 456.639 185.803 456.415 185.835C455.936 185.905 455.517 186.017 455.159 186.17C454.801 186.324 454.523 186.532 454.325 186.794C454.127 187.049 454.028 187.369 454.028 187.752C454.028 188.309 454.229 188.734 454.632 189.028C455.041 189.315 455.558 189.459 456.185 189.459ZM471.931 184.214V182.287C473.037 182.287 473.804 182.067 474.232 181.626C474.66 181.185 474.874 180.472 474.874 179.488V177.369C474.874 176.186 475.037 175.24 475.363 174.531C475.696 173.815 476.156 173.275 476.744 172.91C477.339 172.546 478.042 172.303 478.853 172.181C479.665 172.06 480.554 171.999 481.519 171.999V175.048C480.765 175.048 480.189 175.147 479.793 175.346C479.403 175.537 479.138 175.838 478.997 176.247C478.857 176.65 478.786 177.161 478.786 177.781V180.581C478.786 181.066 478.697 181.53 478.518 181.971C478.339 182.406 478.006 182.792 477.521 183.131C477.035 183.463 476.341 183.729 475.44 183.927C474.539 184.119 473.369 184.214 471.931 184.214ZM481.519 196.267C480.554 196.267 479.665 196.206 478.853 196.085C478.042 195.963 477.339 195.72 476.744 195.356C476.156 194.991 475.696 194.451 475.363 193.735C475.037 193.026 474.874 192.08 474.874 190.897V188.769C474.874 187.784 474.66 187.072 474.232 186.631C473.804 186.19 473.037 185.969 471.931 185.969V184.042C473.369 184.042 474.539 184.141 475.44 184.339C476.341 184.531 477.035 184.796 477.521 185.135C478.006 185.467 478.339 185.854 478.518 186.295C478.697 186.73 478.786 187.193 478.786 187.685V190.485C478.786 191.099 478.857 191.607 478.997 192.01C479.138 192.419 479.403 192.719 479.793 192.911C480.189 193.109 480.765 193.208 481.519 193.208V196.267ZM471.931 185.969V182.287H475.373V185.969H471.931ZM491.608 177.273V180.341H482.739V177.273H491.608ZM484.752 173.744H488.837V187.474C488.837 187.852 488.895 188.146 489.01 188.357C489.125 188.561 489.284 188.705 489.489 188.788C489.7 188.871 489.943 188.913 490.218 188.913C490.409 188.913 490.601 188.897 490.793 188.865C490.985 188.826 491.132 188.798 491.234 188.778L491.876 191.818C491.672 191.882 491.384 191.955 491.013 192.038C490.643 192.128 490.192 192.182 489.662 192.201C488.677 192.24 487.814 192.109 487.073 191.808C486.338 191.508 485.766 191.041 485.357 190.408C484.947 189.776 484.746 188.977 484.752 188.011V173.744ZM498.67 183.486V192H494.585V172.364H498.555V179.871H498.727C499.059 179.002 499.596 178.321 500.338 177.829C501.079 177.33 502.009 177.081 503.128 177.081C504.151 177.081 505.042 177.305 505.803 177.752C506.57 178.193 507.165 178.829 507.586 179.66C508.015 180.485 508.226 181.472 508.219 182.623V192H504.135V183.352C504.141 182.444 503.911 181.738 503.444 181.233C502.984 180.728 502.339 180.475 501.508 180.475C500.952 180.475 500.459 180.593 500.031 180.83C499.609 181.066 499.277 181.412 499.034 181.865C498.797 182.313 498.676 182.853 498.67 183.486ZM511.434 192V177.273H515.518V192H511.434ZM513.486 175.374C512.878 175.374 512.357 175.173 511.923 174.77C511.494 174.361 511.28 173.872 511.28 173.303C511.28 172.741 511.494 172.258 511.923 171.855C512.357 171.446 512.878 171.242 513.486 171.242C514.093 171.242 514.611 171.446 515.039 171.855C515.473 172.258 515.691 172.741 515.691 173.303C515.691 173.872 515.473 174.361 515.039 174.77C514.611 175.173 514.093 175.374 513.486 175.374ZM522.875 183.486V192H518.79V177.273H522.683V179.871H522.855C523.181 179.015 523.728 178.337 524.495 177.838C525.262 177.333 526.192 177.081 527.285 177.081C528.308 177.081 529.2 177.305 529.96 177.752C530.721 178.2 531.312 178.839 531.734 179.67C532.156 180.494 532.367 181.479 532.367 182.623V192H528.282V183.352C528.289 182.45 528.059 181.747 527.592 181.242C527.125 180.731 526.483 180.475 525.665 180.475C525.115 180.475 524.629 180.593 524.207 180.83C523.792 181.066 523.466 181.412 523.229 181.865C522.999 182.313 522.881 182.853 522.875 183.486ZM542.221 197.83C540.898 197.83 539.763 197.647 538.817 197.283C537.878 196.925 537.13 196.436 536.574 195.816C536.017 195.196 535.656 194.499 535.49 193.726L539.268 193.218C539.383 193.512 539.565 193.787 539.814 194.042C540.064 194.298 540.393 194.502 540.802 194.656C541.217 194.816 541.722 194.896 542.317 194.896C543.205 194.896 543.937 194.678 544.513 194.244C545.094 193.815 545.385 193.096 545.385 192.086V189.392H545.212C545.033 189.801 544.765 190.188 544.407 190.552C544.049 190.917 543.589 191.214 543.026 191.444C542.464 191.674 541.793 191.789 541.013 191.789C539.907 191.789 538.9 191.533 537.993 191.022C537.091 190.504 536.372 189.715 535.835 188.654C535.305 187.586 535.04 186.238 535.04 184.608C535.04 182.939 535.311 181.546 535.854 180.427C536.398 179.309 537.12 178.471 538.021 177.915C538.929 177.359 539.923 177.081 541.003 177.081C541.828 177.081 542.518 177.222 543.074 177.503C543.63 177.778 544.078 178.123 544.417 178.538C544.762 178.947 545.027 179.35 545.212 179.746H545.366V177.273H549.422V192.144C549.422 193.397 549.115 194.445 548.501 195.289C547.888 196.132 547.037 196.765 545.951 197.187C544.87 197.615 543.627 197.83 542.221 197.83ZM542.307 188.721C542.966 188.721 543.522 188.558 543.976 188.232C544.436 187.9 544.787 187.426 545.03 186.813C545.28 186.193 545.404 185.451 545.404 184.588C545.404 183.725 545.283 182.978 545.04 182.345C544.797 181.706 544.445 181.21 543.985 180.859C543.525 180.507 542.966 180.331 542.307 180.331C541.636 180.331 541.07 180.513 540.61 180.878C540.15 181.236 539.802 181.734 539.565 182.374C539.329 183.013 539.21 183.751 539.21 184.588C539.21 185.439 539.329 186.174 539.565 186.794C539.808 187.407 540.156 187.884 540.61 188.222C541.07 188.555 541.636 188.721 542.307 188.721ZM561.253 184.042V185.969C560.154 185.969 559.387 186.19 558.952 186.631C558.524 187.072 558.31 187.784 558.31 188.769V190.897C558.31 192.08 558.144 193.026 557.811 193.735C557.485 194.451 557.025 194.991 556.43 195.356C555.842 195.72 555.142 195.963 554.331 196.085C553.525 196.206 552.637 196.267 551.665 196.267V193.208C552.419 193.208 552.992 193.109 553.381 192.911C553.778 192.719 554.046 192.419 554.187 192.01C554.328 191.607 554.398 191.099 554.398 190.485V187.685C554.398 187.193 554.487 186.73 554.666 186.295C554.845 185.854 555.178 185.467 555.663 185.135C556.149 184.796 556.843 184.531 557.744 184.339C558.645 184.141 559.815 184.042 561.253 184.042ZM551.665 171.999C552.637 171.999 553.525 172.06 554.331 172.181C555.142 172.303 555.842 172.546 556.43 172.91C557.025 173.275 557.485 173.815 557.811 174.531C558.144 175.24 558.31 176.186 558.31 177.369V179.488C558.31 180.472 558.524 181.185 558.952 181.626C559.387 182.067 560.154 182.287 561.253 182.287V184.214C559.815 184.214 558.645 184.119 557.744 183.927C556.843 183.729 556.149 183.463 555.663 183.131C555.178 182.792 554.845 182.406 554.666 181.971C554.487 181.53 554.398 181.066 554.398 180.581V177.781C554.398 177.161 554.328 176.65 554.187 176.247C554.046 175.838 553.778 175.537 553.381 175.346C552.992 175.147 552.419 175.048 551.665 175.048V171.999ZM561.253 182.287V185.969H557.811V182.287H561.253Z" fill="#343741"/>
</g>
<rect x="582" y="331" width="112" height="40" rx="6" fill="#0077CC"/>
<path d="M603.672 348.992C603.619 348.522 603.4 348.157 603.016 347.899C602.631 347.637 602.147 347.506 601.564 347.506C601.146 347.506 600.785 347.572 600.48 347.705C600.175 347.834 599.938 348.013 599.769 348.242C599.603 348.467 599.521 348.724 599.521 349.012C599.521 349.254 599.577 349.463 599.69 349.639C599.806 349.814 599.956 349.962 600.142 350.081C600.331 350.197 600.533 350.295 600.749 350.375C600.964 350.451 601.171 350.514 601.37 350.563L602.364 350.822C602.689 350.902 603.022 351.009 603.364 351.145C603.705 351.281 604.022 351.46 604.313 351.682C604.605 351.904 604.84 352.179 605.019 352.507C605.201 352.835 605.293 353.228 605.293 353.686C605.293 354.262 605.143 354.774 604.845 355.222C604.55 355.669 604.121 356.022 603.558 356.281C602.997 356.539 602.32 356.669 601.524 356.669C600.762 356.669 600.102 356.548 599.545 356.306C598.989 356.064 598.553 355.721 598.238 355.277C597.923 354.829 597.749 354.299 597.716 353.686H599.257C599.287 354.053 599.406 354.36 599.615 354.605C599.827 354.847 600.097 355.028 600.425 355.147C600.757 355.263 601.12 355.321 601.514 355.321C601.948 355.321 602.335 355.253 602.673 355.117C603.014 354.978 603.282 354.786 603.478 354.541C603.674 354.292 603.771 354.002 603.771 353.671C603.771 353.369 603.685 353.122 603.513 352.93C603.344 352.738 603.113 352.579 602.822 352.453C602.533 352.327 602.207 352.216 601.842 352.12L600.639 351.791C599.824 351.569 599.178 351.243 598.7 350.812C598.226 350.381 597.989 349.811 597.989 349.102C597.989 348.515 598.148 348.003 598.467 347.566C598.785 347.128 599.216 346.788 599.759 346.546C600.303 346.301 600.916 346.178 601.599 346.178C602.288 346.178 602.896 346.299 603.423 346.541C603.954 346.783 604.371 347.116 604.676 347.541C604.981 347.962 605.14 348.446 605.153 348.992H603.672ZM609.231 356.669C608.747 356.669 608.31 356.579 607.919 356.4C607.528 356.218 607.218 355.954 606.989 355.61C606.764 355.265 606.651 354.842 606.651 354.342C606.651 353.911 606.734 353.556 606.9 353.278C607.065 353 607.289 352.779 607.571 352.617C607.853 352.454 608.167 352.332 608.515 352.249C608.863 352.166 609.218 352.103 609.579 352.06C610.037 352.007 610.408 351.964 610.693 351.931C610.978 351.894 611.185 351.836 611.314 351.757C611.444 351.677 611.508 351.548 611.508 351.369V351.334C611.508 350.9 611.386 350.563 611.14 350.325C610.898 350.086 610.537 349.967 610.057 349.967C609.556 349.967 609.162 350.078 608.873 350.3C608.588 350.519 608.391 350.762 608.282 351.031L606.885 350.713C607.05 350.249 607.292 349.874 607.611 349.589C607.932 349.301 608.302 349.092 608.719 348.963C609.137 348.83 609.576 348.764 610.037 348.764C610.342 348.764 610.665 348.8 611.006 348.873C611.351 348.943 611.672 349.072 611.971 349.261C612.272 349.45 612.519 349.72 612.711 350.071C612.904 350.419 613 350.872 613 351.428V356.5H611.548V355.455H611.488C611.392 355.648 611.248 355.837 611.056 356.022C610.864 356.208 610.617 356.362 610.315 356.485C610.014 356.607 609.652 356.669 609.231 356.669ZM609.555 355.475C609.965 355.475 610.317 355.394 610.608 355.232C610.903 355.069 611.127 354.857 611.28 354.595C611.435 354.33 611.513 354.047 611.513 353.745V352.761C611.46 352.814 611.358 352.864 611.205 352.91C611.056 352.953 610.885 352.991 610.693 353.024C610.501 353.054 610.314 353.082 610.131 353.109C609.949 353.132 609.796 353.152 609.674 353.169C609.385 353.205 609.122 353.266 608.883 353.352C608.648 353.439 608.459 353.563 608.317 353.725C608.177 353.884 608.108 354.097 608.108 354.362C608.108 354.73 608.244 355.008 608.515 355.197C608.787 355.383 609.134 355.475 609.555 355.475ZM621.239 348.863L618.47 356.5H616.879L614.105 348.863H615.701L617.635 354.74H617.714L619.643 348.863H621.239ZM625.667 356.654C624.915 356.654 624.267 356.493 623.724 356.171C623.183 355.847 622.766 355.391 622.471 354.804C622.179 354.214 622.033 353.523 622.033 352.731C622.033 351.949 622.179 351.259 622.471 350.663C622.766 350.066 623.177 349.601 623.704 349.266C624.234 348.931 624.854 348.764 625.563 348.764C625.994 348.764 626.412 348.835 626.816 348.977C627.22 349.12 627.583 349.344 627.905 349.649C628.226 349.954 628.48 350.35 628.665 350.837C628.851 351.321 628.944 351.909 628.944 352.602V353.129H622.873V352.015H627.487C627.487 351.624 627.407 351.278 627.248 350.976C627.089 350.671 626.866 350.431 626.577 350.255C626.292 350.08 625.957 349.992 625.573 349.992C625.155 349.992 624.791 350.094 624.479 350.3C624.171 350.502 623.932 350.767 623.763 351.095C623.598 351.42 623.515 351.773 623.515 352.154V353.024C623.515 353.535 623.604 353.969 623.783 354.327C623.965 354.685 624.219 354.958 624.544 355.147C624.869 355.333 625.248 355.426 625.682 355.426C625.964 355.426 626.221 355.386 626.453 355.306C626.685 355.223 626.885 355.101 627.055 354.938C627.224 354.776 627.353 354.576 627.442 354.337L628.849 354.59C628.737 355.005 628.534 355.368 628.243 355.679C627.954 355.987 627.591 356.228 627.154 356.4C626.72 356.569 626.224 356.654 625.667 356.654ZM633.786 352.303V351.558C634.346 351.558 634.737 351.443 634.959 351.215C635.181 350.983 635.292 350.6 635.292 350.066V348.639C635.292 348.132 635.349 347.706 635.461 347.362C635.577 347.014 635.753 346.735 635.988 346.526C636.224 346.318 636.522 346.167 636.883 346.074C637.245 345.981 637.671 345.935 638.161 345.935V347.113C637.777 347.113 637.477 347.169 637.261 347.282C637.046 347.395 636.895 347.571 636.809 347.809C636.726 348.044 636.684 348.346 636.684 348.714V350.524C636.684 350.779 636.646 351.016 636.57 351.235C636.494 351.45 636.353 351.637 636.148 351.796C635.942 351.955 635.649 352.08 635.268 352.169C634.886 352.259 634.393 352.303 633.786 352.303ZM638.161 358.617C637.671 358.617 637.245 358.571 636.883 358.478C636.522 358.385 636.224 358.235 635.988 358.026C635.753 357.817 635.577 357.539 635.461 357.191C635.349 356.846 635.292 356.42 635.292 355.913V354.481C635.292 353.951 635.181 353.57 634.959 353.338C634.737 353.106 634.346 352.99 633.786 352.99V352.249C634.393 352.249 634.886 352.294 635.268 352.383C635.649 352.469 635.942 352.593 636.148 352.756C636.353 352.915 636.494 353.104 636.57 353.323C636.646 353.538 636.684 353.773 636.684 354.029V355.838C636.684 356.203 636.726 356.503 636.809 356.738C636.895 356.977 637.046 357.152 637.261 357.265C637.477 357.381 637.777 357.439 638.161 357.439V358.617ZM633.786 352.99V351.558H635.163V352.99H633.786ZM643.154 348.863V350.056H638.983V348.863H643.154ZM640.101 347.034H641.588V354.257C641.588 354.546 641.631 354.763 641.717 354.909C641.803 355.051 641.914 355.149 642.05 355.202C642.189 355.252 642.34 355.277 642.502 355.277C642.622 355.277 642.726 355.268 642.816 355.252C642.905 355.235 642.975 355.222 643.025 355.212L643.293 356.44C643.207 356.473 643.084 356.506 642.925 356.539C642.766 356.576 642.567 356.596 642.328 356.599C641.937 356.606 641.573 356.536 641.235 356.39C640.897 356.244 640.623 356.019 640.414 355.714C640.206 355.409 640.101 355.026 640.101 354.566V347.034ZM646.449 351.965V356.5H644.962V346.318H646.429V350.106H646.523C646.702 349.695 646.976 349.369 647.344 349.127C647.711 348.885 648.192 348.764 648.785 348.764C649.309 348.764 649.766 348.871 650.157 349.087C650.552 349.302 650.857 349.624 651.072 350.051C651.291 350.476 651.4 351.006 651.4 351.642V356.5H649.914V351.821C649.914 351.261 649.77 350.827 649.481 350.519C649.193 350.207 648.792 350.051 648.278 350.051C647.927 350.051 647.612 350.126 647.334 350.275C647.059 350.424 646.841 350.643 646.682 350.931C646.527 351.216 646.449 351.561 646.449 351.965ZM653.384 356.5V348.863H654.871V356.5H653.384ZM654.135 347.685C653.876 347.685 653.654 347.599 653.469 347.426C653.286 347.251 653.195 347.042 653.195 346.8C653.195 346.555 653.286 346.346 653.469 346.174C653.654 345.998 653.876 345.91 654.135 345.91C654.393 345.91 654.614 345.998 654.796 346.174C654.982 346.346 655.074 346.555 655.074 346.8C655.074 347.042 654.982 347.251 654.796 347.426C654.614 347.599 654.393 347.685 654.135 347.685ZM658.357 351.965V356.5H656.87V348.863H658.297V350.106H658.392C658.567 349.702 658.842 349.377 659.217 349.132C659.595 348.886 660.07 348.764 660.644 348.764C661.164 348.764 661.62 348.873 662.011 349.092C662.402 349.307 662.705 349.629 662.921 350.056C663.136 350.484 663.244 351.013 663.244 351.642V356.5H661.757V351.821C661.757 351.268 661.613 350.835 661.325 350.524C661.037 350.209 660.641 350.051 660.137 350.051C659.792 350.051 659.485 350.126 659.217 350.275C658.952 350.424 658.741 350.643 658.586 350.931C658.433 351.216 658.357 351.561 658.357 351.965ZM668.439 359.522C667.833 359.522 667.311 359.443 666.873 359.284C666.439 359.125 666.084 358.914 665.809 358.652C665.534 358.39 665.329 358.104 665.193 357.792L666.471 357.265C666.56 357.411 666.679 357.565 666.828 357.727C666.981 357.893 667.186 358.034 667.445 358.15C667.707 358.266 668.043 358.324 668.454 358.324C669.018 358.324 669.483 358.187 669.851 357.911C670.219 357.64 670.403 357.205 670.403 356.609V355.107H670.309C670.219 355.27 670.09 355.451 669.921 355.649C669.755 355.848 669.526 356.021 669.235 356.166C668.943 356.312 668.564 356.385 668.096 356.385C667.493 356.385 666.949 356.244 666.466 355.963C665.985 355.678 665.604 355.258 665.322 354.705C665.044 354.148 664.904 353.464 664.904 352.652C664.904 351.839 665.042 351.143 665.317 350.563C665.596 349.983 665.977 349.539 666.461 349.231C666.944 348.919 667.493 348.764 668.106 348.764C668.58 348.764 668.963 348.843 669.255 349.002C669.546 349.158 669.773 349.34 669.936 349.549C670.101 349.758 670.229 349.942 670.319 350.101H670.428V348.863H671.885V356.669C671.885 357.325 671.732 357.863 671.427 358.284C671.122 358.705 670.71 359.017 670.189 359.219C669.672 359.421 669.089 359.522 668.439 359.522ZM668.424 355.152C668.852 355.152 669.213 355.053 669.508 354.854C669.806 354.652 670.032 354.363 670.184 353.989C670.34 353.611 670.418 353.159 670.418 352.632C670.418 352.118 670.342 351.665 670.189 351.274C670.037 350.883 669.813 350.578 669.518 350.36C669.223 350.138 668.859 350.027 668.424 350.027C667.977 350.027 667.604 350.143 667.306 350.375C667.007 350.603 666.782 350.915 666.63 351.309C666.48 351.704 666.406 352.144 666.406 352.632C666.406 353.132 666.482 353.571 666.635 353.949C666.787 354.327 667.012 354.622 667.311 354.834C667.612 355.046 667.984 355.152 668.424 355.152ZM677.681 352.249V352.99C677.121 352.99 676.73 353.106 676.508 353.338C676.286 353.57 676.175 353.951 676.175 354.481V355.913C676.175 356.42 676.117 356.846 676.001 357.191C675.888 357.539 675.714 357.817 675.479 358.026C675.244 358.235 674.945 358.385 674.584 358.478C674.223 358.571 673.797 358.617 673.306 358.617V357.439C673.691 357.439 673.991 357.381 674.206 357.265C674.422 357.152 674.571 356.977 674.654 356.738C674.74 356.503 674.783 356.203 674.783 355.838V354.029C674.783 353.773 674.821 353.538 674.897 353.323C674.974 353.104 675.114 352.915 675.32 352.756C675.525 352.593 675.819 352.469 676.2 352.383C676.581 352.294 677.075 352.249 677.681 352.249ZM673.306 345.935C673.797 345.935 674.223 345.981 674.584 346.074C674.945 346.167 675.244 346.318 675.479 346.526C675.714 346.735 675.888 347.014 676.001 347.362C676.117 347.706 676.175 348.132 676.175 348.639V350.066C676.175 350.6 676.286 350.983 676.508 351.215C676.73 351.443 677.121 351.558 677.681 351.558V352.303C677.075 352.303 676.581 352.259 676.2 352.169C675.819 352.08 675.525 351.955 675.32 351.796C675.114 351.637 674.974 351.45 674.897 351.235C674.821 351.016 674.783 350.779 674.783 350.524V348.714C674.783 348.346 674.74 348.044 674.654 347.809C674.571 347.571 674.422 347.395 674.206 347.282C673.991 347.169 673.691 347.113 673.306 347.113V345.935ZM677.681 351.558V352.99H676.304V351.558H677.681Z" fill="white"/>
<rect x="354" y="218" width="340" height="16" rx="4" fill="url(#paint0_linear_738_183)"/>
<rect x="354" y="238" width="340" height="16" rx="4" fill="url(#paint1_linear_738_183)"/>
<rect x="354" y="258" width="340" height="16" rx="4" fill="url(#paint2_linear_738_183)"/>
<rect x="354" y="278" width="255" height="16" rx="4" fill="url(#paint3_linear_738_183)"/>
<circle cx="8" cy="8" r="8" transform="matrix(-1 0 0 1 258 272)" fill="#F4259D"/>
<circle cx="8" cy="8" r="16" transform="matrix(-1 0 0 1 258 272)" stroke="#F4259D" stroke-opacity="0.15" stroke-width="16"/>
<path d="M338 280L318 268.453V291.547L338 280ZM320 278H258V282H320V278Z" fill="#F4259D"/>
<g filter="url(#filter2_i_738_183)">
<rect width="720" height="420" transform="translate(800 40)" fill="#F7F8FC"/>
<g clip-path="url(#clip2_738_183)">
<path fill-rule="evenodd" clip-rule="evenodd" d="M852 104C858.627 104 864 98.6274 864 92C864 85.3726 858.627 80 852 80C845.373 80 840 85.3726 840 92C840 98.6274 845.373 104 852 104ZM858.803 87.4617C859.238 87.905 859.232 88.6173 858.788 89.0526L851.152 96.5526C850.714 96.9825 850.013 96.9825 849.575 96.5526L845.212 92.2669C844.768 91.8316 844.762 91.1193 845.197 90.676C845.633 90.2327 846.345 90.2263 846.788 90.6617L850.364 94.1732L857.212 87.4474C857.655 87.012 858.367 87.0184 858.803 87.4617Z" fill="#00BFB3"/>
</g>
<path d="M880.148 100H876.523L882.047 84H886.406L891.922 100H888.297L884.289 87.6562H884.164L880.148 100ZM879.922 93.7109H888.484V96.3516H879.922V93.7109ZM893.785 104.5V88H897.066V90.0156H897.215C897.361 89.6927 897.572 89.3646 897.848 89.0312C898.129 88.6927 898.493 88.4115 898.941 88.1875C899.395 87.9583 899.957 87.8438 900.629 87.8438C901.504 87.8438 902.311 88.0729 903.051 88.5313C903.79 88.9844 904.382 89.6693 904.824 90.5859C905.267 91.4974 905.488 92.6406 905.488 94.0156C905.488 95.3542 905.272 96.4844 904.84 97.4062C904.413 98.3229 903.829 99.0182 903.09 99.4922C902.355 99.9609 901.533 100.195 900.621 100.195C899.975 100.195 899.426 100.089 898.973 99.875C898.525 99.6615 898.158 99.3932 897.871 99.0703C897.585 98.7422 897.366 98.4115 897.215 98.0781H897.113V104.5H893.785ZM897.043 94C897.043 94.7135 897.142 95.3359 897.34 95.8672C897.538 96.3984 897.824 96.8125 898.199 97.1094C898.574 97.401 899.03 97.5469 899.566 97.5469C900.108 97.5469 900.566 97.3984 900.941 97.1016C901.316 96.7995 901.6 96.3828 901.793 95.8516C901.991 95.3151 902.09 94.6979 902.09 94C902.09 93.3073 901.993 92.6979 901.801 92.1719C901.608 91.6458 901.324 91.2344 900.949 90.9375C900.574 90.6406 900.113 90.4922 899.566 90.4922C899.025 90.4922 898.566 90.6354 898.191 90.9219C897.822 91.2083 897.538 91.6146 897.34 92.1406C897.142 92.6667 897.043 93.2865 897.043 94ZM907.707 104.5V88H910.988V90.0156H911.137C911.283 89.6927 911.493 89.3646 911.77 89.0312C912.051 88.6927 912.415 88.4115 912.863 88.1875C913.316 87.9583 913.879 87.8438 914.551 87.8438C915.426 87.8438 916.233 88.0729 916.973 88.5313C917.712 88.9844 918.303 89.6693 918.746 90.5859C919.189 91.4974 919.41 92.6406 919.41 94.0156C919.41 95.3542 919.194 96.4844 918.762 97.4062C918.335 98.3229 917.751 99.0182 917.012 99.4922C916.277 99.9609 915.454 100.195 914.543 100.195C913.897 100.195 913.348 100.089 912.895 99.875C912.447 99.6615 912.079 99.3932 911.793 99.0703C911.507 98.7422 911.288 98.4115 911.137 98.0781H911.035V104.5H907.707ZM910.965 94C910.965 94.7135 911.064 95.3359 911.262 95.8672C911.46 96.3984 911.746 96.8125 912.121 97.1094C912.496 97.401 912.952 97.5469 913.488 97.5469C914.03 97.5469 914.488 97.3984 914.863 97.1016C915.238 96.7995 915.522 96.3828 915.715 95.8516C915.913 95.3151 916.012 94.6979 916.012 94C916.012 93.3073 915.915 92.6979 915.723 92.1719C915.53 91.6458 915.246 91.2344 914.871 90.9375C914.496 90.6406 914.035 90.4922 913.488 90.4922C912.947 90.4922 912.488 90.6354 912.113 90.9219C911.743 91.2083 911.46 91.6146 911.262 92.1406C911.064 92.6667 910.965 93.2865 910.965 94ZM924.957 84V100H921.629V84H924.957ZM929.678 104.5C929.256 104.5 928.86 104.466 928.49 104.398C928.126 104.336 927.824 104.255 927.584 104.156L928.334 101.672C928.725 101.792 929.076 101.857 929.389 101.867C929.706 101.878 929.98 101.805 930.209 101.648C930.443 101.492 930.633 101.227 930.779 100.852L930.975 100.344L926.67 88H930.17L932.654 96.8125H932.779L935.287 88H938.811L934.146 101.297C933.923 101.943 933.618 102.505 933.232 102.984C932.852 103.469 932.37 103.841 931.787 104.102C931.204 104.367 930.501 104.5 929.678 104.5ZM945.668 100V84H948.996V90.0156H949.098C949.243 89.6927 949.454 89.3646 949.73 89.0312C950.012 88.6927 950.376 88.4115 950.824 88.1875C951.277 87.9583 951.84 87.8438 952.512 87.8438C953.387 87.8438 954.194 88.0729 954.934 88.5313C955.673 88.9844 956.264 89.6693 956.707 90.5859C957.15 91.4974 957.371 92.6406 957.371 94.0156C957.371 95.3542 957.155 96.4844 956.723 97.4062C956.296 98.3229 955.712 99.0182 954.973 99.4922C954.238 99.9609 953.415 100.195 952.504 100.195C951.858 100.195 951.309 100.089 950.855 99.875C950.408 99.6615 950.04 99.3932 949.754 99.0703C949.467 98.7422 949.249 98.4115 949.098 98.0781H948.949V100H945.668ZM948.926 94C948.926 94.7135 949.025 95.3359 949.223 95.8672C949.421 96.3984 949.707 96.8125 950.082 97.1094C950.457 97.401 950.913 97.5469 951.449 97.5469C951.991 97.5469 952.449 97.3984 952.824 97.1016C953.199 96.7995 953.483 96.3828 953.676 95.8516C953.874 95.3151 953.973 94.6979 953.973 94C953.973 93.3073 953.876 92.6979 953.684 92.1719C953.491 91.6458 953.207 91.2344 952.832 90.9375C952.457 90.6406 951.996 90.4922 951.449 90.4922C950.908 90.4922 950.449 90.6354 950.074 90.9219C949.704 91.2083 949.421 91.6146 949.223 92.1406C949.025 92.6667 948.926 93.2865 948.926 94ZM967.287 94.8906V88H970.615V100H967.42V97.8203H967.295C967.024 98.5234 966.574 99.0885 965.943 99.5156C965.318 99.9427 964.555 100.156 963.654 100.156C962.852 100.156 962.146 99.974 961.537 99.6094C960.928 99.2448 960.451 98.7266 960.107 98.0547C959.769 97.3828 959.597 96.5781 959.592 95.6406V88H962.92V95.0469C962.925 95.7552 963.115 96.3151 963.49 96.7266C963.865 97.138 964.368 97.3437 964.998 97.3437C965.399 97.3437 965.774 97.2526 966.123 97.0703C966.472 96.8828 966.753 96.6068 966.967 96.2422C967.186 95.8776 967.292 95.4271 967.287 94.8906ZM979.66 88V90.5H972.434V88H979.66ZM974.074 85.125H977.402V96.3125C977.402 96.6198 977.449 96.8594 977.543 97.0312C977.637 97.1979 977.767 97.3151 977.934 97.3828C978.105 97.4505 978.303 97.4844 978.527 97.4844C978.684 97.4844 978.84 97.4714 978.996 97.4453C979.152 97.4141 979.272 97.3906 979.355 97.375L979.879 99.8516C979.712 99.9036 979.478 99.9635 979.176 100.031C978.874 100.104 978.507 100.148 978.074 100.164C977.272 100.195 976.569 100.089 975.965 99.8437C975.366 99.599 974.9 99.2187 974.566 98.7031C974.233 98.1875 974.069 97.5365 974.074 96.75V85.125ZM988.211 88V90.5H980.984V88H988.211ZM982.625 85.125H985.953V96.3125C985.953 96.6198 986 96.8594 986.094 97.0312C986.188 97.1979 986.318 97.3151 986.484 97.3828C986.656 97.4505 986.854 97.4844 987.078 97.4844C987.234 97.4844 987.391 97.4714 987.547 97.4453C987.703 97.4141 987.823 97.3906 987.906 97.375L988.43 99.8516C988.263 99.9036 988.029 99.9635 987.727 100.031C987.424 100.104 987.057 100.148 986.625 100.164C985.823 100.195 985.12 100.089 984.516 99.8437C983.917 99.599 983.451 99.2187 983.117 98.7031C982.784 98.1875 982.62 97.5365 982.625 96.75V85.125ZM995.672 100.234C994.458 100.234 993.409 99.9766 992.523 99.4609C991.643 98.9401 990.964 98.2161 990.484 97.2891C990.005 96.3568 989.766 95.276 989.766 94.0469C989.766 92.8073 990.005 91.724 990.484 90.7969C990.964 89.8646 991.643 89.1406 992.523 88.625C993.409 88.1042 994.458 87.8438 995.672 87.8438C996.885 87.8438 997.932 88.1042 998.813 88.625C999.698 89.1406 1000.38 89.8646 1000.86 90.7969C1001.34 91.724 1001.58 92.8073 1001.58 94.0469C1001.58 95.276 1001.34 96.3568 1000.86 97.2891C1000.38 98.2161 999.698 98.9401 998.813 99.4609C997.932 99.9766 996.885 100.234 995.672 100.234ZM995.687 97.6562C996.24 97.6562 996.701 97.5 997.07 97.1875C997.44 96.8698 997.719 96.4375 997.906 95.8906C998.099 95.3437 998.195 94.7214 998.195 94.0234C998.195 93.3255 998.099 92.7031 997.906 92.1562C997.719 91.6094 997.44 91.1771 997.07 90.8594C996.701 90.5417 996.24 90.3828 995.687 90.3828C995.13 90.3828 994.661 90.5417 994.281 90.8594C993.906 91.1771 993.622 91.6094 993.43 92.1562C993.242 92.7031 993.148 93.3255 993.148 94.0234C993.148 94.7214 993.242 95.3437 993.43 95.8906C993.622 96.4375 993.906 96.8698 994.281 97.1875C994.661 97.5 995.13 97.6562 995.687 97.6562ZM1007.07 93.0625V100H1003.74V88H1006.91V90.1172H1007.05C1007.32 89.4193 1007.77 88.8672 1008.39 88.4609C1009.02 88.0495 1009.77 87.8438 1010.66 87.8438C1011.5 87.8438 1012.22 88.026 1012.84 88.3906C1013.46 88.7552 1013.95 89.276 1014.29 89.9531C1014.63 90.625 1014.8 91.4271 1014.8 92.3594V100H1011.48V92.9531C1011.48 92.2187 1011.29 91.6458 1010.91 91.2344C1010.53 90.8177 1010.01 90.6094 1009.34 90.6094C1008.9 90.6094 1008.5 90.7057 1008.16 90.8984C1007.82 91.0911 1007.55 91.3724 1007.36 91.7422C1007.17 92.1068 1007.08 92.5469 1007.07 93.0625Z" fill="#00BFB3"/>
</g>
<g clip-path="url(#clip3_738_183)">
<rect x="969" y="171" width="269" height="40" rx="6" fill="#FBFCFD"/>
<rect x="969.5" y="171.5" width="268" height="39" rx="5.5" stroke="#112B86" stroke-opacity="0.1"/>
<path d="M992.271 194.978L996.143 198.851C996.241 198.948 996.369 198.997 996.497 198.997C996.625 198.997 996.753 198.948 996.851 198.851C997.046 198.655 997.046 198.339 996.851 198.143L993.286 194.579C995.667 191.832 995.553 187.656 992.944 185.047C990.214 182.318 985.774 182.318 983.046 185.047C980.318 187.776 980.318 192.218 983.046 194.947C984.369 196.269 986.126 196.997 987.995 196.997C988.271 196.997 988.495 196.773 988.495 196.497C988.495 196.221 988.271 195.997 987.995 195.997C986.392 195.997 984.887 195.373 983.753 194.24C981.415 191.9 981.415 188.094 983.753 185.754C986.09 183.414 989.896 183.415 992.237 185.754C994.575 188.094 994.575 191.9 992.237 194.24C992.042 194.435 992.042 194.752 992.237 194.947C992.248 194.958 992.259 194.968 992.271 194.978Z" fill="#343741"/>
<path d="M1015.8 188.364C1015.74 187.86 1015.5 187.469 1015.08 187.19C1014.65 186.912 1014.13 186.773 1013.51 186.773C1013.06 186.773 1012.67 186.846 1012.33 186.991C1012 187.137 1011.73 187.338 1011.55 187.593C1011.36 187.848 1011.27 188.138 1011.27 188.463C1011.27 188.735 1011.33 188.969 1011.46 189.164C1011.59 189.356 1011.76 189.517 1011.97 189.646C1012.17 189.772 1012.39 189.877 1012.61 189.96C1012.84 190.039 1013.05 190.104 1013.24 190.153L1014.27 190.432C1014.54 190.501 1014.83 190.598 1015.15 190.72C1015.48 190.843 1015.8 191.01 1016.09 191.222C1016.4 191.431 1016.64 191.7 1016.84 192.028C1017.04 192.356 1017.13 192.759 1017.13 193.236C1017.13 193.786 1016.99 194.283 1016.7 194.727C1016.42 195.171 1016 195.524 1015.45 195.786C1014.9 196.048 1014.24 196.179 1013.45 196.179C1012.73 196.179 1012.09 196.061 1011.56 195.826C1011.03 195.591 1010.61 195.263 1010.31 194.842C1010.01 194.421 1009.84 193.932 1009.8 193.375H1011.07C1011.1 193.759 1011.23 194.078 1011.46 194.33C1011.68 194.578 1011.97 194.764 1012.32 194.886C1012.67 195.006 1013.05 195.065 1013.45 195.065C1013.93 195.065 1014.35 194.989 1014.72 194.837C1015.1 194.681 1015.39 194.465 1015.61 194.19C1015.83 193.912 1015.94 193.587 1015.94 193.216C1015.94 192.878 1015.85 192.603 1015.66 192.391C1015.47 192.179 1015.22 192.006 1014.91 191.874C1014.6 191.741 1014.27 191.625 1013.91 191.526L1012.66 191.168C1011.86 190.939 1011.23 190.612 1010.77 190.188C1010.31 189.764 1010.07 189.209 1010.07 188.523C1010.07 187.953 1010.23 187.455 1010.54 187.031C1010.85 186.604 1011.27 186.272 1011.79 186.037C1012.32 185.798 1012.9 185.679 1013.55 185.679C1014.21 185.679 1014.79 185.797 1015.3 186.032C1015.81 186.264 1016.22 186.582 1016.52 186.987C1016.82 187.391 1016.98 187.85 1016.99 188.364H1015.8ZM1022.2 196.159C1021.47 196.159 1020.83 195.997 1020.3 195.672C1019.77 195.344 1019.36 194.886 1019.07 194.3C1018.79 193.71 1018.64 193.024 1018.64 192.241C1018.64 191.459 1018.79 190.77 1019.07 190.173C1019.36 189.573 1019.76 189.106 1020.27 188.771C1020.79 188.433 1021.39 188.264 1022.08 188.264C1022.48 188.264 1022.87 188.33 1023.26 188.463C1023.65 188.596 1024 188.811 1024.32 189.109C1024.64 189.404 1024.89 189.795 1025.08 190.283C1025.27 190.77 1025.37 191.37 1025.37 192.082V192.58H1019.48V191.565H1024.17C1024.17 191.134 1024.09 190.75 1023.91 190.412C1023.74 190.074 1023.5 189.807 1023.19 189.612C1022.88 189.416 1022.51 189.318 1022.08 189.318C1021.62 189.318 1021.21 189.434 1020.87 189.666C1020.53 189.895 1020.27 190.193 1020.09 190.561C1019.91 190.929 1019.82 191.323 1019.82 191.744V192.42C1019.82 192.997 1019.92 193.486 1020.12 193.887C1020.32 194.285 1020.6 194.588 1020.96 194.797C1021.31 195.002 1021.73 195.105 1022.2 195.105C1022.51 195.105 1022.79 195.062 1023.04 194.976C1023.29 194.886 1023.51 194.754 1023.69 194.578C1023.87 194.399 1024.01 194.177 1024.11 193.912L1025.25 194.23C1025.13 194.615 1024.93 194.953 1024.64 195.244C1024.36 195.533 1024.01 195.758 1023.6 195.92C1023.19 196.08 1022.72 196.159 1022.2 196.159ZM1029.4 196.179C1028.91 196.179 1028.47 196.088 1028.08 195.906C1027.69 195.72 1027.37 195.453 1027.14 195.105C1026.91 194.754 1026.79 194.33 1026.79 193.832C1026.79 193.395 1026.88 193.04 1027.05 192.768C1027.22 192.493 1027.45 192.278 1027.74 192.122C1028.03 191.966 1028.35 191.85 1028.7 191.774C1029.05 191.695 1029.4 191.632 1029.76 191.585C1030.22 191.526 1030.6 191.481 1030.88 191.451C1031.18 191.418 1031.39 191.363 1031.52 191.287C1031.66 191.211 1031.72 191.078 1031.72 190.889V190.849C1031.72 190.359 1031.59 189.978 1031.32 189.706C1031.06 189.434 1030.65 189.298 1030.11 189.298C1029.55 189.298 1029.11 189.421 1028.8 189.666C1028.48 189.911 1028.25 190.173 1028.12 190.452L1027.01 190.054C1027.21 189.59 1027.47 189.229 1027.81 188.97C1028.14 188.708 1028.51 188.526 1028.9 188.423C1029.3 188.317 1029.69 188.264 1030.07 188.264C1030.32 188.264 1030.6 188.294 1030.92 188.354C1031.24 188.41 1031.55 188.528 1031.85 188.707C1032.15 188.886 1032.4 189.156 1032.6 189.517C1032.8 189.878 1032.9 190.362 1032.9 190.969V196H1031.72V194.966H1031.66C1031.58 195.132 1031.45 195.309 1031.27 195.498C1031.08 195.687 1030.83 195.848 1030.53 195.98C1030.22 196.113 1029.84 196.179 1029.4 196.179ZM1029.58 195.125C1030.04 195.125 1030.43 195.034 1030.75 194.852C1031.07 194.669 1031.31 194.434 1031.48 194.146C1031.64 193.857 1031.72 193.554 1031.72 193.236V192.162C1031.67 192.222 1031.56 192.276 1031.4 192.326C1031.23 192.372 1031.04 192.414 1030.82 192.45C1030.6 192.483 1030.39 192.513 1030.19 192.54C1029.99 192.563 1029.82 192.583 1029.7 192.599C1029.39 192.639 1029.11 192.704 1028.84 192.793C1028.58 192.879 1028.37 193.01 1028.2 193.186C1028.04 193.358 1027.97 193.594 1027.97 193.892C1027.97 194.3 1028.12 194.608 1028.42 194.817C1028.72 195.022 1029.11 195.125 1029.58 195.125ZM1035.04 196V188.364H1036.17V189.517H1036.25C1036.39 189.139 1036.64 188.833 1037.01 188.597C1037.37 188.362 1037.78 188.244 1038.24 188.244C1038.33 188.244 1038.43 188.246 1038.56 188.249C1038.69 188.253 1038.79 188.258 1038.86 188.264V189.457C1038.82 189.447 1038.73 189.433 1038.58 189.413C1038.44 189.389 1038.3 189.378 1038.14 189.378C1037.77 189.378 1037.44 189.456 1037.15 189.612C1036.86 189.764 1036.63 189.976 1036.46 190.248C1036.29 190.516 1036.21 190.823 1036.21 191.168V196H1035.04ZM1043.12 196.159C1042.4 196.159 1041.79 195.99 1041.27 195.652C1040.75 195.314 1040.35 194.848 1040.07 194.255C1039.8 193.662 1039.66 192.984 1039.66 192.222C1039.66 191.446 1039.8 190.762 1040.08 190.168C1040.37 189.572 1040.77 189.106 1041.29 188.771C1041.81 188.433 1042.41 188.264 1043.1 188.264C1043.63 188.264 1044.12 188.364 1044.55 188.562C1044.98 188.761 1045.33 189.04 1045.61 189.398C1045.88 189.756 1046.05 190.173 1046.12 190.651H1044.95C1044.86 190.303 1044.66 189.994 1044.35 189.726C1044.05 189.454 1043.63 189.318 1043.12 189.318C1042.66 189.318 1042.26 189.437 1041.91 189.676C1041.57 189.911 1041.31 190.245 1041.11 190.675C1040.93 191.103 1040.83 191.605 1040.83 192.182C1040.83 192.772 1040.92 193.286 1041.11 193.723C1041.3 194.161 1041.56 194.5 1041.9 194.742C1042.25 194.984 1042.65 195.105 1043.12 195.105C1043.42 195.105 1043.7 195.052 1043.95 194.946C1044.2 194.84 1044.41 194.688 1044.58 194.489C1044.75 194.29 1044.87 194.051 1044.95 193.773H1046.12C1046.05 194.223 1045.89 194.629 1045.63 194.991C1045.37 195.349 1045.03 195.634 1044.6 195.846C1044.17 196.055 1043.68 196.159 1043.12 196.159ZM1049.01 191.406V196H1047.84V185.818H1049.01V189.557H1049.11C1049.29 189.162 1049.56 188.849 1049.91 188.617C1050.27 188.382 1050.76 188.264 1051.36 188.264C1051.88 188.264 1052.33 188.369 1052.72 188.577C1053.11 188.783 1053.42 189.099 1053.63 189.527C1053.85 189.951 1053.96 190.491 1053.96 191.148V196H1052.79V191.227C1052.79 190.621 1052.63 190.152 1052.31 189.82C1052 189.486 1051.57 189.318 1051.02 189.318C1050.63 189.318 1050.29 189.399 1049.98 189.562C1049.68 189.724 1049.44 189.961 1049.27 190.273C1049.1 190.584 1049.01 190.962 1049.01 191.406ZM1056.96 196.08C1056.72 196.08 1056.51 195.992 1056.33 195.816C1056.16 195.64 1056.07 195.43 1056.07 195.185C1056.07 194.939 1056.16 194.729 1056.33 194.553C1056.51 194.378 1056.72 194.29 1056.96 194.29C1057.21 194.29 1057.42 194.378 1057.59 194.553C1057.77 194.729 1057.86 194.939 1057.86 195.185C1057.86 195.347 1057.82 195.496 1057.73 195.632C1057.65 195.768 1057.55 195.877 1057.41 195.96C1057.28 196.04 1057.13 196.08 1056.96 196.08ZM1060.82 196.08C1060.57 196.08 1060.36 195.992 1060.19 195.816C1060.01 195.64 1059.92 195.43 1059.92 195.185C1059.92 194.939 1060.01 194.729 1060.19 194.553C1060.36 194.378 1060.57 194.29 1060.82 194.29C1061.06 194.29 1061.27 194.378 1061.45 194.553C1061.62 194.729 1061.71 194.939 1061.71 195.185C1061.71 195.347 1061.67 195.496 1061.59 195.632C1061.51 195.768 1061.4 195.877 1061.27 195.96C1061.13 196.04 1060.98 196.08 1060.82 196.08ZM1064.67 196.08C1064.43 196.08 1064.22 195.992 1064.04 195.816C1063.87 195.64 1063.78 195.43 1063.78 195.185C1063.78 194.939 1063.87 194.729 1064.04 194.553C1064.22 194.378 1064.43 194.29 1064.67 194.29C1064.92 194.29 1065.13 194.378 1065.3 194.553C1065.48 194.729 1065.57 194.939 1065.57 195.185C1065.57 195.347 1065.53 195.496 1065.44 195.632C1065.36 195.768 1065.26 195.877 1065.12 195.96C1064.99 196.04 1064.84 196.08 1064.67 196.08Z" fill="#69707D"/>
</g>
<g clip-path="url(#clip4_738_183)">
<rect x="1254" y="171" width="74" height="40" rx="6" fill="#FBFCFD"/>
<rect width="74" height="40" transform="translate(1254 171)" fill="#FBFCFD"/>
<path d="M1263.23 196V185.818H1269.34V186.912H1264.47V190.352H1268.88V191.446H1264.47V196H1263.23ZM1271.29 196V188.364H1272.46V196H1271.29ZM1271.89 187.091C1271.66 187.091 1271.46 187.013 1271.3 186.857C1271.13 186.701 1271.05 186.514 1271.05 186.295C1271.05 186.077 1271.13 185.889 1271.3 185.734C1271.46 185.578 1271.66 185.5 1271.89 185.5C1272.12 185.5 1272.31 185.578 1272.47 185.734C1272.64 185.889 1272.72 186.077 1272.72 186.295C1272.72 186.514 1272.64 186.701 1272.47 186.857C1272.31 187.013 1272.12 187.091 1271.89 187.091ZM1275.79 185.818V196H1274.61V185.818H1275.79ZM1281.26 188.364V189.358H1277.3V188.364H1281.26ZM1278.45 186.534H1279.63V193.812C1279.63 194.144 1279.67 194.393 1279.77 194.558C1279.87 194.721 1280 194.83 1280.15 194.886C1280.3 194.939 1280.47 194.966 1280.64 194.966C1280.77 194.966 1280.88 194.959 1280.96 194.946C1281.04 194.929 1281.11 194.916 1281.16 194.906L1281.4 195.96C1281.32 195.99 1281.2 196.02 1281.06 196.05C1280.92 196.083 1280.74 196.099 1280.52 196.099C1280.19 196.099 1279.86 196.028 1279.55 195.886C1279.23 195.743 1278.97 195.526 1278.76 195.234C1278.55 194.943 1278.45 194.575 1278.45 194.131V186.534ZM1286.14 196.159C1285.41 196.159 1284.77 195.997 1284.24 195.672C1283.71 195.344 1283.3 194.886 1283.01 194.3C1282.72 193.71 1282.58 193.024 1282.58 192.241C1282.58 191.459 1282.72 190.77 1283.01 190.173C1283.3 189.573 1283.7 189.106 1284.21 188.771C1284.73 188.433 1285.33 188.264 1286.02 188.264C1286.42 188.264 1286.81 188.33 1287.2 188.463C1287.59 188.596 1287.94 188.811 1288.26 189.109C1288.58 189.404 1288.83 189.795 1289.02 190.283C1289.21 190.77 1289.3 191.37 1289.3 192.082V192.58H1283.42V191.565H1288.11C1288.11 191.134 1288.02 190.75 1287.85 190.412C1287.68 190.074 1287.44 189.807 1287.13 189.612C1286.81 189.416 1286.45 189.318 1286.02 189.318C1285.55 189.318 1285.15 189.434 1284.81 189.666C1284.47 189.895 1284.21 190.193 1284.03 190.561C1283.85 190.929 1283.75 191.323 1283.75 191.744V192.42C1283.75 192.997 1283.85 193.486 1284.05 193.887C1284.25 194.285 1284.53 194.588 1284.89 194.797C1285.25 195.002 1285.67 195.105 1286.14 195.105C1286.45 195.105 1286.73 195.062 1286.98 194.976C1287.23 194.886 1287.45 194.754 1287.63 194.578C1287.81 194.399 1287.95 194.177 1288.05 193.912L1289.18 194.23C1289.06 194.615 1288.86 194.953 1288.58 195.244C1288.3 195.533 1287.95 195.758 1287.54 195.92C1287.12 196.08 1286.66 196.159 1286.14 196.159ZM1291.09 196V188.364H1292.22V189.517H1292.3C1292.44 189.139 1292.69 188.833 1293.06 188.597C1293.42 188.362 1293.83 188.244 1294.29 188.244C1294.38 188.244 1294.48 188.246 1294.61 188.249C1294.74 188.253 1294.84 188.258 1294.91 188.264V189.457C1294.87 189.447 1294.77 189.433 1294.63 189.413C1294.49 189.389 1294.35 189.378 1294.19 189.378C1293.82 189.378 1293.49 189.456 1293.2 189.612C1292.91 189.764 1292.68 189.976 1292.51 190.248C1292.34 190.516 1292.26 190.823 1292.26 191.168V196H1291.09Z" fill="#343741"/>
<path fill-rule="evenodd" clip-rule="evenodd" d="M1305.96 187.982C1306.24 187.683 1306.72 187.671 1307.02 187.957L1311.83 192.548C1311.92 192.641 1312.08 192.641 1312.17 192.548L1316.98 187.957C1317.28 187.671 1317.76 187.683 1318.04 187.982C1318.33 188.282 1318.32 188.757 1318.02 189.043L1313.21 193.633C1312.53 194.279 1311.47 194.279 1310.79 193.633L1305.98 189.043C1305.68 188.757 1305.67 188.282 1305.96 187.982Z" fill="#343741"/>
</g>
<rect x="1254.5" y="171.5" width="73" height="39" rx="5.5" stroke="#112B86" stroke-opacity="0.1"/>
<g filter="url(#filter3_dddd_738_183)">
<rect x="1139" y="219" width="300" height="147" rx="6" fill="white"/>
<path d="M1289 207L1301 219H1277L1289 207Z" fill="white"/>
</g>
<rect x="1162.5" y="248.5" width="15" height="15" rx="3.5" fill="white" stroke="#C9CBCD"/>
<path d="M1195.43 254H1194.19C1194.12 253.645 1193.99 253.334 1193.81 253.065C1193.63 252.797 1193.41 252.571 1193.15 252.389C1192.9 252.204 1192.62 252.064 1192.3 251.972C1191.99 251.879 1191.67 251.832 1191.33 251.832C1190.71 251.832 1190.15 251.988 1189.65 252.3C1189.16 252.611 1188.76 253.07 1188.47 253.677C1188.17 254.283 1188.03 255.027 1188.03 255.909C1188.03 256.791 1188.17 257.535 1188.47 258.141C1188.76 258.748 1189.16 259.207 1189.65 259.518C1190.15 259.83 1190.71 259.986 1191.33 259.986C1191.67 259.986 1191.99 259.939 1192.3 259.847C1192.62 259.754 1192.9 259.616 1193.15 259.434C1193.41 259.248 1193.63 259.021 1193.81 258.753C1193.99 258.481 1194.12 258.17 1194.19 257.818H1195.43C1195.33 258.339 1195.16 258.804 1194.92 259.215C1194.67 259.626 1194.37 259.976 1194 260.264C1193.64 260.549 1193.23 260.766 1192.78 260.915C1192.33 261.065 1191.84 261.139 1191.33 261.139C1190.46 261.139 1189.69 260.927 1189.01 260.503C1188.34 260.079 1187.8 259.475 1187.42 258.693C1187.03 257.911 1186.84 256.983 1186.84 255.909C1186.84 254.835 1187.03 253.907 1187.42 253.125C1187.8 252.343 1188.34 251.74 1189.01 251.315C1189.69 250.891 1190.46 250.679 1191.33 250.679C1191.84 250.679 1192.33 250.754 1192.78 250.903C1193.23 251.052 1193.64 251.271 1194 251.559C1194.37 251.844 1194.67 252.192 1194.92 252.603C1195.16 253.011 1195.33 253.476 1195.43 254ZM1198.43 256.406V261H1197.26V250.818H1198.43V254.557H1198.53C1198.71 254.162 1198.98 253.849 1199.34 253.617C1199.7 253.382 1200.18 253.264 1200.78 253.264C1201.3 253.264 1201.76 253.369 1202.15 253.577C1202.54 253.783 1202.84 254.099 1203.06 254.527C1203.28 254.951 1203.38 255.491 1203.38 256.148V261H1202.21V256.227C1202.21 255.621 1202.05 255.152 1201.74 254.82C1201.43 254.486 1200.99 254.318 1200.44 254.318C1200.06 254.318 1199.71 254.399 1199.41 254.562C1199.11 254.724 1198.87 254.961 1198.69 255.273C1198.52 255.584 1198.43 255.962 1198.43 256.406ZM1208.73 261.159C1208 261.159 1207.36 260.997 1206.83 260.672C1206.3 260.344 1205.89 259.886 1205.6 259.3C1205.32 258.71 1205.17 258.024 1205.17 257.241C1205.17 256.459 1205.32 255.77 1205.6 255.173C1205.89 254.573 1206.29 254.106 1206.8 253.771C1207.32 253.433 1207.92 253.264 1208.61 253.264C1209.01 253.264 1209.4 253.33 1209.79 253.463C1210.18 253.596 1210.53 253.811 1210.85 254.109C1211.17 254.404 1211.42 254.795 1211.61 255.283C1211.8 255.77 1211.89 256.37 1211.89 257.082V257.58H1206.01V256.565H1210.7C1210.7 256.134 1210.62 255.75 1210.44 255.412C1210.27 255.074 1210.03 254.807 1209.72 254.612C1209.41 254.416 1209.04 254.318 1208.61 254.318C1208.15 254.318 1207.74 254.434 1207.4 254.666C1207.06 254.895 1206.8 255.193 1206.62 255.561C1206.44 255.929 1206.35 256.323 1206.35 256.744V257.42C1206.35 257.997 1206.45 258.486 1206.64 258.887C1206.85 259.285 1207.13 259.588 1207.48 259.797C1207.84 260.002 1208.26 260.105 1208.73 260.105C1209.04 260.105 1209.32 260.062 1209.57 259.976C1209.82 259.886 1210.04 259.754 1210.22 259.578C1210.4 259.399 1210.54 259.177 1210.64 258.912L1211.78 259.23C1211.66 259.615 1211.46 259.953 1211.17 260.244C1210.89 260.533 1210.54 260.758 1210.13 260.92C1209.72 261.08 1209.25 261.159 1208.73 261.159ZM1216.78 261.159C1216.07 261.159 1215.45 260.99 1214.93 260.652C1214.42 260.314 1214.02 259.848 1213.74 259.255C1213.46 258.662 1213.32 257.984 1213.32 257.222C1213.32 256.446 1213.46 255.762 1213.75 255.168C1214.04 254.572 1214.44 254.106 1214.95 253.771C1215.47 253.433 1216.07 253.264 1216.76 253.264C1217.3 253.264 1217.78 253.364 1218.21 253.562C1218.64 253.761 1219 254.04 1219.27 254.398C1219.55 254.756 1219.72 255.173 1219.78 255.651H1218.61C1218.52 255.303 1218.32 254.994 1218.01 254.726C1217.71 254.454 1217.3 254.318 1216.78 254.318C1216.32 254.318 1215.92 254.437 1215.58 254.676C1215.24 254.911 1214.97 255.245 1214.78 255.675C1214.59 256.103 1214.49 256.605 1214.49 257.182C1214.49 257.772 1214.59 258.286 1214.77 258.723C1214.96 259.161 1215.23 259.5 1215.57 259.742C1215.91 259.984 1216.32 260.105 1216.78 260.105C1217.09 260.105 1217.36 260.052 1217.61 259.946C1217.86 259.84 1218.07 259.688 1218.24 259.489C1218.42 259.29 1218.54 259.051 1218.61 258.773H1219.78C1219.72 259.223 1219.55 259.629 1219.29 259.991C1219.03 260.349 1218.69 260.634 1218.26 260.846C1217.84 261.055 1217.35 261.159 1216.78 261.159ZM1222.59 258.216L1222.57 256.764H1222.81L1226.15 253.364H1227.6L1224.05 256.963H1223.95L1222.59 258.216ZM1221.5 261V250.818H1222.67V261H1221.5ZM1226.35 261L1223.37 257.222L1224.2 256.406L1227.84 261H1226.35ZM1229.27 261V250.818H1230.45V254.577H1230.55C1230.63 254.444 1230.75 254.275 1230.9 254.07C1231.06 253.861 1231.28 253.675 1231.57 253.513C1231.86 253.347 1232.26 253.264 1232.75 253.264C1233.4 253.264 1233.96 253.425 1234.45 253.746C1234.94 254.068 1235.33 254.524 1235.6 255.114C1235.88 255.704 1236.02 256.4 1236.02 257.202C1236.02 258.01 1235.88 258.711 1235.6 259.305C1235.33 259.895 1234.95 260.352 1234.46 260.677C1233.97 260.998 1233.41 261.159 1232.77 261.159C1232.28 261.159 1231.89 261.078 1231.6 260.915C1231.3 260.75 1231.07 260.562 1230.91 260.354C1230.76 260.142 1230.63 259.966 1230.55 259.827H1230.41V261H1229.27ZM1230.43 257.182C1230.43 257.759 1230.51 258.267 1230.68 258.708C1230.85 259.146 1231.1 259.489 1231.42 259.737C1231.75 259.982 1232.14 260.105 1232.61 260.105C1233.11 260.105 1233.51 259.976 1233.84 259.717C1234.17 259.455 1234.42 259.104 1234.59 258.663C1234.76 258.219 1234.84 257.725 1234.84 257.182C1234.84 256.645 1234.76 256.161 1234.59 255.73C1234.43 255.296 1234.18 254.953 1233.85 254.701C1233.52 254.446 1233.11 254.318 1232.61 254.318C1232.14 254.318 1231.74 254.439 1231.41 254.681C1231.09 254.92 1230.84 255.254 1230.68 255.685C1230.51 256.113 1230.43 256.612 1230.43 257.182ZM1240.91 261.159C1240.22 261.159 1239.62 260.995 1239.1 260.667C1238.58 260.339 1238.18 259.88 1237.88 259.29C1237.6 258.7 1237.45 258.01 1237.45 257.222C1237.45 256.426 1237.6 255.732 1237.88 255.138C1238.18 254.545 1238.58 254.085 1239.1 253.756C1239.62 253.428 1240.22 253.264 1240.91 253.264C1241.6 253.264 1242.21 253.428 1242.72 253.756C1243.24 254.085 1243.65 254.545 1243.94 255.138C1244.23 255.732 1244.37 256.426 1244.37 257.222C1244.37 258.01 1244.23 258.7 1243.94 259.29C1243.65 259.88 1243.24 260.339 1242.72 260.667C1242.21 260.995 1241.6 261.159 1240.91 261.159ZM1240.91 260.105C1241.44 260.105 1241.87 259.971 1242.21 259.702C1242.54 259.434 1242.79 259.081 1242.96 258.643C1243.12 258.206 1243.2 257.732 1243.2 257.222C1243.2 256.711 1243.12 256.236 1242.96 255.795C1242.79 255.354 1242.54 254.998 1242.21 254.726C1241.87 254.454 1241.44 254.318 1240.91 254.318C1240.39 254.318 1239.96 254.454 1239.62 254.726C1239.28 254.998 1239.03 255.354 1238.87 255.795C1238.71 256.236 1238.63 256.711 1238.63 257.222C1238.63 257.732 1238.71 258.206 1238.87 258.643C1239.03 259.081 1239.28 259.434 1239.62 259.702C1239.96 259.971 1240.39 260.105 1240.91 260.105ZM1246.72 253.364L1248.55 256.486L1250.38 253.364H1251.74L1249.27 257.182L1251.74 261H1250.38L1248.55 258.037L1246.72 261H1245.37L1247.8 257.182L1245.37 253.364H1246.72Z" fill="#343741"/>
<rect x="1162" y="288" width="16" height="16" rx="4" fill="#0077CC"/>
<path fill-rule="evenodd" clip-rule="evenodd" d="M1168.48 299.023L1168.48 299.024C1168.59 299.133 1168.73 299.188 1168.88 299.188C1169.02 299.188 1169.16 299.133 1169.27 299.024L1174.52 293.773C1174.74 293.553 1174.74 293.198 1174.52 292.977L1174.52 292.977C1174.3 292.758 1173.95 292.758 1173.73 292.977L1168.88 297.83L1166.27 295.227C1166.05 295.008 1165.7 295.008 1165.48 295.227L1165.48 295.227C1165.26 295.448 1165.26 295.803 1165.48 296.023L1168.48 299.023Z" fill="white"/>
<path d="M1195.43 294H1194.19C1194.12 293.645 1193.99 293.334 1193.81 293.065C1193.63 292.797 1193.41 292.571 1193.15 292.389C1192.9 292.204 1192.62 292.064 1192.3 291.972C1191.99 291.879 1191.67 291.832 1191.33 291.832C1190.71 291.832 1190.15 291.988 1189.65 292.3C1189.16 292.611 1188.76 293.07 1188.47 293.677C1188.17 294.283 1188.03 295.027 1188.03 295.909C1188.03 296.791 1188.17 297.535 1188.47 298.141C1188.76 298.748 1189.16 299.207 1189.65 299.518C1190.15 299.83 1190.71 299.986 1191.33 299.986C1191.67 299.986 1191.99 299.939 1192.3 299.847C1192.62 299.754 1192.9 299.616 1193.15 299.434C1193.41 299.248 1193.63 299.021 1193.81 298.753C1193.99 298.481 1194.12 298.17 1194.19 297.818H1195.43C1195.33 298.339 1195.16 298.804 1194.92 299.215C1194.67 299.626 1194.37 299.976 1194 300.264C1193.64 300.549 1193.23 300.766 1192.78 300.915C1192.33 301.065 1191.84 301.139 1191.33 301.139C1190.46 301.139 1189.69 300.927 1189.01 300.503C1188.34 300.079 1187.8 299.475 1187.42 298.693C1187.03 297.911 1186.84 296.983 1186.84 295.909C1186.84 294.835 1187.03 293.907 1187.42 293.125C1187.8 292.343 1188.34 291.74 1189.01 291.315C1189.69 290.891 1190.46 290.679 1191.33 290.679C1191.84 290.679 1192.33 290.754 1192.78 290.903C1193.23 291.052 1193.64 291.271 1194 291.559C1194.37 291.844 1194.67 292.192 1194.92 292.603C1195.16 293.011 1195.33 293.476 1195.43 294ZM1198.43 296.406V301H1197.26V290.818H1198.43V294.557H1198.53C1198.71 294.162 1198.98 293.849 1199.34 293.617C1199.7 293.382 1200.18 293.264 1200.78 293.264C1201.3 293.264 1201.76 293.369 1202.15 293.577C1202.54 293.783 1202.84 294.099 1203.06 294.527C1203.28 294.951 1203.38 295.491 1203.38 296.148V301H1202.21V296.227C1202.21 295.621 1202.05 295.152 1201.74 294.82C1201.43 294.486 1200.99 294.318 1200.44 294.318C1200.06 294.318 1199.71 294.399 1199.41 294.562C1199.11 294.724 1198.87 294.961 1198.69 295.273C1198.52 295.584 1198.43 295.962 1198.43 296.406ZM1208.73 301.159C1208 301.159 1207.36 300.997 1206.83 300.672C1206.3 300.344 1205.89 299.886 1205.6 299.3C1205.32 298.71 1205.17 298.024 1205.17 297.241C1205.17 296.459 1205.32 295.77 1205.6 295.173C1205.89 294.573 1206.29 294.106 1206.8 293.771C1207.32 293.433 1207.92 293.264 1208.61 293.264C1209.01 293.264 1209.4 293.33 1209.79 293.463C1210.18 293.596 1210.53 293.811 1210.85 294.109C1211.17 294.404 1211.42 294.795 1211.61 295.283C1211.8 295.77 1211.89 296.37 1211.89 297.082V297.58H1206.01V296.565H1210.7C1210.7 296.134 1210.62 295.75 1210.44 295.412C1210.27 295.074 1210.03 294.807 1209.72 294.612C1209.41 294.416 1209.04 294.318 1208.61 294.318C1208.15 294.318 1207.74 294.434 1207.4 294.666C1207.06 294.895 1206.8 295.193 1206.62 295.561C1206.44 295.929 1206.35 296.323 1206.35 296.744V297.42C1206.35 297.997 1206.45 298.486 1206.64 298.887C1206.85 299.285 1207.13 299.588 1207.48 299.797C1207.84 300.002 1208.26 300.105 1208.73 300.105C1209.04 300.105 1209.32 300.062 1209.57 299.976C1209.82 299.886 1210.04 299.754 1210.22 299.578C1210.4 299.399 1210.54 299.177 1210.64 298.912L1211.78 299.23C1211.66 299.615 1211.46 299.953 1211.17 300.244C1210.89 300.533 1210.54 300.758 1210.13 300.92C1209.72 301.08 1209.25 301.159 1208.73 301.159ZM1216.78 301.159C1216.07 301.159 1215.45 300.99 1214.93 300.652C1214.42 300.314 1214.02 299.848 1213.74 299.255C1213.46 298.662 1213.32 297.984 1213.32 297.222C1213.32 296.446 1213.46 295.762 1213.75 295.168C1214.04 294.572 1214.44 294.106 1214.95 293.771C1215.47 293.433 1216.07 293.264 1216.76 293.264C1217.3 293.264 1217.78 293.364 1218.21 293.562C1218.64 293.761 1219 294.04 1219.27 294.398C1219.55 294.756 1219.72 295.173 1219.78 295.651H1218.61C1218.52 295.303 1218.32 294.994 1218.01 294.726C1217.71 294.454 1217.3 294.318 1216.78 294.318C1216.32 294.318 1215.92 294.437 1215.58 294.676C1215.24 294.911 1214.97 295.245 1214.78 295.675C1214.59 296.103 1214.49 296.605 1214.49 297.182C1214.49 297.772 1214.59 298.286 1214.77 298.723C1214.96 299.161 1215.23 299.5 1215.57 299.742C1215.91 299.984 1216.32 300.105 1216.78 300.105C1217.09 300.105 1217.36 300.052 1217.61 299.946C1217.86 299.84 1218.07 299.688 1218.24 299.489C1218.42 299.29 1218.54 299.051 1218.61 298.773H1219.78C1219.72 299.223 1219.55 299.629 1219.29 299.991C1219.03 300.349 1218.69 300.634 1218.26 300.846C1217.84 301.055 1217.35 301.159 1216.78 301.159ZM1222.59 298.216L1222.57 296.764H1222.81L1226.15 293.364H1227.6L1224.05 296.963H1223.95L1222.59 298.216ZM1221.5 301V290.818H1222.67V301H1221.5ZM1226.35 301L1223.37 297.222L1224.2 296.406L1227.84 301H1226.35ZM1229.27 301V290.818H1230.45V294.577H1230.55C1230.63 294.444 1230.75 294.275 1230.9 294.07C1231.06 293.861 1231.28 293.675 1231.57 293.513C1231.86 293.347 1232.26 293.264 1232.75 293.264C1233.4 293.264 1233.96 293.425 1234.45 293.746C1234.94 294.068 1235.33 294.524 1235.6 295.114C1235.88 295.704 1236.02 296.4 1236.02 297.202C1236.02 298.01 1235.88 298.711 1235.6 299.305C1235.33 299.895 1234.95 300.352 1234.46 300.677C1233.97 300.998 1233.41 301.159 1232.77 301.159C1232.28 301.159 1231.89 301.078 1231.6 300.915C1231.3 300.75 1231.07 300.562 1230.91 300.354C1230.76 300.142 1230.63 299.966 1230.55 299.827H1230.41V301H1229.27ZM1230.43 297.182C1230.43 297.759 1230.51 298.267 1230.68 298.708C1230.85 299.146 1231.1 299.489 1231.42 299.737C1231.75 299.982 1232.14 300.105 1232.61 300.105C1233.11 300.105 1233.51 299.976 1233.84 299.717C1234.17 299.455 1234.42 299.104 1234.59 298.663C1234.76 298.219 1234.84 297.725 1234.84 297.182C1234.84 296.645 1234.76 296.161 1234.59 295.73C1234.43 295.296 1234.18 294.953 1233.85 294.701C1233.52 294.446 1233.11 294.318 1232.61 294.318C1232.14 294.318 1231.74 294.439 1231.41 294.681C1231.09 294.92 1230.84 295.254 1230.68 295.685C1230.51 296.113 1230.43 296.612 1230.43 297.182ZM1240.91 301.159C1240.22 301.159 1239.62 300.995 1239.1 300.667C1238.58 300.339 1238.18 299.88 1237.88 299.29C1237.6 298.7 1237.45 298.01 1237.45 297.222C1237.45 296.426 1237.6 295.732 1237.88 295.138C1238.18 294.545 1238.58 294.085 1239.1 293.756C1239.62 293.428 1240.22 293.264 1240.91 293.264C1241.6 293.264 1242.21 293.428 1242.72 293.756C1243.24 294.085 1243.65 294.545 1243.94 295.138C1244.23 295.732 1244.37 296.426 1244.37 297.222C1244.37 298.01 1244.23 298.7 1243.94 299.29C1243.65 299.88 1243.24 300.339 1242.72 300.667C1242.21 300.995 1241.6 301.159 1240.91 301.159ZM1240.91 300.105C1241.44 300.105 1241.87 299.971 1242.21 299.702C1242.54 299.434 1242.79 299.081 1242.96 298.643C1243.12 298.206 1243.2 297.732 1243.2 297.222C1243.2 296.711 1243.12 296.236 1242.96 295.795C1242.79 295.354 1242.54 294.998 1242.21 294.726C1241.87 294.454 1241.44 294.318 1240.91 294.318C1240.39 294.318 1239.96 294.454 1239.62 294.726C1239.28 294.998 1239.03 295.354 1238.87 295.795C1238.71 296.236 1238.63 296.711 1238.63 297.222C1238.63 297.732 1238.71 298.206 1238.87 298.643C1239.03 299.081 1239.28 299.434 1239.62 299.702C1239.96 299.971 1240.39 300.105 1240.91 300.105ZM1246.72 293.364L1248.55 296.486L1250.38 293.364H1251.74L1249.27 297.182L1251.74 301H1250.38L1248.55 298.037L1246.72 301H1245.37L1247.8 297.182L1245.37 293.364H1246.72Z" fill="#343741"/>
<rect x="1312" y="319" width="112" height="32" rx="4" fill="#0077CC"/>
<path d="M1350.48 340.5H1348.85L1352.51 330.318H1354.29L1357.95 340.5H1356.32L1353.44 332.167H1353.36L1350.48 340.5ZM1350.75 336.512H1356.04V337.805H1350.75V336.512ZM1359.3 343.363V332.863H1360.75V334.101H1360.88C1360.96 333.942 1361.09 333.758 1361.25 333.549C1361.41 333.34 1361.64 333.158 1361.93 333.002C1362.22 332.843 1362.6 332.764 1363.07 332.764C1363.69 332.764 1364.24 332.919 1364.72 333.231C1365.2 333.543 1365.58 333.992 1365.86 334.578C1366.14 335.165 1366.28 335.871 1366.28 336.696C1366.28 337.522 1366.14 338.229 1365.86 338.819C1365.59 339.406 1365.21 339.858 1364.73 340.176C1364.25 340.491 1363.7 340.649 1363.09 340.649C1362.62 340.649 1362.24 340.571 1361.95 340.415C1361.66 340.259 1361.43 340.077 1361.26 339.868C1361.1 339.659 1360.97 339.474 1360.88 339.311H1360.79V343.363H1359.3ZM1360.76 336.681C1360.76 337.218 1360.84 337.689 1360.99 338.093C1361.15 338.498 1361.37 338.814 1361.67 339.043C1361.96 339.268 1362.32 339.381 1362.75 339.381C1363.2 339.381 1363.57 339.263 1363.87 339.028C1364.16 338.789 1364.39 338.466 1364.54 338.058C1364.7 337.651 1364.78 337.192 1364.78 336.681C1364.78 336.178 1364.7 335.725 1364.55 335.324C1364.4 334.923 1364.17 334.607 1363.87 334.375C1363.57 334.143 1363.2 334.027 1362.75 334.027C1362.32 334.027 1361.96 334.138 1361.66 334.36C1361.36 334.582 1361.14 334.892 1360.99 335.289C1360.83 335.687 1360.76 336.151 1360.76 336.681ZM1367.94 343.363V332.863H1369.39V334.101H1369.52C1369.6 333.942 1369.73 333.758 1369.89 333.549C1370.05 333.34 1370.28 333.158 1370.57 333.002C1370.86 332.843 1371.24 332.764 1371.71 332.764C1372.33 332.764 1372.88 332.919 1373.36 333.231C1373.85 333.543 1374.23 333.992 1374.5 334.578C1374.78 335.165 1374.92 335.871 1374.92 336.696C1374.92 337.522 1374.78 338.229 1374.51 338.819C1374.23 339.406 1373.85 339.858 1373.37 340.176C1372.89 340.491 1372.34 340.649 1371.73 340.649C1371.26 340.649 1370.88 340.571 1370.59 340.415C1370.3 340.259 1370.07 340.077 1369.9 339.868C1369.74 339.659 1369.61 339.474 1369.52 339.311H1369.43V343.363H1367.94ZM1369.4 336.681C1369.4 337.218 1369.48 337.689 1369.63 338.093C1369.79 338.498 1370.01 338.814 1370.31 339.043C1370.6 339.268 1370.97 339.381 1371.39 339.381C1371.84 339.381 1372.21 339.263 1372.51 339.028C1372.8 338.789 1373.03 338.466 1373.18 338.058C1373.34 337.651 1373.42 337.192 1373.42 336.681C1373.42 336.178 1373.34 335.725 1373.19 335.324C1373.04 334.923 1372.81 334.607 1372.51 334.375C1372.21 334.143 1371.84 334.027 1371.39 334.027C1370.96 334.027 1370.6 334.138 1370.3 334.36C1370 334.582 1369.78 334.892 1369.63 335.289C1369.48 335.687 1369.4 336.151 1369.4 336.681ZM1378.07 330.318V340.5H1376.58V330.318H1378.07ZM1381.01 343.363C1380.79 343.363 1380.58 343.345 1380.4 343.308C1380.22 343.275 1380.08 343.239 1380 343.199L1380.35 341.981C1380.62 342.054 1380.87 342.085 1381.08 342.076C1381.29 342.066 1381.48 341.986 1381.64 341.837C1381.81 341.688 1381.95 341.444 1382.08 341.106L1382.26 340.599L1379.47 332.863H1381.06L1382.99 338.789H1383.07L1385.01 332.863H1386.6L1383.46 341.519C1383.31 341.916 1383.12 342.253 1382.9 342.528C1382.67 342.806 1382.4 343.015 1382.09 343.154C1381.78 343.294 1381.42 343.363 1381.01 343.363Z" fill="white"/>
<defs>
<filter id="filter0_i_738_183" x="40" y="40" width="720" height="420" filterUnits="userSpaceOnUse" color-interpolation-filters="sRGB">
<feFlood flood-opacity="0" result="BackgroundImageFix"/>
<feBlend mode="normal" in="SourceGraphic" in2="BackgroundImageFix" result="shape"/>
<feColorMatrix in="SourceAlpha" type="matrix" values="0 0 0 0 0 0 0 0 0 0 0 0 0 0 0 0 0 0 127 0" result="hardAlpha"/>
<feOffset dy="4"/>
<feComposite in2="hardAlpha" operator="arithmetic" k2="-1" k3="1"/>
<feColorMatrix type="matrix" values="0 0 0 0 0 0 0 0 0 0.74902 0 0 0 0 0.701961 0 0 0 1 0"/>
<feBlend mode="normal" in2="shape" result="effect1_innerShadow_738_183"/>
</filter>
<filter id="filter1_dddd_738_183" x="324" y="144.7" width="400" height="270.3" filterUnits="userSpaceOnUse" color-interpolation-filters="sRGB">
<feFlood flood-opacity="0" result="BackgroundImageFix"/>
<feColorMatrix in="SourceAlpha" type="matrix" values="0 0 0 0 0 0 0 0 0 0 0 0 0 0 0 0 0 0 127 0" result="hardAlpha"/>
<feMorphology radius="1" operator="erode" in="SourceAlpha" result="effect1_dropShadow_738_183"/>
<feOffset dy="15"/>
<feGaussianBlur stdDeviation="7.5"/>
<feColorMatrix type="matrix" values="0 0 0 0 0 0 0 0 0 0 0 0 0 0 0 0 0 0 0.04 0"/>
<feBlend mode="normal" in2="BackgroundImageFix" result="effect1_dropShadow_738_183"/>
<feColorMatrix in="SourceAlpha" type="matrix" values="0 0 0 0 0 0 0 0 0 0 0 0 0 0 0 0 0 0 127 0" result="hardAlpha"/>
<feMorphology radius="1" operator="erode" in="SourceAlpha" result="effect2_dropShadow_738_183"/>
<feOffset dy="5.7"/>
<feGaussianBlur stdDeviation="6"/>
<feColorMatrix type="matrix" values="0 0 0 0 0 0 0 0 0 0 0 0 0 0 0 0 0 0 0.05 0"/>
<feBlend mode="normal" in2="effect1_dropShadow_738_183" result="effect2_dropShadow_738_183"/>
<feColorMatrix in="SourceAlpha" type="matrix" values="0 0 0 0 0 0 0 0 0 0 0 0 0 0 0 0 0 0 127 0" result="hardAlpha"/>
<feMorphology radius="1" operator="erode" in="SourceAlpha" result="effect3_dropShadow_738_183"/>
<feOffset dy="2.6"/>
<feGaussianBlur stdDeviation="4"/>
<feColorMatrix type="matrix" values="0 0 0 0 0 0 0 0 0 0 0 0 0 0 0 0 0 0 0.06 0"/>
<feBlend mode="normal" in2="effect2_dropShadow_738_183" result="effect3_dropShadow_738_183"/>
<feColorMatrix in="SourceAlpha" type="matrix" values="0 0 0 0 0 0 0 0 0 0 0 0 0 0 0 0 0 0 127 0" result="hardAlpha"/>
<feMorphology radius="1" operator="erode" in="SourceAlpha" result="effect4_dropShadow_738_183"/>
<feOffset dy="0.9"/>
<feGaussianBlur stdDeviation="2"/>
<feColorMatrix type="matrix" values="0 0 0 0 0 0 0 0 0 0 0 0 0 0 0 0 0 0 0.08 0"/>
<feBlend mode="normal" in2="effect3_dropShadow_738_183" result="effect4_dropShadow_738_183"/>
<feBlend mode="normal" in="SourceGraphic" in2="effect4_dropShadow_738_183" result="shape"/>
</filter>
<filter id="filter2_i_738_183" x="800" y="40" width="720" height="420" filterUnits="userSpaceOnUse" color-interpolation-filters="sRGB">
<feFlood flood-opacity="0" result="BackgroundImageFix"/>
<feBlend mode="normal" in="SourceGraphic" in2="BackgroundImageFix" result="shape"/>
<feColorMatrix in="SourceAlpha" type="matrix" values="0 0 0 0 0 0 0 0 0 0 0 0 0 0 0 0 0 0 127 0" result="hardAlpha"/>
<feOffset dy="4"/>
<feComposite in2="hardAlpha" operator="arithmetic" k2="-1" k3="1"/>
<feColorMatrix type="matrix" values="0 0 0 0 0 0 0 0 0 0.74902 0 0 0 0 0.701961 0 0 0 1 0"/>
<feBlend mode="normal" in2="shape" result="effect1_innerShadow_738_183"/>
</filter>
<filter id="filter3_dddd_738_183" x="1104" y="192.4" width="370" height="231.6" filterUnits="userSpaceOnUse" color-interpolation-filters="sRGB">
<feFlood flood-opacity="0" result="BackgroundImageFix"/>
<feColorMatrix in="SourceAlpha" type="matrix" values="0 0 0 0 0 0 0 0 0 0 0 0 0 0 0 0 0 0 127 0" result="hardAlpha"/>
<feOffset dy="23"/>
<feGaussianBlur stdDeviation="17.5"/>
<feColorMatrix type="matrix" values="0 0 0 0 0 0 0 0 0 0 0 0 0 0 0 0 0 0 0.05 0"/>
<feBlend mode="normal" in2="BackgroundImageFix" result="effect1_dropShadow_738_183"/>
<feColorMatrix in="SourceAlpha" type="matrix" values="0 0 0 0 0 0 0 0 0 0 0 0 0 0 0 0 0 0 127 0" result="hardAlpha"/>
<feOffset dy="8.4"/>
<feGaussianBlur stdDeviation="11.5"/>
<feColorMatrix type="matrix" values="0 0 0 0 0 0 0 0 0 0 0 0 0 0 0 0 0 0 0.06 0"/>
<feBlend mode="normal" in2="effect1_dropShadow_738_183" result="effect2_dropShadow_738_183"/>
<feColorMatrix in="SourceAlpha" type="matrix" values="0 0 0 0 0 0 0 0 0 0 0 0 0 0 0 0 0 0 127 0" result="hardAlpha"/>
<feOffset dy="3.6"/>
<feGaussianBlur stdDeviation="6.5"/>
<feColorMatrix type="matrix" values="0 0 0 0 0 0 0 0 0 0 0 0 0 0 0 0 0 0 0.07 0"/>
<feBlend mode="normal" in2="effect2_dropShadow_738_183" result="effect3_dropShadow_738_183"/>
<feColorMatrix in="SourceAlpha" type="matrix" values="0 0 0 0 0 0 0 0 0 0 0 0 0 0 0 0 0 0 127 0" result="hardAlpha"/>
<feOffset dy="1"/>
<feGaussianBlur stdDeviation="2.5"/>
<feColorMatrix type="matrix" values="0 0 0 0 0 0 0 0 0 0 0 0 0 0 0 0 0 0 0.1 0"/>
<feBlend mode="normal" in2="effect3_dropShadow_738_183" result="effect4_dropShadow_738_183"/>
<feBlend mode="normal" in="SourceGraphic" in2="effect4_dropShadow_738_183" result="shape"/>
</filter>
<linearGradient id="paint0_linear_738_183" x1="475.554" y1="189.5" x2="548.299" y2="294.044" gradientUnits="userSpaceOnUse">
<stop stop-color="#F1F4FA"/>
<stop offset="0.5" stop-color="#F1F4FA" stop-opacity="0.29"/>
<stop offset="1" stop-color="#F1F4FA"/>
</linearGradient>
<linearGradient id="paint1_linear_738_183" x1="475.554" y1="209.5" x2="548.299" y2="314.044" gradientUnits="userSpaceOnUse">
<stop stop-color="#F1F4FA"/>
<stop offset="0.5" stop-color="#F1F4FA" stop-opacity="0.29"/>
<stop offset="1" stop-color="#F1F4FA"/>
</linearGradient>
<linearGradient id="paint2_linear_738_183" x1="475.554" y1="229.5" x2="548.299" y2="334.044" gradientUnits="userSpaceOnUse">
<stop stop-color="#F1F4FA"/>
<stop offset="0.5" stop-color="#F1F4FA" stop-opacity="0.29"/>
<stop offset="1" stop-color="#F1F4FA"/>
</linearGradient>
<linearGradient id="paint3_linear_738_183" x1="445.166" y1="249.5" x2="522.529" y2="332.886" gradientUnits="userSpaceOnUse">
<stop stop-color="#F1F4FA"/>
<stop offset="0.5" stop-color="#F1F4FA" stop-opacity="0.29"/>
<stop offset="1" stop-color="#F1F4FA"/>
</linearGradient>
<clipPath id="clip0_738_183">
<rect width="24" height="24" fill="white" transform="translate(80 80)"/>
</clipPath>
<clipPath id="clip1_738_183">
<rect width="16" height="16" fill="white" transform="translate(116 271)"/>
</clipPath>
<clipPath id="clip2_738_183">
<rect width="24" height="24" fill="white" transform="translate(840 80)"/>
</clipPath>
<clipPath id="clip3_738_183">
<rect width="269" height="40" fill="white" transform="translate(969 171)"/>
</clipPath>
<clipPath id="clip4_738_183">
<rect x="1254" y="171" width="74" height="40" rx="6" fill="white"/>
</clipPath>
</defs>
</svg>
