<svg width="800" height="320" viewBox="0 0 800 320" fill="none" xmlns="http://www.w3.org/2000/svg">
<g filter="url(#filter0_i_562_4023)">
<rect width="720" height="240" transform="translate(40 40)" fill="#F7F8FC"/>
<path d="M92.8246 94.2537L93.3507 88.9926C93.4307 88.1934 92.8031 87.5 92 87.5C91.1969 87.5 90.5693 88.1934 90.6493 88.9926L91.1754 94.2537C91.2177 94.6774 91.5742 95 92 95C92.4258 95 92.7823 94.6774 92.8246 94.2537Z" fill="#8A6A0A"/>
<path d="M93.5 98C93.5 98.8284 92.8284 99.5 92 99.5C91.1716 99.5 90.5 98.8284 90.5 98C90.5 97.1716 91.1716 96.5 92 96.5C92.8284 96.5 93.5 97.1716 93.5 98Z" fill="#8A6A0A"/>
<path fill-rule="evenodd" clip-rule="evenodd" d="M93.2957 82.2442C93.0269 81.7834 92.5335 81.5 92 81.5C91.4665 81.5 90.9731 81.7834 90.7043 82.2442L80.2043 100.244C79.9337 100.708 79.9318 101.281 80.1993 101.747C80.4668 102.213 80.9629 102.5 81.5 102.5H102.5C103.037 102.5 103.533 102.213 103.801 101.747C104.068 101.281 104.066 100.708 103.796 100.244L93.2957 82.2442ZM81.5 101L92 83L102.5 101H81.5Z" fill="#8A6A0A"/>
<path d="M120.148 100H116.523L122.047 84H126.406L131.922 100H128.297L124.289 87.6562H124.164L120.148 100ZM119.922 93.7109H128.484V96.3516H119.922V93.7109ZM143.469 88L139.273 100H135.523L131.328 88H134.844L137.336 96.5859H137.461L139.945 88H143.469ZM150.207 100.234C148.993 100.234 147.944 99.9766 147.059 99.4609C146.178 98.9401 145.499 98.2161 145.02 97.2891C144.54 96.3568 144.301 95.276 144.301 94.0469C144.301 92.8073 144.54 91.724 145.02 90.7969C145.499 89.8646 146.178 89.1406 147.059 88.625C147.944 88.1042 148.993 87.8438 150.207 87.8438C151.421 87.8438 152.467 88.1042 153.348 88.625C154.233 89.1406 154.915 89.8646 155.395 90.7969C155.874 91.724 156.113 92.8073 156.113 94.0469C156.113 95.276 155.874 96.3568 155.395 97.2891C154.915 98.2161 154.233 98.9401 153.348 99.4609C152.467 99.9766 151.421 100.234 150.207 100.234ZM150.223 97.6562C150.775 97.6562 151.236 97.5 151.605 97.1875C151.975 96.8698 152.254 96.4375 152.441 95.8906C152.634 95.3437 152.73 94.7214 152.73 94.0234C152.73 93.3255 152.634 92.7031 152.441 92.1562C152.254 91.6094 151.975 91.1771 151.605 90.8594C151.236 90.5417 150.775 90.3828 150.223 90.3828C149.665 90.3828 149.197 90.5417 148.816 90.8594C148.441 91.1771 148.158 91.6094 147.965 92.1562C147.777 92.7031 147.684 93.3255 147.684 94.0234C147.684 94.7214 147.777 95.3437 147.965 95.8906C148.158 96.4375 148.441 96.8698 148.816 97.1875C149.197 97.5 149.665 97.6562 150.223 97.6562ZM158.277 100V88H161.605V100H158.277ZM159.949 86.4531C159.454 86.4531 159.03 86.2891 158.676 85.9609C158.327 85.6276 158.152 85.2292 158.152 84.7656C158.152 84.3073 158.327 83.9141 158.676 83.5859C159.03 83.2526 159.454 83.0859 159.949 83.0859C160.444 83.0859 160.866 83.2526 161.215 83.5859C161.569 83.9141 161.746 84.3073 161.746 84.7656C161.746 85.2292 161.569 85.6276 161.215 85.9609C160.866 86.2891 160.444 86.4531 159.949 86.4531ZM168.693 100.195C167.782 100.195 166.956 99.9609 166.217 99.4922C165.482 99.0182 164.899 98.3229 164.467 97.4062C164.04 96.4844 163.826 95.3542 163.826 94.0156C163.826 92.6406 164.048 91.4974 164.49 90.5859C164.933 89.6693 165.521 88.9844 166.256 88.5313C166.995 88.0729 167.805 87.8438 168.686 87.8438C169.357 87.8438 169.917 87.9583 170.365 88.1875C170.818 88.4115 171.183 88.6927 171.459 89.0312C171.74 89.3646 171.954 89.6927 172.1 90.0156H172.201V84H175.521V100H172.24V98.0781H172.1C171.943 98.4115 171.722 98.7422 171.436 99.0703C171.154 99.3932 170.787 99.6615 170.334 99.875C169.886 100.089 169.339 100.195 168.693 100.195ZM169.748 97.5469C170.285 97.5469 170.738 97.401 171.107 97.1094C171.482 96.8125 171.769 96.3984 171.967 95.8672C172.17 95.3359 172.271 94.7135 172.271 94C172.271 93.2865 172.173 92.6667 171.975 92.1406C171.777 91.6146 171.49 91.2083 171.115 90.9219C170.74 90.6354 170.285 90.4922 169.748 90.4922C169.201 90.4922 168.74 90.6406 168.365 90.9375C167.99 91.2344 167.706 91.6458 167.514 92.1719C167.321 92.6979 167.225 93.3073 167.225 94C167.225 94.6979 167.321 95.3151 167.514 95.8516C167.712 96.3828 167.995 96.7995 168.365 97.1016C168.74 97.3984 169.201 97.5469 169.748 97.5469Z" fill="#8A6A0A"/>
</g>
<path d="M326.075 188.629H324.524C324.464 188.298 324.353 188.006 324.191 187.754C324.029 187.502 323.83 187.289 323.594 187.113C323.359 186.937 323.096 186.805 322.804 186.715C322.516 186.626 322.209 186.581 321.884 186.581C321.298 186.581 320.772 186.728 320.308 187.023C319.848 187.318 319.483 187.751 319.214 188.321C318.949 188.891 318.817 189.587 318.817 190.409C318.817 191.238 318.949 191.937 319.214 192.507C319.483 193.077 319.849 193.508 320.313 193.8C320.777 194.091 321.299 194.237 321.879 194.237C322.201 194.237 322.506 194.194 322.794 194.108C323.086 194.018 323.349 193.888 323.585 193.715C323.82 193.543 324.019 193.332 324.181 193.084C324.347 192.832 324.461 192.544 324.524 192.219L326.075 192.224C325.992 192.724 325.832 193.185 325.593 193.606C325.358 194.023 325.054 194.385 324.683 194.69C324.315 194.991 323.894 195.225 323.42 195.391C322.946 195.556 322.429 195.639 321.869 195.639C320.988 195.639 320.202 195.43 319.513 195.013C318.823 194.592 318.28 193.99 317.882 193.208C317.488 192.426 317.29 191.493 317.29 190.409C317.29 189.322 317.489 188.389 317.887 187.61C318.285 186.828 318.828 186.228 319.518 185.81C320.207 185.389 320.991 185.179 321.869 185.179C322.41 185.179 322.913 185.257 323.381 185.413C323.851 185.565 324.274 185.79 324.648 186.089C325.023 186.384 325.333 186.745 325.578 187.173C325.823 187.597 325.989 188.082 326.075 188.629ZM330.017 195.669C329.533 195.669 329.095 195.58 328.704 195.401C328.313 195.218 328.003 194.955 327.774 194.61C327.549 194.265 327.436 193.843 327.436 193.342C327.436 192.911 327.519 192.557 327.685 192.278C327.851 192 328.074 191.78 328.356 191.617C328.638 191.455 328.953 191.332 329.301 191.249C329.649 191.166 330.003 191.103 330.365 191.06C330.822 191.007 331.193 190.964 331.478 190.931C331.763 190.895 331.97 190.837 332.1 190.757C332.229 190.678 332.294 190.548 332.294 190.369V190.335C332.294 189.9 332.171 189.564 331.926 189.325C331.684 189.087 331.322 188.967 330.842 188.967C330.341 188.967 329.947 189.078 329.659 189.3C329.374 189.519 329.176 189.763 329.067 190.031L327.67 189.713C327.836 189.249 328.078 188.875 328.396 188.589C328.717 188.301 329.087 188.092 329.504 187.963C329.922 187.83 330.361 187.764 330.822 187.764C331.127 187.764 331.45 187.801 331.791 187.874C332.136 187.943 332.458 188.072 332.756 188.261C333.057 188.45 333.304 188.72 333.497 189.072C333.689 189.42 333.785 189.872 333.785 190.429V195.5H332.333V194.456H332.274C332.177 194.648 332.033 194.837 331.841 195.023C331.649 195.208 331.402 195.362 331.1 195.485C330.799 195.608 330.437 195.669 330.017 195.669ZM330.34 194.476C330.751 194.476 331.102 194.395 331.394 194.232C331.689 194.07 331.912 193.858 332.065 193.596C332.221 193.331 332.298 193.047 332.298 192.746V191.761C332.245 191.814 332.143 191.864 331.99 191.911C331.841 191.954 331.67 191.992 331.478 192.025C331.286 192.055 331.099 192.083 330.916 192.109C330.734 192.133 330.582 192.152 330.459 192.169C330.171 192.205 329.907 192.267 329.669 192.353C329.433 192.439 329.244 192.563 329.102 192.726C328.963 192.885 328.893 193.097 328.893 193.362C328.893 193.73 329.029 194.009 329.301 194.197C329.572 194.383 329.919 194.476 330.34 194.476ZM337.251 190.966V195.5H335.765V187.864H337.192V189.107H337.286C337.462 188.702 337.737 188.377 338.112 188.132C338.489 187.887 338.965 187.764 339.538 187.764C340.059 187.764 340.514 187.874 340.906 188.092C341.297 188.308 341.6 188.629 341.815 189.057C342.031 189.484 342.138 190.013 342.138 190.643V195.5H340.652V190.822C340.652 190.268 340.508 189.836 340.219 189.524C339.931 189.209 339.535 189.052 339.031 189.052C338.687 189.052 338.38 189.126 338.112 189.276C337.846 189.425 337.636 189.643 337.48 189.932C337.328 190.217 337.251 190.562 337.251 190.966ZM347.349 195.654C346.61 195.654 345.973 195.487 345.44 195.152C344.909 194.814 344.502 194.348 344.217 193.755C343.932 193.162 343.789 192.482 343.789 191.717C343.789 190.941 343.935 190.257 344.227 189.663C344.518 189.067 344.929 188.601 345.46 188.266C345.99 187.932 346.615 187.764 347.334 187.764C347.914 187.764 348.431 187.872 348.885 188.087C349.339 188.299 349.705 188.598 349.984 188.982C350.265 189.367 350.433 189.816 350.486 190.33H349.039C348.96 189.972 348.777 189.663 348.492 189.405C348.21 189.146 347.833 189.017 347.359 189.017C346.944 189.017 346.581 189.126 346.27 189.345C345.962 189.561 345.721 189.869 345.549 190.27C345.377 190.668 345.29 191.138 345.29 191.682C345.29 192.239 345.375 192.719 345.544 193.124C345.713 193.528 345.952 193.841 346.26 194.063C346.571 194.285 346.938 194.396 347.359 194.396C347.64 194.396 347.896 194.345 348.124 194.242C348.356 194.136 348.55 193.985 348.706 193.79C348.865 193.594 348.976 193.359 349.039 193.084H350.486C350.433 193.578 350.272 194.018 350.004 194.406C349.735 194.794 349.375 195.099 348.925 195.321C348.477 195.543 347.952 195.654 347.349 195.654ZM355.367 195.654C354.614 195.654 353.966 195.493 353.423 195.172C352.883 194.847 352.465 194.391 352.17 193.805C351.878 193.215 351.732 192.524 351.732 191.732C351.732 190.949 351.878 190.26 352.17 189.663C352.465 189.067 352.876 188.601 353.403 188.266C353.933 187.932 354.553 187.764 355.262 187.764C355.693 187.764 356.111 187.835 356.515 187.978C356.919 188.121 357.282 188.344 357.604 188.649C357.925 188.954 358.179 189.35 358.365 189.837C358.55 190.321 358.643 190.91 358.643 191.602V192.129H352.573V191.016H357.186C357.186 190.625 357.107 190.278 356.948 189.977C356.789 189.672 356.565 189.431 356.276 189.256C355.991 189.08 355.657 188.992 355.272 188.992C354.855 188.992 354.49 189.095 354.178 189.3C353.87 189.503 353.632 189.768 353.463 190.096C353.297 190.421 353.214 190.774 353.214 191.155V192.025C353.214 192.535 353.303 192.969 353.482 193.327C353.665 193.685 353.918 193.959 354.243 194.148C354.568 194.333 354.947 194.426 355.382 194.426C355.663 194.426 355.92 194.386 356.152 194.307C356.384 194.224 356.585 194.101 356.754 193.939C356.923 193.777 357.052 193.576 357.142 193.337L358.548 193.591C358.436 194.005 358.234 194.368 357.942 194.68C357.654 194.988 357.291 195.228 356.853 195.401C356.419 195.57 355.923 195.654 355.367 195.654ZM361.779 185.318V195.5H360.292V185.318H361.779Z" fill="#005EC4"/>
<rect x="379.5" y="170" width="112" height="40" rx="6" fill="#0077CC"/>
<path fill-rule="evenodd" clip-rule="evenodd" d="M404.469 194.031L404.47 194.031C404.616 194.176 404.808 194.25 405 194.25C405.192 194.25 405.384 194.176 405.53 194.031L412.531 187.03C412.823 186.737 412.823 186.263 412.531 185.969L412.53 185.969C412.237 185.677 411.763 185.677 411.469 185.969L405 192.439L401.53 188.969C401.237 188.677 400.763 188.677 400.47 188.969L400.469 188.969C400.177 189.263 400.177 189.737 400.469 190.031L404.469 194.031Z" fill="white"/>
<path d="M430.166 185.318H431.707V192.014C431.707 192.727 431.54 193.358 431.205 193.909C430.871 194.455 430.4 194.886 429.793 195.201C429.187 195.513 428.476 195.669 427.661 195.669C426.848 195.669 426.139 195.513 425.533 195.201C424.926 194.886 424.455 194.455 424.121 193.909C423.786 193.358 423.619 192.727 423.619 192.014V185.318H425.155V191.89C425.155 192.351 425.256 192.76 425.458 193.118C425.664 193.476 425.954 193.758 426.328 193.963C426.703 194.165 427.147 194.267 427.661 194.267C428.178 194.267 428.623 194.165 428.998 193.963C429.376 193.758 429.664 193.476 429.863 193.118C430.065 192.76 430.166 192.351 430.166 191.89V185.318ZM433.822 198.363V187.863H435.273V189.101H435.398C435.484 188.942 435.608 188.758 435.77 188.549C435.933 188.34 436.158 188.158 436.447 188.002C436.735 187.843 437.116 187.764 437.59 187.764C438.206 187.764 438.757 187.919 439.241 188.231C439.724 188.543 440.104 188.992 440.379 189.578C440.657 190.165 440.797 190.871 440.797 191.696C440.797 192.522 440.659 193.229 440.384 193.819C440.109 194.406 439.731 194.858 439.251 195.176C438.77 195.491 438.221 195.649 437.605 195.649C437.141 195.649 436.761 195.571 436.466 195.415C436.175 195.259 435.946 195.077 435.78 194.868C435.615 194.659 435.487 194.474 435.398 194.311H435.308V198.363H433.822ZM435.278 191.681C435.278 192.218 435.356 192.689 435.512 193.093C435.668 193.498 435.893 193.814 436.188 194.043C436.483 194.268 436.844 194.381 437.272 194.381C437.716 194.381 438.087 194.263 438.385 194.028C438.684 193.789 438.909 193.466 439.062 193.058C439.217 192.651 439.295 192.192 439.295 191.681C439.295 191.178 439.219 190.725 439.067 190.324C438.917 189.923 438.692 189.607 438.39 189.375C438.092 189.143 437.719 189.027 437.272 189.027C436.841 189.027 436.476 189.138 436.178 189.36C435.883 189.582 435.659 189.892 435.507 190.289C435.354 190.687 435.278 191.151 435.278 191.681ZM445.321 195.649C444.704 195.649 444.154 195.491 443.67 195.176C443.19 194.858 442.812 194.406 442.537 193.819C442.265 193.229 442.129 192.522 442.129 191.696C442.129 190.871 442.267 190.165 442.542 189.578C442.82 188.992 443.201 188.543 443.685 188.231C444.169 187.919 444.718 187.764 445.331 187.764C445.805 187.764 446.186 187.843 446.474 188.002C446.766 188.158 446.991 188.34 447.15 188.549C447.313 188.758 447.439 188.942 447.528 189.101H447.618V185.318H449.104V195.5H447.653V194.311H447.528C447.439 194.474 447.309 194.659 447.14 194.868C446.975 195.077 446.746 195.259 446.454 195.415C446.163 195.571 445.785 195.649 445.321 195.649ZM445.649 194.381C446.077 194.381 446.438 194.268 446.733 194.043C447.031 193.814 447.256 193.498 447.409 193.093C447.565 192.689 447.643 192.218 447.643 191.681C447.643 191.151 447.566 190.687 447.414 190.289C447.261 189.892 447.038 189.582 446.743 189.36C446.448 189.138 446.083 189.027 445.649 189.027C445.202 189.027 444.829 189.143 444.53 189.375C444.232 189.607 444.007 189.923 443.854 190.324C443.705 190.725 443.631 191.178 443.631 191.681C443.631 192.192 443.707 192.651 443.859 193.058C444.012 193.466 444.237 193.789 444.535 194.028C444.837 194.263 445.208 194.381 445.649 194.381ZM453.448 195.669C452.964 195.669 452.527 195.579 452.136 195.4C451.745 195.218 451.435 194.954 451.206 194.61C450.981 194.265 450.868 193.842 450.868 193.342C450.868 192.911 450.951 192.556 451.116 192.278C451.282 192 451.506 191.779 451.788 191.617C452.069 191.454 452.384 191.332 452.732 191.249C453.08 191.166 453.435 191.103 453.796 191.06C454.254 191.007 454.625 190.964 454.91 190.931C455.195 190.894 455.402 190.836 455.531 190.757C455.661 190.677 455.725 190.548 455.725 190.369V190.334C455.725 189.9 455.603 189.563 455.357 189.325C455.115 189.086 454.754 188.967 454.273 188.967C453.773 188.967 453.379 189.078 453.09 189.3C452.805 189.519 452.608 189.762 452.499 190.031L451.102 189.713C451.267 189.249 451.509 188.874 451.827 188.589C452.149 188.301 452.518 188.092 452.936 187.963C453.354 187.83 453.793 187.764 454.254 187.764C454.558 187.764 454.882 187.8 455.223 187.873C455.568 187.943 455.889 188.072 456.188 188.261C456.489 188.45 456.736 188.72 456.928 189.071C457.121 189.419 457.217 189.872 457.217 190.428V195.5H455.765V194.455H455.705C455.609 194.648 455.465 194.837 455.273 195.022C455.08 195.208 454.834 195.362 454.532 195.485C454.23 195.607 453.869 195.669 453.448 195.669ZM453.771 194.475C454.182 194.475 454.534 194.394 454.825 194.232C455.12 194.069 455.344 193.857 455.496 193.595C455.652 193.33 455.73 193.047 455.73 192.745V191.761C455.677 191.814 455.574 191.864 455.422 191.91C455.273 191.953 455.102 191.991 454.91 192.024C454.718 192.054 454.53 192.082 454.348 192.109C454.166 192.132 454.013 192.152 453.891 192.169C453.602 192.205 453.339 192.266 453.1 192.352C452.865 192.439 452.676 192.563 452.533 192.725C452.394 192.884 452.325 193.097 452.325 193.362C452.325 193.73 452.46 194.008 452.732 194.197C453.004 194.383 453.35 194.475 453.771 194.475ZM462.761 187.863V189.056H458.59V187.863H462.761ZM459.709 186.034H461.195V193.257C461.195 193.546 461.238 193.763 461.324 193.909C461.411 194.051 461.522 194.149 461.657 194.202C461.797 194.252 461.948 194.277 462.11 194.277C462.229 194.277 462.334 194.268 462.423 194.252C462.513 194.235 462.582 194.222 462.632 194.212L462.9 195.44C462.814 195.473 462.692 195.506 462.532 195.539C462.373 195.576 462.175 195.596 461.936 195.599C461.545 195.606 461.18 195.536 460.842 195.39C460.504 195.244 460.231 195.019 460.022 194.714C459.813 194.409 459.709 194.026 459.709 193.566V186.034ZM467.615 195.654C466.862 195.654 466.214 195.493 465.671 195.171C465.131 194.847 464.713 194.391 464.418 193.804C464.126 193.214 463.98 192.523 463.98 191.731C463.98 190.949 464.126 190.259 464.418 189.663C464.713 189.066 465.124 188.601 465.651 188.266C466.181 187.931 466.801 187.764 467.51 187.764C467.941 187.764 468.359 187.835 468.763 187.977C469.167 188.12 469.53 188.344 469.852 188.649C470.173 188.954 470.427 189.35 470.613 189.837C470.798 190.321 470.891 190.909 470.891 191.602V192.129H464.821V191.015H469.434C469.434 190.624 469.355 190.278 469.196 189.976C469.037 189.671 468.813 189.431 468.525 189.255C468.239 189.08 467.905 188.992 467.52 188.992C467.103 188.992 466.738 189.094 466.426 189.3C466.118 189.502 465.88 189.767 465.711 190.095C465.545 190.42 465.462 190.773 465.462 191.154V192.024C465.462 192.535 465.551 192.969 465.73 193.327C465.913 193.685 466.166 193.958 466.491 194.147C466.816 194.333 467.195 194.426 467.63 194.426C467.911 194.426 468.168 194.386 468.4 194.306C468.632 194.223 468.833 194.101 469.002 193.938C469.171 193.776 469.3 193.576 469.39 193.337L470.797 193.59C470.684 194.005 470.482 194.368 470.19 194.679C469.902 194.987 469.539 195.228 469.101 195.4C468.667 195.569 468.172 195.654 467.615 195.654Z" fill="white"/>
<defs>
<filter id="filter0_i_562_4023" x="40" y="40" width="720" height="240" filterUnits="userSpaceOnUse" color-interpolation-filters="sRGB">
<feFlood flood-opacity="0" result="BackgroundImageFix"/>
<feBlend mode="normal" in="SourceGraphic" in2="BackgroundImageFix" result="shape"/>
<feColorMatrix in="SourceAlpha" type="matrix" values="0 0 0 0 0 0 0 0 0 0 0 0 0 0 0 0 0 0 127 0" result="hardAlpha"/>
<feOffset dy="4"/>
<feComposite in2="hardAlpha" operator="arithmetic" k2="-1" k3="1"/>
<feColorMatrix type="matrix" values="0 0 0 0 0.996078 0 0 0 0 0.772549 0 0 0 0 0.0784314 0 0 0 1 0"/>
<feBlend mode="normal" in2="shape" result="effect1_innerShadow_562_4023"/>
</filter>
</defs>
</svg>
