<svg width="800" height="320" viewBox="0 0 800 320" fill="none" xmlns="http://www.w3.org/2000/svg">
<g filter="url(#filter0_i_562_3874)">
<rect width="720" height="240" transform="translate(40 40)" fill="#F7F8FC"/>
<g clip-path="url(#clip0_562_3874)">
<path fill-rule="evenodd" clip-rule="evenodd" d="M92 104C98.6274 104 104 98.6274 104 92C104 85.3726 98.6274 80 92 80C85.3726 80 80 85.3726 80 92C80 98.6274 85.3726 104 92 104ZM98.8026 87.4617C99.238 87.905 99.2316 88.6173 98.7883 89.0526L91.1519 96.5526C90.7143 96.9825 90.013 96.9825 89.5753 96.5526L85.2117 92.2669C84.7684 91.8316 84.762 91.1193 85.1974 90.676C85.6327 90.2327 86.345 90.2263 86.7883 90.6617L90.3636 94.1732L97.2117 87.4474C97.655 87.012 98.3673 87.0184 98.8026 87.4617Z" fill="#00BFB3"/>
</g>
<path d="M123.063 100H117.391V84H123.109C124.719 84 126.104 84.3203 127.266 84.9609C128.427 85.5964 129.32 86.5104 129.945 87.7031C130.576 88.8958 130.891 90.3229 130.891 91.9844C130.891 93.651 130.576 95.0833 129.945 96.2812C129.32 97.4792 128.422 98.3984 127.25 99.0391C126.083 99.6797 124.688 100 123.063 100ZM120.773 97.1016H122.922C123.922 97.1016 124.763 96.9245 125.445 96.5703C126.133 96.2109 126.648 95.6562 126.992 94.9062C127.341 94.151 127.516 93.1771 127.516 91.9844C127.516 90.8021 127.341 89.8359 126.992 89.0859C126.648 88.3359 126.135 87.7839 125.453 87.4297C124.771 87.0755 123.93 86.8984 122.93 86.8984H120.773V97.1016ZM138.756 100.234C137.542 100.234 136.493 99.9766 135.607 99.4609C134.727 98.9401 134.048 98.2161 133.568 97.2891C133.089 96.3568 132.85 95.276 132.85 94.0469C132.85 92.8073 133.089 91.724 133.568 90.7969C134.048 89.8646 134.727 89.1406 135.607 88.625C136.493 88.1042 137.542 87.8438 138.756 87.8438C139.969 87.8438 141.016 88.1042 141.896 88.625C142.782 89.1406 143.464 89.8646 143.943 90.7969C144.423 91.724 144.662 92.8073 144.662 94.0469C144.662 95.276 144.423 96.3568 143.943 97.2891C143.464 98.2161 142.782 98.9401 141.896 99.4609C141.016 99.9766 139.969 100.234 138.756 100.234ZM138.771 97.6562C139.324 97.6562 139.785 97.5 140.154 97.1875C140.524 96.8698 140.803 96.4375 140.99 95.8906C141.183 95.3437 141.279 94.7214 141.279 94.0234C141.279 93.3255 141.183 92.7031 140.99 92.1562C140.803 91.6094 140.524 91.1771 140.154 90.8594C139.785 90.5417 139.324 90.3828 138.771 90.3828C138.214 90.3828 137.745 90.5417 137.365 90.8594C136.99 91.1771 136.706 91.6094 136.514 92.1562C136.326 92.7031 136.232 93.3255 136.232 94.0234C136.232 94.7214 136.326 95.3437 136.514 95.8906C136.706 96.4375 136.99 96.8698 137.365 97.1875C137.745 97.5 138.214 97.6562 138.771 97.6562Z" fill="#00BFB3"/>
</g>
<path d="M221.963 190.409C221.963 191.496 221.764 192.431 221.366 193.213C220.969 193.992 220.424 194.592 219.731 195.013C219.041 195.43 218.258 195.639 217.379 195.639C216.498 195.639 215.71 195.43 215.018 195.013C214.328 194.592 213.785 193.99 213.387 193.208C212.989 192.426 212.79 191.493 212.79 190.409C212.79 189.322 212.989 188.389 213.387 187.61C213.785 186.828 214.328 186.228 215.018 185.81C215.71 185.389 216.498 185.179 217.379 185.179C218.258 185.179 219.041 185.389 219.731 185.81C220.424 186.228 220.969 186.828 221.366 187.61C221.764 188.389 221.963 189.322 221.963 190.409ZM220.442 190.409C220.442 189.58 220.308 188.883 220.039 188.316C219.774 187.746 219.409 187.315 218.945 187.023C218.485 186.728 217.963 186.581 217.379 186.581C216.793 186.581 216.269 186.728 215.808 187.023C215.348 187.315 214.983 187.746 214.714 188.316C214.449 188.883 214.317 189.58 214.317 190.409C214.317 191.238 214.449 191.937 214.714 192.507C214.983 193.074 215.348 193.505 215.808 193.8C216.269 194.091 216.793 194.237 217.379 194.237C217.963 194.237 218.485 194.091 218.945 193.8C219.409 193.505 219.774 193.074 220.039 192.507C220.308 191.937 220.442 191.238 220.442 190.409ZM227.324 187.864V189.057H223.153V187.864H227.324ZM224.271 186.034H225.758V193.258C225.758 193.546 225.801 193.763 225.887 193.909C225.973 194.052 226.084 194.149 226.22 194.202C226.359 194.252 226.51 194.277 226.672 194.277C226.792 194.277 226.896 194.269 226.986 194.252C227.075 194.236 227.145 194.222 227.194 194.212L227.463 195.44C227.377 195.473 227.254 195.507 227.095 195.54C226.936 195.576 226.737 195.596 226.498 195.599C226.107 195.606 225.743 195.536 225.405 195.391C225.067 195.245 224.793 195.019 224.584 194.714C224.376 194.41 224.271 194.027 224.271 193.566V186.034ZM230.619 190.966V195.5H229.132V185.318H230.599V189.107H230.693C230.872 188.696 231.146 188.369 231.513 188.127C231.881 187.885 232.362 187.764 232.955 187.764C233.479 187.764 233.936 187.872 234.327 188.087C234.722 188.303 235.027 188.624 235.242 189.052C235.461 189.476 235.57 190.006 235.57 190.643V195.5H234.084V190.822C234.084 190.262 233.94 189.827 233.651 189.519C233.363 189.208 232.962 189.052 232.448 189.052C232.097 189.052 231.782 189.126 231.504 189.276C231.228 189.425 231.011 189.643 230.852 189.932C230.696 190.217 230.619 190.562 230.619 190.966ZM240.845 195.654C240.093 195.654 239.445 195.493 238.901 195.172C238.361 194.847 237.943 194.391 237.648 193.805C237.357 193.215 237.211 192.524 237.211 191.732C237.211 190.949 237.357 190.26 237.648 189.663C237.943 189.067 238.354 188.601 238.881 188.266C239.412 187.932 240.031 187.764 240.741 187.764C241.172 187.764 241.589 187.835 241.994 187.978C242.398 188.121 242.761 188.344 243.082 188.649C243.404 188.954 243.657 189.35 243.843 189.837C244.029 190.321 244.121 190.91 244.121 191.602V192.129H238.051V191.016H242.665C242.665 190.625 242.585 190.278 242.426 189.977C242.267 189.672 242.043 189.431 241.755 189.256C241.47 189.08 241.135 188.992 240.751 188.992C240.333 188.992 239.969 189.095 239.657 189.3C239.349 189.503 239.11 189.768 238.941 190.096C238.775 190.421 238.692 190.774 238.692 191.155V192.025C238.692 192.535 238.782 192.969 238.961 193.327C239.143 193.685 239.397 193.959 239.722 194.148C240.046 194.333 240.426 194.426 240.86 194.426C241.142 194.426 241.399 194.386 241.631 194.307C241.863 194.224 242.063 194.101 242.232 193.939C242.401 193.777 242.531 193.576 242.62 193.337L244.027 193.591C243.914 194.005 243.712 194.368 243.42 194.68C243.132 194.988 242.769 195.228 242.332 195.401C241.897 195.57 241.402 195.654 240.845 195.654ZM245.771 195.5V187.864H247.208V189.077H247.287C247.426 188.666 247.672 188.343 248.023 188.107C248.378 187.869 248.779 187.749 249.226 187.749C249.319 187.749 249.428 187.753 249.554 187.759C249.683 187.766 249.785 187.774 249.857 187.784V189.206C249.798 189.189 249.692 189.171 249.539 189.151C249.387 189.128 249.234 189.116 249.082 189.116C248.731 189.116 248.417 189.191 248.142 189.34C247.87 189.486 247.655 189.69 247.496 189.952C247.337 190.21 247.257 190.505 247.257 190.837V195.5H245.771ZM257.071 195.669C256.587 195.669 256.15 195.58 255.759 195.401C255.368 195.218 255.058 194.955 254.829 194.61C254.604 194.265 254.491 193.843 254.491 193.342C254.491 192.911 254.574 192.557 254.74 192.278C254.905 192 255.129 191.78 255.411 191.617C255.692 191.455 256.007 191.332 256.355 191.249C256.703 191.166 257.058 191.103 257.419 191.06C257.877 191.007 258.248 190.964 258.533 190.931C258.818 190.895 259.025 190.837 259.154 190.757C259.284 190.678 259.348 190.548 259.348 190.369V190.335C259.348 189.9 259.226 189.564 258.98 189.325C258.738 189.087 258.377 188.967 257.896 188.967C257.396 188.967 257.002 189.078 256.713 189.3C256.428 189.519 256.231 189.763 256.122 190.031L254.725 189.713C254.89 189.249 255.132 188.875 255.45 188.589C255.772 188.301 256.142 188.092 256.559 187.963C256.977 187.83 257.416 187.764 257.877 187.764C258.182 187.764 258.505 187.801 258.846 187.874C259.191 187.943 259.512 188.072 259.811 188.261C260.112 188.45 260.359 188.72 260.551 189.072C260.744 189.42 260.84 189.872 260.84 190.429V195.5H259.388V194.456H259.328C259.232 194.648 259.088 194.837 258.896 195.023C258.704 195.208 258.457 195.362 258.155 195.485C257.853 195.608 257.492 195.669 257.071 195.669ZM257.394 194.476C257.805 194.476 258.157 194.395 258.448 194.232C258.743 194.07 258.967 193.858 259.119 193.596C259.275 193.331 259.353 193.047 259.353 192.746V191.761C259.3 191.814 259.197 191.864 259.045 191.911C258.896 191.954 258.725 191.992 258.533 192.025C258.341 192.055 258.153 192.083 257.971 192.109C257.789 192.133 257.636 192.152 257.514 192.169C257.225 192.205 256.962 192.267 256.723 192.353C256.488 192.439 256.299 192.563 256.156 192.726C256.017 192.885 255.948 193.097 255.948 193.362C255.948 193.73 256.084 194.009 256.355 194.197C256.627 194.383 256.973 194.476 257.394 194.476ZM266.036 195.654C265.297 195.654 264.661 195.487 264.127 195.152C263.597 194.814 263.189 194.348 262.904 193.755C262.619 193.162 262.477 192.482 262.477 191.717C262.477 190.941 262.622 190.257 262.914 189.663C263.206 189.067 263.617 188.601 264.147 188.266C264.677 187.932 265.302 187.764 266.021 187.764C266.601 187.764 267.118 187.872 267.572 188.087C268.027 188.299 268.393 188.598 268.671 188.982C268.953 189.367 269.12 189.816 269.173 190.33H267.727C267.647 189.972 267.465 189.663 267.18 189.405C266.898 189.146 266.52 189.017 266.046 189.017C265.632 189.017 265.269 189.126 264.957 189.345C264.649 189.561 264.409 189.869 264.237 190.27C264.064 190.668 263.978 191.138 263.978 191.682C263.978 192.239 264.063 192.719 264.232 193.124C264.401 193.528 264.639 193.841 264.947 194.063C265.259 194.285 265.625 194.396 266.046 194.396C266.328 194.396 266.583 194.345 266.812 194.242C267.044 194.136 267.238 193.985 267.393 193.79C267.553 193.594 267.664 193.359 267.727 193.084H269.173C269.12 193.578 268.96 194.018 268.691 194.406C268.423 194.794 268.063 195.099 267.612 195.321C267.165 195.543 266.639 195.654 266.036 195.654ZM274.328 187.864V189.057H270.156V187.864H274.328ZM271.275 186.034H272.762V193.258C272.762 193.546 272.805 193.763 272.891 193.909C272.977 194.052 273.088 194.149 273.224 194.202C273.363 194.252 273.514 194.277 273.676 194.277C273.796 194.277 273.9 194.269 273.99 194.252C274.079 194.236 274.149 194.222 274.198 194.212L274.467 195.44C274.381 195.473 274.258 195.507 274.099 195.54C273.94 195.576 273.741 195.596 273.502 195.599C273.111 195.606 272.747 195.536 272.409 195.391C272.07 195.245 271.797 195.019 271.588 194.714C271.379 194.41 271.275 194.027 271.275 193.566V186.034ZM275.972 195.5V187.864H277.458V195.5H275.972ZM276.723 186.685C276.464 186.685 276.242 186.599 276.056 186.427C275.874 186.251 275.783 186.042 275.783 185.8C275.783 185.555 275.874 185.346 276.056 185.174C276.242 184.998 276.464 184.911 276.723 184.911C276.981 184.911 277.202 184.998 277.384 185.174C277.569 185.346 277.662 185.555 277.662 185.8C277.662 186.042 277.569 186.251 277.384 186.427C277.202 186.599 276.981 186.685 276.723 186.685ZM282.675 195.654C281.959 195.654 281.334 195.49 280.801 195.162C280.267 194.834 279.853 194.375 279.558 193.785C279.263 193.195 279.115 192.505 279.115 191.717C279.115 190.924 279.263 190.232 279.558 189.638C279.853 189.045 280.267 188.585 280.801 188.256C281.334 187.928 281.959 187.764 282.675 187.764C283.391 187.764 284.016 187.928 284.549 188.256C285.083 188.585 285.497 189.045 285.792 189.638C286.087 190.232 286.235 190.924 286.235 191.717C286.235 192.505 286.087 193.195 285.792 193.785C285.497 194.375 285.083 194.834 284.549 195.162C284.016 195.49 283.391 195.654 282.675 195.654ZM282.68 194.406C283.144 194.406 283.528 194.284 283.833 194.038C284.138 193.793 284.364 193.467 284.509 193.059C284.659 192.651 284.733 192.202 284.733 191.712C284.733 191.224 284.659 190.777 284.509 190.369C284.364 189.958 284.138 189.629 283.833 189.38C283.528 189.131 283.144 189.007 282.68 189.007C282.213 189.007 281.825 189.131 281.517 189.38C281.212 189.629 280.985 189.958 280.835 190.369C280.69 190.777 280.617 191.224 280.617 191.712C280.617 192.202 280.69 192.651 280.835 193.059C280.985 193.467 281.212 193.793 281.517 194.038C281.825 194.284 282.213 194.406 282.68 194.406ZM289.38 190.966V195.5H287.894V187.864H289.321V189.107H289.415C289.591 188.702 289.866 188.377 290.24 188.132C290.618 187.887 291.094 187.764 291.667 187.764C292.188 187.764 292.643 187.874 293.034 188.092C293.426 188.308 293.729 188.629 293.944 189.057C294.16 189.484 294.267 190.013 294.267 190.643V195.5H292.781V190.822C292.781 190.268 292.637 189.836 292.348 189.524C292.06 189.209 291.664 189.052 291.16 189.052C290.815 189.052 290.509 189.126 290.24 189.276C289.975 189.425 289.765 189.643 289.609 189.932C289.457 190.217 289.38 190.562 289.38 190.966Z" fill="#005EC4"/>
<rect x="312" y="170" width="142" height="40" rx="6" fill="#CCE4F5"/>
<path d="M330.672 187.992C330.619 187.522 330.4 187.157 330.016 186.899C329.631 186.637 329.147 186.506 328.564 186.506C328.146 186.506 327.785 186.572 327.48 186.705C327.175 186.834 326.938 187.013 326.769 187.242C326.603 187.467 326.521 187.724 326.521 188.012C326.521 188.254 326.577 188.463 326.69 188.639C326.806 188.814 326.956 188.962 327.142 189.081C327.331 189.197 327.533 189.295 327.749 189.375C327.964 189.451 328.171 189.514 328.37 189.563L329.364 189.822C329.689 189.902 330.022 190.009 330.364 190.145C330.705 190.281 331.022 190.46 331.313 190.682C331.605 190.904 331.84 191.179 332.019 191.507C332.201 191.835 332.293 192.228 332.293 192.686C332.293 193.262 332.143 193.774 331.845 194.222C331.55 194.669 331.121 195.022 330.558 195.281C329.997 195.539 329.32 195.669 328.524 195.669C327.762 195.669 327.102 195.548 326.545 195.306C325.989 195.064 325.553 194.721 325.238 194.277C324.923 193.829 324.749 193.299 324.716 192.686H326.257C326.287 193.053 326.406 193.36 326.615 193.605C326.827 193.847 327.097 194.028 327.425 194.147C327.757 194.263 328.12 194.321 328.514 194.321C328.948 194.321 329.335 194.253 329.673 194.117C330.014 193.978 330.282 193.786 330.478 193.541C330.674 193.292 330.771 193.002 330.771 192.671C330.771 192.369 330.685 192.122 330.513 191.93C330.344 191.738 330.113 191.579 329.822 191.453C329.533 191.327 329.207 191.216 328.842 191.12L327.639 190.791C326.824 190.569 326.178 190.243 325.7 189.812C325.226 189.381 324.989 188.811 324.989 188.102C324.989 187.515 325.148 187.003 325.467 186.566C325.785 186.128 326.216 185.788 326.759 185.546C327.303 185.301 327.916 185.178 328.599 185.178C329.288 185.178 329.896 185.299 330.423 185.541C330.954 185.783 331.371 186.116 331.676 186.541C331.981 186.962 332.14 187.446 332.153 187.992H330.672ZM337.3 195.654C336.548 195.654 335.9 195.493 335.356 195.171C334.816 194.847 334.398 194.391 334.104 193.804C333.812 193.214 333.666 192.523 333.666 191.731C333.666 190.949 333.812 190.259 334.104 189.663C334.398 189.066 334.809 188.601 335.336 188.266C335.867 187.931 336.487 187.764 337.196 187.764C337.627 187.764 338.044 187.835 338.449 187.977C338.853 188.12 339.216 188.344 339.537 188.649C339.859 188.954 340.113 189.35 340.298 189.837C340.484 190.321 340.577 190.909 340.577 191.602V192.129H334.506V191.015H339.12C339.12 190.624 339.04 190.278 338.881 189.976C338.722 189.671 338.498 189.431 338.21 189.255C337.925 189.08 337.59 188.992 337.206 188.992C336.788 188.992 336.424 189.094 336.112 189.3C335.804 189.502 335.565 189.767 335.396 190.095C335.23 190.42 335.148 190.773 335.148 191.154V192.024C335.148 192.535 335.237 192.969 335.416 193.327C335.598 193.685 335.852 193.958 336.177 194.147C336.501 194.333 336.881 194.426 337.315 194.426C337.597 194.426 337.854 194.386 338.086 194.306C338.318 194.223 338.518 194.101 338.687 193.938C338.856 193.776 338.986 193.576 339.075 193.337L340.482 193.59C340.369 194.005 340.167 194.368 339.876 194.679C339.587 194.987 339.224 195.228 338.787 195.4C338.353 195.569 337.857 195.654 337.3 195.654ZM345.442 195.654C344.703 195.654 344.067 195.486 343.533 195.152C343.003 194.813 342.595 194.348 342.31 193.754C342.025 193.161 341.883 192.482 341.883 191.716C341.883 190.941 342.029 190.256 342.32 189.663C342.612 189.066 343.023 188.601 343.553 188.266C344.084 187.931 344.708 187.764 345.428 187.764C346.008 187.764 346.525 187.871 346.979 188.087C347.433 188.299 347.799 188.597 348.077 188.982C348.359 189.366 348.527 189.815 348.58 190.329H347.133C347.053 189.971 346.871 189.663 346.586 189.404C346.304 189.146 345.926 189.017 345.452 189.017C345.038 189.017 344.675 189.126 344.364 189.345C344.055 189.56 343.815 189.868 343.643 190.269C343.47 190.667 343.384 191.138 343.384 191.681C343.384 192.238 343.469 192.719 343.638 193.123C343.807 193.527 344.045 193.841 344.354 194.063C344.665 194.285 345.031 194.396 345.452 194.396C345.734 194.396 345.989 194.344 346.218 194.242C346.45 194.136 346.644 193.985 346.8 193.789C346.959 193.594 347.07 193.358 347.133 193.083H348.58C348.527 193.577 348.366 194.018 348.097 194.406C347.829 194.794 347.469 195.098 347.018 195.321C346.571 195.543 346.046 195.654 345.442 195.654ZM353.386 195.654C352.67 195.654 352.045 195.49 351.512 195.161C350.978 194.833 350.564 194.374 350.269 193.784C349.974 193.194 349.826 192.505 349.826 191.716C349.826 190.924 349.974 190.231 350.269 189.638C350.564 189.045 350.978 188.584 351.512 188.256C352.045 187.928 352.67 187.764 353.386 187.764C354.102 187.764 354.727 187.928 355.26 188.256C355.794 188.584 356.208 189.045 356.503 189.638C356.798 190.231 356.945 190.924 356.945 191.716C356.945 192.505 356.798 193.194 356.503 193.784C356.208 194.374 355.794 194.833 355.26 195.161C354.727 195.49 354.102 195.654 353.386 195.654ZM353.391 194.406C353.855 194.406 354.239 194.283 354.544 194.038C354.849 193.793 355.075 193.466 355.22 193.058C355.369 192.651 355.444 192.202 355.444 191.711C355.444 191.224 355.369 190.777 355.22 190.369C355.075 189.958 354.849 189.628 354.544 189.379C354.239 189.131 353.855 189.007 353.391 189.007C352.923 189.007 352.536 189.131 352.227 189.379C351.923 189.628 351.695 189.958 351.546 190.369C351.401 190.777 351.328 191.224 351.328 191.711C351.328 192.202 351.401 192.651 351.546 193.058C351.695 193.466 351.923 193.793 352.227 194.038C352.536 194.283 352.923 194.406 353.391 194.406ZM360.091 190.965V195.5H358.605V187.863H360.032V189.106H360.126C360.302 188.702 360.577 188.377 360.951 188.132C361.329 187.886 361.805 187.764 362.378 187.764C362.899 187.764 363.354 187.873 363.745 188.092C364.136 188.307 364.44 188.629 364.655 189.056C364.871 189.484 364.978 190.013 364.978 190.642V195.5H363.492V190.821C363.492 190.268 363.348 189.835 363.059 189.524C362.771 189.209 362.375 189.051 361.871 189.051C361.526 189.051 361.22 189.126 360.951 189.275C360.686 189.424 360.476 189.643 360.32 189.931C360.167 190.216 360.091 190.561 360.091 190.965ZM369.831 195.649C369.214 195.649 368.664 195.491 368.18 195.176C367.699 194.858 367.322 194.406 367.047 193.819C366.775 193.229 366.639 192.522 366.639 191.696C366.639 190.871 366.776 190.165 367.051 189.578C367.33 188.992 367.711 188.543 368.195 188.231C368.679 187.919 369.227 187.764 369.841 187.764C370.315 187.764 370.696 187.843 370.984 188.002C371.276 188.158 371.501 188.34 371.66 188.549C371.823 188.758 371.949 188.942 372.038 189.101H372.127V185.318H373.614V195.5H372.162V194.311H372.038C371.949 194.474 371.819 194.659 371.65 194.868C371.484 195.077 371.256 195.259 370.964 195.415C370.672 195.571 370.295 195.649 369.831 195.649ZM370.159 194.381C370.586 194.381 370.948 194.268 371.243 194.043C371.541 193.814 371.766 193.498 371.919 193.093C372.074 192.689 372.152 192.218 372.152 191.681C372.152 191.151 372.076 190.687 371.924 190.289C371.771 189.892 371.547 189.582 371.252 189.36C370.958 189.138 370.593 189.027 370.159 189.027C369.711 189.027 369.338 189.143 369.04 189.375C368.742 189.607 368.516 189.923 368.364 190.324C368.215 190.725 368.14 191.178 368.14 191.681C368.14 192.192 368.217 192.651 368.369 193.058C368.521 193.466 368.747 193.789 369.045 194.028C369.347 194.263 369.718 194.381 370.159 194.381ZM377.958 195.669C377.474 195.669 377.037 195.579 376.645 195.4C376.254 195.218 375.944 194.954 375.716 194.61C375.49 194.265 375.378 193.842 375.378 193.342C375.378 192.911 375.461 192.556 375.626 192.278C375.792 192 376.016 191.779 376.297 191.617C376.579 191.454 376.894 191.332 377.242 191.249C377.59 191.166 377.945 191.103 378.306 191.06C378.763 191.007 379.135 190.964 379.42 190.931C379.705 190.894 379.912 190.836 380.041 190.757C380.17 190.677 380.235 190.548 380.235 190.369V190.334C380.235 189.9 380.112 189.563 379.867 189.325C379.625 189.086 379.264 188.967 378.783 188.967C378.283 188.967 377.888 189.078 377.6 189.3C377.315 189.519 377.118 189.762 377.008 190.031L375.611 189.713C375.777 189.249 376.019 188.874 376.337 188.589C376.659 188.301 377.028 188.092 377.446 187.963C377.863 187.83 378.303 187.764 378.763 187.764C379.068 187.764 379.391 187.8 379.733 187.873C380.077 187.943 380.399 188.072 380.697 188.261C380.999 188.45 381.246 188.72 381.438 189.071C381.63 189.419 381.726 189.872 381.726 190.428V195.5H380.275V194.455H380.215C380.119 194.648 379.975 194.837 379.782 195.022C379.59 195.208 379.343 195.362 379.042 195.485C378.74 195.607 378.379 195.669 377.958 195.669ZM378.281 194.475C378.692 194.475 379.043 194.394 379.335 194.232C379.63 194.069 379.854 193.857 380.006 193.595C380.162 193.33 380.24 193.047 380.24 192.745V191.761C380.187 191.814 380.084 191.864 379.932 191.91C379.782 191.953 379.612 191.991 379.42 192.024C379.227 192.054 379.04 192.082 378.858 192.109C378.675 192.132 378.523 192.152 378.4 192.169C378.112 192.205 377.849 192.266 377.61 192.352C377.375 192.439 377.186 192.563 377.043 192.725C376.904 192.884 376.834 193.097 376.834 193.362C376.834 193.73 376.97 194.008 377.242 194.197C377.514 194.383 377.86 194.475 378.281 194.475ZM383.706 195.5V187.863H385.143V189.076H385.223C385.362 188.665 385.607 188.342 385.958 188.107C386.313 187.868 386.714 187.749 387.162 187.749C387.254 187.749 387.364 187.752 387.49 187.759C387.619 187.765 387.72 187.774 387.793 187.784V189.205C387.733 189.189 387.627 189.171 387.475 189.151C387.322 189.128 387.17 189.116 387.017 189.116C386.666 189.116 386.353 189.191 386.078 189.34C385.806 189.486 385.591 189.689 385.431 189.951C385.272 190.21 385.193 190.505 385.193 190.836V195.5H383.706ZM390.251 198.363C390.029 198.363 389.827 198.345 389.645 198.308C389.463 198.275 389.327 198.239 389.237 198.199L389.595 196.981C389.867 197.054 390.109 197.085 390.321 197.076C390.533 197.066 390.72 196.986 390.883 196.837C391.049 196.688 391.194 196.444 391.32 196.106L391.504 195.599L388.71 187.863H390.301L392.235 193.789H392.315L394.249 187.863H395.844L392.697 196.519C392.552 196.916 392.366 197.253 392.141 197.528C391.915 197.806 391.647 198.015 391.335 198.154C391.024 198.294 390.662 198.363 390.251 198.363ZM403.169 195.669C402.685 195.669 402.247 195.579 401.856 195.4C401.465 195.218 401.155 194.954 400.927 194.61C400.701 194.265 400.589 193.842 400.589 193.342C400.589 192.911 400.671 192.556 400.837 192.278C401.003 192 401.227 191.779 401.508 191.617C401.79 191.454 402.105 191.332 402.453 191.249C402.801 191.166 403.156 191.103 403.517 191.06C403.974 191.007 404.345 190.964 404.631 190.931C404.916 190.894 405.123 190.836 405.252 190.757C405.381 190.677 405.446 190.548 405.446 190.369V190.334C405.446 189.9 405.323 189.563 405.078 189.325C404.836 189.086 404.475 188.967 403.994 188.967C403.494 188.967 403.099 189.078 402.811 189.3C402.526 189.519 402.329 189.762 402.219 190.031L400.822 189.713C400.988 189.249 401.23 188.874 401.548 188.589C401.87 188.301 402.239 188.092 402.657 187.963C403.074 187.83 403.514 187.764 403.974 187.764C404.279 187.764 404.602 187.8 404.944 187.873C405.288 187.943 405.61 188.072 405.908 188.261C406.21 188.45 406.457 188.72 406.649 189.071C406.841 189.419 406.937 189.872 406.937 190.428V195.5H405.486V194.455H405.426C405.33 194.648 405.186 194.837 404.993 195.022C404.801 195.208 404.554 195.362 404.253 195.485C403.951 195.607 403.59 195.669 403.169 195.669ZM403.492 194.475C403.903 194.475 404.254 194.394 404.546 194.232C404.841 194.069 405.065 193.857 405.217 193.595C405.373 193.33 405.451 193.047 405.451 192.745V191.761C405.398 191.814 405.295 191.864 405.143 191.91C404.993 191.953 404.823 191.991 404.631 192.024C404.438 192.054 404.251 192.082 404.069 192.109C403.886 192.132 403.734 192.152 403.611 192.169C403.323 192.205 403.059 192.266 402.821 192.352C402.586 192.439 402.397 192.563 402.254 192.725C402.115 192.884 402.045 193.097 402.045 193.362C402.045 193.73 402.181 194.008 402.453 194.197C402.725 194.383 403.071 194.475 403.492 194.475ZM412.134 195.654C411.395 195.654 410.758 195.486 410.225 195.152C409.694 194.813 409.287 194.348 409.002 193.754C408.717 193.161 408.574 192.482 408.574 191.716C408.574 190.941 408.72 190.256 409.012 189.663C409.303 189.066 409.714 188.601 410.245 188.266C410.775 187.931 411.4 187.764 412.119 187.764C412.699 187.764 413.216 187.871 413.67 188.087C414.124 188.299 414.49 188.597 414.769 188.982C415.051 189.366 415.218 189.815 415.271 190.329H413.824C413.745 189.971 413.562 189.663 413.277 189.404C412.996 189.146 412.618 189.017 412.144 189.017C411.73 189.017 411.367 189.126 411.055 189.345C410.747 189.56 410.507 189.868 410.334 190.269C410.162 190.667 410.076 191.138 410.076 191.681C410.076 192.238 410.16 192.719 410.329 193.123C410.498 193.527 410.737 193.841 411.045 194.063C411.357 194.285 411.723 194.396 412.144 194.396C412.426 194.396 412.681 194.344 412.909 194.242C413.141 194.136 413.335 193.985 413.491 193.789C413.65 193.594 413.761 193.358 413.824 193.083H415.271C415.218 193.577 415.057 194.018 414.789 194.406C414.52 194.794 414.161 195.098 413.71 195.321C413.262 195.543 412.737 195.654 412.134 195.654ZM420.425 187.863V189.056H416.254V187.863H420.425ZM417.373 186.034H418.859V193.257C418.859 193.546 418.902 193.763 418.988 193.909C419.075 194.051 419.186 194.149 419.322 194.202C419.461 194.252 419.612 194.277 419.774 194.277C419.893 194.277 419.998 194.268 420.087 194.252C420.177 194.235 420.246 194.222 420.296 194.212L420.564 195.44C420.478 195.473 420.356 195.506 420.197 195.539C420.037 195.576 419.839 195.596 419.6 195.599C419.209 195.606 418.844 195.536 418.506 195.39C418.168 195.244 417.895 195.019 417.686 194.714C417.477 194.409 417.373 194.026 417.373 193.566V186.034ZM422.07 195.5V187.863H423.556V195.5H422.07ZM422.82 186.685C422.562 186.685 422.34 186.599 422.154 186.426C421.972 186.251 421.881 186.042 421.881 185.8C421.881 185.555 421.972 185.346 422.154 185.174C422.34 184.998 422.562 184.91 422.82 184.91C423.079 184.91 423.299 184.998 423.482 185.174C423.667 185.346 423.76 185.555 423.76 185.8C423.76 186.042 423.667 186.251 423.482 186.426C423.299 186.599 423.079 186.685 422.82 186.685ZM428.773 195.654C428.057 195.654 427.432 195.49 426.898 195.161C426.365 194.833 425.95 194.374 425.655 193.784C425.36 193.194 425.213 192.505 425.213 191.716C425.213 190.924 425.36 190.231 425.655 189.638C425.95 189.045 426.365 188.584 426.898 188.256C427.432 187.928 428.057 187.764 428.773 187.764C429.488 187.764 430.113 187.928 430.647 188.256C431.18 188.584 431.595 189.045 431.89 189.638C432.185 190.231 432.332 190.924 432.332 191.716C432.332 192.505 432.185 193.194 431.89 193.784C431.595 194.374 431.18 194.833 430.647 195.161C430.113 195.49 429.488 195.654 428.773 195.654ZM428.778 194.406C429.242 194.406 429.626 194.283 429.931 194.038C430.236 193.793 430.461 193.466 430.607 193.058C430.756 192.651 430.831 192.202 430.831 191.711C430.831 191.224 430.756 190.777 430.607 190.369C430.461 189.958 430.236 189.628 429.931 189.379C429.626 189.131 429.242 189.007 428.778 189.007C428.31 189.007 427.922 189.131 427.614 189.379C427.309 189.628 427.082 189.958 426.933 190.369C426.787 190.777 426.714 191.224 426.714 191.711C426.714 192.202 426.787 192.651 426.933 193.058C427.082 193.466 427.309 193.793 427.614 194.038C427.922 194.283 428.31 194.406 428.778 194.406ZM435.478 190.965V195.5H433.991V187.863H435.418V189.106H435.513C435.688 188.702 435.964 188.377 436.338 188.132C436.716 187.886 437.192 187.764 437.765 187.764C438.285 187.764 438.741 187.873 439.132 188.092C439.523 188.307 439.826 188.629 440.042 189.056C440.257 189.484 440.365 190.013 440.365 190.642V195.5H438.879V190.821C438.879 190.268 438.734 189.835 438.446 189.524C438.158 189.209 437.762 189.051 437.258 189.051C436.913 189.051 436.607 189.126 436.338 189.275C436.073 189.424 435.862 189.643 435.707 189.931C435.554 190.216 435.478 190.561 435.478 190.965Z" fill="#005EC4"/>
<rect x="462" y="170" width="112" height="40" rx="6" fill="#0077CC"/>
<path d="M489.172 187.992C489.119 187.522 488.9 187.157 488.516 186.899C488.131 186.637 487.647 186.506 487.064 186.506C486.646 186.506 486.285 186.572 485.98 186.705C485.675 186.834 485.438 187.013 485.269 187.242C485.103 187.467 485.021 187.724 485.021 188.012C485.021 188.254 485.077 188.463 485.19 188.639C485.306 188.814 485.456 188.962 485.642 189.081C485.831 189.197 486.033 189.295 486.249 189.375C486.464 189.451 486.671 189.514 486.87 189.563L487.864 189.822C488.189 189.902 488.522 190.009 488.864 190.145C489.205 190.281 489.522 190.46 489.813 190.682C490.105 190.904 490.34 191.179 490.519 191.507C490.701 191.835 490.793 192.228 490.793 192.686C490.793 193.262 490.643 193.774 490.345 194.222C490.05 194.669 489.621 195.022 489.058 195.281C488.497 195.539 487.82 195.669 487.024 195.669C486.262 195.669 485.602 195.548 485.045 195.306C484.489 195.064 484.053 194.721 483.738 194.277C483.423 193.829 483.249 193.299 483.216 192.686H484.757C484.787 193.053 484.906 193.36 485.115 193.605C485.327 193.847 485.597 194.028 485.925 194.147C486.257 194.263 486.62 194.321 487.014 194.321C487.448 194.321 487.835 194.253 488.173 194.117C488.514 193.978 488.782 193.786 488.978 193.541C489.174 193.292 489.271 193.002 489.271 192.671C489.271 192.369 489.185 192.122 489.013 191.93C488.844 191.738 488.613 191.579 488.322 191.453C488.033 191.327 487.707 191.216 487.342 191.12L486.139 190.791C485.324 190.569 484.678 190.243 484.2 189.812C483.726 189.381 483.489 188.811 483.489 188.102C483.489 187.515 483.648 187.003 483.967 186.566C484.285 186.128 484.716 185.788 485.259 185.546C485.803 185.301 486.416 185.178 487.099 185.178C487.788 185.178 488.396 185.299 488.923 185.541C489.454 185.783 489.871 186.116 490.176 186.541C490.481 186.962 490.64 187.446 490.653 187.992H489.172ZM494.731 195.669C494.247 195.669 493.81 195.579 493.419 195.4C493.028 195.218 492.718 194.954 492.489 194.61C492.264 194.265 492.151 193.842 492.151 193.342C492.151 192.911 492.234 192.556 492.4 192.278C492.565 192 492.789 191.779 493.071 191.617C493.353 191.454 493.667 191.332 494.015 191.249C494.363 191.166 494.718 191.103 495.079 191.06C495.537 191.007 495.908 190.964 496.193 190.931C496.478 190.894 496.685 190.836 496.814 190.757C496.944 190.677 497.008 190.548 497.008 190.369V190.334C497.008 189.9 496.886 189.563 496.64 189.325C496.398 189.086 496.037 188.967 495.557 188.967C495.056 188.967 494.662 189.078 494.373 189.3C494.088 189.519 493.891 189.762 493.782 190.031L492.385 189.713C492.55 189.249 492.792 188.874 493.111 188.589C493.432 188.301 493.802 188.092 494.219 187.963C494.637 187.83 495.076 187.764 495.537 187.764C495.842 187.764 496.165 187.8 496.506 187.873C496.851 187.943 497.172 188.072 497.471 188.261C497.772 188.45 498.019 188.72 498.211 189.071C498.404 189.419 498.5 189.872 498.5 190.428V195.5H497.048V194.455H496.988C496.892 194.648 496.748 194.837 496.556 195.022C496.364 195.208 496.117 195.362 495.815 195.485C495.514 195.607 495.152 195.669 494.731 195.669ZM495.055 194.475C495.465 194.475 495.817 194.394 496.108 194.232C496.403 194.069 496.627 193.857 496.78 193.595C496.935 193.33 497.013 193.047 497.013 192.745V191.761C496.96 191.814 496.858 191.864 496.705 191.91C496.556 191.953 496.385 191.991 496.193 192.024C496.001 192.054 495.814 192.082 495.631 192.109C495.449 192.132 495.296 192.152 495.174 192.169C494.885 192.205 494.622 192.266 494.383 192.352C494.148 192.439 493.959 192.563 493.817 192.725C493.677 192.884 493.608 193.097 493.608 193.362C493.608 193.73 493.744 194.008 494.015 194.197C494.287 194.383 494.634 194.475 495.055 194.475ZM506.739 187.863L503.97 195.5H502.379L499.605 187.863H501.201L503.135 193.74H503.214L505.143 187.863H506.739ZM511.167 195.654C510.415 195.654 509.767 195.493 509.224 195.171C508.683 194.847 508.266 194.391 507.971 193.804C507.679 193.214 507.533 192.523 507.533 191.731C507.533 190.949 507.679 190.259 507.971 189.663C508.266 189.066 508.677 188.601 509.204 188.266C509.734 187.931 510.354 187.764 511.063 187.764C511.494 187.764 511.912 187.835 512.316 187.977C512.72 188.12 513.083 188.344 513.405 188.649C513.726 188.954 513.98 189.35 514.165 189.837C514.351 190.321 514.444 190.909 514.444 191.602V192.129H508.373V191.015H512.987C512.987 190.624 512.907 190.278 512.748 189.976C512.589 189.671 512.366 189.431 512.077 189.255C511.792 189.08 511.457 188.992 511.073 188.992C510.655 188.992 510.291 189.094 509.979 189.3C509.671 189.502 509.432 189.767 509.263 190.095C509.098 190.42 509.015 190.773 509.015 191.154V192.024C509.015 192.535 509.104 192.969 509.283 193.327C509.465 193.685 509.719 193.958 510.044 194.147C510.369 194.333 510.748 194.426 511.182 194.426C511.464 194.426 511.721 194.386 511.953 194.306C512.185 194.223 512.385 194.101 512.555 193.938C512.724 193.776 512.853 193.576 512.942 193.337L514.349 193.59C514.237 194.005 514.034 194.368 513.743 194.679C513.454 194.987 513.091 195.228 512.654 195.4C512.22 195.569 511.724 195.654 511.167 195.654ZM523.363 187.863V189.056H519.192V187.863H523.363ZM520.31 186.034H521.797V193.257C521.797 193.546 521.84 193.763 521.926 193.909C522.012 194.051 522.123 194.149 522.259 194.202C522.398 194.252 522.549 194.277 522.711 194.277C522.831 194.277 522.935 194.268 523.025 194.252C523.114 194.235 523.184 194.222 523.233 194.212L523.502 195.44C523.416 195.473 523.293 195.506 523.134 195.539C522.975 195.576 522.776 195.596 522.537 195.599C522.146 195.606 521.782 195.536 521.444 195.39C521.106 195.244 520.832 195.019 520.623 194.714C520.415 194.409 520.31 194.026 520.31 193.566V186.034ZM526.658 190.965V195.5H525.171V185.318H526.638V189.106H526.732C526.911 188.695 527.185 188.369 527.553 188.127C527.92 187.885 528.401 187.764 528.994 187.764C529.518 187.764 529.975 187.871 530.366 188.087C530.761 188.302 531.066 188.624 531.281 189.051C531.5 189.476 531.609 190.006 531.609 190.642V195.5H530.123V190.821C530.123 190.261 529.979 189.827 529.69 189.519C529.402 189.207 529.001 189.051 528.487 189.051C528.136 189.051 527.821 189.126 527.543 189.275C527.268 189.424 527.05 189.643 526.891 189.931C526.736 190.216 526.658 190.561 526.658 190.965ZM533.593 195.5V187.863H535.08V195.5H533.593ZM534.344 186.685C534.085 186.685 533.863 186.599 533.678 186.426C533.495 186.251 533.404 186.042 533.404 185.8C533.404 185.555 533.495 185.346 533.678 185.174C533.863 184.998 534.085 184.91 534.344 184.91C534.602 184.91 534.823 184.998 535.005 185.174C535.191 185.346 535.283 185.555 535.283 185.8C535.283 186.042 535.191 186.251 535.005 186.426C534.823 186.599 534.602 186.685 534.344 186.685ZM538.566 190.965V195.5H537.079V187.863H538.506V189.106H538.601C538.776 188.702 539.051 188.377 539.426 188.132C539.804 187.886 540.279 187.764 540.853 187.764C541.373 187.764 541.829 187.873 542.22 188.092C542.611 188.307 542.914 188.629 543.13 189.056C543.345 189.484 543.453 190.013 543.453 190.642V195.5H541.966V190.821C541.966 190.268 541.822 189.835 541.534 189.524C541.246 189.209 540.849 189.051 540.346 189.051C540.001 189.051 539.694 189.126 539.426 189.275C539.161 189.424 538.95 189.643 538.795 189.931C538.642 190.216 538.566 190.561 538.566 190.965ZM548.648 198.522C548.042 198.522 547.52 198.443 547.082 198.284C546.648 198.125 546.293 197.914 546.018 197.652C545.743 197.39 545.538 197.104 545.402 196.792L546.68 196.265C546.769 196.411 546.888 196.565 547.037 196.727C547.19 196.893 547.395 197.034 547.654 197.15C547.916 197.266 548.252 197.324 548.663 197.324C549.227 197.324 549.692 197.187 550.06 196.911C550.428 196.64 550.612 196.205 550.612 195.609V194.107H550.518C550.428 194.27 550.299 194.451 550.13 194.649C549.964 194.848 549.735 195.021 549.444 195.166C549.152 195.312 548.773 195.385 548.305 195.385C547.702 195.385 547.158 195.244 546.675 194.963C546.194 194.678 545.813 194.258 545.531 193.705C545.253 193.148 545.113 192.464 545.113 191.652C545.113 190.839 545.251 190.143 545.526 189.563C545.805 188.983 546.186 188.539 546.67 188.231C547.153 187.919 547.702 187.764 548.315 187.764C548.789 187.764 549.172 187.843 549.464 188.002C549.755 188.158 549.982 188.34 550.145 188.549C550.31 188.758 550.438 188.942 550.528 189.101H550.637V187.863H552.094V195.669C552.094 196.325 551.941 196.863 551.636 197.284C551.331 197.705 550.919 198.017 550.398 198.219C549.881 198.421 549.298 198.522 548.648 198.522ZM548.633 194.152C549.061 194.152 549.422 194.053 549.717 193.854C550.015 193.652 550.241 193.363 550.393 192.989C550.549 192.611 550.627 192.159 550.627 191.632C550.627 191.118 550.551 190.665 550.398 190.274C550.246 189.883 550.022 189.578 549.727 189.36C549.432 189.138 549.068 189.027 548.633 189.027C548.186 189.027 547.813 189.143 547.515 189.375C547.216 189.603 546.991 189.915 546.839 190.309C546.689 190.704 546.615 191.144 546.615 191.632C546.615 192.132 546.691 192.571 546.844 192.949C546.996 193.327 547.221 193.622 547.52 193.834C547.821 194.046 548.193 194.152 548.633 194.152Z" fill="white"/>
<defs>
<filter id="filter0_i_562_3874" x="40" y="40" width="720" height="240" filterUnits="userSpaceOnUse" color-interpolation-filters="sRGB">
<feFlood flood-opacity="0" result="BackgroundImageFix"/>
<feBlend mode="normal" in="SourceGraphic" in2="BackgroundImageFix" result="shape"/>
<feColorMatrix in="SourceAlpha" type="matrix" values="0 0 0 0 0 0 0 0 0 0 0 0 0 0 0 0 0 0 127 0" result="hardAlpha"/>
<feOffset dy="4"/>
<feComposite in2="hardAlpha" operator="arithmetic" k2="-1" k3="1"/>
<feColorMatrix type="matrix" values="0 0 0 0 0 0 0 0 0 0.74902 0 0 0 0 0.701961 0 0 0 1 0"/>
<feBlend mode="normal" in2="shape" result="effect1_innerShadow_562_3874"/>
</filter>
<clipPath id="clip0_562_3874">
<rect width="24" height="24" fill="white" transform="translate(80 80)"/>
</clipPath>
</defs>
</svg>
