<svg width="800" height="320" viewBox="0 0 800 320" fill="none" xmlns="http://www.w3.org/2000/svg">
<g filter="url(#filter0_i_562_3964)">
<rect width="720" height="240" transform="translate(40 40)" fill="#F7F8FC"/>
<path fill-rule="evenodd" clip-rule="evenodd" d="M95 81.5C95.3978 81.5 95.7794 81.658 96.0607 81.9393L102.061 87.9393C102.342 88.2206 102.5 88.6022 102.5 89V96.5C102.5 96.8978 102.342 97.2794 102.061 97.5607L96.0607 103.561C95.7794 103.842 95.3978 104 95 104H87.5C87.1022 104 86.7206 103.842 86.4393 103.561L80.4393 97.5607C80.158 97.2794 80 96.8978 80 96.5V89C80 88.6022 80.158 88.2206 80.4393 87.9393L86.4393 81.9393C86.7206 81.658 87.1022 81.5 87.5 81.5H95ZM86.2197 87.7197C86.5126 87.4268 86.9874 87.4268 87.2803 87.7197L91.25 91.6893L95.2197 87.7197C95.5126 87.4268 95.9874 87.4268 96.2803 87.7197C96.5732 88.0126 96.5732 88.4874 96.2803 88.7803L92.3107 92.75L96.2803 96.7197C96.5732 97.0126 96.5732 97.4874 96.2803 97.7803C95.9874 98.0732 95.5126 98.0732 95.2197 97.7803L91.25 93.8107L87.2803 97.7803C86.9874 98.0732 86.5126 98.0732 86.2197 97.7803C85.9268 97.4874 85.9268 97.0126 86.2197 96.7197L90.1893 92.75L86.2197 88.7803C85.9268 88.4874 85.9268 88.0126 86.2197 87.7197Z" fill="#BD271E"/>
<path d="M123.063 100H117.391V84H123.109C124.719 84 126.104 84.3203 127.266 84.9609C128.427 85.5964 129.32 86.5104 129.945 87.7031C130.576 88.8958 130.891 90.3229 130.891 91.9844C130.891 93.651 130.576 95.0833 129.945 96.2812C129.32 97.4792 128.422 98.3984 127.25 99.0391C126.083 99.6797 124.688 100 123.063 100ZM120.773 97.1016H122.922C123.922 97.1016 124.763 96.9245 125.445 96.5703C126.133 96.2109 126.648 95.6562 126.992 94.9062C127.341 94.151 127.516 93.1771 127.516 91.9844C127.516 90.8021 127.341 89.8359 126.992 89.0859C126.648 88.3359 126.135 87.7839 125.453 87.4297C124.771 87.0755 123.93 86.8984 122.93 86.8984H120.773V97.1016ZM138.756 100.234C137.542 100.234 136.493 99.9766 135.607 99.4609C134.727 98.9401 134.048 98.2161 133.568 97.2891C133.089 96.3568 132.85 95.276 132.85 94.0469C132.85 92.8073 133.089 91.724 133.568 90.7969C134.048 89.8646 134.727 89.1406 135.607 88.625C136.493 88.1042 137.542 87.8438 138.756 87.8438C139.969 87.8438 141.016 88.1042 141.896 88.625C142.782 89.1406 143.464 89.8646 143.943 90.7969C144.423 91.724 144.662 92.8073 144.662 94.0469C144.662 95.276 144.423 96.3568 143.943 97.2891C143.464 98.2161 142.782 98.9401 141.896 99.4609C141.016 99.9766 139.969 100.234 138.756 100.234ZM138.771 97.6562C139.324 97.6562 139.785 97.5 140.154 97.1875C140.524 96.8698 140.803 96.4375 140.99 95.8906C141.183 95.3437 141.279 94.7214 141.279 94.0234C141.279 93.3255 141.183 92.7031 140.99 92.1562C140.803 91.6094 140.524 91.1771 140.154 90.8594C139.785 90.5417 139.324 90.3828 138.771 90.3828C138.214 90.3828 137.745 90.5417 137.365 90.8594C136.99 91.1771 136.706 91.6094 136.514 92.1562C136.326 92.7031 136.232 93.3255 136.232 94.0234C136.232 94.7214 136.326 95.3437 136.514 95.8906C136.706 96.4375 136.99 96.8698 137.365 97.1875C137.745 97.5 138.214 97.6562 138.771 97.6562ZM150.154 93.0625V100H146.826V88H149.998V90.1172H150.139C150.404 89.4193 150.85 88.8672 151.475 88.4609C152.1 88.0495 152.857 87.8438 153.748 87.8438C154.581 87.8438 155.308 88.026 155.928 88.3906C156.548 88.7552 157.029 89.276 157.373 89.9531C157.717 90.625 157.889 91.4271 157.889 92.3594V100H154.561V92.9531C154.566 92.2187 154.378 91.6458 153.998 91.2344C153.618 90.8177 153.094 90.6094 152.428 90.6094C151.98 90.6094 151.584 90.7057 151.24 90.8984C150.902 91.0911 150.636 91.3724 150.443 91.7422C150.256 92.1068 150.16 92.5469 150.154 93.0625ZM163.301 84V85.6875C163.301 86.1667 163.207 86.6562 163.02 87.1563C162.837 87.651 162.592 88.1198 162.285 88.5625C161.978 89 161.642 89.3724 161.277 89.6797L159.809 88.8125C160.069 88.401 160.298 87.9453 160.496 87.4453C160.699 86.9453 160.801 86.3646 160.801 85.7031V84H163.301ZM172.309 88V90.5H165.082V88H172.309ZM166.723 85.125H170.051V96.3125C170.051 96.6198 170.098 96.8594 170.191 97.0312C170.285 97.1979 170.415 97.3151 170.582 97.3828C170.754 97.4505 170.952 97.4844 171.176 97.4844C171.332 97.4844 171.488 97.4714 171.645 97.4453C171.801 97.4141 171.921 97.3906 172.004 97.375L172.527 99.8516C172.361 99.9036 172.126 99.9635 171.824 100.031C171.522 100.104 171.155 100.148 170.723 100.164C169.921 100.195 169.217 100.089 168.613 99.8437C168.014 99.599 167.548 99.2187 167.215 98.7031C166.882 98.1875 166.717 97.5365 166.723 96.75V85.125Z" fill="#BD271E"/>
</g>
<path d="M326.075 188.629H324.524C324.464 188.298 324.353 188.006 324.191 187.754C324.029 187.502 323.83 187.289 323.594 187.113C323.359 186.937 323.096 186.805 322.804 186.715C322.516 186.626 322.209 186.581 321.884 186.581C321.298 186.581 320.772 186.728 320.308 187.023C319.848 187.318 319.483 187.751 319.214 188.321C318.949 188.891 318.817 189.587 318.817 190.409C318.817 191.238 318.949 191.937 319.214 192.507C319.483 193.077 319.849 193.508 320.313 193.8C320.777 194.091 321.299 194.237 321.879 194.237C322.201 194.237 322.506 194.194 322.794 194.108C323.086 194.018 323.349 193.888 323.585 193.715C323.82 193.543 324.019 193.332 324.181 193.084C324.347 192.832 324.461 192.544 324.524 192.219L326.075 192.224C325.992 192.724 325.832 193.185 325.593 193.606C325.358 194.023 325.054 194.385 324.683 194.69C324.315 194.991 323.894 195.225 323.42 195.391C322.946 195.556 322.429 195.639 321.869 195.639C320.988 195.639 320.202 195.43 319.513 195.013C318.823 194.592 318.28 193.99 317.882 193.208C317.488 192.426 317.29 191.493 317.29 190.409C317.29 189.322 317.489 188.389 317.887 187.61C318.285 186.828 318.828 186.228 319.518 185.81C320.207 185.389 320.991 185.179 321.869 185.179C322.41 185.179 322.913 185.257 323.381 185.413C323.851 185.565 324.274 185.79 324.648 186.089C325.023 186.384 325.333 186.745 325.578 187.173C325.823 187.597 325.989 188.082 326.075 188.629ZM330.017 195.669C329.533 195.669 329.095 195.58 328.704 195.401C328.313 195.218 328.003 194.955 327.774 194.61C327.549 194.265 327.436 193.843 327.436 193.342C327.436 192.911 327.519 192.557 327.685 192.278C327.851 192 328.074 191.78 328.356 191.617C328.638 191.455 328.953 191.332 329.301 191.249C329.649 191.166 330.003 191.103 330.365 191.06C330.822 191.007 331.193 190.964 331.478 190.931C331.763 190.895 331.97 190.837 332.1 190.757C332.229 190.678 332.294 190.548 332.294 190.369V190.335C332.294 189.9 332.171 189.564 331.926 189.325C331.684 189.087 331.322 188.967 330.842 188.967C330.341 188.967 329.947 189.078 329.659 189.3C329.374 189.519 329.176 189.763 329.067 190.031L327.67 189.713C327.836 189.249 328.078 188.875 328.396 188.589C328.717 188.301 329.087 188.092 329.504 187.963C329.922 187.83 330.361 187.764 330.822 187.764C331.127 187.764 331.45 187.801 331.791 187.874C332.136 187.943 332.458 188.072 332.756 188.261C333.057 188.45 333.304 188.72 333.497 189.072C333.689 189.42 333.785 189.872 333.785 190.429V195.5H332.333V194.456H332.274C332.177 194.648 332.033 194.837 331.841 195.023C331.649 195.208 331.402 195.362 331.1 195.485C330.799 195.608 330.437 195.669 330.017 195.669ZM330.34 194.476C330.751 194.476 331.102 194.395 331.394 194.232C331.689 194.07 331.912 193.858 332.065 193.596C332.221 193.331 332.298 193.047 332.298 192.746V191.761C332.245 191.814 332.143 191.864 331.99 191.911C331.841 191.954 331.67 191.992 331.478 192.025C331.286 192.055 331.099 192.083 330.916 192.109C330.734 192.133 330.582 192.152 330.459 192.169C330.171 192.205 329.907 192.267 329.669 192.353C329.433 192.439 329.244 192.563 329.102 192.726C328.963 192.885 328.893 193.097 328.893 193.362C328.893 193.73 329.029 194.009 329.301 194.197C329.572 194.383 329.919 194.476 330.34 194.476ZM337.251 190.966V195.5H335.765V187.864H337.192V189.107H337.286C337.462 188.702 337.737 188.377 338.112 188.132C338.489 187.887 338.965 187.764 339.538 187.764C340.059 187.764 340.514 187.874 340.906 188.092C341.297 188.308 341.6 188.629 341.815 189.057C342.031 189.484 342.138 190.013 342.138 190.643V195.5H340.652V190.822C340.652 190.268 340.508 189.836 340.219 189.524C339.931 189.209 339.535 189.052 339.031 189.052C338.687 189.052 338.38 189.126 338.112 189.276C337.846 189.425 337.636 189.643 337.48 189.932C337.328 190.217 337.251 190.562 337.251 190.966ZM347.349 195.654C346.61 195.654 345.973 195.487 345.44 195.152C344.909 194.814 344.502 194.348 344.217 193.755C343.932 193.162 343.789 192.482 343.789 191.717C343.789 190.941 343.935 190.257 344.227 189.663C344.518 189.067 344.929 188.601 345.46 188.266C345.99 187.932 346.615 187.764 347.334 187.764C347.914 187.764 348.431 187.872 348.885 188.087C349.339 188.299 349.705 188.598 349.984 188.982C350.265 189.367 350.433 189.816 350.486 190.33H349.039C348.96 189.972 348.777 189.663 348.492 189.405C348.21 189.146 347.833 189.017 347.359 189.017C346.944 189.017 346.581 189.126 346.27 189.345C345.962 189.561 345.721 189.869 345.549 190.27C345.377 190.668 345.29 191.138 345.29 191.682C345.29 192.239 345.375 192.719 345.544 193.124C345.713 193.528 345.952 193.841 346.26 194.063C346.571 194.285 346.938 194.396 347.359 194.396C347.64 194.396 347.896 194.345 348.124 194.242C348.356 194.136 348.55 193.985 348.706 193.79C348.865 193.594 348.976 193.359 349.039 193.084H350.486C350.433 193.578 350.272 194.018 350.004 194.406C349.735 194.794 349.375 195.099 348.925 195.321C348.477 195.543 347.952 195.654 347.349 195.654ZM355.367 195.654C354.614 195.654 353.966 195.493 353.423 195.172C352.883 194.847 352.465 194.391 352.17 193.805C351.878 193.215 351.732 192.524 351.732 191.732C351.732 190.949 351.878 190.26 352.17 189.663C352.465 189.067 352.876 188.601 353.403 188.266C353.933 187.932 354.553 187.764 355.262 187.764C355.693 187.764 356.111 187.835 356.515 187.978C356.919 188.121 357.282 188.344 357.604 188.649C357.925 188.954 358.179 189.35 358.365 189.837C358.55 190.321 358.643 190.91 358.643 191.602V192.129H352.573V191.016H357.186C357.186 190.625 357.107 190.278 356.948 189.977C356.789 189.672 356.565 189.431 356.276 189.256C355.991 189.08 355.657 188.992 355.272 188.992C354.855 188.992 354.49 189.095 354.178 189.3C353.87 189.503 353.632 189.768 353.463 190.096C353.297 190.421 353.214 190.774 353.214 191.155V192.025C353.214 192.535 353.303 192.969 353.482 193.327C353.665 193.685 353.918 193.959 354.243 194.148C354.568 194.333 354.947 194.426 355.382 194.426C355.663 194.426 355.92 194.386 356.152 194.307C356.384 194.224 356.585 194.101 356.754 193.939C356.923 193.777 357.052 193.576 357.142 193.337L358.548 193.591C358.436 194.005 358.234 194.368 357.942 194.68C357.654 194.988 357.291 195.228 356.853 195.401C356.419 195.57 355.923 195.654 355.367 195.654ZM361.779 185.318V195.5H360.292V185.318H361.779Z" fill="#005EC4"/>
<rect x="379.5" y="170" width="112" height="40" rx="6" fill="#CCE4F5"/>
<path d="M417.979 195.5H416.348L420.012 185.318H421.787L425.451 195.5H423.82L420.942 187.167H420.862L417.979 195.5ZM418.252 191.512H423.542V192.805H418.252V191.512ZM426.802 198.363V187.863H428.254V189.101H428.378C428.464 188.942 428.588 188.758 428.751 188.549C428.913 188.34 429.139 188.158 429.427 188.002C429.715 187.843 430.097 187.764 430.57 187.764C431.187 187.764 431.737 187.919 432.221 188.231C432.705 188.543 433.084 188.992 433.36 189.578C433.638 190.165 433.777 190.871 433.777 191.696C433.777 192.522 433.64 193.229 433.365 193.819C433.089 194.406 432.712 194.858 432.231 195.176C431.75 195.491 431.202 195.649 430.585 195.649C430.121 195.649 429.742 195.571 429.447 195.415C429.155 195.259 428.927 195.077 428.761 194.868C428.595 194.659 428.468 194.474 428.378 194.311H428.289V198.363H426.802ZM428.259 191.681C428.259 192.218 428.337 192.689 428.492 193.093C428.648 193.498 428.874 193.814 429.169 194.043C429.463 194.268 429.825 194.381 430.252 194.381C430.696 194.381 431.068 194.263 431.366 194.028C431.664 193.789 431.89 193.466 432.042 193.058C432.198 192.651 432.276 192.192 432.276 191.681C432.276 191.178 432.2 190.725 432.047 190.324C431.898 189.923 431.673 189.607 431.371 189.375C431.073 189.143 430.7 189.027 430.252 189.027C429.821 189.027 429.457 189.138 429.159 189.36C428.864 189.582 428.64 189.892 428.487 190.289C428.335 190.687 428.259 191.151 428.259 191.681ZM435.443 198.363V187.863H436.894V189.101H437.019C437.105 188.942 437.229 188.758 437.392 188.549C437.554 188.34 437.779 188.158 438.068 188.002C438.356 187.843 438.737 187.764 439.211 187.764C439.828 187.764 440.378 187.919 440.862 188.231C441.346 188.543 441.725 188.992 442 189.578C442.279 190.165 442.418 190.871 442.418 191.696C442.418 192.522 442.28 193.229 442.005 193.819C441.73 194.406 441.352 194.858 440.872 195.176C440.391 195.491 439.843 195.649 439.226 195.649C438.762 195.649 438.383 195.571 438.088 195.415C437.796 195.259 437.567 195.077 437.401 194.868C437.236 194.659 437.108 194.474 437.019 194.311H436.929V198.363H435.443ZM436.899 191.681C436.899 192.218 436.977 192.689 437.133 193.093C437.289 193.498 437.514 193.814 437.809 194.043C438.104 194.268 438.465 194.381 438.893 194.381C439.337 194.381 439.708 194.263 440.007 194.028C440.305 193.789 440.53 193.466 440.683 193.058C440.838 192.651 440.916 192.192 440.916 191.681C440.916 191.178 440.84 190.725 440.688 190.324C440.539 189.923 440.313 189.607 440.012 189.375C439.713 189.143 439.34 189.027 438.893 189.027C438.462 189.027 438.097 189.138 437.799 189.36C437.504 189.582 437.28 189.892 437.128 190.289C436.976 190.687 436.899 191.151 436.899 191.681ZM445.57 185.318V195.5H444.083V185.318H445.57ZM448.509 198.363C448.287 198.363 448.085 198.345 447.903 198.308C447.72 198.275 447.585 198.239 447.495 198.199L447.853 196.981C448.125 197.054 448.367 197.085 448.579 197.076C448.791 197.066 448.978 196.986 449.141 196.837C449.306 196.688 449.452 196.444 449.578 196.106L449.762 195.599L446.968 187.863H448.559L450.493 193.789H450.572L452.506 187.863H454.102L450.955 196.519C450.809 196.916 450.624 197.253 450.398 197.528C450.173 197.806 449.905 198.015 449.593 198.154C449.281 198.294 448.92 198.363 448.509 198.363Z" fill="#005EC4"/>
<defs>
<filter id="filter0_i_562_3964" x="40" y="40" width="720" height="240" filterUnits="userSpaceOnUse" color-interpolation-filters="sRGB">
<feFlood flood-opacity="0" result="BackgroundImageFix"/>
<feBlend mode="normal" in="SourceGraphic" in2="BackgroundImageFix" result="shape"/>
<feColorMatrix in="SourceAlpha" type="matrix" values="0 0 0 0 0 0 0 0 0 0 0 0 0 0 0 0 0 0 127 0" result="hardAlpha"/>
<feOffset dy="4"/>
<feComposite in2="hardAlpha" operator="arithmetic" k2="-1" k3="1"/>
<feColorMatrix type="matrix" values="0 0 0 0 0.741176 0 0 0 0 0.152941 0 0 0 0 0.117647 0 0 0 1 0"/>
<feBlend mode="normal" in2="shape" result="effect1_innerShadow_562_3964"/>
</filter>
</defs>
</svg>
