<svg width="800" height="320" viewBox="0 0 800 320" fill="none" xmlns="http://www.w3.org/2000/svg">
<g filter="url(#filter0_i_562_3994)">
<rect width="720" height="240" transform="translate(40 40)" fill="#F7F8FC"/>
<path fill-rule="evenodd" clip-rule="evenodd" d="M95 81.5C95.3978 81.5 95.7794 81.658 96.0607 81.9393L102.061 87.9393C102.342 88.2206 102.5 88.6022 102.5 89V96.5C102.5 96.8978 102.342 97.2794 102.061 97.5607L96.0607 103.561C95.7794 103.842 95.3978 104 95 104H87.5C87.1022 104 86.7206 103.842 86.4393 103.561L80.4393 97.5607C80.158 97.2794 80 96.8978 80 96.5V89C80 88.6022 80.158 88.2206 80.4393 87.9393L86.4393 81.9393C86.7206 81.658 87.1022 81.5 87.5 81.5H95ZM86.2197 87.7197C86.5126 87.4268 86.9874 87.4268 87.2803 87.7197L91.25 91.6893L95.2197 87.7197C95.5126 87.4268 95.9874 87.4268 96.2803 87.7197C96.5732 88.0126 96.5732 88.4874 96.2803 88.7803L92.3107 92.75L96.2803 96.7197C96.5732 97.0126 96.5732 97.4874 96.2803 97.7803C95.9874 98.0732 95.5126 98.0732 95.2197 97.7803L91.25 93.8107L87.2803 97.7803C86.9874 98.0732 86.5126 98.0732 86.2197 97.7803C85.9268 97.4874 85.9268 97.0126 86.2197 96.7197L90.1893 92.75L86.2197 88.7803C85.9268 88.4874 85.9268 88.0126 86.2197 87.7197Z" fill="#BD271E"/>
<path d="M123.063 100H117.391V84H123.109C124.719 84 126.104 84.3203 127.266 84.9609C128.427 85.5964 129.32 86.5104 129.945 87.7031C130.576 88.8958 130.891 90.3229 130.891 91.9844C130.891 93.651 130.576 95.0833 129.945 96.2812C129.32 97.4792 128.422 98.3984 127.25 99.0391C126.083 99.6797 124.688 100 123.063 100ZM120.773 97.1016H122.922C123.922 97.1016 124.763 96.9245 125.445 96.5703C126.133 96.2109 126.648 95.6562 126.992 94.9062C127.341 94.151 127.516 93.1771 127.516 91.9844C127.516 90.8021 127.341 89.8359 126.992 89.0859C126.648 88.3359 126.135 87.7839 125.453 87.4297C124.771 87.0755 123.93 86.8984 122.93 86.8984H120.773V97.1016ZM138.756 100.234C137.542 100.234 136.493 99.9766 135.607 99.4609C134.727 98.9401 134.048 98.2161 133.568 97.2891C133.089 96.3568 132.85 95.276 132.85 94.0469C132.85 92.8073 133.089 91.724 133.568 90.7969C134.048 89.8646 134.727 89.1406 135.607 88.625C136.493 88.1042 137.542 87.8438 138.756 87.8438C139.969 87.8438 141.016 88.1042 141.896 88.625C142.782 89.1406 143.464 89.8646 143.943 90.7969C144.423 91.724 144.662 92.8073 144.662 94.0469C144.662 95.276 144.423 96.3568 143.943 97.2891C143.464 98.2161 142.782 98.9401 141.896 99.4609C141.016 99.9766 139.969 100.234 138.756 100.234ZM138.771 97.6562C139.324 97.6562 139.785 97.5 140.154 97.1875C140.524 96.8698 140.803 96.4375 140.99 95.8906C141.183 95.3437 141.279 94.7214 141.279 94.0234C141.279 93.3255 141.183 92.7031 140.99 92.1562C140.803 91.6094 140.524 91.1771 140.154 90.8594C139.785 90.5417 139.324 90.3828 138.771 90.3828C138.214 90.3828 137.745 90.5417 137.365 90.8594C136.99 91.1771 136.706 91.6094 136.514 92.1562C136.326 92.7031 136.232 93.3255 136.232 94.0234C136.232 94.7214 136.326 95.3437 136.514 95.8906C136.706 96.4375 136.99 96.8698 137.365 97.1875C137.745 97.5 138.214 97.6562 138.771 97.6562ZM150.154 93.0625V100H146.826V88H149.998V90.1172H150.139C150.404 89.4193 150.85 88.8672 151.475 88.4609C152.1 88.0495 152.857 87.8438 153.748 87.8438C154.581 87.8438 155.308 88.026 155.928 88.3906C156.548 88.7552 157.029 89.276 157.373 89.9531C157.717 90.625 157.889 91.4271 157.889 92.3594V100H154.561V92.9531C154.566 92.2187 154.378 91.6458 153.998 91.2344C153.618 90.8177 153.094 90.6094 152.428 90.6094C151.98 90.6094 151.584 90.7057 151.24 90.8984C150.902 91.0911 150.636 91.3724 150.443 91.7422C150.256 92.1068 150.16 92.5469 150.154 93.0625ZM163.301 84V85.6875C163.301 86.1667 163.207 86.6562 163.02 87.1563C162.837 87.651 162.592 88.1198 162.285 88.5625C161.978 89 161.642 89.3724 161.277 89.6797L159.809 88.8125C160.069 88.401 160.298 87.9453 160.496 87.4453C160.699 86.9453 160.801 86.3646 160.801 85.7031V84H163.301ZM172.309 88V90.5H165.082V88H172.309ZM166.723 85.125H170.051V96.3125C170.051 96.6198 170.098 96.8594 170.191 97.0312C170.285 97.1979 170.415 97.3151 170.582 97.3828C170.754 97.4505 170.952 97.4844 171.176 97.4844C171.332 97.4844 171.488 97.4714 171.645 97.4453C171.801 97.4141 171.921 97.3906 172.004 97.375L172.527 99.8516C172.361 99.9036 172.126 99.9635 171.824 100.031C171.522 100.104 171.155 100.148 170.723 100.164C169.921 100.195 169.217 100.089 168.613 99.8437C168.014 99.599 167.548 99.2187 167.215 98.7031C166.882 98.1875 166.717 97.5365 166.723 96.75V85.125Z" fill="#BD271E"/>
</g>
<path d="M232.963 190.409C232.963 191.496 232.764 192.431 232.366 193.213C231.969 193.992 231.424 194.592 230.731 195.013C230.041 195.43 229.258 195.639 228.379 195.639C227.498 195.639 226.71 195.43 226.018 195.013C225.328 194.592 224.785 193.99 224.387 193.208C223.989 192.426 223.79 191.493 223.79 190.409C223.79 189.322 223.989 188.389 224.387 187.61C224.785 186.828 225.328 186.228 226.018 185.81C226.71 185.389 227.498 185.179 228.379 185.179C229.258 185.179 230.041 185.389 230.731 185.81C231.424 186.228 231.969 186.828 232.366 187.61C232.764 188.389 232.963 189.322 232.963 190.409ZM231.442 190.409C231.442 189.58 231.308 188.883 231.039 188.316C230.774 187.746 230.409 187.315 229.945 187.023C229.485 186.728 228.963 186.581 228.379 186.581C227.793 186.581 227.269 186.728 226.808 187.023C226.348 187.315 225.983 187.746 225.714 188.316C225.449 188.883 225.317 189.58 225.317 190.409C225.317 191.238 225.449 191.937 225.714 192.507C225.983 193.074 226.348 193.505 226.808 193.8C227.269 194.091 227.793 194.237 228.379 194.237C228.963 194.237 229.485 194.091 229.945 193.8C230.409 193.505 230.774 193.074 231.039 192.507C231.308 191.937 231.442 191.238 231.442 190.409ZM238.324 187.864V189.057H234.153V187.864H238.324ZM235.271 186.034H236.758V193.258C236.758 193.546 236.801 193.763 236.887 193.909C236.973 194.052 237.084 194.149 237.22 194.202C237.359 194.252 237.51 194.277 237.672 194.277C237.792 194.277 237.896 194.269 237.986 194.252C238.075 194.236 238.145 194.222 238.194 194.212L238.463 195.44C238.377 195.473 238.254 195.507 238.095 195.54C237.936 195.576 237.737 195.596 237.498 195.599C237.107 195.606 236.743 195.536 236.405 195.391C236.067 195.245 235.793 195.019 235.584 194.714C235.376 194.41 235.271 194.027 235.271 193.566V186.034ZM241.619 190.966V195.5H240.132V185.318H241.599V189.107H241.693C241.872 188.696 242.146 188.369 242.513 188.127C242.881 187.885 243.362 187.764 243.955 187.764C244.479 187.764 244.936 187.872 245.327 188.087C245.722 188.303 246.027 188.624 246.242 189.052C246.461 189.476 246.57 190.006 246.57 190.643V195.5H245.084V190.822C245.084 190.262 244.94 189.827 244.651 189.519C244.363 189.208 243.962 189.052 243.448 189.052C243.097 189.052 242.782 189.126 242.504 189.276C242.228 189.425 242.011 189.643 241.852 189.932C241.696 190.217 241.619 190.562 241.619 190.966ZM251.845 195.654C251.093 195.654 250.445 195.493 249.901 195.172C249.361 194.847 248.943 194.391 248.648 193.805C248.357 193.215 248.211 192.524 248.211 191.732C248.211 190.949 248.357 190.26 248.648 189.663C248.943 189.067 249.354 188.601 249.881 188.266C250.412 187.932 251.031 187.764 251.741 187.764C252.172 187.764 252.589 187.835 252.994 187.978C253.398 188.121 253.761 188.344 254.082 188.649C254.404 188.954 254.657 189.35 254.843 189.837C255.029 190.321 255.121 190.91 255.121 191.602V192.129H249.051V191.016H253.665C253.665 190.625 253.585 190.278 253.426 189.977C253.267 189.672 253.043 189.431 252.755 189.256C252.47 189.08 252.135 188.992 251.751 188.992C251.333 188.992 250.969 189.095 250.657 189.3C250.349 189.503 250.11 189.768 249.941 190.096C249.775 190.421 249.692 190.774 249.692 191.155V192.025C249.692 192.535 249.782 192.969 249.961 193.327C250.143 193.685 250.397 193.959 250.722 194.148C251.046 194.333 251.426 194.426 251.86 194.426C252.142 194.426 252.399 194.386 252.631 194.307C252.863 194.224 253.063 194.101 253.232 193.939C253.401 193.777 253.531 193.576 253.62 193.337L255.027 193.591C254.914 194.005 254.712 194.368 254.42 194.68C254.132 194.988 253.769 195.228 253.332 195.401C252.897 195.57 252.402 195.654 251.845 195.654ZM256.771 195.5V187.864H258.208V189.077H258.287C258.426 188.666 258.672 188.343 259.023 188.107C259.378 187.869 259.779 187.749 260.226 187.749C260.319 187.749 260.428 187.753 260.554 187.759C260.683 187.766 260.785 187.774 260.857 187.784V189.206C260.798 189.189 260.692 189.171 260.539 189.151C260.387 189.128 260.234 189.116 260.082 189.116C259.731 189.116 259.417 189.191 259.142 189.34C258.87 189.486 258.655 189.69 258.496 189.952C258.337 190.21 258.257 190.505 258.257 190.837V195.5H256.771ZM268.071 195.669C267.587 195.669 267.15 195.58 266.759 195.401C266.368 195.218 266.058 194.955 265.829 194.61C265.604 194.265 265.491 193.843 265.491 193.342C265.491 192.911 265.574 192.557 265.74 192.278C265.905 192 266.129 191.78 266.411 191.617C266.692 191.455 267.007 191.332 267.355 191.249C267.703 191.166 268.058 191.103 268.419 191.06C268.877 191.007 269.248 190.964 269.533 190.931C269.818 190.895 270.025 190.837 270.154 190.757C270.284 190.678 270.348 190.548 270.348 190.369V190.335C270.348 189.9 270.226 189.564 269.98 189.325C269.738 189.087 269.377 188.967 268.896 188.967C268.396 188.967 268.002 189.078 267.713 189.3C267.428 189.519 267.231 189.763 267.122 190.031L265.725 189.713C265.89 189.249 266.132 188.875 266.45 188.589C266.772 188.301 267.142 188.092 267.559 187.963C267.977 187.83 268.416 187.764 268.877 187.764C269.182 187.764 269.505 187.801 269.846 187.874C270.191 187.943 270.512 188.072 270.811 188.261C271.112 188.45 271.359 188.72 271.551 189.072C271.744 189.42 271.84 189.872 271.84 190.429V195.5H270.388V194.456H270.328C270.232 194.648 270.088 194.837 269.896 195.023C269.704 195.208 269.457 195.362 269.155 195.485C268.853 195.608 268.492 195.669 268.071 195.669ZM268.394 194.476C268.805 194.476 269.157 194.395 269.448 194.232C269.743 194.07 269.967 193.858 270.119 193.596C270.275 193.331 270.353 193.047 270.353 192.746V191.761C270.3 191.814 270.197 191.864 270.045 191.911C269.896 191.954 269.725 191.992 269.533 192.025C269.341 192.055 269.153 192.083 268.971 192.109C268.789 192.133 268.636 192.152 268.514 192.169C268.225 192.205 267.962 192.267 267.723 192.353C267.488 192.439 267.299 192.563 267.156 192.726C267.017 192.885 266.948 193.097 266.948 193.362C266.948 193.73 267.084 194.009 267.355 194.197C267.627 194.383 267.973 194.476 268.394 194.476ZM277.036 195.654C276.297 195.654 275.661 195.487 275.127 195.152C274.597 194.814 274.189 194.348 273.904 193.755C273.619 193.162 273.477 192.482 273.477 191.717C273.477 190.941 273.622 190.257 273.914 189.663C274.206 189.067 274.617 188.601 275.147 188.266C275.677 187.932 276.302 187.764 277.021 187.764C277.601 187.764 278.118 187.872 278.572 188.087C279.027 188.299 279.393 188.598 279.671 188.982C279.953 189.367 280.12 189.816 280.173 190.33H278.727C278.647 189.972 278.465 189.663 278.18 189.405C277.898 189.146 277.52 189.017 277.046 189.017C276.632 189.017 276.269 189.126 275.957 189.345C275.649 189.561 275.409 189.869 275.237 190.27C275.064 190.668 274.978 191.138 274.978 191.682C274.978 192.239 275.063 192.719 275.232 193.124C275.401 193.528 275.639 193.841 275.947 194.063C276.259 194.285 276.625 194.396 277.046 194.396C277.328 194.396 277.583 194.345 277.812 194.242C278.044 194.136 278.238 193.985 278.393 193.79C278.553 193.594 278.664 193.359 278.727 193.084H280.173C280.12 193.578 279.96 194.018 279.691 194.406C279.423 194.794 279.063 195.099 278.612 195.321C278.165 195.543 277.639 195.654 277.036 195.654ZM285.328 187.864V189.057H281.156V187.864H285.328ZM282.275 186.034H283.762V193.258C283.762 193.546 283.805 193.763 283.891 193.909C283.977 194.052 284.088 194.149 284.224 194.202C284.363 194.252 284.514 194.277 284.676 194.277C284.796 194.277 284.9 194.269 284.99 194.252C285.079 194.236 285.149 194.222 285.198 194.212L285.467 195.44C285.381 195.473 285.258 195.507 285.099 195.54C284.94 195.576 284.741 195.596 284.502 195.599C284.111 195.606 283.747 195.536 283.409 195.391C283.07 195.245 282.797 195.019 282.588 194.714C282.379 194.41 282.275 194.027 282.275 193.566V186.034ZM286.972 195.5V187.864H288.458V195.5H286.972ZM287.723 186.685C287.464 186.685 287.242 186.599 287.056 186.427C286.874 186.251 286.783 186.042 286.783 185.8C286.783 185.555 286.874 185.346 287.056 185.174C287.242 184.998 287.464 184.911 287.723 184.911C287.981 184.911 288.202 184.998 288.384 185.174C288.569 185.346 288.662 185.555 288.662 185.8C288.662 186.042 288.569 186.251 288.384 186.427C288.202 186.599 287.981 186.685 287.723 186.685ZM293.675 195.654C292.959 195.654 292.334 195.49 291.801 195.162C291.267 194.834 290.853 194.375 290.558 193.785C290.263 193.195 290.115 192.505 290.115 191.717C290.115 190.924 290.263 190.232 290.558 189.638C290.853 189.045 291.267 188.585 291.801 188.256C292.334 187.928 292.959 187.764 293.675 187.764C294.391 187.764 295.016 187.928 295.549 188.256C296.083 188.585 296.497 189.045 296.792 189.638C297.087 190.232 297.235 190.924 297.235 191.717C297.235 192.505 297.087 193.195 296.792 193.785C296.497 194.375 296.083 194.834 295.549 195.162C295.016 195.49 294.391 195.654 293.675 195.654ZM293.68 194.406C294.144 194.406 294.528 194.284 294.833 194.038C295.138 193.793 295.364 193.467 295.509 193.059C295.659 192.651 295.733 192.202 295.733 191.712C295.733 191.224 295.659 190.777 295.509 190.369C295.364 189.958 295.138 189.629 294.833 189.38C294.528 189.131 294.144 189.007 293.68 189.007C293.213 189.007 292.825 189.131 292.517 189.38C292.212 189.629 291.985 189.958 291.835 190.369C291.69 190.777 291.617 191.224 291.617 191.712C291.617 192.202 291.69 192.651 291.835 193.059C291.985 193.467 292.212 193.793 292.517 194.038C292.825 194.284 293.213 194.406 293.68 194.406ZM300.38 190.966V195.5H298.894V187.864H300.321V189.107H300.415C300.591 188.702 300.866 188.377 301.24 188.132C301.618 187.887 302.094 187.764 302.667 187.764C303.188 187.764 303.643 187.874 304.034 188.092C304.426 188.308 304.729 188.629 304.944 189.057C305.16 189.484 305.267 190.013 305.267 190.643V195.5H303.781V190.822C303.781 190.268 303.637 189.836 303.348 189.524C303.06 189.209 302.664 189.052 302.16 189.052C301.815 189.052 301.509 189.126 301.24 189.276C300.975 189.425 300.765 189.643 300.609 189.932C300.457 190.217 300.38 190.562 300.38 190.966Z" fill="#005EC4"/>
<rect x="323" y="170" width="142" height="40" rx="6" fill="#CCE4F5"/>
<path d="M341.672 187.992C341.619 187.522 341.4 187.157 341.016 186.899C340.631 186.637 340.147 186.506 339.564 186.506C339.146 186.506 338.785 186.572 338.48 186.705C338.175 186.834 337.938 187.013 337.769 187.242C337.603 187.467 337.521 187.724 337.521 188.012C337.521 188.254 337.577 188.463 337.69 188.639C337.806 188.814 337.956 188.962 338.142 189.081C338.331 189.197 338.533 189.295 338.749 189.375C338.964 189.451 339.171 189.514 339.37 189.563L340.364 189.822C340.689 189.902 341.022 190.009 341.364 190.145C341.705 190.281 342.022 190.46 342.313 190.682C342.605 190.904 342.84 191.179 343.019 191.507C343.201 191.835 343.293 192.228 343.293 192.686C343.293 193.262 343.143 193.774 342.845 194.222C342.55 194.669 342.121 195.022 341.558 195.281C340.997 195.539 340.32 195.669 339.524 195.669C338.762 195.669 338.102 195.548 337.545 195.306C336.989 195.064 336.553 194.721 336.238 194.277C335.923 193.829 335.749 193.299 335.716 192.686H337.257C337.287 193.053 337.406 193.36 337.615 193.605C337.827 193.847 338.097 194.028 338.425 194.147C338.757 194.263 339.12 194.321 339.514 194.321C339.948 194.321 340.335 194.253 340.673 194.117C341.014 193.978 341.282 193.786 341.478 193.541C341.674 193.292 341.771 193.002 341.771 192.671C341.771 192.369 341.685 192.122 341.513 191.93C341.344 191.738 341.113 191.579 340.822 191.453C340.533 191.327 340.207 191.216 339.842 191.12L338.639 190.791C337.824 190.569 337.178 190.243 336.7 189.812C336.226 189.381 335.989 188.811 335.989 188.102C335.989 187.515 336.148 187.003 336.467 186.566C336.785 186.128 337.216 185.788 337.759 185.546C338.303 185.301 338.916 185.178 339.599 185.178C340.288 185.178 340.896 185.299 341.423 185.541C341.954 185.783 342.371 186.116 342.676 186.541C342.981 186.962 343.14 187.446 343.153 187.992H341.672ZM348.3 195.654C347.548 195.654 346.9 195.493 346.356 195.171C345.816 194.847 345.398 194.391 345.104 193.804C344.812 193.214 344.666 192.523 344.666 191.731C344.666 190.949 344.812 190.259 345.104 189.663C345.398 189.066 345.809 188.601 346.336 188.266C346.867 187.931 347.487 187.764 348.196 187.764C348.627 187.764 349.044 187.835 349.449 187.977C349.853 188.12 350.216 188.344 350.537 188.649C350.859 188.954 351.113 189.35 351.298 189.837C351.484 190.321 351.577 190.909 351.577 191.602V192.129H345.506V191.015H350.12C350.12 190.624 350.04 190.278 349.881 189.976C349.722 189.671 349.498 189.431 349.21 189.255C348.925 189.08 348.59 188.992 348.206 188.992C347.788 188.992 347.424 189.094 347.112 189.3C346.804 189.502 346.565 189.767 346.396 190.095C346.23 190.42 346.148 190.773 346.148 191.154V192.024C346.148 192.535 346.237 192.969 346.416 193.327C346.598 193.685 346.852 193.958 347.177 194.147C347.501 194.333 347.881 194.426 348.315 194.426C348.597 194.426 348.854 194.386 349.086 194.306C349.318 194.223 349.518 194.101 349.687 193.938C349.856 193.776 349.986 193.576 350.075 193.337L351.482 193.59C351.369 194.005 351.167 194.368 350.876 194.679C350.587 194.987 350.224 195.228 349.787 195.4C349.353 195.569 348.857 195.654 348.3 195.654ZM356.442 195.654C355.703 195.654 355.067 195.486 354.533 195.152C354.003 194.813 353.595 194.348 353.31 193.754C353.025 193.161 352.883 192.482 352.883 191.716C352.883 190.941 353.029 190.256 353.32 189.663C353.612 189.066 354.023 188.601 354.553 188.266C355.084 187.931 355.708 187.764 356.428 187.764C357.008 187.764 357.525 187.871 357.979 188.087C358.433 188.299 358.799 188.597 359.077 188.982C359.359 189.366 359.527 189.815 359.58 190.329H358.133C358.053 189.971 357.871 189.663 357.586 189.404C357.304 189.146 356.926 189.017 356.452 189.017C356.038 189.017 355.675 189.126 355.364 189.345C355.055 189.56 354.815 189.868 354.643 190.269C354.47 190.667 354.384 191.138 354.384 191.681C354.384 192.238 354.469 192.719 354.638 193.123C354.807 193.527 355.045 193.841 355.354 194.063C355.665 194.285 356.031 194.396 356.452 194.396C356.734 194.396 356.989 194.344 357.218 194.242C357.45 194.136 357.644 193.985 357.8 193.789C357.959 193.594 358.07 193.358 358.133 193.083H359.58C359.527 193.577 359.366 194.018 359.097 194.406C358.829 194.794 358.469 195.098 358.018 195.321C357.571 195.543 357.046 195.654 356.442 195.654ZM364.386 195.654C363.67 195.654 363.045 195.49 362.512 195.161C361.978 194.833 361.564 194.374 361.269 193.784C360.974 193.194 360.826 192.505 360.826 191.716C360.826 190.924 360.974 190.231 361.269 189.638C361.564 189.045 361.978 188.584 362.512 188.256C363.045 187.928 363.67 187.764 364.386 187.764C365.102 187.764 365.727 187.928 366.26 188.256C366.794 188.584 367.208 189.045 367.503 189.638C367.798 190.231 367.945 190.924 367.945 191.716C367.945 192.505 367.798 193.194 367.503 193.784C367.208 194.374 366.794 194.833 366.26 195.161C365.727 195.49 365.102 195.654 364.386 195.654ZM364.391 194.406C364.855 194.406 365.239 194.283 365.544 194.038C365.849 193.793 366.075 193.466 366.22 193.058C366.369 192.651 366.444 192.202 366.444 191.711C366.444 191.224 366.369 190.777 366.22 190.369C366.075 189.958 365.849 189.628 365.544 189.379C365.239 189.131 364.855 189.007 364.391 189.007C363.923 189.007 363.536 189.131 363.227 189.379C362.923 189.628 362.695 189.958 362.546 190.369C362.401 190.777 362.328 191.224 362.328 191.711C362.328 192.202 362.401 192.651 362.546 193.058C362.695 193.466 362.923 193.793 363.227 194.038C363.536 194.283 363.923 194.406 364.391 194.406ZM371.091 190.965V195.5H369.605V187.863H371.032V189.106H371.126C371.302 188.702 371.577 188.377 371.951 188.132C372.329 187.886 372.805 187.764 373.378 187.764C373.899 187.764 374.354 187.873 374.745 188.092C375.136 188.307 375.44 188.629 375.655 189.056C375.871 189.484 375.978 190.013 375.978 190.642V195.5H374.492V190.821C374.492 190.268 374.348 189.835 374.059 189.524C373.771 189.209 373.375 189.051 372.871 189.051C372.526 189.051 372.22 189.126 371.951 189.275C371.686 189.424 371.476 189.643 371.32 189.931C371.167 190.216 371.091 190.561 371.091 190.965ZM380.831 195.649C380.214 195.649 379.664 195.491 379.18 195.176C378.699 194.858 378.322 194.406 378.047 193.819C377.775 193.229 377.639 192.522 377.639 191.696C377.639 190.871 377.776 190.165 378.051 189.578C378.33 188.992 378.711 188.543 379.195 188.231C379.679 187.919 380.227 187.764 380.841 187.764C381.315 187.764 381.696 187.843 381.984 188.002C382.276 188.158 382.501 188.34 382.66 188.549C382.823 188.758 382.949 188.942 383.038 189.101H383.127V185.318H384.614V195.5H383.162V194.311H383.038C382.949 194.474 382.819 194.659 382.65 194.868C382.484 195.077 382.256 195.259 381.964 195.415C381.672 195.571 381.295 195.649 380.831 195.649ZM381.159 194.381C381.586 194.381 381.948 194.268 382.243 194.043C382.541 193.814 382.766 193.498 382.919 193.093C383.074 192.689 383.152 192.218 383.152 191.681C383.152 191.151 383.076 190.687 382.924 190.289C382.771 189.892 382.547 189.582 382.252 189.36C381.958 189.138 381.593 189.027 381.159 189.027C380.711 189.027 380.338 189.143 380.04 189.375C379.742 189.607 379.516 189.923 379.364 190.324C379.215 190.725 379.14 191.178 379.14 191.681C379.14 192.192 379.217 192.651 379.369 193.058C379.521 193.466 379.747 193.789 380.045 194.028C380.347 194.263 380.718 194.381 381.159 194.381ZM388.958 195.669C388.474 195.669 388.037 195.579 387.645 195.4C387.254 195.218 386.944 194.954 386.716 194.61C386.49 194.265 386.378 193.842 386.378 193.342C386.378 192.911 386.461 192.556 386.626 192.278C386.792 192 387.016 191.779 387.297 191.617C387.579 191.454 387.894 191.332 388.242 191.249C388.59 191.166 388.945 191.103 389.306 191.06C389.763 191.007 390.135 190.964 390.42 190.931C390.705 190.894 390.912 190.836 391.041 190.757C391.17 190.677 391.235 190.548 391.235 190.369V190.334C391.235 189.9 391.112 189.563 390.867 189.325C390.625 189.086 390.264 188.967 389.783 188.967C389.283 188.967 388.888 189.078 388.6 189.3C388.315 189.519 388.118 189.762 388.008 190.031L386.611 189.713C386.777 189.249 387.019 188.874 387.337 188.589C387.659 188.301 388.028 188.092 388.446 187.963C388.863 187.83 389.303 187.764 389.763 187.764C390.068 187.764 390.391 187.8 390.733 187.873C391.077 187.943 391.399 188.072 391.697 188.261C391.999 188.45 392.246 188.72 392.438 189.071C392.63 189.419 392.726 189.872 392.726 190.428V195.5H391.275V194.455H391.215C391.119 194.648 390.975 194.837 390.782 195.022C390.59 195.208 390.343 195.362 390.042 195.485C389.74 195.607 389.379 195.669 388.958 195.669ZM389.281 194.475C389.692 194.475 390.043 194.394 390.335 194.232C390.63 194.069 390.854 193.857 391.006 193.595C391.162 193.33 391.24 193.047 391.24 192.745V191.761C391.187 191.814 391.084 191.864 390.932 191.91C390.782 191.953 390.612 191.991 390.42 192.024C390.227 192.054 390.04 192.082 389.858 192.109C389.675 192.132 389.523 192.152 389.4 192.169C389.112 192.205 388.849 192.266 388.61 192.352C388.375 192.439 388.186 192.563 388.043 192.725C387.904 192.884 387.834 193.097 387.834 193.362C387.834 193.73 387.97 194.008 388.242 194.197C388.514 194.383 388.86 194.475 389.281 194.475ZM394.706 195.5V187.863H396.143V189.076H396.223C396.362 188.665 396.607 188.342 396.958 188.107C397.313 187.868 397.714 187.749 398.162 187.749C398.254 187.749 398.364 187.752 398.49 187.759C398.619 187.765 398.72 187.774 398.793 187.784V189.205C398.733 189.189 398.627 189.171 398.475 189.151C398.322 189.128 398.17 189.116 398.017 189.116C397.666 189.116 397.353 189.191 397.078 189.34C396.806 189.486 396.591 189.689 396.431 189.951C396.272 190.21 396.193 190.505 396.193 190.836V195.5H394.706ZM401.251 198.363C401.029 198.363 400.827 198.345 400.645 198.308C400.463 198.275 400.327 198.239 400.237 198.199L400.595 196.981C400.867 197.054 401.109 197.085 401.321 197.076C401.533 197.066 401.72 196.986 401.883 196.837C402.049 196.688 402.194 196.444 402.32 196.106L402.504 195.599L399.71 187.863H401.301L403.235 193.789H403.315L405.249 187.863H406.844L403.697 196.519C403.552 196.916 403.366 197.253 403.141 197.528C402.915 197.806 402.647 198.015 402.335 198.154C402.024 198.294 401.662 198.363 401.251 198.363ZM414.169 195.669C413.685 195.669 413.247 195.579 412.856 195.4C412.465 195.218 412.155 194.954 411.927 194.61C411.701 194.265 411.589 193.842 411.589 193.342C411.589 192.911 411.671 192.556 411.837 192.278C412.003 192 412.227 191.779 412.508 191.617C412.79 191.454 413.105 191.332 413.453 191.249C413.801 191.166 414.156 191.103 414.517 191.06C414.974 191.007 415.345 190.964 415.631 190.931C415.916 190.894 416.123 190.836 416.252 190.757C416.381 190.677 416.446 190.548 416.446 190.369V190.334C416.446 189.9 416.323 189.563 416.078 189.325C415.836 189.086 415.475 188.967 414.994 188.967C414.494 188.967 414.099 189.078 413.811 189.3C413.526 189.519 413.329 189.762 413.219 190.031L411.822 189.713C411.988 189.249 412.23 188.874 412.548 188.589C412.87 188.301 413.239 188.092 413.657 187.963C414.074 187.83 414.514 187.764 414.974 187.764C415.279 187.764 415.602 187.8 415.944 187.873C416.288 187.943 416.61 188.072 416.908 188.261C417.21 188.45 417.457 188.72 417.649 189.071C417.841 189.419 417.937 189.872 417.937 190.428V195.5H416.486V194.455H416.426C416.33 194.648 416.186 194.837 415.993 195.022C415.801 195.208 415.554 195.362 415.253 195.485C414.951 195.607 414.59 195.669 414.169 195.669ZM414.492 194.475C414.903 194.475 415.254 194.394 415.546 194.232C415.841 194.069 416.065 193.857 416.217 193.595C416.373 193.33 416.451 193.047 416.451 192.745V191.761C416.398 191.814 416.295 191.864 416.143 191.91C415.993 191.953 415.823 191.991 415.631 192.024C415.438 192.054 415.251 192.082 415.069 192.109C414.886 192.132 414.734 192.152 414.611 192.169C414.323 192.205 414.059 192.266 413.821 192.352C413.586 192.439 413.397 192.563 413.254 192.725C413.115 192.884 413.045 193.097 413.045 193.362C413.045 193.73 413.181 194.008 413.453 194.197C413.725 194.383 414.071 194.475 414.492 194.475ZM423.134 195.654C422.395 195.654 421.758 195.486 421.225 195.152C420.694 194.813 420.287 194.348 420.002 193.754C419.717 193.161 419.574 192.482 419.574 191.716C419.574 190.941 419.72 190.256 420.012 189.663C420.303 189.066 420.714 188.601 421.245 188.266C421.775 187.931 422.4 187.764 423.119 187.764C423.699 187.764 424.216 187.871 424.67 188.087C425.124 188.299 425.49 188.597 425.769 188.982C426.051 189.366 426.218 189.815 426.271 190.329H424.824C424.745 189.971 424.562 189.663 424.277 189.404C423.996 189.146 423.618 189.017 423.144 189.017C422.73 189.017 422.367 189.126 422.055 189.345C421.747 189.56 421.507 189.868 421.334 190.269C421.162 190.667 421.076 191.138 421.076 191.681C421.076 192.238 421.16 192.719 421.329 193.123C421.498 193.527 421.737 193.841 422.045 194.063C422.357 194.285 422.723 194.396 423.144 194.396C423.426 194.396 423.681 194.344 423.909 194.242C424.141 194.136 424.335 193.985 424.491 193.789C424.65 193.594 424.761 193.358 424.824 193.083H426.271C426.218 193.577 426.057 194.018 425.789 194.406C425.52 194.794 425.161 195.098 424.71 195.321C424.262 195.543 423.737 195.654 423.134 195.654ZM431.425 187.863V189.056H427.254V187.863H431.425ZM428.373 186.034H429.859V193.257C429.859 193.546 429.902 193.763 429.988 193.909C430.075 194.051 430.186 194.149 430.322 194.202C430.461 194.252 430.612 194.277 430.774 194.277C430.893 194.277 430.998 194.268 431.087 194.252C431.177 194.235 431.246 194.222 431.296 194.212L431.564 195.44C431.478 195.473 431.356 195.506 431.197 195.539C431.037 195.576 430.839 195.596 430.6 195.599C430.209 195.606 429.844 195.536 429.506 195.39C429.168 195.244 428.895 195.019 428.686 194.714C428.477 194.409 428.373 194.026 428.373 193.566V186.034ZM433.07 195.5V187.863H434.556V195.5H433.07ZM433.82 186.685C433.562 186.685 433.34 186.599 433.154 186.426C432.972 186.251 432.881 186.042 432.881 185.8C432.881 185.555 432.972 185.346 433.154 185.174C433.34 184.998 433.562 184.91 433.82 184.91C434.079 184.91 434.299 184.998 434.482 185.174C434.667 185.346 434.76 185.555 434.76 185.8C434.76 186.042 434.667 186.251 434.482 186.426C434.299 186.599 434.079 186.685 433.82 186.685ZM439.773 195.654C439.057 195.654 438.432 195.49 437.898 195.161C437.365 194.833 436.95 194.374 436.655 193.784C436.36 193.194 436.213 192.505 436.213 191.716C436.213 190.924 436.36 190.231 436.655 189.638C436.95 189.045 437.365 188.584 437.898 188.256C438.432 187.928 439.057 187.764 439.773 187.764C440.488 187.764 441.113 187.928 441.647 188.256C442.18 188.584 442.595 189.045 442.89 189.638C443.185 190.231 443.332 190.924 443.332 191.716C443.332 192.505 443.185 193.194 442.89 193.784C442.595 194.374 442.18 194.833 441.647 195.161C441.113 195.49 440.488 195.654 439.773 195.654ZM439.778 194.406C440.242 194.406 440.626 194.283 440.931 194.038C441.236 193.793 441.461 193.466 441.607 193.058C441.756 192.651 441.831 192.202 441.831 191.711C441.831 191.224 441.756 190.777 441.607 190.369C441.461 189.958 441.236 189.628 440.931 189.379C440.626 189.131 440.242 189.007 439.778 189.007C439.31 189.007 438.922 189.131 438.614 189.379C438.309 189.628 438.082 189.958 437.933 190.369C437.787 190.777 437.714 191.224 437.714 191.711C437.714 192.202 437.787 192.651 437.933 193.058C438.082 193.466 438.309 193.793 438.614 194.038C438.922 194.283 439.31 194.406 439.778 194.406ZM446.478 190.965V195.5H444.991V187.863H446.418V189.106H446.513C446.688 188.702 446.964 188.377 447.338 188.132C447.716 187.886 448.192 187.764 448.765 187.764C449.285 187.764 449.741 187.873 450.132 188.092C450.523 188.307 450.826 188.629 451.042 189.056C451.257 189.484 451.365 190.013 451.365 190.642V195.5H449.879V190.821C449.879 190.268 449.734 189.835 449.446 189.524C449.158 189.209 448.762 189.051 448.258 189.051C447.913 189.051 447.607 189.126 447.338 189.275C447.073 189.424 446.862 189.643 446.707 189.931C446.554 190.216 446.478 190.561 446.478 190.965Z" fill="#005EC4"/>
<rect x="473" y="170" width="112" height="40" rx="6" fill="#4DD2CA"/>
<path d="M500.172 187.992C500.119 187.522 499.9 187.157 499.516 186.899C499.131 186.637 498.647 186.506 498.064 186.506C497.646 186.506 497.285 186.572 496.98 186.705C496.675 186.834 496.438 187.013 496.269 187.242C496.103 187.467 496.021 187.724 496.021 188.012C496.021 188.254 496.077 188.463 496.19 188.639C496.306 188.814 496.456 188.962 496.642 189.081C496.831 189.197 497.033 189.295 497.249 189.375C497.464 189.451 497.671 189.514 497.87 189.563L498.864 189.822C499.189 189.902 499.522 190.009 499.864 190.145C500.205 190.281 500.522 190.46 500.813 190.682C501.105 190.904 501.34 191.179 501.519 191.507C501.701 191.835 501.793 192.228 501.793 192.686C501.793 193.262 501.643 193.774 501.345 194.222C501.05 194.669 500.621 195.022 500.058 195.281C499.497 195.539 498.82 195.669 498.024 195.669C497.262 195.669 496.602 195.548 496.045 195.306C495.489 195.064 495.053 194.721 494.738 194.277C494.423 193.829 494.249 193.299 494.216 192.686H495.757C495.787 193.053 495.906 193.36 496.115 193.605C496.327 193.847 496.597 194.028 496.925 194.147C497.257 194.263 497.62 194.321 498.014 194.321C498.448 194.321 498.835 194.253 499.173 194.117C499.514 193.978 499.782 193.786 499.978 193.541C500.174 193.292 500.271 193.002 500.271 192.671C500.271 192.369 500.185 192.122 500.013 191.93C499.844 191.738 499.613 191.579 499.322 191.453C499.033 191.327 498.707 191.216 498.342 191.12L497.139 190.791C496.324 190.569 495.678 190.243 495.2 189.812C494.726 189.381 494.489 188.811 494.489 188.102C494.489 187.515 494.648 187.003 494.967 186.566C495.285 186.128 495.716 185.788 496.259 185.546C496.803 185.301 497.416 185.178 498.099 185.178C498.788 185.178 499.396 185.299 499.923 185.541C500.454 185.783 500.871 186.116 501.176 186.541C501.481 186.962 501.64 187.446 501.653 187.992H500.172ZM505.731 195.669C505.247 195.669 504.81 195.579 504.419 195.4C504.028 195.218 503.718 194.954 503.489 194.61C503.264 194.265 503.151 193.842 503.151 193.342C503.151 192.911 503.234 192.556 503.4 192.278C503.565 192 503.789 191.779 504.071 191.617C504.353 191.454 504.667 191.332 505.015 191.249C505.363 191.166 505.718 191.103 506.079 191.06C506.537 191.007 506.908 190.964 507.193 190.931C507.478 190.894 507.685 190.836 507.814 190.757C507.944 190.677 508.008 190.548 508.008 190.369V190.334C508.008 189.9 507.886 189.563 507.64 189.325C507.398 189.086 507.037 188.967 506.557 188.967C506.056 188.967 505.662 189.078 505.373 189.3C505.088 189.519 504.891 189.762 504.782 190.031L503.385 189.713C503.55 189.249 503.792 188.874 504.111 188.589C504.432 188.301 504.802 188.092 505.219 187.963C505.637 187.83 506.076 187.764 506.537 187.764C506.842 187.764 507.165 187.8 507.506 187.873C507.851 187.943 508.172 188.072 508.471 188.261C508.772 188.45 509.019 188.72 509.211 189.071C509.404 189.419 509.5 189.872 509.5 190.428V195.5H508.048V194.455H507.988C507.892 194.648 507.748 194.837 507.556 195.022C507.364 195.208 507.117 195.362 506.815 195.485C506.514 195.607 506.152 195.669 505.731 195.669ZM506.055 194.475C506.465 194.475 506.817 194.394 507.108 194.232C507.403 194.069 507.627 193.857 507.78 193.595C507.935 193.33 508.013 193.047 508.013 192.745V191.761C507.96 191.814 507.858 191.864 507.705 191.91C507.556 191.953 507.385 191.991 507.193 192.024C507.001 192.054 506.814 192.082 506.631 192.109C506.449 192.132 506.296 192.152 506.174 192.169C505.885 192.205 505.622 192.266 505.383 192.352C505.148 192.439 504.959 192.563 504.817 192.725C504.677 192.884 504.608 193.097 504.608 193.362C504.608 193.73 504.744 194.008 505.015 194.197C505.287 194.383 505.634 194.475 506.055 194.475ZM517.739 187.863L514.97 195.5H513.379L510.605 187.863H512.201L514.135 193.74H514.214L516.143 187.863H517.739ZM522.167 195.654C521.415 195.654 520.767 195.493 520.224 195.171C519.683 194.847 519.266 194.391 518.971 193.804C518.679 193.214 518.533 192.523 518.533 191.731C518.533 190.949 518.679 190.259 518.971 189.663C519.266 189.066 519.677 188.601 520.204 188.266C520.734 187.931 521.354 187.764 522.063 187.764C522.494 187.764 522.912 187.835 523.316 187.977C523.72 188.12 524.083 188.344 524.405 188.649C524.726 188.954 524.98 189.35 525.165 189.837C525.351 190.321 525.444 190.909 525.444 191.602V192.129H519.373V191.015H523.987C523.987 190.624 523.907 190.278 523.748 189.976C523.589 189.671 523.366 189.431 523.077 189.255C522.792 189.08 522.457 188.992 522.073 188.992C521.655 188.992 521.291 189.094 520.979 189.3C520.671 189.502 520.432 189.767 520.263 190.095C520.098 190.42 520.015 190.773 520.015 191.154V192.024C520.015 192.535 520.104 192.969 520.283 193.327C520.465 193.685 520.719 193.958 521.044 194.147C521.369 194.333 521.748 194.426 522.182 194.426C522.464 194.426 522.721 194.386 522.953 194.306C523.185 194.223 523.385 194.101 523.555 193.938C523.724 193.776 523.853 193.576 523.942 193.337L525.349 193.59C525.237 194.005 525.034 194.368 524.743 194.679C524.454 194.987 524.091 195.228 523.654 195.4C523.22 195.569 522.724 195.654 522.167 195.654ZM534.363 187.863V189.056H530.192V187.863H534.363ZM531.31 186.034H532.797V193.257C532.797 193.546 532.84 193.763 532.926 193.909C533.012 194.051 533.123 194.149 533.259 194.202C533.398 194.252 533.549 194.277 533.711 194.277C533.831 194.277 533.935 194.268 534.025 194.252C534.114 194.235 534.184 194.222 534.233 194.212L534.502 195.44C534.416 195.473 534.293 195.506 534.134 195.539C533.975 195.576 533.776 195.596 533.537 195.599C533.146 195.606 532.782 195.536 532.444 195.39C532.106 195.244 531.832 195.019 531.623 194.714C531.415 194.409 531.31 194.026 531.31 193.566V186.034ZM537.658 190.965V195.5H536.171V185.318H537.638V189.106H537.732C537.911 188.695 538.185 188.369 538.553 188.127C538.92 187.885 539.401 187.764 539.994 187.764C540.518 187.764 540.975 187.871 541.366 188.087C541.761 188.302 542.066 188.624 542.281 189.051C542.5 189.476 542.609 190.006 542.609 190.642V195.5H541.123V190.821C541.123 190.261 540.979 189.827 540.69 189.519C540.402 189.207 540.001 189.051 539.487 189.051C539.136 189.051 538.821 189.126 538.543 189.275C538.268 189.424 538.05 189.643 537.891 189.931C537.736 190.216 537.658 190.561 537.658 190.965ZM544.593 195.5V187.863H546.08V195.5H544.593ZM545.344 186.685C545.085 186.685 544.863 186.599 544.678 186.426C544.495 186.251 544.404 186.042 544.404 185.8C544.404 185.555 544.495 185.346 544.678 185.174C544.863 184.998 545.085 184.91 545.344 184.91C545.602 184.91 545.823 184.998 546.005 185.174C546.191 185.346 546.283 185.555 546.283 185.8C546.283 186.042 546.191 186.251 546.005 186.426C545.823 186.599 545.602 186.685 545.344 186.685ZM549.566 190.965V195.5H548.079V187.863H549.506V189.106H549.601C549.776 188.702 550.051 188.377 550.426 188.132C550.804 187.886 551.279 187.764 551.853 187.764C552.373 187.764 552.829 187.873 553.22 188.092C553.611 188.307 553.914 188.629 554.13 189.056C554.345 189.484 554.453 190.013 554.453 190.642V195.5H552.966V190.821C552.966 190.268 552.822 189.835 552.534 189.524C552.246 189.209 551.849 189.051 551.346 189.051C551.001 189.051 550.694 189.126 550.426 189.275C550.161 189.424 549.95 189.643 549.795 189.931C549.642 190.216 549.566 190.561 549.566 190.965ZM559.648 198.522C559.042 198.522 558.52 198.443 558.082 198.284C557.648 198.125 557.293 197.914 557.018 197.652C556.743 197.39 556.538 197.104 556.402 196.792L557.68 196.265C557.769 196.411 557.888 196.565 558.037 196.727C558.19 196.893 558.395 197.034 558.654 197.15C558.916 197.266 559.252 197.324 559.663 197.324C560.227 197.324 560.692 197.187 561.06 196.911C561.428 196.64 561.612 196.205 561.612 195.609V194.107H561.518C561.428 194.27 561.299 194.451 561.13 194.649C560.964 194.848 560.735 195.021 560.444 195.166C560.152 195.312 559.773 195.385 559.305 195.385C558.702 195.385 558.158 195.244 557.675 194.963C557.194 194.678 556.813 194.258 556.531 193.705C556.253 193.148 556.113 192.464 556.113 191.652C556.113 190.839 556.251 190.143 556.526 189.563C556.805 188.983 557.186 188.539 557.67 188.231C558.153 187.919 558.702 187.764 559.315 187.764C559.789 187.764 560.172 187.843 560.464 188.002C560.755 188.158 560.982 188.34 561.145 188.549C561.31 188.758 561.438 188.942 561.528 189.101H561.637V187.863H563.094V195.669C563.094 196.325 562.941 196.863 562.636 197.284C562.331 197.705 561.919 198.017 561.398 198.219C560.881 198.421 560.298 198.522 559.648 198.522ZM559.633 194.152C560.061 194.152 560.422 194.053 560.717 193.854C561.015 193.652 561.241 193.363 561.393 192.989C561.549 192.611 561.627 192.159 561.627 191.632C561.627 191.118 561.551 190.665 561.398 190.274C561.246 189.883 561.022 189.578 560.727 189.36C560.432 189.138 560.068 189.027 559.633 189.027C559.186 189.027 558.813 189.143 558.515 189.375C558.216 189.603 557.991 189.915 557.839 190.309C557.689 190.704 557.615 191.144 557.615 191.632C557.615 192.132 557.691 192.571 557.844 192.949C557.996 193.327 558.221 193.622 558.52 193.834C558.821 194.046 559.193 194.152 559.633 194.152Z" fill="black"/>
<defs>
<filter id="filter0_i_562_3994" x="40" y="40" width="720" height="240" filterUnits="userSpaceOnUse" color-interpolation-filters="sRGB">
<feFlood flood-opacity="0" result="BackgroundImageFix"/>
<feBlend mode="normal" in="SourceGraphic" in2="BackgroundImageFix" result="shape"/>
<feColorMatrix in="SourceAlpha" type="matrix" values="0 0 0 0 0 0 0 0 0 0 0 0 0 0 0 0 0 0 127 0" result="hardAlpha"/>
<feOffset dy="4"/>
<feComposite in2="hardAlpha" operator="arithmetic" k2="-1" k3="1"/>
<feColorMatrix type="matrix" values="0 0 0 0 0.741176 0 0 0 0 0.152941 0 0 0 0 0.117647 0 0 0 1 0"/>
<feBlend mode="normal" in2="shape" result="effect1_innerShadow_562_3994"/>
</filter>
</defs>
</svg>
