<svg width="1560" height="500" viewBox="0 0 1560 500" fill="none" xmlns="http://www.w3.org/2000/svg">
<g filter="url(#filter0_i_1732_45159)">
<rect width="720" height="420" transform="translate(40 40)" fill="#F7F8FC"/>
<g clip-path="url(#clip0_1732_45159)">
<path d="M93.1186 92L97.7683 87.3502C98.0772 87.0414 98.0772 86.5406 97.7683 86.2317C97.4594 85.9228 96.9586 85.9228 96.6498 86.2317L92 90.8814L87.3502 86.2317C87.0414 85.9228 86.5406 85.9228 86.2317 86.2317C85.9228 86.5406 85.9228 87.0414 86.2317 87.3502L90.8814 92L86.2317 96.6498C85.9228 96.9586 85.9228 97.4594 86.2317 97.7683C86.5406 98.0772 87.0414 98.0772 87.3502 97.7683L92 93.1186L96.6498 97.7683C96.9586 98.0772 97.4594 98.0772 97.7683 97.7683C98.0772 97.4594 98.0772 96.9586 97.7683 96.6498L93.1186 92ZM92 104C85.3726 104 80 98.6274 80 92C80 85.3726 85.3726 80 92 80C98.6274 80 104 85.3726 104 92C104 98.6274 98.6274 104 92 104Z" fill="#BD271E"/>
</g>
<path d="M123.063 100H117.391V84H123.109C124.719 84 126.104 84.3203 127.266 84.9609C128.427 85.5964 129.32 86.5104 129.945 87.7031C130.576 88.8958 130.891 90.3229 130.891 91.9844C130.891 93.651 130.576 95.0833 129.945 96.2812C129.32 97.4792 128.422 98.3984 127.25 99.0391C126.083 99.6797 124.688 100 123.063 100ZM120.773 97.1016H122.922C123.922 97.1016 124.763 96.9245 125.445 96.5703C126.133 96.2109 126.648 95.6562 126.992 94.9062C127.341 94.151 127.516 93.1771 127.516 91.9844C127.516 90.8021 127.341 89.8359 126.992 89.0859C126.648 88.3359 126.135 87.7839 125.453 87.4297C124.771 87.0755 123.93 86.8984 122.93 86.8984H120.773V97.1016ZM138.756 100.234C137.542 100.234 136.493 99.9766 135.607 99.4609C134.727 98.9401 134.048 98.2161 133.568 97.2891C133.089 96.3568 132.85 95.276 132.85 94.0469C132.85 92.8073 133.089 91.724 133.568 90.7969C134.048 89.8646 134.727 89.1406 135.607 88.625C136.493 88.1042 137.542 87.8438 138.756 87.8438C139.969 87.8438 141.016 88.1042 141.896 88.625C142.782 89.1406 143.464 89.8646 143.943 90.7969C144.423 91.724 144.662 92.8073 144.662 94.0469C144.662 95.276 144.423 96.3568 143.943 97.2891C143.464 98.2161 142.782 98.9401 141.896 99.4609C141.016 99.9766 139.969 100.234 138.756 100.234ZM138.771 97.6562C139.324 97.6562 139.785 97.5 140.154 97.1875C140.524 96.8698 140.803 96.4375 140.99 95.8906C141.183 95.3437 141.279 94.7214 141.279 94.0234C141.279 93.3255 141.183 92.7031 140.99 92.1562C140.803 91.6094 140.524 91.1771 140.154 90.8594C139.785 90.5417 139.324 90.3828 138.771 90.3828C138.214 90.3828 137.745 90.5417 137.365 90.8594C136.99 91.1771 136.706 91.6094 136.514 92.1562C136.326 92.7031 136.232 93.3255 136.232 94.0234C136.232 94.7214 136.326 95.3437 136.514 95.8906C136.706 96.4375 136.99 96.8698 137.365 97.1875C137.745 97.5 138.214 97.6562 138.771 97.6562ZM150.154 93.0625V100H146.826V88H149.998V90.1172H150.139C150.404 89.4193 150.85 88.8672 151.475 88.4609C152.1 88.0495 152.857 87.8438 153.748 87.8438C154.581 87.8438 155.308 88.026 155.928 88.3906C156.548 88.7552 157.029 89.276 157.373 89.9531C157.717 90.625 157.889 91.4271 157.889 92.3594V100H154.561V92.9531C154.566 92.2187 154.378 91.6458 153.998 91.2344C153.618 90.8177 153.094 90.6094 152.428 90.6094C151.98 90.6094 151.584 90.7057 151.24 90.8984C150.902 91.0911 150.636 91.3724 150.443 91.7422C150.256 92.1068 150.16 92.5469 150.154 93.0625ZM163.301 84V85.6875C163.301 86.1667 163.207 86.6562 163.02 87.1563C162.837 87.651 162.592 88.1198 162.285 88.5625C161.978 89 161.642 89.3724 161.277 89.6797L159.809 88.8125C160.069 88.401 160.298 87.9453 160.496 87.4453C160.699 86.9453 160.801 86.3646 160.801 85.7031V84H163.301ZM172.309 88V90.5H165.082V88H172.309ZM166.723 85.125H170.051V96.3125C170.051 96.6198 170.098 96.8594 170.191 97.0312C170.285 97.1979 170.415 97.3151 170.582 97.3828C170.754 97.4505 170.952 97.4844 171.176 97.4844C171.332 97.4844 171.488 97.4714 171.645 97.4453C171.801 97.4141 171.921 97.3906 172.004 97.375L172.527 99.8516C172.361 99.9036 172.126 99.9635 171.824 100.031C171.522 100.104 171.155 100.148 170.723 100.164C169.921 100.195 169.217 100.089 168.613 99.8437C168.014 99.599 167.548 99.2187 167.215 98.7031C166.882 98.1875 166.717 97.5365 166.723 96.75V85.125Z" fill="#BD271E"/>
</g>
<g filter="url(#filter1_dd_1732_45159)">
<rect x="80" y="134" width="600" height="270" rx="6" fill="white"/>
</g>
<path d="M101.693 170.375V155.994H106.176V157.801H104.034V168.562H106.176V170.375H101.693ZM107.558 169V157.364H115.263V159.392H110.018V162.165H114.751V164.193H110.018V169H107.558ZM119.293 157.364V169H116.872V157.364H119.293ZM121.232 169V160.273H123.652V169H121.232ZM122.447 159.148C122.088 159.148 121.779 159.028 121.521 158.79C121.268 158.547 121.141 158.258 121.141 157.92C121.141 157.587 121.268 157.301 121.521 157.062C121.779 156.82 122.088 156.699 122.447 156.699C122.807 156.699 123.114 156.82 123.368 157.062C123.625 157.301 123.754 157.587 123.754 157.92C123.754 158.258 123.625 158.547 123.368 158.79C123.114 159.028 122.807 159.148 122.447 159.148ZM129.523 172.455C128.739 172.455 128.066 172.347 127.506 172.131C126.949 171.919 126.506 171.629 126.176 171.261C125.847 170.894 125.633 170.481 125.534 170.023L127.773 169.722C127.841 169.896 127.949 170.059 128.097 170.21C128.244 170.362 128.439 170.483 128.682 170.574C128.928 170.669 129.227 170.716 129.58 170.716C130.106 170.716 130.54 170.587 130.881 170.33C131.225 170.076 131.398 169.65 131.398 169.051V167.455H131.295C131.189 167.697 131.03 167.926 130.818 168.142C130.606 168.358 130.333 168.534 130 168.67C129.667 168.807 129.269 168.875 128.807 168.875C128.152 168.875 127.555 168.723 127.017 168.42C126.483 168.114 126.057 167.646 125.739 167.017C125.424 166.384 125.267 165.585 125.267 164.619C125.267 163.631 125.428 162.805 125.75 162.142C126.072 161.479 126.5 160.983 127.034 160.653C127.572 160.324 128.161 160.159 128.801 160.159C129.29 160.159 129.699 160.242 130.028 160.409C130.358 160.572 130.623 160.777 130.824 161.023C131.028 161.265 131.186 161.504 131.295 161.739H131.386V160.273H133.79V169.085C133.79 169.828 133.608 170.449 133.244 170.949C132.881 171.449 132.377 171.824 131.733 172.074C131.093 172.328 130.356 172.455 129.523 172.455ZM129.574 167.057C129.964 167.057 130.294 166.96 130.562 166.767C130.835 166.57 131.044 166.29 131.188 165.926C131.335 165.559 131.409 165.119 131.409 164.608C131.409 164.097 131.337 163.653 131.193 163.278C131.049 162.9 130.841 162.606 130.568 162.398C130.295 162.189 129.964 162.085 129.574 162.085C129.176 162.085 128.841 162.193 128.568 162.409C128.295 162.621 128.089 162.917 127.949 163.295C127.809 163.674 127.739 164.112 127.739 164.608C127.739 165.112 127.809 165.547 127.949 165.915C128.093 166.278 128.299 166.561 128.568 166.761C128.841 166.958 129.176 167.057 129.574 167.057ZM138.136 163.955V169H135.716V157.364H138.068V161.812H138.17C138.367 161.297 138.686 160.894 139.125 160.602C139.564 160.307 140.116 160.159 140.778 160.159C141.384 160.159 141.913 160.292 142.364 160.557C142.818 160.818 143.17 161.195 143.42 161.688C143.674 162.176 143.799 162.761 143.795 163.443V169H141.375V163.875C141.379 163.337 141.242 162.919 140.966 162.619C140.693 162.32 140.311 162.17 139.818 162.17C139.489 162.17 139.197 162.241 138.943 162.381C138.693 162.521 138.496 162.725 138.352 162.994C138.212 163.259 138.14 163.58 138.136 163.955ZM150.342 160.273V162.091H145.087V160.273H150.342ZM146.28 158.182H148.7V166.318C148.7 166.542 148.734 166.716 148.803 166.841C148.871 166.962 148.965 167.047 149.087 167.097C149.212 167.146 149.356 167.17 149.518 167.17C149.632 167.17 149.746 167.161 149.859 167.142C149.973 167.119 150.06 167.102 150.121 167.091L150.501 168.892C150.38 168.93 150.21 168.973 149.99 169.023C149.77 169.076 149.503 169.108 149.189 169.119C148.606 169.142 148.094 169.064 147.655 168.886C147.219 168.708 146.88 168.432 146.638 168.057C146.395 167.682 146.276 167.208 146.28 166.636V158.182ZM159.071 162.761L156.855 162.898C156.817 162.708 156.736 162.538 156.611 162.386C156.486 162.231 156.321 162.108 156.116 162.017C155.916 161.922 155.675 161.875 155.395 161.875C155.02 161.875 154.704 161.955 154.446 162.114C154.188 162.269 154.06 162.477 154.06 162.739C154.06 162.947 154.143 163.123 154.31 163.267C154.476 163.411 154.762 163.527 155.168 163.614L156.747 163.932C157.596 164.106 158.228 164.386 158.645 164.773C159.062 165.159 159.27 165.667 159.27 166.295C159.27 166.867 159.101 167.369 158.764 167.801C158.431 168.233 157.973 168.57 157.389 168.812C156.81 169.051 156.141 169.17 155.384 169.17C154.228 169.17 153.308 168.93 152.622 168.449C151.94 167.964 151.541 167.305 151.423 166.472L153.804 166.347C153.876 166.699 154.05 166.968 154.327 167.153C154.603 167.335 154.957 167.426 155.389 167.426C155.813 167.426 156.154 167.345 156.412 167.182C156.673 167.015 156.806 166.801 156.81 166.54C156.806 166.32 156.713 166.14 156.531 166C156.349 165.856 156.069 165.746 155.69 165.67L154.179 165.369C153.327 165.199 152.692 164.903 152.276 164.483C151.863 164.062 151.656 163.527 151.656 162.875C151.656 162.314 151.808 161.831 152.111 161.426C152.418 161.021 152.848 160.708 153.401 160.489C153.957 160.269 154.609 160.159 155.355 160.159C156.457 160.159 157.325 160.392 157.957 160.858C158.594 161.324 158.965 161.958 159.071 162.761ZM164.68 157.148V171.528H160.197V169.716H162.339V158.955H160.197V157.148H164.68ZM175.214 169H171.089V157.364H175.249C176.419 157.364 177.427 157.597 178.271 158.062C179.116 158.525 179.766 159.189 180.22 160.057C180.679 160.924 180.908 161.962 180.908 163.17C180.908 164.383 180.679 165.424 180.22 166.295C179.766 167.167 179.112 167.835 178.26 168.301C177.411 168.767 176.396 169 175.214 169ZM173.55 166.892H175.112C175.839 166.892 176.451 166.763 176.947 166.506C177.447 166.244 177.822 165.841 178.072 165.295C178.326 164.746 178.453 164.038 178.453 163.17C178.453 162.311 178.326 161.608 178.072 161.062C177.822 160.517 177.449 160.116 176.953 159.858C176.457 159.6 175.845 159.472 175.118 159.472H173.55V166.892ZM186.662 169.17C185.764 169.17 184.991 168.989 184.344 168.625C183.7 168.258 183.204 167.739 182.855 167.068C182.507 166.394 182.332 165.597 182.332 164.676C182.332 163.778 182.507 162.991 182.855 162.312C183.204 161.634 183.694 161.106 184.327 160.727C184.963 160.348 185.709 160.159 186.565 160.159C187.141 160.159 187.677 160.252 188.173 160.438C188.673 160.619 189.109 160.894 189.48 161.261C189.855 161.629 190.147 162.091 190.355 162.648C190.563 163.201 190.668 163.848 190.668 164.591V165.256H183.298V163.756H188.389C188.389 163.407 188.313 163.098 188.162 162.83C188.01 162.561 187.8 162.35 187.531 162.199C187.266 162.044 186.957 161.966 186.605 161.966C186.238 161.966 185.912 162.051 185.628 162.222C185.348 162.388 185.128 162.614 184.969 162.898C184.81 163.178 184.728 163.491 184.724 163.835V165.261C184.724 165.693 184.804 166.066 184.963 166.381C185.126 166.695 185.355 166.938 185.651 167.108C185.946 167.278 186.296 167.364 186.702 167.364C186.971 167.364 187.217 167.326 187.44 167.25C187.664 167.174 187.855 167.061 188.014 166.909C188.173 166.758 188.295 166.572 188.378 166.352L190.616 166.5C190.503 167.038 190.27 167.508 189.918 167.909C189.569 168.307 189.118 168.617 188.565 168.841C188.016 169.061 187.382 169.17 186.662 169.17ZM194.668 157.364V169H192.247V157.364H194.668ZM199.095 169.165C198.538 169.165 198.042 169.068 197.607 168.875C197.171 168.678 196.826 168.388 196.572 168.006C196.322 167.619 196.197 167.138 196.197 166.562C196.197 166.078 196.286 165.67 196.464 165.341C196.643 165.011 196.885 164.746 197.192 164.545C197.499 164.345 197.847 164.193 198.237 164.091C198.631 163.989 199.044 163.917 199.476 163.875C199.983 163.822 200.393 163.773 200.703 163.727C201.014 163.678 201.239 163.606 201.379 163.511C201.519 163.417 201.589 163.277 201.589 163.091V163.057C201.589 162.697 201.476 162.419 201.249 162.222C201.025 162.025 200.707 161.926 200.294 161.926C199.858 161.926 199.512 162.023 199.254 162.216C198.997 162.405 198.826 162.644 198.743 162.932L196.504 162.75C196.618 162.22 196.841 161.761 197.175 161.375C197.508 160.985 197.938 160.686 198.464 160.477C198.995 160.265 199.608 160.159 200.305 160.159C200.79 160.159 201.254 160.216 201.697 160.33C202.144 160.443 202.54 160.619 202.885 160.858C203.233 161.097 203.508 161.403 203.709 161.778C203.91 162.15 204.01 162.595 204.01 163.114V169H201.714V167.79H201.646C201.506 168.062 201.319 168.303 201.084 168.511C200.849 168.716 200.567 168.877 200.237 168.994C199.908 169.108 199.527 169.165 199.095 169.165ZM199.788 167.494C200.144 167.494 200.459 167.424 200.732 167.284C201.004 167.14 201.218 166.947 201.374 166.705C201.529 166.462 201.607 166.187 201.607 165.881V164.955C201.531 165.004 201.427 165.049 201.294 165.091C201.165 165.129 201.019 165.165 200.857 165.199C200.694 165.229 200.531 165.258 200.368 165.284C200.205 165.307 200.057 165.328 199.925 165.347C199.641 165.388 199.393 165.455 199.18 165.545C198.968 165.636 198.804 165.759 198.686 165.915C198.569 166.066 198.51 166.256 198.51 166.483C198.51 166.812 198.629 167.064 198.868 167.239C199.11 167.409 199.417 167.494 199.788 167.494ZM207.07 172.273C206.763 172.273 206.475 172.248 206.206 172.199C205.941 172.153 205.721 172.095 205.547 172.023L206.092 170.216C206.376 170.303 206.632 170.35 206.859 170.358C207.09 170.366 207.289 170.313 207.456 170.199C207.626 170.085 207.765 169.892 207.871 169.619L208.013 169.25L204.882 160.273H207.428L209.234 166.682H209.325L211.149 160.273H213.712L210.32 169.943C210.157 170.413 209.935 170.822 209.655 171.17C209.378 171.523 209.028 171.794 208.604 171.983C208.179 172.176 207.668 172.273 207.07 172.273ZM222.212 162.761L219.996 162.898C219.958 162.708 219.876 162.538 219.751 162.386C219.626 162.231 219.462 162.108 219.257 162.017C219.056 161.922 218.816 161.875 218.536 161.875C218.161 161.875 217.844 161.955 217.587 162.114C217.329 162.269 217.2 162.477 217.2 162.739C217.2 162.947 217.284 163.123 217.45 163.267C217.617 163.411 217.903 163.527 218.308 163.614L219.888 163.932C220.736 164.106 221.369 164.386 221.786 164.773C222.202 165.159 222.411 165.667 222.411 166.295C222.411 166.867 222.242 167.369 221.905 167.801C221.571 168.233 221.113 168.57 220.53 168.812C219.95 169.051 219.282 169.17 218.524 169.17C217.369 169.17 216.448 168.93 215.763 168.449C215.081 167.964 214.681 167.305 214.564 166.472L216.945 166.347C217.017 166.699 217.191 166.968 217.467 167.153C217.744 167.335 218.098 167.426 218.53 167.426C218.954 167.426 219.295 167.345 219.553 167.182C219.814 167.015 219.946 166.801 219.95 166.54C219.946 166.32 219.854 166.14 219.672 166C219.49 165.856 219.21 165.746 218.831 165.67L217.32 165.369C216.467 165.199 215.833 164.903 215.416 164.483C215.003 164.062 214.797 163.527 214.797 162.875C214.797 162.314 214.948 161.831 215.251 161.426C215.558 161.021 215.988 160.708 216.541 160.489C217.098 160.269 217.75 160.159 218.496 160.159C219.598 160.159 220.465 160.392 221.098 160.858C221.734 161.324 222.106 161.958 222.212 162.761Z" fill="#343741"/>
<path d="M112 293.222L103.273 293.222L103.273 287.444L104.794 287.444L104.794 291.377L106.874 291.377L106.874 287.827L108.395 287.827L108.395 291.377L112 291.377L112 293.222ZM103.273 284.421L112 284.421L112 286.237L103.273 286.237L103.273 284.421ZM112 282.967L105.455 282.967L105.455 281.152L112 281.152L112 282.967ZM104.611 282.055C104.611 282.325 104.521 282.556 104.342 282.75C104.161 282.94 103.943 283.035 103.69 283.035C103.44 283.035 103.226 282.94 103.047 282.75C102.865 282.556 102.774 282.325 102.774 282.055C102.774 281.785 102.865 281.555 103.047 281.365C103.226 281.172 103.44 281.075 103.69 281.075C103.943 281.075 104.161 281.172 104.342 281.365C104.521 281.555 104.611 281.785 104.611 282.055ZM114.591 276.749C114.591 277.337 114.51 277.841 114.348 278.261C114.189 278.679 113.972 279.011 113.696 279.259C113.42 279.506 113.111 279.666 112.767 279.74L112.541 278.061C112.672 278.01 112.794 277.929 112.908 277.818C113.021 277.707 113.112 277.561 113.18 277.379C113.251 277.195 113.287 276.97 113.287 276.706C113.287 276.311 113.19 275.986 112.997 275.73C112.807 275.472 112.487 275.342 112.038 275.342L110.841 275.342L110.841 275.419C111.023 275.499 111.195 275.618 111.357 275.777C111.518 275.936 111.651 276.141 111.753 276.391C111.855 276.641 111.906 276.939 111.906 277.286C111.906 277.777 111.793 278.224 111.565 278.628C111.335 279.028 110.984 279.348 110.513 279.587C110.038 279.822 109.439 279.94 108.714 279.94C107.973 279.94 107.354 279.82 106.857 279.578C106.359 279.337 105.987 279.016 105.74 278.615C105.493 278.212 105.369 277.77 105.369 277.29C105.369 276.923 105.432 276.616 105.557 276.369C105.679 276.122 105.832 275.923 106.017 275.773C106.199 275.619 106.378 275.501 106.554 275.419L106.554 275.351L105.455 275.351L105.455 273.548L112.064 273.548C112.621 273.548 113.087 273.685 113.462 273.957C113.837 274.23 114.118 274.608 114.305 275.091C114.496 275.571 114.591 276.124 114.591 276.749ZM110.543 276.71C110.543 276.418 110.47 276.17 110.325 275.969C110.178 275.764 109.967 275.608 109.695 275.5C109.419 275.389 109.089 275.334 108.706 275.334C108.322 275.334 107.99 275.388 107.709 275.496C107.425 275.604 107.205 275.76 107.048 275.964C106.892 276.169 106.814 276.418 106.814 276.71C106.814 277.009 106.895 277.26 107.057 277.464C107.216 277.669 107.437 277.824 107.722 277.929C108.006 278.034 108.334 278.087 108.706 278.087C109.084 278.087 109.411 278.034 109.686 277.929C109.959 277.821 110.17 277.666 110.321 277.464C110.469 277.26 110.543 277.009 110.543 276.71ZM108.216 270.288L112 270.288L112 272.104L103.273 272.104L103.273 270.339L106.609 270.339L106.609 270.263C106.223 270.115 105.92 269.876 105.702 269.547C105.48 269.217 105.369 268.804 105.369 268.307C105.369 267.852 105.469 267.456 105.668 267.118C105.864 266.777 106.146 266.513 106.516 266.325C106.882 266.135 107.321 266.041 107.832 266.044L112 266.044L112 267.859L108.156 267.859C107.753 267.857 107.439 267.959 107.214 268.166C106.99 268.371 106.878 268.658 106.878 269.027C106.878 269.274 106.93 269.493 107.036 269.683C107.141 269.871 107.294 270.018 107.496 270.126C107.695 270.232 107.935 270.286 108.216 270.288ZM105.455 261.134L106.818 261.134L106.818 265.076L105.455 265.076L105.455 261.134ZM103.886 264.181L103.886 262.365L109.989 262.365C110.156 262.365 110.287 262.34 110.381 262.289C110.472 262.238 110.536 262.167 110.572 262.076C110.609 261.982 110.628 261.874 110.628 261.752C110.628 261.667 110.621 261.581 110.607 261.496C110.589 261.411 110.577 261.346 110.568 261.3L111.919 261.015C111.947 261.105 111.98 261.233 112.017 261.398C112.057 261.563 112.081 261.763 112.089 261.999C112.107 262.436 112.048 262.82 111.915 263.15C111.781 263.476 111.574 263.73 111.293 263.912C111.011 264.094 110.656 264.184 110.227 264.181L103.886 264.181ZM107.321 254.587L107.423 256.249C107.281 256.278 107.153 256.339 107.04 256.433C106.923 256.526 106.831 256.65 106.763 256.803C106.692 256.954 106.656 257.134 106.656 257.344C106.656 257.626 106.716 257.863 106.835 258.056C106.952 258.249 107.108 258.346 107.304 258.346C107.46 258.346 107.592 258.283 107.7 258.158C107.808 258.033 107.895 257.819 107.96 257.515L108.199 256.33C108.33 255.694 108.54 255.219 108.83 254.907C109.119 254.594 109.5 254.438 109.972 254.438C110.401 254.438 110.777 254.565 111.101 254.817C111.425 255.067 111.678 255.411 111.859 255.849C112.038 256.283 112.128 256.785 112.128 257.353C112.128 258.219 111.947 258.91 111.587 259.424C111.223 259.935 110.729 260.235 110.104 260.323L110.01 258.538C110.274 258.484 110.476 258.353 110.615 258.146C110.751 257.938 110.82 257.673 110.82 257.349C110.82 257.031 110.759 256.775 110.636 256.582C110.511 256.386 110.351 256.286 110.155 256.283C109.99 256.286 109.855 256.356 109.75 256.492C109.642 256.629 109.56 256.839 109.503 257.123L109.277 258.256C109.149 258.896 108.928 259.371 108.612 259.684C108.297 259.994 107.895 260.148 107.406 260.148C106.986 260.148 106.624 260.035 106.32 259.808C106.016 259.577 105.781 259.255 105.616 258.84C105.452 258.423 105.369 257.934 105.369 257.374C105.369 256.548 105.544 255.897 105.893 255.423C106.243 254.945 106.719 254.667 107.321 254.587Z" fill="#343741"/>
<path d="M371.046 381V372.273H372.891V375.874H376.637V372.273H378.477V381H376.637V377.395H372.891V381H371.046ZM382.922 381.128C382.26 381.128 381.688 380.987 381.205 380.706C380.725 380.422 380.354 380.027 380.093 379.521C379.831 379.013 379.7 378.423 379.7 377.753C379.7 377.077 379.831 376.486 380.093 375.98C380.354 375.472 380.725 375.077 381.205 374.795C381.688 374.511 382.26 374.369 382.922 374.369C383.584 374.369 384.155 374.511 384.635 374.795C385.118 375.077 385.49 375.472 385.752 375.98C386.013 376.486 386.144 377.077 386.144 377.753C386.144 378.423 386.013 379.013 385.752 379.521C385.49 380.027 385.118 380.422 384.635 380.706C384.155 380.987 383.584 381.128 382.922 381.128ZM382.931 379.722C383.232 379.722 383.483 379.636 383.685 379.466C383.887 379.293 384.039 379.057 384.141 378.759C384.246 378.46 384.298 378.121 384.298 377.74C384.298 377.359 384.246 377.02 384.141 376.722C384.039 376.423 383.887 376.187 383.685 376.014C383.483 375.841 383.232 375.754 382.931 375.754C382.627 375.754 382.371 375.841 382.164 376.014C381.959 376.187 381.804 376.423 381.699 376.722C381.597 377.02 381.546 377.359 381.546 377.74C381.546 378.121 381.597 378.46 381.699 378.759C381.804 379.057 381.959 379.293 382.164 379.466C382.371 379.636 382.627 379.722 382.931 379.722ZM391.521 378.213V374.455H393.337V381H391.594V379.811H391.526C391.378 380.195 391.132 380.503 390.789 380.736C390.448 380.969 390.031 381.085 389.54 381.085C389.102 381.085 388.718 380.986 388.385 380.787C388.053 380.588 387.793 380.305 387.605 379.939C387.421 379.572 387.327 379.134 387.324 378.622V374.455H389.139V378.298C389.142 378.685 389.246 378.99 389.45 379.214C389.655 379.439 389.929 379.551 390.273 379.551C390.492 379.551 390.696 379.501 390.887 379.402C391.077 379.3 391.23 379.149 391.347 378.95C391.466 378.751 391.524 378.506 391.521 378.213ZM394.789 381V374.455H396.549V375.597H396.617C396.736 375.19 396.937 374.884 397.218 374.676C397.499 374.466 397.823 374.361 398.189 374.361C398.28 374.361 398.378 374.366 398.483 374.378C398.589 374.389 398.681 374.405 398.76 374.425V376.036C398.675 376.01 398.557 375.987 398.407 375.967C398.256 375.947 398.118 375.938 397.993 375.938C397.726 375.938 397.488 375.996 397.278 376.112C397.07 376.226 396.905 376.385 396.783 376.589C396.664 376.794 396.604 377.03 396.604 377.297V381H394.789ZM405.145 376.321L403.483 376.423C403.455 376.281 403.394 376.153 403.3 376.04C403.206 375.923 403.083 375.831 402.929 375.763C402.779 375.692 402.598 375.656 402.388 375.656C402.107 375.656 401.869 375.716 401.676 375.835C401.483 375.952 401.387 376.108 401.387 376.304C401.387 376.46 401.449 376.592 401.574 376.7C401.699 376.808 401.914 376.895 402.218 376.96L403.402 377.199C404.039 377.33 404.513 377.54 404.825 377.83C405.138 378.119 405.294 378.5 405.294 378.972C405.294 379.401 405.168 379.777 404.915 380.101C404.665 380.425 404.321 380.678 403.884 380.859C403.449 381.038 402.948 381.128 402.379 381.128C401.513 381.128 400.823 380.947 400.308 380.587C399.797 380.223 399.497 379.729 399.409 379.104L401.195 379.01C401.249 379.274 401.379 379.476 401.587 379.615C401.794 379.751 402.06 379.82 402.384 379.82C402.702 379.82 402.958 379.759 403.151 379.636C403.347 379.511 403.446 379.351 403.449 379.155C403.446 378.99 403.377 378.855 403.24 378.75C403.104 378.642 402.894 378.56 402.61 378.503L401.476 378.277C400.837 378.149 400.361 377.928 400.048 377.612C399.739 377.297 399.584 376.895 399.584 376.406C399.584 375.986 399.698 375.624 399.925 375.32C400.155 375.016 400.477 374.781 400.892 374.616C401.31 374.452 401.798 374.369 402.358 374.369C403.185 374.369 403.835 374.544 404.31 374.893C404.787 375.243 405.066 375.719 405.145 376.321Z" fill="#343741"/>
<rect x="128.5" y="192.5" width="520" height="165" stroke="#B2C8EE"/>
<line x1="129.151" y1="192.524" x2="648.151" y2="357.523" stroke="#B2C8EE"/>
<line x1="648.151" y1="192.476" x2="129.151" y2="357.477" stroke="#B2C8EE"/>
<g filter="url(#filter2_i_1732_45159)">
<rect width="720" height="420" transform="translate(800 40)" fill="#F7F8FC"/>
<g clip-path="url(#clip1_1732_45159)">
<path fill-rule="evenodd" clip-rule="evenodd" d="M852 104C858.627 104 864 98.6274 864 92C864 85.3726 858.627 80 852 80C845.373 80 840 85.3726 840 92C840 98.6274 845.373 104 852 104ZM858.803 87.4617C859.238 87.905 859.232 88.6173 858.788 89.0526L851.152 96.5526C850.714 96.9825 850.013 96.9825 849.575 96.5526L845.212 92.2669C844.768 91.8316 844.762 91.1193 845.197 90.676C845.633 90.2327 846.345 90.2263 846.788 90.6617L850.364 94.1732L857.212 87.4474C857.655 87.012 858.367 87.0184 858.803 87.4617Z" fill="#00BFB3"/>
</g>
<path d="M883.063 100H877.391V84H883.109C884.719 84 886.104 84.3203 887.266 84.9609C888.427 85.5964 889.32 86.5104 889.945 87.7031C890.576 88.8958 890.891 90.3229 890.891 91.9844C890.891 93.651 890.576 95.0833 889.945 96.2812C889.32 97.4792 888.422 98.3984 887.25 99.0391C886.083 99.6797 884.688 100 883.063 100ZM880.773 97.1016H882.922C883.922 97.1016 884.763 96.9245 885.445 96.5703C886.133 96.2109 886.648 95.6562 886.992 94.9062C887.341 94.151 887.516 93.1771 887.516 91.9844C887.516 90.8021 887.341 89.8359 886.992 89.0859C886.648 88.3359 886.135 87.7839 885.453 87.4297C884.771 87.0755 883.93 86.8984 882.93 86.8984H880.773V97.1016ZM898.756 100.234C897.542 100.234 896.493 99.9766 895.607 99.4609C894.727 98.9401 894.048 98.2161 893.568 97.2891C893.089 96.3568 892.85 95.276 892.85 94.0469C892.85 92.8073 893.089 91.724 893.568 90.7969C894.048 89.8646 894.727 89.1406 895.607 88.625C896.493 88.1042 897.542 87.8438 898.756 87.8438C899.969 87.8438 901.016 88.1042 901.896 88.625C902.782 89.1406 903.464 89.8646 903.943 90.7969C904.423 91.724 904.662 92.8073 904.662 94.0469C904.662 95.276 904.423 96.3568 903.943 97.2891C903.464 98.2161 902.782 98.9401 901.896 99.4609C901.016 99.9766 899.969 100.234 898.756 100.234ZM898.771 97.6562C899.324 97.6562 899.785 97.5 900.154 97.1875C900.524 96.8698 900.803 96.4375 900.99 95.8906C901.183 95.3437 901.279 94.7214 901.279 94.0234C901.279 93.3255 901.183 92.7031 900.99 92.1562C900.803 91.6094 900.524 91.1771 900.154 90.8594C899.785 90.5417 899.324 90.3828 898.771 90.3828C898.214 90.3828 897.745 90.5417 897.365 90.8594C896.99 91.1771 896.706 91.6094 896.514 92.1562C896.326 92.7031 896.232 93.3255 896.232 94.0234C896.232 94.7214 896.326 95.3437 896.514 95.8906C896.706 96.4375 896.99 96.8698 897.365 97.1875C897.745 97.5 898.214 97.6562 898.771 97.6562Z" fill="#00BFB3"/>
</g>
<g filter="url(#filter3_dd_1732_45159)">
<rect x="840" y="134" width="600" height="270" rx="6" fill="white"/>
</g>
<path d="M865.136 169H861.011V157.364H865.17C866.341 157.364 867.348 157.597 868.193 158.062C869.038 158.525 869.688 159.189 870.142 160.057C870.6 160.924 870.83 161.962 870.83 163.17C870.83 164.383 870.6 165.424 870.142 166.295C869.688 167.167 869.034 167.835 868.182 168.301C867.333 168.767 866.318 169 865.136 169ZM863.472 166.892H865.034C865.761 166.892 866.373 166.763 866.869 166.506C867.369 166.244 867.744 165.841 867.994 165.295C868.248 164.746 868.375 164.038 868.375 163.17C868.375 162.311 868.248 161.608 867.994 161.062C867.744 160.517 867.371 160.116 866.875 159.858C866.379 159.6 865.767 159.472 865.04 159.472H863.472V166.892ZM876.584 169.17C875.686 169.17 874.913 168.989 874.266 168.625C873.622 168.258 873.125 167.739 872.777 167.068C872.429 166.394 872.254 165.597 872.254 164.676C872.254 163.778 872.429 162.991 872.777 162.312C873.125 161.634 873.616 161.106 874.249 160.727C874.885 160.348 875.631 160.159 876.487 160.159C877.063 160.159 877.599 160.252 878.095 160.438C878.595 160.619 879.031 160.894 879.402 161.261C879.777 161.629 880.069 162.091 880.277 162.648C880.485 163.201 880.589 163.848 880.589 164.591V165.256H873.22V163.756H878.311C878.311 163.407 878.235 163.098 878.084 162.83C877.932 162.561 877.722 162.35 877.453 162.199C877.188 162.044 876.879 161.966 876.527 161.966C876.16 161.966 875.834 162.051 875.55 162.222C875.269 162.388 875.05 162.614 874.891 162.898C874.732 163.178 874.65 163.491 874.646 163.835V165.261C874.646 165.693 874.726 166.066 874.885 166.381C875.048 166.695 875.277 166.938 875.572 167.108C875.868 167.278 876.218 167.364 876.624 167.364C876.893 167.364 877.139 167.326 877.362 167.25C877.586 167.174 877.777 167.061 877.936 166.909C878.095 166.758 878.216 166.572 878.3 166.352L880.538 166.5C880.425 167.038 880.192 167.508 879.839 167.909C879.491 168.307 879.04 168.617 878.487 168.841C877.938 169.061 877.304 169.17 876.584 169.17ZM884.589 157.364V169H882.169V157.364H884.589ZM889.017 169.165C888.46 169.165 887.964 169.068 887.528 168.875C887.093 168.678 886.748 168.388 886.494 168.006C886.244 167.619 886.119 167.138 886.119 166.562C886.119 166.078 886.208 165.67 886.386 165.341C886.564 165.011 886.807 164.746 887.114 164.545C887.42 164.345 887.769 164.193 888.159 164.091C888.553 163.989 888.966 163.917 889.398 163.875C889.905 163.822 890.314 163.773 890.625 163.727C890.936 163.678 891.161 163.606 891.301 163.511C891.441 163.417 891.511 163.277 891.511 163.091V163.057C891.511 162.697 891.398 162.419 891.17 162.222C890.947 162.025 890.629 161.926 890.216 161.926C889.78 161.926 889.434 162.023 889.176 162.216C888.919 162.405 888.748 162.644 888.665 162.932L886.426 162.75C886.54 162.22 886.763 161.761 887.097 161.375C887.43 160.985 887.86 160.686 888.386 160.477C888.917 160.265 889.53 160.159 890.227 160.159C890.712 160.159 891.176 160.216 891.619 160.33C892.066 160.443 892.462 160.619 892.807 160.858C893.155 161.097 893.43 161.403 893.631 161.778C893.831 162.15 893.932 162.595 893.932 163.114V169H891.636V167.79H891.568C891.428 168.062 891.241 168.303 891.006 168.511C890.771 168.716 890.489 168.877 890.159 168.994C889.83 169.108 889.449 169.165 889.017 169.165ZM889.71 167.494C890.066 167.494 890.381 167.424 890.653 167.284C890.926 167.14 891.14 166.947 891.295 166.705C891.451 166.462 891.528 166.187 891.528 165.881V164.955C891.453 165.004 891.348 165.049 891.216 165.091C891.087 165.129 890.941 165.165 890.778 165.199C890.616 165.229 890.453 165.258 890.29 165.284C890.127 165.307 889.979 165.328 889.847 165.347C889.563 165.388 889.314 165.455 889.102 165.545C888.89 165.636 888.725 165.759 888.608 165.915C888.491 166.066 888.432 166.256 888.432 166.483C888.432 166.812 888.551 167.064 888.79 167.239C889.032 167.409 889.339 167.494 889.71 167.494ZM896.991 172.273C896.685 172.273 896.397 172.248 896.128 172.199C895.863 172.153 895.643 172.095 895.469 172.023L896.014 170.216C896.298 170.303 896.554 170.35 896.781 170.358C897.012 170.366 897.211 170.313 897.378 170.199C897.548 170.085 897.687 169.892 897.793 169.619L897.935 169.25L894.804 160.273H897.349L899.156 166.682H899.247L901.071 160.273H903.634L900.241 169.943C900.079 170.413 899.857 170.822 899.577 171.17C899.3 171.523 898.95 171.794 898.526 171.983C898.101 172.176 897.59 172.273 896.991 172.273ZM908.568 169.17C907.67 169.17 906.898 168.989 906.25 168.625C905.606 168.258 905.11 167.739 904.761 167.068C904.413 166.394 904.239 165.597 904.239 164.676C904.239 163.778 904.413 162.991 904.761 162.312C905.11 161.634 905.6 161.106 906.233 160.727C906.869 160.348 907.616 160.159 908.472 160.159C909.047 160.159 909.583 160.252 910.08 160.438C910.58 160.619 911.015 160.894 911.386 161.261C911.761 161.629 912.053 162.091 912.261 162.648C912.47 163.201 912.574 163.848 912.574 164.591V165.256H905.205V163.756H910.295C910.295 163.407 910.22 163.098 910.068 162.83C909.917 162.561 909.706 162.35 909.438 162.199C909.172 162.044 908.864 161.966 908.511 161.966C908.144 161.966 907.818 162.051 907.534 162.222C907.254 162.388 907.034 162.614 906.875 162.898C906.716 163.178 906.634 163.491 906.631 163.835V165.261C906.631 165.693 906.71 166.066 906.869 166.381C907.032 166.695 907.261 166.938 907.557 167.108C907.852 167.278 908.203 167.364 908.608 167.364C908.877 167.364 909.123 167.326 909.347 167.25C909.57 167.174 909.761 167.061 909.92 166.909C910.08 166.758 910.201 166.572 910.284 166.352L912.523 166.5C912.409 167.038 912.176 167.508 911.824 167.909C911.475 168.307 911.025 168.617 910.472 168.841C909.922 169.061 909.288 169.17 908.568 169.17ZM917.369 169.142C916.706 169.142 916.106 168.972 915.568 168.631C915.034 168.286 914.61 167.78 914.295 167.114C913.985 166.443 913.83 165.621 913.83 164.648C913.83 163.648 913.991 162.816 914.312 162.153C914.634 161.487 915.063 160.989 915.597 160.659C916.134 160.326 916.723 160.159 917.364 160.159C917.852 160.159 918.259 160.242 918.585 160.409C918.915 160.572 919.18 160.777 919.381 161.023C919.585 161.265 919.741 161.504 919.847 161.739H919.92V157.364H922.335V169H919.949V167.602H919.847C919.733 167.845 919.572 168.085 919.364 168.324C919.159 168.559 918.892 168.754 918.562 168.909C918.237 169.064 917.839 169.142 917.369 169.142ZM918.136 167.216C918.527 167.216 918.856 167.11 919.125 166.898C919.398 166.682 919.606 166.381 919.75 165.994C919.898 165.608 919.972 165.155 919.972 164.636C919.972 164.117 919.9 163.667 919.756 163.284C919.612 162.902 919.403 162.606 919.131 162.398C918.858 162.189 918.527 162.085 918.136 162.085C917.739 162.085 917.403 162.193 917.131 162.409C916.858 162.625 916.652 162.924 916.511 163.307C916.371 163.689 916.301 164.133 916.301 164.636C916.301 165.144 916.371 165.593 916.511 165.983C916.655 166.369 916.862 166.672 917.131 166.892C917.403 167.108 917.739 167.216 918.136 167.216ZM932.722 160.273V162.091H927.335V160.273H932.722ZM928.568 169V159.642C928.568 159.009 928.691 158.485 928.938 158.068C929.188 157.652 929.528 157.339 929.96 157.131C930.392 156.922 930.883 156.818 931.432 156.818C931.803 156.818 932.142 156.847 932.449 156.903C932.759 156.96 932.991 157.011 933.142 157.057L932.71 158.875C932.616 158.845 932.498 158.816 932.358 158.79C932.222 158.763 932.081 158.75 931.938 158.75C931.581 158.75 931.333 158.833 931.193 159C931.053 159.163 930.983 159.392 930.983 159.688V169H928.568ZM936.621 157.364V169H934.2V157.364H936.621ZM938.56 169V160.273H940.98V169H938.56ZM939.776 159.148C939.416 159.148 939.107 159.028 938.849 158.79C938.596 158.547 938.469 158.258 938.469 157.92C938.469 157.587 938.596 157.301 938.849 157.062C939.107 156.82 939.416 156.699 939.776 156.699C940.135 156.699 940.442 156.82 940.696 157.062C940.954 157.301 941.082 157.587 941.082 157.92C941.082 158.258 940.954 158.547 940.696 158.79C940.442 159.028 940.135 159.148 939.776 159.148ZM946.851 172.455C946.067 172.455 945.394 172.347 944.834 172.131C944.277 171.919 943.834 171.629 943.504 171.261C943.175 170.894 942.961 170.481 942.862 170.023L945.101 169.722C945.169 169.896 945.277 170.059 945.425 170.21C945.572 170.362 945.768 170.483 946.01 170.574C946.256 170.669 946.555 170.716 946.908 170.716C947.434 170.716 947.868 170.587 948.209 170.33C948.554 170.076 948.726 169.65 948.726 169.051V167.455H948.624C948.518 167.697 948.358 167.926 948.146 168.142C947.934 168.358 947.661 168.534 947.328 168.67C946.995 168.807 946.597 168.875 946.135 168.875C945.48 168.875 944.883 168.723 944.345 168.42C943.811 168.114 943.385 167.646 943.067 167.017C942.752 166.384 942.595 165.585 942.595 164.619C942.595 163.631 942.756 162.805 943.078 162.142C943.4 161.479 943.828 160.983 944.362 160.653C944.9 160.324 945.489 160.159 946.129 160.159C946.618 160.159 947.027 160.242 947.357 160.409C947.686 160.572 947.951 160.777 948.152 161.023C948.357 161.265 948.514 161.504 948.624 161.739H948.714V160.273H951.118V169.085C951.118 169.828 950.936 170.449 950.572 170.949C950.209 171.449 949.705 171.824 949.061 172.074C948.421 172.328 947.684 172.455 946.851 172.455ZM946.902 167.057C947.292 167.057 947.622 166.96 947.891 166.767C948.163 166.57 948.372 166.29 948.516 165.926C948.663 165.559 948.737 165.119 948.737 164.608C948.737 164.097 948.665 163.653 948.521 163.278C948.377 162.9 948.169 162.606 947.896 162.398C947.624 162.189 947.292 162.085 946.902 162.085C946.504 162.085 946.169 162.193 945.896 162.409C945.624 162.621 945.417 162.917 945.277 163.295C945.137 163.674 945.067 164.112 945.067 164.608C945.067 165.112 945.137 165.547 945.277 165.915C945.421 166.278 945.627 166.561 945.896 166.761C946.169 166.958 946.504 167.057 946.902 167.057ZM955.464 163.955V169H953.044V157.364H955.396V161.812H955.499C955.696 161.297 956.014 160.894 956.453 160.602C956.893 160.307 957.444 160.159 958.107 160.159C958.713 160.159 959.241 160.292 959.692 160.557C960.146 160.818 960.499 161.195 960.749 161.688C961.002 162.176 961.127 162.761 961.124 163.443V169H958.703V163.875C958.707 163.337 958.571 162.919 958.294 162.619C958.021 162.32 957.639 162.17 957.146 162.17C956.817 162.17 956.525 162.241 956.271 162.381C956.021 162.521 955.824 162.725 955.68 162.994C955.54 163.259 955.468 163.58 955.464 163.955ZM967.67 160.273V162.091H962.415V160.273H967.67ZM963.608 158.182H966.028V166.318C966.028 166.542 966.063 166.716 966.131 166.841C966.199 166.962 966.294 167.047 966.415 167.097C966.54 167.146 966.684 167.17 966.847 167.17C966.96 167.17 967.074 167.161 967.188 167.142C967.301 167.119 967.388 167.102 967.449 167.091L967.83 168.892C967.708 168.93 967.538 168.973 967.318 169.023C967.098 169.076 966.831 169.108 966.517 169.119C965.934 169.142 965.422 169.064 964.983 168.886C964.547 168.708 964.208 168.432 963.966 168.057C963.723 167.682 963.604 167.208 963.608 166.636V158.182ZM976.399 162.761L974.183 162.898C974.145 162.708 974.064 162.538 973.939 162.386C973.814 162.231 973.649 162.108 973.445 162.017C973.244 161.922 973.003 161.875 972.723 161.875C972.348 161.875 972.032 161.955 971.774 162.114C971.517 162.269 971.388 162.477 971.388 162.739C971.388 162.947 971.471 163.123 971.638 163.267C971.804 163.411 972.09 163.527 972.496 163.614L974.075 163.932C974.924 164.106 975.556 164.386 975.973 164.773C976.39 165.159 976.598 165.667 976.598 166.295C976.598 166.867 976.429 167.369 976.092 167.801C975.759 168.233 975.301 168.57 974.717 168.812C974.138 169.051 973.469 169.17 972.712 169.17C971.556 169.17 970.636 168.93 969.95 168.449C969.268 167.964 968.869 167.305 968.751 166.472L971.132 166.347C971.204 166.699 971.378 166.968 971.655 167.153C971.931 167.335 972.286 167.426 972.717 167.426C973.142 167.426 973.482 167.345 973.74 167.182C974.001 167.015 974.134 166.801 974.138 166.54C974.134 166.32 974.041 166.14 973.859 166C973.678 165.856 973.397 165.746 973.018 165.67L971.507 165.369C970.655 165.199 970.02 164.903 969.604 164.483C969.191 164.062 968.984 163.527 968.984 162.875C968.984 162.314 969.136 161.831 969.439 161.426C969.746 161.021 970.176 160.708 970.729 160.489C971.286 160.269 971.937 160.159 972.683 160.159C973.786 160.159 974.653 160.392 975.286 160.858C975.922 161.324 976.293 161.958 976.399 162.761ZM981.825 172.273V160.273H984.212V161.739H984.32C984.426 161.504 984.579 161.265 984.78 161.023C984.984 160.777 985.25 160.572 985.575 160.409C985.905 160.242 986.314 160.159 986.803 160.159C987.439 160.159 988.026 160.326 988.564 160.659C989.102 160.989 989.532 161.487 989.854 162.153C990.176 162.816 990.337 163.648 990.337 164.648C990.337 165.621 990.179 166.443 989.865 167.114C989.554 167.78 989.13 168.286 988.592 168.631C988.058 168.972 987.46 169.142 986.797 169.142C986.327 169.142 985.928 169.064 985.598 168.909C985.272 168.754 985.005 168.559 984.797 168.324C984.589 168.085 984.429 167.845 984.32 167.602H984.246V172.273H981.825ZM984.195 164.636C984.195 165.155 984.267 165.608 984.411 165.994C984.554 166.381 984.763 166.682 985.036 166.898C985.308 167.11 985.64 167.216 986.03 167.216C986.424 167.216 986.757 167.108 987.03 166.892C987.303 166.672 987.509 166.369 987.649 165.983C987.793 165.593 987.865 165.144 987.865 164.636C987.865 164.133 987.795 163.689 987.655 163.307C987.515 162.924 987.308 162.625 987.036 162.409C986.763 162.193 986.428 162.085 986.03 162.085C985.636 162.085 985.303 162.189 985.03 162.398C984.761 162.606 984.554 162.902 984.411 163.284C984.267 163.667 984.195 164.117 984.195 164.636ZM995.928 169.17C995.03 169.17 994.257 168.989 993.609 168.625C992.965 168.258 992.469 167.739 992.121 167.068C991.772 166.394 991.598 165.597 991.598 164.676C991.598 163.778 991.772 162.991 992.121 162.312C992.469 161.634 992.96 161.106 993.592 160.727C994.229 160.348 994.975 160.159 995.831 160.159C996.407 160.159 996.943 160.252 997.439 160.438C997.939 160.619 998.375 160.894 998.746 161.261C999.121 161.629 999.412 162.091 999.621 162.648C999.829 163.201 999.933 163.848 999.933 164.591V165.256H992.564V163.756H997.655C997.655 163.407 997.579 163.098 997.428 162.83C997.276 162.561 997.066 162.35 996.797 162.199C996.532 162.044 996.223 161.966 995.871 161.966C995.503 161.966 995.178 162.051 994.893 162.222C994.613 162.388 994.393 162.614 994.234 162.898C994.075 163.178 993.994 163.491 993.99 163.835V165.261C993.99 165.693 994.07 166.066 994.229 166.381C994.392 166.695 994.621 166.938 994.916 167.108C995.212 167.278 995.562 167.364 995.967 167.364C996.236 167.364 996.482 167.326 996.706 167.25C996.929 167.174 997.121 167.061 997.28 166.909C997.439 166.758 997.56 166.572 997.643 166.352L999.882 166.5C999.768 167.038 999.536 167.508 999.183 167.909C998.835 168.307 998.384 168.617 997.831 168.841C997.282 169.061 996.647 169.17 995.928 169.17ZM1001.51 169V160.273H1003.86V161.795H1003.95C1004.11 161.254 1004.38 160.845 1004.75 160.568C1005.13 160.288 1005.56 160.148 1006.05 160.148C1006.17 160.148 1006.3 160.155 1006.44 160.17C1006.58 160.186 1006.7 160.206 1006.81 160.233V162.381C1006.69 162.347 1006.54 162.316 1006.34 162.29C1006.14 162.263 1005.95 162.25 1005.79 162.25C1005.43 162.25 1005.11 162.328 1004.83 162.483C1004.55 162.634 1004.33 162.847 1004.17 163.119C1004.01 163.392 1003.93 163.706 1003.93 164.062V169H1001.51ZM1014.18 163.955V169H1011.76V157.364H1014.12V161.812H1014.22C1014.41 161.297 1014.73 160.894 1015.17 160.602C1015.61 160.307 1016.16 160.159 1016.83 160.159C1017.43 160.159 1017.96 160.292 1018.41 160.557C1018.87 160.818 1019.22 161.195 1019.47 161.688C1019.72 162.176 1019.85 162.761 1019.84 163.443V169H1017.42V163.875C1017.43 163.337 1017.29 162.919 1017.01 162.619C1016.74 162.32 1016.36 162.17 1015.87 162.17C1015.54 162.17 1015.24 162.241 1014.99 162.381C1014.74 162.521 1014.54 162.725 1014.4 162.994C1014.26 163.259 1014.19 163.58 1014.18 163.955ZM1025.69 169.17C1024.81 169.17 1024.04 168.983 1023.4 168.608C1022.76 168.229 1022.27 167.703 1021.92 167.028C1021.57 166.35 1021.39 165.564 1021.39 164.67C1021.39 163.769 1021.57 162.981 1021.92 162.307C1022.27 161.629 1022.76 161.102 1023.4 160.727C1024.04 160.348 1024.81 160.159 1025.69 160.159C1026.57 160.159 1027.33 160.348 1027.97 160.727C1028.62 161.102 1029.11 161.629 1029.46 162.307C1029.81 162.981 1029.99 163.769 1029.99 164.67C1029.99 165.564 1029.81 166.35 1029.46 167.028C1029.11 167.703 1028.62 168.229 1027.97 168.608C1027.33 168.983 1026.57 169.17 1025.69 169.17ZM1025.7 167.295C1026.1 167.295 1026.44 167.182 1026.71 166.955C1026.98 166.723 1027.18 166.409 1027.32 166.011C1027.46 165.614 1027.53 165.161 1027.53 164.653C1027.53 164.146 1027.46 163.693 1027.32 163.295C1027.18 162.898 1026.98 162.583 1026.71 162.352C1026.44 162.121 1026.1 162.006 1025.7 162.006C1025.3 162.006 1024.96 162.121 1024.68 162.352C1024.41 162.583 1024.2 162.898 1024.06 163.295C1023.92 163.693 1023.86 164.146 1023.86 164.653C1023.86 165.161 1023.92 165.614 1024.06 166.011C1024.2 166.409 1024.41 166.723 1024.68 166.955C1024.96 167.182 1025.3 167.295 1025.7 167.295ZM1037.16 165.284V160.273H1039.58V169H1037.25V167.415H1037.16C1036.96 167.926 1036.64 168.337 1036.18 168.648C1035.72 168.958 1035.17 169.114 1034.51 169.114C1033.93 169.114 1033.42 168.981 1032.97 168.716C1032.53 168.451 1032.18 168.074 1031.93 167.585C1031.69 167.097 1031.56 166.511 1031.56 165.83V160.273H1033.98V165.398C1033.98 165.913 1034.12 166.32 1034.39 166.619C1034.67 166.919 1035.03 167.068 1035.49 167.068C1035.78 167.068 1036.06 167.002 1036.31 166.869C1036.56 166.733 1036.77 166.532 1036.92 166.267C1037.08 166.002 1037.16 165.674 1037.16 165.284ZM1041.51 169V160.273H1043.86V161.795H1043.95C1044.11 161.254 1044.38 160.845 1044.75 160.568C1045.13 160.288 1045.56 160.148 1046.05 160.148C1046.17 160.148 1046.3 160.155 1046.44 160.17C1046.58 160.186 1046.7 160.206 1046.81 160.233V162.381C1046.69 162.347 1046.54 162.316 1046.34 162.29C1046.14 162.263 1045.95 162.25 1045.79 162.25C1045.43 162.25 1045.11 162.328 1044.83 162.483C1044.55 162.634 1044.33 162.847 1044.17 163.119C1044.01 163.392 1043.93 163.706 1043.93 164.062V169H1041.51Z" fill="#343741"/>
<rect x="864.5" y="192.5" width="544" height="188" stroke="#B2C8EE"/>
<line x1="865.164" y1="192.528" x2="1408.16" y2="380.528" stroke="#B2C8EE"/>
<line x1="1408.16" y1="192.472" x2="865.164" y2="380.472" stroke="#B2C8EE"/>
<defs>
<filter id="filter0_i_1732_45159" x="40" y="40" width="720" height="420" filterUnits="userSpaceOnUse" color-interpolation-filters="sRGB">
<feFlood flood-opacity="0" result="BackgroundImageFix"/>
<feBlend mode="normal" in="SourceGraphic" in2="BackgroundImageFix" result="shape"/>
<feColorMatrix in="SourceAlpha" type="matrix" values="0 0 0 0 0 0 0 0 0 0 0 0 0 0 0 0 0 0 127 0" result="hardAlpha"/>
<feOffset dy="4"/>
<feComposite in2="hardAlpha" operator="arithmetic" k2="-1" k3="1"/>
<feColorMatrix type="matrix" values="0 0 0 0 0.741176 0 0 0 0 0.152941 0 0 0 0 0.117647 0 0 0 1 0"/>
<feBlend mode="normal" in2="shape" result="effect1_innerShadow_1732_45159"/>
</filter>
<filter id="filter1_dd_1732_45159" x="78" y="134" width="604" height="274.3" filterUnits="userSpaceOnUse" color-interpolation-filters="sRGB">
<feFlood flood-opacity="0" result="BackgroundImageFix"/>
<feColorMatrix in="SourceAlpha" type="matrix" values="0 0 0 0 0 0 0 0 0 0 0 0 0 0 0 0 0 0 127 0" result="hardAlpha"/>
<feOffset dy="2.3"/>
<feGaussianBlur stdDeviation="1"/>
<feColorMatrix type="matrix" values="0 0 0 0 0 0 0 0 0 0 0 0 0 0 0 0 0 0 0.03 0"/>
<feBlend mode="normal" in2="BackgroundImageFix" result="effect1_dropShadow_1732_45159"/>
<feColorMatrix in="SourceAlpha" type="matrix" values="0 0 0 0 0 0 0 0 0 0 0 0 0 0 0 0 0 0 127 0" result="hardAlpha"/>
<feOffset dy="0.8"/>
<feGaussianBlur stdDeviation="0.4"/>
<feColorMatrix type="matrix" values="0 0 0 0 0 0 0 0 0 0 0 0 0 0 0 0 0 0 0.04 0"/>
<feBlend mode="normal" in2="effect1_dropShadow_1732_45159" result="effect2_dropShadow_1732_45159"/>
<feBlend mode="normal" in="SourceGraphic" in2="effect2_dropShadow_1732_45159" result="shape"/>
</filter>
<filter id="filter2_i_1732_45159" x="800" y="40" width="720" height="420" filterUnits="userSpaceOnUse" color-interpolation-filters="sRGB">
<feFlood flood-opacity="0" result="BackgroundImageFix"/>
<feBlend mode="normal" in="SourceGraphic" in2="BackgroundImageFix" result="shape"/>
<feColorMatrix in="SourceAlpha" type="matrix" values="0 0 0 0 0 0 0 0 0 0 0 0 0 0 0 0 0 0 127 0" result="hardAlpha"/>
<feOffset dy="4"/>
<feComposite in2="hardAlpha" operator="arithmetic" k2="-1" k3="1"/>
<feColorMatrix type="matrix" values="0 0 0 0 0 0 0 0 0 0.74902 0 0 0 0 0.701961 0 0 0 1 0"/>
<feBlend mode="normal" in2="shape" result="effect1_innerShadow_1732_45159"/>
</filter>
<filter id="filter3_dd_1732_45159" x="838" y="134" width="604" height="274.3" filterUnits="userSpaceOnUse" color-interpolation-filters="sRGB">
<feFlood flood-opacity="0" result="BackgroundImageFix"/>
<feColorMatrix in="SourceAlpha" type="matrix" values="0 0 0 0 0 0 0 0 0 0 0 0 0 0 0 0 0 0 127 0" result="hardAlpha"/>
<feOffset dy="2.3"/>
<feGaussianBlur stdDeviation="1"/>
<feColorMatrix type="matrix" values="0 0 0 0 0 0 0 0 0 0 0 0 0 0 0 0 0 0 0.03 0"/>
<feBlend mode="normal" in2="BackgroundImageFix" result="effect1_dropShadow_1732_45159"/>
<feColorMatrix in="SourceAlpha" type="matrix" values="0 0 0 0 0 0 0 0 0 0 0 0 0 0 0 0 0 0 127 0" result="hardAlpha"/>
<feOffset dy="0.8"/>
<feGaussianBlur stdDeviation="0.4"/>
<feColorMatrix type="matrix" values="0 0 0 0 0 0 0 0 0 0 0 0 0 0 0 0 0 0 0.04 0"/>
<feBlend mode="normal" in2="effect1_dropShadow_1732_45159" result="effect2_dropShadow_1732_45159"/>
<feBlend mode="normal" in="SourceGraphic" in2="effect2_dropShadow_1732_45159" result="shape"/>
</filter>
<clipPath id="clip0_1732_45159">
<rect width="24" height="24" fill="white" transform="translate(80 80)"/>
</clipPath>
<clipPath id="clip1_1732_45159">
<rect width="24" height="24" fill="white" transform="translate(840 80)"/>
</clipPath>
</defs>
</svg>
