<svg width="1034" height="615" viewBox="0 0 1034 615" fill="none" xmlns="http://www.w3.org/2000/svg">
<rect x="179" y="163.615" width="157.692" height="57.6923" rx="5" fill="white" stroke="#0452A1"/>
<rect x="179" y="225.154" width="157.692" height="25" rx="5" fill="white" stroke="#0452A1"/>
<rect x="179" y="254" width="157.692" height="25" rx="5" fill="white" stroke="#0452A1"/>
<rect x="340.538" y="163.615" width="69.2308" height="57.6923" rx="5" fill="white" stroke="#0452A1"/>
<rect x="340.538" y="225.154" width="69.2308" height="25" rx="5" fill="white" stroke="#0452A1"/>
<rect x="340.538" y="254" width="69.2308" height="25" rx="5" fill="white" stroke="#0452A1"/>
<rect x="179" y="421.308" width="113.462" height="57.6923" rx="5" fill="white" stroke="#0452A1"/>
<rect x="179" y="482.846" width="113.462" height="25" rx="5" fill="white" stroke="#0452A1"/>
<rect x="179" y="511.692" width="113.462" height="25" rx="5" fill="white" stroke="#0452A1"/>
<rect x="296.308" y="421.308" width="113.462" height="57.6923" rx="5" fill="white" stroke="#0452A1"/>
<rect x="296.308" y="482.846" width="113.462" height="25" rx="5" fill="white" stroke="#0452A1"/>
<rect x="296.308" y="511.692" width="113.462" height="25" rx="5" fill="white" stroke="#0452A1"/>
<rect width="157.692" height="57.6923" rx="5" transform="matrix(-1 0 0 1 827.077 163.615)" fill="white" stroke="#0452A1"/>
<rect width="157.692" height="25" rx="5" transform="matrix(-1 0 0 1 827.077 225.154)" fill="white" stroke="#0452A1"/>
<rect width="157.692" height="25" rx="5" transform="matrix(-1 0 0 1 827.077 254)" fill="white" stroke="#0452A1"/>
<rect width="69.2308" height="57.6923" rx="5" transform="matrix(-1 0 0 1 665.538 163.615)" fill="white" stroke="#0452A1"/>
<rect width="69.2308" height="25" rx="5" transform="matrix(-1 0 0 1 665.538 225.154)" fill="white" stroke="#0452A1"/>
<rect width="69.2308" height="25" rx="5" transform="matrix(-1 0 0 1 665.538 254)" fill="white" stroke="#0452A1"/>
<rect width="53.8462" height="57.6923" rx="5" transform="matrix(-1 0 0 1 709.769 421.308)" fill="white" stroke="#0452A1"/>
<rect width="53.8462" height="57.6923" rx="5" transform="matrix(-1 0 0 1 767.462 421.308)" fill="white" stroke="#0452A1"/>
<rect width="55.7692" height="57.6923" rx="5" transform="matrix(-1 0 0 1 827.077 421.308)" fill="white" stroke="#0452A1"/>
<rect width="55.7692" height="57.6923" rx="5" transform="matrix(-1 0 0 1 652.077 421.308)" fill="white" stroke="#0452A1"/>
<rect width="53.8462" height="25" rx="5" transform="matrix(-1 0 0 1 709.769 482.846)" fill="white" stroke="#0452A1"/>
<rect width="53.8462" height="25" rx="5" transform="matrix(-1 0 0 1 767.462 482.846)" fill="white" stroke="#0452A1"/>
<rect width="55.7692" height="25" rx="5" transform="matrix(-1 0 0 1 827.077 482.846)" fill="white" stroke="#0452A1"/>
<rect width="55.7692" height="25" rx="5" transform="matrix(-1 0 0 1 652.077 482.846)" fill="white" stroke="#0452A1"/>
<rect width="53.8462" height="25" rx="5" transform="matrix(-1 0 0 1 709.769 511.692)" fill="white" stroke="#0452A1"/>
<rect width="53.8462" height="25" rx="5" transform="matrix(-1 0 0 1 767.462 511.692)" fill="white" stroke="#0452A1"/>
<rect width="55.7692" height="25" rx="5" transform="matrix(-1 0 0 1 827.077 511.692)" fill="white" stroke="#0452A1"/>
<rect width="55.7692" height="25" rx="5" transform="matrix(-1 0 0 1 652.077 511.692)" fill="white" stroke="#0452A1"/>
<path d="M174.004 127H166.611V105.182H174.154C176.32 105.182 178.181 105.619 179.736 106.492C181.298 107.359 182.499 108.605 183.337 110.232C184.175 111.858 184.594 113.804 184.594 116.07C184.594 118.342 184.171 120.295 183.326 121.929C182.488 123.562 181.277 124.816 179.693 125.69C178.117 126.563 176.22 127 174.004 127ZM170.563 123.58H173.813C175.333 123.58 176.6 123.303 177.616 122.749C178.632 122.188 179.395 121.354 179.906 120.246C180.418 119.131 180.673 117.739 180.673 116.07C180.673 114.401 180.418 113.016 179.906 111.915C179.395 110.807 178.639 109.979 177.637 109.433C176.643 108.879 175.407 108.602 173.93 108.602H170.563V123.58ZM195.317 127.32C193.719 127.32 192.334 126.968 191.162 126.265C189.99 125.562 189.081 124.578 188.434 123.314C187.795 122.05 187.476 120.572 187.476 118.882C187.476 117.192 187.795 115.711 188.434 114.44C189.081 113.168 189.99 112.181 191.162 111.478C192.334 110.775 193.719 110.423 195.317 110.423C196.915 110.423 198.3 110.775 199.471 111.478C200.643 112.181 201.549 113.168 202.188 114.44C202.834 115.711 203.157 117.192 203.157 118.882C203.157 120.572 202.834 122.05 202.188 123.314C201.549 124.578 200.643 125.562 199.471 126.265C198.3 126.968 196.915 127.32 195.317 127.32ZM195.338 124.23C196.204 124.23 196.929 123.992 197.511 123.516C198.094 123.033 198.527 122.387 198.811 121.577C199.102 120.768 199.248 119.866 199.248 118.871C199.248 117.87 199.102 116.964 198.811 116.155C198.527 115.338 198.094 114.688 197.511 114.205C196.929 113.722 196.204 113.481 195.338 113.481C194.45 113.481 193.711 113.722 193.122 114.205C192.54 114.688 192.103 115.338 191.812 116.155C191.528 116.964 191.385 117.87 191.385 118.871C191.385 119.866 191.528 120.768 191.812 121.577C192.103 122.387 192.54 123.033 193.122 123.516C193.711 123.992 194.45 124.23 195.338 124.23ZM206.431 127V110.636H210.117V113.417H210.309C210.65 112.479 211.214 111.748 212.002 111.222C212.791 110.69 213.732 110.423 214.826 110.423C215.934 110.423 216.868 110.693 217.627 111.233C218.395 111.766 218.934 112.494 219.247 113.417H219.417C219.779 112.508 220.39 111.783 221.25 111.244C222.116 110.697 223.142 110.423 224.328 110.423C225.834 110.423 227.063 110.899 228.015 111.851C228.966 112.803 229.442 114.191 229.442 116.016V127H225.575V116.613C225.575 115.597 225.305 114.855 224.765 114.386C224.225 113.911 223.565 113.673 222.784 113.673C221.853 113.673 221.125 113.964 220.6 114.546C220.081 115.121 219.822 115.871 219.822 116.794V127H216.04V116.453C216.04 115.608 215.784 114.933 215.273 114.429C214.769 113.925 214.108 113.673 213.292 113.673C212.738 113.673 212.233 113.815 211.779 114.099C211.324 114.376 210.962 114.77 210.692 115.281C210.422 115.786 210.287 116.375 210.287 117.05V127H206.431ZM233.355 127V110.636H237.211V127H233.355ZM235.294 108.314C234.683 108.314 234.157 108.112 233.717 107.707C233.276 107.295 233.056 106.801 233.056 106.226C233.056 105.643 233.276 105.15 233.717 104.745C234.157 104.333 234.683 104.127 235.294 104.127C235.911 104.127 236.437 104.333 236.87 104.745C237.311 105.15 237.531 105.643 237.531 106.226C237.531 106.801 237.311 107.295 236.87 107.707C236.437 108.112 235.911 108.314 235.294 108.314ZM245.033 117.412V127H241.177V110.636H244.863V113.417H245.055C245.431 112.501 246.031 111.773 246.855 111.233C247.686 110.693 248.712 110.423 249.934 110.423C251.063 110.423 252.047 110.665 252.885 111.148C253.73 111.631 254.384 112.33 254.845 113.246C255.314 114.163 255.545 115.274 255.538 116.581V127H251.681V117.178C251.681 116.084 251.397 115.228 250.829 114.61C250.268 113.992 249.49 113.683 248.496 113.683C247.821 113.683 247.221 113.832 246.695 114.131C246.177 114.422 245.768 114.844 245.47 115.398C245.179 115.952 245.033 116.624 245.033 117.412ZM264.167 127.33C263.13 127.33 262.196 127.146 261.365 126.776C260.541 126.4 259.888 125.846 259.405 125.114C258.929 124.383 258.691 123.481 258.691 122.408C258.691 121.485 258.862 120.722 259.202 120.118C259.543 119.514 260.009 119.031 260.598 118.669C261.188 118.307 261.852 118.033 262.59 117.849C263.336 117.657 264.107 117.518 264.902 117.433C265.861 117.334 266.638 117.245 267.235 117.167C267.832 117.082 268.265 116.954 268.535 116.783C268.812 116.606 268.95 116.332 268.95 115.963V115.899C268.95 115.097 268.712 114.475 268.237 114.035C267.761 113.594 267.075 113.374 266.18 113.374C265.236 113.374 264.487 113.58 263.933 113.992C263.386 114.404 263.016 114.891 262.825 115.452L259.224 114.94C259.508 113.946 259.977 113.115 260.63 112.447C261.283 111.773 262.082 111.268 263.027 110.935C263.972 110.594 265.016 110.423 266.159 110.423C266.947 110.423 267.732 110.516 268.513 110.7C269.295 110.885 270.009 111.19 270.655 111.616C271.301 112.036 271.82 112.607 272.21 113.332C272.608 114.056 272.807 114.962 272.807 116.048V127H269.099V124.752H268.972C268.737 125.207 268.407 125.633 267.981 126.031C267.562 126.421 267.033 126.737 266.393 126.979C265.761 127.213 265.019 127.33 264.167 127.33ZM265.168 124.496C265.942 124.496 266.614 124.344 267.182 124.038C267.75 123.726 268.187 123.314 268.492 122.803C268.805 122.291 268.961 121.734 268.961 121.13V119.202C268.84 119.301 268.634 119.393 268.343 119.479C268.059 119.564 267.739 119.638 267.384 119.702C267.029 119.766 266.678 119.823 266.33 119.873C265.982 119.923 265.68 119.965 265.424 120.001C264.849 120.079 264.334 120.207 263.879 120.384C263.425 120.562 263.066 120.81 262.803 121.13C262.54 121.442 262.409 121.847 262.409 122.344C262.409 123.055 262.668 123.591 263.187 123.953C263.705 124.315 264.366 124.496 265.168 124.496ZM280.541 117.412V127H276.685V110.636H280.371V113.417H280.562C280.939 112.501 281.539 111.773 282.363 111.233C283.194 110.693 284.22 110.423 285.442 110.423C286.571 110.423 287.555 110.665 288.393 111.148C289.238 111.631 289.891 112.33 290.353 113.246C290.822 114.163 291.053 115.274 291.045 116.581V127H287.189V117.178C287.189 116.084 286.905 115.228 286.337 114.61C285.776 113.992 284.998 113.683 284.004 113.683C283.329 113.683 282.729 113.832 282.203 114.131C281.685 114.422 281.276 114.844 280.978 115.398C280.687 115.952 280.541 116.624 280.541 117.412ZM303.137 110.636V113.619H293.73V110.636H303.137ZM296.053 106.716H299.909V122.078C299.909 122.597 299.987 122.994 300.143 123.271C300.307 123.541 300.52 123.726 300.783 123.825C301.045 123.925 301.337 123.974 301.656 123.974C301.898 123.974 302.118 123.957 302.317 123.921C302.523 123.886 302.679 123.854 302.786 123.825L303.435 126.84C303.229 126.911 302.935 126.989 302.551 127.075C302.175 127.16 301.713 127.21 301.166 127.224C300.2 127.252 299.33 127.107 298.556 126.787C297.782 126.46 297.168 125.956 296.713 125.274C296.266 124.592 296.045 123.74 296.053 122.717V106.716ZM317.66 105.182V127H313.804V105.182H317.66ZM328.87 127.32C327.23 127.32 325.813 126.979 324.62 126.297C323.434 125.608 322.521 124.635 321.882 123.378C321.243 122.114 320.923 120.626 320.923 118.914C320.923 117.231 321.243 115.754 321.882 114.482C322.528 113.204 323.43 112.21 324.588 111.499C325.745 110.782 327.105 110.423 328.668 110.423C329.676 110.423 330.628 110.587 331.523 110.913C332.425 111.233 333.221 111.73 333.909 112.405C334.605 113.08 335.152 113.939 335.55 114.983C335.948 116.02 336.147 117.256 336.147 118.69V119.873H322.734V117.273H332.45C332.443 116.535 332.283 115.878 331.971 115.303C331.658 114.72 331.221 114.262 330.66 113.928C330.106 113.594 329.46 113.428 328.721 113.428C327.933 113.428 327.24 113.619 326.644 114.003C326.047 114.379 325.582 114.876 325.248 115.494C324.922 116.105 324.755 116.776 324.748 117.508V119.777C324.748 120.729 324.922 121.545 325.27 122.227C325.618 122.902 326.104 123.42 326.729 123.783C327.354 124.138 328.086 124.315 328.924 124.315C329.485 124.315 329.993 124.237 330.447 124.081C330.902 123.918 331.296 123.68 331.63 123.367C331.963 123.055 332.216 122.668 332.386 122.206L335.987 122.611C335.76 123.562 335.326 124.393 334.687 125.104C334.055 125.807 333.245 126.354 332.258 126.744C331.271 127.128 330.142 127.32 328.87 127.32ZM347.698 110.636V113.619H338.024V110.636H347.698ZM340.443 127V109.092C340.443 107.991 340.67 107.075 341.124 106.343C341.586 105.612 342.204 105.065 342.978 104.702C343.752 104.34 344.612 104.159 345.556 104.159C346.224 104.159 346.817 104.212 347.335 104.319C347.854 104.425 348.237 104.521 348.486 104.607L347.719 107.589C347.556 107.54 347.35 107.49 347.101 107.44C346.852 107.384 346.575 107.355 346.27 107.355C345.553 107.355 345.045 107.529 344.747 107.877C344.455 108.218 344.31 108.708 344.31 109.347V127H340.443ZM358.889 110.636V113.619H349.482V110.636H358.889ZM351.805 106.716H355.661V122.078C355.661 122.597 355.739 122.994 355.895 123.271C356.059 123.541 356.272 123.726 356.535 123.825C356.797 123.925 357.089 123.974 357.408 123.974C357.65 123.974 357.87 123.957 358.069 123.921C358.275 123.886 358.431 123.854 358.537 123.825L359.187 126.84C358.981 126.911 358.687 126.989 358.303 127.075C357.927 127.16 357.465 127.21 356.918 127.224C355.952 127.252 355.082 127.107 354.308 126.787C353.534 126.46 352.92 125.956 352.465 125.274C352.018 124.592 351.797 123.74 351.805 122.717V106.716ZM382.489 114.962L378.973 115.345C378.874 114.99 378.7 114.656 378.451 114.344C378.21 114.031 377.883 113.779 377.471 113.587C377.059 113.396 376.555 113.3 375.958 113.3C375.156 113.3 374.481 113.474 373.934 113.822C373.395 114.17 373.128 114.621 373.135 115.175C373.128 115.651 373.302 116.038 373.657 116.336C374.02 116.634 374.616 116.879 375.447 117.071L378.238 117.668C379.787 118.001 380.937 118.531 381.69 119.255C382.45 119.979 382.833 120.928 382.841 122.099C382.833 123.129 382.532 124.038 381.935 124.827C381.346 125.608 380.525 126.219 379.474 126.659C378.423 127.099 377.216 127.32 375.852 127.32C373.849 127.32 372.237 126.901 371.015 126.062C369.794 125.217 369.066 124.042 368.831 122.536L372.592 122.174C372.762 122.913 373.125 123.47 373.679 123.847C374.233 124.223 374.953 124.411 375.841 124.411C376.757 124.411 377.493 124.223 378.047 123.847C378.608 123.47 378.888 123.005 378.888 122.451C378.888 121.982 378.707 121.595 378.345 121.29C377.99 120.984 377.436 120.75 376.683 120.587L373.892 120.001C372.322 119.674 371.161 119.124 370.408 118.349C369.655 117.568 369.282 116.581 369.289 115.388C369.282 114.379 369.556 113.506 370.11 112.767C370.671 112.021 371.449 111.446 372.443 111.041C373.444 110.629 374.598 110.423 375.905 110.423C377.823 110.423 379.332 110.832 380.433 111.648C381.541 112.465 382.226 113.57 382.489 114.962ZM386.021 127V110.636H389.877V127H386.021ZM387.96 108.314C387.349 108.314 386.823 108.112 386.383 107.707C385.942 107.295 385.722 106.801 385.722 106.226C385.722 105.643 385.942 105.15 386.383 104.745C386.823 104.333 387.349 104.127 387.96 104.127C388.577 104.127 389.103 104.333 389.536 104.745C389.977 105.15 390.197 105.643 390.197 106.226C390.197 106.801 389.977 107.295 389.536 107.707C389.103 108.112 388.577 108.314 387.96 108.314ZM399.915 127.288C398.63 127.288 397.479 126.957 396.464 126.297C395.448 125.636 394.645 124.678 394.056 123.42C393.466 122.163 393.172 120.636 393.172 118.839C393.172 117.021 393.47 115.487 394.067 114.237C394.67 112.98 395.483 112.032 396.506 111.393C397.529 110.746 398.669 110.423 399.926 110.423C400.885 110.423 401.673 110.587 402.291 110.913C402.909 111.233 403.399 111.62 403.761 112.075C404.123 112.522 404.404 112.945 404.603 113.342H404.763V105.182H408.63V127H404.837V124.422H404.603C404.404 124.82 404.116 125.242 403.74 125.69C403.363 126.13 402.866 126.506 402.248 126.819C401.631 127.131 400.853 127.288 399.915 127.288ZM400.991 124.124C401.808 124.124 402.504 123.903 403.079 123.463C403.655 123.016 404.091 122.394 404.39 121.599C404.688 120.803 404.837 119.876 404.837 118.818C404.837 117.76 404.688 116.84 404.39 116.059C404.099 115.278 403.665 114.67 403.09 114.237C402.522 113.804 401.822 113.587 400.991 113.587C400.132 113.587 399.415 113.811 398.839 114.259C398.264 114.706 397.831 115.324 397.54 116.112C397.248 116.901 397.103 117.803 397.103 118.818C397.103 119.841 397.248 120.754 397.54 121.556C397.838 122.352 398.275 122.98 398.85 123.442C399.432 123.896 400.146 124.124 400.991 124.124ZM419.984 127.32C418.343 127.32 416.926 126.979 415.733 126.297C414.547 125.608 413.634 124.635 412.995 123.378C412.356 122.114 412.036 120.626 412.036 118.914C412.036 117.231 412.356 115.754 412.995 114.482C413.641 113.204 414.543 112.21 415.701 111.499C416.859 110.782 418.219 110.423 419.781 110.423C420.79 110.423 421.741 110.587 422.636 110.913C423.538 111.233 424.334 111.73 425.023 112.405C425.719 113.08 426.266 113.939 426.663 114.983C427.061 116.02 427.26 117.256 427.26 118.69V119.873H413.847V117.273H423.563C423.556 116.535 423.396 115.878 423.084 115.303C422.771 114.72 422.335 114.262 421.773 113.928C421.219 113.594 420.573 113.428 419.835 113.428C419.046 113.428 418.354 113.619 417.757 114.003C417.161 114.379 416.695 114.876 416.362 115.494C416.035 116.105 415.868 116.776 415.861 117.508V119.777C415.861 120.729 416.035 121.545 416.383 122.227C416.731 122.902 417.217 123.42 417.842 123.783C418.467 124.138 419.199 124.315 420.037 124.315C420.598 124.315 421.106 124.237 421.56 124.081C422.015 123.918 422.409 123.68 422.743 123.367C423.077 123.055 423.329 122.668 423.499 122.206L427.1 122.611C426.873 123.562 426.44 124.393 425.8 125.104C425.168 125.807 424.359 126.354 423.371 126.744C422.384 127.128 421.255 127.32 419.984 127.32Z" fill="#1A1C21"/>
<path d="M179.646 384V362.182H193.836V365.495H183.599V371.418H193.101V374.732H183.599V380.687H193.922V384H179.646ZM212.315 367.636L206.487 384H202.226L196.399 367.636H200.511L204.271 379.792H204.442L208.213 367.636H212.315ZM221.671 384.32C220.031 384.32 218.614 383.979 217.42 383.297C216.234 382.608 215.322 381.635 214.683 380.378C214.043 379.114 213.724 377.626 213.724 375.914C213.724 374.231 214.043 372.754 214.683 371.482C215.329 370.204 216.231 369.21 217.388 368.499C218.546 367.782 219.906 367.423 221.469 367.423C222.477 367.423 223.429 367.587 224.324 367.913C225.226 368.233 226.021 368.73 226.71 369.405C227.406 370.08 227.953 370.939 228.351 371.983C228.749 373.02 228.947 374.256 228.947 375.69V376.873H215.535V374.273H225.251C225.244 373.535 225.084 372.878 224.771 372.303C224.459 371.72 224.022 371.262 223.461 370.928C222.907 370.594 222.261 370.428 221.522 370.428C220.734 370.428 220.041 370.619 219.445 371.003C218.848 371.379 218.383 371.876 218.049 372.494C217.722 373.105 217.555 373.776 217.548 374.508V376.777C217.548 377.729 217.722 378.545 218.07 379.227C218.418 379.902 218.905 380.42 219.53 380.783C220.155 381.138 220.886 381.315 221.724 381.315C222.286 381.315 222.793 381.237 223.248 381.081C223.702 380.918 224.097 380.68 224.43 380.367C224.764 380.055 225.016 379.668 225.187 379.206L228.788 379.611C228.56 380.562 228.127 381.393 227.488 382.104C226.856 382.807 226.046 383.354 225.059 383.744C224.072 384.128 222.942 384.32 221.671 384.32ZM236.067 374.412V384H232.21V367.636H235.896V370.417H236.088C236.464 369.501 237.064 368.773 237.888 368.233C238.719 367.693 239.746 367.423 240.967 367.423C242.096 367.423 243.08 367.665 243.918 368.148C244.763 368.631 245.417 369.33 245.878 370.246C246.347 371.163 246.578 372.274 246.571 373.581V384H242.714V374.178C242.714 373.084 242.43 372.228 241.862 371.61C241.301 370.992 240.523 370.683 239.529 370.683C238.854 370.683 238.254 370.832 237.729 371.131C237.21 371.422 236.802 371.844 236.503 372.398C236.212 372.952 236.067 373.624 236.067 374.412ZM254.348 362.182V384H250.491V362.182H254.348ZM260.711 390.136C260.185 390.136 259.699 390.094 259.251 390.009C258.811 389.93 258.459 389.838 258.196 389.732L259.091 386.727C259.652 386.891 260.153 386.969 260.593 386.962C261.034 386.955 261.421 386.816 261.755 386.546C262.096 386.283 262.383 385.843 262.618 385.225L262.948 384.341L257.014 367.636H261.105L264.876 379.994H265.047L268.828 367.636H272.93L266.378 385.982C266.073 386.848 265.668 387.59 265.164 388.208C264.659 388.833 264.042 389.309 263.31 389.636C262.586 389.969 261.719 390.136 260.711 390.136ZM283.211 384V362.182H287.067V370.342H287.227C287.426 369.945 287.706 369.522 288.069 369.075C288.431 368.62 288.921 368.233 289.539 367.913C290.157 367.587 290.945 367.423 291.904 367.423C293.168 367.423 294.308 367.746 295.324 368.393C296.346 369.032 297.156 369.98 297.752 371.237C298.356 372.487 298.658 374.021 298.658 375.839C298.658 377.636 298.363 379.163 297.774 380.42C297.184 381.678 296.382 382.636 295.366 383.297C294.35 383.957 293.2 384.288 291.914 384.288C290.977 384.288 290.199 384.131 289.581 383.819C288.963 383.506 288.466 383.13 288.09 382.69C287.721 382.242 287.433 381.82 287.227 381.422H287.003V384H283.211ZM286.993 375.818C286.993 376.876 287.142 377.803 287.44 378.599C287.745 379.394 288.182 380.016 288.75 380.463C289.326 380.903 290.022 381.124 290.838 381.124C291.691 381.124 292.404 380.896 292.98 380.442C293.555 379.98 293.988 379.352 294.279 378.556C294.578 377.754 294.727 376.841 294.727 375.818C294.727 374.803 294.581 373.901 294.29 373.112C293.999 372.324 293.566 371.706 292.99 371.259C292.415 370.811 291.698 370.587 290.838 370.587C290.015 370.587 289.315 370.804 288.74 371.237C288.164 371.67 287.728 372.278 287.429 373.059C287.138 373.84 286.993 374.76 286.993 375.818ZM306.645 384.33C305.608 384.33 304.675 384.146 303.844 383.776C303.02 383.4 302.366 382.846 301.883 382.114C301.407 381.383 301.17 380.481 301.17 379.408C301.17 378.485 301.34 377.722 301.681 377.118C302.022 376.514 302.487 376.031 303.077 375.669C303.666 375.307 304.33 375.033 305.069 374.849C305.814 374.657 306.585 374.518 307.381 374.433C308.339 374.334 309.117 374.245 309.714 374.167C310.31 374.082 310.743 373.954 311.013 373.783C311.29 373.606 311.429 373.332 311.429 372.963V372.899C311.429 372.097 311.191 371.475 310.715 371.035C310.239 370.594 309.554 370.374 308.659 370.374C307.714 370.374 306.965 370.58 306.411 370.992C305.864 371.404 305.495 371.891 305.303 372.452L301.702 371.94C301.986 370.946 302.455 370.115 303.108 369.447C303.762 368.773 304.561 368.268 305.506 367.935C306.45 367.594 307.494 367.423 308.638 367.423C309.426 367.423 310.211 367.516 310.992 367.7C311.773 367.885 312.487 368.19 313.133 368.616C313.78 369.036 314.298 369.607 314.689 370.332C315.086 371.056 315.285 371.962 315.285 373.048V384H311.578V381.752H311.45C311.216 382.207 310.885 382.633 310.459 383.031C310.04 383.421 309.511 383.737 308.872 383.979C308.24 384.213 307.498 384.33 306.645 384.33ZM307.647 381.496C308.421 381.496 309.092 381.344 309.66 381.038C310.229 380.726 310.665 380.314 310.971 379.803C311.283 379.291 311.439 378.734 311.439 378.13V376.202C311.319 376.301 311.113 376.393 310.822 376.479C310.537 376.564 310.218 376.638 309.863 376.702C309.508 376.766 309.156 376.823 308.808 376.873C308.46 376.923 308.158 376.965 307.903 377.001C307.327 377.079 306.812 377.207 306.358 377.384C305.903 377.562 305.545 377.81 305.282 378.13C305.019 378.442 304.888 378.847 304.888 379.344C304.888 380.055 305.147 380.591 305.665 380.953C306.184 381.315 306.844 381.496 307.647 381.496ZM323.02 362.182V384H319.163V362.182H323.02ZM331.694 384.33C330.657 384.33 329.723 384.146 328.892 383.776C328.069 383.4 327.415 382.846 326.932 382.114C326.456 381.383 326.218 380.481 326.218 379.408C326.218 378.485 326.389 377.722 326.73 377.118C327.071 376.514 327.536 376.031 328.125 375.669C328.715 375.307 329.379 375.033 330.118 374.849C330.863 374.657 331.634 374.518 332.429 374.433C333.388 374.334 334.166 374.245 334.762 374.167C335.359 374.082 335.792 373.954 336.062 373.783C336.339 373.606 336.478 373.332 336.478 372.963V372.899C336.478 372.097 336.24 371.475 335.764 371.035C335.288 370.594 334.603 370.374 333.708 370.374C332.763 370.374 332.014 370.58 331.46 370.992C330.913 371.404 330.544 371.891 330.352 372.452L326.751 371.94C327.035 370.946 327.504 370.115 328.157 369.447C328.811 368.773 329.61 368.268 330.554 367.935C331.499 367.594 332.543 367.423 333.686 367.423C334.475 367.423 335.26 367.516 336.041 367.7C336.822 367.885 337.536 368.19 338.182 368.616C338.828 369.036 339.347 369.607 339.738 370.332C340.135 371.056 340.334 371.962 340.334 373.048V384H336.627V381.752H336.499C336.265 382.207 335.934 382.633 335.508 383.031C335.089 383.421 334.56 383.737 333.921 383.979C333.289 384.213 332.547 384.33 331.694 384.33ZM332.696 381.496C333.47 381.496 334.141 381.344 334.709 381.038C335.277 380.726 335.714 380.314 336.02 379.803C336.332 379.291 336.488 378.734 336.488 378.13V376.202C336.368 376.301 336.162 376.393 335.87 376.479C335.586 376.564 335.267 376.638 334.912 376.702C334.556 376.766 334.205 376.823 333.857 376.873C333.509 376.923 333.207 376.965 332.951 377.001C332.376 377.079 331.861 377.207 331.407 377.384C330.952 377.562 330.593 377.81 330.331 378.13C330.068 378.442 329.936 378.847 329.936 379.344C329.936 380.055 330.196 380.591 330.714 380.953C331.233 381.315 331.893 381.496 332.696 381.496ZM348.069 374.412V384H344.212V367.636H347.898V370.417H348.09C348.466 369.501 349.066 368.773 349.89 368.233C350.721 367.693 351.748 367.423 352.969 367.423C354.098 367.423 355.082 367.665 355.92 368.148C356.765 368.631 357.419 369.33 357.88 370.246C358.349 371.163 358.58 372.274 358.573 373.581V384H354.716V374.178C354.716 373.084 354.432 372.228 353.864 371.61C353.303 370.992 352.525 370.683 351.531 370.683C350.856 370.683 350.256 370.832 349.73 371.131C349.212 371.422 348.804 371.844 348.505 372.398C348.214 372.952 348.069 373.624 348.069 374.412ZM369.631 384.32C367.998 384.32 366.595 383.961 365.423 383.244C364.258 382.526 363.36 381.536 362.728 380.271C362.103 379 361.79 377.537 361.79 375.882C361.79 374.22 362.11 372.754 362.749 371.482C363.388 370.204 364.29 369.21 365.455 368.499C366.627 367.782 368.012 367.423 369.61 367.423C370.938 367.423 372.113 367.668 373.136 368.158C374.166 368.641 374.986 369.327 375.597 370.214C376.208 371.095 376.556 372.125 376.641 373.304H372.955C372.806 372.516 372.451 371.859 371.89 371.333C371.336 370.8 370.593 370.534 369.663 370.534C368.875 370.534 368.182 370.747 367.586 371.173C366.989 371.592 366.524 372.196 366.19 372.984C365.863 373.773 365.7 374.717 365.7 375.818C365.7 376.933 365.863 377.892 366.19 378.695C366.517 379.49 366.975 380.104 367.564 380.538C368.161 380.964 368.86 381.177 369.663 381.177C370.231 381.177 370.739 381.07 371.186 380.857C371.641 380.637 372.021 380.321 372.326 379.909C372.632 379.497 372.841 378.996 372.955 378.407H376.641C376.549 379.565 376.208 380.591 375.618 381.486C375.029 382.374 374.226 383.07 373.211 383.574C372.195 384.071 371.002 384.32 369.631 384.32ZM387.052 384.32C385.411 384.32 383.994 383.979 382.801 383.297C381.615 382.608 380.703 381.635 380.063 380.378C379.424 379.114 379.105 377.626 379.105 375.914C379.105 374.231 379.424 372.754 380.063 371.482C380.71 370.204 381.612 369.21 382.769 368.499C383.927 367.782 385.287 367.423 386.85 367.423C387.858 367.423 388.81 367.587 389.705 367.913C390.607 368.233 391.402 368.73 392.091 369.405C392.787 370.08 393.334 370.939 393.732 371.983C394.129 373.02 394.328 374.256 394.328 375.69V376.873H380.916V374.273H390.632C390.624 373.535 390.465 372.878 390.152 372.303C389.84 371.72 389.403 371.262 388.842 370.928C388.288 370.594 387.642 370.428 386.903 370.428C386.115 370.428 385.422 370.619 384.825 371.003C384.229 371.379 383.764 371.876 383.43 372.494C383.103 373.105 382.936 373.776 382.929 374.508V376.777C382.929 377.729 383.103 378.545 383.451 379.227C383.799 379.902 384.286 380.42 384.911 380.783C385.536 381.138 386.267 381.315 387.105 381.315C387.666 381.315 388.174 381.237 388.629 381.081C389.083 380.918 389.477 380.68 389.811 380.367C390.145 380.055 390.397 379.668 390.568 379.206L394.169 379.611C393.941 380.562 393.508 381.393 392.869 382.104C392.237 382.807 391.427 383.354 390.44 383.744C389.453 384.128 388.323 384.32 387.052 384.32ZM403.663 384.288C402.378 384.288 401.227 383.957 400.212 383.297C399.196 382.636 398.393 381.678 397.804 380.42C397.214 379.163 396.92 377.636 396.92 375.839C396.92 374.021 397.218 372.487 397.815 371.237C398.418 369.98 399.232 369.032 400.254 368.393C401.277 367.746 402.417 367.423 403.674 367.423C404.633 367.423 405.421 367.587 406.039 367.913C406.657 368.233 407.147 368.62 407.509 369.075C407.871 369.522 408.152 369.945 408.351 370.342H408.511V362.182H412.378V384H408.585V381.422H408.351C408.152 381.82 407.864 382.242 407.488 382.69C407.112 383.13 406.614 383.506 405.996 383.819C405.379 384.131 404.601 384.288 403.663 384.288ZM404.739 381.124C405.556 381.124 406.252 380.903 406.827 380.463C407.403 380.016 407.839 379.394 408.138 378.599C408.436 377.803 408.585 376.876 408.585 375.818C408.585 374.76 408.436 373.84 408.138 373.059C407.847 372.278 407.413 371.67 406.838 371.237C406.27 370.804 405.57 370.587 404.739 370.587C403.88 370.587 403.163 370.811 402.587 371.259C402.012 371.706 401.579 372.324 401.288 373.112C400.996 373.901 400.851 374.803 400.851 375.818C400.851 376.841 400.996 377.754 401.288 378.556C401.586 379.352 402.023 379.98 402.598 380.442C403.18 380.896 403.894 381.124 404.739 381.124Z" fill="#1A1C21"/>
<path d="M578.029 127H570.635V105.182H578.178C580.344 105.182 582.205 105.619 583.76 106.492C585.323 107.359 586.523 108.605 587.361 110.232C588.199 111.858 588.618 113.804 588.618 116.07C588.618 118.342 588.196 120.295 587.351 121.929C586.513 123.562 585.302 124.816 583.718 125.69C582.141 126.563 580.245 127 578.029 127ZM574.588 123.58H577.837C579.357 123.58 580.625 123.303 581.64 122.749C582.656 122.188 583.419 121.354 583.931 120.246C584.442 119.131 584.698 117.739 584.698 116.07C584.698 114.401 584.442 113.016 583.931 111.915C583.419 110.807 582.663 109.979 581.662 109.433C580.667 108.879 579.432 108.602 577.954 108.602H574.588V123.58ZM599.341 127.32C597.743 127.32 596.358 126.968 595.186 126.265C594.014 125.562 593.105 124.578 592.459 123.314C591.82 122.05 591.5 120.572 591.5 118.882C591.5 117.192 591.82 115.711 592.459 114.44C593.105 113.168 594.014 112.181 595.186 111.478C596.358 110.775 597.743 110.423 599.341 110.423C600.939 110.423 602.324 110.775 603.496 111.478C604.668 112.181 605.573 113.168 606.212 114.44C606.859 115.711 607.182 117.192 607.182 118.882C607.182 120.572 606.859 122.05 606.212 123.314C605.573 124.578 604.668 125.562 603.496 126.265C602.324 126.968 600.939 127.32 599.341 127.32ZM599.362 124.23C600.229 124.23 600.953 123.992 601.536 123.516C602.118 123.033 602.551 122.387 602.835 121.577C603.127 120.768 603.272 119.866 603.272 118.871C603.272 117.87 603.127 116.964 602.835 116.155C602.551 115.338 602.118 114.688 601.536 114.205C600.953 113.722 600.229 113.481 599.362 113.481C598.475 113.481 597.736 113.722 597.146 114.205C596.564 114.688 596.127 115.338 595.836 116.155C595.552 116.964 595.41 117.87 595.41 118.871C595.41 119.866 595.552 120.768 595.836 121.577C596.127 122.387 596.564 123.033 597.146 123.516C597.736 123.992 598.475 124.23 599.362 124.23ZM610.455 127V110.636H614.141V113.417H614.333C614.674 112.479 615.239 111.748 616.027 111.222C616.815 110.69 617.756 110.423 618.85 110.423C619.958 110.423 620.892 110.693 621.652 111.233C622.419 111.766 622.959 112.494 623.271 113.417H623.442C623.804 112.508 624.415 111.783 625.274 111.244C626.141 110.697 627.167 110.423 628.353 110.423C629.859 110.423 631.087 110.899 632.039 111.851C632.991 112.803 633.467 114.191 633.467 116.016V127H629.599V116.613C629.599 115.597 629.329 114.855 628.79 114.386C628.25 113.911 627.589 113.673 626.808 113.673C625.878 113.673 625.15 113.964 624.624 114.546C624.106 115.121 623.847 115.871 623.847 116.794V127H620.065V116.453C620.065 115.608 619.809 114.933 619.297 114.429C618.793 113.925 618.133 113.673 617.316 113.673C616.762 113.673 616.258 113.815 615.803 114.099C615.349 114.376 614.986 114.77 614.717 115.281C614.447 115.786 614.312 116.375 614.312 117.05V127H610.455ZM637.379 127V110.636H641.236V127H637.379ZM639.318 108.314C638.707 108.314 638.182 108.112 637.741 107.707C637.301 107.295 637.081 106.801 637.081 106.226C637.081 105.643 637.301 105.15 637.741 104.745C638.182 104.333 638.707 104.127 639.318 104.127C639.936 104.127 640.461 104.333 640.895 104.745C641.335 105.15 641.555 105.643 641.555 106.226C641.555 106.801 641.335 107.295 640.895 107.707C640.461 108.112 639.936 108.314 639.318 108.314ZM649.058 117.412V127H645.201V110.636H648.887V113.417H649.079C649.456 112.501 650.056 111.773 650.88 111.233C651.71 110.693 652.737 110.423 653.958 110.423C655.088 110.423 656.071 110.665 656.909 111.148C657.755 111.631 658.408 112.33 658.87 113.246C659.338 114.163 659.569 115.274 659.562 116.581V127H655.706V117.178C655.706 116.084 655.421 115.228 654.853 114.61C654.292 113.992 653.514 113.683 652.52 113.683C651.845 113.683 651.245 113.832 650.72 114.131C650.201 114.422 649.793 114.844 649.495 115.398C649.203 115.952 649.058 116.624 649.058 117.412ZM668.191 127.33C667.154 127.33 666.22 127.146 665.389 126.776C664.566 126.4 663.912 125.846 663.429 125.114C662.953 124.383 662.715 123.481 662.715 122.408C662.715 121.485 662.886 120.722 663.227 120.118C663.568 119.514 664.033 119.031 664.622 118.669C665.212 118.307 665.876 118.033 666.615 117.849C667.36 117.657 668.131 117.518 668.926 117.433C669.885 117.334 670.663 117.245 671.259 117.167C671.856 117.082 672.289 116.954 672.559 116.783C672.836 116.606 672.975 116.332 672.975 115.963V115.899C672.975 115.097 672.737 114.475 672.261 114.035C671.785 113.594 671.1 113.374 670.205 113.374C669.26 113.374 668.511 113.58 667.957 113.992C667.41 114.404 667.041 114.891 666.849 115.452L663.248 114.94C663.532 113.946 664.001 113.115 664.654 112.447C665.308 111.773 666.107 111.268 667.051 110.935C667.996 110.594 669.04 110.423 670.184 110.423C670.972 110.423 671.757 110.516 672.538 110.7C673.319 110.885 674.033 111.19 674.679 111.616C675.326 112.036 675.844 112.607 676.235 113.332C676.632 114.056 676.831 114.962 676.831 116.048V127H673.124V124.752H672.996C672.762 125.207 672.431 125.633 672.005 126.031C671.586 126.421 671.057 126.737 670.418 126.979C669.786 127.213 669.044 127.33 668.191 127.33ZM669.193 124.496C669.967 124.496 670.638 124.344 671.206 124.038C671.774 123.726 672.211 123.314 672.517 122.803C672.829 122.291 672.985 121.734 672.985 121.13V119.202C672.865 119.301 672.659 119.393 672.367 119.479C672.083 119.564 671.764 119.638 671.409 119.702C671.054 119.766 670.702 119.823 670.354 119.873C670.006 119.923 669.704 119.965 669.448 120.001C668.873 120.079 668.358 120.207 667.904 120.384C667.449 120.562 667.09 120.81 666.828 121.13C666.565 121.442 666.434 121.847 666.434 122.344C666.434 123.055 666.693 123.591 667.211 123.953C667.73 124.315 668.39 124.496 669.193 124.496ZM684.566 117.412V127H680.709V110.636H684.395V113.417H684.587C684.963 112.501 685.563 111.773 686.387 111.233C687.218 110.693 688.245 110.423 689.466 110.423C690.595 110.423 691.579 110.665 692.417 111.148C693.262 111.631 693.916 112.33 694.377 113.246C694.846 114.163 695.077 115.274 695.07 116.581V127H691.213V117.178C691.213 116.084 690.929 115.228 690.361 114.61C689.8 113.992 689.022 113.683 688.028 113.683C687.353 113.683 686.753 113.832 686.228 114.131C685.709 114.422 685.301 114.844 685.002 115.398C684.711 115.952 684.566 116.624 684.566 117.412ZM707.161 110.636V113.619H697.755V110.636H707.161ZM700.077 106.716H703.934V122.078C703.934 122.597 704.012 122.994 704.168 123.271C704.331 123.541 704.544 123.726 704.807 123.825C705.07 123.925 705.361 123.974 705.681 123.974C705.922 123.974 706.142 123.957 706.341 123.921C706.547 123.886 706.703 123.854 706.81 123.825L707.46 126.84C707.254 126.911 706.959 126.989 706.576 127.075C706.199 127.16 705.737 127.21 705.191 127.224C704.225 127.252 703.355 127.107 702.581 126.787C701.806 126.46 701.192 125.956 700.737 125.274C700.29 124.592 700.07 123.74 700.077 122.717V106.716ZM717.828 127V110.636H721.568V113.364H721.738C722.036 112.419 722.548 111.691 723.272 111.18C724.004 110.661 724.838 110.402 725.776 110.402C725.989 110.402 726.227 110.413 726.489 110.434C726.759 110.448 726.983 110.473 727.161 110.509V114.056C726.997 113.999 726.738 113.95 726.383 113.907C726.035 113.857 725.698 113.832 725.371 113.832C724.668 113.832 724.036 113.985 723.475 114.29C722.921 114.589 722.484 115.004 722.164 115.537C721.845 116.07 721.685 116.684 721.685 117.38V127H717.828ZM729.723 127V110.636H733.579V127H729.723ZM731.662 108.314C731.051 108.314 730.525 108.112 730.085 107.707C729.645 107.295 729.424 106.801 729.424 106.226C729.424 105.643 729.645 105.15 730.085 104.745C730.525 104.333 731.051 104.127 731.662 104.127C732.28 104.127 732.805 104.333 733.238 104.745C733.679 105.15 733.899 105.643 733.899 106.226C733.899 106.801 733.679 107.295 733.238 107.707C732.805 108.112 732.28 108.314 731.662 108.314ZM744.661 133.477C743.277 133.477 742.087 133.289 741.093 132.913C740.098 132.543 739.299 132.046 738.696 131.421C738.092 130.796 737.673 130.104 737.438 129.344L740.911 128.502C741.068 128.822 741.295 129.138 741.593 129.45C741.892 129.77 742.293 130.033 742.797 130.239C743.309 130.452 743.951 130.558 744.725 130.558C745.819 130.558 746.725 130.292 747.442 129.759C748.159 129.234 748.518 128.367 748.518 127.16V124.06H748.326C748.127 124.457 747.836 124.866 747.453 125.285C747.076 125.704 746.576 126.055 745.951 126.339C745.333 126.624 744.555 126.766 743.617 126.766C742.36 126.766 741.22 126.471 740.198 125.881C739.182 125.285 738.372 124.397 737.769 123.218C737.172 122.032 736.874 120.548 736.874 118.765C736.874 116.968 737.172 115.452 737.769 114.216C738.372 112.973 739.186 112.032 740.208 111.393C741.231 110.746 742.371 110.423 743.628 110.423C744.587 110.423 745.375 110.587 745.993 110.913C746.618 111.233 747.115 111.62 747.485 112.075C747.854 112.522 748.134 112.945 748.326 113.342H748.539V110.636H752.343V127.266C752.343 128.665 752.009 129.823 751.341 130.739C750.674 131.656 749.761 132.341 748.603 132.795C747.446 133.25 746.132 133.477 744.661 133.477ZM744.693 123.74C745.51 123.74 746.206 123.541 746.782 123.143C747.357 122.746 747.794 122.174 748.092 121.428C748.39 120.683 748.539 119.788 748.539 118.744C748.539 117.714 748.39 116.812 748.092 116.038C747.801 115.263 747.367 114.663 746.792 114.237C746.224 113.804 745.524 113.587 744.693 113.587C743.834 113.587 743.117 113.811 742.541 114.259C741.966 114.706 741.533 115.32 741.242 116.102C740.951 116.876 740.805 117.756 740.805 118.744C740.805 119.745 740.951 120.622 741.242 121.375C741.54 122.121 741.977 122.703 742.552 123.122C743.134 123.534 743.848 123.74 744.693 123.74ZM760.152 117.412V127H756.295V105.182H760.066V113.417H760.258C760.642 112.494 761.235 111.766 762.037 111.233C762.847 110.693 763.877 110.423 765.127 110.423C766.263 110.423 767.254 110.661 768.099 111.137C768.944 111.613 769.598 112.309 770.059 113.225C770.528 114.141 770.762 115.26 770.762 116.581V127H766.906V117.178C766.906 116.077 766.622 115.221 766.054 114.61C765.492 113.992 764.704 113.683 763.688 113.683C763.007 113.683 762.396 113.832 761.856 114.131C761.323 114.422 760.904 114.844 760.599 115.398C760.301 115.952 760.152 116.624 760.152 117.412ZM782.865 110.636V113.619H773.458V110.636H782.865ZM775.78 106.716H779.637V122.078C779.637 122.597 779.715 122.994 779.871 123.271C780.034 123.541 780.247 123.726 780.51 123.825C780.773 123.925 781.064 123.974 781.384 123.974C781.625 123.974 781.845 123.957 782.044 123.921C782.25 123.886 782.407 123.854 782.513 123.825L783.163 126.84C782.957 126.911 782.662 126.989 782.279 127.075C781.902 127.16 781.441 127.21 780.894 127.224C779.928 127.252 779.058 127.107 778.284 126.787C777.509 126.46 776.895 125.956 776.441 125.274C775.993 124.592 775.773 123.74 775.78 122.717V106.716ZM806.465 114.962L802.949 115.345C802.85 114.99 802.676 114.656 802.427 114.344C802.185 114.031 801.859 113.779 801.447 113.587C801.035 113.396 800.531 113.3 799.934 113.3C799.131 113.3 798.457 113.474 797.91 113.822C797.37 114.17 797.104 114.621 797.111 115.175C797.104 115.651 797.278 116.038 797.633 116.336C797.995 116.634 798.592 116.879 799.423 117.071L802.214 117.668C803.762 118.001 804.913 118.531 805.666 119.255C806.426 119.979 806.809 120.928 806.816 122.099C806.809 123.129 806.507 124.038 805.911 124.827C805.321 125.608 804.501 126.219 803.45 126.659C802.399 127.099 801.191 127.32 799.828 127.32C797.825 127.32 796.212 126.901 794.991 126.062C793.769 125.217 793.041 124.042 792.807 122.536L796.568 122.174C796.738 122.913 797.1 123.47 797.654 123.847C798.208 124.223 798.929 124.411 799.817 124.411C800.733 124.411 801.468 124.223 802.022 123.847C802.583 123.47 802.864 123.005 802.864 122.451C802.864 121.982 802.683 121.595 802.32 121.29C801.965 120.984 801.411 120.75 800.658 120.587L797.867 120.001C796.298 119.674 795.136 119.124 794.384 118.349C793.631 117.568 793.258 116.581 793.265 115.388C793.258 114.379 793.531 113.506 794.085 112.767C794.646 112.021 795.424 111.446 796.418 111.041C797.42 110.629 798.574 110.423 799.881 110.423C801.798 110.423 803.308 110.832 804.408 111.648C805.516 112.465 806.202 113.57 806.465 114.962ZM809.996 127V110.636H813.853V127H809.996ZM811.935 108.314C811.324 108.314 810.799 108.112 810.358 107.707C809.918 107.295 809.698 106.801 809.698 106.226C809.698 105.643 809.918 105.15 810.358 104.745C810.799 104.333 811.324 104.127 811.935 104.127C812.553 104.127 813.079 104.333 813.512 104.745C813.952 105.15 814.172 105.643 814.172 106.226C814.172 106.801 813.952 107.295 813.512 107.707C813.079 108.112 812.553 108.314 811.935 108.314ZM823.891 127.288C822.605 127.288 821.455 126.957 820.439 126.297C819.424 125.636 818.621 124.678 818.032 123.42C817.442 122.163 817.147 120.636 817.147 118.839C817.147 117.021 817.446 115.487 818.042 114.237C818.646 112.98 819.459 112.032 820.482 111.393C821.505 110.746 822.644 110.423 823.902 110.423C824.86 110.423 825.649 110.587 826.267 110.913C826.884 111.233 827.375 111.62 827.737 112.075C828.099 112.522 828.38 112.945 828.578 113.342H828.738V105.182H832.605V127H828.813V124.422H828.578C828.38 124.82 828.092 125.242 827.715 125.69C827.339 126.13 826.842 126.506 826.224 126.819C825.606 127.131 824.828 127.288 823.891 127.288ZM824.967 124.124C825.784 124.124 826.48 123.903 827.055 123.463C827.63 123.016 828.067 122.394 828.365 121.599C828.664 120.803 828.813 119.876 828.813 118.818C828.813 117.76 828.664 116.84 828.365 116.059C828.074 115.278 827.641 114.67 827.066 114.237C826.497 113.804 825.798 113.587 824.967 113.587C824.108 113.587 823.39 113.811 822.815 114.259C822.24 114.706 821.806 115.324 821.515 116.112C821.224 116.901 821.078 117.803 821.078 118.818C821.078 119.841 821.224 120.754 821.515 121.556C821.813 122.352 822.25 122.98 822.826 123.442C823.408 123.896 824.122 124.124 824.967 124.124ZM843.959 127.32C842.319 127.32 840.902 126.979 839.709 126.297C838.522 125.608 837.61 124.635 836.971 123.378C836.331 122.114 836.012 120.626 836.012 118.914C836.012 117.231 836.331 115.754 836.971 114.482C837.617 113.204 838.519 112.21 839.677 111.499C840.834 110.782 842.194 110.423 843.757 110.423C844.765 110.423 845.717 110.587 846.612 110.913C847.514 111.233 848.309 111.73 848.998 112.405C849.694 113.08 850.241 113.939 850.639 114.983C851.037 116.02 851.236 117.256 851.236 118.69V119.873H837.823V117.273H847.539C847.532 116.535 847.372 115.878 847.059 115.303C846.747 114.72 846.31 114.262 845.749 113.928C845.195 113.594 844.549 113.428 843.81 113.428C843.022 113.428 842.329 113.619 841.733 114.003C841.136 114.379 840.671 114.876 840.337 115.494C840.01 116.105 839.843 116.776 839.836 117.508V119.777C839.836 120.729 840.01 121.545 840.358 122.227C840.706 122.902 841.193 123.42 841.818 123.783C842.443 124.138 843.174 124.315 844.013 124.315C844.574 124.315 845.081 124.237 845.536 124.081C845.991 123.918 846.385 123.68 846.718 123.367C847.052 123.055 847.304 122.668 847.475 122.206L851.076 122.611C850.848 123.562 850.415 124.393 849.776 125.104C849.144 125.807 848.334 126.354 847.347 126.744C846.36 127.128 845.231 127.32 843.959 127.32Z" fill="#1A1C21"/>
<path d="M562.562 362.182H567.399L573.876 377.991H574.132L580.609 362.182H585.446V384H581.653V369.011H581.451L575.421 383.936H572.587L566.557 368.979H566.355V384H562.562V362.182ZM596.717 384.32C595.119 384.32 593.734 383.968 592.562 383.265C591.39 382.562 590.481 381.578 589.835 380.314C589.196 379.05 588.876 377.572 588.876 375.882C588.876 374.192 589.196 372.711 589.835 371.44C590.481 370.168 591.39 369.181 592.562 368.478C593.734 367.775 595.119 367.423 596.717 367.423C598.315 367.423 599.7 367.775 600.872 368.478C602.044 369.181 602.949 370.168 603.588 371.44C604.235 372.711 604.558 374.192 604.558 375.882C604.558 377.572 604.235 379.05 603.588 380.314C602.949 381.578 602.044 382.562 600.872 383.265C599.7 383.968 598.315 384.32 596.717 384.32ZM596.738 381.23C597.605 381.23 598.329 380.992 598.912 380.516C599.494 380.033 599.927 379.387 600.211 378.577C600.502 377.768 600.648 376.866 600.648 375.871C600.648 374.87 600.502 373.964 600.211 373.155C599.927 372.338 599.494 371.688 598.912 371.205C598.329 370.722 597.605 370.481 596.738 370.481C595.85 370.481 595.112 370.722 594.522 371.205C593.94 371.688 593.503 372.338 593.212 373.155C592.928 373.964 592.786 374.87 592.786 375.871C592.786 376.866 592.928 377.768 593.212 378.577C593.503 379.387 593.94 380.033 594.522 380.516C595.112 380.992 595.85 381.23 596.738 381.23ZM611.688 374.412V384H607.831V367.636H611.517V370.417H611.709C612.085 369.501 612.686 368.773 613.509 368.233C614.34 367.693 615.367 367.423 616.588 367.423C617.718 367.423 618.701 367.665 619.539 368.148C620.384 368.631 621.038 369.33 621.499 370.246C621.968 371.163 622.199 372.274 622.192 373.581V384H618.335V374.178C618.335 373.084 618.051 372.228 617.483 371.61C616.922 370.992 616.144 370.683 615.15 370.683C614.475 370.683 613.875 370.832 613.35 371.131C612.831 371.422 612.423 371.844 612.124 372.398C611.833 372.952 611.688 373.624 611.688 374.412ZM626.112 384V367.636H629.969V384H626.112ZM628.051 365.314C627.441 365.314 626.915 365.112 626.475 364.707C626.034 364.295 625.814 363.801 625.814 363.226C625.814 362.643 626.034 362.15 626.475 361.745C626.915 361.333 627.441 361.127 628.051 361.127C628.669 361.127 629.195 361.333 629.628 361.745C630.068 362.15 630.289 362.643 630.289 363.226C630.289 363.801 630.068 364.295 629.628 364.707C629.195 365.112 628.669 365.314 628.051 365.314ZM642.106 367.636V370.619H632.699V367.636H642.106ZM635.021 363.716H638.878V379.078C638.878 379.597 638.956 379.994 639.112 380.271C639.276 380.541 639.489 380.726 639.751 380.825C640.014 380.925 640.305 380.974 640.625 380.974C640.866 380.974 641.087 380.957 641.286 380.921C641.491 380.886 641.648 380.854 641.754 380.825L642.404 383.84C642.198 383.911 641.903 383.989 641.52 384.075C641.143 384.16 640.682 384.21 640.135 384.224C639.169 384.252 638.299 384.107 637.525 383.787C636.751 383.46 636.136 382.956 635.682 382.274C635.234 381.592 635.014 380.74 635.021 379.717V363.716ZM652.293 384.32C650.695 384.32 649.31 383.968 648.138 383.265C646.966 382.562 646.057 381.578 645.411 380.314C644.772 379.05 644.452 377.572 644.452 375.882C644.452 374.192 644.772 372.711 645.411 371.44C646.057 370.168 646.966 369.181 648.138 368.478C649.31 367.775 650.695 367.423 652.293 367.423C653.891 367.423 655.276 367.775 656.448 368.478C657.62 369.181 658.525 370.168 659.165 371.44C659.811 372.711 660.134 374.192 660.134 375.882C660.134 377.572 659.811 379.05 659.165 380.314C658.525 381.578 657.62 382.562 656.448 383.265C655.276 383.968 653.891 384.32 652.293 384.32ZM652.314 381.23C653.181 381.23 653.905 380.992 654.488 380.516C655.07 380.033 655.503 379.387 655.787 378.577C656.079 377.768 656.224 376.866 656.224 375.871C656.224 374.87 656.079 373.964 655.787 373.155C655.503 372.338 655.07 371.688 654.488 371.205C653.905 370.722 653.181 370.481 652.314 370.481C651.427 370.481 650.688 370.722 650.099 371.205C649.516 371.688 649.079 372.338 648.788 373.155C648.504 373.964 648.362 374.87 648.362 375.871C648.362 376.866 648.504 377.768 648.788 378.577C649.079 379.387 649.516 380.033 650.099 380.516C650.688 380.992 651.427 381.23 652.314 381.23ZM663.407 384V367.636H667.147V370.364H667.317C667.615 369.419 668.127 368.691 668.851 368.18C669.583 367.661 670.417 367.402 671.355 367.402C671.568 367.402 671.806 367.413 672.069 367.434C672.338 367.448 672.562 367.473 672.74 367.509V371.056C672.576 370.999 672.317 370.95 671.962 370.907C671.614 370.857 671.277 370.832 670.95 370.832C670.247 370.832 669.615 370.985 669.054 371.29C668.5 371.589 668.063 372.004 667.743 372.537C667.424 373.07 667.264 373.684 667.264 374.38V384H663.407ZM675.302 384V367.636H679.158V384H675.302ZM677.241 365.314C676.63 365.314 676.104 365.112 675.664 364.707C675.224 364.295 675.004 363.801 675.004 363.226C675.004 362.643 675.224 362.15 675.664 361.745C676.104 361.333 676.63 361.127 677.241 361.127C677.859 361.127 678.384 361.333 678.817 361.745C679.258 362.15 679.478 362.643 679.478 363.226C679.478 363.801 679.258 364.295 678.817 364.707C678.384 365.112 677.859 365.314 677.241 365.314ZM686.981 374.412V384H683.124V367.636H686.81V370.417H687.002C687.378 369.501 687.979 368.773 688.802 368.233C689.633 367.693 690.66 367.423 691.881 367.423C693.01 367.423 693.994 367.665 694.832 368.148C695.677 368.631 696.331 369.33 696.792 370.246C697.261 371.163 697.492 372.274 697.485 373.581V384H693.628V374.178C693.628 373.084 693.344 372.228 692.776 371.61C692.215 370.992 691.437 370.683 690.443 370.683C689.768 370.683 689.168 370.832 688.643 371.131C688.124 371.422 687.716 371.844 687.417 372.398C687.126 372.952 686.981 373.624 686.981 374.412ZM708.522 390.477C707.137 390.477 705.947 390.289 704.953 389.913C703.959 389.543 703.16 389.046 702.556 388.421C701.952 387.796 701.533 387.104 701.299 386.344L704.772 385.502C704.928 385.822 705.155 386.138 705.454 386.45C705.752 386.77 706.153 387.033 706.657 387.239C707.169 387.452 707.812 387.558 708.586 387.558C709.68 387.558 710.585 387.292 711.302 386.759C712.02 386.234 712.378 385.367 712.378 384.16V381.06H712.187C711.988 381.457 711.697 381.866 711.313 382.285C710.937 382.704 710.436 383.055 709.811 383.339C709.193 383.624 708.415 383.766 707.478 383.766C706.221 383.766 705.081 383.471 704.058 382.881C703.042 382.285 702.233 381.397 701.629 380.218C701.032 379.032 700.734 377.548 700.734 375.765C700.734 373.968 701.032 372.452 701.629 371.216C702.233 369.973 703.046 369.032 704.069 368.393C705.091 367.746 706.231 367.423 707.488 367.423C708.447 367.423 709.236 367.587 709.854 367.913C710.479 368.233 710.976 368.62 711.345 369.075C711.714 369.522 711.995 369.945 712.187 370.342H712.4V367.636H716.203V384.266C716.203 385.665 715.869 386.823 715.202 387.739C714.534 388.656 713.621 389.341 712.464 389.795C711.306 390.25 709.992 390.477 708.522 390.477ZM708.554 380.74C709.371 380.74 710.067 380.541 710.642 380.143C711.217 379.746 711.654 379.174 711.952 378.428C712.251 377.683 712.4 376.788 712.4 375.744C712.4 374.714 712.251 373.812 711.952 373.038C711.661 372.263 711.228 371.663 710.653 371.237C710.084 370.804 709.385 370.587 708.554 370.587C707.694 370.587 706.977 370.811 706.402 371.259C705.827 371.706 705.393 372.32 705.102 373.102C704.811 373.876 704.665 374.756 704.665 375.744C704.665 376.745 704.811 377.622 705.102 378.375C705.4 379.121 705.837 379.703 706.412 380.122C706.995 380.534 707.709 380.74 708.554 380.74ZM740.53 371.962L737.014 372.345C736.915 371.99 736.741 371.656 736.492 371.344C736.251 371.031 735.924 370.779 735.512 370.587C735.1 370.396 734.596 370.3 733.999 370.3C733.197 370.3 732.522 370.474 731.975 370.822C731.436 371.17 731.169 371.621 731.176 372.175C731.169 372.651 731.343 373.038 731.698 373.336C732.061 373.634 732.657 373.879 733.488 374.071L736.279 374.668C737.828 375.001 738.978 375.531 739.731 376.255C740.491 376.979 740.874 377.928 740.882 379.099C740.874 380.129 740.573 381.038 739.976 381.827C739.387 382.608 738.566 383.219 737.515 383.659C736.464 384.099 735.257 384.32 733.893 384.32C731.89 384.32 730.278 383.901 729.056 383.062C727.835 382.217 727.107 381.042 726.872 379.536L730.633 379.174C730.803 379.913 731.166 380.47 731.72 380.847C732.274 381.223 732.994 381.411 733.882 381.411C734.798 381.411 735.534 381.223 736.088 380.847C736.649 380.47 736.929 380.005 736.929 379.451C736.929 378.982 736.748 378.595 736.386 378.29C736.031 377.984 735.477 377.75 734.724 377.587L731.933 377.001C730.363 376.674 729.202 376.124 728.449 375.349C727.696 374.568 727.323 373.581 727.33 372.388C727.323 371.379 727.597 370.506 728.151 369.767C728.712 369.021 729.49 368.446 730.484 368.041C731.485 367.629 732.639 367.423 733.946 367.423C735.864 367.423 737.373 367.832 738.474 368.648C739.582 369.465 740.267 370.57 740.53 371.962ZM752.233 367.636V370.619H742.826V367.636H752.233ZM745.148 363.716H749.005V379.078C749.005 379.597 749.083 379.994 749.239 380.271C749.403 380.541 749.616 380.726 749.878 380.825C750.141 380.925 750.432 380.974 750.752 380.974C750.993 380.974 751.214 380.957 751.412 380.921C751.618 380.886 751.775 380.854 751.881 380.825L752.531 383.84C752.325 383.911 752.03 383.989 751.647 384.075C751.27 384.16 750.809 384.21 750.262 384.224C749.296 384.252 748.426 384.107 747.652 383.787C746.878 383.46 746.263 382.956 745.809 382.274C745.361 381.592 745.141 380.74 745.148 379.717V363.716ZM755.458 384V367.636H759.197V370.364H759.368C759.666 369.419 760.178 368.691 760.902 368.18C761.634 367.661 762.468 367.402 763.406 367.402C763.619 367.402 763.857 367.413 764.119 367.434C764.389 367.448 764.613 367.473 764.79 367.509V371.056C764.627 370.999 764.368 370.95 764.013 370.907C763.665 370.857 763.327 370.832 763.001 370.832C762.298 370.832 761.665 370.985 761.104 371.29C760.55 371.589 760.114 372.004 759.794 372.537C759.474 373.07 759.315 373.684 759.315 374.38V384H755.458ZM777.782 377.118V367.636H781.639V384H777.9V381.092H777.729C777.36 382.008 776.752 382.757 775.907 383.339C775.069 383.922 774.036 384.213 772.807 384.213C771.735 384.213 770.787 383.975 769.963 383.499C769.146 383.016 768.507 382.317 768.045 381.401C767.583 380.477 767.353 379.362 767.353 378.055V367.636H771.209V377.459C771.209 378.496 771.493 379.32 772.061 379.93C772.63 380.541 773.375 380.847 774.299 380.847C774.867 380.847 775.417 380.708 775.95 380.431C776.483 380.154 776.919 379.742 777.26 379.195C777.608 378.641 777.782 377.949 777.782 377.118ZM792.742 384.32C791.109 384.32 789.706 383.961 788.534 383.244C787.369 382.526 786.471 381.536 785.839 380.271C785.214 379 784.901 377.537 784.901 375.882C784.901 374.22 785.221 372.754 785.86 371.482C786.499 370.204 787.401 369.21 788.566 368.499C789.738 367.782 791.123 367.423 792.721 367.423C794.049 367.423 795.225 367.668 796.247 368.158C797.277 368.641 798.097 369.327 798.708 370.214C799.319 371.095 799.667 372.125 799.752 373.304H796.066C795.917 372.516 795.562 371.859 795.001 371.333C794.447 370.8 793.705 370.534 792.774 370.534C791.986 370.534 791.294 370.747 790.697 371.173C790.1 371.592 789.635 372.196 789.301 372.984C788.975 373.773 788.811 374.717 788.811 375.818C788.811 376.933 788.975 377.892 789.301 378.695C789.628 379.49 790.086 380.104 790.676 380.538C791.272 380.964 791.972 381.177 792.774 381.177C793.343 381.177 793.85 381.07 794.298 380.857C794.752 380.637 795.132 380.321 795.438 379.909C795.743 379.497 795.953 378.996 796.066 378.407H799.752C799.66 379.565 799.319 380.591 798.73 381.486C798.14 382.374 797.338 383.07 796.322 383.574C795.306 384.071 794.113 384.32 792.742 384.32ZM811.09 367.636V370.619H801.683V367.636H811.09ZM804.006 363.716H807.862V379.078C807.862 379.597 807.94 379.994 808.097 380.271C808.26 380.541 808.473 380.726 808.736 380.825C808.999 380.925 809.29 380.974 809.609 380.974C809.851 380.974 810.071 380.957 810.27 380.921C810.476 380.886 810.632 380.854 810.739 380.825L811.388 383.84C811.183 383.911 810.888 383.989 810.504 384.075C810.128 384.16 809.666 384.21 809.119 384.224C808.153 384.252 807.283 384.107 806.509 383.787C805.735 383.46 805.121 382.956 804.666 382.274C804.219 381.592 803.999 380.74 804.006 379.717V363.716ZM824.745 377.118V367.636H828.602V384H824.862V381.092H824.692C824.323 382.008 823.715 382.757 822.87 383.339C822.032 383.922 820.999 384.213 819.77 384.213C818.698 384.213 817.749 383.975 816.926 383.499C816.109 383.016 815.47 382.317 815.008 381.401C814.546 380.477 814.316 379.362 814.316 378.055V367.636H818.172V377.459C818.172 378.496 818.456 379.32 819.024 379.93C819.593 380.541 820.338 380.847 821.262 380.847C821.83 380.847 822.38 380.708 822.913 380.431C823.445 380.154 823.882 379.742 824.223 379.195C824.571 378.641 824.745 377.949 824.745 377.118ZM832.567 384V367.636H836.307V370.364H836.477C836.776 369.419 837.287 368.691 838.011 368.18C838.743 367.661 839.577 367.402 840.515 367.402C840.728 367.402 840.966 367.413 841.229 367.434C841.499 367.448 841.722 367.473 841.9 367.509V371.056C841.737 370.999 841.477 370.95 841.122 370.907C840.774 370.857 840.437 370.832 840.11 370.832C839.407 370.832 838.775 370.985 838.214 371.29C837.66 371.589 837.223 372.004 836.903 372.537C836.584 373.07 836.424 373.684 836.424 374.38V384H832.567ZM851.032 384.32C849.392 384.32 847.975 383.979 846.782 383.297C845.596 382.608 844.683 381.635 844.044 380.378C843.405 379.114 843.085 377.626 843.085 375.914C843.085 374.231 843.405 372.754 844.044 371.482C844.69 370.204 845.592 369.21 846.75 368.499C847.907 367.782 849.268 367.423 850.83 367.423C851.839 367.423 852.79 367.587 853.685 367.913C854.587 368.233 855.383 368.73 856.072 369.405C856.768 370.08 857.314 370.939 857.712 371.983C858.11 373.02 858.309 374.256 858.309 375.69V376.873H844.896V374.273H854.612C854.605 373.535 854.445 372.878 854.133 372.303C853.82 371.72 853.383 371.262 852.822 370.928C852.268 370.594 851.622 370.428 850.883 370.428C850.095 370.428 849.403 370.619 848.806 371.003C848.209 371.379 847.744 371.876 847.41 372.494C847.084 373.105 846.917 373.776 846.91 374.508V376.777C846.91 377.729 847.084 378.545 847.432 379.227C847.78 379.902 848.266 380.42 848.891 380.783C849.516 381.138 850.248 381.315 851.086 381.315C851.647 381.315 852.155 381.237 852.609 381.081C853.064 380.918 853.458 380.68 853.792 380.367C854.126 380.055 854.378 379.668 854.548 379.206L858.149 379.611C857.922 380.562 857.488 381.393 856.849 382.104C856.217 382.807 855.407 383.354 854.42 383.744C853.433 384.128 852.304 384.32 851.032 384.32Z" fill="#1A1C21"/>
</svg>
