<svg width="1560" height="500" viewBox="0 0 1560 500" fill="none" xmlns="http://www.w3.org/2000/svg">
<g filter="url(#filter0_i_1732_45544)">
<rect width="720" height="420" transform="translate(40 40)" fill="#F7F8FC"/>
<g clip-path="url(#clip0_1732_45544)">
<path d="M93.1186 92L97.7683 87.3502C98.0772 87.0414 98.0772 86.5406 97.7683 86.2317C97.4594 85.9228 96.9586 85.9228 96.6498 86.2317L92 90.8814L87.3502 86.2317C87.0414 85.9228 86.5406 85.9228 86.2317 86.2317C85.9228 86.5406 85.9228 87.0414 86.2317 87.3502L90.8814 92L86.2317 96.6498C85.9228 96.9586 85.9228 97.4594 86.2317 97.7683C86.5406 98.0772 87.0414 98.0772 87.3502 97.7683L92 93.1186L96.6498 97.7683C96.9586 98.0772 97.4594 98.0772 97.7683 97.7683C98.0772 97.4594 98.0772 96.9586 97.7683 96.6498L93.1186 92ZM92 104C85.3726 104 80 98.6274 80 92C80 85.3726 85.3726 80 92 80C98.6274 80 104 85.3726 104 92C104 98.6274 98.6274 104 92 104Z" fill="#BD271E"/>
</g>
<path d="M123.063 100H117.391V84H123.109C124.719 84 126.104 84.3203 127.266 84.9609C128.427 85.5964 129.32 86.5104 129.945 87.7031C130.576 88.8958 130.891 90.3229 130.891 91.9844C130.891 93.651 130.576 95.0833 129.945 96.2812C129.32 97.4792 128.422 98.3984 127.25 99.0391C126.083 99.6797 124.688 100 123.063 100ZM120.773 97.1016H122.922C123.922 97.1016 124.763 96.9245 125.445 96.5703C126.133 96.2109 126.648 95.6562 126.992 94.9062C127.341 94.151 127.516 93.1771 127.516 91.9844C127.516 90.8021 127.341 89.8359 126.992 89.0859C126.648 88.3359 126.135 87.7839 125.453 87.4297C124.771 87.0755 123.93 86.8984 122.93 86.8984H120.773V97.1016ZM138.756 100.234C137.542 100.234 136.493 99.9766 135.607 99.4609C134.727 98.9401 134.048 98.2161 133.568 97.2891C133.089 96.3568 132.85 95.276 132.85 94.0469C132.85 92.8073 133.089 91.724 133.568 90.7969C134.048 89.8646 134.727 89.1406 135.607 88.625C136.493 88.1042 137.542 87.8438 138.756 87.8438C139.969 87.8438 141.016 88.1042 141.896 88.625C142.782 89.1406 143.464 89.8646 143.943 90.7969C144.423 91.724 144.662 92.8073 144.662 94.0469C144.662 95.276 144.423 96.3568 143.943 97.2891C143.464 98.2161 142.782 98.9401 141.896 99.4609C141.016 99.9766 139.969 100.234 138.756 100.234ZM138.771 97.6562C139.324 97.6562 139.785 97.5 140.154 97.1875C140.524 96.8698 140.803 96.4375 140.99 95.8906C141.183 95.3437 141.279 94.7214 141.279 94.0234C141.279 93.3255 141.183 92.7031 140.99 92.1562C140.803 91.6094 140.524 91.1771 140.154 90.8594C139.785 90.5417 139.324 90.3828 138.771 90.3828C138.214 90.3828 137.745 90.5417 137.365 90.8594C136.99 91.1771 136.706 91.6094 136.514 92.1562C136.326 92.7031 136.232 93.3255 136.232 94.0234C136.232 94.7214 136.326 95.3437 136.514 95.8906C136.706 96.4375 136.99 96.8698 137.365 97.1875C137.745 97.5 138.214 97.6562 138.771 97.6562ZM150.154 93.0625V100H146.826V88H149.998V90.1172H150.139C150.404 89.4193 150.85 88.8672 151.475 88.4609C152.1 88.0495 152.857 87.8438 153.748 87.8438C154.581 87.8438 155.308 88.026 155.928 88.3906C156.548 88.7552 157.029 89.276 157.373 89.9531C157.717 90.625 157.889 91.4271 157.889 92.3594V100H154.561V92.9531C154.566 92.2187 154.378 91.6458 153.998 91.2344C153.618 90.8177 153.094 90.6094 152.428 90.6094C151.98 90.6094 151.584 90.7057 151.24 90.8984C150.902 91.0911 150.636 91.3724 150.443 91.7422C150.256 92.1068 150.16 92.5469 150.154 93.0625ZM163.301 84V85.6875C163.301 86.1667 163.207 86.6562 163.02 87.1563C162.837 87.651 162.592 88.1198 162.285 88.5625C161.978 89 161.642 89.3724 161.277 89.6797L159.809 88.8125C160.069 88.401 160.298 87.9453 160.496 87.4453C160.699 86.9453 160.801 86.3646 160.801 85.7031V84H163.301ZM172.309 88V90.5H165.082V88H172.309ZM166.723 85.125H170.051V96.3125C170.051 96.6198 170.098 96.8594 170.191 97.0312C170.285 97.1979 170.415 97.3151 170.582 97.3828C170.754 97.4505 170.952 97.4844 171.176 97.4844C171.332 97.4844 171.488 97.4714 171.645 97.4453C171.801 97.4141 171.921 97.3906 172.004 97.375L172.527 99.8516C172.361 99.9036 172.126 99.9635 171.824 100.031C171.522 100.104 171.155 100.148 170.723 100.164C169.921 100.195 169.217 100.089 168.613 99.8437C168.014 99.599 167.548 99.2187 167.215 98.7031C166.882 98.1875 166.717 97.5365 166.723 96.75V85.125Z" fill="#BD271E"/>
</g>
<g filter="url(#filter1_i_1732_45544)">
<rect width="720" height="420" transform="translate(800 40)" fill="#F7F8FC"/>
<g clip-path="url(#clip1_1732_45544)">
<path fill-rule="evenodd" clip-rule="evenodd" d="M852 104C858.627 104 864 98.6274 864 92C864 85.3726 858.627 80 852 80C845.373 80 840 85.3726 840 92C840 98.6274 845.373 104 852 104ZM858.803 87.4617C859.238 87.905 859.232 88.6173 858.788 89.0526L851.152 96.5526C850.714 96.9825 850.013 96.9825 849.575 96.5526L845.212 92.2669C844.768 91.8316 844.762 91.1193 845.197 90.676C845.633 90.2327 846.345 90.2263 846.788 90.6617L850.364 94.1732L857.212 87.4474C857.655 87.012 858.367 87.0184 858.803 87.4617Z" fill="#00BFB3"/>
</g>
<path d="M883.063 100H877.391V84H883.109C884.719 84 886.104 84.3203 887.266 84.9609C888.427 85.5964 889.32 86.5104 889.945 87.7031C890.576 88.8958 890.891 90.3229 890.891 91.9844C890.891 93.651 890.576 95.0833 889.945 96.2812C889.32 97.4792 888.422 98.3984 887.25 99.0391C886.083 99.6797 884.688 100 883.063 100ZM880.773 97.1016H882.922C883.922 97.1016 884.763 96.9245 885.445 96.5703C886.133 96.2109 886.648 95.6562 886.992 94.9062C887.341 94.151 887.516 93.1771 887.516 91.9844C887.516 90.8021 887.341 89.8359 886.992 89.0859C886.648 88.3359 886.135 87.7839 885.453 87.4297C884.771 87.0755 883.93 86.8984 882.93 86.8984H880.773V97.1016ZM898.756 100.234C897.542 100.234 896.493 99.9766 895.607 99.4609C894.727 98.9401 894.048 98.2161 893.568 97.2891C893.089 96.3568 892.85 95.276 892.85 94.0469C892.85 92.8073 893.089 91.724 893.568 90.7969C894.048 89.8646 894.727 89.1406 895.607 88.625C896.493 88.1042 897.542 87.8438 898.756 87.8438C899.969 87.8438 901.016 88.1042 901.896 88.625C902.782 89.1406 903.464 89.8646 903.943 90.7969C904.423 91.724 904.662 92.8073 904.662 94.0469C904.662 95.276 904.423 96.3568 903.943 97.2891C903.464 98.2161 902.782 98.9401 901.896 99.4609C901.016 99.9766 899.969 100.234 898.756 100.234ZM898.771 97.6562C899.324 97.6562 899.785 97.5 900.154 97.1875C900.524 96.8698 900.803 96.4375 900.99 95.8906C901.183 95.3437 901.279 94.7214 901.279 94.0234C901.279 93.3255 901.183 92.7031 900.99 92.1562C900.803 91.6094 900.524 91.1771 900.154 90.8594C899.785 90.5417 899.324 90.3828 898.771 90.3828C898.214 90.3828 897.745 90.5417 897.365 90.8594C896.99 91.1771 896.706 91.6094 896.514 92.1562C896.326 92.7031 896.232 93.3255 896.232 94.0234C896.232 94.7214 896.326 95.3437 896.514 95.8906C896.706 96.4375 896.99 96.8698 897.365 97.1875C897.745 97.5 898.214 97.6562 898.771 97.6562Z" fill="#00BFB3"/>
</g>
<g filter="url(#filter2_dd_1732_45544)">
<rect x="840" y="134" width="600" height="270" rx="6" fill="white"/>
</g>
<path d="M891.875 351.499C891.34 351.499 890.884 351.354 890.508 351.063C890.131 350.769 889.844 350.344 889.645 349.788C889.446 349.229 889.347 348.554 889.347 347.764C889.347 346.978 889.446 346.307 889.645 345.75C889.846 345.191 890.135 344.765 890.511 344.472C890.89 344.176 891.345 344.028 891.875 344.028C892.405 344.028 892.859 344.176 893.235 344.472C893.614 344.765 893.903 345.191 894.102 345.75C894.303 346.307 894.403 346.978 894.403 347.764C894.403 348.554 894.304 349.229 894.105 349.788C893.906 350.344 893.619 350.769 893.242 351.063C892.866 351.354 892.41 351.499 891.875 351.499ZM891.875 350.718C892.405 350.718 892.817 350.463 893.111 349.951C893.404 349.44 893.551 348.711 893.551 347.764C893.551 347.134 893.484 346.598 893.349 346.155C893.216 345.712 893.024 345.375 892.773 345.143C892.525 344.911 892.225 344.795 891.875 344.795C891.349 344.795 890.939 345.054 890.643 345.573C890.347 346.089 890.199 346.819 890.199 347.764C890.199 348.393 890.265 348.928 890.398 349.369C890.53 349.809 890.721 350.144 890.969 350.374C891.22 350.603 891.522 350.718 891.875 350.718Z" fill="#69707D"/>
<path d="M887.411 297.027V304.3H886.531V297.951H886.488L884.712 299.13V298.235L886.531 297.027H887.411ZM891.875 304.399C891.34 304.399 890.884 304.254 890.508 303.963C890.131 303.669 889.844 303.244 889.645 302.688C889.446 302.129 889.347 301.454 889.347 300.664C889.347 299.878 889.446 299.207 889.645 298.65C889.846 298.091 890.135 297.665 890.511 297.372C890.89 297.076 891.345 296.928 891.875 296.928C892.405 296.928 892.859 297.076 893.235 297.372C893.614 297.665 893.903 298.091 894.102 298.65C894.303 299.207 894.403 299.878 894.403 300.664C894.403 301.454 894.304 302.129 894.105 302.688C893.906 303.244 893.619 303.669 893.242 303.963C892.866 304.254 892.41 304.399 891.875 304.399ZM891.875 303.618C892.405 303.618 892.817 303.363 893.111 302.851C893.404 302.34 893.551 301.611 893.551 300.664C893.551 300.034 893.484 299.498 893.349 299.055C893.216 298.612 893.024 298.275 892.773 298.043C892.525 297.811 892.225 297.695 891.875 297.695C891.349 297.695 890.939 297.954 890.643 298.473C890.347 298.989 890.199 299.719 890.199 300.664C890.199 301.293 890.265 301.828 890.398 302.269C890.53 302.709 890.721 303.044 890.969 303.274C891.22 303.503 891.522 303.618 891.875 303.618Z" fill="#69707D"/>
<path d="M1411 300.3L903 300.3" stroke="#E9EDF3" stroke-dasharray="5 5"/>
<path d="M883.448 257.2V256.561L885.849 253.933C886.13 253.625 886.362 253.358 886.545 253.13C886.727 252.901 886.862 252.685 886.95 252.484C887.04 252.28 887.085 252.067 887.085 251.845C887.085 251.589 887.023 251.368 886.9 251.181C886.779 250.994 886.613 250.849 886.403 250.748C886.192 250.646 885.955 250.595 885.692 250.595C885.413 250.595 885.169 250.653 884.961 250.769C884.755 250.882 884.595 251.042 884.482 251.248C884.37 251.454 884.315 251.696 884.315 251.973H883.477C883.477 251.547 883.575 251.172 883.771 250.851C883.968 250.529 884.235 250.278 884.574 250.098C884.915 249.918 885.297 249.828 885.721 249.828C886.147 249.828 886.525 249.918 886.854 250.098C887.183 250.278 887.441 250.52 887.628 250.826C887.815 251.131 887.908 251.471 887.908 251.845C887.908 252.112 887.86 252.374 887.763 252.63C887.668 252.883 887.502 253.166 887.266 253.478C887.031 253.788 886.706 254.167 886.289 254.615L884.656 256.362V256.419H888.036V257.2H883.448ZM891.875 257.299C891.34 257.299 890.884 257.154 890.508 256.863C890.131 256.569 889.844 256.144 889.645 255.588C889.446 255.029 889.347 254.354 889.347 253.564C889.347 252.778 889.446 252.106 889.645 251.55C889.846 250.991 890.135 250.565 890.511 250.272C890.89 249.976 891.345 249.828 891.875 249.828C892.405 249.828 892.859 249.976 893.235 250.272C893.614 250.565 893.903 250.991 894.102 251.55C894.303 252.106 894.403 252.778 894.403 253.564C894.403 254.354 894.304 255.029 894.105 255.588C893.906 256.144 893.619 256.569 893.242 256.863C892.866 257.154 892.41 257.299 891.875 257.299ZM891.875 256.518C892.405 256.518 892.817 256.262 893.111 255.751C893.404 255.24 893.551 254.511 893.551 253.564C893.551 252.934 893.484 252.398 893.349 251.955C893.216 251.512 893.024 251.175 892.773 250.943C892.525 250.711 892.225 250.595 891.875 250.595C891.349 250.595 890.939 250.854 890.643 251.373C890.347 251.889 890.199 252.619 890.199 253.564C890.199 254.193 890.265 254.728 890.398 255.169C890.53 255.609 890.721 255.944 890.969 256.174C891.22 256.403 891.522 256.518 891.875 256.518Z" fill="#69707D"/>
<path d="M1411 253.2L903 253.2" stroke="#E9EDF3" stroke-dasharray="5 5"/>
<path d="M885.593 210.199C885.124 210.199 884.706 210.119 884.339 209.958C883.975 209.797 883.685 209.573 883.469 209.287C883.256 208.998 883.14 208.663 883.121 208.282H884.016C884.035 208.516 884.116 208.719 884.258 208.889C884.4 209.057 884.586 209.187 884.815 209.28C885.045 209.372 885.299 209.418 885.579 209.418C885.891 209.418 886.168 209.364 886.41 209.255C886.651 209.146 886.841 208.994 886.978 208.8C887.115 208.606 887.184 208.381 887.184 208.126C887.184 207.858 887.118 207.622 886.985 207.419C886.853 207.213 886.658 207.052 886.403 206.936C886.147 206.82 885.835 206.762 885.465 206.762H884.883V205.981H885.465C885.754 205.981 886.007 205.929 886.225 205.824C886.445 205.72 886.617 205.573 886.74 205.384C886.866 205.195 886.928 204.972 886.928 204.716C886.928 204.47 886.874 204.256 886.765 204.074C886.656 203.891 886.502 203.749 886.303 203.648C886.107 203.546 885.875 203.495 885.607 203.495C885.356 203.495 885.12 203.541 884.897 203.633C884.677 203.723 884.497 203.855 884.357 204.028C884.218 204.198 884.142 204.404 884.13 204.645H883.278C883.292 204.264 883.407 203.93 883.622 203.644C883.838 203.355 884.119 203.13 884.467 202.969C884.818 202.808 885.202 202.728 885.621 202.728C886.071 202.728 886.457 202.819 886.779 203.001C887.101 203.181 887.348 203.419 887.521 203.715C887.694 204.011 887.781 204.331 887.781 204.674C887.781 205.083 887.673 205.433 887.457 205.721C887.244 206.01 886.954 206.21 886.587 206.322V206.378C887.047 206.454 887.405 206.649 887.663 206.964C887.921 207.277 888.05 207.664 888.05 208.126C888.05 208.521 887.943 208.876 887.727 209.191C887.514 209.503 887.223 209.75 886.854 209.93C886.484 210.109 886.064 210.199 885.593 210.199ZM891.875 210.199C891.34 210.199 890.884 210.054 890.508 209.763C890.131 209.469 889.844 209.044 889.645 208.488C889.446 207.929 889.347 207.254 889.347 206.464C889.347 205.678 889.446 205.006 889.645 204.45C889.846 203.891 890.135 203.465 890.511 203.172C890.89 202.876 891.345 202.728 891.875 202.728C892.405 202.728 892.859 202.876 893.235 203.172C893.614 203.465 893.903 203.891 894.102 204.45C894.303 205.006 894.403 205.678 894.403 206.464C894.403 207.254 894.304 207.929 894.105 208.488C893.906 209.044 893.619 209.469 893.242 209.763C892.866 210.054 892.41 210.199 891.875 210.199ZM891.875 209.418C892.405 209.418 892.817 209.162 893.111 208.651C893.404 208.14 893.551 207.411 893.551 206.464C893.551 205.834 893.484 205.298 893.349 204.855C893.216 204.412 893.024 204.075 892.773 203.843C892.525 203.611 892.225 203.495 891.875 203.495C891.349 203.495 890.939 203.754 890.643 204.273C890.347 204.789 890.199 205.519 890.199 206.464C890.199 207.093 890.265 207.628 890.398 208.069C890.53 208.509 890.721 208.844 890.969 209.074C891.22 209.303 891.522 209.418 891.875 209.418Z" fill="#69707D"/>
<path d="M1411 206.1L903 206.1" stroke="#E9EDF3" stroke-dasharray="5 5"/>
<path d="M882.916 161.509V160.784L886.112 155.727H886.638V156.849H886.283L883.868 160.67V160.727H888.172V161.509H882.916ZM886.34 163V161.288V160.951V155.727H887.178V163H886.34ZM891.875 163.099C891.34 163.099 890.884 162.954 890.508 162.663C890.131 162.369 889.844 161.944 889.645 161.388C889.446 160.829 889.347 160.154 889.347 159.364C889.347 158.578 889.446 157.906 889.645 157.35C889.846 156.791 890.135 156.365 890.511 156.072C890.89 155.776 891.345 155.628 891.875 155.628C892.405 155.628 892.859 155.776 893.235 156.072C893.614 156.365 893.903 156.791 894.102 157.35C894.303 157.906 894.403 158.578 894.403 159.364C894.403 160.154 894.304 160.829 894.105 161.388C893.906 161.944 893.619 162.369 893.242 162.663C892.866 162.954 892.41 163.099 891.875 163.099ZM891.875 162.318C892.405 162.318 892.817 162.062 893.111 161.551C893.404 161.04 893.551 160.311 893.551 159.364C893.551 158.734 893.484 158.198 893.349 157.755C893.216 157.312 893.024 156.975 892.773 156.743C892.525 156.511 892.225 156.395 891.875 156.395C891.349 156.395 890.939 156.654 890.643 157.173C890.347 157.689 890.199 158.419 890.199 159.364C890.199 159.993 890.265 160.528 890.398 160.969C890.53 161.409 890.721 161.744 890.969 161.974C891.22 162.203 891.522 162.318 891.875 162.318Z" fill="#69707D"/>
<path d="M903 158V347" stroke="#E9EDF3"/>
<path d="M906.31 357.727V365H905.429V358.651H905.386L903.611 359.83V358.935L905.429 357.727H906.31ZM910.773 365.099C910.238 365.099 909.783 364.954 909.406 364.663C909.03 364.369 908.742 363.944 908.543 363.388C908.344 362.829 908.245 362.154 908.245 361.364C908.245 360.578 908.344 359.906 908.543 359.35C908.745 358.791 909.033 358.365 909.41 358.072C909.789 357.776 910.243 357.628 910.773 357.628C911.304 357.628 911.757 357.776 912.134 358.072C912.512 358.365 912.801 358.791 913 359.35C913.201 359.906 913.302 360.578 913.302 361.364C913.302 362.154 913.202 362.829 913.004 363.388C912.805 363.944 912.517 364.369 912.141 364.663C911.764 364.954 911.308 365.099 910.773 365.099ZM910.773 364.318C911.304 364.318 911.716 364.062 912.009 363.551C912.303 363.04 912.45 362.311 912.45 361.364C912.45 360.734 912.382 360.198 912.247 359.755C912.115 359.312 911.923 358.975 911.672 358.743C911.423 358.511 911.124 358.395 910.773 358.395C910.248 358.395 909.837 358.654 909.541 359.173C909.245 359.689 909.097 360.419 909.097 361.364C909.097 361.993 909.164 362.528 909.296 362.969C909.429 363.409 909.619 363.744 909.868 363.974C910.119 364.203 910.421 364.318 910.773 364.318ZM915.276 364.07C915.101 364.07 914.951 364.007 914.825 363.881C914.7 363.756 914.637 363.606 914.637 363.43C914.637 363.255 914.7 363.105 914.825 362.979C914.951 362.854 915.101 362.791 915.276 362.791C915.451 362.791 915.602 362.854 915.727 362.979C915.853 363.105 915.915 363.255 915.915 363.43C915.915 363.546 915.886 363.653 915.827 363.75C915.77 363.847 915.693 363.925 915.596 363.984C915.501 364.041 915.395 364.07 915.276 364.07ZM915.276 360.391C915.101 360.391 914.951 360.328 914.825 360.202C914.7 360.077 914.637 359.927 914.637 359.751C914.637 359.576 914.7 359.426 914.825 359.3C914.951 359.175 915.101 359.112 915.276 359.112C915.451 359.112 915.602 359.175 915.727 359.3C915.853 359.426 915.915 359.576 915.915 359.751C915.915 359.867 915.886 359.974 915.827 360.071C915.77 360.168 915.693 360.246 915.596 360.305C915.501 360.362 915.395 360.391 915.276 360.391ZM919.777 365.099C919.242 365.099 918.787 364.954 918.41 364.663C918.034 364.369 917.746 363.944 917.547 363.388C917.348 362.829 917.249 362.154 917.249 361.364C917.249 360.578 917.348 359.906 917.547 359.35C917.748 358.791 918.037 358.365 918.414 358.072C918.792 357.776 919.247 357.628 919.777 357.628C920.308 357.628 920.761 357.776 921.137 358.072C921.516 358.365 921.805 358.791 922.004 359.35C922.205 359.906 922.306 360.578 922.306 361.364C922.306 362.154 922.206 362.829 922.007 363.388C921.809 363.944 921.521 364.369 921.145 364.663C920.768 364.954 920.312 365.099 919.777 365.099ZM919.777 364.318C920.308 364.318 920.72 364.062 921.013 363.551C921.307 363.04 921.453 362.311 921.453 361.364C921.453 360.734 921.386 360.198 921.251 359.755C921.118 359.312 920.927 358.975 920.676 358.743C920.427 358.511 920.128 358.395 919.777 358.395C919.252 358.395 918.841 358.654 918.545 359.173C918.249 359.689 918.101 360.419 918.101 361.364C918.101 361.993 918.167 362.528 918.3 362.969C918.433 363.409 918.623 363.744 918.872 363.974C919.123 364.203 919.425 364.318 919.777 364.318ZM926.027 365.099C925.492 365.099 925.037 364.954 924.66 364.663C924.284 364.369 923.996 363.944 923.797 363.388C923.598 362.829 923.499 362.154 923.499 361.364C923.499 360.578 923.598 359.906 923.797 359.35C923.998 358.791 924.287 358.365 924.664 358.072C925.042 357.776 925.497 357.628 926.027 357.628C926.558 357.628 927.011 357.776 927.387 358.072C927.766 358.365 928.055 358.791 928.254 359.35C928.455 359.906 928.556 360.578 928.556 361.364C928.556 362.154 928.456 362.829 928.257 363.388C928.059 363.944 927.771 364.369 927.395 364.663C927.018 364.954 926.562 365.099 926.027 365.099ZM926.027 364.318C926.558 364.318 926.97 364.062 927.263 363.551C927.557 363.04 927.703 362.311 927.703 361.364C927.703 360.734 927.636 360.198 927.501 359.755C927.368 359.312 927.177 358.975 926.926 358.743C926.677 358.511 926.378 358.395 926.027 358.395C925.502 358.395 925.091 358.654 924.795 359.173C924.499 359.689 924.351 360.419 924.351 361.364C924.351 361.993 924.417 362.528 924.55 362.969C924.683 363.409 924.873 363.744 925.122 363.974C925.373 364.203 925.675 364.318 926.027 364.318ZM930.53 364.07C930.355 364.07 930.205 364.007 930.079 363.881C929.954 363.756 929.891 363.606 929.891 363.43C929.891 363.255 929.954 363.105 930.079 362.979C930.205 362.854 930.355 362.791 930.53 362.791C930.705 362.791 930.856 362.854 930.981 362.979C931.107 363.105 931.169 363.255 931.169 363.43C931.169 363.546 931.14 363.653 931.081 363.75C931.024 363.847 930.947 363.925 930.85 363.984C930.755 364.041 930.649 364.07 930.53 364.07ZM930.53 360.391C930.355 360.391 930.205 360.328 930.079 360.202C929.954 360.077 929.891 359.927 929.891 359.751C929.891 359.576 929.954 359.426 930.079 359.3C930.205 359.175 930.355 359.112 930.53 359.112C930.705 359.112 930.856 359.175 930.981 359.3C931.107 359.426 931.169 359.576 931.169 359.751C931.169 359.867 931.14 359.974 931.081 360.071C931.024 360.168 930.947 360.246 930.85 360.305C930.755 360.362 930.649 360.391 930.53 360.391ZM935.031 365.099C934.496 365.099 934.04 364.954 933.664 364.663C933.288 364.369 933 363.944 932.801 363.388C932.602 362.829 932.503 362.154 932.503 361.364C932.503 360.578 932.602 359.906 932.801 359.35C933.002 358.791 933.291 358.365 933.668 358.072C934.046 357.776 934.501 357.628 935.031 357.628C935.562 357.628 936.015 357.776 936.391 358.072C936.77 358.365 937.059 358.791 937.258 359.35C937.459 359.906 937.56 360.578 937.56 361.364C937.56 362.154 937.46 362.829 937.261 363.388C937.062 363.944 936.775 364.369 936.398 364.663C936.022 364.954 935.566 365.099 935.031 365.099ZM935.031 364.318C935.562 364.318 935.973 364.062 936.267 363.551C936.561 363.04 936.707 362.311 936.707 361.364C936.707 360.734 936.64 360.198 936.505 359.755C936.372 359.312 936.181 358.975 935.93 358.743C935.681 358.511 935.382 358.395 935.031 358.395C934.506 358.395 934.095 358.654 933.799 359.173C933.503 359.689 933.355 360.419 933.355 361.364C933.355 361.993 933.421 362.528 933.554 362.969C933.687 363.409 933.877 363.744 934.126 363.974C934.377 364.203 934.679 364.318 935.031 364.318ZM941.281 365.099C940.746 365.099 940.29 364.954 939.914 364.663C939.538 364.369 939.25 363.944 939.051 363.388C938.852 362.829 938.753 362.154 938.753 361.364C938.753 360.578 938.852 359.906 939.051 359.35C939.252 358.791 939.541 358.365 939.918 358.072C940.296 357.776 940.751 357.628 941.281 357.628C941.812 357.628 942.265 357.776 942.641 358.072C943.02 358.365 943.309 358.791 943.508 359.35C943.709 359.906 943.81 360.578 943.81 361.364C943.81 362.154 943.71 362.829 943.511 363.388C943.312 363.944 943.025 364.369 942.648 364.663C942.272 364.954 941.816 365.099 941.281 365.099ZM941.281 364.318C941.812 364.318 942.223 364.062 942.517 363.551C942.811 363.04 942.957 362.311 942.957 361.364C942.957 360.734 942.89 360.198 942.755 359.755C942.622 359.312 942.431 358.975 942.18 358.743C941.931 358.511 941.632 358.395 941.281 358.395C940.756 358.395 940.345 358.654 940.049 359.173C939.753 359.689 939.605 360.419 939.605 361.364C939.605 361.993 939.671 362.528 939.804 362.969C939.937 363.409 940.127 363.744 940.376 363.974C940.627 364.203 940.929 364.318 941.281 364.318ZM903.881 369.727H904.932L907.403 375.764H907.489L909.96 369.727H911.011V377H910.188V371.474H910.116L907.844 377H907.048L904.776 371.474H904.705V377H903.881V369.727ZM914.269 377.128C913.923 377.128 913.609 377.063 913.328 376.933C913.046 376.8 912.822 376.609 912.656 376.361C912.491 376.11 912.408 375.807 912.408 375.452C912.408 375.139 912.469 374.886 912.593 374.692C912.716 374.495 912.88 374.341 913.086 374.23C913.292 374.119 913.519 374.036 913.768 373.982C914.019 373.925 914.271 373.88 914.524 373.847C914.856 373.804 915.124 373.772 915.33 373.751C915.539 373.727 915.69 373.688 915.785 373.634C915.882 373.579 915.931 373.484 915.931 373.349V373.321C915.931 372.971 915.835 372.698 915.643 372.504C915.454 372.31 915.166 372.213 914.78 372.213C914.38 372.213 914.066 372.301 913.839 372.476C913.612 372.651 913.452 372.838 913.36 373.037L912.564 372.753C912.706 372.421 912.896 372.163 913.132 371.979C913.371 371.792 913.632 371.661 913.914 371.588C914.198 371.512 914.477 371.474 914.752 371.474C914.927 371.474 915.128 371.496 915.355 371.538C915.585 371.579 915.806 371.663 916.019 371.79C916.235 371.918 916.414 372.111 916.556 372.369C916.698 372.627 916.769 372.973 916.769 373.406V377H915.931V376.261H915.888C915.831 376.38 915.736 376.506 915.604 376.641C915.471 376.776 915.295 376.891 915.075 376.986C914.855 377.08 914.586 377.128 914.269 377.128ZM914.396 376.375C914.728 376.375 915.007 376.31 915.235 376.18C915.464 376.049 915.637 375.881 915.753 375.675C915.871 375.469 915.931 375.253 915.931 375.026V374.259C915.895 374.301 915.817 374.34 915.696 374.376C915.578 374.409 915.441 374.438 915.284 374.464C915.13 374.488 914.98 374.509 914.833 374.528C914.689 374.545 914.572 374.559 914.482 374.571C914.264 374.599 914.06 374.646 913.871 374.71C913.684 374.771 913.532 374.865 913.416 374.99C913.303 375.113 913.246 375.281 913.246 375.494C913.246 375.786 913.354 376.006 913.569 376.155C913.787 376.302 914.063 376.375 914.396 376.375ZM918.643 379.045C918.501 379.045 918.374 379.034 918.263 379.01C918.152 378.989 918.075 378.967 918.032 378.946L918.245 378.207C918.449 378.259 918.629 378.278 918.785 378.264C918.941 378.25 919.08 378.18 919.2 378.055C919.323 377.932 919.436 377.732 919.538 377.455L919.694 377.028L917.677 371.545H918.586L920.092 375.892H920.148L921.654 371.545H922.563L920.248 377.795C920.144 378.077 920.015 378.31 919.861 378.495C919.707 378.682 919.528 378.821 919.325 378.911C919.123 379 918.896 379.045 918.643 379.045ZM929.025 369.727V377H928.144V370.651H928.101L926.326 371.83V370.935L928.144 369.727H929.025ZM933.389 377.099C932.972 377.099 932.597 377.017 932.263 376.851C931.929 376.685 931.662 376.458 931.461 376.169C931.259 375.88 931.149 375.551 931.13 375.182H931.983C932.016 375.511 932.165 375.783 932.43 375.999C932.698 376.212 933.017 376.318 933.389 376.318C933.687 376.318 933.952 376.248 934.184 376.109C934.419 375.969 934.602 375.777 934.735 375.533C934.87 375.287 934.937 375.009 934.937 374.699C934.937 374.382 934.867 374.099 934.728 373.85C934.59 373.599 934.401 373.402 934.159 373.257C933.918 373.113 933.642 373.039 933.332 373.037C933.109 373.035 932.881 373.069 932.647 373.14C932.412 373.209 932.219 373.297 932.068 373.406L931.244 373.307L931.684 369.727H935.463V370.509H932.423L932.167 372.653H932.21C932.359 372.535 932.546 372.437 932.771 372.359C932.996 372.281 933.23 372.241 933.474 372.241C933.919 372.241 934.316 372.348 934.664 372.561C935.014 372.772 935.289 373.061 935.488 373.428C935.689 373.795 935.789 374.214 935.789 374.685C935.789 375.149 935.685 375.563 935.477 375.928C935.271 376.29 934.987 376.576 934.625 376.787C934.262 376.995 933.85 377.099 933.389 377.099ZM938.191 376.006L938.134 376.389C938.094 376.659 938.032 376.948 937.949 377.256C937.869 377.563 937.785 377.853 937.697 378.126C937.61 378.398 937.537 378.615 937.481 378.776H936.841C936.872 378.624 936.912 378.424 936.962 378.175C937.012 377.927 937.062 377.649 937.111 377.341C937.163 377.036 937.206 376.723 937.239 376.403L937.282 376.006H938.191ZM942.542 377V376.361L944.942 373.733C945.224 373.425 945.456 373.158 945.638 372.93C945.821 372.701 945.956 372.485 946.043 372.284C946.133 372.08 946.178 371.867 946.178 371.645C946.178 371.389 946.117 371.168 945.994 370.981C945.873 370.794 945.707 370.649 945.496 370.548C945.286 370.446 945.049 370.395 944.786 370.395C944.507 370.395 944.263 370.453 944.055 370.569C943.849 370.683 943.689 370.842 943.575 371.048C943.464 371.254 943.408 371.496 943.408 371.773H942.57C942.57 371.347 942.669 370.973 942.865 370.651C943.062 370.329 943.329 370.078 943.668 369.898C944.009 369.718 944.391 369.628 944.815 369.628C945.241 369.628 945.618 369.718 945.947 369.898C946.277 370.078 946.535 370.32 946.722 370.626C946.909 370.931 947.002 371.271 947.002 371.645C947.002 371.912 946.954 372.174 946.857 372.43C946.762 372.683 946.596 372.966 946.359 373.278C946.125 373.589 945.799 373.967 945.383 374.415L943.749 376.162V376.219H947.13V377H942.542ZM950.969 377.099C950.434 377.099 949.978 376.954 949.602 376.663C949.225 376.369 948.938 375.944 948.739 375.388C948.54 374.829 948.44 374.154 948.44 373.364C948.44 372.578 948.54 371.906 948.739 371.35C948.94 370.791 949.229 370.365 949.605 370.072C949.984 369.776 950.438 369.628 950.969 369.628C951.499 369.628 951.952 369.776 952.329 370.072C952.708 370.365 952.996 370.791 953.195 371.35C953.397 371.906 953.497 372.578 953.497 373.364C953.497 374.154 953.398 374.829 953.199 375.388C953 375.944 952.712 376.369 952.336 376.663C951.96 376.954 951.504 377.099 950.969 377.099ZM950.969 376.318C951.499 376.318 951.911 376.062 952.205 375.551C952.498 375.04 952.645 374.311 952.645 373.364C952.645 372.734 952.577 372.198 952.442 371.755C952.31 371.312 952.118 370.975 951.867 370.743C951.619 370.511 951.319 370.395 950.969 370.395C950.443 370.395 950.032 370.654 949.737 371.173C949.441 371.689 949.293 372.419 949.293 373.364C949.293 373.993 949.359 374.528 949.491 374.969C949.624 375.409 949.815 375.744 950.063 375.974C950.314 376.203 950.616 376.318 950.969 376.318ZM954.847 377V376.361L957.247 373.733C957.529 373.425 957.761 373.158 957.943 372.93C958.125 372.701 958.26 372.485 958.348 372.284C958.438 372.08 958.483 371.867 958.483 371.645C958.483 371.389 958.421 371.168 958.298 370.981C958.178 370.794 958.012 370.649 957.801 370.548C957.59 370.446 957.354 370.395 957.091 370.395C956.812 370.395 956.568 370.453 956.359 370.569C956.153 370.683 955.994 370.842 955.88 371.048C955.769 371.254 955.713 371.496 955.713 371.773H954.875C954.875 371.347 954.973 370.973 955.17 370.651C955.366 370.329 955.634 370.078 955.972 369.898C956.313 369.718 956.696 369.628 957.119 369.628C957.545 369.628 957.923 369.718 958.252 369.898C958.581 370.078 958.839 370.32 959.026 370.626C959.213 370.931 959.307 371.271 959.307 371.645C959.307 371.912 959.258 372.174 959.161 372.43C959.067 372.683 958.901 372.966 958.664 373.278C958.43 373.589 958.104 373.967 957.688 374.415L956.054 376.162V376.219H959.435V377H954.847ZM963.359 377.099C962.89 377.099 962.472 377.019 962.105 376.858C961.741 376.697 961.451 376.473 961.235 376.187C961.022 375.898 960.906 375.563 960.887 375.182H961.782C961.801 375.416 961.881 375.619 962.023 375.789C962.165 375.957 962.351 376.087 962.581 376.18C962.811 376.272 963.065 376.318 963.344 376.318C963.657 376.318 963.934 376.264 964.175 376.155C964.417 376.046 964.606 375.894 964.744 375.7C964.881 375.506 964.95 375.281 964.95 375.026C964.95 374.758 964.883 374.522 964.751 374.319C964.618 374.113 964.424 373.952 964.168 373.836C963.913 373.72 963.6 373.662 963.231 373.662H962.648V372.881H963.231C963.52 372.881 963.773 372.829 963.991 372.724C964.211 372.62 964.383 372.473 964.506 372.284C964.631 372.095 964.694 371.872 964.694 371.616C964.694 371.37 964.639 371.156 964.531 370.974C964.422 370.791 964.268 370.649 964.069 370.548C963.872 370.446 963.64 370.395 963.373 370.395C963.122 370.395 962.885 370.441 962.663 370.533C962.442 370.623 962.263 370.755 962.123 370.928C961.983 371.098 961.907 371.304 961.896 371.545H961.043C961.058 371.164 961.172 370.83 961.388 370.544C961.603 370.255 961.885 370.03 962.233 369.869C962.583 369.708 962.968 369.628 963.387 369.628C963.837 369.628 964.223 369.719 964.545 369.901C964.867 370.081 965.114 370.319 965.287 370.615C965.46 370.911 965.546 371.231 965.546 371.574C965.546 371.983 965.438 372.333 965.223 372.621C965.01 372.91 964.72 373.11 964.353 373.222V373.278C964.812 373.354 965.171 373.549 965.429 373.864C965.687 374.177 965.816 374.564 965.816 375.026C965.816 375.421 965.708 375.776 965.493 376.091C965.28 376.403 964.989 376.65 964.619 376.83C964.25 377.009 963.83 377.099 963.359 377.099Z" fill="#69707D"/>
<path d="M966.5 158V347" stroke="#E9EDF3"/>
<path d="M1030 158V347" stroke="#E9EDF3"/>
<path d="M1033.31 357.727V365H1032.43V358.651H1032.39L1030.61 359.83V358.935L1032.43 357.727H1033.31ZM1037.96 357.727V365H1037.08V358.651H1037.03L1035.26 359.83V358.935L1037.08 357.727H1037.96ZM1040.67 364.07C1040.5 364.07 1040.35 364.007 1040.22 363.881C1040.1 363.756 1040.04 363.606 1040.04 363.43C1040.04 363.255 1040.1 363.105 1040.22 362.979C1040.35 362.854 1040.5 362.791 1040.67 362.791C1040.85 362.791 1041 362.854 1041.13 362.979C1041.25 363.105 1041.31 363.255 1041.31 363.43C1041.31 363.546 1041.28 363.653 1041.23 363.75C1041.17 363.847 1041.09 363.925 1040.99 363.984C1040.9 364.041 1040.79 364.07 1040.67 364.07ZM1040.67 360.391C1040.5 360.391 1040.35 360.328 1040.22 360.202C1040.1 360.077 1040.04 359.927 1040.04 359.751C1040.04 359.576 1040.1 359.426 1040.22 359.3C1040.35 359.175 1040.5 359.112 1040.67 359.112C1040.85 359.112 1041 359.175 1041.13 359.3C1041.25 359.426 1041.31 359.576 1041.31 359.751C1041.31 359.867 1041.28 359.974 1041.23 360.071C1041.17 360.168 1041.09 360.246 1040.99 360.305C1040.9 360.362 1040.79 360.391 1040.67 360.391ZM1045.18 365.099C1044.64 365.099 1044.19 364.954 1043.81 364.663C1043.43 364.369 1043.14 363.944 1042.95 363.388C1042.75 362.829 1042.65 362.154 1042.65 361.364C1042.65 360.578 1042.75 359.906 1042.95 359.35C1043.15 358.791 1043.44 358.365 1043.81 358.072C1044.19 357.776 1044.65 357.628 1045.18 357.628C1045.71 357.628 1046.16 357.776 1046.54 358.072C1046.91 358.365 1047.2 358.791 1047.4 359.35C1047.6 359.906 1047.7 360.578 1047.7 361.364C1047.7 362.154 1047.6 362.829 1047.41 363.388C1047.21 363.944 1046.92 364.369 1046.54 364.663C1046.17 364.954 1045.71 365.099 1045.18 365.099ZM1045.18 364.318C1045.71 364.318 1046.12 364.062 1046.41 363.551C1046.71 363.04 1046.85 362.311 1046.85 361.364C1046.85 360.734 1046.78 360.198 1046.65 359.755C1046.52 359.312 1046.33 358.975 1046.07 358.743C1045.83 358.511 1045.53 358.395 1045.18 358.395C1044.65 358.395 1044.24 358.654 1043.94 359.173C1043.65 359.689 1043.5 360.419 1043.5 361.364C1043.5 361.993 1043.57 362.528 1043.7 362.969C1043.83 363.409 1044.02 363.744 1044.27 363.974C1044.52 364.203 1044.82 364.318 1045.18 364.318ZM1051.43 365.099C1050.89 365.099 1050.44 364.954 1050.06 364.663C1049.68 364.369 1049.39 363.944 1049.2 363.388C1049 362.829 1048.9 362.154 1048.9 361.364C1048.9 360.578 1049 359.906 1049.2 359.35C1049.4 358.791 1049.69 358.365 1050.06 358.072C1050.44 357.776 1050.9 357.628 1051.43 357.628C1051.96 357.628 1052.41 357.776 1052.79 358.072C1053.16 358.365 1053.45 358.791 1053.65 359.35C1053.85 359.906 1053.95 360.578 1053.95 361.364C1053.95 362.154 1053.85 362.829 1053.66 363.388C1053.46 363.944 1053.17 364.369 1052.79 364.663C1052.42 364.954 1051.96 365.099 1051.43 365.099ZM1051.43 364.318C1051.96 364.318 1052.37 364.062 1052.66 363.551C1052.96 363.04 1053.1 362.311 1053.1 361.364C1053.1 360.734 1053.03 360.198 1052.9 359.755C1052.77 359.312 1052.58 358.975 1052.32 358.743C1052.08 358.511 1051.78 358.395 1051.43 358.395C1050.9 358.395 1050.49 358.654 1050.19 359.173C1049.9 359.689 1049.75 360.419 1049.75 361.364C1049.75 361.993 1049.82 362.528 1049.95 362.969C1050.08 363.409 1050.27 363.744 1050.52 363.974C1050.77 364.203 1051.07 364.318 1051.43 364.318ZM1055.93 364.07C1055.75 364.07 1055.6 364.007 1055.48 363.881C1055.35 363.756 1055.29 363.606 1055.29 363.43C1055.29 363.255 1055.35 363.105 1055.48 362.979C1055.6 362.854 1055.75 362.791 1055.93 362.791C1056.1 362.791 1056.25 362.854 1056.38 362.979C1056.51 363.105 1056.57 363.255 1056.57 363.43C1056.57 363.546 1056.54 363.653 1056.48 363.75C1056.42 363.847 1056.35 363.925 1056.25 363.984C1056.15 364.041 1056.05 364.07 1055.93 364.07ZM1055.93 360.391C1055.75 360.391 1055.6 360.328 1055.48 360.202C1055.35 360.077 1055.29 359.927 1055.29 359.751C1055.29 359.576 1055.35 359.426 1055.48 359.3C1055.6 359.175 1055.75 359.112 1055.93 359.112C1056.1 359.112 1056.25 359.175 1056.38 359.3C1056.51 359.426 1056.57 359.576 1056.57 359.751C1056.57 359.867 1056.54 359.974 1056.48 360.071C1056.42 360.168 1056.35 360.246 1056.25 360.305C1056.15 360.362 1056.05 360.391 1055.93 360.391ZM1060.43 365.099C1059.89 365.099 1059.44 364.954 1059.06 364.663C1058.69 364.369 1058.4 363.944 1058.2 363.388C1058 362.829 1057.9 362.154 1057.9 361.364C1057.9 360.578 1058 359.906 1058.2 359.35C1058.4 358.791 1058.69 358.365 1059.07 358.072C1059.44 357.776 1059.9 357.628 1060.43 357.628C1060.96 357.628 1061.41 357.776 1061.79 358.072C1062.17 358.365 1062.46 358.791 1062.66 359.35C1062.86 359.906 1062.96 360.578 1062.96 361.364C1062.96 362.154 1062.86 362.829 1062.66 363.388C1062.46 363.944 1062.17 364.369 1061.8 364.663C1061.42 364.954 1060.96 365.099 1060.43 365.099ZM1060.43 364.318C1060.96 364.318 1061.37 364.062 1061.67 363.551C1061.96 363.04 1062.11 362.311 1062.11 361.364C1062.11 360.734 1062.04 360.198 1061.9 359.755C1061.77 359.312 1061.58 358.975 1061.33 358.743C1061.08 358.511 1060.78 358.395 1060.43 358.395C1059.9 358.395 1059.49 358.654 1059.2 359.173C1058.9 359.689 1058.75 360.419 1058.75 361.364C1058.75 361.993 1058.82 362.528 1058.95 362.969C1059.08 363.409 1059.28 363.744 1059.52 363.974C1059.78 364.203 1060.08 364.318 1060.43 364.318ZM1066.68 365.099C1066.14 365.099 1065.69 364.954 1065.31 364.663C1064.94 364.369 1064.65 363.944 1064.45 363.388C1064.25 362.829 1064.15 362.154 1064.15 361.364C1064.15 360.578 1064.25 359.906 1064.45 359.35C1064.65 358.791 1064.94 358.365 1065.32 358.072C1065.69 357.776 1066.15 357.628 1066.68 357.628C1067.21 357.628 1067.66 357.776 1068.04 358.072C1068.42 358.365 1068.71 358.791 1068.91 359.35C1069.11 359.906 1069.21 360.578 1069.21 361.364C1069.21 362.154 1069.11 362.829 1068.91 363.388C1068.71 363.944 1068.42 364.369 1068.05 364.663C1067.67 364.954 1067.21 365.099 1066.68 365.099ZM1066.68 364.318C1067.21 364.318 1067.62 364.062 1067.92 363.551C1068.21 363.04 1068.36 362.311 1068.36 361.364C1068.36 360.734 1068.29 360.198 1068.15 359.755C1068.02 359.312 1067.83 358.975 1067.58 358.743C1067.33 358.511 1067.03 358.395 1066.68 358.395C1066.15 358.395 1065.74 358.654 1065.45 359.173C1065.15 359.689 1065 360.419 1065 361.364C1065 361.993 1065.07 362.528 1065.2 362.969C1065.33 363.409 1065.53 363.744 1065.77 363.974C1066.03 364.203 1066.33 364.318 1066.68 364.318Z" fill="#69707D"/>
<path d="M1093.5 158V347" stroke="#E9EDF3"/>
<path d="M1157 158V347" stroke="#E9EDF3"/>
<path d="M1160.31 357.727V365H1159.43V358.651H1159.39L1157.61 359.83V358.935L1159.43 357.727H1160.31ZM1162.4 365V364.361L1164.8 361.733C1165.08 361.425 1165.32 361.158 1165.5 360.93C1165.68 360.701 1165.82 360.485 1165.9 360.284C1165.99 360.08 1166.04 359.867 1166.04 359.645C1166.04 359.389 1165.98 359.168 1165.85 358.981C1165.73 358.794 1165.57 358.649 1165.36 358.548C1165.15 358.446 1164.91 358.395 1164.65 358.395C1164.37 358.395 1164.12 358.453 1163.91 358.569C1163.71 358.683 1163.55 358.842 1163.43 359.048C1163.32 359.254 1163.27 359.496 1163.27 359.773H1162.43C1162.43 359.347 1162.53 358.973 1162.72 358.651C1162.92 358.329 1163.19 358.078 1163.53 357.898C1163.87 357.718 1164.25 357.628 1164.67 357.628C1165.1 357.628 1165.48 357.718 1165.81 357.898C1166.14 358.078 1166.39 358.32 1166.58 358.626C1166.77 358.931 1166.86 359.271 1166.86 359.645C1166.86 359.912 1166.81 360.174 1166.72 360.43C1166.62 360.683 1166.46 360.966 1166.22 361.278C1165.98 361.589 1165.66 361.967 1165.24 362.415L1163.61 364.162V364.219H1166.99V365H1162.4ZM1169.08 364.07C1168.91 364.07 1168.76 364.007 1168.63 363.881C1168.5 363.756 1168.44 363.606 1168.44 363.43C1168.44 363.255 1168.5 363.105 1168.63 362.979C1168.76 362.854 1168.91 362.791 1169.08 362.791C1169.26 362.791 1169.41 362.854 1169.53 362.979C1169.66 363.105 1169.72 363.255 1169.72 363.43C1169.72 363.546 1169.69 363.653 1169.63 363.75C1169.57 363.847 1169.5 363.925 1169.4 363.984C1169.31 364.041 1169.2 364.07 1169.08 364.07ZM1169.08 360.391C1168.91 360.391 1168.76 360.328 1168.63 360.202C1168.5 360.077 1168.44 359.927 1168.44 359.751C1168.44 359.576 1168.5 359.426 1168.63 359.3C1168.76 359.175 1168.91 359.112 1169.08 359.112C1169.26 359.112 1169.41 359.175 1169.53 359.3C1169.66 359.426 1169.72 359.576 1169.72 359.751C1169.72 359.867 1169.69 359.974 1169.63 360.071C1169.57 360.168 1169.5 360.246 1169.4 360.305C1169.31 360.362 1169.2 360.391 1169.08 360.391ZM1173.58 365.099C1173.05 365.099 1172.59 364.954 1172.21 364.663C1171.84 364.369 1171.55 363.944 1171.35 363.388C1171.15 362.829 1171.05 362.154 1171.05 361.364C1171.05 360.578 1171.15 359.906 1171.35 359.35C1171.55 358.791 1171.84 358.365 1172.22 358.072C1172.6 357.776 1173.05 357.628 1173.58 357.628C1174.11 357.628 1174.57 357.776 1174.94 358.072C1175.32 358.365 1175.61 358.791 1175.81 359.35C1176.01 359.906 1176.11 360.578 1176.11 361.364C1176.11 362.154 1176.01 362.829 1175.81 363.388C1175.61 363.944 1175.33 364.369 1174.95 364.663C1174.57 364.954 1174.12 365.099 1173.58 365.099ZM1173.58 364.318C1174.11 364.318 1174.52 364.062 1174.82 363.551C1175.11 363.04 1175.26 362.311 1175.26 361.364C1175.26 360.734 1175.19 360.198 1175.06 359.755C1174.92 359.312 1174.73 358.975 1174.48 358.743C1174.23 358.511 1173.93 358.395 1173.58 358.395C1173.06 358.395 1172.65 358.654 1172.35 359.173C1172.05 359.689 1171.91 360.419 1171.91 361.364C1171.91 361.993 1171.97 362.528 1172.1 362.969C1172.24 363.409 1172.43 363.744 1172.68 363.974C1172.93 364.203 1173.23 364.318 1173.58 364.318ZM1179.83 365.099C1179.3 365.099 1178.84 364.954 1178.46 364.663C1178.09 364.369 1177.8 363.944 1177.6 363.388C1177.4 362.829 1177.3 362.154 1177.3 361.364C1177.3 360.578 1177.4 359.906 1177.6 359.35C1177.8 358.791 1178.09 358.365 1178.47 358.072C1178.85 357.776 1179.3 357.628 1179.83 357.628C1180.36 357.628 1180.82 357.776 1181.19 358.072C1181.57 358.365 1181.86 358.791 1182.06 359.35C1182.26 359.906 1182.36 360.578 1182.36 361.364C1182.36 362.154 1182.26 362.829 1182.06 363.388C1181.86 363.944 1181.58 364.369 1181.2 364.663C1180.82 364.954 1180.37 365.099 1179.83 365.099ZM1179.83 364.318C1180.36 364.318 1180.77 364.062 1181.07 363.551C1181.36 363.04 1181.51 362.311 1181.51 361.364C1181.51 360.734 1181.44 360.198 1181.31 359.755C1181.17 359.312 1180.98 358.975 1180.73 358.743C1180.48 358.511 1180.18 358.395 1179.83 358.395C1179.31 358.395 1178.9 358.654 1178.6 359.173C1178.3 359.689 1178.16 360.419 1178.16 361.364C1178.16 361.993 1178.22 362.528 1178.35 362.969C1178.49 363.409 1178.68 363.744 1178.93 363.974C1179.18 364.203 1179.48 364.318 1179.83 364.318ZM1184.33 364.07C1184.16 364.07 1184.01 364.007 1183.88 363.881C1183.76 363.756 1183.7 363.606 1183.7 363.43C1183.7 363.255 1183.76 363.105 1183.88 362.979C1184.01 362.854 1184.16 362.791 1184.33 362.791C1184.51 362.791 1184.66 362.854 1184.79 362.979C1184.91 363.105 1184.97 363.255 1184.97 363.43C1184.97 363.546 1184.94 363.653 1184.89 363.75C1184.83 363.847 1184.75 363.925 1184.65 363.984C1184.56 364.041 1184.45 364.07 1184.33 364.07ZM1184.33 360.391C1184.16 360.391 1184.01 360.328 1183.88 360.202C1183.76 360.077 1183.7 359.927 1183.7 359.751C1183.7 359.576 1183.76 359.426 1183.88 359.3C1184.01 359.175 1184.16 359.112 1184.33 359.112C1184.51 359.112 1184.66 359.175 1184.79 359.3C1184.91 359.426 1184.97 359.576 1184.97 359.751C1184.97 359.867 1184.94 359.974 1184.89 360.071C1184.83 360.168 1184.75 360.246 1184.65 360.305C1184.56 360.362 1184.45 360.391 1184.33 360.391ZM1188.84 365.099C1188.3 365.099 1187.85 364.954 1187.47 364.663C1187.09 364.369 1186.8 363.944 1186.61 363.388C1186.41 362.829 1186.31 362.154 1186.31 361.364C1186.31 360.578 1186.41 359.906 1186.61 359.35C1186.81 358.791 1187.1 358.365 1187.47 358.072C1187.85 357.776 1188.31 357.628 1188.84 357.628C1189.37 357.628 1189.82 357.776 1190.2 358.072C1190.57 358.365 1190.86 358.791 1191.06 359.35C1191.26 359.906 1191.36 360.578 1191.36 361.364C1191.36 362.154 1191.26 362.829 1191.07 363.388C1190.87 363.944 1190.58 364.369 1190.2 364.663C1189.83 364.954 1189.37 365.099 1188.84 365.099ZM1188.84 364.318C1189.37 364.318 1189.78 364.062 1190.07 363.551C1190.37 363.04 1190.51 362.311 1190.51 361.364C1190.51 360.734 1190.44 360.198 1190.31 359.755C1190.18 359.312 1189.99 358.975 1189.73 358.743C1189.49 358.511 1189.19 358.395 1188.84 358.395C1188.31 358.395 1187.9 358.654 1187.6 359.173C1187.31 359.689 1187.16 360.419 1187.16 361.364C1187.16 361.993 1187.23 362.528 1187.36 362.969C1187.49 363.409 1187.68 363.744 1187.93 363.974C1188.18 364.203 1188.48 364.318 1188.84 364.318ZM1195.09 365.099C1194.55 365.099 1194.1 364.954 1193.72 364.663C1193.34 364.369 1193.05 363.944 1192.86 363.388C1192.66 362.829 1192.56 362.154 1192.56 361.364C1192.56 360.578 1192.66 359.906 1192.86 359.35C1193.06 358.791 1193.35 358.365 1193.72 358.072C1194.1 357.776 1194.56 357.628 1195.09 357.628C1195.62 357.628 1196.07 357.776 1196.45 358.072C1196.82 358.365 1197.11 358.791 1197.31 359.35C1197.51 359.906 1197.61 360.578 1197.61 361.364C1197.61 362.154 1197.51 362.829 1197.32 363.388C1197.12 363.944 1196.83 364.369 1196.45 364.663C1196.08 364.954 1195.62 365.099 1195.09 365.099ZM1195.09 364.318C1195.62 364.318 1196.03 364.062 1196.32 363.551C1196.62 363.04 1196.76 362.311 1196.76 361.364C1196.76 360.734 1196.69 360.198 1196.56 359.755C1196.43 359.312 1196.24 358.975 1195.98 358.743C1195.74 358.511 1195.44 358.395 1195.09 358.395C1194.56 358.395 1194.15 358.654 1193.85 359.173C1193.56 359.689 1193.41 360.419 1193.41 361.364C1193.41 361.993 1193.48 362.528 1193.61 362.969C1193.74 363.409 1193.93 363.744 1194.18 363.974C1194.43 364.203 1194.73 364.318 1195.09 364.318Z" fill="#69707D"/>
<path d="M1220.5 158V347" stroke="#E9EDF3"/>
<path d="M1284 158V347" stroke="#E9EDF3"/>
<path d="M1287.31 357.727V365H1286.43V358.651H1286.39L1284.61 359.83V358.935L1286.43 357.727H1287.31ZM1291.86 365.099C1291.39 365.099 1290.97 365.019 1290.61 364.858C1290.24 364.697 1289.95 364.473 1289.74 364.187C1289.52 363.898 1289.41 363.563 1289.39 363.182H1290.28C1290.3 363.416 1290.38 363.619 1290.52 363.789C1290.67 363.957 1290.85 364.087 1291.08 364.18C1291.31 364.272 1291.57 364.318 1291.84 364.318C1292.16 364.318 1292.43 364.264 1292.68 364.155C1292.92 364.046 1293.11 363.894 1293.24 363.7C1293.38 363.506 1293.45 363.281 1293.45 363.026C1293.45 362.758 1293.38 362.522 1293.25 362.319C1293.12 362.113 1292.92 361.952 1292.67 361.836C1292.41 361.72 1292.1 361.662 1291.73 361.662H1291.15V360.881H1291.73C1292.02 360.881 1292.27 360.829 1292.49 360.724C1292.71 360.62 1292.88 360.473 1293.01 360.284C1293.13 360.095 1293.19 359.872 1293.19 359.616C1293.19 359.37 1293.14 359.156 1293.03 358.974C1292.92 358.791 1292.77 358.649 1292.57 358.548C1292.37 358.446 1292.14 358.395 1291.87 358.395C1291.62 358.395 1291.39 358.441 1291.16 358.533C1290.94 358.623 1290.76 358.755 1290.62 358.928C1290.48 359.098 1290.41 359.304 1290.4 359.545H1289.54C1289.56 359.164 1289.67 358.83 1289.89 358.544C1290.1 358.255 1290.38 358.03 1290.73 357.869C1291.08 357.708 1291.47 357.628 1291.89 357.628C1292.34 357.628 1292.72 357.719 1293.04 357.901C1293.37 358.081 1293.61 358.319 1293.79 358.615C1293.96 358.911 1294.05 359.231 1294.05 359.574C1294.05 359.983 1293.94 360.333 1293.72 360.621C1293.51 360.91 1293.22 361.11 1292.85 361.222V361.278C1293.31 361.354 1293.67 361.549 1293.93 361.864C1294.19 362.177 1294.32 362.564 1294.32 363.026C1294.32 363.421 1294.21 363.776 1293.99 364.091C1293.78 364.403 1293.49 364.65 1293.12 364.83C1292.75 365.009 1292.33 365.099 1291.86 365.099ZM1296.39 364.07C1296.22 364.07 1296.07 364.007 1295.94 363.881C1295.82 363.756 1295.75 363.606 1295.75 363.43C1295.75 363.255 1295.82 363.105 1295.94 362.979C1296.07 362.854 1296.22 362.791 1296.39 362.791C1296.57 362.791 1296.72 362.854 1296.84 362.979C1296.97 363.105 1297.03 363.255 1297.03 363.43C1297.03 363.546 1297 363.653 1296.94 363.75C1296.89 363.847 1296.81 363.925 1296.71 363.984C1296.62 364.041 1296.51 364.07 1296.39 364.07ZM1296.39 360.391C1296.22 360.391 1296.07 360.328 1295.94 360.202C1295.82 360.077 1295.75 359.927 1295.75 359.751C1295.75 359.576 1295.82 359.426 1295.94 359.3C1296.07 359.175 1296.22 359.112 1296.39 359.112C1296.57 359.112 1296.72 359.175 1296.84 359.3C1296.97 359.426 1297.03 359.576 1297.03 359.751C1297.03 359.867 1297 359.974 1296.94 360.071C1296.89 360.168 1296.81 360.246 1296.71 360.305C1296.62 360.362 1296.51 360.391 1296.39 360.391ZM1300.89 365.099C1300.36 365.099 1299.9 364.954 1299.53 364.663C1299.15 364.369 1298.86 363.944 1298.66 363.388C1298.47 362.829 1298.37 362.154 1298.37 361.364C1298.37 360.578 1298.47 359.906 1298.66 359.35C1298.87 358.791 1299.15 358.365 1299.53 358.072C1299.91 357.776 1300.36 357.628 1300.89 357.628C1301.42 357.628 1301.88 357.776 1302.25 358.072C1302.63 358.365 1302.92 358.791 1303.12 359.35C1303.32 359.906 1303.42 360.578 1303.42 361.364C1303.42 362.154 1303.32 362.829 1303.12 363.388C1302.93 363.944 1302.64 364.369 1302.26 364.663C1301.89 364.954 1301.43 365.099 1300.89 365.099ZM1300.89 364.318C1301.42 364.318 1301.84 364.062 1302.13 363.551C1302.42 363.04 1302.57 362.311 1302.57 361.364C1302.57 360.734 1302.5 360.198 1302.37 359.755C1302.24 359.312 1302.04 358.975 1301.79 358.743C1301.54 358.511 1301.24 358.395 1300.89 358.395C1300.37 358.395 1299.96 358.654 1299.66 359.173C1299.37 359.689 1299.22 360.419 1299.22 361.364C1299.22 361.993 1299.28 362.528 1299.42 362.969C1299.55 363.409 1299.74 363.744 1299.99 363.974C1300.24 364.203 1300.54 364.318 1300.89 364.318ZM1307.14 365.099C1306.61 365.099 1306.15 364.954 1305.78 364.663C1305.4 364.369 1305.11 363.944 1304.91 363.388C1304.72 362.829 1304.62 362.154 1304.62 361.364C1304.62 360.578 1304.72 359.906 1304.91 359.35C1305.12 358.791 1305.4 358.365 1305.78 358.072C1306.16 357.776 1306.61 357.628 1307.14 357.628C1307.67 357.628 1308.13 357.776 1308.5 358.072C1308.88 358.365 1309.17 358.791 1309.37 359.35C1309.57 359.906 1309.67 360.578 1309.67 361.364C1309.67 362.154 1309.57 362.829 1309.37 363.388C1309.18 363.944 1308.89 364.369 1308.51 364.663C1308.14 364.954 1307.68 365.099 1307.14 365.099ZM1307.14 364.318C1307.67 364.318 1308.09 364.062 1308.38 363.551C1308.67 363.04 1308.82 362.311 1308.82 361.364C1308.82 360.734 1308.75 360.198 1308.62 359.755C1308.49 359.312 1308.29 358.975 1308.04 358.743C1307.79 358.511 1307.49 358.395 1307.14 358.395C1306.62 358.395 1306.21 358.654 1305.91 359.173C1305.62 359.689 1305.47 360.419 1305.47 361.364C1305.47 361.993 1305.53 362.528 1305.67 362.969C1305.8 363.409 1305.99 363.744 1306.24 363.974C1306.49 364.203 1306.79 364.318 1307.14 364.318ZM1311.65 364.07C1311.47 364.07 1311.32 364.007 1311.2 363.881C1311.07 363.756 1311.01 363.606 1311.01 363.43C1311.01 363.255 1311.07 363.105 1311.2 362.979C1311.32 362.854 1311.47 362.791 1311.65 362.791C1311.82 362.791 1311.97 362.854 1312.1 362.979C1312.22 363.105 1312.29 363.255 1312.29 363.43C1312.29 363.546 1312.26 363.653 1312.2 363.75C1312.14 363.847 1312.06 363.925 1311.97 363.984C1311.87 364.041 1311.77 364.07 1311.65 364.07ZM1311.65 360.391C1311.47 360.391 1311.32 360.328 1311.2 360.202C1311.07 360.077 1311.01 359.927 1311.01 359.751C1311.01 359.576 1311.07 359.426 1311.2 359.3C1311.32 359.175 1311.47 359.112 1311.65 359.112C1311.82 359.112 1311.97 359.175 1312.1 359.3C1312.22 359.426 1312.29 359.576 1312.29 359.751C1312.29 359.867 1312.26 359.974 1312.2 360.071C1312.14 360.168 1312.06 360.246 1311.97 360.305C1311.87 360.362 1311.77 360.391 1311.65 360.391ZM1316.15 365.099C1315.61 365.099 1315.16 364.954 1314.78 364.663C1314.4 364.369 1314.12 363.944 1313.92 363.388C1313.72 362.829 1313.62 362.154 1313.62 361.364C1313.62 360.578 1313.72 359.906 1313.92 359.35C1314.12 358.791 1314.41 358.365 1314.78 358.072C1315.16 357.776 1315.62 357.628 1316.15 357.628C1316.68 357.628 1317.13 357.776 1317.51 358.072C1317.89 358.365 1318.18 358.791 1318.38 359.35C1318.58 359.906 1318.68 360.578 1318.68 361.364C1318.68 362.154 1318.58 362.829 1318.38 363.388C1318.18 363.944 1317.89 364.369 1317.52 364.663C1317.14 364.954 1316.68 365.099 1316.15 365.099ZM1316.15 364.318C1316.68 364.318 1317.09 364.062 1317.38 363.551C1317.68 363.04 1317.82 362.311 1317.82 361.364C1317.82 360.734 1317.76 360.198 1317.62 359.755C1317.49 359.312 1317.3 358.975 1317.05 358.743C1316.8 358.511 1316.5 358.395 1316.15 358.395C1315.62 358.395 1315.21 358.654 1314.92 359.173C1314.62 359.689 1314.47 360.419 1314.47 361.364C1314.47 361.993 1314.54 362.528 1314.67 362.969C1314.8 363.409 1314.99 363.744 1315.24 363.974C1315.49 364.203 1315.8 364.318 1316.15 364.318ZM1322.4 365.099C1321.86 365.099 1321.41 364.954 1321.03 364.663C1320.65 364.369 1320.37 363.944 1320.17 363.388C1319.97 362.829 1319.87 362.154 1319.87 361.364C1319.87 360.578 1319.97 359.906 1320.17 359.35C1320.37 358.791 1320.66 358.365 1321.03 358.072C1321.41 357.776 1321.87 357.628 1322.4 357.628C1322.93 357.628 1323.38 357.776 1323.76 358.072C1324.14 358.365 1324.43 358.791 1324.62 359.35C1324.83 359.906 1324.93 360.578 1324.93 361.364C1324.93 362.154 1324.83 362.829 1324.63 363.388C1324.43 363.944 1324.14 364.369 1323.77 364.663C1323.39 364.954 1322.93 365.099 1322.4 365.099ZM1322.4 364.318C1322.93 364.318 1323.34 364.062 1323.63 363.551C1323.93 363.04 1324.07 362.311 1324.07 361.364C1324.07 360.734 1324.01 360.198 1323.87 359.755C1323.74 359.312 1323.55 358.975 1323.3 358.743C1323.05 358.511 1322.75 358.395 1322.4 358.395C1321.87 358.395 1321.46 358.654 1321.17 359.173C1320.87 359.689 1320.72 360.419 1320.72 361.364C1320.72 361.993 1320.79 362.528 1320.92 362.969C1321.05 363.409 1321.24 363.744 1321.49 363.974C1321.74 364.203 1322.05 364.318 1322.4 364.318Z" fill="#69707D"/>
<path d="M1347.5 158V347" stroke="#E9EDF3"/>
<path d="M903 216.508C911.912 216.508 920.825 262.396 929.737 262.396C938.649 262.396 947.561 218.548 956.474 218.548C965.386 218.548 974.298 247.1 983.211 247.1C992.123 247.1 1001.04 222.627 1009.95 222.627C1018.86 222.627 1027.77 255.258 1036.68 255.258C1045.6 255.258 1054.51 213.449 1063.42 213.449C1072.33 213.449 1081.25 216.508 1090.16 216.508C1099.07 216.508 1107.98 228.745 1116.89 228.745C1125.81 228.745 1134.72 236.903 1143.63 236.903C1152.54 236.903 1161.46 262.396 1170.37 262.396C1179.28 262.396 1188.19 288.909 1197.11 288.909C1206.02 288.909 1214.93 246.08 1223.84 246.08C1232.75 246.08 1241.67 276.672 1250.58 276.672C1259.49 276.672 1268.4 250.159 1277.32 250.159C1286.23 250.159 1295.14 267.495 1304.05 267.495C1312.96 267.495 1321.88 233.844 1330.79 233.844C1339.7 233.844 1348.61 232.824 1357.53 232.824C1366.44 232.824 1375.35 220.587 1384.26 220.587C1393.18 220.587 1402.09 212.429 1411 212.429" stroke="#DEEAFF" stroke-width="2" stroke-linecap="round" stroke-linejoin="round"/>
<path d="M903 212.429C911.912 212.429 920.825 287.994 929.737 287.994C938.649 287.994 947.561 226.725 956.474 226.725C965.386 226.725 974.298 264.507 983.211 264.507C992.123 264.507 1001.04 238.979 1009.95 238.979C1018.86 238.979 1027.77 277.782 1036.68 277.782C1045.6 277.782 1054.51 272.676 1063.42 272.676C1072.33 272.676 1081.25 265.528 1090.16 265.528C1099.07 265.528 1107.98 226.725 1116.89 226.725C1125.81 226.725 1134.72 218.556 1143.63 218.556C1152.54 218.556 1161.46 282.888 1170.37 282.888C1179.28 282.888 1188.19 287.994 1197.11 287.994C1206.02 287.994 1214.93 257.359 1223.84 257.359C1232.75 257.359 1241.67 247.148 1250.58 247.148C1259.49 247.148 1268.4 281.867 1277.32 281.867C1286.23 281.867 1295.14 217.535 1304.05 217.535C1312.96 217.535 1321.88 227.746 1330.79 227.746C1339.7 227.746 1348.61 223.662 1357.53 223.662C1366.44 223.662 1375.35 256.338 1384.26 256.338C1393.18 256.338 1402.09 261.444 1411 261.444" stroke="#DEEAFF" stroke-width="2" stroke-linecap="round" stroke-linejoin="round"/>
<path d="M903 249.495C911.912 249.495 920.825 239.477 929.737 239.477C938.649 239.477 947.561 219.442 956.474 219.442C965.386 219.442 974.298 276.542 983.211 276.542C992.123 276.542 1001.04 290.567 1009.95 290.567C1018.86 290.567 1027.77 266.525 1036.68 266.525C1045.6 266.525 1054.51 254.504 1063.42 254.504C1072.33 254.504 1081.25 292.571 1090.16 292.571C1099.07 292.571 1107.98 214.433 1116.89 214.433C1125.81 214.433 1134.72 235.47 1143.63 235.47C1152.54 235.47 1161.46 212.429 1170.37 212.429C1179.28 212.429 1188.19 223.449 1197.11 223.449C1206.02 223.449 1214.93 243.484 1223.84 243.484C1232.75 243.484 1241.67 288.564 1250.58 288.564C1259.49 288.564 1268.4 267.526 1277.32 267.526C1286.23 267.526 1295.14 241.481 1304.05 241.481C1312.96 241.481 1321.88 244.486 1330.79 244.486C1339.7 244.486 1348.61 283.555 1357.53 283.555C1366.44 283.555 1375.35 275.541 1384.26 275.541C1393.18 275.541 1402.09 274.539 1411 274.539" stroke="#DEEAFF" stroke-width="2" stroke-linecap="round" stroke-linejoin="round"/>
<path d="M903 250.281C911.912 250.281 920.825 246.701 929.737 246.701C938.649 246.701 947.561 239.542 956.474 239.542C965.386 239.542 974.298 259.945 983.211 259.945C992.123 259.945 1001.04 264.957 1009.95 264.957C1018.86 264.957 1027.77 256.366 1036.68 256.366C1045.6 256.366 1054.51 252.07 1063.42 252.07C1072.33 252.07 1081.25 265.673 1090.16 265.673C1099.07 265.673 1107.98 237.752 1116.89 237.752C1125.81 237.752 1134.72 245.269 1143.63 245.269C1152.54 245.269 1161.46 237.036 1170.37 237.036C1179.28 237.036 1188.19 240.974 1197.11 240.974C1206.02 240.974 1214.93 248.133 1223.84 248.133C1232.75 248.133 1241.67 264.241 1250.58 264.241C1259.49 264.241 1268.4 256.724 1277.32 256.724C1286.23 256.724 1295.14 247.417 1304.05 247.417C1312.96 247.417 1321.88 248.491 1330.79 248.491C1339.7 248.491 1348.61 262.451 1357.53 262.451C1366.44 262.451 1375.35 259.588 1384.26 259.588C1393.18 259.588 1402.09 259.23 1411 259.23" stroke="#0452A1" stroke-width="2" stroke-linecap="round" stroke-linejoin="round"/>
<rect x="903" y="158" width="508" height="189" stroke="#E9EDF3"/>
<g filter="url(#filter3_dd_1732_45544)">
<rect x="296" y="134" width="208" height="270" rx="6" fill="white"/>
</g>
<path d="M347.875 351.499C347.34 351.499 346.884 351.354 346.508 351.063C346.131 350.769 345.844 350.344 345.645 349.788C345.446 349.229 345.347 348.554 345.347 347.764C345.347 346.978 345.446 346.307 345.645 345.75C345.846 345.191 346.135 344.765 346.511 344.472C346.89 344.176 347.345 344.028 347.875 344.028C348.405 344.028 348.859 344.176 349.235 344.472C349.614 344.765 349.903 345.191 350.102 345.75C350.303 346.307 350.403 346.978 350.403 347.764C350.403 348.554 350.304 349.229 350.105 349.788C349.906 350.344 349.619 350.769 349.242 351.063C348.866 351.354 348.41 351.499 347.875 351.499ZM347.875 350.718C348.405 350.718 348.817 350.463 349.111 349.951C349.404 349.44 349.551 348.711 349.551 347.764C349.551 347.134 349.484 346.598 349.349 346.155C349.216 345.712 349.024 345.375 348.773 345.143C348.525 344.911 348.225 344.795 347.875 344.795C347.349 344.795 346.939 345.054 346.643 345.573C346.347 346.089 346.199 346.819 346.199 347.764C346.199 348.393 346.265 348.928 346.398 349.369C346.53 349.809 346.721 350.144 346.969 350.374C347.22 350.603 347.522 350.718 347.875 350.718Z" fill="#69707D"/>
<path d="M343.411 297.027V304.3H342.531V297.951H342.488L340.712 299.13V298.235L342.531 297.027H343.411ZM347.875 304.399C347.34 304.399 346.884 304.254 346.508 303.963C346.131 303.669 345.844 303.244 345.645 302.688C345.446 302.129 345.347 301.454 345.347 300.664C345.347 299.878 345.446 299.207 345.645 298.65C345.846 298.091 346.135 297.665 346.511 297.372C346.89 297.076 347.345 296.928 347.875 296.928C348.405 296.928 348.859 297.076 349.235 297.372C349.614 297.665 349.903 298.091 350.102 298.65C350.303 299.207 350.403 299.878 350.403 300.664C350.403 301.454 350.304 302.129 350.105 302.688C349.906 303.244 349.619 303.669 349.242 303.963C348.866 304.254 348.41 304.399 347.875 304.399ZM347.875 303.618C348.405 303.618 348.817 303.363 349.111 302.851C349.404 302.34 349.551 301.611 349.551 300.664C349.551 300.034 349.484 299.498 349.349 299.055C349.216 298.612 349.024 298.275 348.773 298.043C348.525 297.811 348.225 297.695 347.875 297.695C347.349 297.695 346.939 297.954 346.643 298.473C346.347 298.989 346.199 299.719 346.199 300.664C346.199 301.293 346.265 301.828 346.398 302.269C346.53 302.709 346.721 303.044 346.969 303.274C347.22 303.503 347.522 303.618 347.875 303.618Z" fill="#69707D"/>
<path d="M459 300.3L359 300.3" stroke="#E9EDF3" stroke-dasharray="5 5"/>
<path d="M339.448 257.2V256.561L341.849 253.933C342.13 253.625 342.362 253.358 342.545 253.13C342.727 252.901 342.862 252.685 342.95 252.484C343.04 252.28 343.085 252.067 343.085 251.845C343.085 251.589 343.023 251.368 342.9 251.181C342.779 250.994 342.613 250.849 342.403 250.748C342.192 250.646 341.955 250.595 341.692 250.595C341.413 250.595 341.169 250.653 340.961 250.769C340.755 250.882 340.595 251.042 340.482 251.248C340.37 251.454 340.315 251.696 340.315 251.973H339.477C339.477 251.547 339.575 251.172 339.771 250.851C339.968 250.529 340.235 250.278 340.574 250.098C340.915 249.918 341.297 249.828 341.721 249.828C342.147 249.828 342.525 249.918 342.854 250.098C343.183 250.278 343.441 250.52 343.628 250.826C343.815 251.131 343.908 251.471 343.908 251.845C343.908 252.112 343.86 252.374 343.763 252.63C343.668 252.883 343.502 253.166 343.266 253.478C343.031 253.788 342.706 254.167 342.289 254.615L340.656 256.362V256.419H344.036V257.2H339.448ZM347.875 257.299C347.34 257.299 346.884 257.154 346.508 256.863C346.131 256.569 345.844 256.144 345.645 255.588C345.446 255.029 345.347 254.354 345.347 253.564C345.347 252.778 345.446 252.106 345.645 251.55C345.846 250.991 346.135 250.565 346.511 250.272C346.89 249.976 347.345 249.828 347.875 249.828C348.405 249.828 348.859 249.976 349.235 250.272C349.614 250.565 349.903 250.991 350.102 251.55C350.303 252.106 350.403 252.778 350.403 253.564C350.403 254.354 350.304 255.029 350.105 255.588C349.906 256.144 349.619 256.569 349.242 256.863C348.866 257.154 348.41 257.299 347.875 257.299ZM347.875 256.518C348.405 256.518 348.817 256.262 349.111 255.751C349.404 255.24 349.551 254.511 349.551 253.564C349.551 252.934 349.484 252.398 349.349 251.955C349.216 251.512 349.024 251.175 348.773 250.943C348.525 250.711 348.225 250.595 347.875 250.595C347.349 250.595 346.939 250.854 346.643 251.373C346.347 251.889 346.199 252.619 346.199 253.564C346.199 254.193 346.265 254.728 346.398 255.169C346.53 255.609 346.721 255.944 346.969 256.174C347.22 256.403 347.522 256.518 347.875 256.518Z" fill="#69707D"/>
<path d="M459 253.2L359 253.2" stroke="#E9EDF3" stroke-dasharray="5 5"/>
<path d="M341.593 210.199C341.124 210.199 340.706 210.119 340.339 209.958C339.975 209.797 339.685 209.573 339.469 209.287C339.256 208.998 339.14 208.663 339.121 208.282H340.016C340.035 208.516 340.116 208.719 340.258 208.889C340.4 209.057 340.586 209.187 340.815 209.28C341.045 209.372 341.299 209.418 341.579 209.418C341.891 209.418 342.168 209.364 342.41 209.255C342.651 209.146 342.841 208.994 342.978 208.8C343.115 208.606 343.184 208.381 343.184 208.126C343.184 207.858 343.118 207.622 342.985 207.419C342.853 207.213 342.658 207.052 342.403 206.936C342.147 206.82 341.835 206.762 341.465 206.762H340.883V205.981H341.465C341.754 205.981 342.007 205.929 342.225 205.824C342.445 205.72 342.617 205.573 342.74 205.384C342.866 205.195 342.928 204.972 342.928 204.716C342.928 204.47 342.874 204.256 342.765 204.074C342.656 203.891 342.502 203.749 342.303 203.648C342.107 203.546 341.875 203.495 341.607 203.495C341.356 203.495 341.12 203.541 340.897 203.633C340.677 203.723 340.497 203.855 340.357 204.028C340.218 204.198 340.142 204.404 340.13 204.645H339.278C339.292 204.264 339.407 203.93 339.622 203.644C339.838 203.355 340.119 203.13 340.467 202.969C340.818 202.808 341.202 202.728 341.621 202.728C342.071 202.728 342.457 202.819 342.779 203.001C343.101 203.181 343.348 203.419 343.521 203.715C343.694 204.011 343.781 204.331 343.781 204.674C343.781 205.083 343.673 205.433 343.457 205.721C343.244 206.01 342.954 206.21 342.587 206.322V206.378C343.047 206.454 343.405 206.649 343.663 206.964C343.921 207.277 344.05 207.664 344.05 208.126C344.05 208.521 343.943 208.876 343.727 209.191C343.514 209.503 343.223 209.75 342.854 209.93C342.484 210.109 342.064 210.199 341.593 210.199ZM347.875 210.199C347.34 210.199 346.884 210.054 346.508 209.763C346.131 209.469 345.844 209.044 345.645 208.488C345.446 207.929 345.347 207.254 345.347 206.464C345.347 205.678 345.446 205.006 345.645 204.45C345.846 203.891 346.135 203.465 346.511 203.172C346.89 202.876 347.345 202.728 347.875 202.728C348.405 202.728 348.859 202.876 349.235 203.172C349.614 203.465 349.903 203.891 350.102 204.45C350.303 205.006 350.403 205.678 350.403 206.464C350.403 207.254 350.304 207.929 350.105 208.488C349.906 209.044 349.619 209.469 349.242 209.763C348.866 210.054 348.41 210.199 347.875 210.199ZM347.875 209.418C348.405 209.418 348.817 209.162 349.111 208.651C349.404 208.14 349.551 207.411 349.551 206.464C349.551 205.834 349.484 205.298 349.349 204.855C349.216 204.412 349.024 204.075 348.773 203.843C348.525 203.611 348.225 203.495 347.875 203.495C347.349 203.495 346.939 203.754 346.643 204.273C346.347 204.789 346.199 205.519 346.199 206.464C346.199 207.093 346.265 207.628 346.398 208.069C346.53 208.509 346.721 208.844 346.969 209.074C347.22 209.303 347.522 209.418 347.875 209.418Z" fill="#69707D"/>
<path d="M459 206.1L359 206.1" stroke="#E9EDF3" stroke-dasharray="5 5"/>
<path d="M338.916 161.509V160.784L342.112 155.727H342.638V156.849H342.283L339.868 160.67V160.727H344.172V161.509H338.916ZM342.34 163V161.288V160.951V155.727H343.178V163H342.34ZM347.875 163.099C347.34 163.099 346.884 162.954 346.508 162.663C346.131 162.369 345.844 161.944 345.645 161.388C345.446 160.829 345.347 160.154 345.347 159.364C345.347 158.578 345.446 157.906 345.645 157.35C345.846 156.791 346.135 156.365 346.511 156.072C346.89 155.776 347.345 155.628 347.875 155.628C348.405 155.628 348.859 155.776 349.235 156.072C349.614 156.365 349.903 156.791 350.102 157.35C350.303 157.906 350.403 158.578 350.403 159.364C350.403 160.154 350.304 160.829 350.105 161.388C349.906 161.944 349.619 162.369 349.242 162.663C348.866 162.954 348.41 163.099 347.875 163.099ZM347.875 162.318C348.405 162.318 348.817 162.062 349.111 161.551C349.404 161.04 349.551 160.311 349.551 159.364C349.551 158.734 349.484 158.198 349.349 157.755C349.216 157.312 349.024 156.975 348.773 156.743C348.525 156.511 348.225 156.395 347.875 156.395C347.349 156.395 346.939 156.654 346.643 157.173C346.347 157.689 346.199 158.419 346.199 159.364C346.199 159.993 346.265 160.528 346.398 160.969C346.53 161.409 346.721 161.744 346.969 161.974C347.22 162.203 347.522 162.318 347.875 162.318Z" fill="#69707D"/>
<path d="M359 158V347" stroke="#E9EDF3"/>
<path d="M362.31 357.727V365H361.429V358.651H361.386L359.611 359.83V358.935L361.429 357.727H362.31ZM366.773 365.099C366.238 365.099 365.783 364.954 365.406 364.663C365.03 364.369 364.742 363.944 364.543 363.388C364.344 362.829 364.245 362.154 364.245 361.364C364.245 360.578 364.344 359.906 364.543 359.35C364.745 358.791 365.033 358.365 365.41 358.072C365.789 357.776 366.243 357.628 366.773 357.628C367.304 357.628 367.757 357.776 368.134 358.072C368.512 358.365 368.801 358.791 369 359.35C369.201 359.906 369.302 360.578 369.302 361.364C369.302 362.154 369.202 362.829 369.004 363.388C368.805 363.944 368.517 364.369 368.141 364.663C367.764 364.954 367.308 365.099 366.773 365.099ZM366.773 364.318C367.304 364.318 367.716 364.062 368.009 363.551C368.303 363.04 368.45 362.311 368.45 361.364C368.45 360.734 368.382 360.198 368.247 359.755C368.115 359.312 367.923 358.975 367.672 358.743C367.423 358.511 367.124 358.395 366.773 358.395C366.248 358.395 365.837 358.654 365.541 359.173C365.245 359.689 365.097 360.419 365.097 361.364C365.097 361.993 365.164 362.528 365.296 362.969C365.429 363.409 365.619 363.744 365.868 363.974C366.119 364.203 366.421 364.318 366.773 364.318ZM371.276 364.07C371.101 364.07 370.951 364.007 370.825 363.881C370.7 363.756 370.637 363.606 370.637 363.43C370.637 363.255 370.7 363.105 370.825 362.979C370.951 362.854 371.101 362.791 371.276 362.791C371.451 362.791 371.602 362.854 371.727 362.979C371.853 363.105 371.915 363.255 371.915 363.43C371.915 363.546 371.886 363.653 371.827 363.75C371.77 363.847 371.693 363.925 371.596 363.984C371.501 364.041 371.395 364.07 371.276 364.07ZM371.276 360.391C371.101 360.391 370.951 360.328 370.825 360.202C370.7 360.077 370.637 359.927 370.637 359.751C370.637 359.576 370.7 359.426 370.825 359.3C370.951 359.175 371.101 359.112 371.276 359.112C371.451 359.112 371.602 359.175 371.727 359.3C371.853 359.426 371.915 359.576 371.915 359.751C371.915 359.867 371.886 359.974 371.827 360.071C371.77 360.168 371.693 360.246 371.596 360.305C371.501 360.362 371.395 360.391 371.276 360.391ZM375.777 365.099C375.242 365.099 374.787 364.954 374.41 364.663C374.034 364.369 373.746 363.944 373.547 363.388C373.348 362.829 373.249 362.154 373.249 361.364C373.249 360.578 373.348 359.906 373.547 359.35C373.748 358.791 374.037 358.365 374.414 358.072C374.792 357.776 375.247 357.628 375.777 357.628C376.308 357.628 376.761 357.776 377.137 358.072C377.516 358.365 377.805 358.791 378.004 359.35C378.205 359.906 378.306 360.578 378.306 361.364C378.306 362.154 378.206 362.829 378.007 363.388C377.809 363.944 377.521 364.369 377.145 364.663C376.768 364.954 376.312 365.099 375.777 365.099ZM375.777 364.318C376.308 364.318 376.72 364.062 377.013 363.551C377.307 363.04 377.453 362.311 377.453 361.364C377.453 360.734 377.386 360.198 377.251 359.755C377.118 359.312 376.927 358.975 376.676 358.743C376.427 358.511 376.128 358.395 375.777 358.395C375.252 358.395 374.841 358.654 374.545 359.173C374.249 359.689 374.101 360.419 374.101 361.364C374.101 361.993 374.167 362.528 374.3 362.969C374.433 363.409 374.623 363.744 374.872 363.974C375.123 364.203 375.425 364.318 375.777 364.318ZM382.027 365.099C381.492 365.099 381.037 364.954 380.66 364.663C380.284 364.369 379.996 363.944 379.797 363.388C379.598 362.829 379.499 362.154 379.499 361.364C379.499 360.578 379.598 359.906 379.797 359.35C379.998 358.791 380.287 358.365 380.664 358.072C381.042 357.776 381.497 357.628 382.027 357.628C382.558 357.628 383.011 357.776 383.387 358.072C383.766 358.365 384.055 358.791 384.254 359.35C384.455 359.906 384.556 360.578 384.556 361.364C384.556 362.154 384.456 362.829 384.257 363.388C384.059 363.944 383.771 364.369 383.395 364.663C383.018 364.954 382.562 365.099 382.027 365.099ZM382.027 364.318C382.558 364.318 382.97 364.062 383.263 363.551C383.557 363.04 383.703 362.311 383.703 361.364C383.703 360.734 383.636 360.198 383.501 359.755C383.368 359.312 383.177 358.975 382.926 358.743C382.677 358.511 382.378 358.395 382.027 358.395C381.502 358.395 381.091 358.654 380.795 359.173C380.499 359.689 380.351 360.419 380.351 361.364C380.351 361.993 380.417 362.528 380.55 362.969C380.683 363.409 380.873 363.744 381.122 363.974C381.373 364.203 381.675 364.318 382.027 364.318ZM386.53 364.07C386.355 364.07 386.205 364.007 386.079 363.881C385.954 363.756 385.891 363.606 385.891 363.43C385.891 363.255 385.954 363.105 386.079 362.979C386.205 362.854 386.355 362.791 386.53 362.791C386.705 362.791 386.856 362.854 386.981 362.979C387.107 363.105 387.169 363.255 387.169 363.43C387.169 363.546 387.14 363.653 387.081 363.75C387.024 363.847 386.947 363.925 386.85 363.984C386.755 364.041 386.649 364.07 386.53 364.07ZM386.53 360.391C386.355 360.391 386.205 360.328 386.079 360.202C385.954 360.077 385.891 359.927 385.891 359.751C385.891 359.576 385.954 359.426 386.079 359.3C386.205 359.175 386.355 359.112 386.53 359.112C386.705 359.112 386.856 359.175 386.981 359.3C387.107 359.426 387.169 359.576 387.169 359.751C387.169 359.867 387.14 359.974 387.081 360.071C387.024 360.168 386.947 360.246 386.85 360.305C386.755 360.362 386.649 360.391 386.53 360.391ZM391.031 365.099C390.496 365.099 390.04 364.954 389.664 364.663C389.288 364.369 389 363.944 388.801 363.388C388.602 362.829 388.503 362.154 388.503 361.364C388.503 360.578 388.602 359.906 388.801 359.35C389.002 358.791 389.291 358.365 389.668 358.072C390.046 357.776 390.501 357.628 391.031 357.628C391.562 357.628 392.015 357.776 392.391 358.072C392.77 358.365 393.059 358.791 393.258 359.35C393.459 359.906 393.56 360.578 393.56 361.364C393.56 362.154 393.46 362.829 393.261 363.388C393.062 363.944 392.775 364.369 392.398 364.663C392.022 364.954 391.566 365.099 391.031 365.099ZM391.031 364.318C391.562 364.318 391.973 364.062 392.267 363.551C392.561 363.04 392.707 362.311 392.707 361.364C392.707 360.734 392.64 360.198 392.505 359.755C392.372 359.312 392.181 358.975 391.93 358.743C391.681 358.511 391.382 358.395 391.031 358.395C390.506 358.395 390.095 358.654 389.799 359.173C389.503 359.689 389.355 360.419 389.355 361.364C389.355 361.993 389.421 362.528 389.554 362.969C389.687 363.409 389.877 363.744 390.126 363.974C390.377 364.203 390.679 364.318 391.031 364.318ZM397.281 365.099C396.746 365.099 396.29 364.954 395.914 364.663C395.538 364.369 395.25 363.944 395.051 363.388C394.852 362.829 394.753 362.154 394.753 361.364C394.753 360.578 394.852 359.906 395.051 359.35C395.252 358.791 395.541 358.365 395.918 358.072C396.296 357.776 396.751 357.628 397.281 357.628C397.812 357.628 398.265 357.776 398.641 358.072C399.02 358.365 399.309 358.791 399.508 359.35C399.709 359.906 399.81 360.578 399.81 361.364C399.81 362.154 399.71 362.829 399.511 363.388C399.312 363.944 399.025 364.369 398.648 364.663C398.272 364.954 397.816 365.099 397.281 365.099ZM397.281 364.318C397.812 364.318 398.223 364.062 398.517 363.551C398.811 363.04 398.957 362.311 398.957 361.364C398.957 360.734 398.89 360.198 398.755 359.755C398.622 359.312 398.431 358.975 398.18 358.743C397.931 358.511 397.632 358.395 397.281 358.395C396.756 358.395 396.345 358.654 396.049 359.173C395.753 359.689 395.605 360.419 395.605 361.364C395.605 361.993 395.671 362.528 395.804 362.969C395.937 363.409 396.127 363.744 396.376 363.974C396.627 364.203 396.929 364.318 397.281 364.318ZM359.881 369.727H360.932L363.403 375.764H363.489L365.96 369.727H367.011V377H366.188V371.474H366.116L363.844 377H363.048L360.776 371.474H360.705V377H359.881V369.727ZM370.269 377.128C369.923 377.128 369.609 377.063 369.328 376.933C369.046 376.8 368.822 376.609 368.656 376.361C368.491 376.11 368.408 375.807 368.408 375.452C368.408 375.139 368.469 374.886 368.593 374.692C368.716 374.495 368.88 374.341 369.086 374.23C369.292 374.119 369.519 374.036 369.768 373.982C370.019 373.925 370.271 373.88 370.524 373.847C370.856 373.804 371.124 373.772 371.33 373.751C371.539 373.727 371.69 373.688 371.785 373.634C371.882 373.579 371.931 373.484 371.931 373.349V373.321C371.931 372.971 371.835 372.698 371.643 372.504C371.454 372.31 371.166 372.213 370.78 372.213C370.38 372.213 370.066 372.301 369.839 372.476C369.612 372.651 369.452 372.838 369.36 373.037L368.564 372.753C368.706 372.421 368.896 372.163 369.132 371.979C369.371 371.792 369.632 371.661 369.914 371.588C370.198 371.512 370.477 371.474 370.752 371.474C370.927 371.474 371.128 371.496 371.355 371.538C371.585 371.579 371.806 371.663 372.019 371.79C372.235 371.918 372.414 372.111 372.556 372.369C372.698 372.627 372.769 372.973 372.769 373.406V377H371.931V376.261H371.888C371.831 376.38 371.736 376.506 371.604 376.641C371.471 376.776 371.295 376.891 371.075 376.986C370.855 377.08 370.586 377.128 370.269 377.128ZM370.396 376.375C370.728 376.375 371.007 376.31 371.235 376.18C371.464 376.049 371.637 375.881 371.753 375.675C371.871 375.469 371.931 375.253 371.931 375.026V374.259C371.895 374.301 371.817 374.34 371.696 374.376C371.578 374.409 371.441 374.438 371.284 374.464C371.13 374.488 370.98 374.509 370.833 374.528C370.689 374.545 370.572 374.559 370.482 374.571C370.264 374.599 370.06 374.646 369.871 374.71C369.684 374.771 369.532 374.865 369.416 374.99C369.303 375.113 369.246 375.281 369.246 375.494C369.246 375.786 369.354 376.006 369.569 376.155C369.787 376.302 370.063 376.375 370.396 376.375ZM374.643 379.045C374.501 379.045 374.374 379.034 374.263 379.01C374.152 378.989 374.075 378.967 374.032 378.946L374.245 378.207C374.449 378.259 374.629 378.278 374.785 378.264C374.941 378.25 375.08 378.18 375.2 378.055C375.323 377.932 375.436 377.732 375.538 377.455L375.694 377.028L373.677 371.545H374.586L376.092 375.892H376.148L377.654 371.545H378.563L376.248 377.795C376.144 378.077 376.015 378.31 375.861 378.495C375.707 378.682 375.528 378.821 375.325 378.911C375.123 379 374.896 379.045 374.643 379.045ZM385.025 369.727V377H384.144V370.651H384.101L382.326 371.83V370.935L384.144 369.727H385.025ZM389.389 377.099C388.972 377.099 388.597 377.017 388.263 376.851C387.929 376.685 387.662 376.458 387.461 376.169C387.259 375.88 387.149 375.551 387.13 375.182H387.983C388.016 375.511 388.165 375.783 388.43 375.999C388.698 376.212 389.017 376.318 389.389 376.318C389.687 376.318 389.952 376.248 390.184 376.109C390.419 375.969 390.602 375.777 390.735 375.533C390.87 375.287 390.937 375.009 390.937 374.699C390.937 374.382 390.867 374.099 390.728 373.85C390.59 373.599 390.401 373.402 390.159 373.257C389.918 373.113 389.642 373.039 389.332 373.037C389.109 373.035 388.881 373.069 388.647 373.14C388.412 373.209 388.219 373.297 388.068 373.406L387.244 373.307L387.684 369.727H391.463V370.509H388.423L388.167 372.653H388.21C388.359 372.535 388.546 372.437 388.771 372.359C388.996 372.281 389.23 372.241 389.474 372.241C389.919 372.241 390.316 372.348 390.664 372.561C391.014 372.772 391.289 373.061 391.488 373.428C391.689 373.795 391.789 374.214 391.789 374.685C391.789 375.149 391.685 375.563 391.477 375.928C391.271 376.29 390.987 376.576 390.625 376.787C390.262 376.995 389.85 377.099 389.389 377.099ZM394.191 376.006L394.134 376.389C394.094 376.659 394.032 376.948 393.949 377.256C393.869 377.563 393.785 377.853 393.697 378.126C393.61 378.398 393.537 378.615 393.481 378.776H392.841C392.872 378.624 392.912 378.424 392.962 378.175C393.012 377.927 393.062 377.649 393.111 377.341C393.163 377.036 393.206 376.723 393.239 376.403L393.282 376.006H394.191ZM398.542 377V376.361L400.942 373.733C401.224 373.425 401.456 373.158 401.638 372.93C401.821 372.701 401.956 372.485 402.043 372.284C402.133 372.08 402.178 371.867 402.178 371.645C402.178 371.389 402.117 371.168 401.994 370.981C401.873 370.794 401.707 370.649 401.496 370.548C401.286 370.446 401.049 370.395 400.786 370.395C400.507 370.395 400.263 370.453 400.055 370.569C399.849 370.683 399.689 370.842 399.575 371.048C399.464 371.254 399.408 371.496 399.408 371.773H398.57C398.57 371.347 398.669 370.973 398.865 370.651C399.062 370.329 399.329 370.078 399.668 369.898C400.009 369.718 400.391 369.628 400.815 369.628C401.241 369.628 401.618 369.718 401.947 369.898C402.277 370.078 402.535 370.32 402.722 370.626C402.909 370.931 403.002 371.271 403.002 371.645C403.002 371.912 402.954 372.174 402.857 372.43C402.762 372.683 402.596 372.966 402.359 373.278C402.125 373.589 401.799 373.967 401.383 374.415L399.749 376.162V376.219H403.13V377H398.542ZM406.969 377.099C406.434 377.099 405.978 376.954 405.602 376.663C405.225 376.369 404.938 375.944 404.739 375.388C404.54 374.829 404.44 374.154 404.44 373.364C404.44 372.578 404.54 371.906 404.739 371.35C404.94 370.791 405.229 370.365 405.605 370.072C405.984 369.776 406.438 369.628 406.969 369.628C407.499 369.628 407.952 369.776 408.329 370.072C408.708 370.365 408.996 370.791 409.195 371.35C409.397 371.906 409.497 372.578 409.497 373.364C409.497 374.154 409.398 374.829 409.199 375.388C409 375.944 408.712 376.369 408.336 376.663C407.96 376.954 407.504 377.099 406.969 377.099ZM406.969 376.318C407.499 376.318 407.911 376.062 408.205 375.551C408.498 375.04 408.645 374.311 408.645 373.364C408.645 372.734 408.577 372.198 408.442 371.755C408.31 371.312 408.118 370.975 407.867 370.743C407.619 370.511 407.319 370.395 406.969 370.395C406.443 370.395 406.032 370.654 405.737 371.173C405.441 371.689 405.293 372.419 405.293 373.364C405.293 373.993 405.359 374.528 405.491 374.969C405.624 375.409 405.815 375.744 406.063 375.974C406.314 376.203 406.616 376.318 406.969 376.318ZM410.847 377V376.361L413.247 373.733C413.529 373.425 413.761 373.158 413.943 372.93C414.125 372.701 414.26 372.485 414.348 372.284C414.438 372.08 414.483 371.867 414.483 371.645C414.483 371.389 414.421 371.168 414.298 370.981C414.178 370.794 414.012 370.649 413.801 370.548C413.59 370.446 413.354 370.395 413.091 370.395C412.812 370.395 412.568 370.453 412.359 370.569C412.153 370.683 411.994 370.842 411.88 371.048C411.769 371.254 411.713 371.496 411.713 371.773H410.875C410.875 371.347 410.973 370.973 411.17 370.651C411.366 370.329 411.634 370.078 411.972 369.898C412.313 369.718 412.696 369.628 413.119 369.628C413.545 369.628 413.923 369.718 414.252 369.898C414.581 370.078 414.839 370.32 415.026 370.626C415.213 370.931 415.307 371.271 415.307 371.645C415.307 371.912 415.258 372.174 415.161 372.43C415.067 372.683 414.901 372.966 414.664 373.278C414.43 373.589 414.104 373.967 413.688 374.415L412.054 376.162V376.219H415.435V377H410.847ZM419.359 377.099C418.89 377.099 418.472 377.019 418.105 376.858C417.741 376.697 417.451 376.473 417.235 376.187C417.022 375.898 416.906 375.563 416.887 375.182H417.782C417.801 375.416 417.881 375.619 418.023 375.789C418.165 375.957 418.351 376.087 418.581 376.18C418.811 376.272 419.065 376.318 419.344 376.318C419.657 376.318 419.934 376.264 420.175 376.155C420.417 376.046 420.606 375.894 420.744 375.7C420.881 375.506 420.95 375.281 420.95 375.026C420.95 374.758 420.883 374.522 420.751 374.319C420.618 374.113 420.424 373.952 420.168 373.836C419.913 373.72 419.6 373.662 419.231 373.662H418.648V372.881H419.231C419.52 372.881 419.773 372.829 419.991 372.724C420.211 372.62 420.383 372.473 420.506 372.284C420.631 372.095 420.694 371.872 420.694 371.616C420.694 371.37 420.639 371.156 420.531 370.974C420.422 370.791 420.268 370.649 420.069 370.548C419.872 370.446 419.64 370.395 419.373 370.395C419.122 370.395 418.885 370.441 418.663 370.533C418.442 370.623 418.263 370.755 418.123 370.928C417.983 371.098 417.907 371.304 417.896 371.545H417.043C417.058 371.164 417.172 370.83 417.388 370.544C417.603 370.255 417.885 370.03 418.233 369.869C418.583 369.708 418.968 369.628 419.387 369.628C419.837 369.628 420.223 369.719 420.545 369.901C420.867 370.081 421.114 370.319 421.287 370.615C421.46 370.911 421.546 371.231 421.546 371.574C421.546 371.983 421.438 372.333 421.223 372.621C421.01 372.91 420.72 373.11 420.353 373.222V373.278C420.812 373.354 421.171 373.549 421.429 373.864C421.687 374.177 421.816 374.564 421.816 375.026C421.816 375.421 421.708 375.776 421.493 376.091C421.28 376.403 420.989 376.65 420.619 376.83C420.25 377.009 419.83 377.099 419.359 377.099Z" fill="#69707D"/>
<path d="M392.333 158V347" stroke="#E9EDF3"/>
<path d="M425.667 158V347" stroke="#E9EDF3"/>
<path d="M428.976 357.727V365H428.096V358.651H428.053L426.277 359.83V358.935L428.096 357.727H428.976ZM433.625 357.727V365H432.744V358.651H432.701L430.926 359.83V358.935L432.744 357.727H433.625ZM436.341 364.07C436.166 364.07 436.016 364.007 435.89 363.881C435.765 363.756 435.702 363.606 435.702 363.43C435.702 363.255 435.765 363.105 435.89 362.979C436.016 362.854 436.166 362.791 436.341 362.791C436.517 362.791 436.667 362.854 436.792 362.979C436.918 363.105 436.981 363.255 436.981 363.43C436.981 363.546 436.951 363.653 436.892 363.75C436.835 363.847 436.758 363.925 436.661 363.984C436.566 364.041 436.46 364.07 436.341 364.07ZM436.341 360.391C436.166 360.391 436.016 360.328 435.89 360.202C435.765 360.077 435.702 359.927 435.702 359.751C435.702 359.576 435.765 359.426 435.89 359.3C436.016 359.175 436.166 359.112 436.341 359.112C436.517 359.112 436.667 359.175 436.792 359.3C436.918 359.426 436.981 359.576 436.981 359.751C436.981 359.867 436.951 359.974 436.892 360.071C436.835 360.168 436.758 360.246 436.661 360.305C436.566 360.362 436.46 360.391 436.341 360.391ZM440.842 365.099C440.307 365.099 439.852 364.954 439.475 364.663C439.099 364.369 438.811 363.944 438.612 363.388C438.413 362.829 438.314 362.154 438.314 361.364C438.314 360.578 438.413 359.906 438.612 359.35C438.814 358.791 439.102 358.365 439.479 358.072C439.858 357.776 440.312 357.628 440.842 357.628C441.373 357.628 441.826 357.776 442.203 358.072C442.581 358.365 442.87 358.791 443.069 359.35C443.27 359.906 443.371 360.578 443.371 361.364C443.371 362.154 443.271 362.829 443.073 363.388C442.874 363.944 442.586 364.369 442.21 364.663C441.833 364.954 441.378 365.099 440.842 365.099ZM440.842 364.318C441.373 364.318 441.785 364.062 442.078 363.551C442.372 363.04 442.519 362.311 442.519 361.364C442.519 360.734 442.451 360.198 442.316 359.755C442.184 359.312 441.992 358.975 441.741 358.743C441.492 358.511 441.193 358.395 440.842 358.395C440.317 358.395 439.906 358.654 439.61 359.173C439.314 359.689 439.166 360.419 439.166 361.364C439.166 361.993 439.233 362.528 439.365 362.969C439.498 363.409 439.688 363.744 439.937 363.974C440.188 364.203 440.49 364.318 440.842 364.318ZM447.092 365.099C446.557 365.099 446.102 364.954 445.725 364.663C445.349 364.369 445.061 363.944 444.862 363.388C444.663 362.829 444.564 362.154 444.564 361.364C444.564 360.578 444.663 359.906 444.862 359.35C445.064 358.791 445.352 358.365 445.729 358.072C446.108 357.776 446.562 357.628 447.092 357.628C447.623 357.628 448.076 357.776 448.453 358.072C448.831 358.365 449.12 358.791 449.319 359.35C449.52 359.906 449.621 360.578 449.621 361.364C449.621 362.154 449.521 362.829 449.323 363.388C449.124 363.944 448.836 364.369 448.46 364.663C448.083 364.954 447.628 365.099 447.092 365.099ZM447.092 364.318C447.623 364.318 448.035 364.062 448.328 363.551C448.622 363.04 448.769 362.311 448.769 361.364C448.769 360.734 448.701 360.198 448.566 359.755C448.434 359.312 448.242 358.975 447.991 358.743C447.742 358.511 447.443 358.395 447.092 358.395C446.567 358.395 446.156 358.654 445.86 359.173C445.564 359.689 445.416 360.419 445.416 361.364C445.416 361.993 445.483 362.528 445.615 362.969C445.748 363.409 445.938 363.744 446.187 363.974C446.438 364.203 446.74 364.318 447.092 364.318ZM451.595 364.07C451.42 364.07 451.27 364.007 451.144 363.881C451.019 363.756 450.956 363.606 450.956 363.43C450.956 363.255 451.019 363.105 451.144 362.979C451.27 362.854 451.42 362.791 451.595 362.791C451.77 362.791 451.921 362.854 452.046 362.979C452.172 363.105 452.235 363.255 452.235 363.43C452.235 363.546 452.205 363.653 452.146 363.75C452.089 363.847 452.012 363.925 451.915 363.984C451.82 364.041 451.714 364.07 451.595 364.07ZM451.595 360.391C451.42 360.391 451.27 360.328 451.144 360.202C451.019 360.077 450.956 359.927 450.956 359.751C450.956 359.576 451.019 359.426 451.144 359.3C451.27 359.175 451.42 359.112 451.595 359.112C451.77 359.112 451.921 359.175 452.046 359.3C452.172 359.426 452.235 359.576 452.235 359.751C452.235 359.867 452.205 359.974 452.146 360.071C452.089 360.168 452.012 360.246 451.915 360.305C451.82 360.362 451.714 360.391 451.595 360.391ZM456.096 365.099C455.561 365.099 455.106 364.954 454.729 364.663C454.353 364.369 454.065 363.944 453.866 363.388C453.667 362.829 453.568 362.154 453.568 361.364C453.568 360.578 453.667 359.906 453.866 359.35C454.067 358.791 454.356 358.365 454.733 358.072C455.112 357.776 455.566 357.628 456.096 357.628C456.627 357.628 457.08 357.776 457.456 358.072C457.835 358.365 458.124 358.791 458.323 359.35C458.524 359.906 458.625 360.578 458.625 361.364C458.625 362.154 458.525 362.829 458.326 363.388C458.128 363.944 457.84 364.369 457.464 364.663C457.087 364.954 456.631 365.099 456.096 365.099ZM456.096 364.318C456.627 364.318 457.039 364.062 457.332 363.551C457.626 363.04 457.773 362.311 457.773 361.364C457.773 360.734 457.705 360.198 457.57 359.755C457.438 359.312 457.246 358.975 456.995 358.743C456.746 358.511 456.447 358.395 456.096 358.395C455.571 358.395 455.16 358.654 454.864 359.173C454.568 359.689 454.42 360.419 454.42 361.364C454.42 361.993 454.487 362.528 454.619 362.969C454.752 363.409 454.942 363.744 455.191 363.974C455.442 364.203 455.744 364.318 456.096 364.318ZM462.346 365.099C461.811 365.099 461.356 364.954 460.979 364.663C460.603 364.369 460.315 363.944 460.116 363.388C459.917 362.829 459.818 362.154 459.818 361.364C459.818 360.578 459.917 359.906 460.116 359.35C460.317 358.791 460.606 358.365 460.983 358.072C461.362 357.776 461.816 357.628 462.346 357.628C462.877 357.628 463.33 357.776 463.706 358.072C464.085 358.365 464.374 358.791 464.573 359.35C464.774 359.906 464.875 360.578 464.875 361.364C464.875 362.154 464.775 362.829 464.576 363.388C464.378 363.944 464.09 364.369 463.714 364.663C463.337 364.954 462.881 365.099 462.346 365.099ZM462.346 364.318C462.877 364.318 463.289 364.062 463.582 363.551C463.876 363.04 464.023 362.311 464.023 361.364C464.023 360.734 463.955 360.198 463.82 359.755C463.688 359.312 463.496 358.975 463.245 358.743C462.996 358.511 462.697 358.395 462.346 358.395C461.821 358.395 461.41 358.654 461.114 359.173C460.818 359.689 460.67 360.419 460.67 361.364C460.67 361.993 460.737 362.528 460.869 362.969C461.002 363.409 461.192 363.744 461.441 363.974C461.692 364.203 461.994 364.318 462.346 364.318Z" fill="#69707D"/>
<path d="M359 216.508C360.754 216.508 362.509 262.396 364.263 262.396C366.018 262.396 367.772 218.548 369.526 218.548C371.281 218.548 373.035 247.1 374.789 247.1C376.544 247.1 378.298 222.627 380.053 222.627C381.807 222.627 383.561 255.258 385.316 255.258C387.07 255.258 388.825 213.449 390.579 213.449C392.333 213.449 394.088 216.508 395.842 216.508C397.596 216.508 399.351 228.745 401.105 228.745C402.86 228.745 404.614 236.903 406.368 236.903C408.123 236.903 409.877 262.396 411.632 262.396C413.386 262.396 415.14 288.909 416.895 288.909C418.649 288.909 420.404 246.08 422.158 246.08C423.912 246.08 425.667 276.672 427.421 276.672C429.175 276.672 430.93 250.159 432.684 250.159C434.439 250.159 436.193 267.495 437.947 267.495C439.702 267.495 441.456 233.844 443.211 233.844C444.965 233.844 446.719 232.824 448.474 232.824C450.228 232.824 451.982 220.587 453.737 220.587C455.491 220.587 457.246 212.429 459 212.429" stroke="#DEEAFF" stroke-width="2" stroke-linecap="round" stroke-linejoin="round"/>
<path d="M359 212.429C360.754 212.429 362.509 287.994 364.263 287.994C366.018 287.994 367.772 226.725 369.526 226.725C371.281 226.725 373.035 264.507 374.789 264.507C376.544 264.507 378.298 238.979 380.053 238.979C381.807 238.979 383.561 277.782 385.316 277.782C387.07 277.782 388.825 272.676 390.579 272.676C392.333 272.676 394.088 265.528 395.842 265.528C397.596 265.528 399.351 226.725 401.105 226.725C402.86 226.725 404.614 218.556 406.368 218.556C408.123 218.556 409.877 282.888 411.632 282.888C413.386 282.888 415.14 287.994 416.895 287.994C418.649 287.994 420.404 257.359 422.158 257.359C423.912 257.359 425.667 247.148 427.421 247.148C429.175 247.148 430.93 281.867 432.684 281.867C434.439 281.867 436.193 217.535 437.947 217.535C439.702 217.535 441.456 227.746 443.211 227.746C444.965 227.746 446.719 223.662 448.474 223.662C450.228 223.662 451.982 256.338 453.737 256.338C455.491 256.338 457.246 261.444 459 261.444" stroke="#DEEAFF" stroke-width="2" stroke-linecap="round" stroke-linejoin="round"/>
<path d="M359 249.495C360.754 249.495 362.509 239.477 364.263 239.477C366.018 239.477 367.772 219.442 369.526 219.442C371.281 219.442 373.035 276.542 374.789 276.542C376.544 276.542 378.298 290.567 380.053 290.567C381.807 290.567 383.561 266.525 385.316 266.525C387.07 266.525 388.825 254.504 390.579 254.504C392.333 254.504 394.088 292.571 395.842 292.571C397.596 292.571 399.351 214.433 401.105 214.433C402.86 214.433 404.614 235.47 406.368 235.47C408.123 235.47 409.877 212.429 411.632 212.429C413.386 212.429 415.14 223.449 416.895 223.449C418.649 223.449 420.404 243.484 422.158 243.484C423.912 243.484 425.667 288.564 427.421 288.564C429.175 288.564 430.93 267.526 432.684 267.526C434.439 267.526 436.193 241.481 437.947 241.481C439.702 241.481 441.456 244.486 443.211 244.486C444.965 244.486 446.719 283.555 448.474 283.555C450.228 283.555 451.982 275.541 453.737 275.541C455.491 275.541 457.246 274.539 459 274.539" stroke="#DEEAFF" stroke-width="2" stroke-linecap="round" stroke-linejoin="round"/>
<path d="M359 250.281C360.754 250.281 362.509 246.701 364.263 246.701C366.018 246.701 367.772 239.542 369.526 239.542C371.281 239.542 373.035 259.945 374.789 259.945C376.544 259.945 378.298 264.957 380.053 264.957C381.807 264.957 383.561 256.366 385.316 256.366C387.07 256.366 388.825 252.07 390.579 252.07C392.333 252.07 394.088 265.673 395.842 265.673C397.596 265.673 399.351 237.752 401.105 237.752C402.86 237.752 404.614 245.269 406.368 245.269C408.123 245.269 409.877 237.036 411.632 237.036C413.386 237.036 415.14 240.974 416.895 240.974C418.649 240.974 420.404 248.133 422.158 248.133C423.912 248.133 425.667 264.241 427.421 264.241C429.175 264.241 430.93 256.724 432.684 256.724C434.439 256.724 436.193 247.417 437.947 247.417C439.702 247.417 441.456 248.491 443.211 248.491C444.965 248.491 446.719 262.451 448.474 262.451C450.228 262.451 451.982 259.588 453.737 259.588C455.491 259.588 457.246 259.23 459 259.23" stroke="#0452A1" stroke-width="2" stroke-linecap="round" stroke-linejoin="round"/>
<rect x="359" y="158" width="100" height="189" stroke="#E9EDF3"/>
<defs>
<filter id="filter0_i_1732_45544" x="40" y="40" width="720" height="420" filterUnits="userSpaceOnUse" color-interpolation-filters="sRGB">
<feFlood flood-opacity="0" result="BackgroundImageFix"/>
<feBlend mode="normal" in="SourceGraphic" in2="BackgroundImageFix" result="shape"/>
<feColorMatrix in="SourceAlpha" type="matrix" values="0 0 0 0 0 0 0 0 0 0 0 0 0 0 0 0 0 0 127 0" result="hardAlpha"/>
<feOffset dy="4"/>
<feComposite in2="hardAlpha" operator="arithmetic" k2="-1" k3="1"/>
<feColorMatrix type="matrix" values="0 0 0 0 0.741176 0 0 0 0 0.152941 0 0 0 0 0.117647 0 0 0 1 0"/>
<feBlend mode="normal" in2="shape" result="effect1_innerShadow_1732_45544"/>
</filter>
<filter id="filter1_i_1732_45544" x="800" y="40" width="720" height="420" filterUnits="userSpaceOnUse" color-interpolation-filters="sRGB">
<feFlood flood-opacity="0" result="BackgroundImageFix"/>
<feBlend mode="normal" in="SourceGraphic" in2="BackgroundImageFix" result="shape"/>
<feColorMatrix in="SourceAlpha" type="matrix" values="0 0 0 0 0 0 0 0 0 0 0 0 0 0 0 0 0 0 127 0" result="hardAlpha"/>
<feOffset dy="4"/>
<feComposite in2="hardAlpha" operator="arithmetic" k2="-1" k3="1"/>
<feColorMatrix type="matrix" values="0 0 0 0 0 0 0 0 0 0.74902 0 0 0 0 0.701961 0 0 0 1 0"/>
<feBlend mode="normal" in2="shape" result="effect1_innerShadow_1732_45544"/>
</filter>
<filter id="filter2_dd_1732_45544" x="838" y="134" width="604" height="274.3" filterUnits="userSpaceOnUse" color-interpolation-filters="sRGB">
<feFlood flood-opacity="0" result="BackgroundImageFix"/>
<feColorMatrix in="SourceAlpha" type="matrix" values="0 0 0 0 0 0 0 0 0 0 0 0 0 0 0 0 0 0 127 0" result="hardAlpha"/>
<feOffset dy="2.3"/>
<feGaussianBlur stdDeviation="1"/>
<feColorMatrix type="matrix" values="0 0 0 0 0 0 0 0 0 0 0 0 0 0 0 0 0 0 0.03 0"/>
<feBlend mode="normal" in2="BackgroundImageFix" result="effect1_dropShadow_1732_45544"/>
<feColorMatrix in="SourceAlpha" type="matrix" values="0 0 0 0 0 0 0 0 0 0 0 0 0 0 0 0 0 0 127 0" result="hardAlpha"/>
<feOffset dy="0.8"/>
<feGaussianBlur stdDeviation="0.4"/>
<feColorMatrix type="matrix" values="0 0 0 0 0 0 0 0 0 0 0 0 0 0 0 0 0 0 0.04 0"/>
<feBlend mode="normal" in2="effect1_dropShadow_1732_45544" result="effect2_dropShadow_1732_45544"/>
<feBlend mode="normal" in="SourceGraphic" in2="effect2_dropShadow_1732_45544" result="shape"/>
</filter>
<filter id="filter3_dd_1732_45544" x="294" y="134" width="212" height="274.3" filterUnits="userSpaceOnUse" color-interpolation-filters="sRGB">
<feFlood flood-opacity="0" result="BackgroundImageFix"/>
<feColorMatrix in="SourceAlpha" type="matrix" values="0 0 0 0 0 0 0 0 0 0 0 0 0 0 0 0 0 0 127 0" result="hardAlpha"/>
<feOffset dy="2.3"/>
<feGaussianBlur stdDeviation="1"/>
<feColorMatrix type="matrix" values="0 0 0 0 0 0 0 0 0 0 0 0 0 0 0 0 0 0 0.03 0"/>
<feBlend mode="normal" in2="BackgroundImageFix" result="effect1_dropShadow_1732_45544"/>
<feColorMatrix in="SourceAlpha" type="matrix" values="0 0 0 0 0 0 0 0 0 0 0 0 0 0 0 0 0 0 127 0" result="hardAlpha"/>
<feOffset dy="0.8"/>
<feGaussianBlur stdDeviation="0.4"/>
<feColorMatrix type="matrix" values="0 0 0 0 0 0 0 0 0 0 0 0 0 0 0 0 0 0 0.04 0"/>
<feBlend mode="normal" in2="effect1_dropShadow_1732_45544" result="effect2_dropShadow_1732_45544"/>
<feBlend mode="normal" in="SourceGraphic" in2="effect2_dropShadow_1732_45544" result="shape"/>
</filter>
<clipPath id="clip0_1732_45544">
<rect width="24" height="24" fill="white" transform="translate(80 80)"/>
</clipPath>
<clipPath id="clip1_1732_45544">
<rect width="24" height="24" fill="white" transform="translate(840 80)"/>
</clipPath>
</defs>
</svg>
