<svg width="1034" height="450" viewBox="0 0 1034 450" fill="none" xmlns="http://www.w3.org/2000/svg">
<g filter="url(#filter0_dd_1713_24245)">
<rect x="327" y="65" width="600" height="320" rx="6" fill="white"/>
</g>
<g filter="url(#filter1_dd_1713_24245)">
<g clip-path="url(#clip0_1713_24245)">
<rect x="107" y="65" width="200" height="150" fill="white"/>
<rect width="200" height="150" transform="translate(107 65)" fill="#B2C8EE"/>
<path d="M118.472 79.3636V91H116.011V79.3636H118.472ZM122.871 85.9545V91H120.45V82.2727H122.757V83.8125H122.859C123.053 83.3049 123.376 82.9034 123.831 82.608C124.286 82.3087 124.837 82.1591 125.484 82.1591C126.09 82.1591 126.619 82.2917 127.07 82.5568C127.52 82.822 127.871 83.2008 128.121 83.6932C128.371 84.1818 128.496 84.7652 128.496 85.4432V91H126.075V85.875C126.079 85.3409 125.943 84.9242 125.666 84.625C125.39 84.322 125.009 84.1705 124.524 84.1705C124.198 84.1705 123.911 84.2405 123.661 84.3807C123.414 84.5208 123.221 84.7254 123.081 84.9943C122.945 85.2595 122.875 85.5795 122.871 85.9545ZM130.449 91V79.3636H132.869V83.7386H132.943C133.049 83.5038 133.203 83.2652 133.403 83.0227C133.608 82.7765 133.873 82.572 134.199 82.4091C134.528 82.2424 134.938 82.1591 135.426 82.1591C136.063 82.1591 136.65 82.3258 137.188 82.6591C137.725 82.9886 138.155 83.4867 138.477 84.1534C138.799 84.8163 138.96 85.6477 138.96 86.6477C138.96 87.6212 138.803 88.4432 138.489 89.1136C138.178 89.7803 137.754 90.286 137.216 90.6307C136.682 90.9716 136.083 91.142 135.42 91.142C134.951 91.142 134.551 91.0644 134.222 90.9091C133.896 90.7538 133.629 90.5587 133.42 90.3239C133.212 90.0852 133.053 89.8447 132.943 89.6023H132.835V91H130.449ZM132.818 86.6364C132.818 87.1553 132.89 87.608 133.034 87.9943C133.178 88.3807 133.386 88.6818 133.659 88.8977C133.932 89.1098 134.263 89.2159 134.653 89.2159C135.047 89.2159 135.381 89.108 135.653 88.892C135.926 88.6723 136.133 88.3693 136.273 87.983C136.417 87.5928 136.489 87.1439 136.489 86.6364C136.489 86.1326 136.419 85.6894 136.278 85.3068C136.138 84.9242 135.932 84.625 135.659 84.4091C135.386 84.1932 135.051 84.0852 134.653 84.0852C134.259 84.0852 133.926 84.1894 133.653 84.3977C133.384 84.6061 133.178 84.9015 133.034 85.2841C132.89 85.6667 132.818 86.1174 132.818 86.6364ZM144.518 91.1705C143.636 91.1705 142.873 90.983 142.229 90.608C141.589 90.2292 141.094 89.7027 140.746 89.0284C140.397 88.3504 140.223 87.5644 140.223 86.6705C140.223 85.7689 140.397 84.9811 140.746 84.3068C141.094 83.6288 141.589 83.1023 142.229 82.7273C142.873 82.3485 143.636 82.1591 144.518 82.1591C145.401 82.1591 146.162 82.3485 146.803 82.7273C147.446 83.1023 147.943 83.6288 148.291 84.3068C148.64 84.9811 148.814 85.7689 148.814 86.6705C148.814 87.5644 148.64 88.3504 148.291 89.0284C147.943 89.7027 147.446 90.2292 146.803 90.608C146.162 90.983 145.401 91.1705 144.518 91.1705ZM144.53 89.2955C144.931 89.2955 145.267 89.1818 145.536 88.9545C145.804 88.7235 146.007 88.4091 146.143 88.0114C146.284 87.6136 146.354 87.161 146.354 86.6534C146.354 86.1458 146.284 85.6932 146.143 85.2955C146.007 84.8977 145.804 84.5833 145.536 84.3523C145.267 84.1212 144.931 84.0057 144.53 84.0057C144.125 84.0057 143.784 84.1212 143.507 84.3523C143.234 84.5833 143.028 84.8977 142.888 85.2955C142.751 85.6932 142.683 86.1458 142.683 86.6534C142.683 87.161 142.751 87.6136 142.888 88.0114C143.028 88.4091 143.234 88.7235 143.507 88.9545C143.784 89.1818 144.125 89.2955 144.53 89.2955ZM155.984 87.2841V82.2727H158.405V91H156.081V89.4148H155.99C155.793 89.9261 155.465 90.3371 155.007 90.6477C154.553 90.9583 153.998 91.1136 153.342 91.1136C152.759 91.1136 152.246 90.9811 151.803 90.7159C151.359 90.4508 151.013 90.0739 150.763 89.5852C150.517 89.0966 150.392 88.5114 150.388 87.8295V82.2727H152.808V87.3977C152.812 87.9129 152.95 88.3201 153.223 88.6193C153.496 88.9186 153.861 89.0682 154.32 89.0682C154.611 89.0682 154.884 89.0019 155.138 88.8693C155.392 88.733 155.596 88.5322 155.751 88.267C155.911 88.0019 155.988 87.6742 155.984 87.2841ZM162.761 85.9545V91H160.341V82.2727H162.648V83.8125H162.75C162.943 83.3049 163.267 82.9034 163.722 82.608C164.176 82.3087 164.727 82.1591 165.375 82.1591C165.981 82.1591 166.509 82.2917 166.96 82.5568C167.411 82.822 167.761 83.2008 168.011 83.6932C168.261 84.1818 168.386 84.7652 168.386 85.4432V91H165.966V85.875C165.97 85.3409 165.833 84.9242 165.557 84.625C165.28 84.322 164.9 84.1705 164.415 84.1705C164.089 84.1705 163.801 84.2405 163.551 84.3807C163.305 84.5208 163.112 84.7254 162.972 84.9943C162.835 85.2595 162.765 85.5795 162.761 85.9545ZM173.51 91.142C172.847 91.142 172.247 90.9716 171.709 90.6307C171.175 90.286 170.75 89.7803 170.436 89.1136C170.125 88.4432 169.97 87.6212 169.97 86.6477C169.97 85.6477 170.131 84.8163 170.453 84.1534C170.775 83.4867 171.203 82.9886 171.737 82.6591C172.275 82.3258 172.864 82.1591 173.504 82.1591C173.993 82.1591 174.4 82.2424 174.726 82.4091C175.055 82.572 175.321 82.7765 175.521 83.0227C175.726 83.2652 175.881 83.5038 175.987 83.7386H176.061V79.3636H178.476V91H176.089V89.6023H175.987C175.874 89.8447 175.713 90.0852 175.504 90.3239C175.3 90.5587 175.033 90.7538 174.703 90.9091C174.377 91.0644 173.98 91.142 173.51 91.142ZM174.277 89.2159C174.667 89.2159 174.997 89.1098 175.266 88.8977C175.538 88.6818 175.747 88.3807 175.891 87.9943C176.038 87.608 176.112 87.1553 176.112 86.6364C176.112 86.1174 176.04 85.6667 175.896 85.2841C175.752 84.9015 175.544 84.6061 175.271 84.3977C174.999 84.1894 174.667 84.0852 174.277 84.0852C173.879 84.0852 173.544 84.1932 173.271 84.4091C172.999 84.625 172.792 84.9242 172.652 85.3068C172.512 85.6894 172.442 86.1326 172.442 86.6364C172.442 87.1439 172.512 87.5928 172.652 87.983C172.796 88.3693 173.002 88.6723 173.271 88.892C173.544 89.108 173.879 89.2159 174.277 89.2159ZM188.811 82.2727V84.0909H183.555V82.2727H188.811ZM184.749 80.1818H187.169V88.3182C187.169 88.5417 187.203 88.7159 187.271 88.8409C187.339 88.9621 187.434 89.0473 187.555 89.0966C187.68 89.1458 187.824 89.1705 187.987 89.1705C188.101 89.1705 188.214 89.161 188.328 89.142C188.442 89.1193 188.529 89.1023 188.589 89.0909L188.97 90.892C188.849 90.9299 188.679 90.9735 188.459 91.0227C188.239 91.0758 187.972 91.108 187.658 91.1193C187.074 91.142 186.563 91.0644 186.124 90.8864C185.688 90.7083 185.349 90.4318 185.107 90.0568C184.864 89.6818 184.745 89.2083 184.749 88.6364V80.1818ZM190.388 91V82.2727H192.734V83.7955H192.825C192.984 83.2538 193.251 82.8447 193.626 82.5682C194.001 82.2879 194.433 82.1477 194.922 82.1477C195.043 82.1477 195.174 82.1553 195.314 82.1705C195.454 82.1856 195.577 82.2064 195.683 82.233V84.3807C195.57 84.3466 195.412 84.3163 195.212 84.2898C195.011 84.2633 194.827 84.25 194.661 84.25C194.304 84.25 193.986 84.3277 193.706 84.483C193.429 84.6345 193.21 84.8466 193.047 85.1193C192.888 85.392 192.808 85.7064 192.808 86.0625V91H190.388ZM199.173 91.1648C198.616 91.1648 198.12 91.0682 197.685 90.875C197.249 90.678 196.904 90.3883 196.651 90.0057C196.401 89.6193 196.276 89.1383 196.276 88.5625C196.276 88.0777 196.365 87.6705 196.543 87.3409C196.721 87.0114 196.963 86.7462 197.27 86.5455C197.577 86.3447 197.925 86.1932 198.315 86.0909C198.709 85.9886 199.122 85.9167 199.554 85.875C200.062 85.822 200.471 85.7727 200.781 85.7273C201.092 85.678 201.317 85.6061 201.457 85.5114C201.598 85.4167 201.668 85.2765 201.668 85.0909V85.0568C201.668 84.697 201.554 84.4186 201.327 84.2216C201.103 84.0246 200.785 83.9261 200.372 83.9261C199.937 83.9261 199.59 84.0227 199.332 84.2159C199.075 84.4053 198.904 84.6439 198.821 84.9318L196.582 84.75C196.696 84.2197 196.92 83.7614 197.253 83.375C197.586 82.9848 198.016 82.6856 198.543 82.4773C199.073 82.2652 199.687 82.1591 200.384 82.1591C200.868 82.1591 201.332 82.2159 201.776 82.3295C202.223 82.4432 202.618 82.6193 202.963 82.858C203.312 83.0966 203.586 83.4034 203.787 83.7784C203.988 84.1496 204.088 84.5947 204.088 85.1136V91H201.793V89.7898H201.724C201.584 90.0625 201.397 90.303 201.162 90.5114C200.927 90.7159 200.645 90.8769 200.315 90.9943C199.986 91.108 199.605 91.1648 199.173 91.1648ZM199.866 89.4943C200.223 89.4943 200.537 89.4242 200.81 89.2841C201.082 89.1402 201.296 88.947 201.452 88.7045C201.607 88.4621 201.685 88.1875 201.685 87.8807V86.9545C201.609 87.0038 201.505 87.0492 201.372 87.0909C201.243 87.1288 201.098 87.1648 200.935 87.1989C200.772 87.2292 200.609 87.2576 200.446 87.2841C200.283 87.3068 200.135 87.3277 200.003 87.3466C199.719 87.3883 199.471 87.4545 199.259 87.5455C199.046 87.6364 198.882 87.7595 198.764 87.9148C198.647 88.0663 198.588 88.2557 198.588 88.483C198.588 88.8125 198.707 89.0644 198.946 89.2386C199.188 89.4091 199.495 89.4943 199.866 89.4943ZM210.659 82.2727V84.0909H205.273V82.2727H210.659ZM206.506 91V81.642C206.506 81.0095 206.629 80.4848 206.875 80.0682C207.125 79.6515 207.466 79.339 207.898 79.1307C208.33 78.9223 208.82 78.8182 209.369 78.8182C209.741 78.8182 210.08 78.8466 210.386 78.9034C210.697 78.9602 210.928 79.0114 211.08 79.0568L210.648 80.875C210.553 80.8447 210.436 80.8163 210.295 80.7898C210.159 80.7633 210.019 80.75 209.875 80.75C209.519 80.75 209.271 80.8333 209.131 81C208.991 81.1629 208.92 81.392 208.92 81.6875V91H206.506ZM216.831 82.2727V84.0909H211.445V82.2727H216.831ZM212.678 91V81.642C212.678 81.0095 212.801 80.4848 213.047 80.0682C213.297 79.6515 213.638 79.339 214.07 79.1307C214.501 78.9223 214.992 78.8182 215.541 78.8182C215.912 78.8182 216.251 78.8466 216.558 78.9034C216.869 78.9602 217.1 79.0114 217.251 79.0568L216.82 80.875C216.725 80.8447 216.607 80.8163 216.467 80.7898C216.331 80.7633 216.191 80.75 216.047 80.75C215.691 80.75 215.443 80.8333 215.303 81C215.162 81.1629 215.092 81.392 215.092 81.6875V91H212.678ZM218.31 91V82.2727H220.73V91H218.31ZM219.526 81.1477C219.166 81.1477 218.857 81.0284 218.599 80.7898C218.346 80.5473 218.219 80.2576 218.219 79.9205C218.219 79.5871 218.346 79.3011 218.599 79.0625C218.857 78.8201 219.166 78.6989 219.526 78.6989C219.885 78.6989 220.192 78.8201 220.446 79.0625C220.704 79.3011 220.832 79.5871 220.832 79.9205C220.832 80.2576 220.704 80.5473 220.446 80.7898C220.192 81.0284 219.885 81.1477 219.526 81.1477ZM226.612 91.1705C225.718 91.1705 224.949 90.9811 224.305 90.6023C223.665 90.2197 223.173 89.6894 222.828 89.0114C222.487 88.3333 222.317 87.553 222.317 86.6705C222.317 85.7765 222.489 84.9924 222.834 84.3182C223.182 83.6402 223.677 83.1117 224.317 82.733C224.957 82.3504 225.718 82.1591 226.601 82.1591C227.362 82.1591 228.029 82.2973 228.601 82.5739C229.173 82.8504 229.625 83.2386 229.959 83.7386C230.292 84.2386 230.476 84.8258 230.51 85.5H228.226C228.161 85.0644 227.991 84.714 227.714 84.4489C227.442 84.1799 227.084 84.0455 226.641 84.0455C226.266 84.0455 225.938 84.1477 225.658 84.3523C225.381 84.553 225.165 84.8466 225.01 85.233C224.855 85.6193 224.777 86.0871 224.777 86.6364C224.777 87.1932 224.853 87.6667 225.004 88.0568C225.16 88.447 225.377 88.7443 225.658 88.9489C225.938 89.1534 226.266 89.2557 226.641 89.2557C226.917 89.2557 227.165 89.1989 227.385 89.0852C227.608 88.9716 227.792 88.8068 227.936 88.5909C228.084 88.3712 228.18 88.108 228.226 87.8011H230.51C230.472 88.4678 230.29 89.0549 229.964 89.5625C229.643 90.0663 229.197 90.4602 228.629 90.7443C228.061 91.0284 227.389 91.1705 226.612 91.1705Z" fill="#343741"/>
<path d="M285.499 90.5386V78.3333C285.499 77.8731 285.835 77.5 286.249 77.5C286.664 77.5 286.999 77.8731 286.999 78.3333V90.5386L293.144 84.3943C293.437 84.1014 293.911 84.1014 294.204 84.3943C294.497 84.6872 294.497 85.1621 294.204 85.455L287.84 91.8189C287.453 92.2062 286.96 92.4228 286.454 92.4687C286.389 92.4891 286.32 92.5 286.249 92.5C286.178 92.5 286.11 92.4891 286.045 92.4687C285.539 92.4228 285.046 92.2062 284.658 91.8189L278.294 85.455C278.001 85.1621 278.001 84.6872 278.294 84.3943C278.587 84.1014 279.062 84.1014 279.355 84.3943L285.499 90.5386Z" fill="#343741"/>
<path d="M211.412 181.364V201H207.26V185.304H207.145L202.648 188.123V184.441L207.51 181.364H211.412ZM216.856 201L224.996 184.892V184.758H215.513V181.364H229.291V184.806L221.141 201H216.856ZM239.066 201.268C237.59 201.268 236.276 201.029 235.126 200.549C233.981 200.064 233.083 199.402 232.431 198.565C231.779 197.727 231.453 196.778 231.453 195.717C231.453 194.899 231.639 194.148 232.009 193.464C232.387 192.773 232.898 192.201 233.544 191.748C234.189 191.287 234.911 190.993 235.71 190.865V190.731C234.662 190.52 233.812 190.012 233.16 189.207C232.508 188.395 232.182 187.452 232.182 186.378C232.182 185.362 232.479 184.457 233.074 183.665C233.668 182.866 234.483 182.239 235.519 181.786C236.561 181.325 237.743 181.095 239.066 181.095C240.389 181.095 241.569 181.325 242.604 181.786C243.646 182.246 244.464 182.875 245.059 183.674C245.653 184.467 245.954 185.368 245.96 186.378C245.954 187.458 245.621 188.401 244.963 189.207C244.305 190.012 243.461 190.52 242.432 190.731V190.865C243.218 190.993 243.931 191.287 244.57 191.748C245.215 192.201 245.727 192.773 246.104 193.464C246.487 194.148 246.682 194.899 246.689 195.717C246.682 196.778 246.353 197.727 245.701 198.565C245.049 199.402 244.148 200.064 242.997 200.549C241.853 201.029 240.543 201.268 239.066 201.268ZM239.066 198.219C239.725 198.219 240.3 198.101 240.792 197.865C241.284 197.622 241.668 197.289 241.943 196.868C242.224 196.439 242.365 195.947 242.365 195.391C242.365 194.822 242.221 194.32 241.933 193.886C241.646 193.445 241.256 193.099 240.763 192.85C240.271 192.594 239.706 192.467 239.066 192.467C238.434 192.467 237.868 192.594 237.369 192.85C236.871 193.099 236.478 193.445 236.19 193.886C235.909 194.32 235.768 194.822 235.768 195.391C235.768 195.947 235.905 196.439 236.18 196.868C236.455 197.289 236.842 197.622 237.34 197.865C237.839 198.101 238.414 198.219 239.066 198.219ZM239.066 189.446C239.616 189.446 240.105 189.335 240.533 189.111C240.962 188.887 241.297 188.577 241.54 188.181C241.783 187.784 241.904 187.327 241.904 186.81C241.904 186.298 241.783 185.851 241.54 185.467C241.297 185.077 240.965 184.774 240.543 184.556C240.121 184.333 239.629 184.221 239.066 184.221C238.51 184.221 238.018 184.333 237.59 184.556C237.161 184.774 236.826 185.077 236.583 185.467C236.347 185.851 236.228 186.298 236.228 186.81C236.228 187.327 236.35 187.784 236.593 188.181C236.835 188.577 237.171 188.887 237.599 189.111C238.028 189.335 238.517 189.446 239.066 189.446Z" fill="#343741"/>
<path d="M249.752 201V185H253.135V192.055H253.346L259.104 185H263.158L257.221 192.164L263.229 201H259.182L254.799 194.422L253.135 196.453V201H249.752ZM264.92 201V185H271.326C272.503 185 273.485 185.174 274.271 185.523C275.058 185.872 275.649 186.357 276.045 186.977C276.441 187.591 276.639 188.299 276.639 189.102C276.639 189.727 276.514 190.276 276.264 190.75C276.014 191.219 275.67 191.604 275.232 191.906C274.8 192.203 274.305 192.414 273.748 192.539V192.695C274.357 192.721 274.928 192.893 275.459 193.211C275.995 193.529 276.43 193.974 276.764 194.547C277.097 195.115 277.264 195.792 277.264 196.578C277.264 197.427 277.053 198.185 276.631 198.852C276.214 199.513 275.597 200.036 274.779 200.422C273.962 200.807 272.954 201 271.756 201H264.92ZM268.303 198.234H271.061C272.003 198.234 272.691 198.055 273.123 197.695C273.555 197.331 273.771 196.846 273.771 196.242C273.771 195.799 273.665 195.409 273.451 195.07C273.238 194.732 272.933 194.466 272.537 194.273C272.146 194.081 271.68 193.984 271.139 193.984H268.303V198.234ZM268.303 191.695H270.811C271.274 191.695 271.686 191.615 272.045 191.453C272.41 191.286 272.696 191.052 272.904 190.75C273.118 190.448 273.225 190.086 273.225 189.664C273.225 189.086 273.019 188.62 272.607 188.266C272.201 187.911 271.623 187.734 270.873 187.734H268.303V191.695ZM286.371 184.25L281.215 203.406H278.348L283.504 184.25H286.371ZM297.959 192.422L294.912 192.609C294.86 192.349 294.748 192.115 294.576 191.906C294.404 191.693 294.178 191.523 293.896 191.398C293.62 191.268 293.29 191.203 292.904 191.203C292.389 191.203 291.954 191.312 291.6 191.531C291.245 191.745 291.068 192.031 291.068 192.391C291.068 192.677 291.183 192.919 291.412 193.117C291.641 193.315 292.035 193.474 292.592 193.594L294.764 194.031C295.93 194.271 296.8 194.656 297.373 195.187C297.946 195.719 298.232 196.417 298.232 197.281C298.232 198.068 298.001 198.758 297.537 199.352C297.079 199.945 296.449 200.409 295.646 200.742C294.85 201.07 293.93 201.234 292.889 201.234C291.3 201.234 290.035 200.904 289.092 200.242C288.154 199.576 287.605 198.669 287.443 197.523L290.717 197.352C290.816 197.836 291.055 198.206 291.436 198.461C291.816 198.711 292.303 198.836 292.896 198.836C293.48 198.836 293.949 198.724 294.303 198.5C294.662 198.271 294.844 197.977 294.85 197.617C294.844 197.315 294.717 197.068 294.467 196.875C294.217 196.677 293.831 196.526 293.311 196.422L291.232 196.008C290.061 195.773 289.188 195.367 288.615 194.789C288.048 194.211 287.764 193.474 287.764 192.578C287.764 191.807 287.972 191.143 288.389 190.586C288.811 190.029 289.402 189.599 290.162 189.297C290.928 188.995 291.824 188.844 292.85 188.844C294.365 188.844 295.558 189.164 296.428 189.805C297.303 190.445 297.813 191.318 297.959 192.422Z" fill="#343741"/>
</g>
</g>
<g filter="url(#filter2_dd_1713_24245)">
<g clip-path="url(#clip1_1713_24245)">
<rect x="107" y="235" width="200" height="150" rx="6" fill="#1D1E24"/>
<rect x="107" y="235" width="200" height="150" fill="#1D1E24"/>
<rect width="200" height="150" transform="translate(107 235)" fill="#0452A1"/>
<path d="M126.705 255.182C126.705 256.451 126.464 257.53 125.983 258.42C125.506 259.311 124.854 259.991 124.028 260.46C123.206 260.926 122.282 261.159 121.256 261.159C120.222 261.159 119.294 260.924 118.472 260.455C117.65 259.985 117 259.305 116.523 258.415C116.045 257.525 115.807 256.447 115.807 255.182C115.807 253.913 116.045 252.833 116.523 251.943C117 251.053 117.65 250.375 118.472 249.909C119.294 249.439 120.222 249.205 121.256 249.205C122.282 249.205 123.206 249.439 124.028 249.909C124.854 250.375 125.506 251.053 125.983 251.943C126.464 252.833 126.705 253.913 126.705 255.182ZM124.21 255.182C124.21 254.36 124.087 253.667 123.841 253.102C123.598 252.538 123.256 252.11 122.812 251.818C122.369 251.527 121.85 251.381 121.256 251.381C120.661 251.381 120.142 251.527 119.699 251.818C119.256 252.11 118.911 252.538 118.665 253.102C118.422 253.667 118.301 254.36 118.301 255.182C118.301 256.004 118.422 256.697 118.665 257.261C118.911 257.826 119.256 258.254 119.699 258.545C120.142 258.837 120.661 258.983 121.256 258.983C121.85 258.983 122.369 258.837 122.812 258.545C123.256 258.254 123.598 257.826 123.841 257.261C124.087 256.697 124.21 256.004 124.21 255.182ZM134.078 257.284V252.273H136.499V261H134.175V259.415H134.084C133.887 259.926 133.559 260.337 133.101 260.648C132.646 260.958 132.091 261.114 131.436 261.114C130.853 261.114 130.339 260.981 129.896 260.716C129.453 260.451 129.107 260.074 128.857 259.585C128.61 259.097 128.485 258.511 128.482 257.83V252.273H130.902V257.398C130.906 257.913 131.044 258.32 131.317 258.619C131.589 258.919 131.955 259.068 132.413 259.068C132.705 259.068 132.978 259.002 133.232 258.869C133.485 258.733 133.69 258.532 133.845 258.267C134.004 258.002 134.082 257.674 134.078 257.284ZM143.077 252.273V254.091H137.821V252.273H143.077ZM139.014 250.182H141.435V258.318C141.435 258.542 141.469 258.716 141.537 258.841C141.605 258.962 141.7 259.047 141.821 259.097C141.946 259.146 142.09 259.17 142.253 259.17C142.366 259.17 142.48 259.161 142.594 259.142C142.707 259.119 142.795 259.102 142.855 259.091L143.236 260.892C143.115 260.93 142.944 260.973 142.724 261.023C142.505 261.076 142.238 261.108 141.923 261.119C141.34 261.142 140.829 261.064 140.389 260.886C139.954 260.708 139.615 260.432 139.372 260.057C139.13 259.682 139.01 259.208 139.014 258.636V250.182ZM144.886 261V249.364H147.307V253.739H147.381C147.487 253.504 147.64 253.265 147.841 253.023C148.045 252.777 148.311 252.572 148.636 252.409C148.966 252.242 149.375 252.159 149.864 252.159C150.5 252.159 151.087 252.326 151.625 252.659C152.163 252.989 152.593 253.487 152.915 254.153C153.237 254.816 153.398 255.648 153.398 256.648C153.398 257.621 153.241 258.443 152.926 259.114C152.616 259.78 152.191 260.286 151.653 260.631C151.119 260.972 150.521 261.142 149.858 261.142C149.388 261.142 148.989 261.064 148.659 260.909C148.333 260.754 148.066 260.559 147.858 260.324C147.65 260.085 147.491 259.845 147.381 259.602H147.273V261H144.886ZM147.256 256.636C147.256 257.155 147.328 257.608 147.472 257.994C147.616 258.381 147.824 258.682 148.097 258.898C148.369 259.11 148.701 259.216 149.091 259.216C149.485 259.216 149.818 259.108 150.091 258.892C150.364 258.672 150.57 258.369 150.71 257.983C150.854 257.593 150.926 257.144 150.926 256.636C150.926 256.133 150.856 255.689 150.716 255.307C150.576 254.924 150.369 254.625 150.097 254.409C149.824 254.193 149.489 254.085 149.091 254.085C148.697 254.085 148.364 254.189 148.091 254.398C147.822 254.606 147.616 254.902 147.472 255.284C147.328 255.667 147.256 256.117 147.256 256.636ZM158.956 261.17C158.073 261.17 157.31 260.983 156.666 260.608C156.026 260.229 155.532 259.703 155.183 259.028C154.835 258.35 154.661 257.564 154.661 256.67C154.661 255.769 154.835 254.981 155.183 254.307C155.532 253.629 156.026 253.102 156.666 252.727C157.31 252.348 158.073 252.159 158.956 252.159C159.839 252.159 160.6 252.348 161.24 252.727C161.884 253.102 162.38 253.629 162.729 254.307C163.077 254.981 163.251 255.769 163.251 256.67C163.251 257.564 163.077 258.35 162.729 259.028C162.38 259.703 161.884 260.229 161.24 260.608C160.6 260.983 159.839 261.17 158.956 261.17ZM158.967 259.295C159.369 259.295 159.704 259.182 159.973 258.955C160.242 258.723 160.445 258.409 160.581 258.011C160.721 257.614 160.791 257.161 160.791 256.653C160.791 256.146 160.721 255.693 160.581 255.295C160.445 254.898 160.242 254.583 159.973 254.352C159.704 254.121 159.369 254.006 158.967 254.006C158.562 254.006 158.221 254.121 157.945 254.352C157.672 254.583 157.465 254.898 157.325 255.295C157.189 255.693 157.121 256.146 157.121 256.653C157.121 257.161 157.189 257.614 157.325 258.011C157.465 258.409 157.672 258.723 157.945 258.955C158.221 259.182 158.562 259.295 158.967 259.295ZM170.422 257.284V252.273H172.842V261H170.518V259.415H170.428C170.231 259.926 169.903 260.337 169.445 260.648C168.99 260.958 168.435 261.114 167.78 261.114C167.196 261.114 166.683 260.981 166.24 260.716C165.797 260.451 165.45 260.074 165.2 259.585C164.954 259.097 164.829 258.511 164.825 257.83V252.273H167.246V257.398C167.25 257.913 167.388 258.32 167.661 258.619C167.933 258.919 168.299 259.068 168.757 259.068C169.049 259.068 169.321 259.002 169.575 258.869C169.829 258.733 170.034 258.532 170.189 258.267C170.348 258.002 170.426 257.674 170.422 257.284ZM177.199 255.955V261H174.778V252.273H177.085V253.812H177.188C177.381 253.305 177.705 252.903 178.159 252.608C178.614 252.309 179.165 252.159 179.812 252.159C180.419 252.159 180.947 252.292 181.398 252.557C181.848 252.822 182.199 253.201 182.449 253.693C182.699 254.182 182.824 254.765 182.824 255.443V261H180.403V255.875C180.407 255.341 180.271 254.924 179.994 254.625C179.718 254.322 179.337 254.17 178.852 254.17C178.527 254.17 178.239 254.241 177.989 254.381C177.742 254.521 177.549 254.725 177.409 254.994C177.273 255.259 177.203 255.58 177.199 255.955ZM187.947 261.142C187.285 261.142 186.684 260.972 186.146 260.631C185.612 260.286 185.188 259.78 184.874 259.114C184.563 258.443 184.408 257.621 184.408 256.648C184.408 255.648 184.569 254.816 184.891 254.153C185.213 253.487 185.641 252.989 186.175 252.659C186.713 252.326 187.302 252.159 187.942 252.159C188.43 252.159 188.838 252.242 189.163 252.409C189.493 252.572 189.758 252.777 189.959 253.023C190.163 253.265 190.319 253.504 190.425 253.739H190.499V249.364H192.913V261H190.527V259.602H190.425C190.311 259.845 190.15 260.085 189.942 260.324C189.737 260.559 189.47 260.754 189.141 260.909C188.815 261.064 188.417 261.142 187.947 261.142ZM188.714 259.216C189.105 259.216 189.434 259.11 189.703 258.898C189.976 258.682 190.184 258.381 190.328 257.994C190.476 257.608 190.55 257.155 190.55 256.636C190.55 256.117 190.478 255.667 190.334 255.284C190.19 254.902 189.982 254.606 189.709 254.398C189.436 254.189 189.105 254.085 188.714 254.085C188.317 254.085 187.982 254.193 187.709 254.409C187.436 254.625 187.23 254.924 187.089 255.307C186.949 255.689 186.879 256.133 186.879 256.636C186.879 257.144 186.949 257.593 187.089 257.983C187.233 258.369 187.44 258.672 187.709 258.892C187.982 259.108 188.317 259.216 188.714 259.216ZM120.608 276.273V278.091H115.352V276.273H120.608ZM116.545 274.182H118.966V282.318C118.966 282.542 119 282.716 119.068 282.841C119.136 282.962 119.231 283.047 119.352 283.097C119.477 283.146 119.621 283.17 119.784 283.17C119.898 283.17 120.011 283.161 120.125 283.142C120.239 283.119 120.326 283.102 120.386 283.091L120.767 284.892C120.646 284.93 120.475 284.973 120.256 285.023C120.036 285.076 119.769 285.108 119.455 285.119C118.871 285.142 118.36 285.064 117.92 284.886C117.485 284.708 117.146 284.432 116.903 284.057C116.661 283.682 116.542 283.208 116.545 282.636V274.182ZM122.185 285V276.273H124.531V277.795H124.622C124.781 277.254 125.048 276.845 125.423 276.568C125.798 276.288 126.23 276.148 126.719 276.148C126.84 276.148 126.971 276.155 127.111 276.17C127.251 276.186 127.374 276.206 127.48 276.233V278.381C127.366 278.347 127.209 278.316 127.009 278.29C126.808 278.263 126.624 278.25 126.457 278.25C126.101 278.25 125.783 278.328 125.503 278.483C125.226 278.634 125.007 278.847 124.844 279.119C124.685 279.392 124.605 279.706 124.605 280.062V285H122.185ZM130.97 285.165C130.413 285.165 129.917 285.068 129.482 284.875C129.046 284.678 128.701 284.388 128.447 284.006C128.197 283.619 128.072 283.138 128.072 282.562C128.072 282.078 128.161 281.67 128.339 281.341C128.518 281.011 128.76 280.746 129.067 280.545C129.374 280.345 129.722 280.193 130.112 280.091C130.506 279.989 130.919 279.917 131.351 279.875C131.858 279.822 132.268 279.773 132.578 279.727C132.889 279.678 133.114 279.606 133.254 279.511C133.394 279.417 133.464 279.277 133.464 279.091V279.057C133.464 278.697 133.351 278.419 133.124 278.222C132.9 278.025 132.582 277.926 132.169 277.926C131.733 277.926 131.387 278.023 131.129 278.216C130.872 278.405 130.701 278.644 130.618 278.932L128.379 278.75C128.493 278.22 128.716 277.761 129.05 277.375C129.383 276.985 129.813 276.686 130.339 276.477C130.87 276.265 131.483 276.159 132.18 276.159C132.665 276.159 133.129 276.216 133.572 276.33C134.019 276.443 134.415 276.619 134.76 276.858C135.108 277.097 135.383 277.403 135.584 277.778C135.785 278.15 135.885 278.595 135.885 279.114V285H133.589V283.79H133.521C133.381 284.062 133.194 284.303 132.959 284.511C132.724 284.716 132.442 284.877 132.112 284.994C131.783 285.108 131.402 285.165 130.97 285.165ZM131.663 283.494C132.019 283.494 132.334 283.424 132.607 283.284C132.879 283.14 133.093 282.947 133.249 282.705C133.404 282.462 133.482 282.187 133.482 281.881V280.955C133.406 281.004 133.302 281.049 133.169 281.091C133.04 281.129 132.894 281.165 132.732 281.199C132.569 281.229 132.406 281.258 132.243 281.284C132.08 281.307 131.932 281.328 131.8 281.347C131.516 281.388 131.268 281.455 131.055 281.545C130.843 281.636 130.679 281.759 130.561 281.915C130.444 282.066 130.385 282.256 130.385 282.483C130.385 282.812 130.504 283.064 130.743 283.239C130.985 283.409 131.292 283.494 131.663 283.494ZM142.456 276.273V278.091H137.07V276.273H142.456ZM138.303 285V275.642C138.303 275.009 138.426 274.485 138.672 274.068C138.922 273.652 139.263 273.339 139.695 273.131C140.126 272.922 140.617 272.818 141.166 272.818C141.537 272.818 141.876 272.847 142.183 272.903C142.494 272.96 142.725 273.011 142.876 273.057L142.445 274.875C142.35 274.845 142.232 274.816 142.092 274.79C141.956 274.763 141.816 274.75 141.672 274.75C141.316 274.75 141.068 274.833 140.928 275C140.787 275.163 140.717 275.392 140.717 275.688V285H138.303ZM148.628 276.273V278.091H143.241V276.273H148.628ZM144.474 285V275.642C144.474 275.009 144.598 274.485 144.844 274.068C145.094 273.652 145.435 273.339 145.866 273.131C146.298 272.922 146.789 272.818 147.338 272.818C147.709 272.818 148.048 272.847 148.355 272.903C148.666 272.96 148.897 273.011 149.048 273.057L148.616 274.875C148.522 274.845 148.404 274.816 148.264 274.79C148.128 274.763 147.988 274.75 147.844 274.75C147.488 274.75 147.24 274.833 147.099 275C146.959 275.163 146.889 275.392 146.889 275.688V285H144.474ZM150.107 285V276.273H152.527V285H150.107ZM151.322 275.148C150.963 275.148 150.654 275.028 150.396 274.79C150.143 274.547 150.016 274.258 150.016 273.92C150.016 273.587 150.143 273.301 150.396 273.062C150.654 272.82 150.963 272.699 151.322 272.699C151.682 272.699 151.989 272.82 152.243 273.062C152.5 273.301 152.629 273.587 152.629 273.92C152.629 274.258 152.5 274.547 152.243 274.79C151.989 275.028 151.682 275.148 151.322 275.148ZM158.409 285.17C157.515 285.17 156.746 284.981 156.102 284.602C155.462 284.22 154.97 283.689 154.625 283.011C154.284 282.333 154.114 281.553 154.114 280.67C154.114 279.777 154.286 278.992 154.631 278.318C154.979 277.64 155.473 277.112 156.114 276.733C156.754 276.35 157.515 276.159 158.398 276.159C159.159 276.159 159.826 276.297 160.398 276.574C160.97 276.85 161.422 277.239 161.756 277.739C162.089 278.239 162.273 278.826 162.307 279.5H160.023C159.958 279.064 159.788 278.714 159.511 278.449C159.239 278.18 158.881 278.045 158.438 278.045C158.062 278.045 157.735 278.148 157.455 278.352C157.178 278.553 156.962 278.847 156.807 279.233C156.652 279.619 156.574 280.087 156.574 280.636C156.574 281.193 156.65 281.667 156.801 282.057C156.956 282.447 157.174 282.744 157.455 282.949C157.735 283.153 158.062 283.256 158.438 283.256C158.714 283.256 158.962 283.199 159.182 283.085C159.405 282.972 159.589 282.807 159.733 282.591C159.881 282.371 159.977 282.108 160.023 281.801H162.307C162.269 282.468 162.087 283.055 161.761 283.562C161.439 284.066 160.994 284.46 160.426 284.744C159.858 285.028 159.186 285.17 158.409 285.17Z" fill="#DFE5EF"/>
<path d="M286.999 249.311V261.667C286.999 262.127 286.664 262.5 286.249 262.5C285.835 262.5 285.499 262.127 285.499 261.667V249.311L279.355 255.455C279.062 255.748 278.587 255.748 278.294 255.455C278.001 255.162 278.001 254.687 278.294 254.394L284.658 248.03C285.537 247.152 286.962 247.152 287.84 248.03L294.204 254.394C294.497 254.687 294.497 255.162 294.204 255.455C293.911 255.748 293.437 255.748 293.144 255.455L286.999 249.311Z" fill="#DFE5EF"/>
<path d="M209.329 351.364V371H205.177V355.304H205.062L200.565 358.123V354.441L205.427 351.364H209.329ZM213.996 371V368.009L220.986 361.537C221.58 360.961 222.079 360.444 222.481 359.983C222.89 359.523 223.2 359.072 223.411 358.631C223.622 358.184 223.728 357.701 223.728 357.184C223.728 356.608 223.597 356.113 223.335 355.697C223.073 355.276 222.715 354.953 222.261 354.729C221.807 354.499 221.292 354.384 220.717 354.384C220.116 354.384 219.592 354.505 219.145 354.748C218.697 354.991 218.352 355.339 218.109 355.793C217.866 356.247 217.745 356.787 217.745 357.414H213.804C213.804 356.129 214.095 355.013 214.677 354.067C215.258 353.121 216.073 352.39 217.122 351.872C218.17 351.354 219.378 351.095 220.746 351.095C222.152 351.095 223.376 351.344 224.418 351.843C225.466 352.335 226.281 353.019 226.863 353.895C227.445 354.771 227.736 355.774 227.736 356.906C227.736 357.647 227.589 358.379 227.295 359.101C227.007 359.824 226.492 360.626 225.751 361.508C225.009 362.384 223.964 363.435 222.616 364.662L219.749 367.472V367.606H227.994V371H213.996ZM238.702 371.431C237.053 371.425 235.634 371.019 234.445 370.214C233.262 369.408 232.351 368.242 231.712 366.714C231.079 365.186 230.766 363.349 230.773 361.201C230.773 359.06 231.089 357.235 231.722 355.726C232.361 354.218 233.272 353.07 234.454 352.284C235.643 351.491 237.059 351.095 238.702 351.095C240.345 351.095 241.757 351.491 242.94 352.284C244.129 353.077 245.043 354.227 245.682 355.736C246.321 357.238 246.638 359.06 246.631 361.201C246.631 363.355 246.312 365.196 245.672 366.724C245.04 368.251 244.132 369.418 242.949 370.223C241.767 371.029 240.351 371.431 238.702 371.431ZM238.702 367.989C239.827 367.989 240.725 367.424 241.396 366.292C242.067 365.161 242.4 363.464 242.393 361.201C242.393 359.712 242.24 358.472 241.933 357.481C241.633 356.49 241.204 355.745 240.648 355.247C240.099 354.748 239.45 354.499 238.702 354.499C237.583 354.499 236.688 355.058 236.017 356.177C235.346 357.295 235.007 358.97 235.001 361.201C235.001 362.71 235.151 363.969 235.452 364.979C235.758 365.982 236.19 366.737 236.746 367.241C237.302 367.74 237.954 367.989 238.702 367.989Z" fill="#DFE5EF"/>
<path d="M249.752 371V355H253.135V362.055H253.346L259.104 355H263.158L257.221 362.164L263.229 371H259.182L254.799 364.422L253.135 366.453V371H249.752ZM264.92 371V355H271.326C272.503 355 273.485 355.174 274.271 355.523C275.058 355.872 275.649 356.357 276.045 356.977C276.441 357.591 276.639 358.299 276.639 359.102C276.639 359.727 276.514 360.276 276.264 360.75C276.014 361.219 275.67 361.604 275.232 361.906C274.8 362.203 274.305 362.414 273.748 362.539V362.695C274.357 362.721 274.928 362.893 275.459 363.211C275.995 363.529 276.43 363.974 276.764 364.547C277.097 365.115 277.264 365.792 277.264 366.578C277.264 367.427 277.053 368.185 276.631 368.852C276.214 369.513 275.597 370.036 274.779 370.422C273.962 370.807 272.954 371 271.756 371H264.92ZM268.303 368.234H271.061C272.003 368.234 272.691 368.055 273.123 367.695C273.555 367.331 273.771 366.846 273.771 366.242C273.771 365.799 273.665 365.409 273.451 365.07C273.238 364.732 272.933 364.466 272.537 364.273C272.146 364.081 271.68 363.984 271.139 363.984H268.303V368.234ZM268.303 361.695H270.811C271.274 361.695 271.686 361.615 272.045 361.453C272.41 361.286 272.696 361.052 272.904 360.75C273.118 360.448 273.225 360.086 273.225 359.664C273.225 359.086 273.019 358.62 272.607 358.266C272.201 357.911 271.623 357.734 270.873 357.734H268.303V361.695ZM286.371 354.25L281.215 373.406H278.348L283.504 354.25H286.371ZM297.959 362.422L294.912 362.609C294.86 362.349 294.748 362.115 294.576 361.906C294.404 361.693 294.178 361.523 293.896 361.398C293.62 361.268 293.29 361.203 292.904 361.203C292.389 361.203 291.954 361.312 291.6 361.531C291.245 361.745 291.068 362.031 291.068 362.391C291.068 362.677 291.183 362.919 291.412 363.117C291.641 363.315 292.035 363.474 292.592 363.594L294.764 364.031C295.93 364.271 296.8 364.656 297.373 365.187C297.946 365.719 298.232 366.417 298.232 367.281C298.232 368.068 298.001 368.758 297.537 369.352C297.079 369.945 296.449 370.409 295.646 370.742C294.85 371.07 293.93 371.234 292.889 371.234C291.3 371.234 290.035 370.904 289.092 370.242C288.154 369.576 287.605 368.669 287.443 367.523L290.717 367.352C290.816 367.836 291.055 368.206 291.436 368.461C291.816 368.711 292.303 368.836 292.896 368.836C293.48 368.836 293.949 368.724 294.303 368.5C294.662 368.271 294.844 367.977 294.85 367.617C294.844 367.315 294.717 367.068 294.467 366.875C294.217 366.677 293.831 366.526 293.311 366.422L291.232 366.008C290.061 365.773 289.188 365.367 288.615 364.789C288.048 364.211 287.764 363.474 287.764 362.578C287.764 361.807 287.972 361.143 288.389 360.586C288.811 360.029 289.402 359.599 290.162 359.297C290.928 358.995 291.824 358.844 292.85 358.844C294.365 358.844 295.558 359.164 296.428 359.805C297.303 360.445 297.813 361.318 297.959 362.422Z" fill="#DFE5EF"/>
</g>
</g>
<path d="M362.875 348.499C362.34 348.499 361.884 348.354 361.508 348.063C361.131 347.769 360.844 347.344 360.645 346.788C360.446 346.229 360.347 345.554 360.347 344.764C360.347 343.978 360.446 343.306 360.645 342.75C360.846 342.191 361.135 341.765 361.511 341.472C361.89 341.176 362.345 341.028 362.875 341.028C363.405 341.028 363.859 341.176 364.235 341.472C364.614 341.765 364.903 342.191 365.102 342.75C365.303 343.306 365.403 343.978 365.403 344.764C365.403 345.554 365.304 346.229 365.105 346.788C364.906 347.344 364.619 347.769 364.242 348.063C363.866 348.354 363.41 348.499 362.875 348.499ZM362.875 347.718C363.405 347.718 363.817 347.462 364.111 346.951C364.404 346.44 364.551 345.711 364.551 344.764C364.551 344.134 364.484 343.598 364.349 343.155C364.216 342.712 364.024 342.375 363.773 342.143C363.525 341.911 363.225 341.795 362.875 341.795C362.349 341.795 361.939 342.054 361.643 342.573C361.347 343.089 361.199 343.819 361.199 344.764C361.199 345.393 361.265 345.928 361.398 346.369C361.53 346.809 361.721 347.144 361.969 347.374C362.22 347.603 362.522 347.718 362.875 347.718Z" fill="#69707D"/>
<path d="M356.692 286.149C356.275 286.149 355.9 286.067 355.566 285.901C355.232 285.735 354.965 285.508 354.763 285.219C354.562 284.93 354.452 284.601 354.433 284.232H355.285C355.318 284.561 355.468 284.833 355.733 285.049C356 285.262 356.32 285.368 356.692 285.368C356.99 285.368 357.255 285.298 357.487 285.159C357.721 285.019 357.905 284.827 358.037 284.583C358.172 284.337 358.24 284.059 358.24 283.749C358.24 283.432 358.17 283.149 358.03 282.9C357.893 282.649 357.704 282.452 357.462 282.307C357.221 282.163 356.945 282.089 356.635 282.087C356.412 282.085 356.184 282.119 355.949 282.19C355.715 282.259 355.522 282.347 355.371 282.456L354.547 282.357L354.987 278.777H358.765V279.559H355.726L355.47 281.703H355.513C355.662 281.585 355.849 281.487 356.074 281.409C356.299 281.331 356.533 281.291 356.777 281.291C357.222 281.291 357.618 281.398 357.966 281.611C358.317 281.822 358.591 282.111 358.79 282.478C358.992 282.844 359.092 283.264 359.092 283.735C359.092 284.199 358.988 284.613 358.78 284.978C358.574 285.34 358.29 285.626 357.927 285.837C357.565 286.045 357.153 286.149 356.692 286.149ZM362.875 286.149C362.34 286.149 361.884 286.004 361.508 285.713C361.131 285.419 360.844 284.994 360.645 284.438C360.446 283.879 360.347 283.204 360.347 282.414C360.347 281.628 360.446 280.956 360.645 280.4C360.846 279.841 361.135 279.415 361.511 279.122C361.89 278.826 362.345 278.678 362.875 278.678C363.405 278.678 363.859 278.826 364.235 279.122C364.614 279.415 364.903 279.841 365.102 280.4C365.303 280.956 365.403 281.628 365.403 282.414C365.403 283.204 365.304 283.879 365.105 284.438C364.906 284.994 364.619 285.419 364.242 285.713C363.866 286.004 363.41 286.149 362.875 286.149ZM362.875 285.368C363.405 285.368 363.817 285.112 364.111 284.601C364.404 284.09 364.551 283.361 364.551 282.414C364.551 281.784 364.484 281.248 364.349 280.805C364.216 280.362 364.024 280.025 363.773 279.793C363.525 279.561 363.225 279.445 362.875 279.445C362.349 279.445 361.939 279.704 361.643 280.223C361.347 280.739 361.199 281.469 361.199 282.414C361.199 283.043 361.265 283.578 361.398 284.019C361.53 284.459 361.721 284.794 361.969 285.024C362.22 285.253 362.522 285.368 362.875 285.368Z" fill="#69707D"/>
<path d="M907 282.05L374 282.05" stroke="#E9EDF3" stroke-dasharray="5 5"/>
<path d="M352.161 216.427V223.7H351.281V217.351H351.238L349.462 218.53V217.635L351.281 216.427H352.161ZM356.625 223.799C356.09 223.799 355.634 223.654 355.258 223.363C354.881 223.069 354.594 222.644 354.395 222.088C354.196 221.529 354.097 220.854 354.097 220.064C354.097 219.278 354.196 218.606 354.395 218.05C354.596 217.491 354.885 217.065 355.261 216.772C355.64 216.476 356.095 216.328 356.625 216.328C357.155 216.328 357.609 216.476 357.985 216.772C358.364 217.065 358.653 217.491 358.852 218.05C359.053 218.606 359.153 219.278 359.153 220.064C359.153 220.854 359.054 221.529 358.855 222.088C358.656 222.644 358.369 223.069 357.992 223.363C357.616 223.654 357.16 223.799 356.625 223.799ZM356.625 223.018C357.155 223.018 357.567 222.762 357.861 222.251C358.154 221.74 358.301 221.011 358.301 220.064C358.301 219.434 358.234 218.898 358.099 218.455C357.966 218.012 357.774 217.675 357.523 217.443C357.275 217.211 356.975 217.095 356.625 217.095C356.099 217.095 355.689 217.354 355.393 217.873C355.097 218.389 354.949 219.119 354.949 220.064C354.949 220.693 355.015 221.228 355.148 221.669C355.28 222.109 355.471 222.444 355.719 222.674C355.97 222.903 356.272 223.018 356.625 223.018ZM362.875 223.799C362.34 223.799 361.884 223.654 361.508 223.363C361.131 223.069 360.844 222.644 360.645 222.088C360.446 221.529 360.347 220.854 360.347 220.064C360.347 219.278 360.446 218.606 360.645 218.05C360.846 217.491 361.135 217.065 361.511 216.772C361.89 216.476 362.345 216.328 362.875 216.328C363.405 216.328 363.859 216.476 364.235 216.772C364.614 217.065 364.903 217.491 365.102 218.05C365.303 218.606 365.403 219.278 365.403 220.064C365.403 220.854 365.304 221.529 365.105 222.088C364.906 222.644 364.619 223.069 364.242 223.363C363.866 223.654 363.41 223.799 362.875 223.799ZM362.875 223.018C363.405 223.018 363.817 222.762 364.111 222.251C364.404 221.74 364.551 221.011 364.551 220.064C364.551 219.434 364.484 218.898 364.349 218.455C364.216 218.012 364.024 217.675 363.773 217.443C363.525 217.211 363.225 217.095 362.875 217.095C362.349 217.095 361.939 217.354 361.643 217.873C361.347 218.389 361.199 219.119 361.199 220.064C361.199 220.693 361.265 221.228 361.398 221.669C361.53 222.109 361.721 222.444 361.969 222.674C362.22 222.903 362.522 223.018 362.875 223.018Z" fill="#69707D"/>
<path d="M907 219.7L374 219.7" stroke="#E9EDF3" stroke-dasharray="5 5"/>
<path d="M352.327 154.077V161.35H351.447V155.001H351.404L349.628 156.18V155.285L351.447 154.077H352.327ZM356.692 161.449C356.275 161.449 355.9 161.367 355.566 161.201C355.232 161.035 354.965 160.808 354.763 160.519C354.562 160.23 354.452 159.901 354.433 159.532H355.285C355.318 159.861 355.468 160.133 355.733 160.349C356 160.562 356.32 160.668 356.692 160.668C356.99 160.668 357.255 160.598 357.487 160.459C357.721 160.319 357.905 160.127 358.037 159.883C358.172 159.637 358.24 159.359 358.24 159.049C358.24 158.732 358.17 158.449 358.03 158.2C357.893 157.949 357.704 157.752 357.462 157.607C357.221 157.463 356.945 157.389 356.635 157.387C356.412 157.385 356.184 157.419 355.949 157.49C355.715 157.559 355.522 157.647 355.371 157.756L354.547 157.657L354.987 154.077H358.765V154.859H355.726L355.47 157.003H355.513C355.662 156.885 355.849 156.787 356.074 156.709C356.299 156.631 356.533 156.591 356.777 156.591C357.222 156.591 357.618 156.698 357.966 156.911C358.317 157.122 358.591 157.411 358.79 157.778C358.992 158.145 359.092 158.564 359.092 159.035C359.092 159.499 358.988 159.913 358.78 160.278C358.574 160.64 358.29 160.926 357.927 161.137C357.565 161.345 357.153 161.449 356.692 161.449ZM362.875 161.449C362.34 161.449 361.884 161.304 361.508 161.013C361.131 160.719 360.844 160.294 360.645 159.738C360.446 159.179 360.347 158.504 360.347 157.714C360.347 156.928 360.446 156.256 360.645 155.7C360.846 155.141 361.135 154.715 361.511 154.422C361.89 154.126 362.345 153.978 362.875 153.978C363.405 153.978 363.859 154.126 364.235 154.422C364.614 154.715 364.903 155.141 365.102 155.7C365.303 156.256 365.403 156.928 365.403 157.714C365.403 158.504 365.304 159.179 365.105 159.738C364.906 160.294 364.619 160.719 364.242 161.013C363.866 161.304 363.41 161.449 362.875 161.449ZM362.875 160.668C363.405 160.668 363.817 160.412 364.111 159.901C364.404 159.39 364.551 158.661 364.551 157.714C364.551 157.084 364.484 156.548 364.349 156.105C364.216 155.662 364.024 155.325 363.773 155.093C363.525 154.861 363.225 154.745 362.875 154.745C362.349 154.745 361.939 155.004 361.643 155.523C361.347 156.039 361.199 156.769 361.199 157.714C361.199 158.343 361.265 158.878 361.398 159.319C361.53 159.759 361.721 160.094 361.969 160.324C362.22 160.553 362.522 160.668 362.875 160.668Z" fill="#69707D"/>
<path d="M907 157.35L374 157.35" stroke="#E9EDF3" stroke-dasharray="5 5"/>
<path d="M348.198 99V98.3608L350.599 95.733C350.88 95.4252 351.112 95.1577 351.295 94.9304C351.477 94.7008 351.612 94.4853 351.7 94.2841C351.79 94.0805 351.835 93.8674 351.835 93.6449C351.835 93.3892 351.773 93.1679 351.65 92.9808C351.529 92.7938 351.363 92.6494 351.153 92.5476C350.942 92.4458 350.705 92.3949 350.442 92.3949C350.163 92.3949 349.919 92.4529 349.711 92.5689C349.505 92.6825 349.345 92.8423 349.232 93.0483C349.12 93.2543 349.065 93.4957 349.065 93.7727H348.227C348.227 93.3466 348.325 92.9725 348.521 92.6506C348.718 92.3286 348.985 92.0777 349.324 91.8977C349.665 91.7178 350.047 91.6278 350.471 91.6278C350.897 91.6278 351.275 91.7178 351.604 91.8977C351.933 92.0777 352.191 92.3203 352.378 92.6257C352.565 92.9311 352.658 93.2708 352.658 93.6449C352.658 93.9124 352.61 94.174 352.513 94.4297C352.418 94.683 352.252 94.9659 352.016 95.2784C351.781 95.5885 351.456 95.9673 351.039 96.4148L349.406 98.1619V98.2188H352.786V99H348.198ZM356.625 99.0994C356.09 99.0994 355.634 98.9538 355.258 98.6626C354.881 98.3691 354.594 97.9441 354.395 97.3878C354.196 96.8291 354.097 96.1544 354.097 95.3636C354.097 94.5777 354.196 93.9065 354.395 93.3501C354.596 92.7914 354.885 92.3653 355.261 92.0717C355.64 91.7758 356.095 91.6278 356.625 91.6278C357.155 91.6278 357.609 91.7758 357.985 92.0717C358.364 92.3653 358.653 92.7914 358.852 93.3501C359.053 93.9065 359.153 94.5777 359.153 95.3636C359.153 96.1544 359.054 96.8291 358.855 97.3878C358.656 97.9441 358.369 98.3691 357.992 98.6626C357.616 98.9538 357.16 99.0994 356.625 99.0994ZM356.625 98.3182C357.155 98.3182 357.567 98.0625 357.861 97.5511C358.154 97.0398 358.301 96.3106 358.301 95.3636C358.301 94.7339 358.234 94.1977 358.099 93.755C357.966 93.3123 357.774 92.9749 357.523 92.7429C357.275 92.5109 356.975 92.3949 356.625 92.3949C356.099 92.3949 355.689 92.6541 355.393 93.1726C355.097 93.6887 354.949 94.419 354.949 95.3636C354.949 95.9934 355.015 96.5284 355.148 96.9688C355.28 97.4091 355.471 97.7441 355.719 97.9737C355.97 98.2034 356.272 98.3182 356.625 98.3182ZM362.875 99.0994C362.34 99.0994 361.884 98.9538 361.508 98.6626C361.131 98.3691 360.844 97.9441 360.645 97.3878C360.446 96.8291 360.347 96.1544 360.347 95.3636C360.347 94.5777 360.446 93.9065 360.645 93.3501C360.846 92.7914 361.135 92.3653 361.511 92.0717C361.89 91.7758 362.345 91.6278 362.875 91.6278C363.405 91.6278 363.859 91.7758 364.235 92.0717C364.614 92.3653 364.903 92.7914 365.102 93.3501C365.303 93.9065 365.403 94.5777 365.403 95.3636C365.403 96.1544 365.304 96.8291 365.105 97.3878C364.906 97.9441 364.619 98.3691 364.242 98.6626C363.866 98.9538 363.41 99.0994 362.875 99.0994ZM362.875 98.3182C363.405 98.3182 363.817 98.0625 364.111 97.5511C364.404 97.0398 364.551 96.3106 364.551 95.3636C364.551 94.7339 364.484 94.1977 364.349 93.755C364.216 93.3123 364.024 92.9749 363.773 92.7429C363.525 92.5109 363.225 92.3949 362.875 92.3949C362.349 92.3949 361.939 92.6541 361.643 93.1726C361.347 93.6887 361.199 94.419 361.199 95.3636C361.199 95.9934 361.265 96.5284 361.398 96.9688C361.53 97.4091 361.721 97.7441 361.969 97.9737C362.22 98.2034 362.522 98.3182 362.875 98.3182Z" fill="#69707D"/>
<path d="M407 94V344" stroke="#E9EDF3"/>
<rect x="394" y="168.786" width="12.7" height="175.214" fill="#B2C8EE"/>
<rect x="406.7" y="237.162" width="12.7" height="106.838" fill="#0452A1"/>
<path d="M440.4 94V344" stroke="#E9EDF3"/>
<rect x="427.133" y="270.332" width="12.8067" height="73.6677" fill="#B2C8EE"/>
<rect x="440.1" y="261.712" width="12.7" height="82.2884" fill="#0452A1"/>
<path d="M473.8 94V344" stroke="#E9EDF3"/>
<rect x="460.8" y="257.009" width="12.7" height="86.9906" fill="#B2C8EE"/>
<rect x="473.5" y="282.088" width="12.7" height="61.9122" fill="#0452A1"/>
<path d="M507.2 94V344" stroke="#E9EDF3"/>
<rect x="494.2" y="248.389" width="12.7" height="95.6113" fill="#B2C8EE"/>
<rect x="506.9" y="276.602" width="12.7" height="67.3981" fill="#0452A1"/>
<path d="M540.6 94V344" stroke="#E9EDF3"/>
<rect x="527.6" y="238.201" width="12.7" height="105.799" fill="#B2C8EE"/>
<rect x="540.3" y="294.627" width="12.7" height="49.373" fill="#0452A1"/>
<path d="M574 94V344" stroke="#E9EDF3"/>
<rect x="561.447" y="219" width="12.0739" height="125" fill="#B2C8EE"/>
<rect x="573.7" y="238.201" width="12.7" height="105.799" fill="#0452A1"/>
<path d="M607.4 94V344" stroke="#E9EDF3"/>
<rect x="594.946" y="258.062" width="12.2903" height="85.9375" fill="#B2C8EE"/>
<rect x="607.237" y="248.688" width="12.2903" height="95.3125" fill="#0452A1"/>
<path d="M640.8 94V344" stroke="#E9EDF3"/>
<rect x="628.426" y="195.266" width="12.0739" height="148.734" fill="#B2C8EE"/>
<rect x="640.5" y="261.722" width="12.0739" height="82.2785" fill="#0452A1"/>
<path d="M674.2 94V344" stroke="#E9EDF3"/>
<rect x="660.574" y="296.532" width="13.4155" height="47.4684" fill="#B2C8EE"/>
<rect x="673.989" y="214.253" width="12.0739" height="129.747" fill="#0452A1"/>
<path d="M707.6 94V344" stroke="#E9EDF3"/>
<rect x="694.063" y="269.633" width="13.4155" height="74.3671" fill="#B2C8EE"/>
<rect x="707.479" y="250.646" width="12.0739" height="93.3544" fill="#0452A1"/>
<path d="M741 94V344" stroke="#E9EDF3"/>
<rect x="727.553" y="261.721" width="13.4155" height="82.2785" fill="#B2C8EE"/>
<rect x="740.968" y="274.38" width="12.0739" height="69.6202" fill="#0452A1"/>
<path d="M774.4 94V344" stroke="#E9EDF3"/>
<rect x="761.042" y="207.924" width="13.4155" height="136.076" fill="#B2C8EE"/>
<rect x="774.458" y="255.392" width="12.0739" height="88.6076" fill="#0452A1"/>
<path d="M807.8 94V344" stroke="#E9EDF3"/>
<rect x="794.8" y="169.235" width="12.7" height="174.765" fill="#B2C8EE"/>
<rect x="807.947" y="223.747" width="12.0739" height="120.253" fill="#0452A1"/>
<path d="M841.2 94V344" stroke="#E9EDF3"/>
<rect x="828.021" y="144.633" width="13.4155" height="199.367" fill="#B2C8EE"/>
<rect x="841.437" y="206.342" width="12.0739" height="137.658" fill="#0452A1"/>
<path d="M874.6 94V344" stroke="#E9EDF3"/>
<rect x="861.511" y="122.481" width="13.4155" height="221.519" fill="#B2C8EE"/>
<rect x="874.71" y="190.875" width="12.2903" height="153.125" fill="#0452A1"/>
<rect x="374" y="94" width="533" height="250" stroke="#E9EDF3"/>
<path d="M399.31 332.727V340H398.429V333.651H398.386L396.611 334.83V333.935L398.429 332.727H399.31ZM405.279 335.767L404.526 335.98C404.479 335.855 404.409 335.733 404.317 335.614C404.227 335.494 404.104 335.394 403.947 335.316C403.791 335.238 403.591 335.199 403.347 335.199C403.013 335.199 402.735 335.276 402.513 335.43C402.293 335.581 402.183 335.774 402.183 336.009C402.183 336.217 402.258 336.381 402.41 336.502C402.561 336.623 402.798 336.723 403.12 336.804L403.93 337.003C404.417 337.121 404.781 337.302 405.02 337.546C405.259 337.788 405.379 338.099 405.379 338.48C405.379 338.793 405.289 339.072 405.109 339.318C404.931 339.564 404.683 339.759 404.363 339.901C404.043 340.043 403.672 340.114 403.248 340.114C402.692 340.114 402.231 339.993 401.866 339.751C401.502 339.51 401.271 339.157 401.174 338.693L401.969 338.494C402.045 338.788 402.188 339.008 402.399 339.155C402.612 339.302 402.89 339.375 403.234 339.375C403.624 339.375 403.934 339.292 404.164 339.126C404.396 338.958 404.512 338.757 404.512 338.523C404.512 338.333 404.446 338.175 404.313 338.047C404.181 337.917 403.977 337.82 403.702 337.756L402.793 337.543C402.294 337.424 401.927 337.241 401.692 336.992C401.46 336.741 401.344 336.428 401.344 336.051C401.344 335.743 401.431 335.471 401.604 335.234C401.779 334.998 402.017 334.812 402.317 334.677C402.621 334.542 402.964 334.474 403.347 334.474C403.887 334.474 404.311 334.593 404.619 334.83C404.929 335.066 405.149 335.379 405.279 335.767ZM409.012 334.545V335.256H406.186V334.545H409.012ZM407.009 333.239H407.847V338.438C407.847 338.674 407.882 338.852 407.95 338.97C408.021 339.086 408.111 339.164 408.22 339.205C408.332 339.242 408.449 339.261 408.572 339.261C408.664 339.261 408.74 339.257 408.799 339.247C408.858 339.235 408.906 339.226 408.941 339.219L409.112 339.972C409.055 339.993 408.976 340.014 408.874 340.036C408.772 340.059 408.643 340.071 408.487 340.071C408.25 340.071 408.018 340.02 407.791 339.918C407.566 339.817 407.379 339.661 407.23 339.453C407.083 339.245 407.009 338.982 407.009 338.665V333.239Z" fill="#69707D"/>
<path d="M463.085 340.099C462.616 340.099 462.199 340.019 461.832 339.858C461.467 339.697 461.177 339.473 460.962 339.187C460.749 338.898 460.633 338.563 460.614 338.182H461.509C461.527 338.416 461.608 338.619 461.75 338.789C461.892 338.957 462.078 339.087 462.308 339.18C462.537 339.272 462.792 339.318 463.071 339.318C463.384 339.318 463.661 339.264 463.902 339.155C464.143 339.046 464.333 338.894 464.47 338.7C464.607 338.506 464.676 338.281 464.676 338.026C464.676 337.758 464.61 337.522 464.477 337.319C464.345 337.113 464.151 336.952 463.895 336.836C463.639 336.72 463.327 336.662 462.957 336.662H462.375V335.881H462.957C463.246 335.881 463.5 335.829 463.717 335.724C463.938 335.62 464.109 335.473 464.232 335.284C464.358 335.095 464.42 334.872 464.42 334.616C464.42 334.37 464.366 334.156 464.257 333.974C464.148 333.791 463.994 333.649 463.795 333.548C463.599 333.446 463.367 333.395 463.099 333.395C462.848 333.395 462.612 333.441 462.389 333.533C462.169 333.623 461.989 333.755 461.849 333.928C461.71 334.098 461.634 334.304 461.622 334.545H460.77C460.784 334.164 460.899 333.83 461.114 333.544C461.33 333.255 461.612 333.03 461.96 332.869C462.31 332.708 462.695 332.628 463.114 332.628C463.563 332.628 463.949 332.719 464.271 332.901C464.593 333.081 464.841 333.319 465.013 333.615C465.186 333.911 465.273 334.231 465.273 334.574C465.273 334.983 465.165 335.333 464.95 335.621C464.737 335.91 464.446 336.11 464.08 336.222V336.278C464.539 336.354 464.897 336.549 465.156 336.864C465.414 337.177 465.543 337.564 465.543 338.026C465.543 338.421 465.435 338.776 465.219 339.091C465.006 339.403 464.715 339.65 464.346 339.83C463.977 340.009 463.556 340.099 463.085 340.099ZM467.009 340V334.545H467.819V335.369H467.876C467.975 335.099 468.155 334.88 468.415 334.712C468.676 334.544 468.969 334.46 469.296 334.46C469.358 334.46 469.435 334.461 469.527 334.464C469.619 334.466 469.689 334.47 469.737 334.474V335.327C469.708 335.32 469.643 335.309 469.541 335.295C469.442 335.278 469.336 335.27 469.225 335.27C468.96 335.27 468.723 335.326 468.515 335.437C468.309 335.546 468.146 335.697 468.025 335.891C467.906 336.083 467.847 336.302 467.847 336.548V340H467.009ZM472.624 340.114C472.169 340.114 471.768 339.999 471.42 339.769C471.072 339.537 470.799 339.21 470.603 338.789C470.406 338.365 470.308 337.865 470.308 337.287C470.308 336.714 470.406 336.217 470.603 335.795C470.799 335.374 471.073 335.049 471.423 334.819C471.774 334.589 472.179 334.474 472.638 334.474C472.993 334.474 473.273 334.534 473.479 334.652C473.688 334.768 473.846 334.901 473.955 335.05C474.067 335.196 474.153 335.317 474.214 335.412H474.286V332.727H475.124V340H474.314V339.162H474.214C474.153 339.261 474.065 339.387 473.952 339.538C473.838 339.687 473.676 339.821 473.465 339.94C473.254 340.056 472.974 340.114 472.624 340.114ZM472.737 339.361C473.073 339.361 473.357 339.273 473.589 339.098C473.821 338.92 473.998 338.675 474.119 338.363C474.239 338.048 474.3 337.685 474.3 337.273C474.3 336.866 474.241 336.509 474.122 336.204C474.004 335.896 473.829 335.657 473.597 335.487C473.365 335.314 473.078 335.227 472.737 335.227C472.382 335.227 472.086 335.318 471.849 335.501C471.615 335.681 471.439 335.926 471.32 336.236C471.204 336.544 471.146 336.889 471.146 337.273C471.146 337.661 471.205 338.014 471.324 338.331C471.445 338.646 471.622 338.897 471.857 339.084C472.093 339.268 472.387 339.361 472.737 339.361Z" fill="#69707D"/>
<path d="M526.918 340.099C526.619 340.095 526.321 340.038 526.023 339.929C525.724 339.82 525.452 339.637 525.206 339.379C524.96 339.118 524.762 338.767 524.613 338.324C524.464 337.879 524.389 337.32 524.389 336.648C524.389 336.004 524.45 335.433 524.57 334.936C524.691 334.437 524.866 334.016 525.096 333.675C525.326 333.332 525.603 333.072 525.927 332.894C526.254 332.717 526.622 332.628 527.031 332.628C527.438 332.628 527.801 332.71 528.118 332.873C528.438 333.034 528.698 333.259 528.899 333.548C529.1 333.836 529.231 334.169 529.29 334.545H528.423C528.343 334.219 528.187 333.948 527.955 333.732C527.723 333.517 527.415 333.409 527.031 333.409C526.468 333.409 526.024 333.654 525.7 334.144C525.378 334.634 525.215 335.322 525.213 336.207H525.27C525.402 336.006 525.56 335.835 525.742 335.692C525.927 335.548 526.13 335.437 526.353 335.359C526.576 335.281 526.811 335.241 527.06 335.241C527.476 335.241 527.857 335.346 528.203 335.554C528.549 335.76 528.826 336.045 529.034 336.41C529.242 336.772 529.347 337.188 529.347 337.656C529.347 338.106 529.246 338.518 529.045 338.892C528.844 339.264 528.561 339.56 528.196 339.78C527.834 339.998 527.408 340.104 526.918 340.099ZM526.918 339.318C527.216 339.318 527.483 339.244 527.72 339.094C527.959 338.945 528.147 338.745 528.285 338.494C528.424 338.243 528.494 337.964 528.494 337.656C528.494 337.356 528.427 337.082 528.292 336.836C528.159 336.587 527.976 336.39 527.741 336.243C527.509 336.096 527.244 336.023 526.946 336.023C526.721 336.023 526.512 336.068 526.317 336.158C526.123 336.245 525.953 336.366 525.806 336.52C525.662 336.674 525.548 336.85 525.465 337.049C525.382 337.246 525.341 337.453 525.341 337.67C525.341 337.959 525.408 338.229 525.543 338.48C525.681 338.731 525.868 338.933 526.104 339.087C526.344 339.241 526.615 339.318 526.918 339.318ZM533.129 334.545V335.256H530.303V334.545H533.129ZM531.127 333.239H531.965V338.438C531.965 338.674 531.999 338.852 532.068 338.97C532.139 339.086 532.229 339.164 532.338 339.205C532.449 339.242 532.566 339.261 532.689 339.261C532.781 339.261 532.857 339.257 532.916 339.247C532.976 339.235 533.023 339.226 533.058 339.219L533.229 339.972C533.172 339.993 533.093 340.014 532.991 340.036C532.889 340.059 532.76 340.071 532.604 340.071C532.367 340.071 532.135 340.02 531.908 339.918C531.683 339.817 531.496 339.661 531.347 339.453C531.2 339.245 531.127 338.982 531.127 338.665V333.239ZM535.345 336.719V340H534.507V332.727H535.345V335.398H535.416C535.544 335.116 535.736 334.892 535.992 334.727C536.25 334.558 536.593 334.474 537.021 334.474C537.393 334.474 537.719 334.549 537.998 334.698C538.277 334.845 538.494 335.071 538.648 335.376C538.804 335.679 538.882 336.065 538.882 336.534V340H538.044V336.591C538.044 336.158 537.932 335.823 537.707 335.586C537.484 335.347 537.175 335.227 536.78 335.227C536.505 335.227 536.259 335.285 536.041 335.401C535.826 335.517 535.655 335.687 535.53 335.909C535.407 336.132 535.345 336.402 535.345 336.719Z" fill="#69707D"/>
<path d="M590.693 332.628C590.991 332.63 591.29 332.687 591.588 332.798C591.886 332.91 592.159 333.094 592.405 333.352C592.651 333.608 592.849 333.957 592.998 334.4C593.147 334.843 593.222 335.398 593.222 336.065C593.222 336.712 593.16 337.286 593.037 337.788C592.916 338.287 592.741 338.709 592.511 339.052C592.284 339.395 592.007 339.656 591.68 339.833C591.356 340.011 590.989 340.099 590.58 340.099C590.172 340.099 589.809 340.019 589.489 339.858C589.172 339.695 588.912 339.469 588.708 339.18C588.507 338.888 588.378 338.551 588.321 338.168H589.188C589.266 338.501 589.421 338.777 589.653 338.995C589.887 339.21 590.196 339.318 590.58 339.318C591.141 339.318 591.583 339.073 591.908 338.583C592.234 338.093 592.398 337.401 592.398 336.506H592.341C592.208 336.705 592.051 336.876 591.869 337.021C591.686 337.165 591.484 337.276 591.261 337.354C591.039 337.433 590.802 337.472 590.551 337.472C590.134 337.472 589.752 337.369 589.404 337.163C589.058 336.954 588.781 336.669 588.573 336.307C588.367 335.942 588.264 335.526 588.264 335.057C588.264 334.612 588.364 334.205 588.562 333.835C588.764 333.464 589.045 333.168 589.408 332.947C589.772 332.727 590.201 332.621 590.693 332.628ZM590.693 333.409C590.395 333.409 590.126 333.484 589.887 333.633C589.65 333.78 589.462 333.978 589.322 334.229C589.185 334.478 589.116 334.754 589.116 335.057C589.116 335.36 589.183 335.636 589.315 335.884C589.45 336.13 589.634 336.327 589.866 336.474C590.1 336.618 590.366 336.69 590.665 336.69C590.89 336.69 591.099 336.647 591.293 336.559C591.487 336.469 591.657 336.347 591.801 336.193C591.948 336.037 592.063 335.861 592.146 335.664C592.228 335.465 592.27 335.258 592.27 335.043C592.27 334.759 592.201 334.492 592.064 334.244C591.929 333.995 591.742 333.794 591.503 333.64C591.266 333.486 590.996 333.409 590.693 333.409ZM597.004 334.545V335.256H594.178V334.545H597.004ZM595.002 333.239H595.84V338.438C595.84 338.674 595.874 338.852 595.943 338.97C596.014 339.086 596.104 339.164 596.213 339.205C596.324 339.242 596.441 339.261 596.564 339.261C596.656 339.261 596.732 339.257 596.791 339.247C596.851 339.235 596.898 339.226 596.933 339.219L597.104 339.972C597.047 339.993 596.968 340.014 596.866 340.036C596.764 340.059 596.635 340.071 596.479 340.071C596.242 340.071 596.01 340.02 595.783 339.918C595.558 339.817 595.371 339.661 595.222 339.453C595.075 339.245 595.002 338.982 595.002 338.665V333.239ZM599.22 336.719V340H598.382V332.727H599.22V335.398H599.291C599.419 335.116 599.611 334.892 599.867 334.727C600.125 334.558 600.468 334.474 600.896 334.474C601.268 334.474 601.594 334.549 601.873 334.698C602.152 334.845 602.369 335.071 602.523 335.376C602.679 335.679 602.757 336.065 602.757 336.534V340H601.919V336.591C601.919 336.158 601.807 335.823 601.582 335.586C601.359 335.347 601.05 335.227 600.655 335.227C600.38 335.227 600.134 335.285 599.916 335.401C599.701 335.517 599.53 335.687 599.405 335.909C599.282 336.132 599.22 336.402 599.22 336.719Z" fill="#69707D"/>
<path d="M654.81 332.727V340H653.929V333.651H653.886L652.111 334.83V333.935L653.929 332.727H654.81ZM656.901 340V339.361L659.302 336.733C659.584 336.425 659.816 336.158 659.998 335.93C660.18 335.701 660.315 335.485 660.403 335.284C660.493 335.08 660.538 334.867 660.538 334.645C660.538 334.389 660.476 334.168 660.353 333.981C660.232 333.794 660.067 333.649 659.856 333.548C659.645 333.446 659.408 333.395 659.146 333.395C658.866 333.395 658.622 333.453 658.414 333.569C658.208 333.683 658.048 333.842 657.935 334.048C657.823 334.254 657.768 334.496 657.768 334.773H656.93C656.93 334.347 657.028 333.973 657.224 333.651C657.421 333.329 657.688 333.078 658.027 332.898C658.368 332.718 658.75 332.628 659.174 332.628C659.6 332.628 659.978 332.718 660.307 332.898C660.636 333.078 660.894 333.32 661.081 333.626C661.268 333.931 661.362 334.271 661.362 334.645C661.362 334.912 661.313 335.174 661.216 335.43C661.121 335.683 660.955 335.966 660.719 336.278C660.484 336.589 660.159 336.967 659.742 337.415L658.109 339.162V339.219H661.489V340H656.901ZM665.342 334.545V335.256H662.516V334.545H665.342ZM663.339 333.239H664.178V338.438C664.178 338.674 664.212 338.852 664.281 338.97C664.352 339.086 664.442 339.164 664.55 339.205C664.662 339.242 664.779 339.261 664.902 339.261C664.994 339.261 665.07 339.257 665.129 339.247C665.188 339.235 665.236 339.226 665.271 339.219L665.442 339.972C665.385 339.993 665.306 340.014 665.204 340.036C665.102 340.059 664.973 340.071 664.817 340.071C664.58 340.071 664.348 340.02 664.121 339.918C663.896 339.817 663.709 339.661 663.56 339.453C663.413 339.245 663.339 338.982 663.339 338.665V333.239ZM667.558 336.719V340H666.72V332.727H667.558V335.398H667.629C667.757 335.116 667.949 334.892 668.205 334.727C668.463 334.558 668.806 334.474 669.234 334.474C669.606 334.474 669.932 334.549 670.211 334.698C670.49 334.845 670.707 335.071 670.861 335.376C671.017 335.679 671.095 336.065 671.095 336.534V340H670.257V336.591C670.257 336.158 670.145 335.823 669.92 335.586C669.697 335.347 669.388 335.227 668.993 335.227C668.718 335.227 668.472 335.285 668.254 335.401C668.039 335.517 667.868 335.687 667.743 335.909C667.62 336.132 667.558 336.402 667.558 336.719Z" fill="#69707D"/>
<path d="M718.685 332.727V340H717.804V333.651H717.761L715.986 334.83V333.935L717.804 332.727H718.685ZM723.049 340.099C722.632 340.099 722.257 340.017 721.923 339.851C721.589 339.685 721.322 339.458 721.121 339.169C720.92 338.88 720.809 338.551 720.79 338.182H721.643C721.676 338.511 721.825 338.783 722.09 338.999C722.358 339.212 722.677 339.318 723.049 339.318C723.347 339.318 723.612 339.248 723.844 339.109C724.079 338.969 724.262 338.777 724.395 338.533C724.53 338.287 724.597 338.009 724.597 337.699C724.597 337.382 724.527 337.099 724.388 336.85C724.25 336.599 724.061 336.402 723.82 336.257C723.578 336.113 723.302 336.039 722.992 336.037C722.77 336.035 722.541 336.069 722.307 336.14C722.072 336.209 721.879 336.297 721.728 336.406L720.904 336.307L721.344 332.727H725.123V333.509H722.083L721.827 335.653H721.87C722.019 335.535 722.206 335.437 722.431 335.359C722.656 335.281 722.89 335.241 723.134 335.241C723.579 335.241 723.976 335.348 724.324 335.561C724.674 335.772 724.949 336.061 725.148 336.428C725.349 336.795 725.45 337.214 725.45 337.685C725.45 338.149 725.345 338.563 725.137 338.928C724.931 339.29 724.647 339.576 724.285 339.787C723.923 339.995 723.511 340.099 723.049 340.099ZM729.247 334.545V335.256H726.42V334.545H729.247ZM727.244 333.239H728.082V338.438C728.082 338.674 728.116 338.852 728.185 338.97C728.256 339.086 728.346 339.164 728.455 339.205C728.566 339.242 728.683 339.261 728.806 339.261C728.899 339.261 728.974 339.257 729.034 339.247C729.093 339.235 729.14 339.226 729.176 339.219L729.346 339.972C729.289 339.993 729.21 340.014 729.108 340.036C729.006 340.059 728.877 340.071 728.721 340.071C728.484 340.071 728.252 340.02 728.025 339.918C727.8 339.817 727.613 339.661 727.464 339.453C727.317 339.245 727.244 338.982 727.244 338.665V333.239ZM731.463 336.719V340H730.624V332.727H731.463V335.398H731.534C731.661 335.116 731.853 334.892 732.109 334.727C732.367 334.558 732.71 334.474 733.139 334.474C733.51 334.474 733.836 334.549 734.115 334.698C734.395 334.845 734.611 335.071 734.765 335.376C734.921 335.679 734.999 336.065 734.999 336.534V340H734.161V336.591C734.161 336.158 734.049 335.823 733.824 335.586C733.602 335.347 733.293 335.227 732.897 335.227C732.623 335.227 732.376 335.285 732.159 335.401C731.943 335.517 731.773 335.687 731.647 335.909C731.524 336.132 731.463 336.402 731.463 336.719Z" fill="#69707D"/>
<path d="M782.56 332.727V340H781.679V333.651H781.636L779.861 334.83V333.935L781.679 332.727H782.56ZM786.981 340.099C786.493 340.099 786.062 340.013 785.688 339.84C785.317 339.665 785.027 339.425 784.818 339.119C784.61 338.812 784.507 338.461 784.509 338.068C784.507 337.76 784.567 337.476 784.69 337.216C784.813 336.953 784.982 336.734 785.195 336.559C785.41 336.381 785.65 336.269 785.915 336.222V336.179C785.567 336.089 785.29 335.894 785.085 335.593C784.879 335.29 784.777 334.946 784.779 334.56C784.777 334.19 784.87 333.86 785.06 333.569C785.249 333.278 785.509 333.048 785.841 332.88C786.175 332.712 786.555 332.628 786.981 332.628C787.402 332.628 787.779 332.712 788.11 332.88C788.442 333.048 788.702 333.278 788.891 333.569C789.083 333.86 789.18 334.19 789.183 334.56C789.18 334.946 789.075 335.29 788.866 335.593C788.661 335.894 788.387 336.089 788.046 336.179V336.222C788.309 336.269 788.546 336.381 788.756 336.559C788.967 336.734 789.135 336.953 789.261 337.216C789.386 337.476 789.45 337.76 789.452 338.068C789.45 338.461 789.344 338.812 789.133 339.119C788.924 339.425 788.634 339.665 788.263 339.84C787.893 340.013 787.466 340.099 786.981 340.099ZM786.981 339.318C787.31 339.318 787.594 339.265 787.833 339.158C788.072 339.052 788.257 338.902 788.387 338.707C788.517 338.513 788.584 338.286 788.586 338.026C788.584 337.751 788.513 337.508 788.373 337.298C788.233 337.087 788.043 336.921 787.801 336.8C787.562 336.68 787.289 336.619 786.981 336.619C786.671 336.619 786.394 336.68 786.15 336.8C785.908 336.921 785.718 337.087 785.578 337.298C785.441 337.508 785.373 337.751 785.376 338.026C785.373 338.286 785.436 338.513 785.564 338.707C785.694 338.902 785.88 339.052 786.121 339.158C786.363 339.265 786.649 339.318 786.981 339.318ZM786.981 335.866C787.241 335.866 787.472 335.814 787.673 335.71C787.877 335.606 788.037 335.46 788.153 335.273C788.269 335.086 788.328 334.867 788.33 334.616C788.328 334.37 788.27 334.156 788.156 333.974C788.043 333.789 787.885 333.647 787.684 333.548C787.483 333.446 787.248 333.395 786.981 333.395C786.709 333.395 786.471 333.446 786.267 333.548C786.063 333.647 785.906 333.789 785.795 333.974C785.683 334.156 785.629 334.37 785.631 334.616C785.629 334.867 785.685 335.086 785.798 335.273C785.914 335.46 786.074 335.606 786.278 335.71C786.481 335.814 786.716 335.866 786.981 335.866ZM793.2 334.545V335.256H790.373V334.545H793.2ZM791.197 333.239H792.035V338.438C792.035 338.674 792.069 338.852 792.138 338.97C792.209 339.086 792.299 339.164 792.408 339.205C792.519 339.242 792.636 339.261 792.759 339.261C792.852 339.261 792.927 339.257 792.987 339.247C793.046 339.235 793.093 339.226 793.129 339.219L793.299 339.972C793.242 339.993 793.163 340.014 793.061 340.036C792.959 340.059 792.83 340.071 792.674 340.071C792.437 340.071 792.205 340.02 791.978 339.918C791.753 339.817 791.566 339.661 791.417 339.453C791.27 339.245 791.197 338.982 791.197 338.665V333.239ZM795.416 336.719V340H794.578V332.727H795.416V335.398H795.487C795.615 335.116 795.806 334.892 796.062 334.727C796.32 334.558 796.663 334.474 797.092 334.474C797.463 334.474 797.789 334.549 798.068 334.698C798.348 334.845 798.564 335.071 798.718 335.376C798.874 335.679 798.953 336.065 798.953 336.534V340H798.115V336.591C798.115 336.158 798.002 335.823 797.777 335.586C797.555 335.347 797.246 335.227 796.85 335.227C796.576 335.227 796.329 335.285 796.112 335.401C795.896 335.517 795.726 335.687 795.6 335.909C795.477 336.132 795.416 336.402 795.416 336.719Z" fill="#69707D"/>
<path d="M843.878 340V339.361L846.278 336.733C846.56 336.425 846.792 336.158 846.974 335.93C847.157 335.701 847.292 335.485 847.379 335.284C847.469 335.08 847.514 334.867 847.514 334.645C847.514 334.389 847.453 334.168 847.33 333.981C847.209 333.794 847.043 333.649 846.832 333.548C846.622 333.446 846.385 333.395 846.122 333.395C845.843 333.395 845.599 333.453 845.391 333.569C845.185 333.683 845.025 333.842 844.911 334.048C844.8 334.254 844.744 334.496 844.744 334.773H843.906C843.906 334.347 844.004 333.973 844.201 333.651C844.397 333.329 844.665 333.078 845.004 332.898C845.344 332.718 845.727 332.628 846.151 332.628C846.577 332.628 846.954 332.718 847.283 332.898C847.612 333.078 847.871 333.32 848.058 333.626C848.245 333.931 848.338 334.271 848.338 334.645C848.338 334.912 848.29 335.174 848.192 335.43C848.098 335.683 847.932 335.966 847.695 336.278C847.461 336.589 847.135 336.967 846.719 337.415L845.085 339.162V339.219H848.466V340H843.878ZM852.489 332.727V340H851.609V333.651H851.566L849.79 334.83V333.935L851.609 332.727H852.489ZM858.459 335.767L857.706 335.98C857.659 335.855 857.589 335.733 857.496 335.614C857.406 335.494 857.283 335.394 857.127 335.316C856.971 335.238 856.771 335.199 856.527 335.199C856.193 335.199 855.915 335.276 855.692 335.43C855.472 335.581 855.362 335.774 855.362 336.009C855.362 336.217 855.438 336.381 855.589 336.502C855.741 336.623 855.978 336.723 856.3 336.804L857.109 337.003C857.597 337.121 857.96 337.302 858.2 337.546C858.439 337.788 858.558 338.099 858.558 338.48C858.558 338.793 858.468 339.072 858.288 339.318C858.111 339.564 857.862 339.759 857.543 339.901C857.223 340.043 856.851 340.114 856.428 340.114C855.871 340.114 855.411 339.993 855.046 339.751C854.682 339.51 854.451 339.157 854.354 338.693L855.149 338.494C855.225 338.788 855.368 339.008 855.579 339.155C855.792 339.302 856.07 339.375 856.413 339.375C856.804 339.375 857.114 339.292 857.344 339.126C857.576 338.958 857.692 338.757 857.692 338.523C857.692 338.333 857.625 338.175 857.493 338.047C857.36 337.917 857.157 337.82 856.882 337.756L855.973 337.543C855.473 337.424 855.107 337.241 854.872 336.992C854.64 336.741 854.524 336.428 854.524 336.051C854.524 335.743 854.611 335.471 854.783 335.234C854.959 334.998 855.196 334.812 855.497 334.677C855.8 334.542 856.143 334.474 856.527 334.474C857.067 334.474 857.491 334.593 857.798 334.83C858.108 335.066 858.329 335.379 858.459 335.767ZM862.192 334.545V335.256H859.365V334.545H862.192ZM860.189 333.239H861.027V338.438C861.027 338.674 861.061 338.852 861.13 338.97C861.201 339.086 861.291 339.164 861.4 339.205C861.511 339.242 861.628 339.261 861.752 339.261C861.844 339.261 861.92 339.257 861.979 339.247C862.038 339.235 862.085 339.226 862.121 339.219L862.291 339.972C862.235 339.993 862.155 340.014 862.053 340.036C861.952 340.059 861.823 340.071 861.666 340.071C861.43 340.071 861.198 340.02 860.97 339.918C860.745 339.817 860.558 339.661 860.409 339.453C860.262 339.245 860.189 338.982 860.189 338.665V333.239Z" fill="#69707D"/>
<defs>
<filter id="filter0_dd_1713_24245" x="325" y="65" width="604" height="324.3" filterUnits="userSpaceOnUse" color-interpolation-filters="sRGB">
<feFlood flood-opacity="0" result="BackgroundImageFix"/>
<feColorMatrix in="SourceAlpha" type="matrix" values="0 0 0 0 0 0 0 0 0 0 0 0 0 0 0 0 0 0 127 0" result="hardAlpha"/>
<feOffset dy="2.3"/>
<feGaussianBlur stdDeviation="1"/>
<feColorMatrix type="matrix" values="0 0 0 0 0 0 0 0 0 0 0 0 0 0 0 0 0 0 0.03 0"/>
<feBlend mode="normal" in2="BackgroundImageFix" result="effect1_dropShadow_1713_24245"/>
<feColorMatrix in="SourceAlpha" type="matrix" values="0 0 0 0 0 0 0 0 0 0 0 0 0 0 0 0 0 0 127 0" result="hardAlpha"/>
<feOffset dy="0.8"/>
<feGaussianBlur stdDeviation="0.4"/>
<feColorMatrix type="matrix" values="0 0 0 0 0 0 0 0 0 0 0 0 0 0 0 0 0 0 0.04 0"/>
<feBlend mode="normal" in2="effect1_dropShadow_1713_24245" result="effect2_dropShadow_1713_24245"/>
<feBlend mode="normal" in="SourceGraphic" in2="effect2_dropShadow_1713_24245" result="shape"/>
</filter>
<filter id="filter1_dd_1713_24245" x="105" y="65" width="204" height="154.3" filterUnits="userSpaceOnUse" color-interpolation-filters="sRGB">
<feFlood flood-opacity="0" result="BackgroundImageFix"/>
<feColorMatrix in="SourceAlpha" type="matrix" values="0 0 0 0 0 0 0 0 0 0 0 0 0 0 0 0 0 0 127 0" result="hardAlpha"/>
<feOffset dy="2.3"/>
<feGaussianBlur stdDeviation="1"/>
<feColorMatrix type="matrix" values="0 0 0 0 0 0 0 0 0 0 0 0 0 0 0 0 0 0 0.03 0"/>
<feBlend mode="normal" in2="BackgroundImageFix" result="effect1_dropShadow_1713_24245"/>
<feColorMatrix in="SourceAlpha" type="matrix" values="0 0 0 0 0 0 0 0 0 0 0 0 0 0 0 0 0 0 127 0" result="hardAlpha"/>
<feOffset dy="0.8"/>
<feGaussianBlur stdDeviation="0.4"/>
<feColorMatrix type="matrix" values="0 0 0 0 0 0 0 0 0 0 0 0 0 0 0 0 0 0 0.04 0"/>
<feBlend mode="normal" in2="effect1_dropShadow_1713_24245" result="effect2_dropShadow_1713_24245"/>
<feBlend mode="normal" in="SourceGraphic" in2="effect2_dropShadow_1713_24245" result="shape"/>
</filter>
<filter id="filter2_dd_1713_24245" x="105" y="235" width="204" height="154.3" filterUnits="userSpaceOnUse" color-interpolation-filters="sRGB">
<feFlood flood-opacity="0" result="BackgroundImageFix"/>
<feColorMatrix in="SourceAlpha" type="matrix" values="0 0 0 0 0 0 0 0 0 0 0 0 0 0 0 0 0 0 127 0" result="hardAlpha"/>
<feOffset dy="2.3"/>
<feGaussianBlur stdDeviation="1"/>
<feColorMatrix type="matrix" values="0 0 0 0 0 0 0 0 0 0 0 0 0 0 0 0 0 0 0.03 0"/>
<feBlend mode="normal" in2="BackgroundImageFix" result="effect1_dropShadow_1713_24245"/>
<feColorMatrix in="SourceAlpha" type="matrix" values="0 0 0 0 0 0 0 0 0 0 0 0 0 0 0 0 0 0 127 0" result="hardAlpha"/>
<feOffset dy="0.8"/>
<feGaussianBlur stdDeviation="0.4"/>
<feColorMatrix type="matrix" values="0 0 0 0 0 0 0 0 0 0 0 0 0 0 0 0 0 0 0.04 0"/>
<feBlend mode="normal" in2="effect1_dropShadow_1713_24245" result="effect2_dropShadow_1713_24245"/>
<feBlend mode="normal" in="SourceGraphic" in2="effect2_dropShadow_1713_24245" result="shape"/>
</filter>
<clipPath id="clip0_1713_24245">
<rect x="107" y="65" width="200" height="150" rx="6" fill="white"/>
</clipPath>
<clipPath id="clip1_1713_24245">
<rect x="107" y="235" width="200" height="150" rx="6" fill="white"/>
</clipPath>
</defs>
</svg>
