<svg width="680" height="532" viewBox="0 0 680 532" fill="none" xmlns="http://www.w3.org/2000/svg">
<g filter="url(#filter0_dd_1732_43337)">
<rect x="60" y="60" width="560" height="196" rx="6" fill="white"/>
</g>
<g filter="url(#filter1_dd_1732_43337)">
<rect x="60" y="276" width="560" height="196" rx="6" fill="white"/>
</g>
<path d="M87.875 208.499C87.34 208.499 86.8842 208.354 86.5078 208.063C86.1314 207.769 85.8438 207.344 85.6449 206.788C85.446 206.229 85.3466 205.554 85.3466 204.764C85.3466 203.978 85.446 203.307 85.6449 202.75C85.8461 202.191 86.1349 201.765 86.5114 201.472C86.8902 201.176 87.3447 201.028 87.875 201.028C88.4053 201.028 88.8587 201.176 89.2351 201.472C89.6139 201.765 89.9027 202.191 90.1016 202.75C90.3028 203.307 90.4034 203.978 90.4034 204.764C90.4034 205.554 90.304 206.229 90.1051 206.788C89.9062 207.344 89.6186 207.769 89.2422 208.063C88.8658 208.354 88.41 208.499 87.875 208.499ZM87.875 207.718C88.4053 207.718 88.8172 207.463 89.1108 206.951C89.4044 206.44 89.5511 205.711 89.5511 204.764C89.5511 204.134 89.4837 203.598 89.3487 203.155C89.2161 202.712 89.0244 202.375 88.7734 202.143C88.5249 201.911 88.2254 201.795 87.875 201.795C87.3494 201.795 86.9387 202.054 86.6428 202.573C86.3468 203.089 86.1989 203.819 86.1989 204.764C86.1989 205.393 86.2652 205.928 86.3977 206.369C86.5303 206.809 86.7209 207.144 86.9695 207.374C87.2204 207.603 87.5223 207.718 87.875 207.718Z" fill="#0452A1"/>
<path d="M83.4112 166.777V174.05H82.5305V167.701H82.4879L80.7124 168.88V167.985L82.5305 166.777H83.4112ZM87.875 174.149C87.34 174.149 86.8842 174.004 86.5078 173.713C86.1314 173.419 85.8438 172.994 85.6449 172.438C85.446 171.879 85.3466 171.204 85.3466 170.414C85.3466 169.628 85.446 168.956 85.6449 168.4C85.8461 167.841 86.1349 167.415 86.5114 167.122C86.8902 166.826 87.3447 166.678 87.875 166.678C88.4053 166.678 88.8587 166.826 89.2351 167.122C89.6139 167.415 89.9027 167.841 90.1016 168.4C90.3028 168.956 90.4034 169.628 90.4034 170.414C90.4034 171.204 90.304 171.879 90.1051 172.438C89.9062 172.994 89.6186 173.419 89.2422 173.713C88.8658 174.004 88.41 174.149 87.875 174.149ZM87.875 173.368C88.4053 173.368 88.8172 173.112 89.1108 172.601C89.4044 172.09 89.5511 171.361 89.5511 170.414C89.5511 169.784 89.4837 169.248 89.3487 168.805C89.2161 168.362 89.0244 168.025 88.7734 167.793C88.5249 167.561 88.2254 167.445 87.875 167.445C87.3494 167.445 86.9387 167.704 86.6428 168.223C86.3468 168.739 86.1989 169.469 86.1989 170.414C86.1989 171.043 86.2652 171.578 86.3977 172.019C86.5303 172.459 86.7209 172.794 86.9695 173.024C87.2204 173.253 87.5223 173.368 87.875 173.368Z" fill="#0452A1"/>
<path d="M600 170.05L99 170.05" stroke="#E3E8F2" stroke-dasharray="5 5"/>
<path d="M79.4482 139.7V139.061L81.8487 136.433C82.1304 136.125 82.3625 135.858 82.5447 135.63C82.727 135.401 82.862 135.185 82.9496 134.984C83.0395 134.781 83.0845 134.567 83.0845 134.345C83.0845 134.089 83.023 133.868 82.8999 133.681C82.7791 133.494 82.6134 133.349 82.4027 133.248C82.192 133.146 81.9553 133.095 81.6925 133.095C81.4131 133.095 81.1693 133.153 80.9609 133.269C80.755 133.383 80.5952 133.542 80.4815 133.748C80.3703 133.954 80.3146 134.196 80.3146 134.473H79.4766C79.4766 134.047 79.5748 133.673 79.7713 133.351C79.9678 133.029 80.2353 132.778 80.5739 132.598C80.9148 132.418 81.2971 132.328 81.7209 132.328C82.147 132.328 82.5246 132.418 82.8537 132.598C83.1828 132.778 83.4408 133.02 83.6278 133.326C83.8149 133.631 83.9084 133.971 83.9084 134.345C83.9084 134.612 83.8598 134.874 83.7628 135.13C83.6681 135.383 83.5024 135.666 83.2656 135.978C83.0312 136.289 82.7057 136.667 82.2891 137.115L80.6555 138.862V138.919H84.0362V139.7H79.4482ZM87.875 139.799C87.34 139.799 86.8842 139.654 86.5078 139.363C86.1314 139.069 85.8438 138.644 85.6449 138.088C85.446 137.529 85.3466 136.854 85.3466 136.064C85.3466 135.278 85.446 134.606 85.6449 134.05C85.8461 133.491 86.1349 133.065 86.5114 132.772C86.8902 132.476 87.3447 132.328 87.875 132.328C88.4053 132.328 88.8587 132.476 89.2351 132.772C89.6139 133.065 89.9027 133.491 90.1016 134.05C90.3028 134.606 90.4034 135.278 90.4034 136.064C90.4034 136.854 90.304 137.529 90.1051 138.088C89.9062 138.644 89.6186 139.069 89.2422 139.363C88.8658 139.654 88.41 139.799 87.875 139.799ZM87.875 139.018C88.4053 139.018 88.8172 138.763 89.1108 138.251C89.4044 137.74 89.5511 137.011 89.5511 136.064C89.5511 135.434 89.4837 134.898 89.3487 134.455C89.2161 134.012 89.0244 133.675 88.7734 133.443C88.5249 133.211 88.2254 133.095 87.875 133.095C87.3494 133.095 86.9387 133.354 86.6428 133.873C86.3468 134.389 86.1989 135.119 86.1989 136.064C86.1989 136.693 86.2652 137.228 86.3977 137.669C86.5303 138.109 86.7209 138.444 86.9695 138.674C87.2204 138.903 87.5223 139.018 87.875 139.018Z" fill="#0452A1"/>
<path d="M600 135.7L99 135.7" stroke="#E3E8F2" stroke-dasharray="5 5"/>
<path d="M81.593 105.449C81.1243 105.449 80.7064 105.369 80.3395 105.208C79.9749 105.047 79.6849 104.823 79.4695 104.537C79.2564 104.248 79.1404 103.913 79.1214 103.532H80.0163C80.0353 103.766 80.1158 103.969 80.2578 104.139C80.3999 104.307 80.5857 104.437 80.8153 104.53C81.045 104.622 81.2995 104.668 81.5788 104.668C81.8913 104.668 82.1683 104.614 82.4098 104.505C82.6513 104.396 82.8407 104.244 82.978 104.05C83.1153 103.856 83.1839 103.631 83.1839 103.376C83.1839 103.108 83.1177 102.872 82.9851 102.669C82.8525 102.463 82.6584 102.302 82.4027 102.186C82.147 102.07 81.8345 102.012 81.4652 102.012H80.8828V101.231H81.4652C81.754 101.231 82.0073 101.179 82.2251 101.074C82.4453 100.97 82.617 100.823 82.7401 100.634C82.8655 100.445 82.9283 100.222 82.9283 99.9665C82.9283 99.7202 82.8738 99.506 82.7649 99.3237C82.656 99.1414 82.5021 98.9994 82.3033 98.8976C82.1068 98.7958 81.8748 98.7449 81.6072 98.7449C81.3563 98.7449 81.1196 98.791 80.897 98.8834C80.6768 98.9733 80.4969 99.1047 80.3572 99.2775C80.2176 99.448 80.1418 99.654 80.13 99.8954H79.2777C79.2919 99.5143 79.4067 99.1805 79.6222 98.894C79.8376 98.6052 80.1193 98.3803 80.4673 98.2193C80.8177 98.0583 81.2024 97.9778 81.6214 97.9778C82.0713 97.9778 82.4571 98.069 82.7791 98.2513C83.1011 98.4312 83.3485 98.6691 83.5213 98.965C83.6941 99.261 83.7805 99.5806 83.7805 99.9238C83.7805 100.333 83.6728 100.683 83.4574 100.971C83.2443 101.26 82.9543 101.46 82.5874 101.572V101.628C83.0466 101.704 83.4053 101.899 83.6634 102.214C83.9214 102.527 84.0504 102.914 84.0504 103.376C84.0504 103.771 83.9427 104.126 83.7273 104.441C83.5142 104.753 83.223 105 82.8537 105.18C82.4844 105.359 82.0642 105.449 81.593 105.449ZM87.875 105.449C87.34 105.449 86.8842 105.304 86.5078 105.013C86.1314 104.719 85.8438 104.294 85.6449 103.738C85.446 103.179 85.3466 102.504 85.3466 101.714C85.3466 100.928 85.446 100.256 85.6449 99.7001C85.8461 99.1414 86.1349 98.7153 86.5114 98.4217C86.8902 98.1258 87.3447 97.9778 87.875 97.9778C88.4053 97.9778 88.8587 98.1258 89.2351 98.4217C89.6139 98.7153 89.9027 99.1414 90.1016 99.7001C90.3028 100.256 90.4034 100.928 90.4034 101.714C90.4034 102.504 90.304 103.179 90.1051 103.738C89.9062 104.294 89.6186 104.719 89.2422 105.013C88.8658 105.304 88.41 105.449 87.875 105.449ZM87.875 104.668C88.4053 104.668 88.8172 104.412 89.1108 103.901C89.4044 103.39 89.5511 102.661 89.5511 101.714C89.5511 101.084 89.4837 100.548 89.3487 100.105C89.2161 99.6622 89.0244 99.3249 88.7734 99.0929C88.5249 98.8609 88.2254 98.7449 87.875 98.7449C87.3494 98.7449 86.9387 99.0041 86.6428 99.5226C86.3468 100.039 86.1989 100.769 86.1989 101.714C86.1989 102.343 86.2652 102.878 86.3977 103.319C86.5303 103.759 86.7209 104.094 86.9695 104.324C87.2204 104.553 87.5223 104.668 87.875 104.668Z" fill="#0452A1"/>
<path d="M600 101.35L99 101.35" stroke="#E3E8F2" stroke-dasharray="5 5"/>
<path d="M78.9164 69.5085V68.7841L82.1124 63.7273H82.638V64.8494H82.2828L79.8681 68.6705V68.7273H84.1721V69.5085H78.9164ZM82.3397 71V69.2884V68.951V63.7273H83.1777V71H82.3397ZM87.875 71.0994C87.34 71.0994 86.8842 70.9538 86.5078 70.6626C86.1314 70.3691 85.8438 69.9441 85.6449 69.3878C85.446 68.8291 85.3466 68.1544 85.3466 67.3636C85.3466 66.5777 85.446 65.9065 85.6449 65.3501C85.8461 64.7914 86.1349 64.3653 86.5114 64.0717C86.8902 63.7758 87.3447 63.6278 87.875 63.6278C88.4053 63.6278 88.8587 63.7758 89.2351 64.0717C89.6139 64.3653 89.9027 64.7914 90.1016 65.3501C90.3028 65.9065 90.4034 66.5777 90.4034 67.3636C90.4034 68.1544 90.304 68.8291 90.1051 69.3878C89.9062 69.9441 89.6186 70.3691 89.2422 70.6626C88.8658 70.9538 88.41 71.0994 87.875 71.0994ZM87.875 70.3182C88.4053 70.3182 88.8172 70.0625 89.1108 69.5511C89.4044 69.0398 89.5511 68.3106 89.5511 67.3636C89.5511 66.7339 89.4837 66.1977 89.3487 65.755C89.2161 65.3123 89.0244 64.9749 88.7734 64.7429C88.5249 64.5109 88.2254 64.3949 87.875 64.3949C87.3494 64.3949 86.9387 64.6541 86.6428 65.1726C86.3468 65.6887 86.1989 66.419 86.1989 67.3636C86.1989 67.9934 86.2652 68.5284 86.3977 68.9688C86.5303 69.4091 86.7209 69.7441 86.9695 69.9737C87.2204 70.2034 87.5223 70.3182 87.875 70.3182Z" fill="#0452A1"/>
<path d="M99 66V204" stroke="#E3E8F2"/>
<path d="M102.31 214.727V222H101.429V215.651H101.386L99.6108 216.83V215.935L101.429 214.727H102.31ZM106.773 222.099C106.238 222.099 105.783 221.954 105.406 221.663C105.03 221.369 104.742 220.944 104.543 220.388C104.344 219.829 104.245 219.154 104.245 218.364C104.245 217.578 104.344 216.906 104.543 216.35C104.745 215.791 105.033 215.365 105.41 215.072C105.789 214.776 106.243 214.628 106.773 214.628C107.304 214.628 107.757 214.776 108.134 215.072C108.512 215.365 108.801 215.791 109 216.35C109.201 216.906 109.302 217.578 109.302 218.364C109.302 219.154 109.202 219.829 109.004 220.388C108.805 220.944 108.517 221.369 108.141 221.663C107.764 221.954 107.308 222.099 106.773 222.099ZM106.773 221.318C107.304 221.318 107.716 221.062 108.009 220.551C108.303 220.04 108.45 219.311 108.45 218.364C108.45 217.734 108.382 217.198 108.247 216.755C108.115 216.312 107.923 215.975 107.672 215.743C107.423 215.511 107.124 215.395 106.773 215.395C106.248 215.395 105.837 215.654 105.541 216.173C105.245 216.689 105.097 217.419 105.097 218.364C105.097 218.993 105.164 219.528 105.296 219.969C105.429 220.409 105.619 220.744 105.868 220.974C106.119 221.203 106.421 221.318 106.773 221.318ZM111.276 221.07C111.101 221.07 110.951 221.007 110.825 220.881C110.7 220.756 110.637 220.606 110.637 220.43C110.637 220.255 110.7 220.105 110.825 219.979C110.951 219.854 111.101 219.791 111.276 219.791C111.451 219.791 111.602 219.854 111.727 219.979C111.853 220.105 111.915 220.255 111.915 220.43C111.915 220.546 111.886 220.653 111.827 220.75C111.77 220.847 111.693 220.925 111.596 220.984C111.501 221.041 111.395 221.07 111.276 221.07ZM111.276 217.391C111.101 217.391 110.951 217.328 110.825 217.202C110.7 217.077 110.637 216.927 110.637 216.751C110.637 216.576 110.7 216.426 110.825 216.3C110.951 216.175 111.101 216.112 111.276 216.112C111.451 216.112 111.602 216.175 111.727 216.3C111.853 216.426 111.915 216.576 111.915 216.751C111.915 216.867 111.886 216.974 111.827 217.071C111.77 217.168 111.693 217.246 111.596 217.305C111.501 217.362 111.395 217.391 111.276 217.391ZM115.777 222.099C115.242 222.099 114.787 221.954 114.41 221.663C114.034 221.369 113.746 220.944 113.547 220.388C113.348 219.829 113.249 219.154 113.249 218.364C113.249 217.578 113.348 216.906 113.547 216.35C113.748 215.791 114.037 215.365 114.414 215.072C114.792 214.776 115.247 214.628 115.777 214.628C116.308 214.628 116.761 214.776 117.137 215.072C117.516 215.365 117.805 215.791 118.004 216.35C118.205 216.906 118.306 217.578 118.306 218.364C118.306 219.154 118.206 219.829 118.007 220.388C117.809 220.944 117.521 221.369 117.145 221.663C116.768 221.954 116.312 222.099 115.777 222.099ZM115.777 221.318C116.308 221.318 116.72 221.062 117.013 220.551C117.307 220.04 117.453 219.311 117.453 218.364C117.453 217.734 117.386 217.198 117.251 216.755C117.118 216.312 116.927 215.975 116.676 215.743C116.427 215.511 116.128 215.395 115.777 215.395C115.252 215.395 114.841 215.654 114.545 216.173C114.249 216.689 114.101 217.419 114.101 218.364C114.101 218.993 114.167 219.528 114.3 219.969C114.433 220.409 114.623 220.744 114.872 220.974C115.123 221.203 115.425 221.318 115.777 221.318ZM122.027 222.099C121.492 222.099 121.037 221.954 120.66 221.663C120.284 221.369 119.996 220.944 119.797 220.388C119.598 219.829 119.499 219.154 119.499 218.364C119.499 217.578 119.598 216.906 119.797 216.35C119.998 215.791 120.287 215.365 120.664 215.072C121.042 214.776 121.497 214.628 122.027 214.628C122.558 214.628 123.011 214.776 123.387 215.072C123.766 215.365 124.055 215.791 124.254 216.35C124.455 216.906 124.556 217.578 124.556 218.364C124.556 219.154 124.456 219.829 124.257 220.388C124.059 220.944 123.771 221.369 123.395 221.663C123.018 221.954 122.562 222.099 122.027 222.099ZM122.027 221.318C122.558 221.318 122.97 221.062 123.263 220.551C123.557 220.04 123.703 219.311 123.703 218.364C123.703 217.734 123.636 217.198 123.501 216.755C123.368 216.312 123.177 215.975 122.926 215.743C122.677 215.511 122.378 215.395 122.027 215.395C121.502 215.395 121.091 215.654 120.795 216.173C120.499 216.689 120.351 217.419 120.351 218.364C120.351 218.993 120.417 219.528 120.55 219.969C120.683 220.409 120.873 220.744 121.122 220.974C121.373 221.203 121.675 221.318 122.027 221.318ZM126.53 221.07C126.355 221.07 126.205 221.007 126.079 220.881C125.954 220.756 125.891 220.606 125.891 220.43C125.891 220.255 125.954 220.105 126.079 219.979C126.205 219.854 126.355 219.791 126.53 219.791C126.705 219.791 126.856 219.854 126.981 219.979C127.107 220.105 127.169 220.255 127.169 220.43C127.169 220.546 127.14 220.653 127.081 220.75C127.024 220.847 126.947 220.925 126.85 220.984C126.755 221.041 126.649 221.07 126.53 221.07ZM126.53 217.391C126.355 217.391 126.205 217.328 126.079 217.202C125.954 217.077 125.891 216.927 125.891 216.751C125.891 216.576 125.954 216.426 126.079 216.3C126.205 216.175 126.355 216.112 126.53 216.112C126.705 216.112 126.856 216.175 126.981 216.3C127.107 216.426 127.169 216.576 127.169 216.751C127.169 216.867 127.14 216.974 127.081 217.071C127.024 217.168 126.947 217.246 126.85 217.305C126.755 217.362 126.649 217.391 126.53 217.391ZM131.031 222.099C130.496 222.099 130.04 221.954 129.664 221.663C129.288 221.369 129 220.944 128.801 220.388C128.602 219.829 128.503 219.154 128.503 218.364C128.503 217.578 128.602 216.906 128.801 216.35C129.002 215.791 129.291 215.365 129.668 215.072C130.046 214.776 130.501 214.628 131.031 214.628C131.562 214.628 132.015 214.776 132.391 215.072C132.77 215.365 133.059 215.791 133.258 216.35C133.459 216.906 133.56 217.578 133.56 218.364C133.56 219.154 133.46 219.829 133.261 220.388C133.062 220.944 132.775 221.369 132.398 221.663C132.022 221.954 131.566 222.099 131.031 222.099ZM131.031 221.318C131.562 221.318 131.973 221.062 132.267 220.551C132.561 220.04 132.707 219.311 132.707 218.364C132.707 217.734 132.64 217.198 132.505 216.755C132.372 216.312 132.181 215.975 131.93 215.743C131.681 215.511 131.382 215.395 131.031 215.395C130.506 215.395 130.095 215.654 129.799 216.173C129.503 216.689 129.355 217.419 129.355 218.364C129.355 218.993 129.421 219.528 129.554 219.969C129.687 220.409 129.877 220.744 130.126 220.974C130.377 221.203 130.679 221.318 131.031 221.318ZM137.281 222.099C136.746 222.099 136.29 221.954 135.914 221.663C135.538 221.369 135.25 220.944 135.051 220.388C134.852 219.829 134.753 219.154 134.753 218.364C134.753 217.578 134.852 216.906 135.051 216.35C135.252 215.791 135.541 215.365 135.918 215.072C136.296 214.776 136.751 214.628 137.281 214.628C137.812 214.628 138.265 214.776 138.641 215.072C139.02 215.365 139.309 215.791 139.508 216.35C139.709 216.906 139.81 217.578 139.81 218.364C139.81 219.154 139.71 219.829 139.511 220.388C139.312 220.944 139.025 221.369 138.648 221.663C138.272 221.954 137.816 222.099 137.281 222.099ZM137.281 221.318C137.812 221.318 138.223 221.062 138.517 220.551C138.811 220.04 138.957 219.311 138.957 218.364C138.957 217.734 138.89 217.198 138.755 216.755C138.622 216.312 138.431 215.975 138.18 215.743C137.931 215.511 137.632 215.395 137.281 215.395C136.756 215.395 136.345 215.654 136.049 216.173C135.753 216.689 135.605 217.419 135.605 218.364C135.605 218.993 135.671 219.528 135.804 219.969C135.937 220.409 136.127 220.744 136.376 220.974C136.627 221.203 136.929 221.318 137.281 221.318ZM99.8807 226.727H100.932L103.403 232.764H103.489L105.96 226.727H107.011V234H106.188V228.474H106.116L103.844 234H103.048L100.776 228.474H100.705V234H99.8807V226.727ZM110.269 234.128C109.923 234.128 109.609 234.063 109.328 233.933C109.046 233.8 108.822 233.609 108.656 233.361C108.491 233.11 108.408 232.807 108.408 232.452C108.408 232.139 108.469 231.886 108.593 231.692C108.716 231.495 108.88 231.341 109.086 231.23C109.292 231.119 109.519 231.036 109.768 230.982C110.019 230.925 110.271 230.88 110.524 230.847C110.856 230.804 111.124 230.772 111.33 230.751C111.539 230.727 111.69 230.688 111.785 230.634C111.882 230.579 111.931 230.484 111.931 230.349V230.321C111.931 229.971 111.835 229.698 111.643 229.504C111.454 229.31 111.166 229.213 110.78 229.213C110.38 229.213 110.066 229.301 109.839 229.476C109.612 229.651 109.452 229.838 109.36 230.037L108.564 229.753C108.706 229.421 108.896 229.163 109.132 228.979C109.371 228.792 109.632 228.661 109.914 228.588C110.198 228.512 110.477 228.474 110.752 228.474C110.927 228.474 111.128 228.496 111.355 228.538C111.585 228.579 111.806 228.663 112.019 228.79C112.235 228.918 112.414 229.111 112.556 229.369C112.698 229.627 112.769 229.973 112.769 230.406V234H111.931V233.261H111.888C111.831 233.38 111.736 233.506 111.604 233.641C111.471 233.776 111.295 233.891 111.075 233.986C110.855 234.08 110.586 234.128 110.269 234.128ZM110.396 233.375C110.728 233.375 111.007 233.31 111.235 233.18C111.464 233.049 111.637 232.881 111.753 232.675C111.871 232.469 111.931 232.253 111.931 232.026V231.259C111.895 231.301 111.817 231.34 111.696 231.376C111.578 231.409 111.441 231.438 111.284 231.464C111.13 231.488 110.98 231.509 110.833 231.528C110.689 231.545 110.572 231.559 110.482 231.571C110.264 231.599 110.06 231.646 109.871 231.71C109.684 231.771 109.532 231.865 109.416 231.99C109.303 232.113 109.246 232.281 109.246 232.494C109.246 232.786 109.354 233.006 109.569 233.155C109.787 233.302 110.063 233.375 110.396 233.375ZM114.643 236.045C114.501 236.045 114.374 236.034 114.263 236.01C114.152 235.989 114.075 235.967 114.032 235.946L114.245 235.207C114.449 235.259 114.629 235.278 114.785 235.264C114.941 235.25 115.08 235.18 115.2 235.055C115.323 234.932 115.436 234.732 115.538 234.455L115.694 234.028L113.677 228.545H114.586L116.092 232.892H116.148L117.654 228.545H118.563L116.248 234.795C116.144 235.077 116.015 235.31 115.861 235.495C115.707 235.682 115.528 235.821 115.325 235.911C115.123 236 114.896 236.045 114.643 236.045ZM125.025 226.727V234H124.144V227.651H124.101L122.326 228.83V227.935L124.144 226.727H125.025ZM129.389 234.099C128.972 234.099 128.597 234.017 128.263 233.851C127.929 233.685 127.662 233.458 127.461 233.169C127.259 232.88 127.149 232.551 127.13 232.182H127.983C128.016 232.511 128.165 232.783 128.43 232.999C128.698 233.212 129.017 233.318 129.389 233.318C129.687 233.318 129.952 233.248 130.184 233.109C130.419 232.969 130.602 232.777 130.735 232.533C130.87 232.287 130.937 232.009 130.937 231.699C130.937 231.382 130.867 231.099 130.728 230.85C130.59 230.599 130.401 230.402 130.159 230.257C129.918 230.113 129.642 230.039 129.332 230.037C129.109 230.035 128.881 230.069 128.647 230.14C128.412 230.209 128.219 230.297 128.068 230.406L127.244 230.307L127.684 226.727H131.463V227.509H128.423L128.167 229.653H128.21C128.359 229.535 128.546 229.437 128.771 229.359C128.996 229.281 129.23 229.241 129.474 229.241C129.919 229.241 130.316 229.348 130.664 229.561C131.014 229.772 131.289 230.061 131.488 230.428C131.689 230.795 131.789 231.214 131.789 231.685C131.789 232.149 131.685 232.563 131.477 232.928C131.271 233.29 130.987 233.576 130.625 233.787C130.262 233.995 129.85 234.099 129.389 234.099ZM134.191 233.006L134.134 233.389C134.094 233.659 134.032 233.948 133.949 234.256C133.869 234.563 133.785 234.853 133.697 235.126C133.61 235.398 133.537 235.615 133.481 235.776H132.841C132.872 235.624 132.912 235.424 132.962 235.175C133.012 234.927 133.062 234.649 133.111 234.341C133.163 234.036 133.206 233.723 133.239 233.403L133.282 233.006H134.191ZM138.542 234V233.361L140.942 230.733C141.224 230.425 141.456 230.158 141.638 229.93C141.821 229.701 141.956 229.485 142.043 229.284C142.133 229.08 142.178 228.867 142.178 228.645C142.178 228.389 142.117 228.168 141.994 227.981C141.873 227.794 141.707 227.649 141.496 227.548C141.286 227.446 141.049 227.395 140.786 227.395C140.507 227.395 140.263 227.453 140.055 227.569C139.849 227.683 139.689 227.842 139.575 228.048C139.464 228.254 139.408 228.496 139.408 228.773H138.57C138.57 228.347 138.669 227.973 138.865 227.651C139.062 227.329 139.329 227.078 139.668 226.898C140.009 226.718 140.391 226.628 140.815 226.628C141.241 226.628 141.618 226.718 141.947 226.898C142.277 227.078 142.535 227.32 142.722 227.626C142.909 227.931 143.002 228.271 143.002 228.645C143.002 228.912 142.954 229.174 142.857 229.43C142.762 229.683 142.596 229.966 142.359 230.278C142.125 230.589 141.799 230.967 141.383 231.415L139.749 233.162V233.219H143.13V234H138.542ZM146.969 234.099C146.434 234.099 145.978 233.954 145.602 233.663C145.225 233.369 144.938 232.944 144.739 232.388C144.54 231.829 144.44 231.154 144.44 230.364C144.44 229.578 144.54 228.906 144.739 228.35C144.94 227.791 145.229 227.365 145.605 227.072C145.984 226.776 146.438 226.628 146.969 226.628C147.499 226.628 147.952 226.776 148.329 227.072C148.708 227.365 148.996 227.791 149.195 228.35C149.397 228.906 149.497 229.578 149.497 230.364C149.497 231.154 149.398 231.829 149.199 232.388C149 232.944 148.712 233.369 148.336 233.663C147.96 233.954 147.504 234.099 146.969 234.099ZM146.969 233.318C147.499 233.318 147.911 233.062 148.205 232.551C148.498 232.04 148.645 231.311 148.645 230.364C148.645 229.734 148.577 229.198 148.442 228.755C148.31 228.312 148.118 227.975 147.867 227.743C147.619 227.511 147.319 227.395 146.969 227.395C146.443 227.395 146.032 227.654 145.737 228.173C145.441 228.689 145.293 229.419 145.293 230.364C145.293 230.993 145.359 231.528 145.491 231.969C145.624 232.409 145.815 232.744 146.063 232.974C146.314 233.203 146.616 233.318 146.969 233.318ZM150.847 234V233.361L153.247 230.733C153.529 230.425 153.761 230.158 153.943 229.93C154.125 229.701 154.26 229.485 154.348 229.284C154.438 229.08 154.483 228.867 154.483 228.645C154.483 228.389 154.421 228.168 154.298 227.981C154.178 227.794 154.012 227.649 153.801 227.548C153.59 227.446 153.354 227.395 153.091 227.395C152.812 227.395 152.568 227.453 152.359 227.569C152.153 227.683 151.994 227.842 151.88 228.048C151.769 228.254 151.713 228.496 151.713 228.773H150.875C150.875 228.347 150.973 227.973 151.17 227.651C151.366 227.329 151.634 227.078 151.972 226.898C152.313 226.718 152.696 226.628 153.119 226.628C153.545 226.628 153.923 226.718 154.252 226.898C154.581 227.078 154.839 227.32 155.026 227.626C155.213 227.931 155.307 228.271 155.307 228.645C155.307 228.912 155.258 229.174 155.161 229.43C155.067 229.683 154.901 229.966 154.664 230.278C154.43 230.589 154.104 230.967 153.688 231.415L152.054 233.162V233.219H155.435V234H150.847ZM159.359 234.099C158.89 234.099 158.472 234.019 158.105 233.858C157.741 233.697 157.451 233.473 157.235 233.187C157.022 232.898 156.906 232.563 156.887 232.182H157.782C157.801 232.416 157.881 232.619 158.023 232.789C158.165 232.957 158.351 233.087 158.581 233.18C158.811 233.272 159.065 233.318 159.344 233.318C159.657 233.318 159.934 233.264 160.175 233.155C160.417 233.046 160.606 232.894 160.744 232.7C160.881 232.506 160.95 232.281 160.95 232.026C160.95 231.758 160.883 231.522 160.751 231.319C160.618 231.113 160.424 230.952 160.168 230.836C159.913 230.72 159.6 230.662 159.231 230.662H158.648V229.881H159.231C159.52 229.881 159.773 229.829 159.991 229.724C160.211 229.62 160.383 229.473 160.506 229.284C160.631 229.095 160.694 228.872 160.694 228.616C160.694 228.37 160.639 228.156 160.531 227.974C160.422 227.791 160.268 227.649 160.069 227.548C159.872 227.446 159.64 227.395 159.373 227.395C159.122 227.395 158.885 227.441 158.663 227.533C158.442 227.623 158.263 227.755 158.123 227.928C157.983 228.098 157.907 228.304 157.896 228.545H157.043C157.058 228.164 157.172 227.83 157.388 227.544C157.603 227.255 157.885 227.03 158.233 226.869C158.583 226.708 158.968 226.628 159.387 226.628C159.837 226.628 160.223 226.719 160.545 226.901C160.867 227.081 161.114 227.319 161.287 227.615C161.46 227.911 161.546 228.231 161.546 228.574C161.546 228.983 161.438 229.333 161.223 229.621C161.01 229.91 160.72 230.11 160.353 230.222V230.278C160.812 230.354 161.171 230.549 161.429 230.864C161.687 231.177 161.816 231.564 161.816 232.026C161.816 232.421 161.708 232.776 161.493 233.091C161.28 233.403 160.989 233.65 160.619 233.83C160.25 234.009 159.83 234.099 159.359 234.099Z" fill="#0452A1"/>
<path d="M124.05 66V204" stroke="#E3E8F2"/>
<path d="M149.1 66V204" stroke="#E3E8F2"/>
<path d="M174.15 66V204" stroke="#E3E8F2"/>
<path d="M199.2 66V204" stroke="#E3E8F2"/>
<path d="M202.51 214.727V222H201.629V215.651H201.586L199.811 216.83V215.935L201.629 214.727H202.51ZM204.601 222V221.361L207.002 218.733C207.284 218.425 207.516 218.158 207.698 217.93C207.88 217.701 208.015 217.485 208.103 217.284C208.193 217.08 208.238 216.867 208.238 216.645C208.238 216.389 208.176 216.168 208.053 215.981C207.932 215.794 207.767 215.649 207.556 215.548C207.345 215.446 207.108 215.395 206.846 215.395C206.566 215.395 206.322 215.453 206.114 215.569C205.908 215.683 205.748 215.842 205.635 216.048C205.523 216.254 205.468 216.496 205.468 216.773H204.63C204.63 216.347 204.728 215.973 204.924 215.651C205.121 215.329 205.388 215.078 205.727 214.898C206.068 214.718 206.45 214.628 206.874 214.628C207.3 214.628 207.678 214.718 208.007 214.898C208.336 215.078 208.594 215.32 208.781 215.626C208.968 215.931 209.062 216.271 209.062 216.645C209.062 216.912 209.013 217.174 208.916 217.43C208.821 217.683 208.656 217.966 208.419 218.278C208.184 218.589 207.859 218.967 207.442 219.415L205.809 221.162V221.219H209.189V222H204.601ZM211.281 221.07C211.106 221.07 210.955 221.007 210.83 220.881C210.705 220.756 210.642 220.606 210.642 220.43C210.642 220.255 210.705 220.105 210.83 219.979C210.955 219.854 211.106 219.791 211.281 219.791C211.456 219.791 211.606 219.854 211.732 219.979C211.857 220.105 211.92 220.255 211.92 220.43C211.92 220.546 211.891 220.653 211.831 220.75C211.775 220.847 211.698 220.925 211.601 220.984C211.506 221.041 211.399 221.07 211.281 221.07ZM211.281 217.391C211.106 217.391 210.955 217.328 210.83 217.202C210.705 217.077 210.642 216.927 210.642 216.751C210.642 216.576 210.705 216.426 210.83 216.3C210.955 216.175 211.106 216.112 211.281 216.112C211.456 216.112 211.606 216.175 211.732 216.3C211.857 216.426 211.92 216.576 211.92 216.751C211.92 216.867 211.891 216.974 211.831 217.071C211.775 217.168 211.698 217.246 211.601 217.305C211.506 217.362 211.399 217.391 211.281 217.391ZM215.782 222.099C215.247 222.099 214.791 221.954 214.415 221.663C214.038 221.369 213.751 220.944 213.552 220.388C213.353 219.829 213.254 219.154 213.254 218.364C213.254 217.578 213.353 216.906 213.552 216.35C213.753 215.791 214.042 215.365 214.418 215.072C214.797 214.776 215.252 214.628 215.782 214.628C216.312 214.628 216.766 214.776 217.142 215.072C217.521 215.365 217.81 215.791 218.009 216.35C218.21 216.906 218.31 217.578 218.31 218.364C218.31 219.154 218.211 219.829 218.012 220.388C217.813 220.944 217.526 221.369 217.149 221.663C216.773 221.954 216.317 222.099 215.782 222.099ZM215.782 221.318C216.312 221.318 216.724 221.062 217.018 220.551C217.311 220.04 217.458 219.311 217.458 218.364C217.458 217.734 217.391 217.198 217.256 216.755C217.123 216.312 216.931 215.975 216.68 215.743C216.432 215.511 216.132 215.395 215.782 215.395C215.256 215.395 214.846 215.654 214.55 216.173C214.254 216.689 214.106 217.419 214.106 218.364C214.106 218.993 214.172 219.528 214.305 219.969C214.437 220.409 214.628 220.744 214.877 220.974C215.127 221.203 215.429 221.318 215.782 221.318ZM222.032 222.099C221.497 222.099 221.041 221.954 220.665 221.663C220.288 221.369 220.001 220.944 219.802 220.388C219.603 219.829 219.504 219.154 219.504 218.364C219.504 217.578 219.603 216.906 219.802 216.35C220.003 215.791 220.292 215.365 220.668 215.072C221.047 214.776 221.502 214.628 222.032 214.628C222.562 214.628 223.016 214.776 223.392 215.072C223.771 215.365 224.06 215.791 224.259 216.35C224.46 216.906 224.56 217.578 224.56 218.364C224.56 219.154 224.461 219.829 224.262 220.388C224.063 220.944 223.776 221.369 223.399 221.663C223.023 221.954 222.567 222.099 222.032 222.099ZM222.032 221.318C222.562 221.318 222.974 221.062 223.268 220.551C223.561 220.04 223.708 219.311 223.708 218.364C223.708 217.734 223.641 217.198 223.506 216.755C223.373 216.312 223.181 215.975 222.93 215.743C222.682 215.511 222.382 215.395 222.032 215.395C221.506 215.395 221.096 215.654 220.8 216.173C220.504 216.689 220.356 217.419 220.356 218.364C220.356 218.993 220.422 219.528 220.555 219.969C220.687 220.409 220.878 220.744 221.127 220.974C221.377 221.203 221.679 221.318 222.032 221.318ZM226.535 221.07C226.36 221.07 226.209 221.007 226.084 220.881C225.958 220.756 225.896 220.606 225.896 220.43C225.896 220.255 225.958 220.105 226.084 219.979C226.209 219.854 226.36 219.791 226.535 219.791C226.71 219.791 226.86 219.854 226.986 219.979C227.111 220.105 227.174 220.255 227.174 220.43C227.174 220.546 227.144 220.653 227.085 220.75C227.028 220.847 226.952 220.925 226.854 220.984C226.76 221.041 226.653 221.07 226.535 221.07ZM226.535 217.391C226.36 217.391 226.209 217.328 226.084 217.202C225.958 217.077 225.896 216.927 225.896 216.751C225.896 216.576 225.958 216.426 226.084 216.3C226.209 216.175 226.36 216.112 226.535 216.112C226.71 216.112 226.86 216.175 226.986 216.3C227.111 216.426 227.174 216.576 227.174 216.751C227.174 216.867 227.144 216.974 227.085 217.071C227.028 217.168 226.952 217.246 226.854 217.305C226.76 217.362 226.653 217.391 226.535 217.391ZM231.036 222.099C230.501 222.099 230.045 221.954 229.669 221.663C229.292 221.369 229.005 220.944 228.806 220.388C228.607 219.829 228.508 219.154 228.508 218.364C228.508 217.578 228.607 216.906 228.806 216.35C229.007 215.791 229.296 215.365 229.672 215.072C230.051 214.776 230.506 214.628 231.036 214.628C231.566 214.628 232.02 214.776 232.396 215.072C232.775 215.365 233.064 215.791 233.263 216.35C233.464 216.906 233.564 217.578 233.564 218.364C233.564 219.154 233.465 219.829 233.266 220.388C233.067 220.944 232.78 221.369 232.403 221.663C232.027 221.954 231.571 222.099 231.036 222.099ZM231.036 221.318C231.566 221.318 231.978 221.062 232.272 220.551C232.565 220.04 232.712 219.311 232.712 218.364C232.712 217.734 232.645 217.198 232.51 216.755C232.377 216.312 232.185 215.975 231.934 215.743C231.686 215.511 231.386 215.395 231.036 215.395C230.51 215.395 230.1 215.654 229.804 216.173C229.508 216.689 229.36 217.419 229.36 218.364C229.36 218.993 229.426 219.528 229.559 219.969C229.691 220.409 229.882 220.744 230.13 220.974C230.381 221.203 230.683 221.318 231.036 221.318ZM237.286 222.099C236.751 222.099 236.295 221.954 235.919 221.663C235.542 221.369 235.255 220.944 235.056 220.388C234.857 219.829 234.758 219.154 234.758 218.364C234.758 217.578 234.857 216.906 235.056 216.35C235.257 215.791 235.546 215.365 235.922 215.072C236.301 214.776 236.756 214.628 237.286 214.628C237.816 214.628 238.27 214.776 238.646 215.072C239.025 215.365 239.314 215.791 239.513 216.35C239.714 216.906 239.814 217.578 239.814 218.364C239.814 219.154 239.715 219.829 239.516 220.388C239.317 220.944 239.03 221.369 238.653 221.663C238.277 221.954 237.821 222.099 237.286 222.099ZM237.286 221.318C237.816 221.318 238.228 221.062 238.522 220.551C238.815 220.04 238.962 219.311 238.962 218.364C238.962 217.734 238.895 217.198 238.76 216.755C238.627 216.312 238.435 215.975 238.184 215.743C237.936 215.511 237.636 215.395 237.286 215.395C236.76 215.395 236.35 215.654 236.054 216.173C235.758 216.689 235.61 217.419 235.61 218.364C235.61 218.993 235.676 219.528 235.809 219.969C235.941 220.409 236.132 220.744 236.38 220.974C236.631 221.203 236.933 221.318 237.286 221.318Z" fill="#0452A1"/>
<path d="M224.25 66V204" stroke="#E3E8F2"/>
<path d="M249.3 66V204" stroke="#E3E8F2"/>
<path d="M274.35 66V204" stroke="#E3E8F2"/>
<path d="M299.4 66V204" stroke="#E3E8F2"/>
<path d="M302.71 214.727V222H301.829V215.651H301.786L300.011 216.83V215.935L301.829 214.727H302.71ZM304.631 220.509V219.784L307.827 214.727H308.352V215.849H307.997L305.583 219.67V219.727H309.887V220.509H304.631ZM308.054 222V220.288V219.951V214.727H308.892V222H308.054ZM311.842 221.07C311.667 221.07 311.517 221.007 311.391 220.881C311.266 220.756 311.203 220.606 311.203 220.43C311.203 220.255 311.266 220.105 311.391 219.979C311.517 219.854 311.667 219.791 311.842 219.791C312.018 219.791 312.168 219.854 312.293 219.979C312.419 220.105 312.482 220.255 312.482 220.43C312.482 220.546 312.452 220.653 312.393 220.75C312.336 220.847 312.259 220.925 312.162 220.984C312.067 221.041 311.961 221.07 311.842 221.07ZM311.842 217.391C311.667 217.391 311.517 217.328 311.391 217.202C311.266 217.077 311.203 216.927 311.203 216.751C311.203 216.576 311.266 216.426 311.391 216.3C311.517 216.175 311.667 216.112 311.842 216.112C312.018 216.112 312.168 216.175 312.293 216.3C312.419 216.426 312.482 216.576 312.482 216.751C312.482 216.867 312.452 216.974 312.393 217.071C312.336 217.168 312.259 217.246 312.162 217.305C312.067 217.362 311.961 217.391 311.842 217.391ZM316.343 222.099C315.808 222.099 315.353 221.954 314.976 221.663C314.6 221.369 314.312 220.944 314.113 220.388C313.914 219.829 313.815 219.154 313.815 218.364C313.815 217.578 313.914 216.906 314.113 216.35C314.315 215.791 314.603 215.365 314.98 215.072C315.359 214.776 315.813 214.628 316.343 214.628C316.874 214.628 317.327 214.776 317.703 215.072C318.082 215.365 318.371 215.791 318.57 216.35C318.771 216.906 318.872 217.578 318.872 218.364C318.872 219.154 318.772 219.829 318.573 220.388C318.375 220.944 318.087 221.369 317.711 221.663C317.334 221.954 316.878 222.099 316.343 222.099ZM316.343 221.318C316.874 221.318 317.286 221.062 317.579 220.551C317.873 220.04 318.02 219.311 318.02 218.364C318.02 217.734 317.952 217.198 317.817 216.755C317.685 216.312 317.493 215.975 317.242 215.743C316.993 215.511 316.694 215.395 316.343 215.395C315.818 215.395 315.407 215.654 315.111 216.173C314.815 216.689 314.667 217.419 314.667 218.364C314.667 218.993 314.734 219.528 314.866 219.969C314.999 220.409 315.189 220.744 315.438 220.974C315.689 221.203 315.991 221.318 316.343 221.318ZM322.593 222.099C322.058 222.099 321.603 221.954 321.226 221.663C320.85 221.369 320.562 220.944 320.363 220.388C320.164 219.829 320.065 219.154 320.065 218.364C320.065 217.578 320.164 216.906 320.363 216.35C320.565 215.791 320.853 215.365 321.23 215.072C321.609 214.776 322.063 214.628 322.593 214.628C323.124 214.628 323.577 214.776 323.953 215.072C324.332 215.365 324.621 215.791 324.82 216.35C325.021 216.906 325.122 217.578 325.122 218.364C325.122 219.154 325.022 219.829 324.823 220.388C324.625 220.944 324.337 221.369 323.961 221.663C323.584 221.954 323.128 222.099 322.593 222.099ZM322.593 221.318C323.124 221.318 323.536 221.062 323.829 220.551C324.123 220.04 324.27 219.311 324.27 218.364C324.27 217.734 324.202 217.198 324.067 216.755C323.935 216.312 323.743 215.975 323.492 215.743C323.243 215.511 322.944 215.395 322.593 215.395C322.068 215.395 321.657 215.654 321.361 216.173C321.065 216.689 320.917 217.419 320.917 218.364C320.917 218.993 320.984 219.528 321.116 219.969C321.249 220.409 321.439 220.744 321.688 220.974C321.939 221.203 322.241 221.318 322.593 221.318ZM327.096 221.07C326.921 221.07 326.771 221.007 326.645 220.881C326.52 220.756 326.457 220.606 326.457 220.43C326.457 220.255 326.52 220.105 326.645 219.979C326.771 219.854 326.921 219.791 327.096 219.791C327.271 219.791 327.422 219.854 327.547 219.979C327.673 220.105 327.735 220.255 327.735 220.43C327.735 220.546 327.706 220.653 327.647 220.75C327.59 220.847 327.513 220.925 327.416 220.984C327.321 221.041 327.215 221.07 327.096 221.07ZM327.096 217.391C326.921 217.391 326.771 217.328 326.645 217.202C326.52 217.077 326.457 216.927 326.457 216.751C326.457 216.576 326.52 216.426 326.645 216.3C326.771 216.175 326.921 216.112 327.096 216.112C327.271 216.112 327.422 216.175 327.547 216.3C327.673 216.426 327.735 216.576 327.735 216.751C327.735 216.867 327.706 216.974 327.647 217.071C327.59 217.168 327.513 217.246 327.416 217.305C327.321 217.362 327.215 217.391 327.096 217.391ZM331.597 222.099C331.062 222.099 330.607 221.954 330.23 221.663C329.854 221.369 329.566 220.944 329.367 220.388C329.168 219.829 329.069 219.154 329.069 218.364C329.069 217.578 329.168 216.906 329.367 216.35C329.568 215.791 329.857 215.365 330.234 215.072C330.612 214.776 331.067 214.628 331.597 214.628C332.128 214.628 332.581 214.776 332.957 215.072C333.336 215.365 333.625 215.791 333.824 216.35C334.025 216.906 334.126 217.578 334.126 218.364C334.126 219.154 334.026 219.829 333.827 220.388C333.629 220.944 333.341 221.369 332.964 221.663C332.588 221.954 332.132 222.099 331.597 222.099ZM331.597 221.318C332.128 221.318 332.54 221.062 332.833 220.551C333.127 220.04 333.273 219.311 333.273 218.364C333.273 217.734 333.206 217.198 333.071 216.755C332.938 216.312 332.747 215.975 332.496 215.743C332.247 215.511 331.948 215.395 331.597 215.395C331.072 215.395 330.661 215.654 330.365 216.173C330.069 216.689 329.921 217.419 329.921 218.364C329.921 218.993 329.987 219.528 330.12 219.969C330.253 220.409 330.443 220.744 330.692 220.974C330.943 221.203 331.245 221.318 331.597 221.318ZM337.847 222.099C337.312 222.099 336.857 221.954 336.48 221.663C336.104 221.369 335.816 220.944 335.617 220.388C335.418 219.829 335.319 219.154 335.319 218.364C335.319 217.578 335.418 216.906 335.617 216.35C335.818 215.791 336.107 215.365 336.484 215.072C336.862 214.776 337.317 214.628 337.847 214.628C338.378 214.628 338.831 214.776 339.207 215.072C339.586 215.365 339.875 215.791 340.074 216.35C340.275 216.906 340.376 217.578 340.376 218.364C340.376 219.154 340.276 219.829 340.077 220.388C339.879 220.944 339.591 221.369 339.214 221.663C338.838 221.954 338.382 222.099 337.847 222.099ZM337.847 221.318C338.378 221.318 338.79 221.062 339.083 220.551C339.377 220.04 339.523 219.311 339.523 218.364C339.523 217.734 339.456 217.198 339.321 216.755C339.188 216.312 338.997 215.975 338.746 215.743C338.497 215.511 338.198 215.395 337.847 215.395C337.322 215.395 336.911 215.654 336.615 216.173C336.319 216.689 336.171 217.419 336.171 218.364C336.171 218.993 336.237 219.528 336.37 219.969C336.503 220.409 336.693 220.744 336.942 220.974C337.193 221.203 337.495 221.318 337.847 221.318Z" fill="#0452A1"/>
<path d="M324.45 66V204" stroke="#E3E8F2"/>
<path d="M349.5 66V204" stroke="#E3E8F2"/>
<path d="M374.55 66V204" stroke="#E3E8F2"/>
<path d="M399.6 66V204" stroke="#E3E8F2"/>
<path d="M402.91 214.727V222H402.029V215.651H401.986L400.211 216.83V215.935L402.029 214.727H402.91ZM407.416 222.099C407.118 222.095 406.82 222.038 406.521 221.929C406.223 221.82 405.951 221.637 405.705 221.379C405.458 221.118 405.261 220.767 405.111 220.324C404.962 219.879 404.888 219.32 404.888 218.648C404.888 218.004 404.948 217.433 405.069 216.936C405.19 216.437 405.365 216.016 405.594 215.675C405.824 215.332 406.101 215.072 406.425 214.894C406.752 214.717 407.12 214.628 407.53 214.628C407.937 214.628 408.299 214.71 408.616 214.873C408.936 215.034 409.196 215.259 409.398 215.548C409.599 215.836 409.729 216.169 409.788 216.545H408.922C408.841 216.219 408.685 215.948 408.453 215.732C408.221 215.517 407.913 215.409 407.53 215.409C406.966 215.409 406.522 215.654 406.198 216.144C405.876 216.634 405.714 217.322 405.712 218.207H405.768C405.901 218.006 406.058 217.835 406.241 217.692C406.425 217.548 406.629 217.437 406.852 217.359C407.074 217.281 407.31 217.241 407.558 217.241C407.975 217.241 408.356 217.346 408.702 217.554C409.047 217.76 409.324 218.045 409.533 218.41C409.741 218.772 409.845 219.188 409.845 219.656C409.845 220.106 409.745 220.518 409.543 220.892C409.342 221.264 409.059 221.56 408.695 221.78C408.332 221.998 407.906 222.104 407.416 222.099ZM407.416 221.318C407.714 221.318 407.982 221.244 408.219 221.094C408.458 220.945 408.646 220.745 408.783 220.494C408.923 220.243 408.993 219.964 408.993 219.656C408.993 219.356 408.925 219.082 408.79 218.836C408.658 218.587 408.474 218.39 408.24 218.243C408.008 218.096 407.743 218.023 407.445 218.023C407.22 218.023 407.01 218.068 406.816 218.158C406.622 218.245 406.451 218.366 406.305 218.52C406.16 218.674 406.047 218.85 405.964 219.049C405.881 219.246 405.839 219.453 405.839 219.67C405.839 219.959 405.907 220.229 406.042 220.48C406.179 220.731 406.366 220.933 406.603 221.087C406.842 221.241 407.113 221.318 407.416 221.318ZM411.867 221.07C411.691 221.07 411.541 221.007 411.416 220.881C411.29 220.756 411.227 220.606 411.227 220.43C411.227 220.255 411.29 220.105 411.416 219.979C411.541 219.854 411.691 219.791 411.867 219.791C412.042 219.791 412.192 219.854 412.318 219.979C412.443 220.105 412.506 220.255 412.506 220.43C412.506 220.546 412.476 220.653 412.417 220.75C412.36 220.847 412.283 220.925 412.186 220.984C412.092 221.041 411.985 221.07 411.867 221.07ZM411.867 217.391C411.691 217.391 411.541 217.328 411.416 217.202C411.29 217.077 411.227 216.927 411.227 216.751C411.227 216.576 411.29 216.426 411.416 216.3C411.541 216.175 411.691 216.112 411.867 216.112C412.042 216.112 412.192 216.175 412.318 216.3C412.443 216.426 412.506 216.576 412.506 216.751C412.506 216.867 412.476 216.974 412.417 217.071C412.36 217.168 412.283 217.246 412.186 217.305C412.092 217.362 411.985 217.391 411.867 217.391ZM416.368 222.099C415.833 222.099 415.377 221.954 415 221.663C414.624 221.369 414.336 220.944 414.138 220.388C413.939 219.829 413.839 219.154 413.839 218.364C413.839 217.578 413.939 216.906 414.138 216.35C414.339 215.791 414.628 215.365 415.004 215.072C415.383 214.776 415.837 214.628 416.368 214.628C416.898 214.628 417.351 214.776 417.728 215.072C418.107 215.365 418.395 215.791 418.594 216.35C418.795 216.906 418.896 217.578 418.896 218.364C418.896 219.154 418.797 219.829 418.598 220.388C418.399 220.944 418.111 221.369 417.735 221.663C417.358 221.954 416.903 222.099 416.368 222.099ZM416.368 221.318C416.898 221.318 417.31 221.062 417.603 220.551C417.897 220.04 418.044 219.311 418.044 218.364C418.044 217.734 417.976 217.198 417.841 216.755C417.709 216.312 417.517 215.975 417.266 215.743C417.018 215.511 416.718 215.395 416.368 215.395C415.842 215.395 415.431 215.654 415.135 216.173C414.84 216.689 414.692 217.419 414.692 218.364C414.692 218.993 414.758 219.528 414.89 219.969C415.023 220.409 415.214 220.744 415.462 220.974C415.713 221.203 416.015 221.318 416.368 221.318ZM422.618 222.099C422.083 222.099 421.627 221.954 421.25 221.663C420.874 221.369 420.586 220.944 420.388 220.388C420.189 219.829 420.089 219.154 420.089 218.364C420.089 217.578 420.189 216.906 420.388 216.35C420.589 215.791 420.878 215.365 421.254 215.072C421.633 214.776 422.087 214.628 422.618 214.628C423.148 214.628 423.601 214.776 423.978 215.072C424.357 215.365 424.645 215.791 424.844 216.35C425.045 216.906 425.146 217.578 425.146 218.364C425.146 219.154 425.047 219.829 424.848 220.388C424.649 220.944 424.361 221.369 423.985 221.663C423.608 221.954 423.153 222.099 422.618 222.099ZM422.618 221.318C423.148 221.318 423.56 221.062 423.853 220.551C424.147 220.04 424.294 219.311 424.294 218.364C424.294 217.734 424.226 217.198 424.091 216.755C423.959 216.312 423.767 215.975 423.516 215.743C423.268 215.511 422.968 215.395 422.618 215.395C422.092 215.395 421.681 215.654 421.385 216.173C421.09 216.689 420.942 217.419 420.942 218.364C420.942 218.993 421.008 219.528 421.14 219.969C421.273 220.409 421.464 220.744 421.712 220.974C421.963 221.203 422.265 221.318 422.618 221.318ZM427.121 221.07C426.945 221.07 426.795 221.007 426.67 220.881C426.544 220.756 426.481 220.606 426.481 220.43C426.481 220.255 426.544 220.105 426.67 219.979C426.795 219.854 426.945 219.791 427.121 219.791C427.296 219.791 427.446 219.854 427.572 219.979C427.697 220.105 427.76 220.255 427.76 220.43C427.76 220.546 427.73 220.653 427.671 220.75C427.614 220.847 427.537 220.925 427.44 220.984C427.345 221.041 427.239 221.07 427.121 221.07ZM427.121 217.391C426.945 217.391 426.795 217.328 426.67 217.202C426.544 217.077 426.481 216.927 426.481 216.751C426.481 216.576 426.544 216.426 426.67 216.3C426.795 216.175 426.945 216.112 427.121 216.112C427.296 216.112 427.446 216.175 427.572 216.3C427.697 216.426 427.76 216.576 427.76 216.751C427.76 216.867 427.73 216.974 427.671 217.071C427.614 217.168 427.537 217.246 427.44 217.305C427.345 217.362 427.239 217.391 427.121 217.391ZM431.622 222.099C431.087 222.099 430.631 221.954 430.254 221.663C429.878 221.369 429.59 220.944 429.391 220.388C429.193 219.829 429.093 219.154 429.093 218.364C429.093 217.578 429.193 216.906 429.391 216.35C429.593 215.791 429.882 215.365 430.258 215.072C430.637 214.776 431.091 214.628 431.622 214.628C432.152 214.628 432.605 214.776 432.982 215.072C433.36 215.365 433.649 215.791 433.848 216.35C434.049 216.906 434.15 217.578 434.15 218.364C434.15 219.154 434.051 219.829 433.852 220.388C433.653 220.944 433.365 221.369 432.989 221.663C432.612 221.954 432.157 222.099 431.622 222.099ZM431.622 221.318C432.152 221.318 432.564 221.062 432.857 220.551C433.151 220.04 433.298 219.311 433.298 218.364C433.298 217.734 433.23 217.198 433.095 216.755C432.963 216.312 432.771 215.975 432.52 215.743C432.271 215.511 431.972 215.395 431.622 215.395C431.096 215.395 430.685 215.654 430.389 216.173C430.093 216.689 429.945 217.419 429.945 218.364C429.945 218.993 430.012 219.528 430.144 219.969C430.277 220.409 430.467 220.744 430.716 220.974C430.967 221.203 431.269 221.318 431.622 221.318ZM437.872 222.099C437.337 222.099 436.881 221.954 436.504 221.663C436.128 221.369 435.84 220.944 435.641 220.388C435.443 219.829 435.343 219.154 435.343 218.364C435.343 217.578 435.443 216.906 435.641 216.35C435.843 215.791 436.132 215.365 436.508 215.072C436.887 214.776 437.341 214.628 437.872 214.628C438.402 214.628 438.855 214.776 439.232 215.072C439.61 215.365 439.899 215.791 440.098 216.35C440.299 216.906 440.4 217.578 440.4 218.364C440.4 219.154 440.301 219.829 440.102 220.388C439.903 220.944 439.615 221.369 439.239 221.663C438.862 221.954 438.407 222.099 437.872 222.099ZM437.872 221.318C438.402 221.318 438.814 221.062 439.107 220.551C439.401 220.04 439.548 219.311 439.548 218.364C439.548 217.734 439.48 217.198 439.345 216.755C439.213 216.312 439.021 215.975 438.77 215.743C438.521 215.511 438.222 215.395 437.872 215.395C437.346 215.395 436.935 215.654 436.639 216.173C436.343 216.689 436.195 217.419 436.195 218.364C436.195 218.993 436.262 219.528 436.394 219.969C436.527 220.409 436.717 220.744 436.966 220.974C437.217 221.203 437.519 221.318 437.872 221.318Z" fill="#0452A1"/>
<path d="M424.65 66V204" stroke="#E3E8F2"/>
<path d="M449.7 66V204" stroke="#E3E8F2"/>
<path d="M474.75 66V204" stroke="#E3E8F2"/>
<path d="M499.8 66V204" stroke="#E3E8F2"/>
<path d="M503.11 214.727V222H502.229V215.651H502.187L500.411 216.83V215.935L502.229 214.727H503.11ZM507.531 222.099C507.043 222.099 506.612 222.013 506.238 221.84C505.867 221.665 505.577 221.425 505.368 221.119C505.16 220.812 505.057 220.461 505.059 220.068C505.057 219.76 505.117 219.476 505.241 219.216C505.364 218.953 505.532 218.734 505.745 218.559C505.96 218.381 506.201 218.269 506.466 218.222V218.179C506.118 218.089 505.841 217.894 505.635 217.593C505.429 217.29 505.327 216.946 505.329 216.56C505.327 216.19 505.42 215.86 505.61 215.569C505.799 215.278 506.06 215.048 506.391 214.88C506.725 214.712 507.105 214.628 507.531 214.628C507.952 214.628 508.329 214.712 508.66 214.88C508.992 215.048 509.252 215.278 509.442 215.569C509.633 215.86 509.73 216.19 509.733 216.56C509.73 216.946 509.625 217.29 509.417 217.593C509.211 217.894 508.937 218.089 508.596 218.179V218.222C508.859 218.269 509.096 218.381 509.307 218.559C509.517 218.734 509.685 218.953 509.811 219.216C509.936 219.476 510 219.76 510.003 220.068C510 220.461 509.894 220.812 509.683 221.119C509.475 221.425 509.185 221.665 508.813 221.84C508.444 222.013 508.016 222.099 507.531 222.099ZM507.531 221.318C507.86 221.318 508.144 221.265 508.383 221.158C508.622 221.052 508.807 220.902 508.937 220.707C509.067 220.513 509.134 220.286 509.136 220.026C509.134 219.751 509.063 219.508 508.923 219.298C508.783 219.087 508.593 218.921 508.351 218.8C508.112 218.68 507.839 218.619 507.531 218.619C507.221 218.619 506.944 218.68 506.7 218.8C506.459 218.921 506.268 219.087 506.128 219.298C505.991 219.508 505.924 219.751 505.926 220.026C505.924 220.286 505.986 220.513 506.114 220.707C506.244 220.902 506.43 221.052 506.672 221.158C506.913 221.265 507.2 221.318 507.531 221.318ZM507.531 217.866C507.791 217.866 508.022 217.814 508.223 217.71C508.427 217.606 508.587 217.46 508.703 217.273C508.819 217.086 508.878 216.867 508.88 216.616C508.878 216.37 508.82 216.156 508.706 215.974C508.593 215.789 508.435 215.647 508.234 215.548C508.033 215.446 507.799 215.395 507.531 215.395C507.259 215.395 507.021 215.446 506.817 215.548C506.614 215.647 506.456 215.789 506.345 215.974C506.234 216.156 506.179 216.37 506.182 216.616C506.179 216.867 506.235 217.086 506.348 217.273C506.464 217.46 506.624 217.606 506.828 217.71C507.031 217.814 507.266 217.866 507.531 217.866ZM511.989 221.07C511.813 221.07 511.663 221.007 511.538 220.881C511.412 220.756 511.349 220.606 511.349 220.43C511.349 220.255 511.412 220.105 511.538 219.979C511.663 219.854 511.813 219.791 511.989 219.791C512.164 219.791 512.314 219.854 512.44 219.979C512.565 220.105 512.628 220.255 512.628 220.43C512.628 220.546 512.598 220.653 512.539 220.75C512.482 220.847 512.405 220.925 512.308 220.984C512.213 221.041 512.107 221.07 511.989 221.07ZM511.989 217.391C511.813 217.391 511.663 217.328 511.538 217.202C511.412 217.077 511.349 216.927 511.349 216.751C511.349 216.576 511.412 216.426 511.538 216.3C511.663 216.175 511.813 216.112 511.989 216.112C512.164 216.112 512.314 216.175 512.44 216.3C512.565 216.426 512.628 216.576 512.628 216.751C512.628 216.867 512.598 216.974 512.539 217.071C512.482 217.168 512.405 217.246 512.308 217.305C512.213 217.362 512.107 217.391 511.989 217.391ZM516.49 222.099C515.955 222.099 515.499 221.954 515.122 221.663C514.746 221.369 514.458 220.944 514.26 220.388C514.061 219.829 513.961 219.154 513.961 218.364C513.961 217.578 514.061 216.906 514.26 216.35C514.461 215.791 514.75 215.365 515.126 215.072C515.505 214.776 515.959 214.628 516.49 214.628C517.02 214.628 517.473 214.776 517.85 215.072C518.228 215.365 518.517 215.791 518.716 216.35C518.917 216.906 519.018 217.578 519.018 218.364C519.018 219.154 518.919 219.829 518.72 220.388C518.521 220.944 518.233 221.369 517.857 221.663C517.48 221.954 517.025 222.099 516.49 222.099ZM516.49 221.318C517.02 221.318 517.432 221.062 517.725 220.551C518.019 220.04 518.166 219.311 518.166 218.364C518.166 217.734 518.098 217.198 517.963 216.755C517.831 216.312 517.639 215.975 517.388 215.743C517.139 215.511 516.84 215.395 516.49 215.395C515.964 215.395 515.553 215.654 515.257 216.173C514.961 216.689 514.813 217.419 514.813 218.364C514.813 218.993 514.88 219.528 515.012 219.969C515.145 220.409 515.336 220.744 515.584 220.974C515.835 221.203 516.137 221.318 516.49 221.318ZM522.74 222.099C522.205 222.099 521.749 221.954 521.372 221.663C520.996 221.369 520.708 220.944 520.51 220.388C520.311 219.829 520.211 219.154 520.211 218.364C520.211 217.578 520.311 216.906 520.51 216.35C520.711 215.791 521 215.365 521.376 215.072C521.755 214.776 522.209 214.628 522.74 214.628C523.27 214.628 523.723 214.776 524.1 215.072C524.478 215.365 524.767 215.791 524.966 216.35C525.167 216.906 525.268 217.578 525.268 218.364C525.268 219.154 525.169 219.829 524.97 220.388C524.771 220.944 524.483 221.369 524.107 221.663C523.73 221.954 523.275 222.099 522.74 222.099ZM522.74 221.318C523.27 221.318 523.682 221.062 523.975 220.551C524.269 220.04 524.416 219.311 524.416 218.364C524.416 217.734 524.348 217.198 524.213 216.755C524.081 216.312 523.889 215.975 523.638 215.743C523.389 215.511 523.09 215.395 522.74 215.395C522.214 215.395 521.803 215.654 521.507 216.173C521.211 216.689 521.063 217.419 521.063 218.364C521.063 218.993 521.13 219.528 521.262 219.969C521.395 220.409 521.586 220.744 521.834 220.974C522.085 221.203 522.387 221.318 522.74 221.318ZM527.242 221.07C527.067 221.07 526.917 221.007 526.791 220.881C526.666 220.756 526.603 220.606 526.603 220.43C526.603 220.255 526.666 220.105 526.791 219.979C526.917 219.854 527.067 219.791 527.242 219.791C527.418 219.791 527.568 219.854 527.693 219.979C527.819 220.105 527.882 220.255 527.882 220.43C527.882 220.546 527.852 220.653 527.793 220.75C527.736 220.847 527.659 220.925 527.562 220.984C527.467 221.041 527.361 221.07 527.242 221.07ZM527.242 217.391C527.067 217.391 526.917 217.328 526.791 217.202C526.666 217.077 526.603 216.927 526.603 216.751C526.603 216.576 526.666 216.426 526.791 216.3C526.917 216.175 527.067 216.112 527.242 216.112C527.418 216.112 527.568 216.175 527.693 216.3C527.819 216.426 527.882 216.576 527.882 216.751C527.882 216.867 527.852 216.974 527.793 217.071C527.736 217.168 527.659 217.246 527.562 217.305C527.467 217.362 527.361 217.391 527.242 217.391ZM531.744 222.099C531.208 222.099 530.753 221.954 530.376 221.663C530 221.369 529.712 220.944 529.513 220.388C529.315 219.829 529.215 219.154 529.215 218.364C529.215 217.578 529.315 216.906 529.513 216.35C529.715 215.791 530.003 215.365 530.38 215.072C530.759 214.776 531.213 214.628 531.744 214.628C532.274 214.628 532.727 214.776 533.104 215.072C533.482 215.365 533.771 215.791 533.97 216.35C534.171 216.906 534.272 217.578 534.272 218.364C534.272 219.154 534.173 219.829 533.974 220.388C533.775 220.944 533.487 221.369 533.111 221.663C532.734 221.954 532.279 222.099 531.744 222.099ZM531.744 221.318C532.274 221.318 532.686 221.062 532.979 220.551C533.273 220.04 533.42 219.311 533.42 218.364C533.42 217.734 533.352 217.198 533.217 216.755C533.085 216.312 532.893 215.975 532.642 215.743C532.393 215.511 532.094 215.395 531.744 215.395C531.218 215.395 530.807 215.654 530.511 216.173C530.215 216.689 530.067 217.419 530.067 218.364C530.067 218.993 530.134 219.528 530.266 219.969C530.399 220.409 530.589 220.744 530.838 220.974C531.089 221.203 531.391 221.318 531.744 221.318ZM537.994 222.099C537.458 222.099 537.003 221.954 536.626 221.663C536.25 221.369 535.962 220.944 535.763 220.388C535.565 219.829 535.465 219.154 535.465 218.364C535.465 217.578 535.565 216.906 535.763 216.35C535.965 215.791 536.253 215.365 536.63 215.072C537.009 214.776 537.463 214.628 537.994 214.628C538.524 214.628 538.977 214.776 539.354 215.072C539.732 215.365 540.021 215.791 540.22 216.35C540.421 216.906 540.522 217.578 540.522 218.364C540.522 219.154 540.423 219.829 540.224 220.388C540.025 220.944 539.737 221.369 539.361 221.663C538.984 221.954 538.529 222.099 537.994 222.099ZM537.994 221.318C538.524 221.318 538.936 221.062 539.229 220.551C539.523 220.04 539.67 219.311 539.67 218.364C539.67 217.734 539.602 217.198 539.467 216.755C539.335 216.312 539.143 215.975 538.892 215.743C538.643 215.511 538.344 215.395 537.994 215.395C537.468 215.395 537.057 215.654 536.761 216.173C536.465 216.689 536.317 217.419 536.317 218.364C536.317 218.993 536.384 219.528 536.516 219.969C536.649 220.409 536.839 220.744 537.088 220.974C537.339 221.203 537.641 221.318 537.994 221.318Z" fill="#0452A1"/>
<path d="M524.85 66V204" stroke="#E3E8F2"/>
<path d="M549.9 66V204" stroke="#E3E8F2"/>
<path d="M574.95 66V204" stroke="#E3E8F2"/>
<mask id="path-36-inside-1_1732_43337" fill="white">
<path d="M99 126.935H121V204H99V126.935Z"/>
</mask>
<path d="M99 126.935H121V204H99V126.935Z" fill="#ECF1F9"/>
<path d="M99 126.935V127.935H121V126.935V125.935H99V126.935Z" fill="white" mask="url(#path-36-inside-1_1732_43337)"/>
<mask id="path-38-inside-2_1732_43337" fill="white">
<path d="M99 160.644H121V204H99V160.644Z"/>
</mask>
<path d="M99 160.644H121V204H99V160.644Z" fill="#ECF1F9"/>
<path d="M99 160.644V161.644H121V160.644V159.644H99V160.644Z" fill="white" mask="url(#path-38-inside-2_1732_43337)"/>
<mask id="path-40-inside-3_1732_43337" fill="white">
<path d="M99 181.793H121V204H99V181.793Z"/>
</mask>
<path d="M99 181.793H121V204H99V181.793Z" fill="#ECF1F9"/>
<path d="M99 181.793V182.793H121V181.793V180.793H99V181.793Z" fill="white" mask="url(#path-40-inside-3_1732_43337)"/>
<mask id="path-42-inside-4_1732_43337" fill="white">
<path d="M124.15 154.266H146.15V204H124.15V154.266Z"/>
</mask>
<path d="M124.15 154.266H146.15V204H124.15V154.266Z" fill="#ECF1F9"/>
<path d="M124.15 154.266V155.266H146.15V154.266V153.266H124.15V154.266Z" fill="white" mask="url(#path-42-inside-4_1732_43337)"/>
<mask id="path-44-inside-5_1732_43337" fill="white">
<path d="M124.15 175.977H146.15V204H124.15V175.977Z"/>
</mask>
<path d="M124.15 175.977H146.15V204H124.15V175.977Z" fill="#ECF1F9"/>
<path d="M124.15 175.977V176.977H146.15V175.977V174.977H124.15V175.977Z" fill="white" mask="url(#path-44-inside-5_1732_43337)"/>
<mask id="path-46-inside-6_1732_43337" fill="white">
<path d="M124.15 189.724H146.15V204H124.15V189.724Z"/>
</mask>
<path d="M124.15 189.724H146.15V204H124.15V189.724Z" fill="#ECF1F9"/>
<path d="M124.15 189.724V190.724H146.15V189.724V188.724H124.15V189.724Z" fill="white" mask="url(#path-46-inside-6_1732_43337)"/>
<mask id="path-48-inside-7_1732_43337" fill="white">
<path d="M149.3 122.455H171.3V204H149.3V122.455Z"/>
</mask>
<path d="M149.3 122.455H171.3V204H149.3V122.455Z" fill="#ECF1F9"/>
<path d="M149.3 122.455V123.455H171.3V122.455V121.455H149.3V122.455Z" fill="white" mask="url(#path-48-inside-7_1732_43337)"/>
<mask id="path-50-inside-8_1732_43337" fill="white">
<path d="M149.3 158H171.3V204H149.3V158Z"/>
</mask>
<path d="M149.3 158H171.3V204H149.3V158Z" fill="#ECF1F9"/>
<path d="M149.3 158V159H171.3V158V157H149.3V158Z" fill="white" mask="url(#path-50-inside-8_1732_43337)"/>
<mask id="path-52-inside-9_1732_43337" fill="white">
<path d="M149.3 180.736H171.3V204H149.3V180.736Z"/>
</mask>
<path d="M149.3 180.736H171.3V204H149.3V180.736Z" fill="#ECF1F9"/>
<path d="M149.3 180.736V181.736H171.3V180.736V179.736H149.3V180.736Z" fill="white" mask="url(#path-52-inside-9_1732_43337)"/>
<mask id="path-54-inside-10_1732_43337" fill="white">
<path d="M174.45 113.494H196.45V204H174.45V113.494Z"/>
</mask>
<path d="M174.45 113.494H196.45V204H174.45V113.494Z" fill="#ECF1F9"/>
<path d="M174.45 113.494V114.494H196.45V113.494V112.494H174.45V113.494Z" fill="white" mask="url(#path-54-inside-10_1732_43337)"/>
<mask id="path-56-inside-11_1732_43337" fill="white">
<path d="M174.45 152.713H196.45V204H174.45V152.713Z"/>
</mask>
<path d="M174.45 152.713H196.45V204H174.45V152.713Z" fill="#ECF1F9"/>
<path d="M174.45 152.713V153.713H196.45V152.713V151.713H174.45V152.713Z" fill="white" mask="url(#path-56-inside-11_1732_43337)"/>
<mask id="path-58-inside-12_1732_43337" fill="white">
<path d="M174.45 178.092H196.45V204H174.45V178.092Z"/>
</mask>
<path d="M174.45 178.092H196.45V204H174.45V178.092Z" fill="#ECF1F9"/>
<path d="M174.45 178.092V179.092H196.45V178.092V177.092H174.45V178.092Z" fill="white" mask="url(#path-58-inside-12_1732_43337)"/>
<mask id="path-60-inside-13_1732_43337" fill="white">
<path d="M199.6 127.383H221.6V204H199.6V127.383Z"/>
</mask>
<path d="M199.6 127.383H221.6V204H199.6V127.383Z" fill="#ECF1F9"/>
<path d="M199.6 127.383V128.383H221.6V127.383V126.383H199.6V127.383Z" fill="white" mask="url(#path-60-inside-13_1732_43337)"/>
<mask id="path-62-inside-14_1732_43337" fill="white">
<path d="M199.6 160.644H221.6V204H199.6V160.644Z"/>
</mask>
<path d="M199.6 160.644H221.6V204H199.6V160.644Z" fill="#ECF1F9"/>
<path d="M199.6 160.644V161.644H221.6V160.644V159.644H199.6V160.644Z" fill="white" mask="url(#path-62-inside-14_1732_43337)"/>
<mask id="path-64-inside-15_1732_43337" fill="white">
<path d="M199.6 181.793H221.6V204H199.6V181.793Z"/>
</mask>
<path d="M199.6 181.793H221.6V204H199.6V181.793Z" fill="#ECF1F9"/>
<path d="M199.6 181.793V182.793H221.6V181.793V180.793H199.6V181.793Z" fill="white" mask="url(#path-64-inside-15_1732_43337)"/>
<mask id="path-66-inside-16_1732_43337" fill="white">
<path d="M224.75 147.097H246.75V204H224.75V147.097Z"/>
</mask>
<path d="M224.75 147.097H246.75V204H224.75V147.097Z" fill="#ECF1F9"/>
<path d="M224.75 147.097V148.097H246.75V147.097V146.097H224.75V147.097Z" fill="white" mask="url(#path-66-inside-16_1732_43337)"/>
<mask id="path-68-inside-17_1732_43337" fill="white">
<path d="M224.75 171.747H246.75V204H224.75V171.747Z"/>
</mask>
<path d="M224.75 171.747H246.75V204H224.75V171.747Z" fill="#ECF1F9"/>
<path d="M224.75 171.747V172.747H246.75V171.747V170.747H224.75V171.747Z" fill="white" mask="url(#path-68-inside-17_1732_43337)"/>
<mask id="path-70-inside-18_1732_43337" fill="white">
<path d="M224.75 187.609H246.75V204H224.75V187.609Z"/>
</mask>
<path d="M224.75 187.609H246.75V204H224.75V187.609Z" fill="#ECF1F9"/>
<path d="M224.75 187.609V188.609H246.75V187.609V186.609H224.75V187.609Z" fill="white" mask="url(#path-70-inside-18_1732_43337)"/>
<mask id="path-72-inside-19_1732_43337" fill="white">
<path d="M249.9 120.214H271.9V204H249.9V120.214Z"/>
</mask>
<path d="M249.9 120.214H271.9V204H249.9V120.214Z" fill="#ECF1F9"/>
<path d="M249.9 120.214V121.214H271.9V120.214V119.214H249.9V120.214Z" fill="white" mask="url(#path-72-inside-19_1732_43337)"/>
<mask id="path-74-inside-20_1732_43337" fill="white">
<path d="M249.9 156.414H271.9V204H249.9V156.414Z"/>
</mask>
<path d="M249.9 156.414H271.9V204H249.9V156.414Z" fill="#ECF1F9"/>
<path d="M249.9 156.414V157.414H271.9V156.414V155.414H249.9V156.414Z" fill="white" mask="url(#path-74-inside-20_1732_43337)"/>
<mask id="path-76-inside-21_1732_43337" fill="white">
<path d="M249.9 179.678H271.9V204H249.9V179.678Z"/>
</mask>
<path d="M249.9 179.678H271.9V204H249.9V179.678Z" fill="#ECF1F9"/>
<path d="M249.9 179.678V180.678H271.9V179.678V178.678H249.9V179.678Z" fill="white" mask="url(#path-76-inside-21_1732_43337)"/>
<mask id="path-78-inside-22_1732_43337" fill="white">
<path d="M275.05 106.773H297.05V204H275.05V106.773Z"/>
</mask>
<path d="M275.05 106.773H297.05V204H275.05V106.773Z" fill="#ECF1F9"/>
<path d="M275.05 106.773V107.773H297.05V106.773V105.773H275.05V106.773Z" fill="white" mask="url(#path-78-inside-22_1732_43337)"/>
<mask id="path-80-inside-23_1732_43337" fill="white">
<path d="M275.05 149.011H297.05V204H275.05V149.011Z"/>
</mask>
<path d="M275.05 149.011H297.05V204H275.05V149.011Z" fill="#ECF1F9"/>
<path d="M275.05 149.011V150.011H297.05V149.011V148.011H275.05V149.011Z" fill="white" mask="url(#path-80-inside-23_1732_43337)"/>
<mask id="path-82-inside-24_1732_43337" fill="white">
<path d="M275.05 175.977H297.05V204H275.05V175.977Z"/>
</mask>
<path d="M275.05 175.977H297.05V204H275.05V175.977Z" fill="#ECF1F9"/>
<path d="M275.05 175.977V176.977H297.05V175.977V174.977H275.05V175.977Z" fill="white" mask="url(#path-82-inside-24_1732_43337)"/>
<mask id="path-84-inside-25_1732_43337" fill="white">
<path d="M300.2 120.214H322.2V204H300.2V120.214Z"/>
</mask>
<path d="M300.2 120.214H322.2V204H300.2V120.214Z" fill="#ECF1F9"/>
<path d="M300.2 120.214V121.214H322.2V120.214V119.214H300.2V120.214Z" fill="white" mask="url(#path-84-inside-25_1732_43337)"/>
<mask id="path-86-inside-26_1732_43337" fill="white">
<path d="M300.2 156.414H322.2V204H300.2V156.414Z"/>
</mask>
<path d="M300.2 156.414H322.2V204H300.2V156.414Z" fill="#ECF1F9"/>
<path d="M300.2 156.414V157.414H322.2V156.414V155.414H300.2V156.414Z" fill="white" mask="url(#path-86-inside-26_1732_43337)"/>
<mask id="path-88-inside-27_1732_43337" fill="white">
<path d="M300.2 179.678H322.2V204H300.2V179.678Z"/>
</mask>
<path d="M300.2 179.678H322.2V204H300.2V179.678Z" fill="#ECF1F9"/>
<path d="M300.2 179.678V180.678H322.2V179.678V178.678H300.2V179.678Z" fill="white" mask="url(#path-88-inside-27_1732_43337)"/>
<mask id="path-90-inside-28_1732_43337" fill="white">
<path d="M325.35 106.773H347.35V204H325.35V106.773Z"/>
</mask>
<path d="M325.35 106.773H347.35V204H325.35V106.773Z" fill="#ECF1F9"/>
<path d="M325.35 106.773V107.773H347.35V106.773V105.773H325.35V106.773Z" fill="white" mask="url(#path-90-inside-28_1732_43337)"/>
<mask id="path-92-inside-29_1732_43337" fill="white">
<path d="M325.35 149.011H347.35V204H325.35V149.011Z"/>
</mask>
<path d="M325.35 149.011H347.35V204H325.35V149.011Z" fill="#ECF1F9"/>
<path d="M325.35 149.011V150.011H347.35V149.011V148.011H325.35V149.011Z" fill="white" mask="url(#path-92-inside-29_1732_43337)"/>
<mask id="path-94-inside-30_1732_43337" fill="white">
<path d="M325.35 175.977H347.35V204H325.35V175.977Z"/>
</mask>
<path d="M325.35 175.977H347.35V204H325.35V175.977Z" fill="#ECF1F9"/>
<path d="M325.35 175.977V176.977H347.35V175.977V174.977H325.35V175.977Z" fill="white" mask="url(#path-94-inside-30_1732_43337)"/>
<mask id="path-96-inside-31_1732_43337" fill="white">
<path d="M350.5 126.935H372.5V204H350.5V126.935Z"/>
</mask>
<path d="M350.5 126.935H372.5V204H350.5V126.935Z" fill="#ECF1F9"/>
<path d="M350.5 126.935V127.935H372.5V126.935V125.935H350.5V126.935Z" fill="white" mask="url(#path-96-inside-31_1732_43337)"/>
<mask id="path-98-inside-32_1732_43337" fill="white">
<path d="M350.5 160.644H372.5V204H350.5V160.644Z"/>
</mask>
<path d="M350.5 160.644H372.5V204H350.5V160.644Z" fill="#ECF1F9"/>
<path d="M350.5 160.644V161.644H372.5V160.644V159.644H350.5V160.644Z" fill="white" mask="url(#path-98-inside-32_1732_43337)"/>
<mask id="path-100-inside-33_1732_43337" fill="white">
<path d="M350.5 181.793H372.5V204H350.5V181.793Z"/>
</mask>
<path d="M350.5 181.793H372.5V204H350.5V181.793Z" fill="#ECF1F9"/>
<path d="M350.5 181.793V182.793H372.5V181.793V180.793H350.5V181.793Z" fill="white" mask="url(#path-100-inside-33_1732_43337)"/>
<mask id="path-102-inside-34_1732_43337" fill="white">
<path d="M375.65 154.266H397.65V204H375.65V154.266Z"/>
</mask>
<path d="M375.65 154.266H397.65V204H375.65V154.266Z" fill="#ECF1F9"/>
<path d="M375.65 154.266V155.266H397.65V154.266V153.266H375.65V154.266Z" fill="white" mask="url(#path-102-inside-34_1732_43337)"/>
<mask id="path-104-inside-35_1732_43337" fill="white">
<path d="M375.65 175.977H397.65V204H375.65V175.977Z"/>
</mask>
<path d="M375.65 175.977H397.65V204H375.65V175.977Z" fill="#ECF1F9"/>
<path d="M375.65 175.977V176.977H397.65V175.977V174.977H375.65V175.977Z" fill="white" mask="url(#path-104-inside-35_1732_43337)"/>
<mask id="path-106-inside-36_1732_43337" fill="white">
<path d="M375.65 189.724H397.65V204H375.65V189.724Z"/>
</mask>
<path d="M375.65 189.724H397.65V204H375.65V189.724Z" fill="#ECF1F9"/>
<path d="M375.65 189.724V190.724H397.65V189.724V188.724H375.65V189.724Z" fill="white" mask="url(#path-106-inside-36_1732_43337)"/>
<mask id="path-108-inside-37_1732_43337" fill="white">
<path d="M400.8 122.455H422.8V204H400.8V122.455Z"/>
</mask>
<path d="M400.8 122.455H422.8V204H400.8V122.455Z" fill="#ECF1F9"/>
<path d="M400.8 122.455V123.455H422.8V122.455V121.455H400.8V122.455Z" fill="white" mask="url(#path-108-inside-37_1732_43337)"/>
<mask id="path-110-inside-38_1732_43337" fill="white">
<path d="M400.8 158H422.8V204H400.8V158Z"/>
</mask>
<path d="M400.8 158H422.8V204H400.8V158Z" fill="#ECF1F9"/>
<path d="M400.8 158V159H422.8V158V157H400.8V158Z" fill="white" mask="url(#path-110-inside-38_1732_43337)"/>
<mask id="path-112-inside-39_1732_43337" fill="white">
<path d="M400.8 180.736H422.8V204H400.8V180.736Z"/>
</mask>
<path d="M400.8 180.736H422.8V204H400.8V180.736Z" fill="#ECF1F9"/>
<path d="M400.8 180.736V181.736H422.8V180.736V179.736H400.8V180.736Z" fill="white" mask="url(#path-112-inside-39_1732_43337)"/>
<mask id="path-114-inside-40_1732_43337" fill="white">
<path d="M425.95 113.494H447.95V204H425.95V113.494Z"/>
</mask>
<path d="M425.95 113.494H447.95V204H425.95V113.494Z" fill="#ECF1F9"/>
<path d="M425.95 113.494V114.494H447.95V113.494V112.494H425.95V113.494Z" fill="white" mask="url(#path-114-inside-40_1732_43337)"/>
<mask id="path-116-inside-41_1732_43337" fill="white">
<path d="M425.95 152.713H447.95V204H425.95V152.713Z"/>
</mask>
<path d="M425.95 152.713H447.95V204H425.95V152.713Z" fill="#ECF1F9"/>
<path d="M425.95 152.713V153.713H447.95V152.713V151.713H425.95V152.713Z" fill="white" mask="url(#path-116-inside-41_1732_43337)"/>
<mask id="path-118-inside-42_1732_43337" fill="white">
<path d="M425.95 178.092H447.95V204H425.95V178.092Z"/>
</mask>
<path d="M425.95 178.092H447.95V204H425.95V178.092Z" fill="#ECF1F9"/>
<path d="M425.95 178.092V179.092H447.95V178.092V177.092H425.95V178.092Z" fill="white" mask="url(#path-118-inside-42_1732_43337)"/>
<mask id="path-120-inside-43_1732_43337" fill="white">
<path d="M451.1 127.383H473.1V204H451.1V127.383Z"/>
</mask>
<path d="M451.1 127.383H473.1V204H451.1V127.383Z" fill="#ECF1F9"/>
<path d="M451.1 127.383V128.383H473.1V127.383V126.383H451.1V127.383Z" fill="white" mask="url(#path-120-inside-43_1732_43337)"/>
<mask id="path-122-inside-44_1732_43337" fill="white">
<path d="M451.1 160.644H473.1V204H451.1V160.644Z"/>
</mask>
<path d="M451.1 160.644H473.1V204H451.1V160.644Z" fill="#ECF1F9"/>
<path d="M451.1 160.644V161.644H473.1V160.644V159.644H451.1V160.644Z" fill="white" mask="url(#path-122-inside-44_1732_43337)"/>
<mask id="path-124-inside-45_1732_43337" fill="white">
<path d="M451.1 181.793H473.1V204H451.1V181.793Z"/>
</mask>
<path d="M451.1 181.793H473.1V204H451.1V181.793Z" fill="#ECF1F9"/>
<path d="M451.1 181.793V182.793H473.1V181.793V180.793H451.1V181.793Z" fill="white" mask="url(#path-124-inside-45_1732_43337)"/>
<mask id="path-126-inside-46_1732_43337" fill="white">
<path d="M476.25 147.097H498.25V204H476.25V147.097Z"/>
</mask>
<path d="M476.25 147.097H498.25V204H476.25V147.097Z" fill="#ECF1F9"/>
<path d="M476.25 147.097V148.097H498.25V147.097V146.097H476.25V147.097Z" fill="white" mask="url(#path-126-inside-46_1732_43337)"/>
<mask id="path-128-inside-47_1732_43337" fill="white">
<path d="M476.25 171.747H498.25V204H476.25V171.747Z"/>
</mask>
<path d="M476.25 171.747H498.25V204H476.25V171.747Z" fill="#ECF1F9"/>
<path d="M476.25 171.747V172.747H498.25V171.747V170.747H476.25V171.747Z" fill="white" mask="url(#path-128-inside-47_1732_43337)"/>
<mask id="path-130-inside-48_1732_43337" fill="white">
<path d="M476.25 187.609H498.25V204H476.25V187.609Z"/>
</mask>
<path d="M476.25 187.609H498.25V204H476.25V187.609Z" fill="#ECF1F9"/>
<path d="M476.25 187.609V188.609H498.25V187.609V186.609H476.25V187.609Z" fill="white" mask="url(#path-130-inside-48_1732_43337)"/>
<mask id="path-132-inside-49_1732_43337" fill="white">
<path d="M501.4 120.214H523.4V204H501.4V120.214Z"/>
</mask>
<path d="M501.4 120.214H523.4V204H501.4V120.214Z" fill="#ECF1F9"/>
<path d="M501.4 120.214V121.214H523.4V120.214V119.214H501.4V120.214Z" fill="white" mask="url(#path-132-inside-49_1732_43337)"/>
<mask id="path-134-inside-50_1732_43337" fill="white">
<path d="M501.4 156.414H523.4V204H501.4V156.414Z"/>
</mask>
<path d="M501.4 156.414H523.4V204H501.4V156.414Z" fill="#ECF1F9"/>
<path d="M501.4 156.414V157.414H523.4V156.414V155.414H501.4V156.414Z" fill="white" mask="url(#path-134-inside-50_1732_43337)"/>
<mask id="path-136-inside-51_1732_43337" fill="white">
<path d="M501.4 179.678H523.4V204H501.4V179.678Z"/>
</mask>
<path d="M501.4 179.678H523.4V204H501.4V179.678Z" fill="#ECF1F9"/>
<path d="M501.4 179.678V180.678H523.4V179.678V178.678H501.4V179.678Z" fill="white" mask="url(#path-136-inside-51_1732_43337)"/>
<mask id="path-138-inside-52_1732_43337" fill="white">
<path d="M526.55 106.773H548.55V204H526.55V106.773Z"/>
</mask>
<path d="M526.55 106.773H548.55V204H526.55V106.773Z" fill="#ECF1F9"/>
<path d="M526.55 106.773V107.773H548.55V106.773V105.773H526.55V106.773Z" fill="white" mask="url(#path-138-inside-52_1732_43337)"/>
<mask id="path-140-inside-53_1732_43337" fill="white">
<path d="M526.55 149.011H548.55V204H526.55V149.011Z"/>
</mask>
<path d="M526.55 149.011H548.55V204H526.55V149.011Z" fill="#ECF1F9"/>
<path d="M526.55 149.011V150.011H548.55V149.011V148.011H526.55V149.011Z" fill="white" mask="url(#path-140-inside-53_1732_43337)"/>
<mask id="path-142-inside-54_1732_43337" fill="white">
<path d="M526.55 175.977H548.55V204H526.55V175.977Z"/>
</mask>
<path d="M526.55 175.977H548.55V204H526.55V175.977Z" fill="#ECF1F9"/>
<path d="M526.55 175.977V176.977H548.55V175.977V174.977H526.55V175.977Z" fill="white" mask="url(#path-142-inside-54_1732_43337)"/>
<mask id="path-144-inside-55_1732_43337" fill="white">
<path d="M551.7 120.214H573.7V204H551.7V120.214Z"/>
</mask>
<path d="M551.7 120.214H573.7V204H551.7V120.214Z" fill="#ECF1F9"/>
<path d="M551.7 120.214V121.214H573.7V120.214V119.214H551.7V120.214Z" fill="white" mask="url(#path-144-inside-55_1732_43337)"/>
<mask id="path-146-inside-56_1732_43337" fill="white">
<path d="M551.7 156.414H573.7V204H551.7V156.414Z"/>
</mask>
<path d="M551.7 156.414H573.7V204H551.7V156.414Z" fill="#ECF1F9"/>
<path d="M551.7 156.414V157.414H573.7V156.414V155.414H551.7V156.414Z" fill="white" mask="url(#path-146-inside-56_1732_43337)"/>
<mask id="path-148-inside-57_1732_43337" fill="white">
<path d="M551.7 179.678H573.7V204H551.7V179.678Z"/>
</mask>
<path d="M551.7 179.678H573.7V204H551.7V179.678Z" fill="#ECF1F9"/>
<path d="M551.7 179.678V180.678H573.7V179.678V178.678H551.7V179.678Z" fill="white" mask="url(#path-148-inside-57_1732_43337)"/>
<mask id="path-150-inside-58_1732_43337" fill="white">
<path d="M576.85 106.773H598.85V204H576.85V106.773Z"/>
</mask>
<path d="M576.85 106.773H598.85V204H576.85V106.773Z" fill="#ECF1F9"/>
<path d="M576.85 106.773V107.773H598.85V106.773V105.773H576.85V106.773Z" fill="white" mask="url(#path-150-inside-58_1732_43337)"/>
<mask id="path-152-inside-59_1732_43337" fill="white">
<path d="M576.85 149.011H598.85V204H576.85V149.011Z"/>
</mask>
<path d="M576.85 149.011H598.85V204H576.85V149.011Z" fill="#ECF1F9"/>
<path d="M576.85 149.011V150.011H598.85V149.011V148.011H576.85V149.011Z" fill="white" mask="url(#path-152-inside-59_1732_43337)"/>
<mask id="path-154-inside-60_1732_43337" fill="white">
<path d="M576.85 175.977H598.85V204H576.85V175.977Z"/>
</mask>
<path d="M576.85 175.977H598.85V204H576.85V175.977Z" fill="#ECF1F9"/>
<path d="M576.85 175.977V176.977H598.85V175.977V174.977H576.85V175.977Z" fill="white" mask="url(#path-154-inside-60_1732_43337)"/>
<rect x="99" y="66" width="501" height="138" stroke="#E3E8F2"/>
<line x1="98.5" y1="67" x2="98.5" y2="204" stroke="#0452A1"/>
<line x1="198.5" y1="67" x2="198.5" y2="204" stroke="#0452A1"/>
<line x1="299.5" y1="67" x2="299.5" y2="204" stroke="#0452A1"/>
<line x1="399.5" y1="67" x2="399.5" y2="204" stroke="#0452A1"/>
<line x1="500.5" y1="67" x2="500.5" y2="204" stroke="#0452A1"/>
<rect x="65" y="61" width="547" height="109" fill="url(#paint0_linear_1732_43337)"/>
<path d="M89.875 436.499C89.34 436.499 88.8842 436.354 88.5078 436.063C88.1314 435.769 87.8438 435.344 87.6449 434.788C87.446 434.229 87.3466 433.554 87.3466 432.764C87.3466 431.978 87.446 431.307 87.6449 430.75C87.8461 430.191 88.1349 429.765 88.5114 429.472C88.8902 429.176 89.3447 429.028 89.875 429.028C90.4053 429.028 90.8587 429.176 91.2351 429.472C91.6139 429.765 91.9027 430.191 92.1016 430.75C92.3028 431.307 92.4034 431.978 92.4034 432.764C92.4034 433.554 92.304 434.229 92.1051 434.788C91.9062 435.344 91.6186 435.769 91.2422 436.063C90.8658 436.354 90.41 436.499 89.875 436.499ZM89.875 435.718C90.4053 435.718 90.8172 435.463 91.1108 434.951C91.4044 434.44 91.5511 433.711 91.5511 432.764C91.5511 432.134 91.4837 431.598 91.3487 431.155C91.2161 430.712 91.0244 430.375 90.7734 430.143C90.5249 429.911 90.2254 429.795 89.875 429.795C89.3494 429.795 88.9387 430.054 88.6428 430.573C88.3468 431.089 88.1989 431.819 88.1989 432.764C88.1989 433.393 88.2652 433.928 88.3977 434.369C88.5303 434.809 88.7209 435.144 88.9695 435.374C89.2204 435.603 89.5223 435.718 89.875 435.718Z" fill="#0452A1"/>
<path d="M85.4112 391.777V399.05H84.5305V392.701H84.4879L82.7124 393.88V392.985L84.5305 391.777H85.4112ZM89.875 399.149C89.34 399.149 88.8842 399.004 88.5078 398.713C88.1314 398.419 87.8438 397.994 87.6449 397.438C87.446 396.879 87.3466 396.204 87.3466 395.414C87.3466 394.628 87.446 393.956 87.6449 393.4C87.8461 392.841 88.1349 392.415 88.5114 392.122C88.8902 391.826 89.3447 391.678 89.875 391.678C90.4053 391.678 90.8587 391.826 91.2351 392.122C91.6139 392.415 91.9027 392.841 92.1016 393.4C92.3028 393.956 92.4034 394.628 92.4034 395.414C92.4034 396.204 92.304 396.879 92.1051 397.438C91.9062 397.994 91.6186 398.419 91.2422 398.713C90.8658 399.004 90.41 399.149 89.875 399.149ZM89.875 398.368C90.4053 398.368 90.8172 398.112 91.1108 397.601C91.4044 397.09 91.5511 396.361 91.5511 395.414C91.5511 394.784 91.4837 394.248 91.3487 393.805C91.2161 393.362 91.0244 393.025 90.7734 392.793C90.5249 392.561 90.2254 392.445 89.875 392.445C89.3494 392.445 88.9387 392.704 88.6428 393.223C88.3468 393.739 88.1989 394.469 88.1989 395.414C88.1989 396.043 88.2652 396.578 88.3977 397.019C88.5303 397.459 88.7209 397.794 88.9695 398.024C89.2204 398.253 89.5223 398.368 89.875 398.368Z" fill="#0452A1"/>
<path d="M600 395.05L101 395.05" stroke="#E3E8F2" stroke-dasharray="5 5"/>
<path d="M81.4482 361.7V361.061L83.8487 358.433C84.1304 358.125 84.3625 357.858 84.5447 357.63C84.727 357.401 84.862 357.185 84.9496 356.984C85.0395 356.781 85.0845 356.567 85.0845 356.345C85.0845 356.089 85.023 355.868 84.8999 355.681C84.7791 355.494 84.6134 355.349 84.4027 355.248C84.192 355.146 83.9553 355.095 83.6925 355.095C83.4131 355.095 83.1693 355.153 82.9609 355.269C82.755 355.383 82.5952 355.542 82.4815 355.748C82.3703 355.954 82.3146 356.196 82.3146 356.473H81.4766C81.4766 356.047 81.5748 355.673 81.7713 355.351C81.9678 355.029 82.2353 354.778 82.5739 354.598C82.9148 354.418 83.2971 354.328 83.7209 354.328C84.147 354.328 84.5246 354.418 84.8537 354.598C85.1828 354.778 85.4408 355.02 85.6278 355.326C85.8149 355.631 85.9084 355.971 85.9084 356.345C85.9084 356.612 85.8598 356.874 85.7628 357.13C85.6681 357.383 85.5024 357.666 85.2656 357.978C85.0312 358.289 84.7057 358.667 84.2891 359.115L82.6555 360.862V360.919H86.0362V361.7H81.4482ZM89.875 361.799C89.34 361.799 88.8842 361.654 88.5078 361.363C88.1314 361.069 87.8438 360.644 87.6449 360.088C87.446 359.529 87.3466 358.854 87.3466 358.064C87.3466 357.278 87.446 356.606 87.6449 356.05C87.8461 355.491 88.1349 355.065 88.5114 354.772C88.8902 354.476 89.3447 354.328 89.875 354.328C90.4053 354.328 90.8587 354.476 91.2351 354.772C91.6139 355.065 91.9027 355.491 92.1016 356.05C92.3028 356.606 92.4034 357.278 92.4034 358.064C92.4034 358.854 92.304 359.529 92.1051 360.088C91.9062 360.644 91.6186 361.069 91.2422 361.363C90.8658 361.654 90.41 361.799 89.875 361.799ZM89.875 361.018C90.4053 361.018 90.8172 360.763 91.1108 360.251C91.4044 359.74 91.5511 359.011 91.5511 358.064C91.5511 357.434 91.4837 356.898 91.3487 356.455C91.2161 356.012 91.0244 355.675 90.7734 355.443C90.5249 355.211 90.2254 355.095 89.875 355.095C89.3494 355.095 88.9387 355.354 88.6428 355.873C88.3468 356.389 88.1989 357.119 88.1989 358.064C88.1989 358.693 88.2652 359.228 88.3977 359.669C88.5303 360.109 88.7209 360.444 88.9695 360.674C89.2204 360.903 89.5223 361.018 89.875 361.018Z" fill="#0452A1"/>
<path d="M600 357.7L101 357.7" stroke="#E3E8F2" stroke-dasharray="5 5"/>
<path d="M83.593 324.449C83.1243 324.449 82.7064 324.369 82.3395 324.208C81.9749 324.047 81.6849 323.823 81.4695 323.537C81.2564 323.248 81.1404 322.913 81.1214 322.532H82.0163C82.0353 322.766 82.1158 322.969 82.2578 323.139C82.3999 323.307 82.5857 323.437 82.8153 323.53C83.045 323.622 83.2995 323.668 83.5788 323.668C83.8913 323.668 84.1683 323.614 84.4098 323.505C84.6513 323.396 84.8407 323.244 84.978 323.05C85.1153 322.856 85.1839 322.631 85.1839 322.376C85.1839 322.108 85.1177 321.872 84.9851 321.669C84.8525 321.463 84.6584 321.302 84.4027 321.186C84.147 321.07 83.8345 321.012 83.4652 321.012H82.8828V320.231H83.4652C83.754 320.231 84.0073 320.179 84.2251 320.074C84.4453 319.97 84.617 319.823 84.7401 319.634C84.8655 319.445 84.9283 319.222 84.9283 318.966C84.9283 318.72 84.8738 318.506 84.7649 318.324C84.656 318.141 84.5021 317.999 84.3033 317.898C84.1068 317.796 83.8748 317.745 83.6072 317.745C83.3563 317.745 83.1196 317.791 82.897 317.883C82.6768 317.973 82.4969 318.105 82.3572 318.278C82.2176 318.448 82.1418 318.654 82.13 318.895H81.2777C81.2919 318.514 81.4067 318.18 81.6222 317.894C81.8376 317.605 82.1193 317.38 82.4673 317.219C82.8177 317.058 83.2024 316.978 83.6214 316.978C84.0713 316.978 84.4571 317.069 84.7791 317.251C85.1011 317.431 85.3485 317.669 85.5213 317.965C85.6941 318.261 85.7805 318.581 85.7805 318.924C85.7805 319.333 85.6728 319.683 85.4574 319.971C85.2443 320.26 84.9543 320.46 84.5874 320.572V320.628C85.0466 320.704 85.4053 320.899 85.6634 321.214C85.9214 321.527 86.0504 321.914 86.0504 322.376C86.0504 322.771 85.9427 323.126 85.7273 323.441C85.5142 323.753 85.223 324 84.8537 324.18C84.4844 324.359 84.0642 324.449 83.593 324.449ZM89.875 324.449C89.34 324.449 88.8842 324.304 88.5078 324.013C88.1314 323.719 87.8438 323.294 87.6449 322.738C87.446 322.179 87.3466 321.504 87.3466 320.714C87.3466 319.928 87.446 319.256 87.6449 318.7C87.8461 318.141 88.1349 317.715 88.5114 317.422C88.8902 317.126 89.3447 316.978 89.875 316.978C90.4053 316.978 90.8587 317.126 91.2351 317.422C91.6139 317.715 91.9027 318.141 92.1016 318.7C92.3028 319.256 92.4034 319.928 92.4034 320.714C92.4034 321.504 92.304 322.179 92.1051 322.738C91.9062 323.294 91.6186 323.719 91.2422 324.013C90.8658 324.304 90.41 324.449 89.875 324.449ZM89.875 323.668C90.4053 323.668 90.8172 323.412 91.1108 322.901C91.4044 322.39 91.5511 321.661 91.5511 320.714C91.5511 320.084 91.4837 319.548 91.3487 319.105C91.2161 318.662 91.0244 318.325 90.7734 318.093C90.5249 317.861 90.2254 317.745 89.875 317.745C89.3494 317.745 88.9387 318.004 88.6428 318.523C88.3468 319.039 88.1989 319.769 88.1989 320.714C88.1989 321.343 88.2652 321.878 88.3977 322.319C88.5303 322.759 88.7209 323.094 88.9695 323.324C89.2204 323.553 89.5223 323.668 89.875 323.668Z" fill="#0452A1"/>
<path d="M600 320.35L101 320.35" stroke="#E3E8F2" stroke-dasharray="5 5"/>
<path d="M80.9164 285.509V284.784L84.1124 279.727H84.638V280.849H84.2828L81.8681 284.67V284.727H86.1721V285.509H80.9164ZM84.3397 287V285.288V284.951V279.727H85.1777V287H84.3397ZM89.875 287.099C89.34 287.099 88.8842 286.954 88.5078 286.663C88.1314 286.369 87.8438 285.944 87.6449 285.388C87.446 284.829 87.3466 284.154 87.3466 283.364C87.3466 282.578 87.446 281.906 87.6449 281.35C87.8461 280.791 88.1349 280.365 88.5114 280.072C88.8902 279.776 89.3447 279.628 89.875 279.628C90.4053 279.628 90.8587 279.776 91.2351 280.072C91.6139 280.365 91.9027 280.791 92.1016 281.35C92.3028 281.906 92.4034 282.578 92.4034 283.364C92.4034 284.154 92.304 284.829 92.1051 285.388C91.9062 285.944 91.6186 286.369 91.2422 286.663C90.8658 286.954 90.41 287.099 89.875 287.099ZM89.875 286.318C90.4053 286.318 90.8172 286.062 91.1108 285.551C91.4044 285.04 91.5511 284.311 91.5511 283.364C91.5511 282.734 91.4837 282.198 91.3487 281.755C91.2161 281.312 91.0244 280.975 90.7734 280.743C90.5249 280.511 90.2254 280.395 89.875 280.395C89.3494 280.395 88.9387 280.654 88.6428 281.173C88.3468 281.689 88.1989 282.419 88.1989 283.364C88.1989 283.993 88.2652 284.528 88.3977 284.969C88.5303 285.409 88.7209 285.744 88.9695 285.974C89.2204 286.203 89.5223 286.318 89.875 286.318Z" fill="#0452A1"/>
<path d="M145.32 282V432" stroke="#E3E8F2"/>
<path d="M142.686 442.727H143.566V447.543C143.566 448.04 143.449 448.484 143.215 448.874C142.983 449.263 142.655 449.569 142.231 449.794C141.807 450.017 141.31 450.128 140.74 450.128C140.169 450.128 139.672 450.017 139.248 449.794C138.824 449.569 138.495 449.263 138.261 448.874C138.029 448.484 137.913 448.04 137.913 447.543V442.727H138.794V447.472C138.794 447.827 138.872 448.143 139.028 448.42C139.184 448.694 139.407 448.911 139.696 449.07C139.987 449.226 140.335 449.304 140.74 449.304C141.144 449.304 141.492 449.226 141.784 449.07C142.075 448.911 142.297 448.694 142.451 448.42C142.608 448.143 142.686 447.827 142.686 447.472V442.727ZM145.325 450V442.727H146.206V446.335H146.291L149.558 442.727H150.709L147.655 446.009L150.709 450H149.643L147.115 446.619L146.206 447.642V450H145.325Z" fill="#0452A1"/>
<rect x="121" y="356.107" width="48.4286" height="75.8934" fill="#ECF1F9"/>
<path d="M213.749 282V432" stroke="#E3E8F2"/>
<path d="M211.187 442.727H212.068V447.543C212.068 448.04 211.951 448.484 211.717 448.874C211.485 449.263 211.157 449.569 210.733 449.794C210.309 450.017 209.812 450.128 209.241 450.128C208.671 450.128 208.174 450.017 207.75 449.794C207.326 449.569 206.997 449.263 206.763 448.874C206.531 448.484 206.415 448.04 206.415 447.543V442.727H207.295V447.472C207.295 447.827 207.374 448.143 207.53 448.42C207.686 448.694 207.909 448.911 208.197 449.07C208.489 449.226 208.837 449.304 209.241 449.304C209.646 449.304 209.994 449.226 210.285 449.07C210.577 448.911 210.799 448.694 210.953 448.42C211.109 448.143 211.187 447.827 211.187 447.472V442.727ZM217.804 444.545C217.762 444.186 217.589 443.906 217.286 443.707C216.983 443.509 216.611 443.409 216.171 443.409C215.849 443.409 215.567 443.461 215.325 443.565C215.086 443.67 214.899 443.813 214.764 443.995C214.632 444.177 214.565 444.384 214.565 444.616C214.565 444.811 214.612 444.978 214.704 445.117C214.799 445.254 214.919 445.369 215.066 445.462C215.213 445.552 215.367 445.626 215.528 445.685C215.689 445.742 215.837 445.788 215.972 445.824L216.71 446.023C216.9 446.072 217.11 446.141 217.342 446.229C217.577 446.316 217.801 446.436 218.014 446.587C218.229 446.737 218.407 446.928 218.546 447.163C218.686 447.397 218.756 447.685 218.756 448.026C218.756 448.419 218.653 448.774 218.447 449.091C218.243 449.408 217.945 449.66 217.552 449.847C217.161 450.034 216.687 450.128 216.128 450.128C215.607 450.128 215.156 450.044 214.775 449.876C214.396 449.708 214.098 449.473 213.88 449.173C213.665 448.872 213.543 448.523 213.514 448.125H214.423C214.447 448.4 214.539 448.627 214.7 448.807C214.864 448.984 215.07 449.117 215.318 449.205C215.569 449.29 215.839 449.332 216.128 449.332C216.464 449.332 216.766 449.278 217.034 449.169C217.301 449.058 217.513 448.904 217.669 448.707C217.825 448.509 217.904 448.277 217.904 448.011C217.904 447.77 217.836 447.573 217.701 447.422C217.566 447.27 217.389 447.147 217.168 447.053C216.948 446.958 216.71 446.875 216.455 446.804L215.56 446.548C214.992 446.385 214.542 446.152 214.21 445.849C213.879 445.546 213.713 445.149 213.713 444.659C213.713 444.252 213.823 443.897 214.043 443.594C214.266 443.288 214.564 443.052 214.938 442.884C215.315 442.713 215.735 442.628 216.199 442.628C216.668 442.628 217.084 442.712 217.449 442.88C217.814 443.046 218.102 443.273 218.315 443.562C218.531 443.851 218.645 444.179 218.656 444.545H217.804Z" fill="#0452A1"/>
<rect x="189.429" y="313.796" width="48.4286" height="118.204" fill="#ECF1F9"/>
<path d="M282.178 282V432" stroke="#E3E8F2"/>
<path d="M276.105 450V442.727H280.466V443.509H276.986V445.966H280.139V446.747H276.986V450H276.105ZM281.974 450V442.727H284.432C285 442.727 285.466 442.824 285.831 443.018C286.195 443.21 286.465 443.474 286.64 443.81C286.816 444.147 286.903 444.529 286.903 444.957C286.903 445.386 286.816 445.766 286.64 446.097C286.465 446.429 286.196 446.689 285.834 446.879C285.472 447.066 285.009 447.159 284.446 447.159H282.457V446.364H284.417C284.806 446.364 285.118 446.307 285.355 446.193C285.594 446.08 285.767 445.919 285.873 445.71C285.982 445.5 286.037 445.249 286.037 444.957C286.037 444.666 285.982 444.412 285.873 444.194C285.764 443.976 285.59 443.808 285.351 443.69C285.112 443.569 284.796 443.509 284.403 443.509H282.855V450H281.974ZM285.397 446.733L287.187 450H286.165L284.403 446.733H285.397Z" fill="#0452A1"/>
<rect x="257.79" y="385.728" width="48.7617" height="46.2725" fill="#ECF1F9"/>
<path d="M350.607 282V432" stroke="#E3E8F2"/>
<path d="M347.062 442.727H347.942V447.926C347.942 448.39 347.857 448.784 347.687 449.109C347.516 449.433 347.276 449.679 346.966 449.847C346.656 450.015 346.29 450.099 345.869 450.099C345.471 450.099 345.117 450.027 344.807 449.883C344.497 449.736 344.253 449.528 344.075 449.258C343.898 448.988 343.809 448.667 343.809 448.295H344.675C344.675 448.501 344.726 448.681 344.828 448.835C344.932 448.987 345.074 449.105 345.254 449.19C345.434 449.276 345.639 449.318 345.869 449.318C346.122 449.318 346.337 449.265 346.515 449.158C346.692 449.052 346.827 448.896 346.92 448.69C347.014 448.481 347.062 448.227 347.062 447.926V442.727ZM349.707 450V442.727H352.165C352.735 442.727 353.202 442.83 353.564 443.036C353.929 443.24 354.198 443.516 354.374 443.864C354.549 444.212 354.636 444.6 354.636 445.028C354.636 445.457 354.549 445.846 354.374 446.197C354.201 446.547 353.933 446.826 353.571 447.035C353.209 447.241 352.745 447.344 352.179 447.344H350.418V446.562H352.151C352.541 446.562 352.855 446.495 353.092 446.36C353.328 446.225 353.5 446.043 353.607 445.813C353.715 445.581 353.77 445.32 353.77 445.028C353.77 444.737 353.715 444.477 353.607 444.247C353.5 444.018 353.327 443.838 353.088 443.707C352.849 443.575 352.532 443.509 352.136 443.509H350.588V450H349.707Z" fill="#0452A1"/>
<rect x="326.153" y="369.146" width="48.7617" height="62.8535" fill="#ECF1F9"/>
<path d="M419.035 282V432" stroke="#E3E8F2"/>
<path d="M417.608 445H416.728C416.676 444.747 416.584 444.524 416.454 444.332C416.326 444.141 416.17 443.98 415.986 443.849C415.803 443.717 415.601 443.617 415.378 443.551C415.156 443.485 414.924 443.452 414.682 443.452C414.242 443.452 413.843 443.563 413.486 443.786C413.13 444.008 412.847 444.336 412.637 444.769C412.428 445.202 412.324 445.734 412.324 446.364C412.324 446.993 412.428 447.525 412.637 447.958C412.847 448.391 413.13 448.719 413.486 448.942C413.843 449.164 414.242 449.276 414.682 449.276C414.924 449.276 415.156 449.242 415.378 449.176C415.601 449.11 415.803 449.012 415.986 448.881C416.17 448.749 416.326 448.587 416.454 448.395C416.584 448.201 416.676 447.978 416.728 447.727H417.608C417.542 448.099 417.421 448.432 417.246 448.725C417.071 449.019 416.853 449.268 416.593 449.474C416.332 449.678 416.04 449.833 415.716 449.94C415.394 450.046 415.049 450.099 414.682 450.099C414.062 450.099 413.51 449.948 413.027 449.645C412.544 449.342 412.164 448.911 411.888 448.352C411.611 447.794 411.472 447.131 411.472 446.364C411.472 445.597 411.611 444.934 411.888 444.375C412.164 443.816 412.544 443.385 413.027 443.082C413.51 442.779 414.062 442.628 414.682 442.628C415.049 442.628 415.394 442.681 415.716 442.788C416.04 442.894 416.332 443.05 416.593 443.256C416.853 443.46 417.071 443.709 417.246 444.002C417.421 444.293 417.542 444.626 417.608 445ZM419.031 450V442.727H419.912V445.966H423.79V442.727H424.671V450H423.79V446.747H419.912V450H419.031Z" fill="#0452A1"/>
<rect x="394.914" y="332.129" width="48.362" height="99.8715" fill="#ECF1F9"/>
<path d="M487.464 282V432" stroke="#E3E8F2"/>
<path d="M483.373 442.727V450H482.492V442.727H483.373ZM484.741 443.509V442.727H490.196V443.509H487.909V450H487.028V443.509H484.741Z" fill="#0452A1"/>
<rect x="463.276" y="393.825" width="48.362" height="38.1748" fill="#ECF1F9"/>
<path d="M555.891 282V432" stroke="#E3E8F2"/>
<path d="M554.788 445H553.907C553.855 444.747 553.764 444.524 553.634 444.332C553.506 444.141 553.35 443.98 553.165 443.849C552.983 443.717 552.78 443.617 552.558 443.551C552.335 443.485 552.103 443.452 551.862 443.452C551.421 443.452 551.022 443.563 550.665 443.786C550.31 444.008 550.027 444.336 549.816 444.769C549.608 445.202 549.504 445.734 549.504 446.364C549.504 446.993 549.608 447.525 549.816 447.958C550.027 448.391 550.31 448.719 550.665 448.942C551.022 449.164 551.421 449.276 551.862 449.276C552.103 449.276 552.335 449.242 552.558 449.176C552.78 449.11 552.983 449.012 553.165 448.881C553.35 448.749 553.506 448.587 553.634 448.395C553.764 448.201 553.855 447.978 553.907 447.727H554.788C554.722 448.099 554.601 448.432 554.426 448.725C554.25 449.019 554.033 449.268 553.772 449.474C553.512 449.678 553.219 449.833 552.895 449.94C552.573 450.046 552.229 450.099 551.862 450.099C551.241 450.099 550.69 449.948 550.207 449.645C549.724 449.342 549.344 448.911 549.067 448.352C548.79 447.794 548.651 447.131 548.651 446.364C548.651 445.597 548.79 444.934 549.067 444.375C549.344 443.816 549.724 443.385 550.207 443.082C550.69 442.779 551.241 442.628 551.862 442.628C552.229 442.628 552.573 442.681 552.895 442.788C553.219 442.894 553.512 443.05 553.772 443.256C554.033 443.46 554.25 443.709 554.426 444.002C554.601 444.293 554.722 444.626 554.788 445ZM556.509 450H555.586L558.256 442.727H559.165L561.836 450H560.913L558.739 443.878H558.683L556.509 450ZM556.85 447.159H560.572V447.94H556.85V447.159Z" fill="#0452A1"/>
<rect x="531.638" y="357.578" width="48.7617" height="74.4216" fill="#ECF1F9"/>
<rect x="101" y="282" width="499" height="150" stroke="#E3E8F2"/>
<rect x="121.5" y="356.607" width="47.4286" height="74.8934" stroke="#0452A1"/>
<rect x="189.929" y="314.296" width="47.4286" height="117.204" stroke="#0452A1"/>
<rect x="258.29" y="386.228" width="47.7617" height="45.2725" stroke="#0452A1"/>
<rect x="326.653" y="369.646" width="47.7617" height="61.8535" stroke="#0452A1"/>
<rect x="395.414" y="332.629" width="47.362" height="98.8715" stroke="#0452A1"/>
<rect x="463.776" y="394.325" width="47.362" height="37.1748" stroke="#0452A1"/>
<rect x="532.138" y="358.078" width="47.7617" height="73.4216" stroke="#0452A1"/>
<rect x="65" y="276" width="547" height="109" fill="url(#paint1_linear_1732_43337)"/>
<defs>
<filter id="filter0_dd_1732_43337" x="58" y="60" width="564" height="200.3" filterUnits="userSpaceOnUse" color-interpolation-filters="sRGB">
<feFlood flood-opacity="0" result="BackgroundImageFix"/>
<feColorMatrix in="SourceAlpha" type="matrix" values="0 0 0 0 0 0 0 0 0 0 0 0 0 0 0 0 0 0 127 0" result="hardAlpha"/>
<feOffset dy="2.3"/>
<feGaussianBlur stdDeviation="1"/>
<feColorMatrix type="matrix" values="0 0 0 0 0 0 0 0 0 0 0 0 0 0 0 0 0 0 0.03 0"/>
<feBlend mode="normal" in2="BackgroundImageFix" result="effect1_dropShadow_1732_43337"/>
<feColorMatrix in="SourceAlpha" type="matrix" values="0 0 0 0 0 0 0 0 0 0 0 0 0 0 0 0 0 0 127 0" result="hardAlpha"/>
<feOffset dy="0.8"/>
<feGaussianBlur stdDeviation="0.4"/>
<feColorMatrix type="matrix" values="0 0 0 0 0 0 0 0 0 0 0 0 0 0 0 0 0 0 0.04 0"/>
<feBlend mode="normal" in2="effect1_dropShadow_1732_43337" result="effect2_dropShadow_1732_43337"/>
<feBlend mode="normal" in="SourceGraphic" in2="effect2_dropShadow_1732_43337" result="shape"/>
</filter>
<filter id="filter1_dd_1732_43337" x="58" y="276" width="564" height="200.3" filterUnits="userSpaceOnUse" color-interpolation-filters="sRGB">
<feFlood flood-opacity="0" result="BackgroundImageFix"/>
<feColorMatrix in="SourceAlpha" type="matrix" values="0 0 0 0 0 0 0 0 0 0 0 0 0 0 0 0 0 0 127 0" result="hardAlpha"/>
<feOffset dy="2.3"/>
<feGaussianBlur stdDeviation="1"/>
<feColorMatrix type="matrix" values="0 0 0 0 0 0 0 0 0 0 0 0 0 0 0 0 0 0 0.03 0"/>
<feBlend mode="normal" in2="BackgroundImageFix" result="effect1_dropShadow_1732_43337"/>
<feColorMatrix in="SourceAlpha" type="matrix" values="0 0 0 0 0 0 0 0 0 0 0 0 0 0 0 0 0 0 127 0" result="hardAlpha"/>
<feOffset dy="0.8"/>
<feGaussianBlur stdDeviation="0.4"/>
<feColorMatrix type="matrix" values="0 0 0 0 0 0 0 0 0 0 0 0 0 0 0 0 0 0 0.04 0"/>
<feBlend mode="normal" in2="effect1_dropShadow_1732_43337" result="effect2_dropShadow_1732_43337"/>
<feBlend mode="normal" in="SourceGraphic" in2="effect2_dropShadow_1732_43337" result="shape"/>
</filter>
<linearGradient id="paint0_linear_1732_43337" x1="338.5" y1="98.605" x2="338.5" y2="170" gradientUnits="userSpaceOnUse">
<stop stop-color="white"/>
<stop offset="1" stop-color="white" stop-opacity="0"/>
</linearGradient>
<linearGradient id="paint1_linear_1732_43337" x1="338.5" y1="313.605" x2="338.5" y2="385" gradientUnits="userSpaceOnUse">
<stop offset="0.205" stop-color="white"/>
<stop offset="1" stop-color="white" stop-opacity="0"/>
</linearGradient>
</defs>
</svg>
