<svg width="1034" height="420" viewBox="0 0 1034 420" fill="none" xmlns="http://www.w3.org/2000/svg">
<g filter="url(#filter0_dd_1732_43797)">
<rect x="107" y="60" width="820" height="300" rx="6" fill="white"/>
</g>
<path d="M134.875 310.499C134.34 310.499 133.884 310.354 133.508 310.063C133.131 309.769 132.844 309.344 132.645 308.788C132.446 308.229 132.347 307.554 132.347 306.764C132.347 305.978 132.446 305.306 132.645 304.75C132.846 304.191 133.135 303.765 133.511 303.472C133.89 303.176 134.345 303.028 134.875 303.028C135.405 303.028 135.859 303.176 136.235 303.472C136.614 303.765 136.903 304.191 137.102 304.75C137.303 305.306 137.403 305.978 137.403 306.764C137.403 307.554 137.304 308.229 137.105 308.788C136.906 309.344 136.619 309.769 136.242 310.063C135.866 310.354 135.41 310.499 134.875 310.499ZM134.875 309.718C135.405 309.718 135.817 309.462 136.111 308.951C136.404 308.44 136.551 307.711 136.551 306.764C136.551 306.134 136.484 305.598 136.349 305.155C136.216 304.712 136.024 304.375 135.773 304.143C135.525 303.911 135.225 303.795 134.875 303.795C134.349 303.795 133.939 304.054 133.643 304.572C133.347 305.089 133.199 305.819 133.199 306.764C133.199 307.393 133.265 307.928 133.398 308.369C133.53 308.809 133.721 309.144 133.969 309.374C134.22 309.603 134.522 309.718 134.875 309.718Z" fill="#0452A1"/>
<path d="M130.411 247.777V255.05H129.531V248.701H129.488L127.712 249.88V248.985L129.531 247.777H130.411ZM134.875 255.149C134.34 255.149 133.884 255.004 133.508 254.713C133.131 254.419 132.844 253.994 132.645 253.438C132.446 252.879 132.347 252.204 132.347 251.414C132.347 250.628 132.446 249.957 132.645 249.4C132.846 248.841 133.135 248.415 133.511 248.122C133.89 247.826 134.345 247.678 134.875 247.678C135.405 247.678 135.859 247.826 136.235 248.122C136.614 248.415 136.903 248.841 137.102 249.4C137.303 249.957 137.403 250.628 137.403 251.414C137.403 252.204 137.304 252.879 137.105 253.438C136.906 253.994 136.619 254.419 136.242 254.713C135.866 255.004 135.41 255.149 134.875 255.149ZM134.875 254.368C135.405 254.368 135.817 254.113 136.111 253.601C136.404 253.09 136.551 252.361 136.551 251.414C136.551 250.784 136.484 250.248 136.349 249.805C136.216 249.362 136.024 249.025 135.773 248.793C135.525 248.561 135.225 248.445 134.875 248.445C134.349 248.445 133.939 248.704 133.643 249.223C133.347 249.739 133.199 250.469 133.199 251.414C133.199 252.043 133.265 252.578 133.398 253.019C133.53 253.459 133.721 253.794 133.969 254.024C134.22 254.253 134.522 254.368 134.875 254.368Z" fill="#0452A1"/>
<path d="M907 251.05L146 251.05" stroke="#B2C8EE" stroke-dasharray="5 5"/>
<path d="M126.448 199.7V199.061L128.849 196.433C129.13 196.125 129.362 195.858 129.545 195.63C129.727 195.401 129.862 195.185 129.95 194.984C130.04 194.78 130.085 194.567 130.085 194.345C130.085 194.089 130.023 193.868 129.9 193.681C129.779 193.494 129.613 193.349 129.403 193.248C129.192 193.146 128.955 193.095 128.692 193.095C128.413 193.095 128.169 193.153 127.961 193.269C127.755 193.382 127.595 193.542 127.482 193.748C127.37 193.954 127.315 194.196 127.315 194.473H126.477C126.477 194.047 126.575 193.672 126.771 193.351C126.968 193.029 127.235 192.778 127.574 192.598C127.915 192.418 128.297 192.328 128.721 192.328C129.147 192.328 129.525 192.418 129.854 192.598C130.183 192.778 130.441 193.02 130.628 193.326C130.815 193.631 130.908 193.971 130.908 194.345C130.908 194.612 130.86 194.874 130.763 195.13C130.668 195.383 130.502 195.666 130.266 195.978C130.031 196.288 129.706 196.667 129.289 197.115L127.656 198.862V198.919H131.036V199.7H126.448ZM134.875 199.799C134.34 199.799 133.884 199.654 133.508 199.363C133.131 199.069 132.844 198.644 132.645 198.088C132.446 197.529 132.347 196.854 132.347 196.064C132.347 195.278 132.446 194.606 132.645 194.05C132.846 193.491 133.135 193.065 133.511 192.772C133.89 192.476 134.345 192.328 134.875 192.328C135.405 192.328 135.859 192.476 136.235 192.772C136.614 193.065 136.903 193.491 137.102 194.05C137.303 194.606 137.403 195.278 137.403 196.064C137.403 196.854 137.304 197.529 137.105 198.088C136.906 198.644 136.619 199.069 136.242 199.363C135.866 199.654 135.41 199.799 134.875 199.799ZM134.875 199.018C135.405 199.018 135.817 198.762 136.111 198.251C136.404 197.74 136.551 197.011 136.551 196.064C136.551 195.434 136.484 194.898 136.349 194.455C136.216 194.012 136.024 193.675 135.773 193.443C135.525 193.211 135.225 193.095 134.875 193.095C134.349 193.095 133.939 193.354 133.643 193.873C133.347 194.389 133.199 195.119 133.199 196.064C133.199 196.693 133.265 197.228 133.398 197.669C133.53 198.109 133.721 198.444 133.969 198.674C134.22 198.903 134.522 199.018 134.875 199.018Z" fill="#0452A1"/>
<path d="M907 195.7L146 195.7" stroke="#B2C8EE" stroke-dasharray="5 5"/>
<path d="M128.593 144.45C128.124 144.45 127.706 144.369 127.339 144.208C126.975 144.047 126.685 143.823 126.469 143.537C126.256 143.248 126.14 142.913 126.121 142.532H127.016C127.035 142.766 127.116 142.969 127.258 143.139C127.4 143.307 127.586 143.437 127.815 143.53C128.045 143.622 128.299 143.668 128.579 143.668C128.891 143.668 129.168 143.614 129.41 143.505C129.651 143.396 129.841 143.245 129.978 143.05C130.115 142.856 130.184 142.631 130.184 142.376C130.184 142.108 130.118 141.873 129.985 141.669C129.853 141.463 129.658 141.302 129.403 141.186C129.147 141.07 128.835 141.012 128.465 141.012H127.883V140.231H128.465C128.754 140.231 129.007 140.179 129.225 140.075C129.445 139.97 129.617 139.824 129.74 139.634C129.866 139.445 129.928 139.222 129.928 138.967C129.928 138.72 129.874 138.506 129.765 138.324C129.656 138.142 129.502 137.999 129.303 137.898C129.107 137.796 128.875 137.745 128.607 137.745C128.356 137.745 128.12 137.791 127.897 137.883C127.677 137.973 127.497 138.105 127.357 138.278C127.218 138.448 127.142 138.654 127.13 138.896H126.278C126.292 138.514 126.407 138.181 126.622 137.894C126.838 137.605 127.119 137.38 127.467 137.219C127.818 137.058 128.202 136.978 128.621 136.978C129.071 136.978 129.457 137.069 129.779 137.251C130.101 137.431 130.348 137.669 130.521 137.965C130.694 138.261 130.781 138.581 130.781 138.924C130.781 139.334 130.673 139.683 130.457 139.972C130.244 140.26 129.954 140.46 129.587 140.572V140.629C130.047 140.704 130.405 140.9 130.663 141.214C130.921 141.527 131.05 141.914 131.05 142.376C131.05 142.771 130.943 143.126 130.727 143.441C130.514 143.754 130.223 144 129.854 144.18C129.484 144.36 129.064 144.45 128.593 144.45ZM134.875 144.45C134.34 144.45 133.884 144.304 133.508 144.013C133.131 143.719 132.844 143.294 132.645 142.738C132.446 142.179 132.347 141.504 132.347 140.714C132.347 139.928 132.446 139.257 132.645 138.7C132.846 138.142 133.135 137.715 133.511 137.422C133.89 137.126 134.345 136.978 134.875 136.978C135.405 136.978 135.859 137.126 136.235 137.422C136.614 137.715 136.903 138.142 137.102 138.7C137.303 139.257 137.403 139.928 137.403 140.714C137.403 141.504 137.304 142.179 137.105 142.738C136.906 143.294 136.619 143.719 136.242 144.013C135.866 144.304 135.41 144.45 134.875 144.45ZM134.875 143.668C135.405 143.668 135.817 143.413 136.111 142.901C136.404 142.39 136.551 141.661 136.551 140.714C136.551 140.084 136.484 139.548 136.349 139.105C136.216 138.662 136.024 138.325 135.773 138.093C135.525 137.861 135.225 137.745 134.875 137.745C134.349 137.745 133.939 138.004 133.643 138.523C133.347 139.039 133.199 139.769 133.199 140.714C133.199 141.343 133.265 141.879 133.398 142.319C133.53 142.759 133.721 143.094 133.969 143.324C134.22 143.553 134.522 143.668 134.875 143.668Z" fill="#0452A1"/>
<path d="M907 140.35L146 140.35" stroke="#B2C8EE" stroke-dasharray="5 5"/>
<path d="M125.916 87.5085V86.7841L129.112 81.7273H129.638V82.8494H129.283L126.868 86.6705V86.7273H131.172V87.5085H125.916ZM129.34 89V87.2884V86.951V81.7273H130.178V89H129.34ZM134.875 89.0994C134.34 89.0994 133.884 88.9538 133.508 88.6626C133.131 88.3691 132.844 87.9441 132.645 87.3878C132.446 86.8291 132.347 86.1544 132.347 85.3636C132.347 84.5777 132.446 83.9065 132.645 83.3501C132.846 82.7914 133.135 82.3653 133.511 82.0717C133.89 81.7758 134.345 81.6278 134.875 81.6278C135.405 81.6278 135.859 81.7758 136.235 82.0717C136.614 82.3653 136.903 82.7914 137.102 83.3501C137.303 83.9065 137.403 84.5777 137.403 85.3636C137.403 86.1544 137.304 86.8291 137.105 87.3878C136.906 87.9441 136.619 88.3691 136.242 88.6626C135.866 88.9538 135.41 89.0994 134.875 89.0994ZM134.875 88.3182C135.405 88.3182 135.817 88.0625 136.111 87.5511C136.404 87.0398 136.551 86.3106 136.551 85.3636C136.551 84.7339 136.484 84.1977 136.349 83.755C136.216 83.3123 136.024 82.9749 135.773 82.7429C135.525 82.5109 135.225 82.3949 134.875 82.3949C134.349 82.3949 133.939 82.6541 133.643 83.1726C133.347 83.6887 133.199 84.419 133.199 85.3636C133.199 85.9934 133.265 86.5284 133.398 86.9688C133.53 87.4091 133.721 87.7441 133.969 87.9737C134.22 88.2034 134.522 88.3182 134.875 88.3182Z" fill="#0452A1"/>
<path d="M146 85V309" stroke="#B2C8EE"/>
<path d="M146.753 327V326.361L149.153 323.733C149.435 323.425 149.667 323.158 149.849 322.93C150.032 322.701 150.167 322.485 150.254 322.284C150.344 322.08 150.389 321.867 150.389 321.645C150.389 321.389 150.328 321.168 150.205 320.981C150.084 320.794 149.918 320.649 149.707 320.548C149.497 320.446 149.26 320.395 148.997 320.395C148.718 320.395 148.474 320.453 148.266 320.569C148.06 320.683 147.9 320.842 147.786 321.048C147.675 321.254 147.619 321.496 147.619 321.773H146.781C146.781 321.347 146.879 320.973 147.076 320.651C147.272 320.329 147.54 320.078 147.879 319.898C148.219 319.718 148.602 319.628 149.026 319.628C149.452 319.628 149.829 319.718 150.158 319.898C150.487 320.078 150.746 320.32 150.933 320.626C151.12 320.931 151.213 321.271 151.213 321.645C151.213 321.912 151.165 322.174 151.067 322.43C150.973 322.683 150.807 322.966 150.57 323.278C150.336 323.589 150.01 323.967 149.594 324.415L147.96 326.162V326.219H151.341V327H146.753ZM155.222 327.099C154.924 327.095 154.626 327.038 154.327 326.929C154.029 326.82 153.757 326.637 153.511 326.379C153.264 326.118 153.067 325.767 152.918 325.324C152.768 324.879 152.694 324.32 152.694 323.648C152.694 323.004 152.754 322.433 152.875 321.936C152.996 321.437 153.171 321.016 153.401 320.675C153.63 320.332 153.907 320.072 154.232 319.894C154.558 319.717 154.926 319.628 155.336 319.628C155.743 319.628 156.105 319.71 156.423 319.873C156.742 320.034 157.003 320.259 157.204 320.548C157.405 320.836 157.535 321.169 157.594 321.545H156.728C156.647 321.219 156.491 320.948 156.259 320.732C156.027 320.517 155.719 320.409 155.336 320.409C154.772 320.409 154.329 320.654 154.004 321.144C153.682 321.634 153.52 322.322 153.518 323.207H153.575C153.707 323.006 153.865 322.835 154.047 322.692C154.232 322.548 154.435 322.437 154.658 322.359C154.88 322.281 155.116 322.241 155.364 322.241C155.781 322.241 156.162 322.346 156.508 322.554C156.853 322.76 157.13 323.045 157.339 323.41C157.547 323.772 157.651 324.188 157.651 324.656C157.651 325.106 157.551 325.518 157.349 325.892C157.148 326.264 156.865 326.56 156.501 326.78C156.138 326.998 155.712 327.104 155.222 327.099ZM155.222 326.318C155.521 326.318 155.788 326.244 156.025 326.094C156.264 325.945 156.452 325.745 156.589 325.494C156.729 325.243 156.799 324.964 156.799 324.656C156.799 324.356 156.732 324.082 156.597 323.836C156.464 323.587 156.281 323.39 156.046 323.243C155.814 323.096 155.549 323.023 155.251 323.023C155.026 323.023 154.816 323.068 154.622 323.158C154.428 323.245 154.258 323.366 154.111 323.52C153.966 323.674 153.853 323.85 153.77 324.049C153.687 324.246 153.646 324.453 153.646 324.67C153.646 324.959 153.713 325.229 153.848 325.48C153.985 325.731 154.172 325.933 154.409 326.087C154.648 326.241 154.919 326.318 155.222 326.318ZM161.434 321.545V322.256H158.607V321.545H161.434ZM159.431 320.239H160.269V325.438C160.269 325.674 160.304 325.852 160.372 325.97C160.443 326.086 160.533 326.164 160.642 326.205C160.753 326.242 160.871 326.261 160.994 326.261C161.086 326.261 161.162 326.257 161.221 326.247C161.28 326.235 161.328 326.226 161.363 326.219L161.534 326.972C161.477 326.993 161.397 327.014 161.296 327.036C161.194 327.059 161.065 327.071 160.909 327.071C160.672 327.071 160.44 327.02 160.213 326.918C159.988 326.817 159.801 326.661 159.651 326.453C159.505 326.245 159.431 325.982 159.431 325.665V320.239ZM163.65 323.719V327H162.812V319.727H163.65V322.398H163.721C163.849 322.116 164.041 321.892 164.296 321.727C164.554 321.558 164.898 321.474 165.326 321.474C165.698 321.474 166.023 321.549 166.303 321.698C166.582 321.845 166.799 322.071 166.953 322.376C167.109 322.679 167.187 323.065 167.187 323.534V327H166.349V323.591C166.349 323.158 166.236 322.823 166.012 322.586C165.789 322.347 165.48 322.227 165.085 322.227C164.81 322.227 164.564 322.285 164.346 322.401C164.131 322.517 163.96 322.687 163.835 322.909C163.712 323.132 163.65 323.402 163.65 323.719Z" fill="#0452A1"/>
<path d="M222.1 85V309" stroke="#B2C8EE"/>
<path d="M222.853 327V326.361L225.253 323.733C225.535 323.425 225.767 323.158 225.949 322.93C226.132 322.701 226.267 322.485 226.354 322.284C226.444 322.08 226.489 321.867 226.489 321.645C226.489 321.389 226.428 321.168 226.305 320.981C226.184 320.794 226.018 320.649 225.807 320.548C225.597 320.446 225.36 320.395 225.097 320.395C224.818 320.395 224.574 320.453 224.366 320.569C224.16 320.683 224 320.842 223.886 321.048C223.775 321.254 223.719 321.496 223.719 321.773H222.881C222.881 321.347 222.979 320.973 223.176 320.651C223.372 320.329 223.64 320.078 223.979 319.898C224.319 319.718 224.702 319.628 225.126 319.628C225.552 319.628 225.929 319.718 226.258 319.898C226.587 320.078 226.845 320.32 227.033 320.626C227.22 320.931 227.313 321.271 227.313 321.645C227.313 321.912 227.265 322.174 227.167 322.43C227.073 322.683 226.907 322.966 226.67 323.278C226.436 323.589 226.11 323.967 225.694 324.415L224.06 326.162V326.219H227.441V327H222.853ZM229.76 323.719V327H228.922V321.545H229.731V322.398H229.802C229.93 322.121 230.124 321.898 230.385 321.73C230.645 321.56 230.981 321.474 231.393 321.474C231.763 321.474 232.086 321.55 232.363 321.702C232.64 321.851 232.855 322.078 233.009 322.384C233.163 322.687 233.24 323.07 233.24 323.534V327H232.402V323.591C232.402 323.162 232.291 322.829 232.068 322.589C231.845 322.348 231.54 322.227 231.152 322.227C230.884 322.227 230.645 322.285 230.434 322.401C230.226 322.517 230.062 322.687 229.941 322.909C229.82 323.132 229.76 323.402 229.76 323.719ZM236.831 327.114C236.376 327.114 235.975 326.999 235.627 326.769C235.279 326.537 235.007 326.21 234.81 325.789C234.614 325.365 234.516 324.865 234.516 324.287C234.516 323.714 234.614 323.217 234.81 322.795C235.007 322.374 235.28 322.049 235.631 321.819C235.981 321.589 236.386 321.474 236.845 321.474C237.2 321.474 237.481 321.534 237.687 321.652C237.895 321.768 238.054 321.901 238.163 322.05C238.274 322.196 238.36 322.317 238.422 322.412H238.493V319.727H239.331V327H238.521V326.162H238.422C238.36 326.261 238.273 326.387 238.159 326.538C238.045 326.687 237.883 326.821 237.673 326.94C237.462 327.056 237.181 327.114 236.831 327.114ZM236.945 326.361C237.281 326.361 237.565 326.273 237.797 326.098C238.029 325.92 238.205 325.675 238.326 325.363C238.447 325.048 238.507 324.685 238.507 324.273C238.507 323.866 238.448 323.509 238.33 323.204C238.211 322.896 238.036 322.657 237.804 322.487C237.572 322.314 237.286 322.227 236.945 322.227C236.589 322.227 236.294 322.318 236.057 322.501C235.822 322.681 235.646 322.926 235.528 323.236C235.412 323.544 235.354 323.889 235.354 324.273C235.354 324.661 235.413 325.014 235.531 325.331C235.652 325.646 235.83 325.897 236.064 326.084C236.301 326.268 236.594 326.361 236.945 326.361Z" fill="#0452A1"/>
<path d="M298.2 85V309" stroke="#B2C8EE"/>
<path d="M301.268 319.628C301.566 319.63 301.865 319.687 302.163 319.798C302.461 319.91 302.734 320.094 302.98 320.352C303.226 320.608 303.424 320.957 303.573 321.4C303.722 321.843 303.797 322.398 303.797 323.065C303.797 323.712 303.735 324.286 303.612 324.788C303.491 325.287 303.316 325.709 303.086 326.052C302.859 326.395 302.582 326.656 302.255 326.833C301.931 327.011 301.564 327.099 301.155 327.099C300.747 327.099 300.384 327.019 300.064 326.858C299.747 326.695 299.487 326.469 299.283 326.18C299.082 325.888 298.953 325.551 298.896 325.168H299.763C299.841 325.501 299.996 325.777 300.228 325.995C300.462 326.21 300.771 326.318 301.155 326.318C301.716 326.318 302.158 326.073 302.483 325.583C302.809 325.093 302.973 324.401 302.973 323.506H302.916C302.783 323.705 302.626 323.876 302.444 324.021C302.261 324.165 302.059 324.276 301.836 324.354C301.614 324.433 301.377 324.472 301.126 324.472C300.709 324.472 300.327 324.369 299.979 324.163C299.633 323.954 299.356 323.669 299.148 323.307C298.942 322.942 298.839 322.526 298.839 322.057C298.839 321.612 298.939 321.205 299.138 320.835C299.339 320.464 299.62 320.168 299.983 319.947C300.347 319.727 300.776 319.621 301.268 319.628ZM301.268 320.409C300.97 320.409 300.701 320.484 300.462 320.633C300.225 320.78 300.037 320.978 299.897 321.229C299.76 321.478 299.691 321.754 299.691 322.057C299.691 322.36 299.758 322.636 299.89 322.884C300.025 323.13 300.209 323.327 300.441 323.474C300.675 323.618 300.941 323.69 301.24 323.69C301.465 323.69 301.674 323.647 301.868 323.559C302.062 323.469 302.232 323.347 302.376 323.193C302.523 323.037 302.638 322.861 302.721 322.664C302.803 322.465 302.845 322.258 302.845 322.043C302.845 321.759 302.776 321.492 302.639 321.244C302.504 320.995 302.317 320.794 302.078 320.64C301.841 320.486 301.571 320.409 301.268 320.409ZM307.579 321.545V322.256H304.753V321.545H307.579ZM305.577 320.239H306.415V325.438C306.415 325.674 306.449 325.852 306.518 325.97C306.589 326.086 306.679 326.164 306.788 326.205C306.899 326.242 307.016 326.261 307.139 326.261C307.231 326.261 307.307 326.257 307.366 326.247C307.426 326.235 307.473 326.226 307.508 326.219L307.679 326.972C307.622 326.993 307.543 327.014 307.441 327.036C307.339 327.059 307.21 327.071 307.054 327.071C306.817 327.071 306.585 327.02 306.358 326.918C306.133 326.817 305.946 326.661 305.797 326.453C305.65 326.245 305.577 325.982 305.577 325.665V320.239ZM309.795 323.719V327H308.957V319.727H309.795V322.398H309.866C309.994 322.116 310.186 321.892 310.442 321.727C310.7 321.558 311.043 321.474 311.471 321.474C311.843 321.474 312.169 321.549 312.448 321.698C312.727 321.845 312.944 322.071 313.098 322.376C313.254 322.679 313.332 323.065 313.332 323.534V327H312.494V323.591C312.494 323.158 312.382 322.823 312.157 322.586C311.934 322.347 311.625 322.227 311.23 322.227C310.955 322.227 310.709 322.285 310.491 322.401C310.276 322.517 310.105 322.687 309.98 322.909C309.857 323.132 309.795 323.402 309.795 323.719Z" fill="#0452A1"/>
<path d="M374.3 85V309" stroke="#B2C8EE"/>
<path d="M377.61 319.727V327H376.729V320.651H376.686L374.911 321.83V320.935L376.729 319.727H377.61ZM382.116 327.099C381.818 327.095 381.52 327.038 381.221 326.929C380.923 326.82 380.651 326.637 380.404 326.379C380.158 326.118 379.961 325.767 379.811 325.324C379.662 324.879 379.588 324.32 379.588 323.648C379.588 323.004 379.648 322.433 379.769 321.936C379.89 321.437 380.065 321.016 380.294 320.675C380.524 320.332 380.801 320.072 381.125 319.894C381.452 319.717 381.82 319.628 382.23 319.628C382.637 319.628 382.999 319.71 383.316 319.873C383.636 320.034 383.896 320.259 384.098 320.548C384.299 320.836 384.429 321.169 384.488 321.545H383.622C383.541 321.219 383.385 320.948 383.153 320.732C382.921 320.517 382.613 320.409 382.23 320.409C381.666 320.409 381.222 320.654 380.898 321.144C380.576 321.634 380.414 322.322 380.412 323.207H380.468C380.601 323.006 380.758 322.835 380.941 322.692C381.125 322.548 381.329 322.437 381.551 322.359C381.774 322.281 382.01 322.241 382.258 322.241C382.675 322.241 383.056 322.346 383.402 322.554C383.747 322.76 384.024 323.045 384.233 323.41C384.441 323.772 384.545 324.188 384.545 324.656C384.545 325.106 384.444 325.518 384.243 325.892C384.042 326.264 383.759 326.56 383.395 326.78C383.032 326.998 382.606 327.104 382.116 327.099ZM382.116 326.318C382.414 326.318 382.682 326.244 382.919 326.094C383.158 325.945 383.346 325.745 383.483 325.494C383.623 325.243 383.693 324.964 383.693 324.656C383.693 324.356 383.625 324.082 383.49 323.836C383.358 323.587 383.174 323.39 382.94 323.243C382.708 323.096 382.443 323.023 382.145 323.023C381.92 323.023 381.71 323.068 381.516 323.158C381.322 323.245 381.151 323.366 381.005 323.52C380.86 323.674 380.747 323.85 380.664 324.049C380.581 324.246 380.539 324.453 380.539 324.67C380.539 324.959 380.607 325.229 380.742 325.48C380.879 325.731 381.066 325.933 381.303 326.087C381.542 326.241 381.813 326.318 382.116 326.318ZM388.328 321.545V322.256H385.501V321.545H388.328ZM386.325 320.239H387.163V325.438C387.163 325.674 387.197 325.852 387.266 325.97C387.337 326.086 387.427 326.164 387.536 326.205C387.647 326.242 387.764 326.261 387.888 326.261C387.98 326.261 388.056 326.257 388.115 326.247C388.174 326.235 388.221 326.226 388.257 326.219L388.427 326.972C388.371 326.993 388.291 327.014 388.189 327.036C388.088 327.059 387.959 327.071 387.802 327.071C387.566 327.071 387.334 327.02 387.106 326.918C386.881 326.817 386.694 326.661 386.545 326.453C386.398 326.245 386.325 325.982 386.325 325.665V320.239ZM390.544 323.719V327H389.706V319.727H390.544V322.398H390.615C390.743 322.116 390.934 321.892 391.19 321.727C391.448 321.558 391.791 321.474 392.22 321.474C392.592 321.474 392.917 321.549 393.197 321.698C393.476 321.845 393.693 322.071 393.846 322.376C394.003 322.679 394.081 323.065 394.081 323.534V327H393.243V323.591C393.243 323.158 393.13 322.823 392.905 322.586C392.683 322.347 392.374 322.227 391.978 322.227C391.704 322.227 391.458 322.285 391.24 322.401C391.024 322.517 390.854 322.687 390.728 322.909C390.605 323.132 390.544 323.402 390.544 323.719Z" fill="#0452A1"/>
<path d="M450.4 85V309" stroke="#B2C8EE"/>
<path d="M451.153 327V326.361L453.553 323.733C453.835 323.425 454.067 323.158 454.249 322.93C454.432 322.701 454.567 322.485 454.654 322.284C454.744 322.08 454.789 321.867 454.789 321.645C454.789 321.389 454.728 321.168 454.605 320.981C454.484 320.794 454.318 320.649 454.107 320.548C453.897 320.446 453.66 320.395 453.397 320.395C453.118 320.395 452.874 320.453 452.666 320.569C452.46 320.683 452.3 320.842 452.186 321.048C452.075 321.254 452.019 321.496 452.019 321.773H451.181C451.181 321.347 451.28 320.973 451.476 320.651C451.673 320.329 451.94 320.078 452.279 319.898C452.619 319.718 453.002 319.628 453.426 319.628C453.852 319.628 454.229 319.718 454.558 319.898C454.887 320.078 455.146 320.32 455.333 320.626C455.52 320.931 455.613 321.271 455.613 321.645C455.613 321.912 455.565 322.174 455.467 322.43C455.373 322.683 455.207 322.966 454.97 323.278C454.736 323.589 454.41 323.967 453.994 324.415L452.36 326.162V326.219H455.741V327H451.153ZM459.665 327.099C459.196 327.099 458.778 327.019 458.411 326.858C458.047 326.697 457.757 326.473 457.541 326.187C457.328 325.898 457.212 325.563 457.193 325.182H458.088C458.107 325.416 458.188 325.619 458.33 325.789C458.472 325.957 458.658 326.087 458.887 326.18C459.117 326.272 459.371 326.318 459.651 326.318C459.963 326.318 460.24 326.264 460.482 326.155C460.723 326.046 460.913 325.894 461.05 325.7C461.187 325.506 461.256 325.281 461.256 325.026C461.256 324.758 461.19 324.522 461.057 324.319C460.924 324.113 460.73 323.952 460.475 323.836C460.219 323.72 459.906 323.662 459.537 323.662H458.955V322.881H459.537C459.826 322.881 460.079 322.829 460.297 322.724C460.517 322.62 460.689 322.473 460.812 322.284C460.937 322.095 461 321.872 461 321.616C461 321.37 460.946 321.156 460.837 320.974C460.728 320.791 460.574 320.649 460.375 320.548C460.179 320.446 459.947 320.395 459.679 320.395C459.428 320.395 459.191 320.441 458.969 320.533C458.749 320.623 458.569 320.755 458.429 320.928C458.289 321.098 458.214 321.304 458.202 321.545H457.35C457.364 321.164 457.479 320.83 457.694 320.544C457.909 320.255 458.191 320.03 458.539 319.869C458.89 319.708 459.274 319.628 459.693 319.628C460.143 319.628 460.529 319.719 460.851 319.901C461.173 320.081 461.42 320.319 461.593 320.615C461.766 320.911 461.852 321.231 461.852 321.574C461.852 321.983 461.745 322.333 461.529 322.621C461.316 322.91 461.026 323.11 460.659 323.222V323.278C461.119 323.354 461.477 323.549 461.735 323.864C461.993 324.177 462.122 324.564 462.122 325.026C462.122 325.421 462.015 325.776 461.799 326.091C461.586 326.403 461.295 326.65 460.926 326.83C460.556 327.009 460.136 327.099 459.665 327.099ZM463.589 327V321.545H464.399V322.369H464.455C464.555 322.099 464.735 321.88 464.995 321.712C465.256 321.544 465.549 321.46 465.876 321.46C465.937 321.46 466.014 321.461 466.107 321.464C466.199 321.466 466.269 321.47 466.316 321.474V322.327C466.288 322.32 466.223 322.309 466.121 322.295C466.021 322.278 465.916 322.27 465.805 322.27C465.54 322.27 465.303 322.326 465.095 322.437C464.889 322.546 464.725 322.697 464.605 322.891C464.486 323.083 464.427 323.302 464.427 323.548V327H463.589ZM469.203 327.114C468.749 327.114 468.347 326.999 467.999 326.769C467.651 326.537 467.379 326.21 467.183 325.789C466.986 325.365 466.888 324.865 466.888 324.287C466.888 323.714 466.986 323.217 467.183 322.795C467.379 322.374 467.653 322.049 468.003 321.819C468.353 321.589 468.758 321.474 469.217 321.474C469.573 321.474 469.853 321.534 470.059 321.652C470.267 321.768 470.426 321.901 470.535 322.05C470.646 322.196 470.733 322.317 470.794 322.412H470.865V319.727H471.703V327H470.894V326.162H470.794C470.733 326.261 470.645 326.387 470.531 326.538C470.418 326.687 470.256 326.821 470.045 326.94C469.834 327.056 469.554 327.114 469.203 327.114ZM469.317 326.361C469.653 326.361 469.937 326.273 470.169 326.098C470.401 325.92 470.578 325.675 470.698 325.363C470.819 325.048 470.879 324.685 470.879 324.273C470.879 323.866 470.82 323.509 470.702 323.204C470.584 322.896 470.408 322.657 470.176 322.487C469.944 322.314 469.658 322.227 469.317 322.227C468.962 322.227 468.666 322.318 468.429 322.501C468.195 322.681 468.018 322.926 467.9 323.236C467.784 323.544 467.726 323.889 467.726 324.273C467.726 324.661 467.785 325.014 467.904 325.331C468.024 325.646 468.202 325.897 468.436 326.084C468.673 326.268 468.967 326.361 469.317 326.361Z" fill="#0452A1"/>
<path d="M526.5 85V309" stroke="#B2C8EE"/>
<path d="M529.71 327.099C529.241 327.099 528.824 327.019 528.457 326.858C528.092 326.697 527.802 326.473 527.587 326.187C527.374 325.898 527.258 325.563 527.239 325.182H528.134C528.152 325.416 528.233 325.619 528.375 325.789C528.517 325.957 528.703 326.087 528.933 326.18C529.162 326.272 529.417 326.318 529.696 326.318C530.009 326.318 530.286 326.264 530.527 326.155C530.768 326.046 530.958 325.894 531.095 325.7C531.232 325.506 531.301 325.281 531.301 325.026C531.301 324.758 531.235 324.522 531.102 324.319C530.97 324.113 530.776 323.952 530.52 323.836C530.264 323.72 529.952 323.662 529.582 323.662H529V322.881H529.582C529.871 322.881 530.125 322.829 530.342 322.724C530.563 322.62 530.734 322.473 530.857 322.284C530.983 322.095 531.045 321.872 531.045 321.616C531.045 321.37 530.991 321.156 530.882 320.974C530.773 320.791 530.619 320.649 530.42 320.548C530.224 320.446 529.992 320.395 529.724 320.395C529.473 320.395 529.237 320.441 529.014 320.533C528.794 320.623 528.614 320.755 528.474 320.928C528.335 321.098 528.259 321.304 528.247 321.545H527.395C527.409 321.164 527.524 320.83 527.739 320.544C527.955 320.255 528.237 320.03 528.585 319.869C528.935 319.708 529.32 319.628 529.739 319.628C530.188 319.628 530.574 319.719 530.896 319.901C531.218 320.081 531.466 320.319 531.638 320.615C531.811 320.911 531.898 321.231 531.898 321.574C531.898 321.983 531.79 322.333 531.575 322.621C531.362 322.91 531.071 323.11 530.705 323.222V323.278C531.164 323.354 531.522 323.549 531.781 323.864C532.039 324.177 532.168 324.564 532.168 325.026C532.168 325.421 532.06 325.776 531.844 326.091C531.631 326.403 531.34 326.65 530.971 326.83C530.602 327.009 530.181 327.099 529.71 327.099ZM535.992 327.099C535.457 327.099 535.001 326.954 534.625 326.663C534.249 326.369 533.961 325.944 533.762 325.388C533.563 324.829 533.464 324.154 533.464 323.364C533.464 322.578 533.563 321.906 533.762 321.35C533.963 320.791 534.252 320.365 534.629 320.072C535.007 319.776 535.462 319.628 535.992 319.628C536.522 319.628 536.976 319.776 537.352 320.072C537.731 320.365 538.02 320.791 538.219 321.35C538.42 321.906 538.521 322.578 538.521 323.364C538.521 324.154 538.421 324.829 538.222 325.388C538.023 325.944 537.736 326.369 537.359 326.663C536.983 326.954 536.527 327.099 535.992 327.099ZM535.992 326.318C536.522 326.318 536.934 326.062 537.228 325.551C537.522 325.04 537.668 324.311 537.668 323.364C537.668 322.734 537.601 322.198 537.466 321.755C537.333 321.312 537.142 320.975 536.891 320.743C536.642 320.511 536.343 320.395 535.992 320.395C535.467 320.395 535.056 320.654 534.76 321.173C534.464 321.689 534.316 322.419 534.316 323.364C534.316 323.993 534.382 324.528 534.515 324.969C534.647 325.409 534.838 325.744 535.087 325.974C535.338 326.203 535.639 326.318 535.992 326.318ZM542.256 321.545V322.256H539.43V321.545H542.256ZM540.254 320.239H541.092V325.438C541.092 325.674 541.126 325.852 541.195 325.97C541.266 326.086 541.356 326.164 541.464 326.205C541.576 326.242 541.693 326.261 541.816 326.261C541.908 326.261 541.984 326.257 542.043 326.247C542.103 326.235 542.15 326.226 542.185 326.219L542.356 326.972C542.299 326.993 542.22 327.014 542.118 327.036C542.016 327.059 541.887 327.071 541.731 327.071C541.494 327.071 541.262 327.02 541.035 326.918C540.81 326.817 540.623 326.661 540.474 326.453C540.327 326.245 540.254 325.982 540.254 325.665V320.239ZM544.472 323.719V327H543.634V319.727H544.472V322.398H544.543C544.671 322.116 544.863 321.892 545.119 321.727C545.377 321.558 545.72 321.474 546.148 321.474C546.52 321.474 546.846 321.549 547.125 321.698C547.404 321.845 547.621 322.071 547.775 322.376C547.931 322.679 548.009 323.065 548.009 323.534V327H547.171V323.591C547.171 323.158 547.059 322.823 546.834 322.586C546.611 322.347 546.302 322.227 545.907 322.227C545.632 322.227 545.386 322.285 545.168 322.401C544.953 322.517 544.782 322.687 544.657 322.909C544.534 323.132 544.472 323.402 544.472 323.719Z" fill="#0452A1"/>
<path d="M602.6 85V309" stroke="#B2C8EE"/>
<path d="M605.768 327.099C605.469 327.095 605.171 327.038 604.873 326.929C604.574 326.82 604.302 326.637 604.056 326.379C603.81 326.118 603.612 325.767 603.463 325.324C603.314 324.879 603.239 324.32 603.239 323.648C603.239 323.004 603.3 322.433 603.42 321.936C603.541 321.437 603.716 321.016 603.946 320.675C604.176 320.332 604.453 320.072 604.777 319.894C605.104 319.717 605.472 319.628 605.881 319.628C606.288 319.628 606.651 319.71 606.968 319.873C607.288 320.034 607.548 320.259 607.749 320.548C607.95 320.836 608.081 321.169 608.14 321.545H607.273C607.193 321.219 607.037 320.948 606.805 320.732C606.573 320.517 606.265 320.409 605.881 320.409C605.318 320.409 604.874 320.654 604.55 321.144C604.228 321.634 604.065 322.322 604.063 323.207H604.12C604.252 323.006 604.41 322.835 604.592 322.692C604.777 322.548 604.98 322.437 605.203 322.359C605.426 322.281 605.661 322.241 605.91 322.241C606.326 322.241 606.708 322.346 607.053 322.554C607.399 322.76 607.676 323.045 607.884 323.41C608.092 323.772 608.197 324.188 608.197 324.656C608.197 325.106 608.096 325.518 607.895 325.892C607.694 326.264 607.411 326.56 607.046 326.78C606.684 326.998 606.258 327.104 605.768 327.099ZM605.768 326.318C606.066 326.318 606.333 326.244 606.57 326.094C606.809 325.945 606.998 325.745 607.135 325.494C607.275 325.243 607.344 324.964 607.344 324.656C607.344 324.356 607.277 324.082 607.142 323.836C607.009 323.587 606.826 323.39 606.592 323.243C606.36 323.096 606.094 323.023 605.796 323.023C605.571 323.023 605.362 323.068 605.168 323.158C604.973 323.245 604.803 323.366 604.656 323.52C604.512 323.674 604.398 323.85 604.315 324.049C604.232 324.246 604.191 324.453 604.191 324.67C604.191 324.959 604.258 325.229 604.393 325.48C604.531 325.731 604.718 325.933 604.954 326.087C605.194 326.241 605.465 326.318 605.768 326.318ZM611.979 321.545V322.256H609.153V321.545H611.979ZM609.977 320.239H610.815V325.438C610.815 325.674 610.849 325.852 610.918 325.97C610.989 326.086 611.079 326.164 611.188 326.205C611.299 326.242 611.416 326.261 611.539 326.261C611.631 326.261 611.707 326.257 611.766 326.247C611.826 326.235 611.873 326.226 611.908 326.219L612.079 326.972C612.022 326.993 611.943 327.014 611.841 327.036C611.739 327.059 611.61 327.071 611.454 327.071C611.217 327.071 610.985 327.02 610.758 326.918C610.533 326.817 610.346 326.661 610.197 326.453C610.05 326.245 609.977 325.982 609.977 325.665V320.239ZM614.195 323.719V327H613.357V319.727H614.195V322.398H614.266C614.394 322.116 614.586 321.892 614.842 321.727C615.1 321.558 615.443 321.474 615.872 321.474C616.243 321.474 616.569 321.549 616.848 321.698C617.127 321.845 617.344 322.071 617.498 322.376C617.654 322.679 617.732 323.065 617.732 323.534V327H616.894V323.591C616.894 323.158 616.782 322.823 616.557 322.586C616.334 322.347 616.025 322.227 615.63 322.227C615.355 322.227 615.109 322.285 614.891 322.401C614.676 322.517 614.506 322.687 614.38 322.909C614.257 323.132 614.195 323.402 614.195 323.719Z" fill="#0452A1"/>
<path d="M678.7 85V309" stroke="#B2C8EE"/>
<path d="M682.01 319.727V327H681.129V320.651H681.086L679.311 321.83V320.935L681.129 319.727H682.01ZM686.559 327.099C686.09 327.099 685.672 327.019 685.305 326.858C684.941 326.697 684.651 326.473 684.435 326.187C684.222 325.898 684.106 325.563 684.087 325.182H684.982C685.001 325.416 685.081 325.619 685.223 325.789C685.365 325.957 685.551 326.087 685.781 326.18C686.011 326.272 686.265 326.318 686.544 326.318C686.857 326.318 687.134 326.264 687.375 326.155C687.617 326.046 687.806 325.894 687.944 325.7C688.081 325.506 688.15 325.281 688.15 325.026C688.15 324.758 688.083 324.522 687.951 324.319C687.818 324.113 687.624 323.952 687.368 323.836C687.113 323.72 686.8 323.662 686.431 323.662H685.848V322.881H686.431C686.72 322.881 686.973 322.829 687.191 322.724C687.411 322.62 687.583 322.473 687.706 322.284C687.831 322.095 687.894 321.872 687.894 321.616C687.894 321.37 687.839 321.156 687.731 320.974C687.622 320.791 687.468 320.649 687.269 320.548C687.072 320.446 686.84 320.395 686.573 320.395C686.322 320.395 686.085 320.441 685.863 320.533C685.642 320.623 685.463 320.755 685.323 320.928C685.183 321.098 685.107 321.304 685.096 321.545H684.243C684.258 321.164 684.372 320.83 684.588 320.544C684.803 320.255 685.085 320.03 685.433 319.869C685.783 319.708 686.168 319.628 686.587 319.628C687.037 319.628 687.423 319.719 687.745 319.901C688.067 320.081 688.314 320.319 688.487 320.615C688.66 320.911 688.746 321.231 688.746 321.574C688.746 321.983 688.638 322.333 688.423 322.621C688.21 322.91 687.92 323.11 687.553 323.222V323.278C688.012 323.354 688.371 323.549 688.629 323.864C688.887 324.177 689.016 324.564 689.016 325.026C689.016 325.421 688.908 325.776 688.693 326.091C688.48 326.403 688.189 326.65 687.819 326.83C687.45 327.009 687.03 327.099 686.559 327.099ZM692.855 321.545V322.256H690.028V321.545H692.855ZM690.852 320.239H691.69V325.438C691.69 325.674 691.724 325.852 691.793 325.97C691.864 326.086 691.954 326.164 692.063 326.205C692.174 326.242 692.291 326.261 692.415 326.261C692.507 326.261 692.583 326.257 692.642 326.247C692.701 326.235 692.748 326.226 692.784 326.219L692.954 326.972C692.897 326.993 692.818 327.014 692.716 327.036C692.615 327.059 692.486 327.071 692.329 327.071C692.093 327.071 691.861 327.02 691.633 326.918C691.408 326.817 691.221 326.661 691.072 326.453C690.925 326.245 690.852 325.982 690.852 325.665V320.239ZM695.071 323.719V327H694.233V319.727H695.071V322.398H695.142C695.27 322.116 695.461 321.892 695.717 321.727C695.975 321.558 696.318 321.474 696.747 321.474C697.119 321.474 697.444 321.549 697.723 321.698C698.003 321.845 698.219 322.071 698.373 322.376C698.53 322.679 698.608 323.065 698.608 323.534V327H697.77V323.591C697.77 323.158 697.657 322.823 697.432 322.586C697.21 322.347 696.901 322.227 696.505 322.227C696.231 322.227 695.985 322.285 695.767 322.401C695.551 322.517 695.381 322.687 695.255 322.909C695.132 323.132 695.071 323.402 695.071 323.719Z" fill="#0452A1"/>
<path d="M754.8 85V309" stroke="#B2C8EE"/>
<path d="M755.553 327V326.361L757.953 323.733C758.235 323.425 758.467 323.158 758.649 322.93C758.832 322.701 758.967 322.485 759.054 322.284C759.144 322.08 759.189 321.867 759.189 321.645C759.189 321.389 759.128 321.168 759.005 320.981C758.884 320.794 758.718 320.649 758.507 320.548C758.297 320.446 758.06 320.395 757.797 320.395C757.518 320.395 757.274 320.453 757.066 320.569C756.86 320.683 756.7 320.842 756.586 321.048C756.475 321.254 756.419 321.496 756.419 321.773H755.581C755.581 321.347 755.679 320.973 755.876 320.651C756.072 320.329 756.34 320.078 756.679 319.898C757.019 319.718 757.402 319.628 757.826 319.628C758.252 319.628 758.629 319.718 758.958 319.898C759.287 320.078 759.545 320.32 759.733 320.626C759.92 320.931 760.013 321.271 760.013 321.645C760.013 321.912 759.965 322.174 759.867 322.43C759.773 322.683 759.607 322.966 759.37 323.278C759.136 323.589 758.81 323.967 758.394 324.415L756.76 326.162V326.219H760.141V327H755.553ZM763.98 327.099C763.445 327.099 762.989 326.954 762.612 326.663C762.236 326.369 761.948 325.944 761.75 325.388C761.551 324.829 761.451 324.154 761.451 323.364C761.451 322.578 761.551 321.906 761.75 321.35C761.951 320.791 762.24 320.365 762.616 320.072C762.995 319.776 763.449 319.628 763.98 319.628C764.51 319.628 764.963 319.776 765.34 320.072C765.719 320.365 766.007 320.791 766.206 321.35C766.407 321.906 766.508 322.578 766.508 323.364C766.508 324.154 766.409 324.829 766.21 325.388C766.011 325.944 765.723 326.369 765.347 326.663C764.97 326.954 764.515 327.099 763.98 327.099ZM763.98 326.318C764.51 326.318 764.922 326.062 765.215 325.551C765.509 325.04 765.656 324.311 765.656 323.364C765.656 322.734 765.588 322.198 765.453 321.755C765.321 321.312 765.129 320.975 764.878 320.743C764.63 320.511 764.33 320.395 763.98 320.395C763.454 320.395 763.043 320.654 762.747 321.173C762.452 321.689 762.304 322.419 762.304 323.364C762.304 323.993 762.37 324.528 762.502 324.969C762.635 325.409 762.826 325.744 763.074 325.974C763.325 326.203 763.627 326.318 763.98 326.318ZM770.244 321.545V322.256H767.417V321.545H770.244ZM768.241 320.239H769.079V325.438C769.079 325.674 769.113 325.852 769.182 325.97C769.253 326.086 769.343 326.164 769.452 326.205C769.563 326.242 769.68 326.261 769.804 326.261C769.896 326.261 769.972 326.257 770.031 326.247C770.09 326.235 770.137 326.226 770.173 326.219L770.343 326.972C770.286 326.993 770.207 327.014 770.105 327.036C770.004 327.059 769.875 327.071 769.718 327.071C769.482 327.071 769.25 327.02 769.022 326.918C768.797 326.817 768.61 326.661 768.461 326.453C768.314 326.245 768.241 325.982 768.241 325.665V320.239ZM772.46 323.719V327H771.622V319.727H772.46V322.398H772.531C772.659 322.116 772.85 321.892 773.106 321.727C773.364 321.558 773.707 321.474 774.136 321.474C774.508 321.474 774.833 321.549 775.112 321.698C775.392 321.845 775.608 322.071 775.762 322.376C775.919 322.679 775.997 323.065 775.997 323.534V327H775.159V323.591C775.159 323.158 775.046 322.823 774.821 322.586C774.599 322.347 774.29 322.227 773.894 322.227C773.62 322.227 773.374 322.285 773.156 322.401C772.94 322.517 772.77 322.687 772.644 322.909C772.521 323.132 772.46 323.402 772.46 323.719Z" fill="#0452A1"/>
<path d="M830.9 85V309" stroke="#B2C8EE"/>
<path d="M831.653 327V326.361L834.053 323.733C834.335 323.425 834.567 323.158 834.749 322.93C834.932 322.701 835.067 322.485 835.154 322.284C835.244 322.08 835.289 321.867 835.289 321.645C835.289 321.389 835.228 321.168 835.105 320.981C834.984 320.794 834.818 320.649 834.607 320.548C834.397 320.446 834.16 320.395 833.897 320.395C833.618 320.395 833.374 320.453 833.166 320.569C832.96 320.683 832.8 320.842 832.686 321.048C832.575 321.254 832.519 321.496 832.519 321.773H831.681C831.681 321.347 831.779 320.973 831.976 320.651C832.172 320.329 832.44 320.078 832.779 319.898C833.119 319.718 833.502 319.628 833.926 319.628C834.352 319.628 834.729 319.718 835.058 319.898C835.387 320.078 835.645 320.32 835.832 320.626C836.02 320.931 836.113 321.271 836.113 321.645C836.113 321.912 836.064 322.174 835.967 322.43C835.873 322.683 835.707 322.966 835.47 323.278C835.236 323.589 834.91 323.967 834.494 324.415L832.86 326.162V326.219H836.241V327H831.653ZM837.935 327L841.188 320.565V320.509H837.438V319.727H842.097V320.551L838.858 327H837.935ZM845.807 321.545V322.256H842.98V321.545H845.807ZM843.804 320.239H844.642V325.438C844.642 325.674 844.676 325.852 844.745 325.97C844.816 326.086 844.906 326.164 845.015 326.205C845.126 326.242 845.243 326.261 845.366 326.261C845.459 326.261 845.534 326.257 845.594 326.247C845.653 326.235 845.7 326.226 845.736 326.219L845.906 326.972C845.849 326.993 845.77 327.014 845.668 327.036C845.566 327.059 845.437 327.071 845.281 327.071C845.044 327.071 844.812 327.02 844.585 326.918C844.36 326.817 844.173 326.661 844.024 326.453C843.877 326.245 843.804 325.982 843.804 325.665V320.239ZM848.023 323.719V327H847.185V319.727H848.023V322.398H848.094C848.222 322.116 848.413 321.892 848.669 321.727C848.927 321.558 849.27 321.474 849.699 321.474C850.07 321.474 850.396 321.549 850.675 321.698C850.955 321.845 851.171 322.071 851.325 322.376C851.481 322.679 851.56 323.065 851.56 323.534V327H850.722V323.591C850.722 323.158 850.609 322.823 850.384 322.586C850.162 322.347 849.853 322.227 849.457 322.227C849.183 322.227 848.936 322.285 848.719 322.401C848.503 322.517 848.333 322.687 848.207 322.909C848.084 323.132 848.023 323.402 848.023 323.719Z" fill="#0452A1"/>
<path d="M222.665 335.727H223.545V340.926C223.545 341.39 223.46 341.784 223.29 342.109C223.119 342.433 222.879 342.679 222.569 342.847C222.259 343.015 221.893 343.099 221.472 343.099C221.074 343.099 220.72 343.027 220.41 342.883C220.1 342.736 219.856 342.528 219.678 342.258C219.501 341.988 219.412 341.667 219.412 341.295H220.278C220.278 341.501 220.329 341.681 220.431 341.835C220.535 341.987 220.677 342.105 220.857 342.19C221.037 342.276 221.242 342.318 221.472 342.318C221.725 342.318 221.94 342.265 222.118 342.158C222.295 342.052 222.43 341.896 222.523 341.69C222.617 341.481 222.665 341.227 222.665 340.926V335.727ZM228.634 340.77V337.545H229.472V343H228.634V342.077H228.577C228.45 342.354 228.251 342.589 227.981 342.783C227.711 342.975 227.37 343.071 226.958 343.071C226.617 343.071 226.314 342.996 226.049 342.847C225.784 342.696 225.576 342.469 225.424 342.165C225.272 341.86 225.197 341.475 225.197 341.011V337.545H226.035V340.955C226.035 341.352 226.146 341.67 226.369 341.906C226.594 342.143 226.88 342.261 227.228 342.261C227.436 342.261 227.648 342.208 227.864 342.102C228.081 341.995 228.264 341.832 228.411 341.612C228.56 341.391 228.634 341.111 228.634 340.77ZM231.845 335.727V343H231.007V335.727H231.845ZM233.92 345.045C233.778 345.045 233.651 345.034 233.54 345.01C233.429 344.989 233.352 344.967 233.309 344.946L233.522 344.207C233.726 344.259 233.906 344.278 234.062 344.264C234.218 344.25 234.357 344.18 234.478 344.055C234.601 343.932 234.713 343.732 234.815 343.455L234.971 343.028L232.954 337.545H233.863L235.369 341.892H235.426L236.931 337.545H237.841L235.525 343.795C235.421 344.077 235.292 344.31 235.138 344.495C234.984 344.682 234.806 344.821 234.602 344.911C234.401 345 234.173 345.045 233.92 345.045ZM241.745 343V342.361L244.146 339.733C244.427 339.425 244.659 339.158 244.842 338.93C245.024 338.701 245.159 338.485 245.246 338.284C245.336 338.08 245.381 337.867 245.381 337.645C245.381 337.389 245.32 337.168 245.197 336.981C245.076 336.794 244.91 336.649 244.7 336.548C244.489 336.446 244.252 336.395 243.989 336.395C243.71 336.395 243.466 336.453 243.258 336.569C243.052 336.683 242.892 336.842 242.778 337.048C242.667 337.254 242.612 337.496 242.612 337.773H241.773C241.773 337.347 241.872 336.973 242.068 336.651C242.265 336.329 242.532 336.078 242.871 335.898C243.212 335.718 243.594 335.628 244.018 335.628C244.444 335.628 244.821 335.718 245.151 335.898C245.48 336.078 245.738 336.32 245.925 336.626C246.112 336.931 246.205 337.271 246.205 337.645C246.205 337.912 246.157 338.174 246.06 338.43C245.965 338.683 245.799 338.966 245.562 339.278C245.328 339.589 245.003 339.967 244.586 340.415L242.952 342.162V342.219H246.333V343H241.745ZM250.172 343.099C249.637 343.099 249.181 342.954 248.805 342.663C248.428 342.369 248.141 341.944 247.942 341.388C247.743 340.829 247.643 340.154 247.643 339.364C247.643 338.578 247.743 337.906 247.942 337.35C248.143 336.791 248.432 336.365 248.808 336.072C249.187 335.776 249.642 335.628 250.172 335.628C250.702 335.628 251.156 335.776 251.532 336.072C251.911 336.365 252.2 336.791 252.398 337.35C252.6 337.906 252.7 338.578 252.7 339.364C252.7 340.154 252.601 340.829 252.402 341.388C252.203 341.944 251.915 342.369 251.539 342.663C251.163 342.954 250.707 343.099 250.172 343.099ZM250.172 342.318C250.702 342.318 251.114 342.062 251.408 341.551C251.701 341.04 251.848 340.311 251.848 339.364C251.848 338.734 251.781 338.198 251.646 337.755C251.513 337.312 251.321 336.975 251.07 336.743C250.822 336.511 250.522 336.395 250.172 336.395C249.646 336.395 249.236 336.654 248.94 337.173C248.644 337.689 248.496 338.419 248.496 339.364C248.496 339.993 248.562 340.528 248.695 340.969C248.827 341.409 249.018 341.744 249.266 341.974C249.517 342.203 249.819 342.318 250.172 342.318ZM254.05 343V342.361L256.45 339.733C256.732 339.425 256.964 339.158 257.146 338.93C257.329 338.701 257.464 338.485 257.551 338.284C257.641 338.08 257.686 337.867 257.686 337.645C257.686 337.389 257.625 337.168 257.501 336.981C257.381 336.794 257.215 336.649 257.004 336.548C256.794 336.446 256.557 336.395 256.294 336.395C256.015 336.395 255.771 336.453 255.562 336.569C255.357 336.683 255.197 336.842 255.083 337.048C254.972 337.254 254.916 337.496 254.916 337.773H254.078C254.078 337.347 254.176 336.973 254.373 336.651C254.569 336.329 254.837 336.078 255.175 335.898C255.516 335.718 255.899 335.628 256.322 335.628C256.749 335.628 257.126 335.718 257.455 335.898C257.784 336.078 258.042 336.32 258.229 336.626C258.416 336.931 258.51 337.271 258.51 337.645C258.51 337.912 258.461 338.174 258.364 338.43C258.27 338.683 258.104 338.966 257.867 339.278C257.633 339.589 257.307 339.967 256.891 340.415L255.257 342.162V342.219H258.638V343H254.05ZM262.562 343.099C262.093 343.099 261.675 343.019 261.308 342.858C260.944 342.697 260.654 342.473 260.438 342.187C260.225 341.898 260.109 341.563 260.09 341.182H260.985C261.004 341.416 261.085 341.619 261.227 341.789C261.369 341.957 261.554 342.087 261.784 342.18C262.014 342.272 262.268 342.318 262.548 342.318C262.86 342.318 263.137 342.264 263.379 342.155C263.62 342.046 263.809 341.894 263.947 341.7C264.084 341.506 264.153 341.281 264.153 341.026C264.153 340.758 264.086 340.522 263.954 340.319C263.821 340.113 263.627 339.952 263.371 339.836C263.116 339.72 262.803 339.662 262.434 339.662H261.852V338.881H262.434C262.723 338.881 262.976 338.829 263.194 338.724C263.414 338.62 263.586 338.473 263.709 338.284C263.834 338.095 263.897 337.872 263.897 337.616C263.897 337.37 263.843 337.156 263.734 336.974C263.625 336.791 263.471 336.649 263.272 336.548C263.076 336.446 262.844 336.395 262.576 336.395C262.325 336.395 262.088 336.441 261.866 336.533C261.646 336.623 261.466 336.755 261.326 336.928C261.186 337.098 261.111 337.304 261.099 337.545H260.246C260.261 337.164 260.375 336.83 260.591 336.544C260.806 336.255 261.088 336.03 261.436 335.869C261.786 335.708 262.171 335.628 262.59 335.628C263.04 335.628 263.426 335.719 263.748 335.901C264.07 336.081 264.317 336.319 264.49 336.615C264.663 336.911 264.749 337.231 264.749 337.574C264.749 337.983 264.642 338.333 264.426 338.621C264.213 338.91 263.923 339.11 263.556 339.222V339.278C264.015 339.354 264.374 339.549 264.632 339.864C264.89 340.177 265.019 340.564 265.019 341.026C265.019 341.421 264.911 341.776 264.696 342.091C264.483 342.403 264.192 342.65 263.822 342.83C263.453 343.009 263.033 343.099 262.562 343.099Z" fill="#0452A1"/>
<rect x="146" y="85" width="761" height="224" stroke="#B2C8EE"/>
<path d="M214 85L214 343" stroke="#0452A1"/>
<path d="M541.179 343H540.256L542.926 335.727H543.835L546.506 343H545.582L543.409 336.878H543.352L541.179 343ZM541.52 340.159H545.241V340.94H541.52V340.159ZM550.962 340.77V337.545H551.8V343H550.962V342.077H550.906C550.778 342.354 550.579 342.589 550.309 342.783C550.039 342.975 549.698 343.071 549.286 343.071C548.945 343.071 548.642 342.996 548.377 342.847C548.112 342.696 547.904 342.469 547.752 342.165C547.601 341.86 547.525 341.475 547.525 341.011V337.545H548.363V340.955C548.363 341.352 548.474 341.67 548.697 341.906C548.922 342.143 549.208 342.261 549.556 342.261C549.764 342.261 549.976 342.208 550.192 342.102C550.41 341.995 550.592 341.832 550.739 341.612C550.888 341.391 550.962 341.111 550.962 340.77ZM555.537 345.159C555.132 345.159 554.784 345.107 554.493 345.003C554.202 344.901 553.959 344.766 553.765 344.598C553.573 344.432 553.421 344.255 553.307 344.065L553.975 343.597C554.05 343.696 554.146 343.81 554.262 343.938C554.378 344.068 554.537 344.18 554.738 344.275C554.942 344.372 555.208 344.42 555.537 344.42C555.977 344.42 556.341 344.314 556.627 344.101C556.914 343.888 557.057 343.554 557.057 343.099V341.991H556.986C556.924 342.091 556.837 342.214 556.723 342.361C556.612 342.505 556.451 342.634 556.24 342.748C556.032 342.859 555.75 342.915 555.395 342.915C554.955 342.915 554.559 342.811 554.209 342.602C553.861 342.394 553.585 342.091 553.382 341.693C553.18 341.295 553.08 340.812 553.08 340.244C553.08 339.686 553.178 339.199 553.374 338.785C553.571 338.368 553.844 338.046 554.195 337.819C554.545 337.589 554.95 337.474 555.409 337.474C555.764 337.474 556.046 337.534 556.254 337.652C556.465 337.768 556.626 337.901 556.737 338.05C556.851 338.196 556.939 338.317 557 338.412H557.085V337.545H557.895V343.156C557.895 343.625 557.789 344.006 557.575 344.3C557.365 344.596 557.081 344.812 556.723 344.95C556.368 345.089 555.973 345.159 555.537 345.159ZM555.509 342.162C555.845 342.162 556.129 342.085 556.361 341.931C556.593 341.777 556.769 341.556 556.89 341.267C557.011 340.978 557.071 340.633 557.071 340.23C557.071 339.837 557.012 339.49 556.894 339.19C556.775 338.889 556.6 338.653 556.368 338.483C556.136 338.312 555.85 338.227 555.509 338.227C555.154 338.227 554.858 338.317 554.621 338.497C554.387 338.677 554.21 338.919 554.092 339.222C553.976 339.525 553.918 339.861 553.918 340.23C553.918 340.609 553.977 340.944 554.095 341.235C554.216 341.524 554.394 341.751 554.628 341.917C554.865 342.08 555.158 342.162 555.509 342.162ZM562.867 340.77V337.545H563.705V343H562.867V342.077H562.81C562.682 342.354 562.483 342.589 562.213 342.783C561.943 342.975 561.602 343.071 561.191 343.071C560.85 343.071 560.547 342.996 560.281 342.847C560.016 342.696 559.808 342.469 559.656 342.165C559.505 341.86 559.429 341.475 559.429 341.011V337.545H560.267V340.955C560.267 341.352 560.378 341.67 560.601 341.906C560.826 342.143 561.112 342.261 561.46 342.261C561.669 342.261 561.881 342.208 562.096 342.102C562.314 341.995 562.496 341.832 562.643 341.612C562.792 341.391 562.867 341.111 562.867 340.77ZM569.103 338.767L568.35 338.98C568.303 338.855 568.233 338.733 568.141 338.614C568.051 338.494 567.928 338.394 567.772 338.316C567.615 338.238 567.415 338.199 567.172 338.199C566.838 338.199 566.56 338.276 566.337 338.43C566.117 338.581 566.007 338.774 566.007 339.009C566.007 339.217 566.083 339.381 566.234 339.502C566.386 339.623 566.622 339.723 566.944 339.804L567.754 340.003C568.242 340.121 568.605 340.302 568.844 340.546C569.083 340.788 569.203 341.099 569.203 341.48C569.203 341.793 569.113 342.072 568.933 342.318C568.755 342.564 568.507 342.759 568.187 342.901C567.868 343.043 567.496 343.114 567.072 343.114C566.516 343.114 566.055 342.993 565.691 342.751C565.326 342.51 565.095 342.157 564.998 341.693L565.794 341.494C565.869 341.788 566.013 342.008 566.223 342.155C566.436 342.302 566.715 342.375 567.058 342.375C567.449 342.375 567.759 342.292 567.988 342.126C568.22 341.958 568.336 341.757 568.336 341.523C568.336 341.333 568.27 341.175 568.137 341.047C568.005 340.917 567.801 340.82 567.527 340.756L566.618 340.543C566.118 340.424 565.751 340.241 565.517 339.992C565.285 339.741 565.169 339.428 565.169 339.051C565.169 338.743 565.255 338.471 565.428 338.234C565.603 337.998 565.841 337.812 566.142 337.677C566.445 337.542 566.788 337.474 567.172 337.474C567.711 337.474 568.135 337.593 568.443 337.83C568.753 338.066 568.973 338.379 569.103 338.767ZM572.836 337.545V338.256H570.01V337.545H572.836ZM570.834 336.239H571.672V341.438C571.672 341.674 571.706 341.852 571.775 341.97C571.846 342.086 571.936 342.164 572.045 342.205C572.156 342.242 572.273 342.261 572.396 342.261C572.488 342.261 572.564 342.257 572.623 342.247C572.683 342.235 572.73 342.226 572.765 342.219L572.936 342.972C572.879 342.993 572.8 343.014 572.698 343.036C572.596 343.059 572.467 343.071 572.311 343.071C572.074 343.071 571.842 343.02 571.615 342.918C571.39 342.817 571.203 342.661 571.054 342.453C570.907 342.245 570.834 341.982 570.834 341.665V336.239ZM576.895 343V342.361L579.296 339.733C579.578 339.425 579.81 339.158 579.992 338.93C580.174 338.701 580.309 338.485 580.397 338.284C580.487 338.08 580.532 337.867 580.532 337.645C580.532 337.389 580.47 337.168 580.347 336.981C580.226 336.794 580.061 336.649 579.85 336.548C579.639 336.446 579.403 336.395 579.14 336.395C578.86 336.395 578.617 336.453 578.408 336.569C578.202 336.683 578.042 336.842 577.929 337.048C577.818 337.254 577.762 337.496 577.762 337.773H576.924C576.924 337.347 577.022 336.973 577.219 336.651C577.415 336.329 577.683 336.078 578.021 335.898C578.362 335.718 578.744 335.628 579.168 335.628C579.594 335.628 579.972 335.718 580.301 335.898C580.63 336.078 580.888 336.32 581.075 336.626C581.262 336.931 581.356 337.271 581.356 337.645C581.356 337.912 581.307 338.174 581.21 338.43C581.115 338.683 580.95 338.966 580.713 339.278C580.479 339.589 580.153 339.967 579.736 340.415L578.103 342.162V342.219H581.483V343H576.895ZM585.322 343.099C584.787 343.099 584.331 342.954 583.955 342.663C583.579 342.369 583.291 341.944 583.092 341.388C582.893 340.829 582.794 340.154 582.794 339.364C582.794 338.578 582.893 337.906 583.092 337.35C583.293 336.791 583.582 336.365 583.959 336.072C584.337 335.776 584.792 335.628 585.322 335.628C585.853 335.628 586.306 335.776 586.682 336.072C587.061 336.365 587.35 336.791 587.549 337.35C587.75 337.906 587.851 338.578 587.851 339.364C587.851 340.154 587.751 340.829 587.552 341.388C587.354 341.944 587.066 342.369 586.689 342.663C586.313 342.954 585.857 343.099 585.322 343.099ZM585.322 342.318C585.853 342.318 586.265 342.062 586.558 341.551C586.852 341.04 586.998 340.311 586.998 339.364C586.998 338.734 586.931 338.198 586.796 337.755C586.663 337.312 586.472 336.975 586.221 336.743C585.972 336.511 585.673 336.395 585.322 336.395C584.797 336.395 584.386 336.654 584.09 337.173C583.794 337.689 583.646 338.419 583.646 339.364C583.646 339.993 583.712 340.528 583.845 340.969C583.978 341.409 584.168 341.744 584.417 341.974C584.668 342.203 584.97 342.318 585.322 342.318ZM589.2 343V342.361L591.601 339.733C591.882 339.425 592.114 339.158 592.297 338.93C592.479 338.701 592.614 338.485 592.702 338.284C592.791 338.08 592.836 337.867 592.836 337.645C592.836 337.389 592.775 337.168 592.652 336.981C592.531 336.794 592.365 336.649 592.155 336.548C591.944 336.446 591.707 336.395 591.444 336.395C591.165 336.395 590.921 336.453 590.713 336.569C590.507 336.683 590.347 336.842 590.233 337.048C590.122 337.254 590.067 337.496 590.067 337.773H589.229C589.229 337.347 589.327 336.973 589.523 336.651C589.72 336.329 589.987 336.078 590.326 335.898C590.667 335.718 591.049 335.628 591.473 335.628C591.899 335.628 592.277 335.718 592.606 335.898C592.935 336.078 593.193 336.32 593.38 336.626C593.567 336.931 593.66 337.271 593.66 337.645C593.66 337.912 593.612 338.174 593.515 338.43C593.42 338.683 593.254 338.966 593.018 339.278C592.783 339.589 592.458 339.967 592.041 340.415L590.407 342.162V342.219H593.788V343H589.2ZM597.712 343.099C597.243 343.099 596.826 343.019 596.459 342.858C596.094 342.697 595.804 342.473 595.589 342.187C595.376 341.898 595.26 341.563 595.241 341.182H596.135C596.154 341.416 596.235 341.619 596.377 341.789C596.519 341.957 596.705 342.087 596.934 342.18C597.164 342.272 597.419 342.318 597.698 342.318C598.01 342.318 598.287 342.264 598.529 342.155C598.77 342.046 598.96 341.894 599.097 341.7C599.234 341.506 599.303 341.281 599.303 341.026C599.303 340.758 599.237 340.522 599.104 340.319C598.972 340.113 598.778 339.952 598.522 339.836C598.266 339.72 597.954 339.662 597.584 339.662H597.002V338.881H597.584C597.873 338.881 598.126 338.829 598.344 338.724C598.564 338.62 598.736 338.473 598.859 338.284C598.985 338.095 599.047 337.872 599.047 337.616C599.047 337.37 598.993 337.156 598.884 336.974C598.775 336.791 598.621 336.649 598.422 336.548C598.226 336.446 597.994 336.395 597.726 336.395C597.475 336.395 597.239 336.441 597.016 336.533C596.796 336.623 596.616 336.755 596.476 336.928C596.337 337.098 596.261 337.304 596.249 337.545H595.397C595.411 337.164 595.526 336.83 595.741 336.544C595.957 336.255 596.238 336.03 596.586 335.869C596.937 335.708 597.322 335.628 597.741 335.628C598.19 335.628 598.576 335.719 598.898 335.901C599.22 336.081 599.468 336.319 599.64 336.615C599.813 336.911 599.9 337.231 599.9 337.574C599.9 337.983 599.792 338.333 599.577 338.621C599.363 338.91 599.073 339.11 598.706 339.222V339.278C599.166 339.354 599.524 339.549 599.782 339.864C600.041 340.177 600.17 340.564 600.17 341.026C600.17 341.421 600.062 341.776 599.846 342.091C599.633 342.403 599.342 342.65 598.973 342.83C598.604 343.009 598.183 343.099 597.712 343.099Z" fill="#0452A1"/>
<path d="M535 85L535 343" stroke="#0452A1"/>
<path d="M868.858 337.545C868.815 337.186 868.643 336.906 868.339 336.707C868.036 336.509 867.665 336.409 867.224 336.409C866.902 336.409 866.621 336.461 866.379 336.565C866.14 336.67 865.953 336.813 865.818 336.995C865.686 337.177 865.619 337.384 865.619 337.616C865.619 337.811 865.665 337.978 865.758 338.117C865.853 338.254 865.973 338.369 866.12 338.462C866.267 338.552 866.421 338.626 866.582 338.685C866.743 338.742 866.891 338.788 867.026 338.824L867.764 339.023C867.954 339.072 868.164 339.141 868.396 339.229C868.631 339.316 868.854 339.436 869.067 339.587C869.283 339.737 869.46 339.928 869.6 340.163C869.74 340.397 869.81 340.685 869.81 341.026C869.81 341.419 869.707 341.774 869.501 342.091C869.297 342.408 868.999 342.66 868.606 342.847C868.215 343.034 867.741 343.128 867.182 343.128C866.661 343.128 866.21 343.044 865.829 342.876C865.45 342.708 865.152 342.473 864.934 342.173C864.719 341.872 864.597 341.523 864.568 341.125H865.477C865.501 341.4 865.593 341.627 865.754 341.807C865.918 341.984 866.124 342.117 866.372 342.205C866.623 342.29 866.893 342.332 867.182 342.332C867.518 342.332 867.82 342.278 868.087 342.169C868.355 342.058 868.567 341.904 868.723 341.707C868.879 341.509 868.957 341.277 868.957 341.011C868.957 340.77 868.89 340.573 868.755 340.422C868.62 340.27 868.442 340.147 868.222 340.053C868.002 339.958 867.764 339.875 867.509 339.804L866.614 339.548C866.045 339.385 865.596 339.152 865.264 338.849C864.933 338.546 864.767 338.149 864.767 337.659C864.767 337.252 864.877 336.897 865.097 336.594C865.32 336.288 865.618 336.052 865.992 335.884C866.369 335.713 866.789 335.628 867.253 335.628C867.722 335.628 868.138 335.712 868.503 335.88C868.867 336.046 869.156 336.273 869.369 336.562C869.585 336.851 869.698 337.179 869.71 337.545H868.858ZM873.431 343.114C872.905 343.114 872.452 342.998 872.071 342.766C871.692 342.531 871.4 342.205 871.194 341.786C870.99 341.364 870.888 340.874 870.888 340.315C870.888 339.757 870.99 339.264 871.194 338.838C871.4 338.41 871.686 338.076 872.053 337.837C872.422 337.595 872.853 337.474 873.346 337.474C873.63 337.474 873.91 337.522 874.187 337.616C874.464 337.711 874.716 337.865 874.944 338.078C875.171 338.289 875.352 338.568 875.487 338.916C875.622 339.264 875.689 339.693 875.689 340.202V340.557H871.485V339.832H874.837C874.837 339.525 874.776 339.25 874.653 339.009C874.532 338.767 874.359 338.576 874.134 338.437C873.912 338.297 873.649 338.227 873.346 338.227C873.012 338.227 872.723 338.31 872.479 338.476C872.238 338.639 872.052 338.852 871.922 339.115C871.791 339.378 871.726 339.66 871.726 339.96V340.443C871.726 340.855 871.797 341.204 871.939 341.491C872.084 341.775 872.284 341.991 872.54 342.141C872.795 342.287 873.092 342.361 873.431 342.361C873.651 342.361 873.85 342.33 874.028 342.268C874.207 342.205 874.363 342.11 874.493 341.984C874.623 341.857 874.724 341.698 874.795 341.509L875.604 341.736C875.519 342.01 875.376 342.252 875.175 342.46C874.973 342.666 874.725 342.827 874.429 342.943C874.133 343.057 873.8 343.114 873.431 343.114ZM876.964 345.045V337.545H877.774V338.412H877.873C877.935 338.317 878.02 338.196 878.129 338.05C878.24 337.901 878.399 337.768 878.605 337.652C878.813 337.534 879.095 337.474 879.45 337.474C879.909 337.474 880.314 337.589 880.665 337.819C881.015 338.049 881.288 338.374 881.485 338.795C881.681 339.217 881.78 339.714 881.78 340.287C881.78 340.865 881.681 341.365 881.485 341.789C881.288 342.21 881.016 342.537 880.668 342.769C880.32 342.999 879.919 343.114 879.464 343.114C879.114 343.114 878.833 343.056 878.623 342.94C878.412 342.821 878.25 342.687 878.136 342.538C878.023 342.387 877.935 342.261 877.873 342.162H877.802V345.045H876.964ZM877.788 340.273C877.788 340.685 877.849 341.048 877.969 341.363C878.09 341.675 878.266 341.92 878.498 342.098C878.73 342.273 879.015 342.361 879.351 342.361C879.701 342.361 879.993 342.268 880.228 342.084C880.465 341.897 880.642 341.646 880.76 341.331C880.881 341.014 880.942 340.661 880.942 340.273C880.942 339.889 880.882 339.544 880.764 339.236C880.648 338.926 880.472 338.681 880.235 338.501C880.001 338.318 879.706 338.227 879.351 338.227C879.01 338.227 878.723 338.314 878.491 338.487C878.259 338.657 878.084 338.896 877.966 339.204C877.847 339.509 877.788 339.866 877.788 340.273ZM885.43 337.545V338.256H882.604V337.545H885.43ZM883.427 336.239H884.265V341.438C884.265 341.674 884.3 341.852 884.368 341.97C884.439 342.086 884.529 342.164 884.638 342.205C884.75 342.242 884.867 342.261 884.99 342.261C885.082 342.261 885.158 342.257 885.217 342.247C885.276 342.235 885.324 342.226 885.359 342.219L885.53 342.972C885.473 342.993 885.394 343.014 885.292 343.036C885.19 343.059 885.061 343.071 884.905 343.071C884.668 343.071 884.436 343.02 884.209 342.918C883.984 342.817 883.797 342.661 883.648 342.453C883.501 342.245 883.427 341.982 883.427 341.665V336.239ZM888.919 343.114C888.394 343.114 887.94 342.998 887.559 342.766C887.18 342.531 886.888 342.205 886.682 341.786C886.478 341.364 886.377 340.874 886.377 340.315C886.377 339.757 886.478 339.264 886.682 338.838C886.888 338.41 887.174 338.076 887.541 337.837C887.911 337.595 888.342 337.474 888.834 337.474C889.118 337.474 889.399 337.522 889.676 337.616C889.953 337.711 890.205 337.865 890.432 338.078C890.659 338.289 890.84 338.568 890.975 338.916C891.11 339.264 891.178 339.693 891.178 340.202V340.557H886.973V339.832H890.325C890.325 339.525 890.264 339.25 890.141 339.009C890.02 338.767 889.847 338.576 889.622 338.437C889.4 338.297 889.137 338.227 888.834 338.227C888.5 338.227 888.211 338.31 887.968 338.476C887.726 338.639 887.54 338.852 887.41 339.115C887.28 339.378 887.215 339.66 887.215 339.96V340.443C887.215 340.855 887.286 341.204 887.428 341.491C887.572 341.775 887.772 341.991 888.028 342.141C888.284 342.287 888.581 342.361 888.919 342.361C889.139 342.361 889.338 342.33 889.516 342.268C889.696 342.205 889.851 342.11 889.981 341.984C890.111 341.857 890.212 341.698 890.283 341.509L891.093 341.736C891.007 342.01 890.864 342.252 890.663 342.46C890.462 342.666 890.213 342.827 889.917 342.943C889.621 343.057 889.289 343.114 888.919 343.114ZM892.453 343V337.545H893.262V338.398H893.333C893.447 338.107 893.63 337.88 893.884 337.719C894.137 337.556 894.441 337.474 894.796 337.474C895.156 337.474 895.456 337.556 895.695 337.719C895.936 337.88 896.124 338.107 896.259 338.398H896.316C896.456 338.116 896.665 337.892 896.945 337.727C897.224 337.558 897.559 337.474 897.95 337.474C898.437 337.474 898.836 337.627 899.146 337.933C899.457 338.236 899.612 338.708 899.612 339.349V343H898.774V339.349C898.774 338.947 898.664 338.659 898.443 338.487C898.223 338.314 897.964 338.227 897.666 338.227C897.282 338.227 896.985 338.343 896.774 338.575C896.564 338.805 896.458 339.096 896.458 339.449V343H895.606V339.264C895.606 338.954 895.505 338.704 895.304 338.515C895.103 338.323 894.844 338.227 894.526 338.227C894.309 338.227 894.105 338.285 893.916 338.401C893.729 338.517 893.577 338.678 893.461 338.884C893.347 339.088 893.291 339.323 893.291 339.591V343H892.453ZM901.258 343V335.727H902.096V338.412H902.167C902.228 338.317 902.314 338.196 902.422 338.05C902.534 337.901 902.692 337.768 902.898 337.652C903.107 337.534 903.388 337.474 903.743 337.474C904.203 337.474 904.608 337.589 904.958 337.819C905.308 338.049 905.582 338.374 905.778 338.795C905.975 339.217 906.073 339.714 906.073 340.287C906.073 340.865 905.975 341.365 905.778 341.789C905.582 342.21 905.309 342.537 904.961 342.769C904.613 342.999 904.212 343.114 903.758 343.114C903.407 343.114 903.127 343.056 902.916 342.94C902.705 342.821 902.543 342.687 902.43 342.538C902.316 342.387 902.228 342.261 902.167 342.162H902.067V343H901.258ZM902.081 340.273C902.081 340.685 902.142 341.048 902.263 341.363C902.383 341.675 902.56 341.92 902.792 342.098C903.024 342.273 903.308 342.361 903.644 342.361C903.994 342.361 904.287 342.268 904.521 342.084C904.758 341.897 904.935 341.646 905.054 341.331C905.175 341.014 905.235 340.661 905.235 340.273C905.235 339.889 905.176 339.544 905.057 339.236C904.941 338.926 904.765 338.681 904.528 338.501C904.294 338.318 903.999 338.227 903.644 338.227C903.303 338.227 903.017 338.314 902.785 338.487C902.553 338.657 902.377 338.896 902.259 339.204C902.141 339.509 902.081 339.866 902.081 340.273ZM909.642 343.114C909.116 343.114 908.663 342.998 908.282 342.766C907.903 342.531 907.611 342.205 907.405 341.786C907.201 341.364 907.099 340.874 907.099 340.315C907.099 339.757 907.201 339.264 907.405 338.838C907.611 338.41 907.897 338.076 908.264 337.837C908.633 337.595 909.064 337.474 909.557 337.474C909.841 337.474 910.121 337.522 910.398 337.616C910.675 337.711 910.927 337.865 911.155 338.078C911.382 338.289 911.563 338.568 911.698 338.916C911.833 339.264 911.9 339.693 911.9 340.202V340.557H907.696V339.832H911.048C911.048 339.525 910.987 339.25 910.863 339.009C910.743 338.767 910.57 338.576 910.345 338.437C910.122 338.297 909.86 338.227 909.557 338.227C909.223 338.227 908.934 338.31 908.69 338.476C908.449 338.639 908.263 338.852 908.133 339.115C908.002 339.378 907.937 339.66 907.937 339.96V340.443C907.937 340.855 908.008 341.204 908.15 341.491C908.295 341.775 908.495 341.991 908.751 342.141C909.006 342.287 909.303 342.361 909.642 342.361C909.862 342.361 910.061 342.33 910.238 342.268C910.418 342.205 910.573 342.11 910.704 341.984C910.834 341.857 910.934 341.698 911.006 341.509L911.815 341.736C911.73 342.01 911.587 342.252 911.385 342.46C911.184 342.666 910.936 342.827 910.64 342.943C910.344 343.057 910.011 343.114 909.642 343.114ZM913.175 343V337.545H913.985V338.369H914.042C914.141 338.099 914.321 337.88 914.581 337.712C914.842 337.544 915.135 337.46 915.462 337.46C915.524 337.46 915.601 337.461 915.693 337.464C915.785 337.466 915.855 337.47 915.903 337.474V338.327C915.874 338.32 915.809 338.309 915.707 338.295C915.608 338.278 915.502 338.27 915.391 338.27C915.126 338.27 914.889 338.326 914.681 338.437C914.475 338.546 914.312 338.697 914.191 338.891C914.073 339.083 914.013 339.302 914.013 339.548V343H913.175Z" fill="#0452A1"/>
<path d="M859 85L859 343" stroke="#0452A1"/>
<rect x="524" y="317" width="27" height="12" fill="white"/>
<path d="M529.71 327.099C529.241 327.099 528.824 327.019 528.457 326.858C528.092 326.697 527.802 326.473 527.587 326.187C527.374 325.898 527.258 325.563 527.239 325.182H528.134C528.152 325.416 528.233 325.619 528.375 325.789C528.517 325.957 528.703 326.087 528.933 326.18C529.162 326.272 529.417 326.318 529.696 326.318C530.009 326.318 530.286 326.264 530.527 326.155C530.768 326.046 530.958 325.894 531.095 325.7C531.232 325.506 531.301 325.281 531.301 325.026C531.301 324.758 531.235 324.522 531.102 324.319C530.97 324.113 530.776 323.952 530.52 323.836C530.264 323.72 529.952 323.662 529.582 323.662H529V322.881H529.582C529.871 322.881 530.125 322.829 530.342 322.724C530.563 322.62 530.734 322.473 530.857 322.284C530.983 322.095 531.045 321.872 531.045 321.616C531.045 321.37 530.991 321.156 530.882 320.974C530.773 320.791 530.619 320.649 530.42 320.548C530.224 320.446 529.992 320.395 529.724 320.395C529.473 320.395 529.237 320.441 529.014 320.533C528.794 320.623 528.614 320.755 528.474 320.928C528.335 321.098 528.259 321.304 528.247 321.545H527.395C527.409 321.164 527.524 320.83 527.739 320.544C527.955 320.255 528.237 320.03 528.585 319.869C528.935 319.708 529.32 319.628 529.739 319.628C530.188 319.628 530.574 319.719 530.896 319.901C531.218 320.081 531.466 320.319 531.638 320.615C531.811 320.911 531.898 321.231 531.898 321.574C531.898 321.983 531.79 322.333 531.575 322.621C531.362 322.91 531.071 323.11 530.705 323.222V323.278C531.164 323.354 531.522 323.549 531.781 323.864C532.039 324.177 532.168 324.564 532.168 325.026C532.168 325.421 532.06 325.776 531.844 326.091C531.631 326.403 531.34 326.65 530.971 326.83C530.602 327.009 530.181 327.099 529.71 327.099ZM535.992 327.099C535.457 327.099 535.001 326.954 534.625 326.663C534.249 326.369 533.961 325.944 533.762 325.388C533.563 324.829 533.464 324.154 533.464 323.364C533.464 322.578 533.563 321.906 533.762 321.35C533.963 320.791 534.252 320.365 534.629 320.072C535.007 319.776 535.462 319.628 535.992 319.628C536.522 319.628 536.976 319.776 537.352 320.072C537.731 320.365 538.02 320.791 538.219 321.35C538.42 321.906 538.521 322.578 538.521 323.364C538.521 324.154 538.421 324.829 538.222 325.388C538.023 325.944 537.736 326.369 537.359 326.663C536.983 326.954 536.527 327.099 535.992 327.099ZM535.992 326.318C536.522 326.318 536.934 326.062 537.228 325.551C537.522 325.04 537.668 324.311 537.668 323.364C537.668 322.734 537.601 322.198 537.466 321.755C537.333 321.312 537.142 320.975 536.891 320.743C536.642 320.511 536.343 320.395 535.992 320.395C535.467 320.395 535.056 320.654 534.76 321.173C534.464 321.689 534.316 322.419 534.316 323.364C534.316 323.993 534.382 324.528 534.515 324.969C534.647 325.409 534.838 325.744 535.087 325.974C535.338 326.203 535.639 326.318 535.992 326.318ZM542.256 321.545V322.256H539.43V321.545H542.256ZM540.254 320.239H541.092V325.438C541.092 325.674 541.126 325.852 541.195 325.97C541.266 326.086 541.356 326.164 541.464 326.205C541.576 326.242 541.693 326.261 541.816 326.261C541.908 326.261 541.984 326.257 542.043 326.247C542.103 326.235 542.15 326.226 542.185 326.219L542.356 326.972C542.299 326.993 542.22 327.014 542.118 327.036C542.016 327.059 541.887 327.071 541.731 327.071C541.494 327.071 541.262 327.02 541.035 326.918C540.81 326.817 540.623 326.661 540.474 326.453C540.327 326.245 540.254 325.982 540.254 325.665V320.239ZM544.472 323.719V327H543.634V319.727H544.472V322.398H544.543C544.671 322.116 544.863 321.892 545.119 321.727C545.377 321.558 545.72 321.474 546.148 321.474C546.52 321.474 546.846 321.549 547.125 321.698C547.404 321.845 547.621 322.071 547.775 322.376C547.931 322.679 548.009 323.065 548.009 323.534V327H547.171V323.591C547.171 323.158 547.059 322.823 546.834 322.586C546.611 322.347 546.302 322.227 545.907 322.227C545.632 322.227 545.386 322.285 545.168 322.401C544.953 322.517 544.782 322.687 544.657 322.909C544.534 323.132 544.472 323.402 544.472 323.719Z" fill="#0452A1"/>
<defs>
<filter id="filter0_dd_1732_43797" x="105" y="60" width="824" height="304.3" filterUnits="userSpaceOnUse" color-interpolation-filters="sRGB">
<feFlood flood-opacity="0" result="BackgroundImageFix"/>
<feColorMatrix in="SourceAlpha" type="matrix" values="0 0 0 0 0 0 0 0 0 0 0 0 0 0 0 0 0 0 127 0" result="hardAlpha"/>
<feOffset dy="2.3"/>
<feGaussianBlur stdDeviation="1"/>
<feColorMatrix type="matrix" values="0 0 0 0 0 0 0 0 0 0 0 0 0 0 0 0 0 0 0.03 0"/>
<feBlend mode="normal" in2="BackgroundImageFix" result="effect1_dropShadow_1732_43797"/>
<feColorMatrix in="SourceAlpha" type="matrix" values="0 0 0 0 0 0 0 0 0 0 0 0 0 0 0 0 0 0 127 0" result="hardAlpha"/>
<feOffset dy="0.8"/>
<feGaussianBlur stdDeviation="0.4"/>
<feColorMatrix type="matrix" values="0 0 0 0 0 0 0 0 0 0 0 0 0 0 0 0 0 0 0.04 0"/>
<feBlend mode="normal" in2="effect1_dropShadow_1732_43797" result="effect2_dropShadow_1732_43797"/>
<feBlend mode="normal" in="SourceGraphic" in2="effect2_dropShadow_1732_43797" result="shape"/>
</filter>
</defs>
</svg>
