<svg width="1200" height="550" viewBox="0 0 1200 550" fill="none" xmlns="http://www.w3.org/2000/svg">
<rect width="1200" height="550" fill="#F6F9FC"/>
<g filter="url(#filter0_dddd_17578_2472)">
<g clip-path="url(#clip0_17578_2472)">
<rect x="373" y="87.5" width="456" height="375" rx="6" fill="white"/>
<g opacity="0.3">
<path d="M566.931 134.605C566.931 144.139 559.221 151.868 549.71 151.868C540.199 151.868 532.488 144.139 532.488 134.605C532.488 125.071 540.199 117.342 549.71 117.342C559.221 117.342 566.931 125.071 566.931 134.605Z" fill="#FFC7DB"/>
<path d="M532.488 205.449V188.04L566.931 161.928L589.893 179.336L647.298 135.816L670.26 153.224V205.449H532.488Z" fill="#16C5C0"/>
</g>
<rect x="503" y="223.5" width="195.377" height="28.4214" rx="6" fill="#E3E8F2"/>
<rect x="532.488" y="345.45" width="137.772" height="28.4214" rx="6" fill="#0B64DD"/>
<rect x="571.547" y="356.819" width="59.6538" height="5.68428" rx="2.84214" fill="white"/>
<path d="M373 398.5H829V456.5C829 459.814 826.314 462.5 823 462.5H379C375.686 462.5 373 459.814 373 456.5V398.5Z" fill="#1750BA" fill-opacity="0.04"/>
<rect x="480" y="421.5" width="241.882" height="17.0528" rx="4" fill="#E3E8F2"/>
<rect x="454" y="270.5" width="294.718" height="17.0528" rx="4" fill="#E3E8F2"/>
<rect x="492.985" y="303.893" width="213" height="17" rx="4" fill="#E3E8F2"/>
</g>
</g>
<rect width="393.793" height="4" transform="matrix(-1 0 0 1 1092.79 174.5)" fill="#1750BA"/>
<circle cx="6" cy="6" r="6" transform="matrix(-1 0 0 1 701 170.5)" fill="#1750BA"/>
<circle cx="1097" cy="176.5" r="17" fill="#1750BA"/>
<path d="M1098.42 170.864V182.5H1096.32V172.915H1096.25L1093.53 174.653V172.722L1096.42 170.864H1098.42Z" fill="white"/>
<rect width="370.426" height="4" transform="matrix(-1 0 0 1 1093.43 237.5)" fill="#1750BA"/>
<circle cx="6" cy="6" r="6" transform="matrix(-1 0 0 1 725 233.5)" fill="#1750BA"/>
<circle cx="1097" cy="239.5" r="17" fill="#1750BA"/>
<path d="M1092.57 245.5V243.977L1096.61 240.017C1096.99 239.627 1097.31 239.28 1097.57 238.977C1097.83 238.674 1098.02 238.381 1098.15 238.097C1098.28 237.812 1098.34 237.509 1098.34 237.188C1098.34 236.82 1098.26 236.506 1098.09 236.244C1097.93 235.979 1097.7 235.775 1097.41 235.631C1097.11 235.487 1096.78 235.415 1096.41 235.415C1096.03 235.415 1095.69 235.494 1095.41 235.653C1095.12 235.809 1094.89 236.03 1094.74 236.318C1094.58 236.606 1094.5 236.949 1094.5 237.347H1092.5C1092.5 236.608 1092.67 235.966 1093 235.42C1093.34 234.875 1093.8 234.453 1094.39 234.153C1094.99 233.854 1095.67 233.705 1096.44 233.705C1097.22 233.705 1097.91 233.85 1098.5 234.142C1099.09 234.434 1099.55 234.833 1099.87 235.341C1100.2 235.848 1100.37 236.428 1100.37 237.08C1100.37 237.515 1100.28 237.943 1100.12 238.364C1099.95 238.784 1099.66 239.25 1099.24 239.761C1098.82 240.273 1098.23 240.892 1097.48 241.619L1095.47 243.659V243.739H1100.54V245.5H1092.57Z" fill="white"/>
<rect width="323.692" height="4" transform="matrix(-1 0 0 1 1094.69 295.5)" fill="#1750BA"/>
<circle cx="6" cy="6" r="6" transform="matrix(-1 0 0 1 773 291.5)" fill="#1750BA"/>
<circle cx="1097" cy="297.5" r="17" fill="#1750BA"/>
<path d="M1097 303.659C1096.18 303.659 1095.45 303.519 1094.82 303.239C1094.18 302.958 1093.68 302.568 1093.32 302.068C1092.95 301.568 1092.75 300.991 1092.73 300.335H1094.87C1094.89 300.65 1094.99 300.924 1095.18 301.159C1095.37 301.39 1095.62 301.57 1095.94 301.699C1096.25 301.828 1096.6 301.892 1096.99 301.892C1097.41 301.892 1097.78 301.82 1098.1 301.676C1098.42 301.528 1098.68 301.324 1098.86 301.062C1099.04 300.801 1099.13 300.5 1099.12 300.159C1099.13 299.807 1099.04 299.496 1098.85 299.227C1098.67 298.958 1098.4 298.748 1098.04 298.597C1097.7 298.445 1097.28 298.369 1096.78 298.369H1095.75V296.744H1096.78C1097.19 296.744 1097.54 296.674 1097.85 296.534C1098.15 296.394 1098.39 296.197 1098.57 295.943C1098.74 295.686 1098.83 295.388 1098.82 295.051C1098.83 294.722 1098.75 294.436 1098.6 294.193C1098.45 293.947 1098.24 293.756 1097.97 293.619C1097.7 293.483 1097.39 293.415 1097.02 293.415C1096.67 293.415 1096.34 293.479 1096.03 293.608C1095.73 293.737 1095.49 293.92 1095.3 294.159C1095.11 294.394 1095.02 294.674 1095 295H1092.98C1092.99 294.348 1093.18 293.777 1093.54 293.284C1093.9 292.788 1094.39 292.402 1094.99 292.125C1095.6 291.845 1096.28 291.705 1097.03 291.705C1097.81 291.705 1098.48 291.85 1099.06 292.142C1099.63 292.43 1100.08 292.818 1100.39 293.307C1100.71 293.795 1100.86 294.335 1100.86 294.926C1100.87 295.581 1100.67 296.131 1100.28 296.574C1099.9 297.017 1099.39 297.307 1098.76 297.443V297.534C1099.58 297.648 1100.21 297.951 1100.64 298.443C1101.08 298.932 1101.3 299.54 1101.29 300.267C1101.29 300.919 1101.11 301.502 1100.74 302.017C1100.37 302.528 1099.86 302.93 1099.22 303.222C1098.57 303.513 1097.83 303.659 1097 303.659Z" fill="white"/>
<rect width="387.951" height="4" transform="matrix(-1 0 0 1 1092.95 356)" fill="#1750BA"/>
<circle cx="6" cy="6" r="6" transform="matrix(-1 0 0 1 707 352)" fill="#1750BA"/>
<circle cx="1097" cy="358" r="17" fill="#1750BA"/>
<path d="M1092.5 361.841V360.165L1097.43 352.364H1098.83V354.75H1097.98L1094.65 360.017V360.108H1101.55V361.841H1092.5ZM1098.05 364V361.33L1098.07 360.58V352.364H1100.06V364H1098.05Z" fill="white"/>
<rect width="341.217" height="4" transform="matrix(-1 0 0 1 1094.22 428.5)" fill="#1750BA"/>
<circle cx="6" cy="6" r="6" transform="matrix(-1 0 0 1 755 424.5)" fill="#1750BA"/>
<circle cx="1097" cy="430.5" r="17" fill="#1750BA"/>
<path d="M1097.02 436.659C1096.26 436.659 1095.58 436.517 1094.98 436.233C1094.38 435.945 1093.91 435.551 1093.56 435.051C1093.21 434.551 1093.02 433.979 1093 433.335H1095.05C1095.08 433.812 1095.29 434.203 1095.66 434.506C1096.04 434.805 1096.49 434.955 1097.02 434.955C1097.43 434.955 1097.8 434.86 1098.12 434.67C1098.44 434.481 1098.7 434.218 1098.88 433.881C1099.07 433.544 1099.16 433.159 1099.15 432.727C1099.16 432.288 1099.06 431.898 1098.88 431.557C1098.69 431.216 1098.43 430.949 1098.1 430.756C1097.77 430.559 1097.39 430.46 1096.96 430.46C1096.61 430.456 1096.27 430.521 1095.93 430.653C1095.59 430.786 1095.33 430.96 1095.13 431.176L1093.23 430.864L1093.84 424.864H1100.59V426.625H1095.58L1095.24 429.71H1095.31C1095.53 429.456 1095.83 429.246 1096.23 429.08C1096.62 428.909 1097.05 428.824 1097.52 428.824C1098.23 428.824 1098.86 428.991 1099.41 429.324C1099.96 429.653 1100.4 430.108 1100.72 430.688C1101.03 431.267 1101.19 431.93 1101.19 432.676C1101.19 433.445 1101.02 434.131 1100.66 434.733C1100.31 435.331 1099.82 435.803 1099.19 436.148C1098.56 436.489 1097.84 436.659 1097.02 436.659Z" fill="white"/>
<defs>
<filter id="filter0_dddd_17578_2472" x="358" y="81.2" width="486" height="411.3" filterUnits="userSpaceOnUse" color-interpolation-filters="sRGB">
<feFlood flood-opacity="0" result="BackgroundImageFix"/>
<feColorMatrix in="SourceAlpha" type="matrix" values="0 0 0 0 0 0 0 0 0 0 0 0 0 0 0 0 0 0 127 0" result="hardAlpha"/>
<feOffset dy="15"/>
<feGaussianBlur stdDeviation="7.5"/>
<feColorMatrix type="matrix" values="0 0 0 0 0 0 0 0 0 0 0 0 0 0 0 0 0 0 0.04 0"/>
<feBlend mode="normal" in2="BackgroundImageFix" result="effect1_dropShadow_17578_2472"/>
<feColorMatrix in="SourceAlpha" type="matrix" values="0 0 0 0 0 0 0 0 0 0 0 0 0 0 0 0 0 0 127 0" result="hardAlpha"/>
<feOffset dy="5.7"/>
<feGaussianBlur stdDeviation="6"/>
<feColorMatrix type="matrix" values="0 0 0 0 0 0 0 0 0 0 0 0 0 0 0 0 0 0 0.05 0"/>
<feBlend mode="normal" in2="effect1_dropShadow_17578_2472" result="effect2_dropShadow_17578_2472"/>
<feColorMatrix in="SourceAlpha" type="matrix" values="0 0 0 0 0 0 0 0 0 0 0 0 0 0 0 0 0 0 127 0" result="hardAlpha"/>
<feOffset dy="2.6"/>
<feGaussianBlur stdDeviation="4"/>
<feColorMatrix type="matrix" values="0 0 0 0 0 0 0 0 0 0 0 0 0 0 0 0 0 0 0.06 0"/>
<feBlend mode="normal" in2="effect2_dropShadow_17578_2472" result="effect3_dropShadow_17578_2472"/>
<feColorMatrix in="SourceAlpha" type="matrix" values="0 0 0 0 0 0 0 0 0 0 0 0 0 0 0 0 0 0 127 0" result="hardAlpha"/>
<feOffset dy="0.9"/>
<feGaussianBlur stdDeviation="2"/>
<feColorMatrix type="matrix" values="0 0 0 0 0 0 0 0 0 0 0 0 0 0 0 0 0 0 0.08 0"/>
<feBlend mode="normal" in2="effect3_dropShadow_17578_2472" result="effect4_dropShadow_17578_2472"/>
<feBlend mode="normal" in="SourceGraphic" in2="effect4_dropShadow_17578_2472" result="shape"/>
</filter>
<clipPath id="clip0_17578_2472">
<rect x="373" y="87.5" width="456" height="375" rx="6" fill="white"/>
</clipPath>
</defs>
</svg>
